<svg width="169" height="53" viewBox="0 0 169 53" fill="none" xmlns="http://www.w3.org/2000/svg">
<path fill-rule="evenodd" clip-rule="evenodd" d="M41.8523 34.7342L41.8235 20.1603L40.4737 20.1667C39.3596 21.9395 37.4681 24.0021 36.1098 25.6481C36.1632 23.1185 33.1327 19.1947 28.3467 19.0047C25.0551 18.8741 23.2419 20.7099 23.2627 20.7344L24.7626 22.5046C25.8534 21.8108 26.4712 21.2971 28.3035 21.2486C32.034 21.5293 34.3093 24.341 34.2781 27.0834C34.2469 29.8258 31.7703 32.5775 28.7128 32.6641C27.5037 32.6514 26.0988 32.2078 25.0475 31.6451L25.5952 30.892C27.0791 31.8219 28.2652 31.8427 29.3691 31.708C30.4464 31.5766 32.4218 30.0163 33.1062 28.2507L33.0763 25.1044L27.5197 25.065L25.5897 27.6189L31.2273 27.6174C31.1666 27.7979 31.3501 28.2124 31.1955 28.4053C29.0961 31.0238 27.3129 30.8051 25.1171 28.3223L22 31.9377C23.7472 33.496 24.3901 35.1868 28.9498 35.1585C33.5096 35.1302 36.0628 30.2085 39.0716 26.2459L39.0885 34.785L41.8523 34.7342Z" fill="white"/>
<path fill-rule="evenodd" clip-rule="evenodd" d="M52.8883 25.2607C55.6019 25.1564 55.28 21.3465 57.2407 20.2105L72.7929 20.171C75.0821 20.186 76.9171 21.4026 76.955 23.803C76.9928 26.2035 74.2727 27.5727 72.7318 27.523L72.7897 32.906C72.7903 32.9608 72.4693 34.406 70.6647 34.7583L67.5172 34.7408L67.5404 22.0756L64.2231 22.0773L64.2459 34.7704L61.5406 34.7741L61.5173 22.0614L58.9418 22.066C57.5777 23.062 57.6737 25.1305 55.8314 26.1302C57.848 26.8513 59.2774 33.7566 60.4719 34.7124C54.9885 34.7446 54.7785 34.0969 53.9213 31.9401C53.7477 31.5033 53.2153 30.5859 52.9057 30.6061V34.7403L42.8281 34.7348L42.8434 20.1894L49.4848 20.1959L49.4908 22.0555L45.5032 22.0925L45.5279 25.0983L49.4827 25.0578L49.4874 27.651L45.4959 27.6536L45.4893 32.1154L49.9856 32.1826L49.9862 20.1602L52.8536 20.1975L52.8883 25.2607ZM52.8589 28.3615L52.8581 27.2116C54.4645 27.2227 54.7611 27.3375 55.4138 28.472C56.0666 29.6066 56.9214 31.4901 57.6581 32.9349C56.7911 32.8093 56.2221 32.2721 55.836 31.7003C55.57 31.3068 55.1978 30.3692 54.4716 28.9971C54.2172 28.5505 53.8432 28.3639 52.8589 28.3615ZM69.7483 22.0674L69.7952 32.5147C70.4137 32.4364 70.6175 32.3115 70.7351 31.6011L70.6411 25.4405L72.5913 25.4171C73.3725 25.3598 74.5445 24.7125 74.518 23.7071C74.4915 22.7018 73.1239 22.0363 72.4739 22.044L69.7483 22.0674Z" fill="white"/>
<path fill-rule="evenodd" clip-rule="evenodd" d="M73.4453 28.2451C73.4644 31.8249 77.2888 38.1055 84.6801 38.0416C91.6719 37.9812 94.3077 33.1397 95.2804 31.1068V34.7661L97.7746 34.7192V22.0525H100.786V34.7192C102.104 34.7036 102.763 34.7583 104.081 34.7425C105.867 34.7418 106.08 32.6329 106.056 32.6086L106.009 27.6822C107.66 27.5248 108.634 26.4363 109.303 25.3143L109.256 34.7192L111.75 34.6723L117.727 24.9143L117.68 34.7192L123.798 34.7427C125.224 34.3552 125.953 33.4722 126.48 32.7488C127.877 33.9682 129.651 35.604 132.503 35.5637C135.355 35.5232 137.082 33.8667 138.244 32.7018V34.7192H140.974C142.886 34.747 143.108 32.8537 143.115 32.8203L143.068 27.6353C145.208 27.5944 146.955 26.0263 146.903 23.718C146.851 21.4095 144.362 20.2012 143.373 20.2229L138.244 20.1759V22.4739C136.965 21.0357 135.724 19.5046 132.645 19.4942C129.567 19.4839 125.512 21.9024 124.621 25.1956C125.295 25.8212 126.017 26.1188 126.691 26.7442C126.921 24.3603 129.483 21.5599 132.503 21.6303C135.523 21.7007 138.069 24.5528 138.103 27.4006C138.138 30.2486 135.372 33.4053 132.503 33.3821C129.634 33.359 127.349 31.021 126.949 29.2788C126.605 27.7846 124.807 25.8985 122.58 25.881L121.068 25.8758C121.084 26.6108 121.1 27.0882 121.115 27.8231C121.838 27.8631 124.88 27.9233 124.903 30.3091C124.926 32.6947 122.599 32.8101 121.635 32.8425L120.292 32.8659L120.315 22.0525H125.539L125.491 20.1759H118.433L111.75 30.9661L111.797 20.1759H109.21L109.256 22.2397C108.664 21.1534 107.346 20.2002 105.751 20.1759L95.3274 20.2229V23.1784C94.0962 20.537 90.9499 16.057 84.7413 16.0006C79.1075 15.9494 76.3136 19.171 75.4822 20.0936C76.3666 20.6176 77.0209 21.3331 77.4453 22.2401C78.4178 20.9423 80.055 18.6257 84.7393 18.6278L83.9393 19.2846L83.8452 25.3364L77.1563 31.6783C76.4109 30.4539 75.9542 28.9916 75.8453 27.3537C75.1495 27.8418 74.3708 28.1783 73.4453 28.2451ZM84.7393 18.6278C89.4236 18.6298 93.3399 23.1126 93.3983 27.1192C93.4454 30.3997 90.9922 34.0262 87.3319 35.2373L85.4948 33.8597L85.5392 31.7167H91.8921L85.5392 25.2896L85.5863 19.2846L84.7393 18.6278ZM81.9664 35.2887C79.9032 34.705 78.2502 33.4535 77.1802 31.7167H83.8922V33.8278L81.9664 35.2887ZM102.876 22.0681L102.923 32.5154C103.542 32.4372 103.746 32.3123 103.863 31.6018L103.769 25.4412L105.719 25.4178C106.501 25.3604 107.672 24.7132 107.646 23.7078C107.619 22.7025 106.252 22.0369 105.602 22.0447L102.876 22.0681ZM140.052 22.2088L140.099 32.6561C140.718 32.5779 140.921 32.453 141.039 31.7425L140.945 25.582L142.895 25.5586C143.676 25.501 144.848 24.8539 144.822 23.8486C144.795 22.8432 143.428 22.1776 142.777 22.1854L140.052 22.2088Z" fill="white"/>
</svg>
