<svg width="169" height="53" viewBox="0 0 169 53" fill="none" xmlns="http://www.w3.org/2000/svg">
<path d="M33.2223 21.545C33.2223 21.4388 33.1869 21.3325 33.1515 21.1554L30.9211 15.0627C30.6379 14.3188 30.2484 14 29.6466 14C29.0093 14 28.6199 14.3188 28.372 15.0627L26.1062 21.1554C26.0354 21.3679 26 21.4742 26 21.545C26 21.8638 26.2478 22.1118 26.6019 22.1118C26.8851 22.1118 27.0975 21.9701 27.2391 21.6159L27.9826 19.5259H31.3105L32.054 21.6159C32.1602 21.9701 32.3726 22.1118 32.6559 22.1118C32.9745 22.1472 33.2223 21.8638 33.2223 21.545ZM28.3366 18.4633L29.4341 15.3106C29.4695 15.2044 29.5049 15.169 29.6112 15.169C29.682 15.169 29.7174 15.2044 29.7528 15.3106L30.8503 18.4633H28.3366ZM43.3831 22.0764H45.7905C47.3483 22.0764 48.3042 21.1554 48.3042 19.5614C48.3042 18.0382 47.3837 17.188 45.7905 17.188H43.6663V15.2398H47.2067C47.5961 15.2398 47.8439 15.0273 47.8439 14.6376C47.8439 14.2834 47.5961 14.0708 47.2067 14.0708H43.3477C42.7458 14.0708 42.3918 14.3897 42.3918 15.0273V21.12C42.4626 21.7576 42.7812 22.0764 43.3831 22.0764ZM43.7017 18.2862H45.6843C46.6048 18.2862 47.0297 18.7821 47.0297 19.5968C47.0297 20.4469 46.6048 20.9429 45.6843 20.9429H43.7017V18.2862ZM29.7882 29.3735H27.4161V26.8939H31.3459C31.5937 26.8939 31.8062 26.7522 31.8062 26.5042C31.8062 26.2563 31.6291 26.1146 31.3459 26.1146H27.3099C26.8497 26.1146 26.6019 26.3625 26.6019 26.823V33.4471C26.6019 33.9076 26.8497 34.1555 27.3099 34.1555H29.7882C31.3105 34.1555 32.1956 33.27 32.1956 31.7468C32.1956 30.2236 31.3105 29.3735 29.7882 29.3735ZM29.682 33.3408H27.4161V30.1173H29.682C30.8503 30.1173 31.3459 30.6841 31.3459 31.7114C31.3459 32.7386 30.8857 33.3408 29.682 33.3408ZM35.5235 28.0274C34.8155 28.0274 34.1428 28.2045 33.7888 28.3816C33.5409 28.4879 33.4347 28.5942 33.4347 28.8067C33.4347 29.0192 33.6117 29.1609 33.7888 29.1609C33.895 29.1609 34.0012 29.1255 34.1074 29.0547C34.3906 28.9484 34.9217 28.7713 35.4527 28.7713C36.4794 28.7713 36.9751 29.1964 36.9751 30.1173V30.6841C36.3378 30.507 35.8776 30.4361 35.3111 30.4361C33.7888 30.4361 33.0453 31.3217 33.0453 32.2781C33.0453 33.4471 33.9304 34.191 35.2757 34.191C36.4086 34.191 37.2937 33.8013 37.6123 33.5533C37.7539 33.4471 37.7894 33.3762 37.7894 33.1991V30.0819C37.7539 28.7004 36.9043 28.0274 35.5235 28.0274ZM36.9397 33.0574C36.4794 33.3054 35.8776 33.4825 35.3465 33.4825C34.3552 33.4825 33.7888 33.0574 33.7888 32.3136C33.7888 31.6405 34.2844 31.18 35.3465 31.18C35.8776 31.18 36.3378 31.2509 36.9397 31.428V33.0574ZM58.0401 15.9837C56.978 15.9837 56.1283 16.3733 55.8097 16.5504C55.5265 16.7276 55.4911 16.8338 55.4911 17.2943V23.4579C55.4911 23.8475 55.7389 24.0955 56.0929 24.0955C56.447 24.0955 56.6948 23.8475 56.6948 23.4579V21.8638C57.0488 22.041 57.6153 22.1827 58.1463 22.1827C59.5625 22.1827 60.5184 21.2617 60.6246 19.9156C60.66 19.4551 60.66 18.7112 60.6246 18.2507C60.5184 16.9047 59.5625 15.9837 58.0401 15.9837ZM59.4209 19.7385C59.3501 20.5178 58.8544 21.0137 58.0047 21.0137C57.5445 21.0137 56.978 20.872 56.6948 20.6595V17.4714C56.978 17.2589 57.5445 17.1172 58.0047 17.1172C58.8898 17.1172 59.3501 17.6485 59.4209 18.3924C59.4563 18.8175 59.4563 19.3134 59.4209 19.7385ZM39.0639 21.0845L36.9751 18.9946L38.9577 17.0109C39.0993 16.8692 39.2055 16.6921 39.2055 16.515C39.2055 16.2316 38.9931 16.0191 38.6744 16.0191C38.4974 16.0191 38.3558 16.0899 38.2142 16.2671L36.1608 18.2862C36.0546 18.3924 35.9484 18.4633 35.7714 18.4633H35.3465V16.6921C35.3465 16.3025 35.0987 16.0545 34.7447 16.0545C34.3906 16.0545 34.1428 16.3025 34.1428 16.6921V21.4742C34.1428 21.8638 34.3906 22.1118 34.7447 22.1118C35.0987 22.1118 35.3465 21.8638 35.3465 21.4742V19.5614H35.7005C35.8422 19.5614 35.9838 19.6322 36.09 19.7385L38.2496 21.8993C38.4266 22.0764 38.5682 22.1472 38.7452 22.1472C39.0639 22.1472 39.2763 21.9347 39.2763 21.6159C39.2763 21.4034 39.2055 21.2617 39.0639 21.0845ZM66.2537 19.8802C65.9705 19.8802 65.8289 20.0573 65.7227 20.2344C65.5103 20.6949 65.0854 21.0137 64.4482 21.0137C63.5985 21.0137 63.0674 20.4824 62.9966 19.7385C62.9612 19.3134 62.9612 18.8529 62.9966 18.4278C63.0674 17.6485 63.5631 17.1526 64.4482 17.1526C65.05 17.1526 65.5103 17.4714 65.7227 17.9319C65.8289 18.109 65.9705 18.2862 66.2537 18.2862C66.6078 18.2862 66.8556 18.0736 66.8556 17.7194C66.8556 17.5423 66.7848 17.3652 66.6786 17.1526C66.3245 16.4796 65.5457 15.9837 64.4482 15.9837C62.9612 15.9837 61.9699 16.9401 61.8283 18.2862C61.7929 18.7466 61.7929 19.4905 61.8283 19.9156C61.9699 21.2617 62.9612 22.2181 64.4482 22.2181C65.5457 22.2181 66.3245 21.6867 66.6786 21.0137C66.7848 20.8012 66.8556 20.6241 66.8556 20.4469C66.8202 20.0927 66.6078 19.8802 66.2537 19.8802ZM51.6321 15.9837C50.9594 15.9837 50.3576 16.1608 49.9681 16.3025C49.6495 16.4442 49.5079 16.6213 49.5079 16.8692C49.5079 17.1526 49.7203 17.4006 50.0035 17.4006C50.1452 17.4006 50.2868 17.3297 50.4638 17.2943C50.7116 17.188 51.1365 17.0818 51.5613 17.0818C52.4818 17.0818 52.8712 17.436 52.8712 18.1445V18.6404C52.3402 18.4987 51.8799 18.4278 51.3843 18.4278C49.8619 18.4278 49.1185 19.3134 49.1185 20.2344C49.1185 21.3325 49.9681 22.1827 51.4197 22.1827C52.5526 22.1827 53.4377 21.793 53.7917 21.545C53.9687 21.4388 54.0041 21.3325 54.0041 21.0845V18.1445C54.0395 16.6567 53.1545 15.9837 51.6321 15.9837ZM52.8712 20.8366C52.5172 21.0137 52.0215 21.1554 51.5613 21.1554C50.7824 21.1554 50.2868 20.8012 50.2868 20.2344C50.2868 19.7031 50.7116 19.278 51.5613 19.278C52.0215 19.278 52.411 19.3488 52.9066 19.4905V20.8366H52.8712ZM47.8439 31.0738L50.1452 28.7713C50.2514 28.665 50.2868 28.5587 50.2868 28.4525C50.2868 28.2754 50.1452 28.0982 49.9327 28.0982C49.8265 28.0982 49.7203 28.1337 49.6141 28.2399L47.3483 30.507C47.2067 30.6487 47.1005 30.7195 46.9234 30.7195H46.534V28.5587C46.534 28.2754 46.3924 28.1337 46.1446 28.1337C45.8967 28.1337 45.7551 28.2754 45.7551 28.5587V33.8013C45.7551 34.0847 45.8967 34.2264 46.1446 34.2264C46.3924 34.2264 46.534 34.0847 46.534 33.8013V31.4634H46.9588C47.1359 31.4634 47.2775 31.5343 47.3837 31.6759L49.7911 34.0847C49.8973 34.191 50.0035 34.2264 50.1098 34.2264C50.3222 34.2264 50.4638 34.0493 50.4638 33.8722C50.4638 33.7305 50.4284 33.6596 50.2868 33.5179L47.8439 31.0738ZM43.7371 28.0628C43.4893 28.0628 43.3477 28.2045 43.3477 28.4879V30.6487H40.0198V28.4879C40.0198 28.2045 39.8782 28.0628 39.6303 28.0628C39.3825 28.0628 39.2409 28.2045 39.2409 28.4879V33.7305C39.2409 34.0138 39.3825 34.1555 39.6303 34.1555C39.8782 34.1555 40.0198 34.0138 40.0198 33.7305V31.3926H43.3477V33.7305C43.3477 34.0138 43.4893 34.1555 43.7371 34.1555C43.985 34.1555 44.1266 34.0138 44.1266 33.7305V28.4879C44.1266 28.2399 43.985 28.0628 43.7371 28.0628Z" fill="white"/>
<path d="M113.633 22.0055L108.216 22.9974C107.331 23.1745 106.729 24.0246 106.87 24.9102C107.047 25.7958 107.897 26.398 108.782 26.2563L114.199 25.2644C115.473 25.0165 116.288 25.7958 116.606 26.6105C116.925 27.4252 116.854 28.5233 115.757 29.2318L107.826 34.4035C107.083 34.8994 106.198 34.8994 105.419 34.5098C104.64 34.0847 104.18 33.3054 104.18 32.4198V19.7031C104.18 17.5777 103.082 15.7357 101.206 14.7085C99.3649 13.6812 97.1699 13.7875 95.3997 14.921L75.3614 27.9211C73.0955 29.3735 72.2459 32.0302 73.2372 34.5452C74.2285 37.0602 76.6713 38.4063 79.3266 37.9458L96.8159 34.7931C97.701 34.616 98.3028 33.7659 98.1612 32.8803C97.9842 31.9947 97.1345 31.3926 96.2494 31.5343L78.7601 34.6869C77.4502 34.9348 76.6713 34.1555 76.3527 33.3408C76.034 32.5261 76.1048 31.428 77.2023 30.7195L97.2407 17.7194C97.9842 17.2235 98.8693 17.2235 99.6481 17.6131C100.427 18.0382 100.887 18.8175 100.887 19.7031V32.4198C100.887 34.5452 101.985 36.3872 103.861 37.4144C104.711 37.8749 105.667 38.1229 106.587 38.1229C107.649 38.1229 108.711 37.8041 109.667 37.2019L117.633 32.0302C119.899 30.5778 120.749 27.9211 119.757 25.4061C118.731 22.8911 116.288 21.5096 113.633 22.0055ZM141.672 25.3707C140.681 22.8557 138.238 21.5096 135.583 21.9701L130.166 22.962C129.281 23.1391 128.679 23.9892 128.821 24.8748C128.998 25.7603 129.847 26.3625 130.732 26.2208L136.149 25.229C137.424 24.981 138.238 25.7603 138.557 26.5751C138.875 27.3898 138.804 28.4879 137.707 29.1964L129.776 34.4035C129.033 34.8994 128.148 34.8994 127.369 34.5098C126.59 34.0847 126.13 33.3054 126.13 32.4198V15.6649C126.13 14.7439 125.386 14 124.466 14C123.545 14 122.802 14.7439 122.802 15.6649V32.4198C122.802 34.5452 123.9 36.3872 125.776 37.4144C126.626 37.8749 127.581 38.1229 128.502 38.1229C129.564 38.1229 130.626 37.8041 131.582 37.2019L139.548 32.0302C141.814 30.5424 142.663 27.8857 141.672 25.3707Z" fill="white"/>
</svg>
