<svg width="169" height="53" viewBox="0 0 169 53" fill="none" xmlns="http://www.w3.org/2000/svg">
<path fill-rule="evenodd" clip-rule="evenodd" d="M60.8083 20.6903C62.466 20.6903 64.116 20.6903 65.7737 20.6903C65.7737 21.1761 65.7737 21.6541 65.7737 22.1398C65.4575 21.9856 65.126 21.8469 64.7636 21.8391C64.062 21.8391 63.3604 21.8391 62.6664 21.8391C62.651 23.998 62.6587 26.1569 62.6587 28.3157C62.8438 28.3157 63.0288 28.3157 63.2139 28.3543C64.2547 28.4699 65.1723 29.1638 65.6426 30.0891C65.9124 30.5671 66.0435 31.0837 66.1746 31.6157C66.3365 32.5717 66.3751 33.5432 66.2825 34.507C66.1977 35.3243 66.1515 35.9026 65.8585 36.7044C65.5424 37.5294 64.887 38.2387 64.0466 38.5317C63.3758 38.7168 62.6742 38.7245 61.9802 38.6859C61.5793 38.632 61.1784 38.6628 60.7852 38.6474C60.8083 38.5934 60.8314 38.5394 60.8545 38.4855C60.9548 38.1925 61.001 37.8918 61.0242 37.5834C61.0781 37.3521 61.055 37.1131 61.055 36.874C61.055 31.9781 61.055 27.0821 61.055 22.1784C61.0936 21.6772 60.9548 21.1761 60.8083 20.6903ZM62.6664 29.4491C62.6664 32.1554 62.6664 34.8694 62.6664 37.5757C62.9209 37.5757 63.183 37.5525 63.4298 37.4831C63.6225 37.3906 63.8307 37.2827 63.9386 37.0822C64.3473 36.3806 64.4398 34.9388 64.4475 34.1292C64.4552 32.7028 64.2625 30.9526 63.8076 30.143C63.5762 29.7344 63.1445 29.4183 62.6664 29.4491ZM90.6313 20.6903C91.3176 20.6903 92.0038 20.6903 92.69 20.6903C92.7208 20.8291 92.7594 20.9679 92.7902 21.1067C92.8981 21.5307 93.0138 21.9548 93.1063 22.3866C93.461 23.7898 93.8002 25.2008 94.1549 26.6041C94.2166 26.8585 94.2783 27.1206 94.3477 27.3751C94.3939 27.5524 94.4402 27.7374 94.4633 27.9148L94.5096 27.9071C94.8642 26.1183 95.4502 24.0366 95.8897 22.2555C96.0054 21.7312 96.1441 21.1915 96.2521 20.6826C96.9152 20.6826 97.7016 20.6903 98.3724 20.6826C98.2799 20.8754 98.2259 21.0758 98.1796 21.284C98.0717 21.8777 98.1102 22.4791 98.1025 23.0805C98.1025 26.951 98.1025 30.8215 98.1025 34.692C98.1102 35.6327 98.0871 36.5733 98.1102 37.5217C98.1796 37.8687 98.2413 38.2233 98.357 38.5626C97.663 38.5626 96.9691 38.5626 96.2675 38.5626C96.2906 38.3775 96.3369 38.2002 96.3832 38.0229C96.4603 37.7299 96.5065 37.4292 96.4911 37.1285C96.4834 33.3736 96.4988 29.6187 96.4834 25.8639C96.4448 25.9178 96.414 25.9718 96.3986 26.0412C95.9514 28.1769 95.4965 30.3127 95.0493 32.4484C95.0184 32.5717 94.9953 32.7028 94.9645 32.8262C94.9259 33.0035 94.8874 33.1809 94.8565 33.3582L94.8334 33.3967C94.7486 33.8979 94.6175 34.3914 94.5327 34.8925C94.5173 34.9465 94.471 35.0467 94.4556 35.093C94.3631 34.5764 94.2474 34.0598 94.1241 33.5432C94.1086 33.4507 94.0932 33.3582 94.0778 33.2734C94.047 33.1731 94.0315 33.0652 94.0084 32.9573C93.8465 32.2325 93.7077 31.5077 93.5458 30.783C93.3916 29.9888 93.2066 29.1947 93.0446 28.4005C92.9136 27.7991 92.7902 27.1977 92.6668 26.5963C92.6052 26.3265 92.5589 26.0566 92.5126 25.7868C92.4741 27.5139 92.5049 29.2409 92.4972 30.968C92.4972 32.7645 92.4972 34.561 92.4972 36.3575C92.5049 36.8895 92.4587 37.4369 92.5974 37.9612C92.6437 38.1616 92.6977 38.3621 92.7594 38.5626C92.0654 38.5626 91.3715 38.5626 90.6776 38.5626C90.7547 38.1077 90.9089 37.6605 90.9089 37.1979C90.9089 32.1091 90.9089 27.0204 90.9089 21.9394C90.8704 21.5153 90.8395 21.0681 90.6313 20.6903ZM69.1739 23.9595C69.3435 23.9132 69.5208 23.8823 69.6981 23.8438C69.8524 23.8361 70.0066 23.8361 70.1608 23.8438C70.554 23.9132 70.9626 24.0211 71.271 24.2833C71.911 24.8076 72.1654 25.6788 72.1731 26.4807C72.1731 29.7729 72.1731 33.0652 72.1731 36.3652C72.1808 36.7738 72.335 37.2056 72.6512 37.4754C72.6974 37.514 72.7128 37.568 72.7128 37.6373C72.3505 38.0383 72.0112 38.4778 71.6951 38.9095C71.3636 38.7785 71.1245 38.5009 70.9241 38.2156C70.7236 38.6165 70.2841 38.8478 69.8446 38.8401C69.4591 38.8633 69.089 38.7707 68.7344 38.6243C68.2718 38.4007 67.8863 38.0306 67.6395 37.5834C67.601 37.4986 67.5547 37.4137 67.5162 37.3289C67.0921 36.2649 67.2155 35.0776 67.4776 33.9904C67.5624 33.6666 67.6704 33.3428 67.8014 33.0266C67.8785 32.8262 67.9711 32.6411 68.0636 32.4561C68.665 31.2919 69.5594 30.2818 70.6542 29.5571C70.6696 28.4699 70.6542 27.3751 70.6619 26.2879C70.6542 25.8562 70.6619 25.3858 70.4075 25.0157C70.207 24.7305 69.783 24.6996 69.49 24.8538C69.3049 24.9464 69.2124 25.1468 69.1199 25.3164C68.9965 25.702 68.9965 25.9641 68.9348 26.3496C68.8809 27.2594 68.8809 27.7452 69.0582 28.6395C68.5802 28.6318 68.0944 28.6395 67.6164 28.6318C67.5624 28.5547 67.5162 28.4776 67.4699 28.4005C67.3003 27.6526 67.4236 26.8816 67.5856 26.1491C67.6318 25.9795 67.6781 25.8099 67.7398 25.648C67.8246 25.4244 67.9171 25.2008 68.025 24.9926C68.2949 24.5608 68.6727 24.1522 69.1739 23.9595ZM70.6311 30.8447C70.3689 31.1299 70.0914 31.4075 69.9063 31.7545C69.7213 32.0552 69.621 32.3173 69.49 32.6334C69.0968 33.7437 68.9811 34.9465 69.0813 36.1107C69.089 36.4885 69.1661 36.8663 69.2818 37.2287C69.3666 37.4446 69.49 37.6682 69.7059 37.7838C70.0374 37.8995 70.5154 37.8147 70.6234 37.4292C70.6696 37.0745 70.6388 36.7198 70.6465 36.3729C70.6388 34.5301 70.6696 32.6874 70.6311 30.8447ZM101.295 24.0211C101.68 23.813 102.135 23.8207 102.559 23.8438C103.415 23.9826 103.955 24.7613 104.24 25.5169C104.448 26.1414 104.564 26.6734 104.687 27.3211C104.795 28.1307 104.834 28.948 104.872 29.7575C104.918 31.0374 104.857 32.325 104.826 33.6049C104.718 34.9773 104.61 36.4037 103.97 37.6528C103.754 38.046 103.461 38.4315 103.045 38.6397C102.366 39.0021 101.449 38.8864 100.909 38.3313C100.578 38.0229 100.369 37.6142 100.192 37.2056C100.169 37.1362 100.146 37.0745 100.123 37.0128C100.092 36.928 100.069 36.8509 100.038 36.7661C100.007 36.6119 99.9607 36.4654 99.9144 36.3112C99.8296 35.8409 99.714 35.3705 99.6754 34.8925C99.6137 34.6612 99.6523 34.4222 99.5906 34.1986C99.4827 32.6411 99.4904 31.076 99.5135 29.5108C99.5675 28.3466 99.66 27.1669 99.9684 26.0412C100.007 25.9101 100.053 25.7791 100.092 25.6557C100.123 25.5709 100.153 25.4938 100.192 25.4167C100.431 24.8538 100.755 24.2987 101.295 24.0211ZM101.603 25.2085C101.58 25.2933 101.557 25.3781 101.534 25.4707C101.464 25.8484 101.449 26.234 101.433 26.6118C101.341 28.3851 101.372 30.1662 101.372 31.9395C101.402 32.6874 101.349 33.4353 101.41 34.1832C101.433 34.7152 101.426 35.2549 101.456 35.7946C101.518 36.0876 101.472 36.396 101.534 36.689C101.549 36.8432 101.564 36.9974 101.58 37.1516C101.618 37.3058 101.649 37.4677 101.703 37.6142C101.765 37.7607 101.904 37.8455 102.027 37.938C102.312 37.9997 102.613 37.8301 102.698 37.5448C102.806 37.1824 102.837 36.8046 102.86 36.4346C102.929 36.1184 102.891 35.7946 102.921 35.4708C102.968 35.1315 102.952 34.7923 102.96 34.453C102.991 32.9573 103.014 31.4538 103.014 29.958C102.999 28.547 103.006 27.1283 102.883 25.7174C102.844 25.4321 102.783 25.1237 102.574 24.9155C102.42 24.7613 102.166 24.7459 101.958 24.8076C101.788 24.8693 101.672 25.0389 101.603 25.2085ZM107.617 24.237C108.103 23.7975 108.835 23.7359 109.437 23.9672C109.614 24.052 109.791 24.1676 109.945 24.291C110.339 24.6534 110.608 25.1391 110.794 25.6403C111.063 26.4576 111.194 27.3211 111.125 28.1769C111.11 28.3388 111.04 28.493 110.986 28.6473C110.477 28.7321 109.953 28.6627 109.437 28.6858C109.645 27.9533 109.714 27.6141 109.683 26.712C109.668 26.3419 109.629 25.9718 109.537 25.6094C109.46 25.3164 109.336 25.008 109.074 24.8384C108.928 24.7382 108.743 24.7767 108.581 24.7922C108.349 24.9386 108.218 25.1931 108.18 25.4552C107.979 26.7043 108.072 27.9842 108.002 29.2409C107.995 30.8061 107.979 32.5486 108.049 34.1138C108.041 34.8 108.11 35.4862 108.126 36.1724C108.203 36.689 108.18 37.2287 108.396 37.7144C108.534 37.8532 108.712 37.9843 108.928 37.938C109.298 37.8841 109.498 37.5063 109.591 37.1824C109.837 36.2495 109.791 35.2703 109.845 34.3142C109.845 33.4738 109.891 32.6026 109.544 31.8239C109.537 31.793 109.537 31.739 109.529 31.7082C110.084 31.7159 110.632 31.7005 111.187 31.7236C111.233 31.8161 111.279 31.9087 111.326 31.9935C111.349 32.5178 111.349 33.0421 111.333 33.5664C111.318 34.2834 111.225 35.1855 111.094 35.8794C111.025 36.2649 110.917 36.6504 110.794 37.0282C110.601 37.5448 110.362 38.0614 109.945 38.4315C109.514 38.8401 108.858 38.9481 108.303 38.7785C107.802 38.6397 107.409 38.2542 107.147 37.8224C106.746 37.1439 106.553 36.3652 106.422 35.5941C106.352 35.2626 106.337 34.9156 106.283 34.5841C106.183 33.4122 106.144 32.1477 106.137 30.968C106.129 29.9657 106.175 28.8323 106.283 27.8454C106.368 27.1515 106.484 26.4653 106.699 25.8022C106.877 25.2162 107.147 24.6379 107.617 24.237ZM120.316 24.1599C120.747 23.9132 121.249 23.813 121.742 23.8438C122.166 23.8978 122.598 24.0366 122.914 24.345C123.377 24.8076 123.585 25.4629 123.654 26.1029C123.724 26.6966 123.731 27.298 123.654 27.8917C123.616 28.2309 123.5 28.5624 123.361 28.8708C123.145 29.2641 122.86 29.6342 122.482 29.8732C122.482 29.8886 122.482 29.9271 122.474 29.9503C122.729 30.0428 122.937 30.2201 123.138 30.3975C123.431 30.7059 123.639 31.076 123.793 31.4692C123.909 31.8084 123.986 32.1477 124.047 32.5024C124.109 33.1654 124.163 33.8362 124.094 34.4993C124.063 35.2395 123.963 35.9874 123.708 36.6813C123.523 37.2056 123.192 37.6836 122.744 38.0151C122.444 38.2465 122.104 38.4161 121.727 38.4778C120.817 38.6397 119.892 38.5317 118.982 38.5703C119.097 38.1848 119.267 37.807 119.259 37.3906C119.259 33.7514 119.259 30.1199 119.259 26.4884C119.252 25.6171 119.575 24.6765 120.316 24.1599ZM121.333 24.7999C121.025 24.9078 120.878 25.2316 120.824 25.5323C120.732 26.126 120.763 26.7197 120.763 27.3211C120.763 28.0844 120.763 28.8477 120.763 29.611C121.264 29.6496 121.742 29.3489 121.989 28.9171C122.22 28.5085 122.336 28.0381 122.374 27.5755C122.467 27.005 122.405 26.419 122.397 25.8407C122.351 25.4707 122.336 24.9926 121.935 24.8153C121.734 24.769 121.534 24.7459 121.333 24.7999ZM120.763 30.675C120.778 32.9573 120.755 35.2472 120.771 37.5294C121.218 37.5525 121.773 37.4292 121.981 36.982C122.205 36.5117 122.274 35.9797 122.313 35.4631C122.413 34.6149 122.374 33.443 122.274 32.5795C122.228 32.1323 122.143 31.7005 121.95 31.2919C121.719 30.8678 121.241 30.6134 120.763 30.675ZM73.5687 24.0751C74.1701 24.0674 74.7792 24.0751 75.3806 24.0751C75.3806 26.2571 75.3806 28.4468 75.3806 30.6288C75.9357 30.6288 76.4985 30.6288 77.0537 30.6288C77.0614 28.9017 77.0537 27.1823 77.0537 25.4552C77.0845 24.9772 76.938 24.5069 76.753 24.0674C77.3544 24.0674 77.9635 24.0674 78.5649 24.0674C78.5649 28.123 78.5649 32.1785 78.5649 36.2341C78.5803 36.7661 78.5263 37.3058 78.6034 37.8378C78.6651 38.0845 78.7653 38.3236 78.8502 38.5703C78.1562 38.5703 77.4546 38.5703 76.7607 38.5703C76.7761 38.5163 76.8147 38.4161 76.8301 38.3621C77.1308 37.7144 77.0383 36.9897 77.0537 36.2958C77.046 34.6843 77.0614 33.0806 77.046 31.4692C76.4908 31.4769 75.9357 31.4769 75.3806 31.4692C75.3806 33.5509 75.3651 35.6327 75.3883 37.7144C75.45 37.9303 75.4885 38.1539 75.5887 38.3544C75.6119 38.4238 75.635 38.4932 75.6504 38.5703C74.9565 38.5626 74.2626 38.5626 73.561 38.5626C73.6689 38.2387 73.8231 37.9303 73.8385 37.5834C73.8617 35.9103 73.8308 34.2449 73.8539 32.5717C73.8385 32.2942 73.8462 32.0166 73.8539 31.739C73.8308 30.837 73.8694 29.9426 73.8539 29.0405C73.8462 28.3774 73.8462 27.7143 73.8539 27.0512C73.8385 26.5578 73.8462 26.0643 73.8539 25.5786C73.8694 25.116 73.8308 24.6457 73.6226 24.2216C73.6149 24.183 73.5918 24.1291 73.5687 24.0751ZM79.9836 24.0751C80.585 24.0751 81.1863 24.0751 81.7877 24.0751C81.78 25.3704 81.7877 26.6657 81.7877 27.9688C81.8032 28.5856 81.7569 29.2101 81.8109 29.8192C81.8803 29.5339 81.9959 29.2641 82.1039 28.9942C82.181 28.8015 82.2581 28.601 82.3275 28.4082C82.3737 28.3003 82.4123 28.1924 82.4508 28.0921C82.605 27.7066 82.7515 27.3211 82.898 26.9356C83.0368 26.5501 83.191 26.1569 83.3452 25.7791C83.3915 25.6711 83.43 25.5632 83.4686 25.4475C83.5457 25.2933 83.5842 25.1237 83.6228 24.9541C83.6459 24.6611 83.6459 24.3681 83.5842 24.0751C84.1239 24.0751 84.6636 24.0597 85.2034 24.0828C85.08 24.3681 84.9643 24.6611 84.841 24.9541C84.7947 25.0774 84.7407 25.2008 84.6868 25.3242C84.5326 25.6865 84.3938 26.0566 84.2396 26.419C84.0854 26.7814 83.9466 27.1515 83.7924 27.5139C83.7076 27.7529 83.5765 27.9765 83.5148 28.2232C83.6228 28.7783 83.7538 29.3335 83.8772 29.8886C84.016 30.5748 84.1702 31.261 84.3244 31.9472C84.5943 33.2194 84.8718 34.4916 85.1571 35.7561C85.3653 36.689 85.558 37.6373 85.7662 38.578C85.1802 38.578 84.5943 38.578 84.0006 38.578C84.0237 38.2156 84.1162 37.8532 84.0468 37.4909C83.9466 36.9743 83.8155 36.4654 83.7076 35.9488C83.3298 34.1909 82.9134 32.4175 82.5202 30.6519C82.2504 31.0991 82.0499 31.7699 81.8263 32.271C81.7569 32.3867 81.7723 32.5255 81.7646 32.6566C81.7646 34.2294 81.7646 35.81 81.7646 37.3829C81.7569 37.7222 81.8571 38.0614 81.9882 38.3698C82.019 38.4392 82.0345 38.5086 82.0499 38.578C81.356 38.5703 80.6543 38.578 79.9604 38.578C79.999 38.4623 80.0452 38.3544 80.0992 38.2465C80.1763 37.992 80.2611 37.7376 80.2534 37.4754C80.2534 33.5355 80.2534 29.5956 80.2534 25.6557C80.2534 25.3781 80.2688 25.0929 80.2226 24.8153C80.1686 24.6534 80.13 24.4837 80.0607 24.3218C80.0452 24.237 80.0144 24.1522 79.9836 24.0751ZM112.451 24.0751C113.053 24.0751 113.654 24.0751 114.255 24.0751C114.255 25.887 114.255 27.6989 114.255 29.5108C114.255 29.6187 114.271 29.7267 114.279 29.8346C114.325 29.6342 114.402 29.4414 114.479 29.2486C114.587 28.9711 114.703 28.6935 114.803 28.4159C114.965 28.015 115.119 27.6064 115.273 27.2054C115.304 27.1129 115.343 27.0281 115.373 26.9356C115.574 26.4421 115.759 25.9487 115.944 25.4552C115.975 25.3781 116.006 25.2933 116.044 25.2162C116.137 24.8461 116.144 24.4529 116.06 24.0751C116.592 24.0674 117.131 24.0751 117.663 24.0751C117.656 24.1059 117.648 24.1599 117.648 24.183C117.532 24.4298 117.432 24.6919 117.324 24.9464C117.27 25.0697 117.216 25.1931 117.162 25.3242C116.877 26.0412 116.576 26.7505 116.291 27.4599C116.191 27.6912 116.106 27.9302 115.998 28.1538C116.006 28.2001 116.013 28.3003 116.013 28.3543C116.137 28.8631 116.245 29.372 116.36 29.8886C116.399 30.0813 116.437 30.2741 116.484 30.4669C116.584 30.9603 116.7 31.4538 116.807 31.9395C116.939 32.6257 117.108 33.3119 117.255 33.9981C117.309 34.2988 117.378 34.5918 117.447 34.8925C117.517 35.2626 117.602 35.6327 117.686 35.9951C117.71 36.0953 117.733 36.2032 117.748 36.3112C117.848 36.7121 117.925 37.1208 118.018 37.5217C118.087 37.8764 118.18 38.2233 118.242 38.578C117.656 38.578 117.07 38.5703 116.484 38.578C116.514 38.1925 116.615 37.7915 116.514 37.406C116.098 35.5248 115.674 33.6358 115.242 31.7545C115.165 31.369 115.065 30.9912 114.996 30.6056C114.764 31.1299 114.556 31.6619 114.333 32.1939C114.217 32.3944 114.248 32.6257 114.248 32.8416C114.248 34.3142 114.248 35.7869 114.248 37.2673C114.232 37.6605 114.325 38.0614 114.502 38.4161C114.51 38.47 114.518 38.524 114.525 38.578C113.831 38.5703 113.137 38.5703 112.451 38.578C112.528 38.3544 112.629 38.1385 112.683 37.9072C112.752 37.6605 112.736 37.3983 112.736 37.1439C112.736 33.1654 112.736 29.187 112.736 25.2085C112.744 24.9849 112.69 24.769 112.636 24.5608C112.575 24.3912 112.513 24.2293 112.451 24.0751ZM125.019 24.0751C125.62 24.0751 126.222 24.0751 126.823 24.0751C126.823 25.7328 126.823 27.3905 126.823 29.0482C127.263 29.0636 127.702 29.133 128.111 29.2949C128.851 29.6033 129.391 30.251 129.714 30.968C129.753 31.076 129.791 31.1839 129.838 31.2919C130.084 32.0629 130.192 32.8724 130.185 33.6743C130.2 34.561 130.123 35.4554 129.899 36.3112C129.522 37.3058 129.144 38.0691 128.034 38.4315C127.795 38.4855 127.555 38.524 127.316 38.5317C126.561 38.6011 125.79 38.5394 125.027 38.5626C125.057 38.4623 125.088 38.3698 125.127 38.2773C125.381 37.7376 125.312 37.1285 125.32 36.5502C125.32 32.7876 125.32 29.0173 125.32 25.2548C125.327 24.8461 125.165 24.4529 125.019 24.0751ZM126.823 30.0891C126.823 32.5795 126.815 35.0621 126.831 37.5525C127.232 37.5217 127.694 37.4754 127.956 37.1285C128.141 36.8432 128.226 36.5117 128.288 36.1724C128.434 35.2934 128.419 34.1755 128.388 33.2811C128.365 32.5409 128.28 31.793 128.041 31.0914C127.864 30.5748 127.424 30.0582 126.823 30.0891ZM130.801 24.0751C131.403 24.0674 132.012 24.0751 132.613 24.0674C132.606 28.5085 132.613 32.9495 132.613 37.3906C132.606 37.7993 132.775 38.1771 132.899 38.5626C132.205 38.5703 131.503 38.5626 130.809 38.5626C130.956 38.231 131.064 37.8764 131.118 37.5217C131.125 33.389 131.125 29.2641 131.118 25.1314C131.071 24.769 130.963 24.4066 130.801 24.0751Z" fill="white"/>
<path fill-rule="evenodd" clip-rule="evenodd" d="M37.0077 14.0058C37.9021 13.9981 38.7965 13.9981 39.6909 14.0058C40.3308 14.0366 40.9476 14.1985 41.5413 14.4453C42.721 14.9541 43.7156 15.8562 44.4326 16.9202C44.6716 17.2749 44.8798 17.6527 45.0572 18.0382C45.3347 18.6319 45.4658 19.1562 45.6123 19.7807C45.6508 20.066 45.7125 20.3513 45.7048 20.6366C45.7048 20.7368 45.6971 20.8293 45.6971 20.9295C45.7511 20.9295 45.805 20.9295 45.859 20.9295C45.8128 20.1971 45.9901 19.4183 46.2291 18.7167C46.7071 17.3597 47.5476 16.1107 48.6964 15.2317C49.105 14.9079 49.5522 14.6457 50.0302 14.4453C50.6008 14.1985 51.2176 14.052 51.8421 14.0058C52.7442 13.9981 53.654 13.9981 54.5561 14.0058C54.5561 22.194 54.5561 30.3745 54.5561 38.5628C51.8576 38.5628 49.1513 38.5628 46.4527 38.5628C46.4527 33.9829 46.4527 29.4108 46.4527 24.8309C46.0055 24.8309 45.5583 24.8309 45.1111 24.8309C45.1111 29.4108 45.1111 33.9829 45.1111 38.5628C42.4049 38.5628 39.7063 38.5705 37 38.5628C37.0077 30.3822 37.0077 22.194 37.0077 14.0058Z" fill="white"/>
</svg>
