<svg width="169" height="53" viewBox="0 0 169 53" fill="none" xmlns="http://www.w3.org/2000/svg">
<path fill-rule="evenodd" clip-rule="evenodd" d="M57.276 15L56.2063 17.93H71.0295L72.0992 15H57.276ZM55.6712 19.3944L54.6015 22.3237H69.4247L70.4943 19.3944H55.6712ZM54.0697 23.7887L53 26.7181H67.8232L68.8922 23.7887H54.0697Z" fill="white"/>
<mask id="mask0_565_376" style="mask-type:alpha" maskUnits="userSpaceOnUse" x="75" y="19" width="41" height="19">
<path d="M75.2422 37.3974H115.819V19.4492H75.2422V37.3974Z" fill="white"/>
</mask>
<g mask="url(#mask0_565_376)">
<path fill-rule="evenodd" clip-rule="evenodd" d="M84.5119 27.8341V27.896C85.1893 28.1446 85.8364 28.5794 86.1755 28.8586C87.223 29.7282 87.6854 30.877 87.6854 32.3675C87.6854 34.8213 86.3912 36.5911 84.2652 37.1502C83.6181 37.3363 82.9407 37.3988 81.6768 37.3988H75.2383V19.4502H80.9381C82.1089 19.4502 82.9097 19.512 83.6181 19.6982C85.6827 20.2573 87.0383 21.686 87.0383 23.9523C87.0383 25.1636 86.6069 26.1887 85.8984 26.8715C85.5904 27.182 85.159 27.5549 84.5119 27.8341ZM78.8121 29.7282V34.4484H81.2771C82.0159 34.4484 82.694 34.3865 83.1874 33.9205C83.6801 33.4545 83.8958 32.8648 83.8958 32.0883C83.8958 31.4986 83.7415 30.9395 83.4334 30.5359C82.9097 29.8838 82.2626 29.7282 81.1538 29.7282H78.8121ZM78.7811 26.6228H80.7837C81.3998 26.6228 81.7079 26.6228 82.0159 26.5298C82.8484 26.2811 83.3721 25.5366 83.3721 24.5114C83.3721 23.3008 82.8173 22.7723 82.0159 22.5243C81.6768 22.4312 81.3385 22.4 80.6604 22.4H78.7811V26.6228ZM93.0461 37.3988V22.4618H87.9011V19.4502H102.197L101.181 22.4618H96.6199V37.3988H93.0461ZM103.306 37.3988V19.4502H114.891L113.874 22.4618H106.849V26.4367H109.715C112.025 26.4367 113.227 26.9958 114.059 27.7098C114.706 28.2689 115.815 29.5108 115.815 31.9646C115.815 34.3865 114.675 35.7215 113.72 36.4049C112.611 37.1807 111.44 37.3988 109.068 37.3988H103.306ZM106.849 34.3865H109.53C110.547 34.3865 111.163 34.1379 111.594 33.5788C111.81 33.2996 112.118 32.8023 112.118 31.8709C112.118 30.9395 111.81 30.2873 111.194 29.8213C110.824 29.542 110.331 29.3871 109.499 29.3871H106.849V34.3865Z" fill="white"/>
</g>
</svg>
