<svg width="169" height="53" viewBox="0 0 169 53" fill="none" xmlns="http://www.w3.org/2000/svg">
<path d="M148.094 17.8818H21V35.4815H148.094V17.8818Z" fill="white"/>
<path fill-rule="evenodd" clip-rule="evenodd" d="M30.9179 33.84V22.5885L29.1886 24.077V33.84H27.0214V24.077L25.314 22.5885V33.84H23.125V19.7646L28.1159 23.9457L33.085 19.7646V33.84H30.9179Z" fill="#325837"/>
<path fill-rule="evenodd" clip-rule="evenodd" d="M41.2307 32.7676C41.2307 33.1397 41.0118 33.8402 39.0636 33.8402H37.3781C35.4079 33.8402 35.2109 33.1397 35.2109 32.7676V21.1439C35.2109 20.2026 36.4368 20.0713 37.3781 20.0713H39.0417C39.983 20.0713 41.2088 20.2026 41.2088 21.1439V32.7676H41.2307ZM37.3781 33.2491H39.0417V20.6404H37.3562V33.2491H37.3781Z" fill="#325837"/>
<path fill-rule="evenodd" clip-rule="evenodd" d="M49.3479 32.7676C49.3479 33.1397 49.129 33.8402 47.1808 33.8402H45.4952C43.5251 33.8402 43.3281 33.1397 43.3281 32.7676V21.1439C43.3281 20.2026 44.554 20.0713 45.4952 20.0713H47.1808C48.1221 20.0713 49.3479 20.2026 49.3479 21.1439V23.3986H47.1808V20.6404H45.4952V33.2491H47.1808V25.7627H49.3479V32.7676Z" fill="#325837"/>
<path fill-rule="evenodd" clip-rule="evenodd" d="M57.4924 32.7676C57.4924 33.1397 57.2735 33.8402 55.3253 33.8402H53.6398C51.6697 33.8402 51.4727 33.1397 51.4727 32.7676V21.1439C51.4727 20.2026 52.6985 20.0713 53.6398 20.0713H55.3253C56.2666 20.0713 57.4924 20.2026 57.4924 21.1439V32.7676ZM53.6398 33.2491H55.3253V20.6404H53.6398V33.2491Z" fill="#325837"/>
<path fill-rule="evenodd" clip-rule="evenodd" d="M65.1773 20.0483V20.6393H61.7843V22.0184H63.4698C65.44 22.0184 65.637 22.7189 65.637 23.091V32.7445C65.637 33.1167 65.4181 33.8171 63.4698 33.8171H59.6172V20.0264H65.1773V20.0483ZM61.7624 33.248H63.448V22.6094H61.7624V33.248Z" fill="#325837"/>
<path fill-rule="evenodd" clip-rule="evenodd" d="M71.4152 33.84V22.0193H69.7296V33.84H67.5625V28.3237C67.5625 24.7337 68.0222 22.5447 70.5833 19.7646C73.1445 22.5447 73.6042 24.7556 73.6042 28.3237V33.84H71.4152Z" fill="#325837"/>
<path fill-rule="evenodd" clip-rule="evenodd" d="M107.753 19.6562V20.2911H102.04V21.7577H104.864C108.147 21.7577 108.519 22.502 108.519 22.9179V33.1625C108.519 33.5565 108.169 34.3226 104.864 34.3226H98.4062V19.6562H107.753ZM102.04 33.6659H104.864V22.3706H102.04V33.6659Z" fill="#325837"/>
<path fill-rule="evenodd" clip-rule="evenodd" d="M110.859 20.8164C110.859 19.8095 112.917 19.6562 114.515 19.6562H117.339C118.937 19.6562 120.994 19.8095 120.994 20.8164V34.3007H117.339V24.7785H114.515V34.3007H110.859V20.8164ZM114.515 24.1656H117.339V20.2911H114.515V24.1656Z" fill="#325837"/>
<path fill-rule="evenodd" clip-rule="evenodd" d="M126.974 19.6562V24.1656H129.797V19.6562H133.453V34.3007H129.797V24.7785H126.974V34.3007H123.34V19.6562H126.974Z" fill="#325837"/>
<path fill-rule="evenodd" clip-rule="evenodd" d="M139.453 19.6562V24.1437H140.284L142.276 19.6562H145.932L143.524 24.1437C145.516 24.3407 145.932 24.8004 145.932 25.5447V34.2788H142.276V24.7785H139.453V34.3007H135.797V19.6562H139.453Z" fill="#325837"/>
<path fill-rule="evenodd" clip-rule="evenodd" d="M96.7821 26.6824C96.7821 32.5708 91.9662 37.3648 86.0121 37.3648C80.058 37.3648 75.2422 32.5927 75.2422 26.6824C75.2422 20.7939 80.058 16 86.0121 16C91.9662 16.0219 96.7821 20.7939 96.7821 26.6824Z" fill="#325837" stroke="white" stroke-width="2.9999" stroke-miterlimit="22.9256"/>
<path fill-rule="evenodd" clip-rule="evenodd" d="M91.2015 22.9614L91.2234 25.1723L88.6403 27.7334L86.0573 25.1723V22.9614L83.6932 20.6191H88.8373L91.2015 22.9614ZM84.7439 22.9614L82.3798 20.6191L80.0156 22.9833V29.9005L84.7658 25.1942V22.9614H84.7439Z" fill="white"/>
<path fill-rule="evenodd" clip-rule="evenodd" d="M85.4 25.6318V26.4199L87.2826 28.3024L83.6926 31.8705H79.9275L78.5703 32.4397H83.9334L88.0925 28.3024L85.4 25.6318Z" fill="white"/>
<path fill-rule="evenodd" clip-rule="evenodd" d="M91.3098 26.989V31.8705H86.4064L85.0273 32.4397H91.8571V25.6318L91.3098 26.989Z" fill="white"/>
<path fill-rule="evenodd" clip-rule="evenodd" d="M91.3128 27.0107L86.3438 31.8703H91.3128V27.0107Z" fill="#325837"/>
<path fill-rule="evenodd" clip-rule="evenodd" d="M91.8571 25.6533L85.0273 32.4393L86.4064 31.8701L91.3098 27.0105L91.8571 25.6533Z" fill="#325837"/>
<path fill-rule="evenodd" clip-rule="evenodd" d="M85.3983 26.4404L87.2809 28.3011L83.6909 31.8692H79.9258L85.3983 26.4404Z" fill="#325837"/>
<path fill-rule="evenodd" clip-rule="evenodd" d="M85.4 25.6318V26.4418L79.9494 31.8705L78.5703 32.4397L85.4 25.6318Z" fill="white"/>
</svg>
