<svg width="169" height="53" viewBox="0 0 169 53" fill="none" xmlns="http://www.w3.org/2000/svg">
<path d="M52.0683 51.4585C51.5781 50.6742 51.284 49.8899 51.3821 48.9586C51.4311 48.6155 51.4801 48.3704 51.8722 48.4684C52.2644 48.5175 52.3134 48.2724 52.4114 48.0273C52.8036 46.7038 53.1957 45.4294 53.5878 44.1059C53.6859 43.7138 53.8819 43.6158 54.2251 43.6158C55.0093 43.6648 55.7446 43.6648 56.5289 43.6158C57.019 43.5667 57.1661 43.7628 57.2641 44.204C57.6072 45.4784 57.9994 46.7038 58.3915 47.9783C58.4895 48.3704 58.6366 48.5665 59.0777 48.5175C59.3719 48.4684 59.4209 48.6645 59.4209 48.9096C59.5189 49.8899 59.3228 50.7723 58.6856 51.5565C58.5876 51.5565 58.5386 51.5565 58.4405 51.5565C58.2935 51.0173 57.2151 50.8703 57.9504 49.988C56.2838 49.988 54.7152 49.988 53.1467 49.988C52.9996 49.988 52.7545 50.037 52.9506 50.2331C53.2447 50.5762 52.9996 50.7232 52.8526 50.9683C52.7055 51.1644 52.4604 51.2624 52.4114 51.5565C52.3134 51.4585 52.1663 51.4585 52.0683 51.4585ZM55.3525 48.4684C55.7936 48.4684 56.2348 48.4684 56.6269 48.4684C57.019 48.4684 57.0681 48.3214 56.97 48.0273C56.7739 47.3411 56.5289 46.7038 56.3328 46.0176C56.0387 44.9882 55.9897 44.9392 54.9113 45.0372C54.7152 45.0372 54.6172 45.0863 54.5682 45.2823C54.4701 46.2627 54.029 47.145 53.7839 48.1253C53.6859 48.4194 53.7349 48.5175 54.078 48.5175C54.4701 48.4194 54.9113 48.4684 55.3525 48.4684Z" fill="white"/>
<path d="M43.098 44.9877C43.6372 43.8603 44.5195 43.4682 45.745 43.5662C47.1174 43.6643 48.5389 43.6152 49.9114 43.5662C50.3035 43.5662 50.4016 43.6643 50.4016 44.0564C50.4016 45.821 50.4016 47.6346 50.4016 49.3993C50.4016 49.7914 50.3035 49.9385 49.9114 49.8894C49.7644 49.8894 49.6173 49.8894 49.4212 49.8894C49.0781 49.9385 48.9311 49.7914 48.9311 49.4483C48.9801 49.1052 48.9311 48.762 48.9311 48.3699C48.9311 48.0758 48.833 47.9778 48.5389 47.9778C47.6076 47.8797 46.7253 48.0268 46.1861 48.9091C45.4999 50.0365 44.4705 49.9875 43.2941 49.8404C43.8823 49.2522 44.4705 48.713 45.0587 48.1738C45.0587 48.1248 45.0097 48.0758 45.0097 48.0268C43.9803 47.9778 43.3921 47.3896 43 46.5563C43.098 46.0171 43.098 45.5269 43.098 44.9877ZM46.8724 46.5563C47.2155 46.5563 47.5586 46.5563 47.9507 46.5563C49.1271 46.5563 49.1271 46.5563 49.0781 45.3799C49.0781 45.1348 49.0291 44.9877 48.735 44.9877C47.5586 44.9877 46.3822 44.9877 45.2058 44.9877C44.6666 44.9877 44.6176 45.3799 44.6176 45.821C44.6176 46.2622 44.7156 46.5563 45.2058 46.5563C45.745 46.5563 46.2841 46.5563 46.8724 46.5563Z" fill="white"/>
<path d="M125.592 49.9386C125.543 49.9386 125.494 49.8895 125.494 49.8895C125.102 49.8405 124.563 50.0856 124.317 49.7915C124.023 49.4974 124.219 48.9092 124.219 48.468C124.219 47.4877 124.219 46.5074 124.219 45.38C123.043 46.8995 121.72 48.1739 120.543 49.5464C120.298 49.8405 118.828 50.0366 118.582 49.8405C118.435 49.7425 118.484 49.5954 118.484 49.4484C118.484 47.5857 118.484 45.7721 118.484 43.9094C118.484 43.6153 118.582 43.5173 118.877 43.5173C119.906 43.4683 119.906 43.4683 119.906 44.4486C119.906 45.625 119.906 46.8015 119.906 48.0269C120.984 46.8505 122.112 45.7721 123.043 44.5957C123.729 43.7134 124.563 43.2722 125.641 43.5173C125.592 45.7231 125.592 47.8308 125.592 49.9386Z" fill="white"/>
<path d="M86.3315 8.02911C84.6159 9.69569 82.9984 11.2642 81.2828 12.8818C81.1357 9.20552 80.9887 5.62727 80.8906 2C81.1357 2 81.2337 2.14705 81.3808 2.2941C84.3218 4.69594 87.2138 7.09778 90.1549 9.49962C90.449 9.7447 90.547 9.98979 90.547 10.3329C90.3019 18.3717 90.0078 26.4105 89.7627 34.4983C89.7137 35.9689 89.6647 37.3904 89.6157 38.8609C89.6157 39.0079 89.4686 39.302 89.8117 39.302C90.0568 39.302 89.9588 39.0079 89.9588 38.8609C89.9098 38.4197 90.0568 38.2727 90.498 38.3217C91.2332 38.4197 91.9685 38.4197 92.7038 38.4687C92.9979 38.4687 93.39 38.4197 93.488 38.8609C93.537 39.106 93.8311 39.0079 93.9782 39.0079C97.5074 39.4001 101.086 39.4001 104.664 39.5961C105.889 39.6451 107.115 39.6942 108.291 39.8412C107.752 39.8412 107.213 39.8412 106.674 39.8412C99.3211 39.8412 91.9685 39.8412 84.6159 39.8412C84.0767 39.8412 83.9787 39.7432 84.1258 39.204C85.0081 35.9689 85.7923 32.6847 86.6746 29.4496C86.9687 28.3222 86.6746 27.1948 86.5766 26.0674C86.3315 22.8323 85.9394 19.6462 85.7433 16.411C85.6453 14.6464 85.9394 12.8818 86.0864 11.1172C86.1845 10.0878 86.2825 9.10748 86.3315 8.02911Z" fill="white"/>
<path d="M85.7392 9.3037C85.6901 10.5291 85.5921 11.7055 85.5431 12.931C85.347 15.7249 85.2 18.5679 85.0039 21.3619C84.6608 26.8028 84.3177 32.2437 83.9745 37.6846C83.9255 38.2238 83.8765 38.763 83.8765 39.3512C83.8765 39.8414 83.6804 39.8904 83.2393 39.8904C78.7787 39.8904 74.3182 39.8904 69.8086 39.8904C67.5538 39.8904 65.299 39.8904 63.0442 39.8904C62.7501 39.8904 62.505 39.8904 62.2109 39.7923C63.0932 39.7433 63.9756 39.6943 64.8579 39.6453C67.6028 39.5473 70.3478 39.4002 73.0927 39.3512C74.4162 39.3512 75.6906 39.2041 77.0141 39.1061C77.3572 39.1061 77.7003 39.1061 77.7494 38.6159C77.7984 38.3708 78.0435 38.3708 78.2395 38.3708C78.4356 38.3708 78.3376 38.6159 78.3866 38.763C78.4846 39.0081 78.2395 39.4982 78.6807 39.4492C79.0238 39.4002 78.8277 38.959 78.8277 38.763C78.6807 31.9496 78.5336 25.0872 78.2886 18.2738C78.2395 17.0484 78.5336 16.2151 79.4159 15.3818C81.3766 13.5682 83.1903 11.6565 85.1019 9.74485C85.249 9.5978 85.347 9.40173 85.4941 9.25468C85.5921 9.20566 85.6901 9.25468 85.7392 9.3037Z" fill="white"/>
<path d="M113.632 43.5664C114.269 43.5664 114.906 43.5664 115.495 43.5664C116.573 43.5664 117.406 44.3507 117.455 45.4291C117.504 46.2623 117.504 47.0956 117.455 47.9779C117.406 49.0563 116.671 49.8406 115.593 49.8406C114.318 49.8896 112.995 49.8896 111.72 49.8406C110.593 49.7916 109.858 49.0563 109.809 47.9289C109.809 47.0956 109.809 46.2623 109.809 45.4781C109.858 44.3507 110.642 43.5664 111.769 43.5664C112.357 43.5664 112.995 43.5664 113.632 43.5664ZM113.632 44.9879C113.044 44.9879 112.456 44.9879 111.867 44.9879C111.426 44.9879 111.23 45.184 111.23 45.6251C111.23 46.3604 111.23 47.0956 111.23 47.8309C111.23 48.272 111.426 48.4191 111.818 48.4191C112.995 48.4191 114.22 48.4191 115.397 48.4191C115.838 48.4191 116.034 48.223 116.034 47.7819C116.034 47.0466 116.034 46.3114 116.034 45.6251C116.034 45.184 115.838 44.9879 115.397 44.9879C114.759 44.9879 114.22 44.9879 113.632 44.9879Z" fill="white"/>
<path d="M101.917 46.7035C101.917 45.8212 101.917 44.8899 101.917 44.0076C101.917 43.6644 102.015 43.5664 102.359 43.5664C103.927 43.5664 105.447 43.5664 107.015 43.5664C108.094 43.5664 108.878 44.3997 108.927 45.4781C108.927 46.1153 108.927 46.7525 108.437 47.2917C108.045 47.7329 107.505 47.9289 106.917 47.9289C105.937 47.9289 104.907 47.9289 103.927 47.9289C103.486 47.9289 103.29 48.027 103.339 48.4681C103.388 48.7132 103.29 48.9583 103.339 49.1544C103.437 49.7426 103.192 49.8406 102.653 49.8406C102.064 49.8406 101.868 49.6935 101.917 49.1053C101.966 48.3701 101.917 47.5368 101.917 46.7035ZM105.349 44.9879C105.054 44.9879 104.76 44.9879 104.466 44.9879C103.29 44.9879 103.29 44.9879 103.339 46.2133V46.2623C103.29 46.5074 103.437 46.5564 103.633 46.5564C104.711 46.5564 105.79 46.5564 106.868 46.5564C107.456 46.5564 107.456 46.1643 107.456 45.7232C107.456 45.282 107.358 44.9879 106.868 44.9879C106.378 44.9879 105.839 44.9879 105.349 44.9879Z" fill="white"/>
<path d="M60.1539 46.7035C60.1539 45.8212 60.1539 44.9389 60.1539 44.0566C60.1539 43.7135 60.2519 43.5664 60.6441 43.5664C62.1636 43.5664 63.6341 43.5664 65.1536 43.5664C66.281 43.5664 67.0653 44.3997 67.1143 45.4781C67.1633 46.9976 66.5751 47.8799 65.3007 47.9779C64.2223 48.027 63.1439 48.027 62.0656 47.9779C61.6244 47.9779 61.5264 48.125 61.5264 48.5171C61.5754 48.7622 61.4773 49.0073 61.5264 49.2034C61.6244 49.7916 61.3793 49.8896 60.8401 49.8896C60.2519 49.8896 60.0559 49.7426 60.1049 49.1544C60.2029 48.3701 60.1539 47.5368 60.1539 46.7035ZM63.5361 44.9879C63.242 44.9879 62.9479 44.9879 62.6538 44.9879C61.5264 44.9879 61.5264 44.9879 61.5754 46.1153C61.5754 46.4094 61.6734 46.5074 61.9675 46.5074C62.9969 46.5074 64.0262 46.5074 65.0556 46.5074C65.6438 46.5074 65.6928 46.1643 65.6928 45.7232C65.6928 45.282 65.5948 44.9389 65.0556 44.9389C64.5654 45.0369 64.0262 44.9879 63.5361 44.9879Z" fill="white"/>
<path d="M90.6462 43.5664C91.2834 43.5664 91.9206 43.5664 92.5088 43.5664C92.7049 43.5664 92.95 43.5664 93.146 43.6644C93.5382 43.7625 94.0774 44.0076 94.0283 44.3507C93.9793 44.6938 93.4401 44.9389 93.048 45.135C92.8519 45.233 92.6069 44.9389 92.3618 44.9879C91.1854 45.0369 90.0089 44.9879 88.8325 44.9879C88.3914 44.9879 88.1463 45.135 88.1463 45.6251C88.1463 46.3604 88.1463 47.0956 88.1463 47.7819C88.1463 48.223 88.3424 48.4191 88.7835 48.4191C89.9599 48.4191 91.1854 48.4191 92.3618 48.4191C92.5088 48.4191 92.7049 48.4191 92.7539 48.3701C93.146 47.9289 93.3911 48.272 93.6362 48.5171C94.2244 49.0563 94.2244 49.1053 93.5382 49.5465C93.1951 49.7426 92.8029 49.8896 92.3618 49.8896C91.1363 49.8896 89.9109 49.8896 88.7345 49.8896C87.4601 49.8896 86.6758 49.1053 86.6758 47.8309C86.6758 47.0466 86.6758 46.3114 86.6758 45.5271C86.6758 44.3997 87.5091 43.6154 88.5874 43.6154C89.3717 43.5664 90.0089 43.5664 90.6462 43.5664Z" fill="white"/>
<path d="M74.277 49.8898C74.0319 49.8898 73.8849 49.8898 73.7868 49.8898C72.9536 50.0369 72.4144 49.7428 72.1693 48.9095C72.0713 48.5663 71.8262 48.4683 71.483 48.4683C70.6007 48.5173 69.6694 48.4683 68.7871 48.4683C68.493 48.4683 68.2969 48.5663 68.1499 48.8604C67.5127 50.0369 67.5127 50.0369 66.0912 49.8898C66.0421 49.6937 66.1402 49.5957 66.2382 49.4486C67.1695 47.684 68.1499 45.8704 69.0322 44.1058C69.2283 43.7136 69.4733 43.6646 69.8655 43.5666C70.7478 43.4195 71.238 43.8117 71.5811 44.596C72.3654 46.2135 73.2477 47.7821 74.081 49.3996C74.13 49.5467 74.179 49.6447 74.277 49.8898ZM71.1399 46.9978C70.7968 46.2625 70.4537 45.5763 70.1106 44.8901C69.7674 45.6253 69.4733 46.3116 69.0812 46.9978C69.8165 46.9978 70.4047 46.9978 71.1399 46.9978Z" fill="white"/>
<path d="M81.3296 46.7527C81.3296 47.635 81.3296 48.5173 81.3296 49.3997C81.3296 49.7918 81.2316 49.8898 80.8395 49.8898C79.6631 49.8408 79.9081 49.9879 79.9081 48.9585C79.9081 48.6154 79.8591 48.2723 79.9081 47.9782C79.9572 47.488 79.7611 47.39 79.3199 47.39C78.5357 47.439 77.7024 47.439 76.9181 47.39C76.3789 47.3409 76.2319 47.537 76.2809 48.0762C76.3299 48.5173 76.2809 48.9585 76.2809 49.4487C76.2809 49.7918 76.1828 49.9879 75.8397 49.9388C75.6927 49.9388 75.5456 49.9388 75.3495 49.9388C74.9574 49.9879 74.8594 49.8408 74.8594 49.4487C74.8594 47.635 74.8594 45.8214 74.8594 44.0568C74.8594 43.7137 74.9574 43.5666 75.3005 43.6156C76.4769 43.6647 76.2319 43.4686 76.2809 44.547C76.2809 46.0175 76.2809 46.0175 77.7514 46.0175C78.3396 46.0175 78.9278 46.0175 79.516 46.0175C79.8101 46.0175 79.9081 45.9194 79.9081 45.6253C79.9081 45.0861 79.9081 44.547 79.9081 44.0568C79.9081 43.7137 80.0062 43.6156 80.3493 43.6156C81.3296 43.6156 81.3296 43.5666 81.3296 44.596C81.3296 45.2822 81.3296 46.0175 81.3296 46.7527Z" fill="white"/>
<path d="M97.9006 43.5666C98.7339 43.5666 99.5672 43.5666 100.4 43.5666C100.744 43.5666 100.891 43.6156 100.891 44.0077C100.891 44.9881 100.891 44.9881 99.9103 44.9881C98.5868 44.9881 98.5868 44.9881 98.5868 46.3116C98.5868 47.3409 98.5868 48.3703 98.5868 49.3506C98.5868 49.7428 98.4888 49.9388 98.0476 49.8898C97.9006 49.8898 97.7535 49.8898 97.5575 49.8898C97.1653 49.9388 97.1163 49.7918 97.1163 49.3996C97.1163 48.1252 97.1163 46.8017 97.1163 45.5273C97.1163 45.0371 96.9693 44.9391 96.5281 44.9391C96.136 44.9881 95.6948 44.9391 95.3027 44.9391C94.9596 44.9391 94.8125 44.8901 94.8125 44.4979C94.8125 43.5176 94.8125 43.5176 95.7438 43.5176C96.5281 43.5666 97.2143 43.5666 97.9006 43.5666Z" fill="white"/>
<path d="M97.6549 36.5074C96.5765 36.4584 95.4981 36.4094 94.4198 36.3604C93.1453 36.3113 91.8218 36.1643 90.5474 36.1643C89.8121 36.1643 90.1062 35.6741 90.0572 35.331C90.0082 34.7918 90.3513 34.9879 90.6454 34.9879C91.4297 35.0369 92.263 35.1349 93.0473 35.233C93.1943 35.233 93.3904 35.233 93.3904 35.38C93.4884 36.0172 94.0276 35.8702 94.4198 35.9192C95.4981 36.1153 96.6255 36.2623 97.7039 36.4094C97.6549 36.4584 97.6549 36.5074 97.6549 36.5074Z" fill="white"/>
<path d="M97.4099 35.0376C95.1061 34.8415 92.8513 34.6455 90.5965 34.4984C89.8612 34.4494 90.2044 34.0083 90.1553 33.6651C90.1063 33.224 90.3514 33.273 90.6455 33.322C91.3808 33.4201 92.116 33.5181 92.8513 33.6161C93.1454 33.6651 93.4885 33.6161 93.5375 34.0573C93.5865 34.2533 93.8316 34.2533 93.9787 34.2533C94.959 34.4494 95.9884 34.5965 96.9687 34.7925C97.1158 34.8906 97.2628 34.8415 97.4099 35.0376Z" fill="white"/>
<path d="M97.4067 37.8806C97.0636 38.0766 96.7204 37.9786 96.3773 37.9786C94.4166 37.9296 92.4069 37.8806 90.4463 37.8315C89.9561 37.8315 89.9561 37.6355 90.0051 37.2433C90.0541 36.9002 89.9071 36.5081 90.5443 36.6061C91.3776 36.7041 92.1618 36.7532 92.9951 36.8022C93.1422 36.8022 93.3873 36.7532 93.3873 36.9492C93.4853 37.4884 93.8774 37.3904 94.2696 37.4394C95.2989 37.5865 96.3773 37.7335 97.4067 37.8806Z" fill="white"/>
<path d="M97.1175 33.5673C94.8627 33.3223 92.7549 33.0772 90.5982 32.8811C89.8139 32.7831 90.206 32.2439 90.157 31.9008C90.108 31.4106 90.5001 31.7047 90.6962 31.7047C91.3334 31.8027 92.0197 31.9008 92.6569 31.9988C93 32.0478 93.3921 31.9988 93.4902 32.538C93.5392 32.734 93.7843 32.685 93.9313 32.734C94.7156 32.8811 95.5489 33.0772 96.3332 33.2242C96.6273 33.2732 96.8233 33.2732 97.1175 33.5673Z" fill="white"/>
<path d="M96.7232 32.0474C95.5468 31.9003 94.3704 31.7533 93.1939 31.5572C92.3606 31.4592 91.4783 31.3121 90.6451 31.2141C89.8608 31.1161 90.2529 30.5769 90.2039 30.2338C90.2039 29.7436 90.547 30.0377 90.7431 30.0377C91.4783 30.1357 92.1646 30.2828 92.8998 30.4298C93.1939 30.4788 93.488 30.4788 93.5371 30.92C93.5371 31.1651 93.7821 31.1161 93.9782 31.1651C94.7625 31.3612 95.4977 31.5082 96.282 31.7043C96.4781 31.7533 96.6251 31.8023 96.8212 31.8513C96.7722 31.9003 96.7232 31.9984 96.7232 32.0474Z" fill="white"/>
<path d="M96.9186 30.5776C96.0853 30.4306 95.203 30.3325 94.3697 30.1855C93.1443 29.9894 91.9189 29.7933 90.7425 29.5973C90.5954 29.5483 90.3503 29.5973 90.3013 29.4012C90.3013 29.0581 90.2523 28.715 90.3503 28.4209C90.3994 28.3228 90.5464 28.3718 90.5954 28.4209C91.4777 28.6169 92.311 28.813 93.1933 29.0091C93.2914 29.0091 93.4384 29.0581 93.4384 29.1561C93.5364 29.8424 94.1247 29.7443 94.5658 29.8914C95.3501 30.1365 96.1834 30.3325 96.9676 30.5286C96.9186 30.4796 96.9186 30.5286 96.9186 30.5776Z" fill="white"/>
<path d="M96.673 29.0577C95.9868 28.9106 95.2515 28.8126 94.5653 28.6655C93.2908 28.4204 92.0164 28.1754 90.7419 27.9303C90.5949 27.8813 90.3008 27.9303 90.3008 27.6852C90.3008 27.3911 90.3008 27.048 90.3498 26.7539C90.3498 26.6558 90.5459 26.7048 90.6439 26.7539C91.4772 26.9499 92.2615 27.146 93.0948 27.3911C93.1928 27.4401 93.3889 27.4891 93.3889 27.5381C93.4869 28.1754 94.0751 28.1263 94.5163 28.2734C95.2515 28.5185 95.9868 28.7146 96.722 28.9596C96.722 28.9106 96.722 29.0087 96.673 29.0577Z" fill="white"/>
<path d="M96.6727 27.5869C94.663 27.1457 92.6533 26.7046 90.6926 26.2634C90.0554 26.1164 90.4475 25.5772 90.4475 25.2341C90.4475 24.7929 90.7906 25.136 90.9867 25.185C91.5749 25.3321 92.2121 25.4791 92.8003 25.6752C93.1434 25.7732 93.5846 25.7732 93.6336 26.3124C93.6336 26.5085 93.8787 26.4595 94.0257 26.5085C94.761 26.7536 95.4963 26.9987 96.2315 27.2438C96.3786 27.2928 96.5746 27.2438 96.6727 27.5869Z" fill="white"/>
<path d="M96.6265 24.4018C96.2834 24.5488 95.9893 24.4018 95.6952 24.3037C94.0776 23.8626 92.5091 23.4214 90.8915 22.9313C90.5484 22.8332 90.3033 21.9999 90.5484 21.7548C90.6464 21.6568 90.7445 21.7058 90.8915 21.7548C91.6758 22.0489 92.4601 22.294 93.2934 22.5881C93.3914 22.6372 93.5385 22.6371 93.5875 22.7842C93.6365 23.3724 94.1757 23.4214 94.5678 23.5685C95.156 23.8626 95.8913 24.1077 96.6265 24.4018Z" fill="white"/>
<path d="M96.8205 23.1261C96.7224 23.1261 96.6244 23.1261 96.5264 23.0771C94.6637 22.4889 92.8011 21.9007 90.9384 21.2635C90.5953 21.1654 90.3502 20.2831 90.5953 20.038C90.6933 19.94 90.7914 19.989 90.8894 20.038C91.6737 20.3321 92.4579 20.6263 93.2422 20.9204C93.3402 20.9694 93.4873 21.0184 93.5363 21.1164C93.5853 21.7046 94.0755 21.7536 94.4186 21.9007C95.2029 22.2438 96.0362 22.5869 96.8205 22.9301C96.8205 23.0281 96.8205 23.0771 96.8205 23.1261Z" fill="white"/>
<path d="M90.6449 18.3223C91.5762 18.7144 92.4095 19.0575 93.2918 19.4006C93.3408 19.4497 93.4879 19.4497 93.4879 19.4987C93.6839 20.381 94.5662 20.381 95.1054 20.7241C95.4976 20.9692 95.9387 21.1162 96.4289 21.3613C96.1838 21.5574 95.9877 21.4103 95.7917 21.3613C94.3702 20.8712 92.8996 20.332 91.4782 19.8418C90.4978 19.4497 90.4978 19.4497 90.6449 18.3223Z" fill="white"/>
<path d="M96.2817 25.7727C96.1346 25.9688 95.9875 25.9198 95.8405 25.9198C94.1739 25.4786 92.5073 25.0374 90.8408 24.5963C90.4976 24.4983 90.2525 23.6159 90.4976 23.4199C90.5957 23.3218 90.6937 23.3709 90.8408 23.4199C91.625 23.665 92.4583 23.9101 93.2426 24.2042C93.3406 24.2042 93.4387 24.2532 93.4387 24.3022C93.9288 25.3806 95.1052 25.2825 95.9875 25.7237C96.0366 25.6747 96.1346 25.7237 96.2817 25.7727Z" fill="white"/>
<path d="M84.0788 46.0176C84.2259 46.0176 84.3729 46.0176 84.569 46.0176C85.5494 46.0176 85.6964 46.2627 85.5003 47.194C85.4513 47.3901 85.3533 47.4391 85.1572 47.4391C84.422 47.4391 83.6867 47.4391 83.0005 47.4391C82.7554 47.4391 82.6573 47.341 82.6573 47.096C82.5593 46.0176 82.5593 46.0176 83.6377 46.0176C83.7847 46.0176 83.9318 46.0176 84.0788 46.0176Z" fill="white"/>
<path d="M69.8594 37.9781C72.1142 37.7821 74.3199 37.586 76.5747 37.3409C77.0649 37.2919 77.6531 37.488 77.8492 36.7037C77.8492 36.6057 78.1433 36.5566 78.2413 36.5566C78.4864 36.5566 78.3884 36.8017 78.3884 36.9488C78.4374 37.8311 78.4374 37.8311 77.6041 37.8801C75.0062 37.9781 72.4573 38.0272 69.8594 38.0762C69.8594 38.0272 69.8594 38.0272 69.8594 37.9781Z" fill="white"/>
<path d="M70.5 34.7922C72.6077 34.4491 74.6665 34.155 76.7742 33.8119C77.1663 33.7629 77.6565 33.8119 77.7545 33.1747C77.7545 32.9786 77.9996 32.9296 78.1957 32.9786C78.3918 33.0276 78.3427 33.1747 78.3427 33.3217C78.3427 33.5178 78.3427 33.6649 78.3918 33.8609C78.4408 34.155 78.2937 34.2531 77.9996 34.3021C75.4997 34.4981 73.0489 34.7432 70.549 34.9393C70.549 34.8903 70.5 34.8413 70.5 34.7922Z" fill="white"/>
<path d="M70.8438 36.3121C72.1672 36.165 73.4417 35.9689 74.7651 35.8219C75.5494 35.7239 76.3337 35.6258 77.167 35.5278C77.4611 35.4788 77.7061 35.4788 77.7552 35.0866C77.8042 34.8415 78.0493 34.7435 78.2453 34.7925C78.4904 34.8415 78.3924 35.0866 78.3924 35.2337C78.4414 36.018 78.4414 36.067 77.6081 36.116C75.5494 36.214 73.4417 36.3611 71.3829 36.4591C71.1869 36.4591 70.9908 36.4591 70.8438 36.4591C70.8438 36.4101 70.8438 36.3611 70.8438 36.3121Z" fill="white"/>
<path d="M70.6445 31.6557C72.8013 31.1655 74.86 30.7244 76.9187 30.2832C77.2618 30.1852 77.605 30.1362 77.654 29.695C77.703 29.4499 77.8991 29.3519 78.0951 29.4009C78.2912 29.4009 78.2422 29.646 78.2422 29.7931C78.2422 30.7244 78.4873 30.6264 77.4089 30.7734C75.2031 31.0675 73.0464 31.4106 70.8406 31.7537C70.8406 31.7537 70.7916 31.7047 70.6445 31.6557Z" fill="white"/>
<path d="M70.5977 24.0575C72.7054 23.2242 74.7641 22.3419 76.8718 21.5086C77.1659 21.3615 77.4601 21.2635 77.5091 20.8714C77.5091 20.6263 77.7051 20.4302 77.9502 20.4792C78.1463 20.5283 77.9992 20.7733 78.0483 20.9204C78.1463 21.4596 77.9502 21.7537 77.411 21.9007C75.1562 22.587 72.9015 23.3712 70.5977 24.1065C70.5977 24.0575 70.5977 24.0575 70.5977 24.0575Z" fill="white"/>
<path d="M71.7266 33.0277C73.4422 32.6846 75.2068 32.3905 76.9224 32.0473C77.2655 31.9983 77.6576 31.9493 77.7066 31.4591C77.7557 31.2141 78.0008 31.2141 78.2458 31.165C78.2458 31.2141 78.2949 31.2631 78.2949 31.2631C78.3929 32.3905 78.3929 32.3905 77.3145 32.5375C75.5499 32.7336 73.8343 32.9297 72.0697 33.1747C71.9226 33.1747 71.8246 33.2238 71.7266 33.0277Z" fill="white"/>
<path d="M71.625 29.8915C73.4877 29.4013 75.3013 28.9602 77.1149 28.519C77.409 28.47 77.6051 28.323 77.6541 27.9798C77.6541 27.7348 77.8502 27.6367 78.0462 27.6367C78.3403 27.6367 78.1933 27.9308 78.1933 28.0289C78.2423 28.9602 78.4384 28.8131 77.409 29.0092C75.7424 29.3033 74.1249 29.5974 72.4583 29.8915C72.2132 29.9405 71.9191 30.0386 71.625 29.8915Z" fill="white"/>
<path d="M71.5273 28.3214C72.7038 27.9782 73.9292 27.6351 75.1056 27.292C75.5958 27.1449 76.0859 27.0469 76.5761 26.8508C77.0173 26.7038 77.5564 26.7038 77.6545 26.0666C77.6545 25.9195 77.8996 25.8215 78.1937 25.7725C78.1937 26.1156 78.1937 26.4587 78.1937 26.8018C78.1937 26.9979 78.0956 27.0959 77.8996 27.0959C75.8899 27.5371 73.8311 27.9782 71.8214 28.4194C71.7234 28.4194 71.6254 28.4194 71.5273 28.4194C71.5273 28.3704 71.5273 28.3704 71.5273 28.3214Z" fill="white"/>
<path d="M71.6758 26.7049C73.4404 26.1167 75.156 25.5775 76.8716 24.9893C77.2147 24.8913 77.5578 24.7933 77.6069 24.3521C77.6069 24.107 77.8519 24.058 78.048 23.96C78.097 24.009 78.097 24.009 78.097 24.058C78.1951 25.1854 78.1951 25.1854 77.1167 25.4795C75.5481 25.8716 73.9306 26.2638 72.362 26.7049C72.166 26.7539 71.9699 26.852 71.6758 26.7049Z" fill="white"/>
<path d="M77.9972 22.1953C77.9972 22.2443 78.0462 22.2443 78.0462 22.2933C78.1933 23.4698 78.1933 23.4698 77.0659 23.7639C75.4974 24.205 73.8798 24.6952 72.3112 25.1363C72.1152 25.1854 71.9191 25.2834 71.625 25.1854C73.4386 24.5481 75.1542 23.8619 76.8698 23.2737C77.2129 23.1266 77.5071 23.0286 77.5561 22.5874C77.5561 22.3424 77.8012 22.2443 77.9972 22.1953Z" fill="white"/>
<path d="M77.8987 18.6172C77.9477 18.6662 77.9477 18.6662 77.9477 18.7152C78.0948 19.8426 78.0948 19.8426 77.0164 20.2348C75.6929 20.7249 74.3204 21.2151 72.997 21.7053C72.8009 21.8033 72.5558 21.9013 72.2617 21.8033C73.7812 21.1171 75.2518 20.4798 76.6733 19.7936C77.0164 19.6465 77.4085 19.4995 77.4085 19.0093C77.5065 18.7642 77.7026 18.7152 77.8987 18.6172Z" fill="white"/>
<path d="M120.984 45.086C120.984 44.3018 120.984 43.6645 120.984 43.0273C120.984 42.8312 121.082 42.7822 121.278 42.7822C121.965 42.7822 122.651 42.7822 123.533 42.7822C122.651 43.5665 121.867 44.3018 120.984 45.086Z" fill="white"/>
</svg>
