<svg width="169" height="53" viewBox="0 0 169 53" fill="none" xmlns="http://www.w3.org/2000/svg">
<path fill-rule="evenodd" clip-rule="evenodd" d="M87.733 22.5272H88.558H91.0989H91.9239L99.4146 28.17V22.5272H102.846V33.6808H102.583H99.3816H99.2496L91.0989 27.543V33.6808H87.733V22.5272ZM24.6061 26.982C15.2015 13.6175 34.5718 12.2645 30.6779 0.25293C40.1816 14.3105 22.3952 13.0895 24.6061 26.982ZM110.502 27.048H117.003V29.193H110.502V31.5689H119.28V33.7138H110.502V33.7468H105.321V22.5272H105.552H110.469H119.247V24.6721H110.469V27.048H110.502ZM126.672 27.246H132.182V29.3909H126.672V33.7138H121.491V22.5272H124.56H126.672H137.462H142.643H146.9V24.6721H142.643V33.6808H137.462V24.6721H126.672V27.246Z" fill="white"/>
<path fill-rule="evenodd" clip-rule="evenodd" d="M43.6145 22.5267H47.8714H53.0522H57.3091V24.6717H53.0522V33.6804H47.8714V24.6717H43.6145V22.5267ZM29.821 34.0103C27.6101 20.1178 45.3965 21.3388 35.8928 7.28125C39.7867 19.3258 20.4163 20.6788 29.821 34.0103ZM81.4642 24.6717V33.6804H76.2834V24.6717H72.0266V22.5267H76.2834H81.4642H85.7211V24.6717H81.4642ZM61.1039 29.7535H66.0208L63.5458 25.1336L61.1039 29.7535ZM67.1757 31.8984L68.1327 33.7134H73.3135L67.3407 22.5597H64.9648H62.1599H61.8299L55.8571 33.7134H58.992L59.949 31.8984H67.1757Z" fill="white"/>
</svg>
