<svg width="169" height="53" viewBox="0 0 169 53" fill="none" xmlns="http://www.w3.org/2000/svg">
<path fill-rule="evenodd" clip-rule="evenodd" d="M39.3603 27.4196C39.3603 27.2208 39.3205 27.0221 39.3205 26.8233V26.7438C38.8037 22.9668 35.3846 19.2695 32.363 17.8382C30.5342 16.7648 28.3078 16.3672 26.32 16.0094C24.6104 15.6913 22.9804 15.413 21.8672 14.7372C21.7479 14.6576 21.6286 14.5781 21.5094 14.5384C21.3901 14.4589 21.2708 14.4191 21.1516 14.3396C20.8733 14.1408 19.9191 13.3457 19.2432 12.5903C18.9252 12.1927 18.6469 11.7554 18.4481 11.3181L18.2891 11V27.6184H20.0781V15.8503C20.3564 16.0889 20.6745 16.3274 21.1118 16.6057C22.1057 17.2021 23.8153 17.5201 25.6441 17.8382C27.5524 18.196 29.5403 18.5538 31.0908 19.2694C34.987 21.0188 37.3724 25.1932 37.6507 27.4991C37.6507 27.5787 37.6507 27.6979 37.6507 27.7774C37.6507 27.857 37.6507 27.9365 37.6507 27.9762V30.4412H21.5094V38.6709H21.5491C22.1057 38.6709 22.4635 38.6311 23.0201 38.5516H23.1792V32.0314H39.4398V30.3616C39.4398 29.4472 39.4398 28.334 39.3603 27.4196Z" fill="white"/>
<path fill-rule="evenodd" clip-rule="evenodd" d="M49.4961 34.4572V22.6494H57.6065V24.5577H51.5635V27.4203H54.2272C55.3404 27.4203 56.4933 27.3805 57.4475 28.1756C58.1631 28.772 58.68 29.7659 58.68 30.9189C58.68 32.0718 58.2426 32.9862 57.5668 33.5428C57.0102 34.0597 56.056 34.4572 54.5452 34.4572H49.4961ZM51.5635 32.6284H54.5055C55.1416 32.6284 55.6584 32.3899 55.9765 32.1116C56.2945 31.7935 56.4933 31.3959 56.4933 30.9586C56.4933 30.402 56.2548 29.9647 55.9367 29.6466C55.4596 29.2093 54.8235 29.2093 54.3067 29.2093H51.6032V32.6284H51.5635Z" fill="white"/>
<path fill-rule="evenodd" clip-rule="evenodd" d="M68.3818 34.4172L67.7854 32.5486H63.0146L62.458 34.4172H60.3906L64.1675 22.6094H66.6325L70.5287 34.4172H68.3818ZM65.5988 25.2731C65.5193 25.0345 65.4398 24.5575 65.4 24.1997C65.3602 24.5177 65.2807 24.9948 65.241 25.2333L63.5712 30.7596H67.2288L65.5988 25.2731Z" fill="white"/>
<path fill-rule="evenodd" clip-rule="evenodd" d="M72.6367 22.6494H74.6643V27.4203H79.9122V22.6494H81.9796V34.4572H79.9122V29.2491H74.6643V34.4572H72.6367V22.6494Z" fill="white"/>
<path fill-rule="evenodd" clip-rule="evenodd" d="M99.9492 22.6094H104.203C105.793 22.6094 106.708 23.1262 107.225 23.6033C107.702 24.0406 108.298 24.9153 108.298 26.4658C108.298 27.6983 107.861 28.5332 107.264 29.209C106.668 29.8451 105.595 30.1632 104.362 30.1632H102.017V34.457H99.9492V22.6094ZM104.124 28.3344C104.879 28.3344 105.356 28.0958 105.634 27.8175C105.913 27.5392 106.191 27.1019 106.191 26.3465C106.191 25.6707 105.953 25.2333 105.674 24.955C105.197 24.4382 104.482 24.4382 104.203 24.4382H102.096V28.3344H104.124Z" fill="white"/>
<path fill-rule="evenodd" clip-rule="evenodd" d="M119.269 24.0402C120.541 25.5112 120.78 27.3003 120.78 28.5327C120.78 29.7254 120.541 31.5543 119.269 33.0253C118.076 34.3372 116.605 34.6553 115.452 34.6553C114.299 34.6553 112.789 34.3372 111.636 33.0253C110.364 31.5543 110.125 29.7652 110.125 28.5327C110.125 27.34 110.364 25.5112 111.636 24.0402C112.828 22.7282 114.299 22.4102 115.452 22.4102C116.605 22.4102 118.116 22.7282 119.269 24.0402ZM113.107 25.4714C112.709 26.028 112.272 26.9425 112.272 28.5327C112.272 30.123 112.709 31.0374 113.107 31.594C113.783 32.5482 114.697 32.747 115.452 32.747C116.208 32.747 117.122 32.5084 117.798 31.594C118.196 31.0374 118.633 30.123 118.633 28.5327C118.633 26.9425 118.196 26.028 117.798 25.4714C117.122 24.5173 116.208 24.2787 115.452 24.2787C114.697 24.2787 113.783 24.5173 113.107 25.4714Z" fill="white"/>
<path fill-rule="evenodd" clip-rule="evenodd" d="M148.849 22.6494V30.8393L154.375 22.6494H156.402V34.4175H154.375V26.1878L148.849 34.4175H146.781V22.6494H148.849Z" fill="white"/>
<path fill-rule="evenodd" clip-rule="evenodd" d="M91.1227 22.6494H93.6273L88.3794 28.1359L94.0647 34.4572H91.4805L86.3518 29.0503V34.4572H84.3242V22.6494H86.3518V27.4998L91.1227 22.6494Z" fill="white"/>
<path fill-rule="evenodd" clip-rule="evenodd" d="M161.176 34.4175H158.711L161.852 29.8852C160.261 29.6864 158.91 28.4539 158.91 26.3468C158.91 24.8758 159.546 22.6494 162.885 22.6494H168.73V34.4175H166.702V30.1237H164.038L161.176 34.4175ZM163.8 24.4385C163.005 24.4385 161.057 24.1204 161.057 26.3071C161.057 27.1817 161.375 28.3744 163.879 28.3744H166.742V24.4385H163.8Z" fill="white"/>
<path fill-rule="evenodd" clip-rule="evenodd" d="M130.564 30.9181C130.444 31.1964 130.325 31.3952 130.166 31.594C129.49 32.5482 128.576 32.7867 127.82 32.7867C127.065 32.7867 126.151 32.5482 125.475 31.594C125.077 31.0374 124.64 30.123 124.64 28.5327C124.64 26.9425 125.077 26.028 125.475 25.4714C126.151 24.5173 127.065 24.2787 127.82 24.2787C128.576 24.2787 129.49 24.5173 130.166 25.4714C130.365 25.71 130.564 26.0678 130.683 26.5449H132.869C132.671 25.71 132.273 24.8353 131.597 24.0402C130.405 22.7282 128.934 22.4102 127.781 22.4102C126.628 22.4102 125.117 22.7282 123.964 24.0402C122.692 25.5112 122.453 27.3003 122.453 28.5327C122.453 29.7652 122.692 31.5543 123.964 33.0253C125.157 34.3372 126.628 34.6553 127.781 34.6553C128.934 34.6553 130.444 34.3372 131.597 33.0253C132.154 32.3892 132.512 31.6338 132.75 30.9181H130.564Z" fill="white"/>
<path fill-rule="evenodd" clip-rule="evenodd" d="M142.528 30.9181C142.409 31.1964 142.29 31.3952 142.131 31.594C141.455 32.5482 140.541 32.7867 139.785 32.7867C139.03 32.7867 138.115 32.5482 137.439 31.594C137.042 31.0374 136.605 30.123 136.605 28.5327C136.605 26.9425 137.042 26.028 137.439 25.4714C138.115 24.5173 139.03 24.2787 139.785 24.2787C140.541 24.2787 141.455 24.5173 142.131 25.4714C142.33 25.71 142.528 26.0678 142.648 26.5449H144.834C144.636 25.71 144.238 24.8353 143.562 24.0402C142.369 22.7282 140.898 22.4102 139.745 22.4102C138.592 22.4102 137.082 22.7282 135.929 24.0402C134.657 25.5112 134.418 27.3003 134.418 28.5327C134.418 29.7652 134.657 31.5543 135.929 33.0253C137.121 34.3372 138.592 34.6553 139.745 34.6553C140.898 34.6553 142.409 34.3372 143.562 33.0253C144.158 32.3892 144.476 31.6338 144.715 30.9181H142.528Z" fill="white"/>
<path fill-rule="evenodd" clip-rule="evenodd" d="M38.6835 33.3832H24.4505V35.0928H34.191C33.8332 35.4108 33.5549 35.6096 32.9983 36.0469C29.5394 38.3131 24.9674 39.5455 20.1568 39.5853V29.2485H36.4969V27.4197H8.98507C9.02483 26.9028 9.10435 26.4257 9.18386 25.9487C9.22362 25.7896 9.26338 25.5908 9.30313 25.4716C9.4224 24.9945 9.54167 24.5572 9.7007 24.1596L9.93924 24.2391C10.2573 24.3584 10.6151 24.4777 10.9332 24.5572C11.8476 24.8355 12.7222 25.0343 13.5969 25.1535L13.8354 25.1933C14.5113 25.3126 15.2667 25.4318 16.1413 25.5113C16.8172 25.5511 17.4931 25.5908 18.2485 25.6306V23.6825C17.6521 23.6825 17.016 23.6428 16.3004 23.5632C15.545 23.4837 14.8294 23.4042 14.1137 23.2849C13.9547 23.2849 13.7559 23.2452 13.5969 23.2054C12.5632 23.0066 11.7283 22.8079 10.9332 22.5296C10.8139 22.4898 10.6946 22.4898 10.6151 22.45C10.5754 22.45 10.5356 22.4103 10.4958 22.4103C10.6151 22.2115 10.6946 22.0525 10.8139 21.8537C10.8537 21.7742 10.8934 21.7344 10.9332 21.6549C11.609 20.661 12.5234 19.7466 13.5571 18.9912C14.8691 18.037 16.3799 17.4009 18.0099 17.1226C18.0497 17.1226 18.0894 17.1226 18.1292 17.1226H18.1689V15.1348H18.1292C18.0894 15.1348 18.0497 15.1745 17.9702 15.1745C17.9304 15.1745 17.8509 15.1745 17.8111 15.2143C16.3799 15.3336 14.9089 15.5323 13.5174 15.8106C12.5234 16.0492 11.6488 16.2877 10.8537 16.566C10.2971 16.725 9.74046 16.9238 9.10435 17.2021C8.62726 17.4009 8.11042 17.6792 7.43456 17.9973C6.44063 18.5141 5.60573 19.0707 4.89011 19.6273C3.6974 20.5417 2.70348 21.5356 1.90834 22.6886C1.31198 23.5235 0.834898 24.4379 0.516842 25.3523C0.198786 26.3462 0 27.3004 0 28.2943V28.3341C0 31.5146 1.70955 34.5759 4.85035 37.0011C5.04914 37.1204 5.20816 37.2794 5.40695 37.3987C5.60573 37.5179 5.76476 37.6372 5.92379 37.7565C6.2816 37.9553 6.63941 38.1938 6.99723 38.3926C7.1165 38.4721 7.23577 38.5516 7.35504 38.5914C7.79237 38.8299 8.30921 39.0685 8.78629 39.2673L9.02483 39.3865C9.54167 39.6251 10.0585 39.8238 10.7741 40.0624C11.6488 40.3407 12.5234 40.619 13.4379 40.8178C15.5052 41.2949 17.6123 41.4936 19.799 41.4936C25.1264 41.4936 30.096 40.1021 33.8332 37.6372C34.5886 37.1601 35.2644 36.6035 35.8608 36.0867C36.3776 35.6096 37.8884 34.0988 38.4052 33.4627L38.6835 33.3832ZM7.3948 20.3827C7.47431 20.3429 7.55383 20.3032 7.63334 20.2237C8.11042 19.9454 8.66702 19.6671 9.18386 19.3888L9.30313 19.349C9.74046 19.1105 10.1778 18.9514 10.6549 18.7527C10.7741 18.7129 10.8934 18.6334 11.0524 18.5936C11.0922 18.5936 11.132 18.5539 11.1717 18.5539C11.0922 18.5936 11.0524 18.6731 10.9729 18.7527C10.2971 19.4285 9.7007 20.1441 9.22362 20.8598C9.1441 20.979 9.06459 21.1381 8.98507 21.2573C8.90556 21.3766 8.82605 21.4959 8.74653 21.6152C8.34896 21.3766 7.9514 21.1381 7.63334 20.82C7.47431 20.661 7.35504 20.5417 7.27553 20.4224C7.31528 20.4224 7.35504 20.4224 7.3948 20.3827ZM2.54445 25.9884C2.78299 25.233 3.18056 24.5174 3.65764 23.8018C4.05521 23.2849 4.5323 22.6886 5.08889 22.132C5.20816 22.0127 5.28768 21.9332 5.40695 21.8139C5.48646 21.7344 5.60573 21.6549 5.68525 21.5356C6.12257 22.132 6.75869 22.6488 7.55382 23.0862C7.59358 23.0862 7.59358 23.1259 7.63334 23.1259C7.71285 23.1657 7.79237 23.2452 7.91164 23.2849C7.79237 23.603 7.63334 24.0006 7.55382 24.3981L7.51407 24.6367C7.43455 24.9547 7.35504 25.233 7.27553 25.5511C7.15626 26.1872 7.07674 26.8233 7.03699 27.4197H2.18663C2.26615 26.9028 2.38542 26.4257 2.54445 25.9884ZM6.2816 34.6554C6.16233 34.8542 6.0033 35.0133 5.88403 35.1723C5.60573 34.9337 5.36719 34.6952 5.12865 34.4567C3.45886 32.8664 2.46493 31.0773 2.22639 29.2087H7.07674C7.15626 30.2027 7.31528 31.1171 7.59358 32.111C7.71285 32.5483 7.83212 32.9459 7.99115 33.3435C7.91164 33.3832 7.87188 33.423 7.79237 33.4627C7.71285 33.5025 7.67309 33.5422 7.59358 33.582H7.55382C7.03698 33.9398 6.63942 34.2976 6.2816 34.6554ZM11.0127 38.0348C10.4163 37.836 9.85973 37.5975 9.30313 37.2794L9.06459 37.1601C8.58751 36.9216 8.11042 36.683 7.63334 36.4047C7.59358 36.365 7.51407 36.365 7.47431 36.2855C7.51407 36.2457 7.55383 36.1662 7.63334 36.0867L7.75261 35.9277C7.95139 35.7289 8.22969 35.4506 8.66702 35.212C8.70678 35.212 8.74653 35.1723 8.78629 35.1325C8.82605 35.1325 8.86581 35.0928 8.86581 35.0928C8.94532 35.1723 8.98508 35.2916 9.06459 35.4108C9.1441 35.5301 9.18386 35.6494 9.26338 35.7289C9.78022 36.4843 10.3368 37.1601 11.0127 37.7962C11.0922 37.9155 11.1717 37.995 11.2512 38.0745C11.132 38.0745 11.0922 38.0745 11.0127 38.0348ZM18.2882 39.466H18.1689C17.8509 39.3865 17.4931 39.3468 17.175 39.2275C16.4991 39.0685 15.8233 38.8299 14.9486 38.3926C14.4318 38.1143 14.0342 37.8758 13.6366 37.5975C12.603 36.8818 11.6886 35.9674 11.0127 34.9337C10.8537 34.6952 10.6946 34.4964 10.5754 34.2579C10.6549 34.2181 10.7344 34.2181 10.8139 34.1784C10.8537 34.1784 10.9332 34.1386 10.9729 34.0988C11.7283 33.8603 12.6427 33.6218 13.5969 33.3832C15.0679 33.1049 16.5787 32.9061 18.2485 32.8664V39.466H18.2882ZM18.2882 30.9183C16.6184 30.9978 15.0679 31.1568 13.6366 31.4351C12.7222 31.5942 11.8476 31.8327 10.9729 32.0712C10.5754 32.1905 10.138 32.3495 9.74046 32.5086C9.58143 32.111 9.46216 31.7134 9.34289 31.2761L9.30313 31.1171C9.18386 30.481 9.06459 29.8846 8.98507 29.2485H18.2882V30.9183Z" fill="white"/>
</svg>
