<svg width="169" height="53" viewBox="0 0 169 53" fill="none" xmlns="http://www.w3.org/2000/svg">
<path d="M73.8028 12H46V19.5628H73.8028V12Z" fill="white"/>
<path d="M73.8047 12L79.8985 18.3114V24.0243L73.8047 19.5628V12Z" fill="white"/>
<path d="M73.8047 33.1645L79.8985 31.9131V36.9731L73.8047 40.7273V33.1645Z" fill="white"/>
<path d="M73.8047 22.6104L79.8985 25.8749V30.1187H73.8047V22.6104Z" fill="white"/>
<path d="M73.8028 22.6104H46V30.1732H73.8028V22.6104Z" fill="white"/>
<path d="M73.8028 33.165H46V40.7278H73.8028V33.165Z" fill="white"/>
<path d="M88.1086 26.3636H86.0954V20.6507H83.8647V26.3636H81.8516V18.8008H88.163V26.3636H88.1086Z" fill="white"/>
<path d="M89.4688 18.8008H94.9096V20.433H91.4819V21.63H94.6376V23.1535H91.4819V24.6225H95.0184V26.3092H89.4688V18.8008Z" fill="white"/>
<path d="M96.1091 18.8008H99.4824C100.244 18.8008 100.788 19.0184 101.115 19.3993C101.496 19.7801 101.659 20.3786 101.659 21.1404C101.659 21.9021 101.441 22.5006 101.06 22.9358C100.679 23.3711 100.027 23.5887 99.2104 23.5887H98.1222V26.418H96.0547V18.8008H96.1091ZM98.1766 22.0109H98.6663C99.0472 22.0109 99.3192 21.9565 99.4824 21.7933C99.6457 21.63 99.7001 21.4124 99.7001 21.1948C99.7001 20.9771 99.6457 20.7595 99.4824 20.5963C99.3192 20.433 99.1016 20.3242 98.7207 20.3242H98.1222V22.0109H98.1766Z" fill="white"/>
<path d="M102.797 18.8008H106.605C107.258 18.8008 107.748 18.964 108.074 19.3449C108.401 19.7257 108.564 20.161 108.564 20.7051C108.564 21.1404 108.455 21.5212 108.183 21.8477C108.02 22.0653 107.802 22.2285 107.476 22.3373C107.965 22.4462 108.292 22.7182 108.51 22.9902C108.727 23.2623 108.836 23.6976 108.836 24.1872C108.836 24.5681 108.782 24.949 108.618 25.221C108.455 25.5474 108.237 25.7651 107.965 25.9827C107.802 26.0915 107.53 26.2004 107.204 26.2548C106.768 26.3092 106.442 26.3636 106.279 26.3636H102.742V18.8008H102.797ZM104.81 21.7933H105.68C106.007 21.7933 106.224 21.7388 106.333 21.63C106.442 21.5212 106.496 21.3036 106.496 21.0859C106.496 20.8683 106.442 20.7051 106.333 20.5963C106.224 20.4874 106.007 20.433 105.68 20.433H104.755V21.7933H104.81ZM104.81 24.7313H105.843C106.17 24.7313 106.442 24.6769 106.605 24.5137C106.768 24.3505 106.823 24.1872 106.823 23.9152C106.823 23.6976 106.768 23.5343 106.605 23.3711C106.442 23.2079 106.224 23.1535 105.843 23.1535H104.81V24.7313Z" fill="white"/>
<path d="M109.656 22.6098C109.656 21.3584 109.983 20.4335 110.581 19.7261C111.18 19.0188 111.996 18.6924 113.084 18.6924C114.172 18.6924 115.043 19.0188 115.641 19.7261C116.24 20.4335 116.512 21.3584 116.512 22.5554C116.512 23.4259 116.403 24.1877 116.131 24.7317C115.859 25.2758 115.478 25.7111 114.988 26.0375C114.499 26.364 113.9 26.5272 113.138 26.5272C112.377 26.5272 111.778 26.364 111.289 26.1464C110.799 25.9287 110.418 25.4391 110.092 24.8406C109.765 24.2421 109.656 23.4803 109.656 22.6098ZM111.724 22.6098C111.724 23.3715 111.833 23.9156 112.105 24.2421C112.377 24.5685 112.703 24.7317 113.138 24.7317C113.574 24.7317 113.9 24.5685 114.172 24.2421C114.39 23.9156 114.553 23.3171 114.553 22.501C114.553 21.7937 114.444 21.2496 114.172 20.9231C113.9 20.5967 113.574 20.4335 113.138 20.4335C112.703 20.4335 112.377 20.5967 112.159 20.9231C111.833 21.304 111.724 21.8481 111.724 22.6098Z" fill="white"/>
<path d="M117.598 18.8008H123.039V20.433H119.611V21.63H122.766V23.1535H119.611V24.6225H123.147V26.3092H117.598V18.8008Z" fill="white"/>
<path d="M84.1945 30.6621L84.9018 30.8798C84.793 31.2606 84.6297 31.5327 84.3577 31.7503C84.0857 31.9135 83.8136 32.0223 83.3784 32.0223C82.8887 32.0223 82.5078 31.8591 82.1814 31.5327C81.8549 31.2062 81.7461 30.7709 81.7461 30.2268C81.7461 29.6284 81.9093 29.1931 82.2358 28.8666C82.5622 28.5402 82.9431 28.377 83.4328 28.377C83.868 28.377 84.2489 28.4858 84.5209 28.7578C84.6842 28.921 84.793 29.1387 84.9018 29.4107L84.1945 29.5739C84.1401 29.4107 84.0857 29.2475 83.9224 29.1387C83.8136 29.0299 83.6504 28.9754 83.4328 28.9754C83.1607 28.9754 82.9431 29.0843 82.7799 29.2475C82.6166 29.4107 82.5078 29.7372 82.5078 30.1724C82.5078 30.6077 82.5622 30.9342 82.7254 31.0974C82.8887 31.2606 83.1063 31.3694 83.3784 31.3694C83.596 31.3694 83.7592 31.315 83.868 31.2062C84.0857 31.0974 84.1401 30.8798 84.1945 30.6621Z" fill="white"/>
<path d="M86.264 31.9135V28.9754H85.1758V28.377H88.0594V28.9754H86.9713V31.9135H86.264Z" fill="white"/>
<path d="M88.5469 31.9138V28.4316H89.6895C90.1247 28.4316 90.3968 28.4316 90.56 28.486C90.7776 28.5405 90.9409 28.6493 91.0497 28.8125C91.2129 28.9757 91.2673 29.1934 91.2673 29.5198C91.2673 29.7374 91.2129 29.9007 91.1585 30.0639C91.1041 30.2271 90.9953 30.3359 90.832 30.3903C90.7232 30.4992 90.56 30.5536 90.4512 30.5536C90.288 30.608 90.0159 30.608 89.6895 30.608H89.1998V31.9138H88.5469ZM89.2542 29.0301V30.0095H89.6895C89.9615 30.0095 90.1791 30.0095 90.2879 29.9551C90.3968 29.9007 90.4512 29.8463 90.5056 29.7919C90.56 29.7374 90.6144 29.6286 90.6144 29.5198C90.6144 29.411 90.56 29.3022 90.5056 29.1934C90.4512 29.0845 90.3424 29.0845 90.2335 29.0301C90.1247 29.0301 89.9615 29.0301 89.6895 29.0301H89.2542Z" fill="white"/>
<path d="M91.7031 30.1729C91.7031 29.792 91.7575 29.52 91.8664 29.2479C91.9752 29.0847 92.084 28.9215 92.1928 28.7582C92.3016 28.595 92.4648 28.4862 92.6825 28.4318C92.9001 28.323 93.1722 28.2686 93.4442 28.2686C93.9883 28.2686 94.3691 28.4318 94.6956 28.7582C95.0221 29.0847 95.1853 29.52 95.1853 30.1184C95.1853 30.6625 95.0221 31.1522 94.6956 31.4243C94.3691 31.7507 93.9339 31.9139 93.4442 31.9139C92.9001 31.9139 92.4648 31.7507 92.1928 31.4243C91.8664 31.2066 91.7031 30.7714 91.7031 30.1729ZM92.4648 30.1729C92.4648 30.5537 92.5737 30.8802 92.7369 31.0978C92.9001 31.3154 93.1722 31.4243 93.4442 31.4243C93.7162 31.4243 93.9883 31.3154 94.1515 31.0978C94.3147 30.8802 94.4236 30.6081 94.4236 30.1729C94.4236 29.792 94.3147 29.4655 94.1515 29.2479C93.9883 29.0303 93.7162 28.9759 93.4442 28.9759C93.1722 28.9759 92.9001 29.0847 92.7369 29.3023C92.5737 29.4655 92.4648 29.792 92.4648 30.1729Z" fill="white"/>
<path d="M95.7812 28.4316H96.4342V30.7712L97.9032 28.4316H98.6105V31.9138H97.9576V29.6286L96.4886 31.9138H95.7812V28.4316Z" fill="white"/>
<path d="M100.244 31.9135V28.9754H99.1562V28.377H101.985V28.9754H100.897V31.9135H100.244Z" fill="white"/>
<path d="M102.531 31.9138V28.4316H105.197V29.0301H103.239V29.7919H105.034V30.3904H103.239V31.3697H105.252V31.9682H102.531V31.9138Z" fill="white"/>
<path d="M106.177 28.4316H108.679V31.9138H107.972V28.9757H106.884V30.4992C106.884 30.9344 106.884 31.2065 106.83 31.4241C106.775 31.5873 106.721 31.7506 106.612 31.805C106.503 31.9138 106.34 31.9682 106.068 31.9682C105.959 31.9682 105.85 31.9682 105.578 31.9682V31.4241H105.741C105.905 31.4241 106.013 31.4241 106.068 31.3697C106.122 31.3153 106.122 31.2065 106.122 31.0977V30.4992V28.4316H106.177Z" fill="white"/>
<path d="M109.492 28.4316H110.2V29.8463H111.179C111.614 29.8463 111.941 29.9551 112.158 30.1727C112.376 30.3904 112.485 30.608 112.485 30.9344C112.485 31.1521 112.43 31.3697 112.321 31.5329C112.213 31.6962 112.049 31.805 111.886 31.8594C111.723 31.9138 111.505 31.9682 111.179 31.9682H109.492V28.4316ZM110.2 31.3153H110.907C111.124 31.3153 111.288 31.3153 111.396 31.2609C111.505 31.2609 111.56 31.2065 111.614 31.0977C111.669 31.0433 111.723 30.9344 111.723 30.8256C111.723 30.6624 111.669 30.5536 111.56 30.4448C111.451 30.3904 111.233 30.3359 110.961 30.3359H110.2V31.3153Z" fill="white"/>
<path d="M113.086 31.9138V28.4316H113.793V29.7919H115.208V28.4316H115.915V31.9138H115.262V30.3903H113.848V31.9138H113.086Z" fill="white"/>
<path d="M116.621 30.1729C116.621 29.792 116.676 29.52 116.784 29.2479C116.893 29.0847 117.002 28.9215 117.111 28.7582C117.22 28.595 117.383 28.4862 117.6 28.4318C117.818 28.323 118.09 28.2686 118.362 28.2686C118.906 28.2686 119.287 28.4318 119.614 28.7582C119.94 29.0847 120.103 29.52 120.103 30.1184C120.103 30.6625 119.94 31.1522 119.614 31.4243C119.287 31.7507 118.852 31.9139 118.362 31.9139C117.818 31.9139 117.383 31.7507 117.111 31.4243C116.784 31.2066 116.621 30.7714 116.621 30.1729ZM117.328 30.1729C117.328 30.5537 117.437 30.8802 117.6 31.0978C117.764 31.3154 118.036 31.4243 118.308 31.4243C118.58 31.4243 118.852 31.3154 119.015 31.0978C119.178 30.8802 119.287 30.6081 119.287 30.1729C119.287 29.792 119.178 29.4655 119.015 29.2479C118.852 29.0303 118.58 28.9759 118.308 28.9759C118.036 28.9759 117.764 29.0847 117.6 29.3023C117.437 29.4655 117.328 29.792 117.328 30.1729Z" fill="white"/>
<path d="M120.703 31.9138V28.4316H123.369V29.0301H121.41V29.7919H123.206V30.3904H121.41V31.3697H123.424V31.9682H120.703V31.9138Z" fill="white"/>
<path d="M81.8516 33.0557H82.5589L83.1574 34.8511L83.7559 33.0557H84.4632L83.5926 35.5041L83.4294 35.9393C83.375 36.1025 83.3206 36.2114 83.2662 36.2658C83.2118 36.3202 83.1574 36.429 83.103 36.429C83.0486 36.4834 82.9397 36.5378 82.8309 36.5378C82.7221 36.5378 82.6133 36.5922 82.5045 36.5922C82.3957 36.5922 82.2324 36.5922 82.1236 36.5378L82.0692 35.9937C82.178 35.9937 82.2868 36.0481 82.3412 36.0481C82.5045 36.0481 82.6133 35.9937 82.6677 35.8849C82.7221 35.7761 82.7765 35.6673 82.8309 35.5585L81.8516 33.0557Z" fill="white"/>
<path d="M86.3125 33.0557H88.5433V35.6129H87.8903V33.5998H86.9654V35.6129H86.3125V33.0557Z" fill="white"/>
<path d="M90.6641 33.0564H91.317V33.4372C91.4258 33.3284 91.5346 33.2196 91.6434 33.1108C91.8066 33.0564 91.9155 33.002 92.0787 33.002C92.3507 33.002 92.6228 33.1108 92.8404 33.3284C93.058 33.546 93.1669 33.8725 93.1669 34.3078C93.1669 34.743 93.058 35.0695 92.8404 35.2871C92.6228 35.5048 92.4051 35.6136 92.0787 35.6136C91.9155 35.6136 91.8066 35.5592 91.6978 35.5048C91.589 35.4503 91.4802 35.3415 91.317 35.2327V36.5385H90.6641V33.0564ZM91.3714 34.2534C91.3714 34.5254 91.4258 34.743 91.5346 34.9063C91.6434 35.0695 91.8066 35.1239 91.9699 35.1239C92.1331 35.1239 92.2419 35.0695 92.3507 34.9607C92.4595 34.8518 92.514 34.6342 92.514 34.3622C92.514 34.0901 92.4595 33.8725 92.3507 33.7637C92.2419 33.6549 92.1331 33.546 91.9699 33.546C91.8066 33.546 91.6434 33.6004 91.5346 33.7093C91.4258 33.8181 91.3714 34.0357 91.3714 34.2534Z" fill="white"/>
<path d="M95.6141 33.8181L95.0156 33.7093C95.07 33.4372 95.1788 33.274 95.3965 33.1652C95.6141 33.0564 95.8318 33.002 96.1582 33.002C96.4847 33.002 96.7023 33.0564 96.8111 33.1108C96.9743 33.1652 97.0831 33.274 97.1376 33.3828C97.192 33.4916 97.2464 33.7093 97.2464 33.9813V34.743C97.2464 34.9607 97.2464 35.1239 97.3008 35.2327C97.3008 35.3415 97.3552 35.4503 97.4096 35.5592H96.7567C96.7567 35.5047 96.7023 35.4503 96.7023 35.3415C96.7023 35.2871 96.7023 35.2871 96.7023 35.2871C96.5935 35.3959 96.4847 35.5047 96.3214 35.5592C96.2126 35.6136 96.0494 35.668 95.8862 35.668C95.6141 35.668 95.3965 35.6136 95.2877 35.4503C95.1244 35.2871 95.07 35.1239 95.07 34.9063C95.07 34.743 95.1244 34.6342 95.1788 34.5254C95.2333 34.4166 95.3421 34.3078 95.4509 34.2534C95.5597 34.1989 95.7773 34.1445 95.995 34.0901C96.3214 34.0357 96.5391 33.9813 96.6479 33.9269V33.8725C96.6479 33.7637 96.5935 33.6549 96.5391 33.6004C96.4847 33.546 96.3758 33.4916 96.1582 33.4916C96.0494 33.4916 95.9406 33.4916 95.8862 33.546C95.7229 33.6004 95.6685 33.7093 95.6141 33.8181ZM96.5391 34.3622C96.4302 34.4166 96.3214 34.4166 96.1038 34.471C95.9406 34.5254 95.7773 34.5254 95.7229 34.5798C95.6141 34.6342 95.6141 34.743 95.6141 34.7974C95.6141 34.9063 95.6685 34.9607 95.7229 35.0151C95.7773 35.0695 95.8862 35.1239 95.995 35.1239C96.1038 35.1239 96.2126 35.0695 96.3214 35.0151C96.3758 34.9607 96.4302 34.9063 96.4847 34.7974C96.4847 34.743 96.4847 34.6342 96.4847 34.471V34.3622H96.5391Z" fill="white"/>
<path d="M99.2653 33.0557H100.734C101.061 33.0557 101.278 33.1101 101.387 33.2189C101.551 33.3277 101.605 33.4909 101.605 33.7086C101.605 33.8718 101.551 33.9806 101.496 34.0894C101.387 34.1982 101.333 34.2527 101.17 34.3071C101.333 34.3615 101.496 34.4159 101.551 34.5247C101.605 34.6335 101.659 34.7967 101.659 34.9056C101.659 35.1232 101.605 35.2864 101.442 35.3952C101.278 35.5041 101.061 35.5585 100.789 35.5585H99.2109V33.0557H99.2653ZM99.9183 34.0894H100.354C100.571 34.0894 100.734 34.0894 100.789 34.035C100.898 33.9806 100.952 33.9262 100.952 33.763C100.952 33.6542 100.898 33.5997 100.843 33.5453C100.734 33.4909 100.626 33.4909 100.354 33.4909H99.9183V34.0894ZM99.9183 35.1232H100.462C100.68 35.1232 100.789 35.1232 100.898 35.0688C101.006 35.0144 101.006 34.96 101.006 34.7967C101.006 34.6879 100.952 34.5791 100.843 34.5247C100.734 34.4703 100.571 34.4703 100.245 34.4703H99.9183V35.1232Z" fill="white"/>
<path d="M103.779 33.0557H106.009V35.6129H105.357V33.5998H104.432V34.7423C104.432 35.0144 104.377 35.232 104.323 35.3408C104.268 35.4496 104.16 35.5585 104.105 35.5585C104.051 35.6129 103.888 35.6129 103.724 35.6129C103.616 35.6129 103.452 35.6129 103.289 35.5585V35.0688C103.289 35.0688 103.343 35.0688 103.398 35.0688C103.452 35.0688 103.507 35.0688 103.561 35.0688C103.67 35.0688 103.724 35.0144 103.724 34.96C103.724 34.9056 103.779 34.7423 103.779 34.4703V33.0557Z" fill="white"/>
<path d="M109.546 34.7427L110.199 34.8516C110.09 35.1236 109.981 35.2868 109.818 35.3957C109.655 35.5045 109.383 35.6133 109.111 35.6133C108.676 35.6133 108.349 35.4501 108.131 35.178C107.968 34.9604 107.859 34.6339 107.859 34.3075C107.859 33.8722 107.968 33.5458 108.186 33.3281C108.403 33.1105 108.676 32.9473 109.002 32.9473C109.383 32.9473 109.655 33.0561 109.872 33.3281C110.09 33.6002 110.199 33.981 110.199 34.4707H108.512C108.512 34.6883 108.567 34.8516 108.676 34.9604C108.784 35.0692 108.893 35.1236 109.056 35.1236C109.165 35.1236 109.274 35.0692 109.328 35.0148C109.383 34.9604 109.546 34.906 109.546 34.7427ZM109.6 34.0898C109.6 33.8722 109.546 33.7634 109.437 33.6546C109.328 33.5458 109.22 33.4914 109.111 33.4914C108.948 33.4914 108.839 33.5458 108.73 33.6546C108.621 33.7634 108.567 33.9266 108.567 34.0898H109.6Z" fill="white"/>
<path d="M112.211 33.0557H112.864V33.9806H113.843V33.0557H114.496V35.6129H113.843V34.5247H112.864V35.6129H112.211V33.0557Z" fill="white"/>
<path d="M116.617 33.0557H117.27V34.6335L118.304 33.0557H118.957V35.6129H118.304V33.9806L117.27 35.6129H116.617V33.0557Z" fill="white"/>
<path d="M122.495 34.7427L123.148 34.8516C123.039 35.1236 122.931 35.2868 122.767 35.3957C122.604 35.5045 122.332 35.6133 122.06 35.6133C121.625 35.6133 121.298 35.4501 121.081 35.178C120.917 34.9604 120.809 34.6339 120.809 34.3075C120.809 33.8722 120.917 33.5458 121.135 33.3281C121.353 33.1105 121.625 32.9473 121.951 32.9473C122.332 32.9473 122.604 33.0561 122.822 33.3281C123.039 33.6002 123.148 33.981 123.148 34.4707H121.461C121.461 34.6883 121.516 34.8516 121.625 34.9604C121.734 35.0692 121.842 35.1236 122.006 35.1236C122.114 35.1236 122.223 35.0692 122.278 35.0148C122.332 34.9604 122.495 34.906 122.495 34.7427ZM122.55 34.0898C122.55 33.8722 122.495 33.7634 122.386 33.6546C122.278 33.5458 122.169 33.4914 122.06 33.4914C121.897 33.4914 121.788 33.5458 121.679 33.6546C121.57 33.7634 121.516 33.9266 121.516 34.0898H122.55Z" fill="white"/>
</svg>
