<svg width="169" height="53" viewBox="0 0 169 53" fill="none" xmlns="http://www.w3.org/2000/svg">
<path d="M76.5506 21.1341L79.7966 18.7402H68.9297V33.0801H79.7966V30.6862H72.0345V27.025H78.6676V24.6311H72.0345V21.1341H76.5506Z" fill="white"/>
<path d="M60.7237 24.326H56.9603V21.1341H62.9818L66.2278 18.7402H53.8555V33.0801H60.3239C63.9462 33.0801 66.0396 31.4373 66.0396 28.574C66.0396 25.828 64.1579 24.326 60.7237 24.326ZM60.2063 30.6862H56.9603V26.7199H60.2063C62.1821 26.7199 63.0994 27.377 63.0994 28.7148C63.0994 30.0525 62.1115 30.6862 60.2063 30.6862Z" fill="white"/>
<path d="M88.5953 18.7402H82.6914V33.0801H85.7962V29.0199H88.6188C92.3822 29.0199 94.7344 27.0484 94.7344 23.8801C94.7344 20.7117 92.3822 18.7402 88.5953 18.7402ZM88.5247 26.626H85.7727V21.1341H88.5247C90.5241 21.1341 91.606 22.1198 91.606 23.8801C91.606 25.6403 90.5241 26.626 88.5247 26.626Z" fill="white"/>
<path d="M48.5392 29.9834C47.716 30.4293 46.7987 30.664 45.8578 30.664C43.0587 30.664 41.0359 28.6691 41.0359 25.9231C41.0359 23.1772 43.0587 21.1823 45.8578 21.1823C46.8692 21.1588 47.8571 21.4874 48.6804 22.0741L50.9149 20.4313L50.7738 20.2905C49.4801 19.1404 47.7395 18.5537 45.7637 18.5537C43.6233 18.5537 41.671 19.2813 40.2597 20.5956C38.8484 21.9568 38.0487 23.8578 38.0957 25.8293C38.0722 27.8242 38.8484 29.7487 40.2597 31.1568C41.7415 32.5415 43.7173 33.316 45.7402 33.2691C47.9747 33.2691 49.927 32.4946 51.2442 31.0864L49.2449 29.6079L48.5392 29.9834Z" fill="white"/>
<path d="M132.063 18.7637V33.1036H135.168V27.2362H141.778V33.1036H144.882V18.7637H141.778V24.6546H135.168V18.7637H132.063ZM126.724 33.1036H129.993L123.925 18.7637H120.773L114.587 33.1036H117.715L118.962 30.2168H125.548L126.724 33.1036ZM119.903 27.8229L122.302 22.0729L124.56 27.8229H119.903ZM151.845 27.3066H153.774L158.525 33.0801H162.524L156.173 25.6637L161.724 18.7402H158.172L153.562 24.8893H151.845V18.7402H148.74V33.0801H151.845V27.3066ZM104.331 24.3495V21.1576H112.446V18.7637H101.227V33.1036H107.695C111.317 33.1036 113.411 31.4607 113.411 28.5974C113.411 25.8515 111.529 24.3495 108.095 24.3495H104.331ZM104.331 30.7097V26.7433H107.577C109.553 26.7433 110.471 27.4005 110.471 28.7383C110.471 30.076 109.506 30.7332 107.577 30.7332H104.331V30.7097Z" fill="white"/>
<path d="M28.3781 18.6475C28.9426 19.375 29.413 20.173 29.8129 21.0179L18.946 29.021L14.3828 26.1577V22.7312L18.9225 25.571L28.3781 18.6475Z" fill="white"/>
<path d="M9.75201 25.9227C9.75201 25.7584 9.75201 25.6176 9.77553 25.4533L7.02352 25.3125C7.02352 25.5003 7 25.7115 7 25.8992C7 29.185 8.34072 32.1656 10.5047 34.3248L12.457 32.3768C10.787 30.734 9.75201 28.4574 9.75201 25.9227Z" fill="white"/>
<path d="M18.9246 16.7694C19.0892 16.7694 19.2304 16.7694 19.395 16.7928L19.5361 14.0469C19.348 14.0469 19.1363 14.0234 18.9481 14.0234C15.6551 14.0234 12.6679 15.3612 10.5039 17.5204L12.4562 19.4684C14.1027 17.802 16.4078 16.7694 18.9246 16.7694Z" fill="white"/>
<path d="M18.928 35.076C18.7633 35.076 18.6222 35.0759 18.4575 35.0525L18.3164 37.7984C18.5046 37.7984 18.7163 37.8219 18.9044 37.8219C22.1974 37.8219 25.1847 36.4841 27.3486 34.3249L25.3964 32.377C23.7499 34.0668 21.4683 35.076 18.928 35.076Z" fill="white"/>
<path d="M24.1005 18.3653L26.4291 16.6521C24.3828 15.0092 21.7719 14 18.9258 14V16.7459C20.8545 16.7694 22.6422 17.3561 24.1005 18.3653Z" fill="white"/>
<path d="M30.8761 25.9219C30.8761 25.1943 30.8056 24.4902 30.688 23.7861L28.1241 25.6872C28.1241 25.7576 28.1241 25.8515 28.1241 25.9219C28.1241 28.6209 26.948 31.0382 25.0898 32.7046L26.948 34.7464C29.3472 32.5872 30.8761 29.4188 30.8761 25.9219Z" fill="white"/>
<path d="M18.9261 35.0764C16.2211 35.0764 13.7984 33.9029 12.1284 32.0488L10.082 33.9029C12.2695 36.3203 15.4214 37.8223 18.9261 37.8223V35.0764Z" fill="white"/>
<path d="M12.7863 19.1395L10.9281 17.0977C8.50537 19.2803 7 22.4252 7 25.9222H9.75201C9.75201 23.2467 10.9281 20.8058 12.7863 19.1395Z" fill="white"/>
</svg>
