<svg width="169" height="53" viewBox="0 0 169 53" fill="none" xmlns="http://www.w3.org/2000/svg">
<path d="M48.6849 35.1728V35.635H47.1491V38.7657H46.6406V35.1728H48.6849ZM49.6838 36.9552C49.6838 36.712 49.7326 36.4792 49.8303 36.2566C49.9279 36.0323 50.0665 35.8328 50.2464 35.6582C50.4312 35.4801 50.6384 35.3457 50.8678 35.2549C51.0989 35.1624 51.3421 35.1162 51.5972 35.1162C51.8574 35.1162 52.1032 35.1624 52.3343 35.2549C52.5671 35.3457 52.7743 35.4801 52.9559 35.6582C53.3308 36.0229 53.5183 36.4662 53.5183 36.9885C53.5183 37.2317 53.4704 37.4653 53.3745 37.6897C53.2803 37.9123 53.1425 38.1117 52.9609 38.2881C52.7726 38.4678 52.5638 38.6031 52.3343 38.6938C52.1049 38.7846 51.8593 38.8299 51.5972 38.8299C51.3421 38.8299 51.0982 38.7837 50.8652 38.6912C50.6324 38.5971 50.4261 38.4627 50.2464 38.2881C50.0615 38.1065 49.9211 37.9036 49.8252 37.6793C49.7309 37.4534 49.6838 37.2119 49.6838 36.9552ZM50.2309 36.9731C50.2309 37.1581 50.2652 37.3336 50.3336 37.4996C50.4022 37.6639 50.5005 37.8103 50.6291 37.9388C50.7574 38.0689 50.9055 38.169 51.0733 38.2393C51.241 38.3094 51.4158 38.3445 51.5972 38.3445C51.7856 38.3445 51.9619 38.3104 52.1264 38.2417C52.2907 38.1733 52.4387 38.0724 52.5706 37.9388C52.699 37.8103 52.7975 37.6639 52.8659 37.4996C52.9362 37.3336 52.9713 37.1581 52.9713 36.9731C52.9713 36.7865 52.9362 36.6118 52.8659 36.4491C52.7975 36.2865 52.6973 36.1384 52.5654 36.0049C52.4371 35.8713 52.2898 35.7703 52.1238 35.7018C51.9594 35.6333 51.7839 35.599 51.5972 35.599C51.4158 35.599 51.242 35.6341 51.0759 35.7044C50.9116 35.7745 50.7626 35.8747 50.6291 36.0049C50.5005 36.1316 50.4022 36.2779 50.3336 36.444C50.2652 36.6101 50.2309 36.7865 50.2309 36.9731ZM57.9124 38.4935C57.7019 38.6047 57.4878 38.6888 57.2704 38.7452C57.0547 38.8017 56.8381 38.8299 56.6207 38.8299C56.4118 38.8299 56.2141 38.8034 56.0274 38.7503C55.8425 38.6956 55.6678 38.6151 55.5034 38.5089C55.3699 38.4216 55.251 38.3215 55.1464 38.2084C55.042 38.0954 54.9529 37.973 54.8794 37.8412C54.8075 37.7077 54.7526 37.5664 54.7149 37.4174C54.6773 37.2685 54.6585 37.1143 54.6585 36.9552C54.6585 36.8353 54.6704 36.7163 54.6945 36.5981C54.7201 36.4783 54.757 36.3636 54.8049 36.254C54.8528 36.1427 54.9119 36.0374 54.982 35.9381C55.0523 35.837 55.1319 35.7437 55.2209 35.6582C55.4127 35.4749 55.6268 35.3388 55.8629 35.2498C56.1009 35.1607 56.3656 35.1162 56.6566 35.1162C56.7798 35.1162 56.8972 35.124 57.0085 35.1394C57.1215 35.1548 57.2285 35.1761 57.3294 35.2036C57.4305 35.2292 57.5272 35.2601 57.6197 35.296C57.7121 35.3303 57.7995 35.3662 57.8816 35.4039V35.9611C57.6626 35.8431 57.4528 35.7532 57.2524 35.6916C57.0538 35.6298 56.8551 35.599 56.6566 35.599C56.4426 35.599 56.2465 35.635 56.0685 35.707C55.8904 35.7771 55.7372 35.8747 55.6088 35.9997C55.4821 36.123 55.3827 36.2685 55.3109 36.4363C55.2406 36.6024 55.2055 36.7814 55.2055 36.9731C55.2055 37.1649 55.2406 37.3438 55.3109 37.5098C55.381 37.676 55.4786 37.8207 55.6036 37.9438C55.7303 38.0672 55.8802 38.1638 56.0531 38.2341C56.2278 38.3043 56.4187 38.3395 56.6258 38.3395C57.0436 38.3395 57.4724 38.1972 57.9124 37.913V38.4935ZM59.3993 35.1728L60.5653 37.1041L61.6132 35.1728H62.1448L60.1725 38.7657H59.6408L60.2828 37.6075L58.7779 35.1728H59.3993ZM65.7914 35.1728V38.3035H66.2665V39.6081H65.8196V38.7657H62.9098V39.6081H62.463V38.3035H62.6941C62.8293 38.1494 62.9466 37.9756 63.0458 37.7821C63.1469 37.5869 63.2283 37.3857 63.2899 37.1785C63.319 37.0793 63.343 36.9757 63.3619 36.8678C63.3823 36.76 63.3977 36.6443 63.4081 36.5211C63.42 36.3961 63.4287 36.2609 63.4337 36.1153C63.4389 35.9698 63.4415 35.8097 63.4415 35.635V35.1728H65.7914ZM65.2828 38.3035V35.635H63.9139V35.7404C63.9139 35.8122 63.9123 35.9047 63.9089 36.0177C63.9054 36.129 63.8978 36.2514 63.8857 36.385C63.8755 36.5168 63.8592 36.6554 63.8369 36.801C63.8164 36.9448 63.7882 37.0861 63.7522 37.2249C63.7266 37.3172 63.6948 37.4141 63.6572 37.515C63.6195 37.6144 63.5784 37.7127 63.5339 37.8103C63.4893 37.9062 63.4422 37.9971 63.3927 38.0826C63.3447 38.1683 63.2975 38.2417 63.2513 38.3035H65.2828ZM68.5656 35.1728H68.9406L70.5175 38.7657H69.9859L69.5236 37.7077H67.9929L67.5357 38.7657H67.0093L68.5656 35.1728ZM69.3129 37.2453L68.7453 35.9509L68.1933 37.2453H69.3129ZM71.5498 35.1728H72.6696C72.8597 35.1728 73.0283 35.1967 73.1756 35.2447C73.3245 35.2909 73.4495 35.3585 73.5505 35.4475C73.6532 35.5365 73.7311 35.6445 73.7842 35.7712C73.8372 35.8979 73.8638 36.0409 73.8638 36.2C73.8638 36.3594 73.8372 36.5022 73.7842 36.6289C73.7311 36.7556 73.6532 36.8635 73.5505 36.9526C73.4495 37.0399 73.3245 37.1075 73.1756 37.1555C73.0283 37.2017 72.8597 37.2249 72.6696 37.2249H72.0584V38.7657H71.5498V35.1728ZM72.6156 36.7624C72.8588 36.7624 73.0378 36.7198 73.1524 36.6341C73.2689 36.5467 73.3271 36.402 73.3271 36.2C73.3271 35.998 73.2689 35.8533 73.1524 35.766C73.0378 35.6786 72.8588 35.635 72.6156 35.635H72.0584V36.7624H72.6156ZM78.2221 38.4935C78.0114 38.6047 77.7975 38.6888 77.5799 38.7452C77.3642 38.8017 77.1477 38.8299 76.9302 38.8299C76.7213 38.8299 76.5236 38.8034 76.3369 38.7503C76.152 38.6956 75.9774 38.6151 75.8129 38.5089C75.6795 38.4216 75.5605 38.3215 75.456 38.2084C75.3516 38.0954 75.2626 37.973 75.1889 37.8412C75.117 37.7077 75.0622 37.5664 75.0246 37.4174C74.9869 37.2685 74.968 37.1143 74.968 36.9552C74.968 36.8353 74.9801 36.7163 75.004 36.5981C75.0298 36.4783 75.0665 36.3636 75.1144 36.254C75.1624 36.1427 75.2214 36.0374 75.2917 35.9381C75.3618 35.837 75.4414 35.7437 75.5304 35.6582C75.7222 35.4749 75.9363 35.3388 76.1726 35.2498C76.4106 35.1607 76.6751 35.1162 76.9661 35.1162C77.0895 35.1162 77.2067 35.124 77.318 35.1394C77.431 35.1548 77.538 35.1761 77.6391 35.2036C77.74 35.2292 77.8368 35.2601 77.9292 35.296C78.0218 35.3303 78.1091 35.3662 78.1913 35.4039V35.9611C77.972 35.8431 77.7623 35.7532 77.5619 35.6916C77.3634 35.6298 77.1648 35.599 76.9661 35.599C76.7521 35.599 76.5562 35.635 76.3781 35.707C76.2 35.7771 76.0467 35.8747 75.9183 35.9997C75.7916 36.123 75.6923 36.2685 75.6204 36.4363C75.5503 36.6024 75.515 36.7814 75.515 36.9731C75.515 37.1649 75.5503 37.3438 75.6204 37.5098C75.6907 37.676 75.7882 37.8207 75.9131 37.9438C76.04 38.0672 76.1897 38.1638 76.3626 38.2341C76.5373 38.3043 76.7281 38.3395 76.9353 38.3395C77.3531 38.3395 77.7821 38.1972 78.2221 37.913V38.4935ZM80.5487 35.635H79.2288V35.1728H82.3799V35.635H81.0599V38.7657H80.5487V35.635ZM84.4216 36.7137C84.6835 36.7137 84.8779 36.6675 85.0046 36.5751C85.1313 36.4825 85.1947 36.3379 85.1947 36.141C85.1947 35.9595 85.1434 35.8302 85.0406 35.7532C84.9378 35.6744 84.7794 35.635 84.5654 35.635H84.0749V36.7137H84.4216ZM83.5663 35.1728H84.6168C84.7983 35.1728 84.9584 35.1941 85.097 35.237C85.2374 35.2781 85.3548 35.3388 85.4489 35.4193C85.5431 35.4998 85.6141 35.5983 85.662 35.7146C85.7117 35.8311 85.7366 35.963 85.7366 36.1102C85.7366 36.2968 85.693 36.4517 85.6056 36.5751C85.5199 36.6966 85.3864 36.7908 85.2049 36.8576C85.4704 36.9209 85.6731 37.0338 85.8136 37.1965C85.9556 37.3575 86.0268 37.5543 86.0268 37.7873C86.0268 37.9327 85.9994 38.0655 85.9445 38.1853C85.8898 38.3052 85.8102 38.4087 85.7058 38.496C85.6013 38.5817 85.4737 38.6485 85.3231 38.6964C85.1725 38.7426 85.002 38.7657 84.8119 38.7657H83.5663V35.1728ZM84.0749 38.2983H84.7581C85.0011 38.2983 85.1818 38.2555 85.2999 38.1699C85.4198 38.0843 85.4797 37.9448 85.4797 37.7513C85.4797 37.551 85.4129 37.4063 85.2793 37.3172C85.1476 37.2282 84.9464 37.1837 84.6759 37.1837H84.0749V38.2983ZM87.375 35.1728H89.5349V35.635H87.8835V36.7188H89.4887V37.1837H87.8835V38.3035H89.5889V38.7657H87.375V35.1728ZM90.9986 35.1728H91.5072V36.7188H93.5798V35.1728H94.0909V38.7657H93.5798V37.2043H91.5072V38.7657H90.9986V35.1728ZM95.6241 35.1728H96.1325V36.7188H98.2052V35.1728H98.7162V38.7657H98.2052V37.2043H96.1325V38.7657H95.6241V35.1728ZM101.305 35.1728H101.68L103.257 38.7657H102.725L102.263 37.7077H100.732L100.275 38.7657H99.7485L101.305 35.1728ZM102.052 37.2453L101.485 35.9509L100.932 37.2453H102.052ZM106.859 38.7657H106.351V37.2403H106.13C106.058 37.2403 105.989 37.2505 105.924 37.271C105.859 37.2916 105.791 37.3317 105.719 37.3918C105.674 37.4311 105.634 37.4721 105.598 37.515C105.564 37.5578 105.531 37.6033 105.5 37.6511C105.47 37.6973 105.44 37.7461 105.41 37.7975C105.383 37.8472 105.354 37.8986 105.323 37.9516L104.84 38.7657H104.219L104.971 37.5869C105.007 37.5304 105.041 37.4799 105.072 37.4354C105.102 37.3909 105.133 37.3506 105.164 37.3147C105.197 37.2787 105.231 37.2462 105.267 37.2171C105.304 37.188 105.346 37.1605 105.393 37.1349C105.3 37.1247 105.21 37.1024 105.123 37.0681C105.036 37.0321 104.959 36.9876 104.892 36.9346C104.804 36.8661 104.733 36.7771 104.679 36.6675C104.625 36.5579 104.599 36.4226 104.599 36.2616C104.599 36.1008 104.625 35.95 104.679 35.8097C104.733 35.6693 104.814 35.5503 104.92 35.4527C104.985 35.3911 105.054 35.3423 105.126 35.3063C105.197 35.2687 105.27 35.2403 105.344 35.2216C105.417 35.201 105.49 35.1882 105.562 35.183C105.636 35.1761 105.707 35.1728 105.775 35.1728H106.859V38.7657ZM106.351 35.6144H105.775C105.736 35.6144 105.696 35.6163 105.655 35.6196C105.613 35.6213 105.572 35.6274 105.531 35.6376C105.49 35.6478 105.45 35.6632 105.41 35.6838C105.371 35.7027 105.333 35.7292 105.297 35.7634C105.262 35.7977 105.233 35.8354 105.213 35.8765C105.192 35.9175 105.176 35.9595 105.164 36.0023C105.152 36.0435 105.144 36.0845 105.141 36.1256C105.137 36.165 105.136 36.2 105.136 36.2308C105.136 36.2566 105.137 36.2865 105.138 36.3208C105.142 36.3533 105.147 36.3876 105.154 36.4235C105.162 36.4577 105.174 36.492 105.19 36.5263C105.207 36.5604 105.229 36.5931 105.256 36.6239C105.301 36.6717 105.362 36.7129 105.439 36.7471C105.517 36.7814 105.607 36.7984 105.709 36.7984H106.351V35.6144ZM110.989 35.1728V36.7188H111.235C111.316 36.7188 111.395 36.7077 111.474 36.6855C111.555 36.6615 111.622 36.617 111.677 36.5519C111.706 36.5194 111.742 36.4697 111.785 36.403C111.828 36.3362 111.876 36.2438 111.931 36.1256L112.093 35.7788C112.129 35.7035 112.167 35.6274 112.209 35.5503C112.251 35.4716 112.302 35.4005 112.36 35.3371C112.418 35.272 112.488 35.219 112.568 35.178C112.649 35.1368 112.746 35.1162 112.861 35.1162C112.905 35.1162 112.956 35.1223 113.012 35.1342C113.069 35.1446 113.122 35.1574 113.172 35.1728V35.6144C113.129 35.6007 113.088 35.5914 113.048 35.5862C113.009 35.5811 112.968 35.5785 112.925 35.5785C112.858 35.5785 112.803 35.5896 112.758 35.6119C112.715 35.6324 112.678 35.6599 112.648 35.6942C112.619 35.7267 112.594 35.7643 112.573 35.8071C112.553 35.8482 112.533 35.8893 112.514 35.9303L112.34 36.3156C112.297 36.4115 112.255 36.4937 112.214 36.5621C112.174 36.6289 112.133 36.6864 112.09 36.7342C112.049 36.7804 112.006 36.819 111.962 36.8498C111.917 36.8789 111.869 36.9038 111.816 36.9244C111.845 36.9312 111.881 36.9424 111.923 36.9577C111.966 36.9731 112.012 36.9962 112.062 37.027C112.112 37.0579 112.162 37.0989 112.214 37.1503C112.267 37.2 112.318 37.2633 112.368 37.3404L113.277 38.7657H112.678L111.936 37.5766C111.897 37.5133 111.856 37.4586 111.813 37.4122C111.77 37.366 111.721 37.325 111.667 37.289C111.608 37.2496 111.542 37.2223 111.469 37.2069C111.395 37.1915 111.317 37.1837 111.235 37.1837H110.989V38.7657H110.48V35.1728H110.989ZM114.309 36.9552C114.309 36.712 114.358 36.4792 114.456 36.2566C114.553 36.0323 114.692 35.8328 114.872 35.6582C115.057 35.4801 115.264 35.3457 115.493 35.2549C115.724 35.1624 115.967 35.1162 116.223 35.1162C116.483 35.1162 116.728 35.1624 116.96 35.2549C117.193 35.3457 117.4 35.4801 117.581 35.6582C117.956 36.0229 118.144 36.4662 118.144 36.9885C118.144 37.2317 118.096 37.4653 118 37.6897C117.906 37.9123 117.768 38.1117 117.586 38.2881C117.398 38.4678 117.189 38.6031 116.96 38.6938C116.73 38.7846 116.485 38.8299 116.223 38.8299C115.967 38.8299 115.723 38.7837 115.491 38.6912C115.258 38.5971 115.051 38.4627 114.872 38.2881C114.687 38.1065 114.546 37.9036 114.45 37.6793C114.356 37.4534 114.309 37.2119 114.309 36.9552ZM114.856 36.9731C114.856 37.1581 114.891 37.3336 114.959 37.4996C115.027 37.6639 115.126 37.8103 115.254 37.9388C115.383 38.0689 115.531 38.169 115.699 38.2393C115.866 38.3094 116.041 38.3445 116.223 38.3445C116.411 38.3445 116.587 38.3104 116.752 38.2417C116.916 38.1733 117.064 38.0724 117.196 37.9388C117.324 37.8103 117.423 37.6639 117.491 37.4996C117.561 37.3336 117.597 37.1581 117.597 36.9731C117.597 36.7865 117.561 36.6118 117.491 36.4491C117.423 36.2865 117.323 36.1384 117.191 36.0049C117.062 35.8713 116.915 35.7703 116.749 35.7018C116.585 35.6333 116.409 35.599 116.223 35.599C116.041 35.599 115.867 35.6341 115.701 35.7044C115.537 35.7745 115.388 35.8747 115.254 36.0049C115.126 36.1316 115.027 36.2779 114.959 36.444C114.891 36.6101 114.856 36.7865 114.856 36.9731ZM119.479 35.1728H120.599C120.789 35.1728 120.957 35.1967 121.105 35.2447C121.254 35.2909 121.379 35.3585 121.48 35.4475C121.582 35.5365 121.66 35.6445 121.713 35.7712C121.766 35.8979 121.793 36.0409 121.793 36.2C121.793 36.3594 121.766 36.5022 121.713 36.6289C121.66 36.7556 121.582 36.8635 121.48 36.9526C121.379 37.0399 121.254 37.1075 121.105 37.1555C120.957 37.2017 120.789 37.2249 120.599 37.2249H119.988V38.7657H119.479V35.1728ZM120.545 36.7624C120.788 36.7624 120.967 36.7198 121.082 36.6341C121.198 36.5467 121.256 36.402 121.256 36.2C121.256 35.998 121.198 35.8533 121.082 35.766C120.967 35.6786 120.788 35.635 120.545 35.635H119.988V36.7624H120.545ZM126.141 35.1728V38.7657H125.632V35.635H123.601V38.7657H123.093V35.1728H126.141ZM127.666 36.9552C127.666 36.712 127.714 36.4792 127.812 36.2566C127.91 36.0323 128.048 35.8328 128.228 35.6582C128.413 35.4801 128.62 35.3457 128.85 35.2549C129.081 35.1624 129.324 35.1162 129.579 35.1162C129.839 35.1162 130.085 35.1624 130.316 35.2549C130.549 35.3457 130.756 35.4801 130.938 35.6582C131.313 36.0229 131.5 36.4662 131.5 36.9885C131.5 37.2317 131.452 37.4653 131.356 37.6897C131.262 37.9123 131.124 38.1117 130.943 38.2881C130.754 38.4678 130.546 38.6031 130.316 38.6938C130.087 38.7846 129.841 38.8299 129.579 38.8299C129.324 38.8299 129.08 38.7837 128.847 38.6912C128.614 38.5971 128.408 38.4627 128.228 38.2881C128.043 38.1065 127.903 37.9036 127.807 37.6793C127.713 37.4534 127.666 37.2119 127.666 36.9552ZM128.213 36.9731C128.213 37.1581 128.247 37.3336 128.315 37.4996C128.384 37.6639 128.482 37.8103 128.611 37.9388C128.739 38.0689 128.887 38.169 129.055 38.2393C129.223 38.3094 129.398 38.3445 129.579 38.3445C129.767 38.3445 129.944 38.3104 130.108 38.2417C130.272 38.1733 130.421 38.0724 130.552 37.9388C130.681 37.8103 130.779 37.6639 130.848 37.4996C130.918 37.3336 130.953 37.1581 130.953 36.9731C130.953 36.7865 130.918 36.6118 130.848 36.4491C130.779 36.2865 130.679 36.1384 130.547 36.0049C130.419 35.8713 130.272 35.7703 130.105 35.7018C129.941 35.6333 129.766 35.599 129.579 35.599C129.398 35.599 129.224 35.6341 129.058 35.7044C128.893 35.7745 128.744 35.8747 128.611 36.0049C128.482 36.1316 128.384 36.2779 128.315 36.444C128.247 36.6101 128.213 36.7865 128.213 36.9731ZM132.835 35.1728H133.955C134.145 35.1728 134.314 35.1967 134.461 35.2447C134.61 35.2909 134.735 35.3585 134.836 35.4475C134.939 35.5365 135.017 35.6445 135.07 35.7712C135.123 35.8979 135.149 36.0409 135.149 36.2C135.149 36.3594 135.123 36.5022 135.07 36.6289C135.017 36.7556 134.939 36.8635 134.836 36.9526C134.735 37.0399 134.61 37.1075 134.461 37.1555C134.314 37.2017 134.145 37.2249 133.955 37.2249H133.344V38.7657H132.835V35.1728ZM133.901 36.7624C134.144 36.7624 134.323 36.7198 134.438 36.6341C134.554 36.5467 134.613 36.402 134.613 36.2C134.613 35.998 134.554 35.8533 134.438 35.766C134.323 35.6786 134.144 35.635 133.901 35.635H133.344V36.7624H133.901ZM137.504 35.1728H137.879L139.456 38.7657H138.925L138.462 37.7077H136.932L136.474 38.7657H135.948L137.504 35.1728ZM138.252 37.2453L137.684 35.9509L137.132 37.2453H138.252ZM141.181 35.1728V38.3035H143.179V35.1728H143.69V38.3035H144.163V39.6081H143.716V38.7657H140.673V35.1728H141.181ZM145.968 35.1728V37.967L148.156 35.1728H148.603V38.7657H148.094V35.9945L145.906 38.7657H145.459V35.1728H145.968ZM152.706 38.7657H152.197V37.2403H151.976C151.904 37.2403 151.836 37.2505 151.771 37.271C151.706 37.2916 151.637 37.3317 151.565 37.3918C151.521 37.4311 151.481 37.4721 151.445 37.515C151.41 37.5578 151.378 37.6033 151.347 37.6511C151.316 37.6973 151.286 37.7461 151.257 37.7975C151.23 37.8472 151.201 37.8986 151.17 37.9516L150.687 38.7657H150.065L150.818 37.5869C150.854 37.5304 150.887 37.4799 150.918 37.4354C150.949 37.3909 150.98 37.3506 151.011 37.3147C151.043 37.2787 151.077 37.2462 151.113 37.2171C151.151 37.188 151.193 37.1605 151.239 37.1349C151.147 37.1247 151.057 37.1024 150.97 37.0681C150.882 37.0321 150.805 36.9876 150.738 36.9346C150.651 36.8661 150.58 36.7771 150.525 36.6675C150.472 36.5579 150.446 36.4226 150.446 36.2616C150.446 36.1008 150.472 35.95 150.525 35.8097C150.58 35.6693 150.661 35.5503 150.767 35.4527C150.832 35.3911 150.9 35.3423 150.972 35.3063C151.044 35.2687 151.117 35.2403 151.19 35.2216C151.264 35.201 151.337 35.1882 151.409 35.183C151.482 35.1761 151.553 35.1728 151.622 35.1728H152.706V38.7657ZM152.197 35.6144H151.622C151.583 35.6144 151.542 35.6163 151.501 35.6196C151.46 35.6213 151.419 35.6274 151.378 35.6376C151.337 35.6478 151.297 35.6632 151.257 35.6838C151.218 35.7027 151.18 35.7292 151.144 35.7634C151.108 35.7977 151.08 35.8354 151.06 35.8765C151.039 35.9175 151.023 35.9595 151.011 36.0023C150.999 36.0435 150.991 36.0845 150.988 36.1256C150.984 36.165 150.982 36.2 150.982 36.2308C150.982 36.2566 150.983 36.2865 150.985 36.3208C150.988 36.3533 150.993 36.3876 151 36.4235C151.009 36.4577 151.021 36.492 151.036 36.5263C151.053 36.5604 151.076 36.5931 151.103 36.6239C151.148 36.6717 151.208 36.7129 151.285 36.7471C151.364 36.7814 151.454 36.7984 151.555 36.7984H152.197V35.6144Z" fill="white"/>
<path d="M48.6849 35.1728V35.635H47.1491V38.7657H46.6406V35.1728H48.6849ZM49.6838 36.9552C49.6838 36.712 49.7326 36.4792 49.8303 36.2566C49.9279 36.0323 50.0665 35.8328 50.2464 35.6582C50.4312 35.4801 50.6384 35.3457 50.8678 35.2549C51.0989 35.1624 51.3421 35.1162 51.5972 35.1162C51.8574 35.1162 52.1032 35.1624 52.3343 35.2549C52.5671 35.3457 52.7743 35.4801 52.9559 35.6582C53.3308 36.0229 53.5183 36.4662 53.5183 36.9885C53.5183 37.2317 53.4704 37.4653 53.3745 37.6897C53.2803 37.9123 53.1425 38.1117 52.9609 38.2881C52.7726 38.4678 52.5638 38.6031 52.3343 38.6938C52.1049 38.7846 51.8593 38.8299 51.5972 38.8299C51.3421 38.8299 51.0982 38.7837 50.8652 38.6912C50.6324 38.5971 50.4261 38.4627 50.2464 38.2881C50.0615 38.1065 49.9211 37.9036 49.8252 37.6793C49.7309 37.4534 49.6838 37.2119 49.6838 36.9552ZM50.2309 36.9731C50.2309 37.1581 50.2652 37.3336 50.3336 37.4996C50.4022 37.6639 50.5005 37.8103 50.6291 37.9388C50.7574 38.0689 50.9055 38.169 51.0733 38.2393C51.241 38.3094 51.4158 38.3445 51.5972 38.3445C51.7856 38.3445 51.9619 38.3104 52.1264 38.2417C52.2907 38.1733 52.4387 38.0724 52.5706 37.9388C52.699 37.8103 52.7975 37.6639 52.8659 37.4996C52.9362 37.3336 52.9713 37.1581 52.9713 36.9731C52.9713 36.7865 52.9362 36.6118 52.8659 36.4491C52.7975 36.2865 52.6973 36.1384 52.5654 36.0049C52.4371 35.8713 52.2898 35.7703 52.1238 35.7018C51.9594 35.6333 51.7839 35.599 51.5972 35.599C51.4158 35.599 51.242 35.6341 51.0759 35.7044C50.9116 35.7745 50.7626 35.8747 50.6291 36.0049C50.5005 36.1316 50.4022 36.2779 50.3336 36.444C50.2652 36.6101 50.2309 36.7865 50.2309 36.9731ZM57.9124 38.4935C57.7019 38.6047 57.4878 38.6888 57.2704 38.7452C57.0547 38.8017 56.8381 38.8299 56.6207 38.8299C56.4118 38.8299 56.2141 38.8034 56.0274 38.7503C55.8425 38.6956 55.6678 38.6151 55.5034 38.5089C55.3699 38.4216 55.251 38.3215 55.1464 38.2084C55.042 38.0954 54.9529 37.973 54.8794 37.8412C54.8075 37.7077 54.7526 37.5664 54.7149 37.4174C54.6773 37.2685 54.6585 37.1143 54.6585 36.9552C54.6585 36.8353 54.6704 36.7163 54.6945 36.5981C54.7201 36.4783 54.757 36.3636 54.8049 36.254C54.8528 36.1427 54.9119 36.0374 54.982 35.9381C55.0523 35.837 55.1319 35.7437 55.2209 35.6582C55.4127 35.4749 55.6268 35.3388 55.8629 35.2498C56.1009 35.1607 56.3656 35.1162 56.6566 35.1162C56.7798 35.1162 56.8972 35.124 57.0085 35.1394C57.1215 35.1548 57.2285 35.1761 57.3294 35.2036C57.4305 35.2292 57.5272 35.2601 57.6197 35.296C57.7121 35.3303 57.7995 35.3662 57.8816 35.4039V35.9611C57.6626 35.8431 57.4528 35.7532 57.2524 35.6916C57.0538 35.6298 56.8551 35.599 56.6566 35.599C56.4426 35.599 56.2465 35.635 56.0685 35.707C55.8904 35.7771 55.7372 35.8747 55.6088 35.9997C55.4821 36.123 55.3827 36.2685 55.3109 36.4363C55.2406 36.6024 55.2055 36.7814 55.2055 36.9731C55.2055 37.1649 55.2406 37.3438 55.3109 37.5098C55.381 37.676 55.4786 37.8207 55.6036 37.9438C55.7303 38.0672 55.8802 38.1638 56.0531 38.2341C56.2278 38.3043 56.4187 38.3395 56.6258 38.3395C57.0436 38.3395 57.4724 38.1972 57.9124 37.913V38.4935ZM59.3993 35.1728L60.5653 37.1041L61.6132 35.1728H62.1448L60.1725 38.7657H59.6408L60.2828 37.6075L58.7779 35.1728H59.3993ZM65.7914 35.1728V38.3035H66.2665V39.6081H65.8196V38.7657H62.9098V39.6081H62.463V38.3035H62.6941C62.8293 38.1494 62.9466 37.9756 63.0458 37.7821C63.1469 37.5869 63.2283 37.3857 63.2899 37.1785C63.319 37.0793 63.343 36.9757 63.3619 36.8678C63.3823 36.76 63.3977 36.6443 63.4081 36.5211C63.42 36.3961 63.4287 36.2609 63.4337 36.1153C63.4389 35.9698 63.4415 35.8097 63.4415 35.635V35.1728H65.7914ZM65.2828 38.3035V35.635H63.9139V35.7404C63.9139 35.8122 63.9123 35.9047 63.9089 36.0177C63.9054 36.129 63.8978 36.2514 63.8857 36.385C63.8755 36.5168 63.8592 36.6554 63.8369 36.801C63.8164 36.9448 63.7882 37.0861 63.7522 37.2249C63.7266 37.3172 63.6948 37.4141 63.6572 37.515C63.6195 37.6144 63.5784 37.7127 63.5339 37.8103C63.4893 37.9062 63.4422 37.9971 63.3927 38.0826C63.3447 38.1683 63.2975 38.2417 63.2513 38.3035H65.2828ZM68.5656 35.1728H68.9406L70.5175 38.7657H69.9859L69.5236 37.7077H67.9929L67.5357 38.7657H67.0093L68.5656 35.1728ZM69.3129 37.2453L68.7453 35.9509L68.1933 37.2453H69.3129ZM71.5498 35.1728H72.6696C72.8597 35.1728 73.0283 35.1967 73.1756 35.2447C73.3245 35.2909 73.4495 35.3585 73.5505 35.4475C73.6532 35.5365 73.7311 35.6445 73.7842 35.7712C73.8372 35.8979 73.8638 36.0409 73.8638 36.2C73.8638 36.3594 73.8372 36.5022 73.7842 36.6289C73.7311 36.7556 73.6532 36.8635 73.5505 36.9526C73.4495 37.0399 73.3245 37.1075 73.1756 37.1555C73.0283 37.2017 72.8597 37.2249 72.6696 37.2249H72.0584V38.7657H71.5498V35.1728ZM72.6156 36.7624C72.8588 36.7624 73.0378 36.7198 73.1524 36.6341C73.2689 36.5467 73.3271 36.402 73.3271 36.2C73.3271 35.998 73.2689 35.8533 73.1524 35.766C73.0378 35.6786 72.8588 35.635 72.6156 35.635H72.0584V36.7624H72.6156ZM78.2221 38.4935C78.0114 38.6047 77.7975 38.6888 77.5799 38.7452C77.3642 38.8017 77.1477 38.8299 76.9302 38.8299C76.7213 38.8299 76.5236 38.8034 76.3369 38.7503C76.152 38.6956 75.9774 38.6151 75.8129 38.5089C75.6795 38.4216 75.5605 38.3215 75.456 38.2084C75.3516 38.0954 75.2626 37.973 75.1889 37.8412C75.117 37.7077 75.0622 37.5664 75.0246 37.4174C74.9869 37.2685 74.968 37.1143 74.968 36.9552C74.968 36.8353 74.9801 36.7163 75.004 36.5981C75.0298 36.4783 75.0665 36.3636 75.1144 36.254C75.1624 36.1427 75.2214 36.0374 75.2917 35.9381C75.3618 35.837 75.4414 35.7437 75.5304 35.6582C75.7222 35.4749 75.9363 35.3388 76.1726 35.2498C76.4106 35.1607 76.6751 35.1162 76.9661 35.1162C77.0895 35.1162 77.2067 35.124 77.318 35.1394C77.431 35.1548 77.538 35.1761 77.6391 35.2036C77.74 35.2292 77.8368 35.2601 77.9292 35.296C78.0218 35.3303 78.1091 35.3662 78.1913 35.4039V35.9611C77.972 35.8431 77.7623 35.7532 77.5619 35.6916C77.3634 35.6298 77.1648 35.599 76.9661 35.599C76.7521 35.599 76.5562 35.635 76.3781 35.707C76.2 35.7771 76.0467 35.8747 75.9183 35.9997C75.7916 36.123 75.6923 36.2685 75.6204 36.4363C75.5503 36.6024 75.515 36.7814 75.515 36.9731C75.515 37.1649 75.5503 37.3438 75.6204 37.5098C75.6907 37.676 75.7882 37.8207 75.9131 37.9438C76.04 38.0672 76.1897 38.1638 76.3626 38.2341C76.5373 38.3043 76.7281 38.3395 76.9353 38.3395C77.3531 38.3395 77.7821 38.1972 78.2221 37.913V38.4935ZM80.5487 35.635H79.2288V35.1728H82.3799V35.635H81.0599V38.7657H80.5487V35.635ZM84.4216 36.7137C84.6835 36.7137 84.8779 36.6675 85.0046 36.5751C85.1313 36.4825 85.1947 36.3379 85.1947 36.141C85.1947 35.9595 85.1434 35.8302 85.0406 35.7532C84.9378 35.6744 84.7794 35.635 84.5654 35.635H84.0749V36.7137H84.4216ZM83.5663 35.1728H84.6168C84.7983 35.1728 84.9584 35.1941 85.097 35.237C85.2374 35.2781 85.3548 35.3388 85.4489 35.4193C85.5431 35.4998 85.6141 35.5983 85.662 35.7146C85.7117 35.8311 85.7366 35.963 85.7366 36.1102C85.7366 36.2968 85.693 36.4517 85.6056 36.5751C85.5199 36.6966 85.3864 36.7908 85.2049 36.8576C85.4704 36.9209 85.6731 37.0338 85.8136 37.1965C85.9556 37.3575 86.0268 37.5543 86.0268 37.7873C86.0268 37.9327 85.9994 38.0655 85.9445 38.1853C85.8898 38.3052 85.8102 38.4087 85.7058 38.496C85.6013 38.5817 85.4737 38.6485 85.3231 38.6964C85.1725 38.7426 85.002 38.7657 84.8119 38.7657H83.5663V35.1728ZM84.0749 38.2983H84.7581C85.0011 38.2983 85.1818 38.2555 85.2999 38.1699C85.4198 38.0843 85.4797 37.9448 85.4797 37.7513C85.4797 37.551 85.4129 37.4063 85.2793 37.3172C85.1476 37.2282 84.9464 37.1837 84.6759 37.1837H84.0749V38.2983ZM87.375 35.1728H89.5349V35.635H87.8835V36.7188H89.4887V37.1837H87.8835V38.3035H89.5889V38.7657H87.375V35.1728ZM90.9986 35.1728H91.5072V36.7188H93.5798V35.1728H94.0909V38.7657H93.5798V37.2043H91.5072V38.7657H90.9986V35.1728ZM95.6241 35.1728H96.1325V36.7188H98.2052V35.1728H98.7162V38.7657H98.2052V37.2043H96.1325V38.7657H95.6241V35.1728ZM101.305 35.1728H101.68L103.257 38.7657H102.725L102.263 37.7077H100.732L100.275 38.7657H99.7485L101.305 35.1728ZM102.052 37.2453L101.485 35.9509L100.932 37.2453H102.052ZM106.859 38.7657H106.351V37.2403H106.13C106.058 37.2403 105.989 37.2505 105.924 37.271C105.859 37.2916 105.791 37.3317 105.719 37.3918C105.674 37.4311 105.634 37.4721 105.598 37.515C105.564 37.5578 105.531 37.6033 105.5 37.6511C105.47 37.6973 105.44 37.7461 105.41 37.7975C105.383 37.8472 105.354 37.8986 105.323 37.9516L104.84 38.7657H104.219L104.971 37.5869C105.007 37.5304 105.041 37.4799 105.072 37.4354C105.102 37.3909 105.133 37.3506 105.164 37.3147C105.197 37.2787 105.231 37.2462 105.267 37.2171C105.304 37.188 105.346 37.1605 105.393 37.1349C105.3 37.1247 105.21 37.1024 105.123 37.0681C105.036 37.0321 104.959 36.9876 104.892 36.9346C104.804 36.8661 104.733 36.7771 104.679 36.6675C104.625 36.5579 104.599 36.4226 104.599 36.2616C104.599 36.1008 104.625 35.95 104.679 35.8097C104.733 35.6693 104.814 35.5503 104.92 35.4527C104.985 35.3911 105.054 35.3423 105.126 35.3063C105.197 35.2687 105.27 35.2403 105.344 35.2216C105.417 35.201 105.49 35.1882 105.562 35.183C105.636 35.1761 105.707 35.1728 105.775 35.1728H106.859V38.7657ZM106.351 35.6144H105.775C105.736 35.6144 105.696 35.6163 105.655 35.6196C105.613 35.6213 105.572 35.6274 105.531 35.6376C105.49 35.6478 105.45 35.6632 105.41 35.6838C105.371 35.7027 105.333 35.7292 105.297 35.7634C105.262 35.7977 105.233 35.8354 105.213 35.8765C105.192 35.9175 105.176 35.9595 105.164 36.0023C105.152 36.0435 105.144 36.0845 105.141 36.1256C105.137 36.165 105.136 36.2 105.136 36.2308C105.136 36.2566 105.137 36.2865 105.138 36.3208C105.142 36.3533 105.147 36.3876 105.154 36.4235C105.162 36.4577 105.174 36.492 105.19 36.5263C105.207 36.5604 105.229 36.5931 105.256 36.6239C105.301 36.6717 105.362 36.7129 105.439 36.7471C105.517 36.7814 105.607 36.7984 105.709 36.7984H106.351V35.6144ZM110.989 35.1728V36.7188H111.235C111.316 36.7188 111.395 36.7077 111.474 36.6855C111.555 36.6615 111.622 36.617 111.677 36.5519C111.706 36.5194 111.742 36.4697 111.785 36.403C111.828 36.3362 111.876 36.2438 111.931 36.1256L112.093 35.7788C112.129 35.7035 112.167 35.6274 112.209 35.5503C112.251 35.4716 112.302 35.4005 112.36 35.3371C112.418 35.272 112.488 35.219 112.568 35.178C112.649 35.1368 112.746 35.1162 112.861 35.1162C112.905 35.1162 112.956 35.1223 113.012 35.1342C113.069 35.1446 113.122 35.1574 113.172 35.1728V35.6144C113.129 35.6007 113.088 35.5914 113.048 35.5862C113.009 35.5811 112.968 35.5785 112.925 35.5785C112.858 35.5785 112.803 35.5896 112.758 35.6119C112.715 35.6324 112.678 35.6599 112.648 35.6942C112.619 35.7267 112.594 35.7643 112.573 35.8071C112.553 35.8482 112.533 35.8893 112.514 35.9303L112.34 36.3156C112.297 36.4115 112.255 36.4937 112.214 36.5621C112.174 36.6289 112.133 36.6864 112.09 36.7342C112.049 36.7804 112.006 36.819 111.962 36.8498C111.917 36.8789 111.869 36.9038 111.816 36.9244C111.845 36.9312 111.881 36.9424 111.923 36.9577C111.966 36.9731 112.012 36.9962 112.062 37.027C112.112 37.0579 112.162 37.0989 112.214 37.1503C112.267 37.2 112.318 37.2633 112.368 37.3404L113.277 38.7657H112.678L111.936 37.5766C111.897 37.5133 111.856 37.4586 111.813 37.4122C111.77 37.366 111.721 37.325 111.667 37.289C111.608 37.2496 111.542 37.2223 111.469 37.2069C111.395 37.1915 111.317 37.1837 111.235 37.1837H110.989V38.7657H110.48V35.1728H110.989ZM114.309 36.9552C114.309 36.712 114.358 36.4792 114.456 36.2566C114.553 36.0323 114.692 35.8328 114.872 35.6582C115.057 35.4801 115.264 35.3457 115.493 35.2549C115.724 35.1624 115.967 35.1162 116.223 35.1162C116.483 35.1162 116.728 35.1624 116.96 35.2549C117.193 35.3457 117.4 35.4801 117.581 35.6582C117.956 36.0229 118.144 36.4662 118.144 36.9885C118.144 37.2317 118.096 37.4653 118 37.6897C117.906 37.9123 117.768 38.1117 117.586 38.2881C117.398 38.4678 117.189 38.6031 116.96 38.6938C116.73 38.7846 116.485 38.8299 116.223 38.8299C115.967 38.8299 115.723 38.7837 115.491 38.6912C115.258 38.5971 115.051 38.4627 114.872 38.2881C114.687 38.1065 114.546 37.9036 114.45 37.6793C114.356 37.4534 114.309 37.2119 114.309 36.9552ZM114.856 36.9731C114.856 37.1581 114.891 37.3336 114.959 37.4996C115.027 37.6639 115.126 37.8103 115.254 37.9388C115.383 38.0689 115.531 38.169 115.699 38.2393C115.866 38.3094 116.041 38.3445 116.223 38.3445C116.411 38.3445 116.587 38.3104 116.752 38.2417C116.916 38.1733 117.064 38.0724 117.196 37.9388C117.324 37.8103 117.423 37.6639 117.491 37.4996C117.561 37.3336 117.597 37.1581 117.597 36.9731C117.597 36.7865 117.561 36.6118 117.491 36.4491C117.423 36.2865 117.323 36.1384 117.191 36.0049C117.062 35.8713 116.915 35.7703 116.749 35.7018C116.585 35.6333 116.409 35.599 116.223 35.599C116.041 35.599 115.867 35.6341 115.701 35.7044C115.537 35.7745 115.388 35.8747 115.254 36.0049C115.126 36.1316 115.027 36.2779 114.959 36.444C114.891 36.6101 114.856 36.7865 114.856 36.9731ZM119.479 35.1728H120.599C120.789 35.1728 120.957 35.1967 121.105 35.2447C121.254 35.2909 121.379 35.3585 121.48 35.4475C121.582 35.5365 121.66 35.6445 121.713 35.7712C121.766 35.8979 121.793 36.0409 121.793 36.2C121.793 36.3594 121.766 36.5022 121.713 36.6289C121.66 36.7556 121.582 36.8635 121.48 36.9526C121.379 37.0399 121.254 37.1075 121.105 37.1555C120.957 37.2017 120.789 37.2249 120.599 37.2249H119.988V38.7657H119.479V35.1728ZM120.545 36.7624C120.788 36.7624 120.967 36.7198 121.082 36.6341C121.198 36.5467 121.256 36.402 121.256 36.2C121.256 35.998 121.198 35.8533 121.082 35.766C120.967 35.6786 120.788 35.635 120.545 35.635H119.988V36.7624H120.545ZM126.141 35.1728V38.7657H125.632V35.635H123.601V38.7657H123.093V35.1728H126.141ZM127.666 36.9552C127.666 36.712 127.714 36.4792 127.812 36.2566C127.91 36.0323 128.048 35.8328 128.228 35.6582C128.413 35.4801 128.62 35.3457 128.85 35.2549C129.081 35.1624 129.324 35.1162 129.579 35.1162C129.839 35.1162 130.085 35.1624 130.316 35.2549C130.549 35.3457 130.756 35.4801 130.938 35.6582C131.313 36.0229 131.5 36.4662 131.5 36.9885C131.5 37.2317 131.452 37.4653 131.356 37.6897C131.262 37.9123 131.124 38.1117 130.943 38.2881C130.754 38.4678 130.546 38.6031 130.316 38.6938C130.087 38.7846 129.841 38.8299 129.579 38.8299C129.324 38.8299 129.08 38.7837 128.847 38.6912C128.614 38.5971 128.408 38.4627 128.228 38.2881C128.043 38.1065 127.903 37.9036 127.807 37.6793C127.713 37.4534 127.666 37.2119 127.666 36.9552ZM128.213 36.9731C128.213 37.1581 128.247 37.3336 128.315 37.4996C128.384 37.6639 128.482 37.8103 128.611 37.9388C128.739 38.0689 128.887 38.169 129.055 38.2393C129.223 38.3094 129.398 38.3445 129.579 38.3445C129.767 38.3445 129.944 38.3104 130.108 38.2417C130.272 38.1733 130.421 38.0724 130.552 37.9388C130.681 37.8103 130.779 37.6639 130.848 37.4996C130.918 37.3336 130.953 37.1581 130.953 36.9731C130.953 36.7865 130.918 36.6118 130.848 36.4491C130.779 36.2865 130.679 36.1384 130.547 36.0049C130.419 35.8713 130.272 35.7703 130.105 35.7018C129.941 35.6333 129.766 35.599 129.579 35.599C129.398 35.599 129.224 35.6341 129.058 35.7044C128.893 35.7745 128.744 35.8747 128.611 36.0049C128.482 36.1316 128.384 36.2779 128.315 36.444C128.247 36.6101 128.213 36.7865 128.213 36.9731ZM132.835 35.1728H133.955C134.145 35.1728 134.314 35.1967 134.461 35.2447C134.61 35.2909 134.735 35.3585 134.836 35.4475C134.939 35.5365 135.017 35.6445 135.07 35.7712C135.123 35.8979 135.149 36.0409 135.149 36.2C135.149 36.3594 135.123 36.5022 135.07 36.6289C135.017 36.7556 134.939 36.8635 134.836 36.9526C134.735 37.0399 134.61 37.1075 134.461 37.1555C134.314 37.2017 134.145 37.2249 133.955 37.2249H133.344V38.7657H132.835V35.1728ZM133.901 36.7624C134.144 36.7624 134.323 36.7198 134.438 36.6341C134.554 36.5467 134.613 36.402 134.613 36.2C134.613 35.998 134.554 35.8533 134.438 35.766C134.323 35.6786 134.144 35.635 133.901 35.635H133.344V36.7624H133.901ZM137.504 35.1728H137.879L139.456 38.7657H138.925L138.462 37.7077H136.932L136.474 38.7657H135.948L137.504 35.1728ZM138.252 37.2453L137.684 35.9509L137.132 37.2453H138.252ZM141.181 35.1728V38.3035H143.179V35.1728H143.69V38.3035H144.163V39.6081H143.716V38.7657H140.673V35.1728H141.181ZM145.968 35.1728V37.967L148.156 35.1728H148.603V38.7657H148.094V35.9945L145.906 38.7657H145.459V35.1728H145.968ZM152.706 38.7657H152.197V37.2403H151.976C151.904 37.2403 151.836 37.2505 151.771 37.271C151.706 37.2916 151.637 37.3317 151.565 37.3918C151.521 37.4311 151.481 37.4721 151.445 37.515C151.41 37.5578 151.378 37.6033 151.347 37.6511C151.316 37.6973 151.286 37.7461 151.257 37.7975C151.23 37.8472 151.201 37.8986 151.17 37.9516L150.687 38.7657H150.065L150.818 37.5869C150.854 37.5304 150.887 37.4799 150.918 37.4354C150.949 37.3909 150.98 37.3506 151.011 37.3147C151.043 37.2787 151.077 37.2462 151.113 37.2171C151.151 37.188 151.193 37.1605 151.239 37.1349C151.147 37.1247 151.057 37.1024 150.97 37.0681C150.882 37.0321 150.805 36.9876 150.738 36.9346C150.651 36.8661 150.58 36.7771 150.525 36.6675C150.472 36.5579 150.446 36.4226 150.446 36.2616C150.446 36.1008 150.472 35.95 150.525 35.8097C150.58 35.6693 150.661 35.5503 150.767 35.4527C150.832 35.3911 150.9 35.3423 150.972 35.3063C151.044 35.2687 151.117 35.2403 151.19 35.2216C151.264 35.201 151.337 35.1882 151.409 35.183C151.482 35.1761 151.553 35.1728 151.622 35.1728H152.706V38.7657ZM152.197 35.6144H151.622C151.583 35.6144 151.542 35.6163 151.501 35.6196C151.46 35.6213 151.419 35.6274 151.378 35.6376C151.337 35.6478 151.297 35.6632 151.257 35.6838C151.218 35.7027 151.18 35.7292 151.144 35.7634C151.108 35.7977 151.08 35.8354 151.06 35.8765C151.039 35.9175 151.023 35.9595 151.011 36.0023C150.999 36.0435 150.991 36.0845 150.988 36.1256C150.984 36.165 150.982 36.2 150.982 36.2308C150.982 36.2566 150.983 36.2865 150.985 36.3208C150.988 36.3533 150.993 36.3876 151 36.4235C151.009 36.4577 151.021 36.492 151.036 36.5263C151.053 36.5604 151.076 36.5931 151.103 36.6239C151.148 36.6717 151.208 36.7129 151.285 36.7471C151.364 36.7814 151.454 36.7984 151.555 36.7984H152.197V35.6144Z" fill="white"/>
<path fill-rule="evenodd" clip-rule="evenodd" d="M15.5692 24.3294V29.5338L17.6481 31.604C18.7916 32.7425 19.7271 33.7787 19.7271 33.9063C19.7271 34.0339 18.6636 35.206 17.3636 36.511L15 38.8839H20.0817H25.1634L27.6983 36.3398L30.2331 33.796L22.901 26.4605L15.5692 19.1251V24.3294ZM145.851 20.5108V21.3197H148.161H150.471V20.5108V19.702H148.161H145.851V20.5108ZM23.0782 27.3338L29.5445 33.8101L27.1784 36.1158L24.812 38.4216H20.8066C18.6035 38.4216 16.7285 38.349 16.6396 38.26C16.5509 38.1713 17.4412 37.1313 18.6181 35.949L20.7576 33.7992L18.51 31.5419L16.2622 29.2845V25.071C16.2622 22.7535 16.3409 20.8575 16.437 20.8575C16.5331 20.8575 19.5215 23.7718 23.0782 27.3338ZM135.938 21.5857C133.556 22.0179 131.902 24.0352 131.909 26.4984C131.915 28.748 132.775 30.1041 134.768 31.0083C136.713 31.8914 139.128 31.5692 140.709 30.2157C141.955 29.1485 142.475 27.7893 142.342 25.9485C142.119 22.8603 139.341 20.9682 135.938 21.5857ZM48.9798 21.8894C47.8802 22.2816 46.86 23.2263 46.2462 24.4207C45.5646 25.7468 45.7323 27.8693 46.6194 29.1505C48.094 31.279 51.6982 31.9835 54.2037 30.6328C57.4511 28.8822 57.7346 24.5721 54.7372 22.5173C53.2838 21.521 50.7788 21.2478 48.9798 21.8894ZM59.4585 24.7713C59.4585 28.813 59.1944 29.6272 57.881 29.6361C57.3953 29.6393 57.3585 29.7128 57.5035 30.3906C57.5921 30.8036 57.7089 31.1896 57.7632 31.2483C58.0133 31.518 59.8437 31.2328 60.3711 30.8416C61.2494 30.1906 61.51 29.1226 61.5246 26.1152L61.5374 23.3997H63.5009H65.4644V27.3285V31.2573H66.5039H67.5433V26.4041V21.5508H63.5009H59.4585V24.7713ZM70.0843 26.4041V31.2573L71.066 31.2532C72.0455 31.2492 72.0538 31.2418 74.7042 28.0304C76.1652 26.2601 77.4445 24.8952 77.5474 24.9971C77.6499 25.0992 77.7019 26.5497 77.6628 28.2203L77.5916 31.2582L78.6889 31.2578L79.7861 31.2573V26.4041V21.5508H78.7689H77.7513L75.1307 24.6837L72.5098 27.8164L72.4456 24.6837L72.3814 21.5508H71.2328H70.0843V26.4041ZM82.3271 26.4041V31.2573H83.4754H84.6237L84.6881 28.2192L84.7526 25.181L86.0232 26.7142C86.7219 27.5575 87.3599 28.2487 87.4412 28.2501C87.5223 28.2518 88.146 27.5832 88.8272 26.7643C89.5082 25.9455 90.1433 25.2696 90.2388 25.2622C90.3342 25.2548 90.412 26.6005 90.412 28.253V31.2573H91.567H92.722V26.4041V21.5508H91.7045C90.7163 21.5508 90.6416 21.6044 89.1245 23.4031L87.5619 25.2557L87.0684 24.7919C86.7969 24.5367 86.061 23.7038 85.4327 22.9409C84.3643 21.6437 84.2271 21.5541 83.3088 21.5524L82.3271 21.5508V26.4041ZM95.0319 26.4041V31.2573H96.1869H97.3419V27.3285V23.3997H99.8829H102.424V27.3285V31.2573H103.579H104.734V26.4041V21.5508H99.8829H95.0319V26.4041ZM109.469 21.9821C105.859 23.6273 105.401 28.5487 108.658 30.7054C109.906 31.5311 112.42 31.7348 114.175 31.1517L115.36 30.7579V29.7365C115.36 29.1747 115.304 28.7151 115.235 28.7151C115.166 28.7151 114.674 28.938 114.14 29.2101C112.932 29.8268 111.142 29.8776 110.094 29.3252C107.816 28.1237 107.925 24.7852 110.282 23.5594C111.272 23.0449 112.831 23.1609 114.18 23.8492C114.691 24.1103 115.172 24.3241 115.248 24.3241C115.323 24.3241 115.353 23.8388 115.315 23.2458C115.249 22.2464 115.185 22.1461 114.436 21.8767C113.192 21.4295 110.559 21.4854 109.469 21.9821ZM115.866 22.4175L115.937 23.2841L117.491 23.3523L119.045 23.4205L119.108 27.3967L119.171 31.5235L120.032 31.5157H120.893L120.956 27.5154L121.019 23.5152L122.52 23.3997L124.022 23.2841L124.094 22.4175L124.165 21.5508H119.98H115.794L115.866 22.4175ZM124.934 21.8462C124.871 22.0086 124.849 24.2187 124.883 26.7572L124.946 31.3729H125.87H126.794L126.861 29.3507L126.928 27.3285H127.981C130.039 27.3285 131.298 26.2321 131.298 24.4397C131.298 23.2642 130.709 22.2638 129.789 21.8792C128.763 21.4503 125.095 21.4253 124.934 21.8462ZM143.541 26.5196V31.4884H144.218H144.251C144.39 31.4886 144.504 31.4886 144.614 31.4682C145.11 31.3759 145.528 30.8664 147.828 28.0644L147.948 27.9176C149.249 26.3327 150.401 25.0898 150.508 25.1558C150.615 25.2217 150.702 26.68 150.702 28.396V31.5163L151.568 31.4445L152.435 31.3729L152.497 26.4618L152.559 21.5508H151.777C151.054 21.5508 150.8 21.7868 148.418 24.6708C147 26.3867 145.739 27.7907 145.615 27.7907C145.479 27.7907 145.389 26.5453 145.389 24.6708V21.5508H144.465H143.541V26.5196ZM114.287 22.2314C114.684 22.3823 114.898 22.6363 114.898 22.9564C114.898 23.3382 114.807 23.4098 114.493 23.2746C111.886 22.1485 109.313 22.8515 108.388 24.9421C107.612 26.6987 108.057 28.3021 109.654 29.4946C110.498 30.1253 112.656 30.2723 113.836 29.7791C114.967 29.3065 115.129 29.3135 115.129 29.8335C115.129 30.4103 114.149 30.8245 112.448 30.9663C110.123 31.1605 108.436 30.3081 107.496 28.4641C106.588 26.6837 107.175 23.9957 108.712 22.9012C110.252 21.8041 112.465 21.5383 114.287 22.2314ZM138.805 22.041C140.048 22.3863 141.57 23.9338 141.911 25.1981C142.372 26.912 141.841 28.5936 140.454 29.812C139.369 30.765 138.209 31.1126 136.649 30.9515C134.249 30.7037 132.453 28.7572 132.453 26.4041C132.453 23.2497 135.535 21.1327 138.805 22.041ZM120.68 22.9096H123.702V21.8424H116.384V22.9096H119.586V30.9899H120.653V24.6582L120.68 22.9096ZM130.118 22.6047C130.518 22.9414 130.88 23.5152 130.959 23.9361C131.287 25.6849 130.009 26.864 127.785 26.8654L126.465 26.8663L126.447 27.4399V30.9899H125.379V21.9949H126.447V22.013H127.464C129.22 22.013 129.485 22.0722 130.118 22.6047ZM145.21 25.6474L145.274 29.2818L148.253 25.6474C148.695 25.1081 149.104 24.5936 149.474 24.1279V24.1278L149.474 24.1277L149.475 24.1275C150.19 23.2272 150.761 22.5093 151.145 22.1473H152.059V30.9899H151.145V26.541L151.049 23.4283L148.572 26.4762C147.661 27.5972 146.971 28.4654 146.442 29.132C145.679 30.0927 145.248 30.6351 144.965 30.9137C144.94 30.9378 144.916 30.9547 144.894 30.9654V30.9899H143.979V21.9949H144.894V22.013H145.146L145.21 25.6474ZM126.447 24.3241V25.9418H127.798C129.345 25.9418 129.915 25.5314 129.909 24.4214C129.903 23.2245 129.175 22.7064 127.502 22.7064H126.447V24.3241ZM135.56 23.0315C133.209 24.0562 132.708 27.4424 134.655 29.1528C135.626 30.0053 136.272 30.193 137.749 30.0512C139.746 29.8593 141 28.4371 141 26.3655C141 23.6537 138.146 21.9044 135.56 23.0315ZM138.602 23.5437C140.253 24.3273 140.885 26.1307 140.118 27.8663C139.571 29.102 138.576 29.7181 137.161 29.6966C135.288 29.6682 134.106 28.6109 133.9 26.7801C133.607 24.1801 136.193 22.4001 138.602 23.5437ZM52.9982 23.7503C53.877 24.2048 54.4519 25.341 54.4329 26.5862C54.4063 28.3556 53.266 29.453 51.4311 29.4752C49.3697 29.4999 48.1397 28.3486 48.1397 26.3934C48.1397 24.561 49.3617 23.4154 51.3275 23.405C51.8736 23.402 52.6253 23.5575 52.9982 23.7503ZM129.326 24.175C129.524 24.7422 129.481 24.8961 129.016 25.2728C128.719 25.5136 128.123 25.7107 127.692 25.7107H126.909V24.5425V23.3743L128.002 23.4447C128.969 23.5071 129.122 23.5915 129.326 24.175ZM29.2522 24.6162C27.6979 26.1753 26.426 27.5342 26.426 27.6361C26.426 27.738 28.8949 30.255 31.9121 33.229L37.3983 38.6367L39.766 38.6446L42.1338 38.6527V35.3631V32.0733L39.539 29.4699L36.944 26.8665L39.4774 24.3241L42.0105 21.7819H37.0445H32.0785L29.2522 24.6162ZM150.077 20.9277V20.0129H146.419V20.9277H150.077Z" fill="white"/>
<path d="M29.7287 13.7511C29.3593 14.1641 28.1501 15.3816 27.0418 16.4562L25.0263 18.4102L22.3763 15.7668L19.7266 13.1232V17.1675V21.2119L22.3752 23.8544C23.8321 25.3076 25.0728 26.4499 25.1323 26.3926C25.1922 26.3355 28.2459 23.2988 31.9188 19.6443C35.5916 15.9898 38.5969 13 38.5969 13H34.4985H30.4003L29.7287 13.7511Z" fill="white"/>
</svg>
