<svg width="169" height="53" viewBox="0 0 169 53" fill="none" xmlns="http://www.w3.org/2000/svg">
<path fill-rule="evenodd" clip-rule="evenodd" d="M20.2318 13.1846C14.9378 14.3712 10.808 18.268 9.37184 23.4326C8.87915 25.2042 8.87545 28.7106 9.36444 30.4789C10.8129 35.7174 15.0726 39.6967 20.3705 40.7608C21.961 41.0802 24.6711 41.0797 26.2569 40.7595C31.6008 39.6806 35.7926 35.781 37.256 30.5265C37.5452 29.4889 37.6069 28.8464 37.605 26.9007C37.6028 24.787 37.5564 24.3863 37.1672 23.125C35.7394 18.4981 32.4005 15.1027 27.7737 13.5719C26.3135 13.0889 26.0445 13.0515 23.7159 13.0087C21.9938 12.977 20.9154 13.0314 20.2318 13.1846ZM30.2783 21.5802C31.4632 23.0542 32.1409 25.0188 32.1409 26.9796C32.1409 31.5793 28.5586 35.3172 23.8791 35.6006C17.4834 35.9878 12.7929 29.7926 15.0356 23.9197C15.527 22.6328 16.5835 21.1467 17.007 21.1467C17.3775 21.1467 19.2107 22.81 19.2107 23.1463C19.2107 23.2544 19.0033 23.6634 18.7497 24.0551C18.1046 25.0516 17.8771 25.9809 17.949 27.3243C18.0559 29.3174 19.0948 30.8499 20.9437 31.7417C21.8895 32.1979 22.1759 32.2606 23.3103 32.2605C24.8033 32.2603 25.9573 31.8301 27.0437 30.8683C28.2918 29.7635 28.9634 27.8715 28.6886 26.2344C28.6191 25.8206 28.5578 25.4069 28.5527 25.315C28.5473 25.2232 28.2896 24.7358 27.9798 24.2318C27.6701 23.7278 27.4167 23.2021 27.4167 23.0634C27.4167 22.7249 29.1852 20.9891 29.5301 20.9891C29.6803 20.9891 30.017 21.2552 30.2783 21.5802ZM47.9047 21.9022C46.6139 22.3536 45.1356 23.553 45.1217 24.1599C45.1153 24.4407 46.1985 25.2455 46.5829 25.2455C46.7164 25.2455 47.0384 25.024 47.2982 24.7531C47.9425 24.0819 48.6266 23.8267 49.7821 23.8267C50.9943 23.8267 51.6497 24.0868 52.3189 24.8334C53.2267 25.8464 53.1683 25.876 50.2648 25.876H47.6904V26.9007V27.9254H50.3452C52.0917 27.9254 53.0001 27.982 53.0001 28.0909C53.0001 28.4338 52.5139 29.1569 51.9668 29.6275C50.6481 30.7619 48.5076 30.6667 47.1994 29.4152C46.5216 28.7666 46.3214 28.7748 45.4469 29.4866C44.9027 29.9295 44.8977 29.9445 45.164 30.3426C45.5922 30.9829 46.257 31.5394 47.1272 31.986C48.2696 32.5724 50.5829 32.6767 51.8738 32.1998C54.1631 31.3542 55.5578 29.1487 55.3762 26.6613C55.2294 24.6521 54.1758 23.0771 52.4078 22.2244C51.0632 21.5758 49.2157 21.4436 47.9047 21.9022ZM72.0371 21.9022C70.2617 22.5252 69.0493 23.7226 68.517 25.3787C68.1627 26.4812 68.2607 28.3454 68.7269 29.372C69.196 30.4048 70.2522 31.4677 71.3201 31.9816C72.1589 32.385 72.3747 32.4183 74.1588 32.4183C76.2037 32.4183 76.8749 32.2411 78.2204 31.3465C78.8537 30.9254 78.8683 30.7187 78.3203 29.9439C77.9213 29.3797 77.4249 29.1706 77.2275 29.4836C77.0276 29.8003 75.5932 30.3104 74.6678 30.394C73.417 30.507 72.4672 30.2593 71.7349 29.6294C71.2421 29.2055 70.6994 28.4404 70.6994 28.1698C70.6994 28.122 72.6632 28.0831 75.0633 28.0831H79.4275L79.3543 26.7037C79.2373 24.5023 78.2471 22.9557 76.4114 22.1074C75.2905 21.5895 73.2067 21.4917 72.0371 21.9022ZM84.9134 21.8367C84.5453 21.9545 84.0272 22.2022 83.7622 22.3871C83.1755 22.7965 83.0888 22.8031 83.0888 22.4394C83.0888 21.9728 82.7467 21.7773 81.9303 21.7773H81.158V28.6348V35.4923H82.2843H83.4106V33.6006C83.4106 32.5602 83.4426 31.7089 83.4819 31.7089C83.521 31.7089 83.8259 31.8665 84.1595 32.0593C85.0694 32.5854 87.4877 32.6549 88.744 32.1913C89.946 31.7478 91.0091 30.8072 91.5674 29.6932C91.9751 28.8798 92.0189 28.6318 92.0189 27.1372C92.0189 25.6806 91.9684 25.3763 91.5973 24.6013C90.7141 22.756 89.095 21.7519 86.87 21.6698C86.089 21.6411 85.3196 21.7067 84.9134 21.8367ZM106.487 21.8977C104.043 22.7526 102.581 24.9559 102.756 27.5189C102.889 29.4634 104.055 31.1587 105.856 32.0284C106.563 32.3697 106.876 32.417 108.431 32.4176C110.057 32.4183 110.27 32.3826 111.051 31.9794C112.823 31.0647 113.905 29.4926 114.089 27.5655C114.302 25.3306 113.064 23.1851 110.979 22.175C109.751 21.5804 107.748 21.4567 106.487 21.8977ZM129.281 21.8602C128.179 22.1629 126.693 22.9879 126.693 23.297C126.693 23.6591 127.502 24.6149 127.808 24.6149C127.958 24.6149 128.391 24.4683 128.769 24.289C130.64 23.4036 133.274 23.6323 133.549 24.704C133.605 24.9231 133.619 25.1331 133.581 25.1704C133.543 25.208 132.519 25.3793 131.306 25.5513C128.218 25.9891 127.148 26.5019 126.515 27.8466C126.009 28.919 126.169 30.2814 126.916 31.2799C127.096 31.5208 127.627 31.9017 128.095 32.1263C128.87 32.4977 129.082 32.5285 130.435 32.4659C131.642 32.4102 132.08 32.3179 132.756 31.9772C133.214 31.7462 133.635 31.4849 133.691 31.3966C133.879 31.0983 134.059 31.2331 134.317 31.8665C134.598 32.5529 134.802 32.6186 135.72 32.318C136.505 32.0609 136.574 31.9553 136.343 31.3662C136.215 31.04 136.097 29.5901 136.031 27.5313C135.937 24.6111 135.885 24.1464 135.59 23.5902C135.187 22.8315 134.886 22.5573 133.934 22.0863C132.99 21.6189 130.585 21.5019 129.281 21.8602ZM57.0227 27.0584V32.3533L58.1892 32.307L59.3558 32.2606L59.4005 30.093L59.4452 27.9254H61.8542H64.2633V30.1324V32.3395H65.4721H66.6811L66.6387 27.0978L66.5964 21.8561H65.47H64.3437L64.2987 23.8661L64.2536 25.876H61.8497H59.4459L59.4008 23.8661L59.3558 21.8561L58.1892 21.8098L57.0227 21.7634V27.0584ZM93.8157 21.8825C93.7566 21.9401 93.7083 24.3166 93.7083 27.1635V32.3395H94.9151H96.1219V28.0865V23.8336L99.1388 23.7907L102.156 23.7479L102.207 23.1323C102.235 22.7938 102.216 22.3503 102.164 22.147L102.069 21.7773H97.9961C95.7558 21.7773 93.8746 21.8246 93.8157 21.8825ZM115.752 27.0584V32.3395H118.941C122.576 32.3395 123.228 32.2081 124.205 31.2787C124.953 30.5666 125.245 29.8906 125.245 28.8713C125.245 27.4654 124.546 26.352 123.234 25.6703C122.697 25.3916 122.215 25.3218 120.338 25.2513L118.085 25.1666V24.5361V23.9055L121.182 23.8626L124.28 23.8199V22.7985V21.7773H120.016H115.752V27.0584ZM138.117 27.0514V32.3395H139.324H140.531V30.1324V27.9254H142.944H145.358V30.1324V32.3395H146.567H147.776L147.733 27.0978L147.691 21.8561H146.565H145.438L145.393 23.8661L145.348 25.876H142.944H140.541L140.495 23.8661L140.45 21.8561L139.284 21.8098L138.117 21.7634V27.0514ZM149.816 21.876C149.753 21.9373 149.702 24.3166 149.702 27.1635V32.3395H150.909H152.116V30.4871V28.6348L152.673 28.1988L153.231 27.7627L155.104 30.0511L156.977 32.3395H158.488C159.32 32.3395 160 32.3011 160 32.2542C160 32.1813 156.326 27.9926 155.234 26.8205L154.865 26.4251L157.272 24.2353C158.595 23.0309 159.678 21.9852 159.678 21.9115C159.678 21.8377 159.02 21.7773 158.216 21.7773H156.754L154.475 23.9072L152.196 26.0372L152.116 23.9466L152.035 21.8561L150.983 21.8103C150.404 21.785 149.879 21.8147 149.816 21.876ZM74.7327 23.8437C75.683 24.0433 76.6881 24.8238 76.9527 25.5672L77.1187 26.0337H73.909C72.1438 26.0337 70.6994 25.9935 70.6994 25.9445C70.6994 25.7625 71.072 25.1551 71.4033 24.797C71.8009 24.3671 72.5076 23.9801 73.1933 23.8164C73.8783 23.6531 73.8209 23.652 74.7327 23.8437ZM109.41 23.9008C110.296 24.1585 111.224 24.9928 111.562 25.8351C111.9 26.6772 111.717 28.2415 111.19 29.0225C110.419 30.1636 108.729 30.7146 107.369 30.2683C105.912 29.7903 105.079 28.6203 105.075 27.0439C105.07 25.463 106.08 24.1754 107.604 23.8194C108.367 23.6411 108.546 23.6492 109.41 23.9008ZM87.9638 24.0397C88.6515 24.3212 89.4662 25.2489 89.6761 25.99C90.2856 28.1406 89.0584 30.0995 86.9217 30.3864C86.0048 30.5095 84.5786 30.1214 83.9041 29.5654L83.4106 29.1585V27.0524V24.9463L83.9384 24.5518C84.2286 24.3349 84.6449 24.0876 84.8636 24.0021C85.4521 23.772 87.3666 23.7951 87.9638 24.0397ZM133.259 29.301C132.354 30.2513 130.51 30.697 129.386 30.237C128.422 29.8422 128.263 28.893 129.048 28.2199C129.448 27.8769 129.821 27.7763 131.829 27.4695L133.532 27.2096L133.581 28.0607C133.621 28.7709 133.568 28.9761 133.259 29.301ZM122.523 27.8885C123.049 28.465 123.103 28.836 122.756 29.4926C122.427 30.1168 121.774 30.2901 119.751 30.2901H118.005V28.8976C118.005 28.1316 118.058 27.4522 118.124 27.3877C118.19 27.3231 119.101 27.2934 120.149 27.322L122.054 27.3737L122.523 27.8885Z" fill="white"/>
</svg>
