<svg width="169" height="53" viewBox="0 0 169 53" fill="none" xmlns="http://www.w3.org/2000/svg">
<path fill-rule="evenodd" clip-rule="evenodd" d="M37.5028 21.0725L21.259 33.7199C23.8511 38.6425 29.0353 42 34.9848 42C43.5511 42 50.488 35.0578 50.488 26.5C50.488 26.298 50.488 26.0708 50.4633 25.8689L37.5028 21.0725ZM105.984 28.5448L101.491 36.2443V28.5448H99.2442V40.2329H101.491L105.984 32.5586V40.2329H108.255V28.5448H105.984ZM116.895 28.5448L112.402 36.2443V28.5448H110.156V40.2329H112.402L116.895 32.5586V40.2329H119.166V28.5448H116.895ZM147.63 24.6319H150V12.9438H147.63V24.6319ZM143.705 17.1344H140.348V12.9438H138.027V24.6319H143.705C145.063 24.6319 146.025 23.6979 146.025 22.3347V19.4316C146.025 18.0684 145.087 17.1344 143.705 17.1344ZM143.68 21.8803C143.68 22.2337 143.483 22.4357 143.137 22.4357H140.372V19.3559H143.137C143.483 19.3559 143.68 19.5578 143.68 19.9112V21.8803ZM94.8747 28.3681H91.1717C89.8139 28.3681 88.8511 29.3021 88.8511 30.6653V37.8852C88.8511 39.2484 89.7892 40.1824 91.1717 40.1824H94.8747C96.2324 40.1824 97.1952 39.2484 97.1952 37.8852V35.9919H94.8253V37.4308C94.8253 37.7842 94.6278 37.9862 94.2822 37.9862H91.7395C91.3692 37.9862 91.1964 37.7842 91.1964 37.4308V31.1197C91.1964 30.7663 91.3939 30.5643 91.7395 30.5643H94.2822C94.6525 30.5643 94.8253 30.7663 94.8253 31.1197V32.5586H97.1705V30.6653C97.1705 29.3274 96.2324 28.3681 94.8747 28.3681ZM84.5803 28.3681H80.8773C79.5196 28.3681 78.5568 29.3021 78.5568 30.6653V37.8852C78.5568 39.2484 79.4949 40.1824 80.8773 40.1824H84.5803C85.9381 40.1824 86.9009 39.2484 86.9009 37.8852V35.9919H84.5556V37.4308C84.5556 37.7842 84.3581 37.9862 84.0125 37.9862H81.4698C81.1242 37.9862 80.9267 37.7842 80.9267 37.4308V31.1197C80.9267 30.7663 81.1242 30.5643 81.4698 30.5643H84.0125C84.3828 30.5643 84.5556 30.7663 84.5556 31.1197V32.5586H86.9009V30.6653C86.8762 29.3274 85.9381 28.3681 84.5803 28.3681ZM74.2366 28.3681H70.3114C68.9537 28.3681 67.9909 29.3021 67.9909 30.6653V37.8852C67.9909 39.2484 68.929 40.1824 70.3114 40.1824H74.2366C75.5944 40.1824 76.5572 39.2484 76.5572 37.8852V30.6653C76.5572 29.3274 75.5944 28.3681 74.2366 28.3681ZM74.2119 37.4308C74.2119 37.7842 74.0144 37.9862 73.6688 37.9862H70.9286C70.5583 37.9862 70.3855 37.7842 70.3855 37.4308V31.1197C70.3855 30.7663 70.583 30.5643 70.9286 30.5643H73.6688C74.0144 30.5643 74.2119 30.7663 74.2119 31.1197V37.4308ZM64.0904 28.4438H58.1162V40.1319H60.4615V36.0171H64.1151C65.4728 36.0171 66.4356 35.0831 66.4356 33.7199V30.7663C66.3862 29.3779 65.4482 28.4438 64.0904 28.4438ZM64.0657 33.2402C64.0657 33.5936 63.8682 33.7956 63.5226 33.7956H60.4615V30.6401H63.5226C63.8929 30.6401 64.0657 30.842 64.0657 31.1954V33.2402ZM111.118 21.3502C111.242 19.8355 111.563 15.9479 111.612 15.1401H114.673V24.6572H117.019V15.1401V14.9381V12.9691H109.464L109.267 15.1401C109.193 15.8974 108.897 19.2044 108.847 19.987C108.773 20.7191 108.65 21.5774 108.576 22.1075C108.526 22.3599 108.354 22.5366 108.107 22.5366H107.267V24.6572C107.267 24.6572 107.366 24.6572 107.983 24.6572C110.353 24.6319 110.97 22.991 111.118 21.3502ZM128.177 15.1401H131.238V24.6572H133.583V15.1401H136.645V12.9691H128.177V15.1401ZM119.018 24.6572H126.671V22.4609H121.339V19.785H125.684V17.5888H121.363V15.1906H126.696V12.9943H119.043V24.6572H119.018ZM103.688 24.7077C105.046 24.7077 106.008 23.7736 106.008 22.4104V15.1906C106.008 13.8274 105.07 12.8933 103.688 12.8933H99.7626C98.4049 12.8933 97.4421 13.8274 97.4421 15.1906V22.4104C97.4421 23.7736 98.3802 24.7077 99.7626 24.7077H103.688ZM99.812 15.645C99.812 15.2915 100.009 15.0896 100.355 15.0896H103.095C103.441 15.0896 103.638 15.2915 103.638 15.645V21.956C103.638 22.3094 103.441 22.5114 103.095 22.5114H100.355C99.9848 22.5114 99.812 22.3094 99.812 21.956V15.645ZM90.752 24.6572H93.0972V15.1401H96.1584V12.9691H87.6908V15.1401H90.752V24.6572ZM80.7292 20.5171H84.3828C85.7406 20.5171 86.7034 19.5831 86.7034 18.2199V15.2663C86.7034 13.9031 85.7653 12.9691 84.3828 12.9691H78.4087V24.6572H80.7539V20.5171H80.7292ZM80.7292 15.1653H83.7903C84.1606 15.1653 84.3335 15.3673 84.3335 15.7207V17.7655C84.3335 18.1189 84.136 18.3208 83.7903 18.3208H80.7292V15.1653ZM76.3103 22.4357H71.0027V19.785H75.3228V17.5888H71.0027V15.1906H76.3103V12.9943H68.6574V24.6824H76.3103V22.4357ZM65.3 18.6743C66.0406 18.2451 66.3369 17.614 66.3369 16.9324V15.2663C66.3369 13.9031 65.3988 12.9691 64.0163 12.9691H58.0915V24.6572H64.1398C65.4975 24.6572 66.4603 23.7231 66.4603 22.3599V20.4414C66.4603 19.7345 66.1147 19.0529 65.3 18.6743ZM60.4368 15.1401H63.4239C63.7942 15.1401 63.967 15.342 63.967 15.6954V17.0839C63.967 17.5383 63.8435 17.6393 63.4239 17.6393H60.4368V15.1401ZM64.1151 21.9308C64.1151 22.2842 63.9176 22.4862 63.572 22.4862H60.4615V19.7093H63.3992C63.8435 19.7093 64.1398 19.7345 64.1398 20.2394V21.9308H64.1151ZM37.6757 11.2524L36.9844 20.1132L20 22.4609C21.7774 15.8722 27.801 11 34.9848 11C35.8982 11 36.8116 11.0757 37.6757 11.2524ZM41.4033 12.3884L38.046 20.1384L49.4018 20.7948C47.9453 17.0839 45.057 14.0546 41.4033 12.3884Z" fill="white"/>
</svg>
