<svg width="169" height="53" viewBox="0 0 169 53" fill="none" xmlns="http://www.w3.org/2000/svg">
<path fill-rule="evenodd" clip-rule="evenodd" d="M26.4901 27.7193H31.4817L29.0094 23.077L26.4901 27.7193ZM101.71 32.9503L101.376 32.9488L101.049 32.9374L100.727 32.9174L100.414 32.8866L100.108 32.8463L99.809 32.796L99.5188 32.7358L99.2349 32.6634L98.9599 32.5802L98.6939 32.4863L98.4373 32.3816L98.1881 32.2655L97.9494 32.1377L97.7202 31.9973L97.5015 31.8453L97.293 31.6823L97.0945 31.5045L96.9054 31.3152L96.7297 31.1131L96.5664 30.8993L96.4132 30.6711L96.2726 30.431L96.1445 30.1777L96.0289 29.9111L95.9258 29.6313L95.8363 29.3388L95.7596 29.0316L95.6974 28.7126L95.6479 28.3792L95.6135 28.0313L95.5905 27.6697L95.5849 27.2948V20.253H108.556V22.636H98.7404V25.1452H108.479V27.5301H98.7334L98.719 27.8147L98.7276 28.1833L98.7665 28.5167L98.8345 28.8158L98.9283 29.0819L99.0509 29.3177L99.1985 29.5245L99.3747 29.706L99.5782 29.8616L99.811 29.9949L100.074 30.1062L100.367 30.1958L100.689 30.2646L101.04 30.3112L101.421 30.3413L101.833 30.3501H108.677V32.9505L101.71 32.9503ZM92.5364 32.5695L92.7458 32.9503H96.3012L89.0295 20.2529H85.719L78.5705 32.9503H82.0975L82.3884 32.4046L82.6228 31.9621L82.8435 31.5504L83.047 31.1689L83.2376 30.8132L83.4153 30.4825L83.5821 30.1726L83.7376 29.8837L83.8852 29.6104L84.1648 29.0956L84.4077 28.6488L84.528 28.4284L84.6471 28.2118L84.7652 27.9975L84.8842 27.781L85.0045 27.5621L85.1279 27.3362L85.2576 27.1032L85.3908 26.8616L85.5319 26.6055L85.6803 26.3343L85.838 26.0473L86.0064 25.7405L86.1861 25.4121L86.3797 25.0591L86.586 24.6819L86.8082 24.2746L87.0461 23.8372L87.3019 23.3669L87.4596 23.0769L87.6874 23.5058L88.0104 24.114L88.1768 24.4267L88.3431 24.7417L88.5099 25.0541L88.6763 25.3691L88.8431 25.6826L89.0102 25.9966L89.177 26.31L89.3434 26.6227L89.5097 26.9375L89.6766 27.2502L89.8437 27.5636L90.0105 27.8784L90.1773 28.1911L90.3452 28.5061L90.512 28.818L90.6784 29.1312L90.8467 29.4435L91.0151 29.7583L91.1834 30.0702L91.3513 30.3837L91.5204 30.6957L91.6888 31.0091L91.8579 31.3203L92.0262 31.6338L92.1961 31.9462L92.3665 32.2577L92.5364 32.5696L92.5364 32.5695ZM71.0143 32.9503L70.6817 32.9488L70.3551 32.9374L70.0333 32.9174L69.7201 32.8866L69.4134 32.8463L69.1146 32.796L68.8229 32.7358L68.5398 32.6634L68.2655 32.5802L67.9996 32.4863L67.7417 32.3816L67.4945 32.2655L67.2551 32.1377L67.0258 31.9973L66.8071 31.846L66.5973 31.6823L66.3994 31.5044L66.2111 31.3152L66.0354 31.1131L65.8706 30.8993L65.7174 30.6711L65.5776 30.431L65.4494 30.1777L65.3347 29.9111L65.2315 29.6313L65.142 29.3388L65.0652 29.0316L65.0015 28.7126L64.9535 28.3792L64.9176 28.0313L64.8961 27.6698L64.8891 27.2948V20.253H77.8618V22.636H68.0448V25.1452H77.7836V27.5301H68.0383L68.0246 27.8147L68.0327 28.1833L68.0719 28.5167L68.1386 28.8158L68.2339 29.0819L68.355 29.3177L68.5042 29.5245L68.6803 29.706L68.8839 29.8616L69.1167 29.9949L69.3806 30.1062L69.6713 30.1958L69.9931 30.2646L70.3457 30.3112L70.7262 30.3413L71.1382 30.3501H77.9823V32.9505L71.0143 32.9503ZM57.9289 22.7372V32.9503H54.7718V22.7372H43.6025V32.9503H40.4459V22.7372H34.7457V20.253H63.6571V22.7372H57.9289ZM17.856 22.7372V32.9503H14.6998V22.7372H9V20.253H23.5843V22.7372H17.856ZM20.4807 32.9503L27.6294 20.253H30.5795L37.8513 32.9503H34.295L32.8038 30.228H25.0956L23.6466 32.9503H20.4807Z" fill="white"/>
<path fill-rule="evenodd" clip-rule="evenodd" d="M145.923 25.0736V32.9503H142.685V20.2529H145.854L151.634 27.6833L157.297 20.2529H160.066V32.9503H156.874V25.5915L156.874 25.5126L156.877 25.4359L156.88 25.3641L156.883 25.2944L156.887 25.2292L156.892 25.1674L156.898 25.1103L156.906 25.0349L156.908 25.0247L156.903 25.0341L156.879 25.0794L156.855 25.1237L156.832 25.1675L156.809 25.212L156.753 25.3089L156.703 25.3957L156.655 25.4739L156.612 25.5442L156.572 25.6029L156.537 25.6545L156.508 25.6967L156.483 25.7306L151.937 32H151.224L146.359 25.7097L146.302 25.633L146.245 25.5533L146.191 25.4696L146.135 25.3848L146.081 25.2968L146.026 25.2057L145.972 25.1115L145.921 25.0263L145.923 25.0736V25.0736ZM125.492 23.3231L125.495 23.1144L125.502 22.9142L125.515 22.7212L125.532 22.5363L125.554 22.3599L125.582 22.1899L125.615 22.0278L125.653 21.8745L125.696 21.728L125.744 21.5888L125.797 21.4585L125.858 21.3351L125.922 21.2202L125.994 21.1119L126.07 21.0122L126.152 20.9207L126.251 20.8344L126.356 20.7577L126.468 20.6866L126.591 20.6201L126.721 20.5599L126.86 20.5052L127.007 20.4559L127.161 20.4134L127.325 20.3747L127.497 20.3425L127.677 20.3145L127.866 20.2922L128.063 20.2745L128.269 20.2621L128.482 20.2543L128.704 20.253H137.853L138.075 20.2543L138.29 20.2621L138.498 20.2745L138.696 20.2922L138.884 20.3145L139.064 20.3425L139.235 20.3747L139.397 20.4134L139.55 20.4559L139.694 20.5052L139.83 20.5611L139.956 20.6216L140.074 20.6866L140.183 20.76L140.282 20.8374L140.371 20.9207L140.455 21.0074L140.536 21.1041L140.611 21.2124L140.679 21.3257L140.742 21.4484L140.799 21.579L140.851 21.7174L140.896 21.8644L140.935 22.0179L140.97 22.1806L140.998 22.3507L141.022 22.53L141.04 22.7157L141.053 22.91L141.061 23.1129L141.063 23.3232V29.8767L141.061 30.0866L141.053 30.2903L141.04 30.4861L141.022 30.6741L140.998 30.8527L140.97 31.024L140.935 31.187L140.896 31.3426L140.851 31.488L140.799 31.6279L140.742 31.7585L140.68 31.8817L140.611 31.9965L140.536 32.1033L140.456 32.2017L140.371 32.2906L140.28 32.3715L140.181 32.4492L140.071 32.52L139.953 32.5853L139.826 32.6435L139.691 32.6994L139.546 32.7467L139.394 32.7897L139.232 32.8277L139.061 32.8601L138.881 32.8879L138.694 32.9102L138.495 32.9274L138.29 32.9403L138.075 32.9469L137.853 32.9504H128.704L128.483 32.9469L128.269 32.9403L128.064 32.9274L127.868 32.9102L127.679 32.8879L127.499 32.8601L127.328 32.8277L127.165 32.7897L127.01 32.7467L126.862 32.6994L126.724 32.6447L126.594 32.5861L126.472 32.5215L126.359 32.4512L126.253 32.3752L126.154 32.2905L126.07 32.1958L125.993 32.0962L125.922 31.9886L125.858 31.8729L125.797 31.7489L125.744 31.6169L125.696 31.4772L125.653 31.3307L125.615 31.1767L125.582 31.0145L125.554 30.844L125.532 30.6662L125.515 30.4802L125.502 30.2866L125.495 30.0853L125.492 29.8765V23.3231ZM128.649 30.35H137.908V22.7371H128.649V30.35ZM110.371 32.9503H113.553V27.611L120.809 32.9503H125.916L116.484 26.2425L124.905 20.2529H120.254L113.553 25.3023V20.2529H110.371L110.371 32.9503Z" fill="white"/>
</svg>
