<svg width="169" height="53" viewBox="0 0 169 53" fill="none" xmlns="http://www.w3.org/2000/svg">
<path d="M60 44.5374C60.1128 44.5468 60.2257 44.5562 60.3385 44.5562C76.3535 44.5562 92.3686 44.5562 108.384 44.5562C108.496 44.5562 108.675 44.4809 108.713 44.622C108.76 44.7819 108.732 44.9699 108.722 45.1392C108.722 45.205 108.647 45.205 108.6 45.205C108.534 45.205 108.459 45.205 108.393 45.205C92.3309 45.205 76.2783 45.205 60.2163 45.205C60.1505 45.205 60.0752 45.2145 60.0094 45.2145C60 44.9888 60 44.7631 60 44.5374Z" fill="white"/>
<path d="M82.9161 52.5775C82.7751 52.4553 82.8127 52.2954 82.8033 52.1356C82.7845 51.9005 82.9067 51.6089 82.7469 51.4491C82.6058 51.308 82.3143 51.4115 82.0886 51.402C81.2328 51.3926 80.4429 50.8284 80.33 49.9914C80.2266 49.2579 80.1137 48.4868 80.5369 47.7909C80.8849 47.2267 81.4021 46.9446 82.051 46.9446C83.5838 46.9351 85.1167 46.9351 86.6495 46.9446C87.6558 46.954 88.4269 47.7345 88.4363 48.7313C88.4363 49.1545 88.4927 49.5683 88.3987 49.9914C88.2106 50.8284 87.4959 51.3926 86.6401 51.402C86.4803 51.402 86.3204 51.4115 86.1699 51.402C85.9912 51.3832 85.9254 51.4491 85.9254 51.6371C85.9254 51.9475 85.9912 52.2672 85.869 52.5681C84.8816 52.5775 83.9036 52.5775 82.9161 52.5775ZM84.355 47.9508C84.7687 47.9508 85.1825 47.9602 85.5869 47.9508C85.8314 47.9414 85.9254 48.0354 85.9254 48.2893C85.916 49.0887 85.9254 49.8786 85.916 50.6779C85.916 50.9036 86.0007 50.9318 86.1887 50.866C86.5367 50.7438 86.753 50.4428 86.7624 50.0667C86.7624 49.493 86.7718 48.9288 86.7624 48.3552C86.753 47.8661 86.4332 47.5276 85.9348 47.5276C84.8722 47.5182 83.8189 47.5182 82.7563 47.5276C82.3331 47.5276 82.0228 47.8003 81.9757 48.2235C81.9005 48.8724 81.9099 49.5307 81.9757 50.1889C82.004 50.5275 82.2108 50.7438 82.5306 50.8566C82.7845 50.9412 82.8221 50.913 82.8221 50.6497C82.8221 49.8598 82.8315 49.0699 82.8221 48.2893C82.8221 48.0354 82.9161 47.9508 83.17 47.9508C83.5462 47.9602 83.9506 47.9508 84.355 47.9508Z" fill="white"/>
<path d="M65.992 52.5777C65.9167 52.446 65.9544 52.3238 66.0014 52.2015C66.622 50.5935 67.2427 48.9854 67.854 47.3867C68.0044 46.9917 68.0703 46.9541 68.4934 46.9541C69.0389 46.9541 69.5749 46.9635 70.1203 46.9541C70.393 46.9541 70.5717 47.0764 70.6658 47.3209C71.2958 48.9478 71.9165 50.584 72.5466 52.2109C72.603 52.352 72.5748 52.4648 72.4995 52.5777C71.7942 52.5777 71.0983 52.5777 70.393 52.5777C70.1768 52.4554 70.0733 52.2391 69.9887 52.0229C69.5091 50.7533 69.0201 49.4744 68.5311 48.2048C68.4558 48.0074 68.4088 47.7911 68.2583 47.5842C67.9386 48.4117 67.6377 49.2017 67.3273 50.001C67.2709 50.1515 67.3367 50.1609 67.459 50.1609C67.7787 50.1609 68.1079 50.1609 68.4276 50.1609C68.7756 50.1609 68.8884 50.2361 69.0107 50.5652C69.2175 51.1013 69.4244 51.6373 69.6407 52.1733C69.6971 52.305 69.716 52.4366 69.6595 52.5777C68.4464 52.5777 67.2145 52.5777 65.992 52.5777Z" fill="white"/>
<path d="M96.1086 52.5773C95.7324 52.361 95.723 52.0131 95.7324 51.6275C95.7512 50.1605 95.7418 48.6841 95.7418 47.2076C95.7418 47.123 95.7042 47.0196 95.7889 46.9631C95.8829 46.9161 95.9487 47.0008 96.024 47.0478C96.212 47.1512 96.2873 47.3111 96.2779 47.5274C96.2685 48.1292 96.2779 48.7405 96.2685 49.3424C96.2685 49.521 96.3155 49.5869 96.5036 49.5869C97.2089 49.5775 97.9048 49.5775 98.6101 49.5869C98.8169 49.5869 98.864 49.521 98.8546 49.333C98.8452 48.6747 98.8546 48.0164 98.8546 47.3581C98.8546 46.9914 98.9016 46.9443 99.2589 46.9443C100.058 46.9443 100.858 46.9443 101.648 46.9443C101.958 46.9443 102.005 46.9914 102.005 47.2923C102.005 48.938 102.005 50.5837 102.005 52.2294C102.005 52.361 101.977 52.4739 101.892 52.5679C100.914 52.5679 99.9266 52.5679 98.9486 52.5679C98.8734 52.4363 98.8452 52.2952 98.8546 52.1447C98.864 51.5899 98.8546 51.0445 98.864 50.4896C98.864 50.3016 98.8075 50.2545 98.6289 50.2545C97.933 50.2639 97.2277 50.2639 96.5318 50.2545C96.3343 50.2545 96.2779 50.3016 96.2779 50.499C96.2873 51.1855 96.2779 51.8814 96.2779 52.5679C96.2214 52.5773 96.165 52.5773 96.1086 52.5773Z" fill="white"/>
<path d="M73.6165 52.5312C73.419 52.4372 73.3438 52.2773 73.3438 52.061C73.3438 50.4529 73.3438 48.8354 73.3438 47.2273C73.3438 47.1427 73.3156 47.0393 73.4096 46.9922C73.5131 46.9358 73.5977 47.011 73.673 47.0581C73.861 47.1615 73.9081 47.3402 73.9081 47.5471C73.9081 48.826 73.9081 50.105 73.9081 51.3839C73.9081 51.4685 73.9081 51.5532 73.9081 51.7224C74.2748 51.13 74.6039 50.6128 74.9237 50.0862C75.4879 49.1834 76.0428 48.2712 76.6164 47.3684C76.7857 47.1051 77.0114 46.9452 77.3499 46.9546C77.9047 46.9734 78.4502 46.964 79.005 46.964C79.4282 46.964 79.5975 47.1333 79.5975 47.5471C79.5975 49.2304 79.5881 50.9137 79.5881 52.5876C79.5222 52.5876 79.447 52.5876 79.3812 52.5876C79.0991 52.4089 79.052 52.1456 79.052 51.8259C79.0708 50.5752 79.0614 49.3244 79.0614 48.0737C79.0614 47.9985 79.0614 47.9326 79.0614 47.8198C79.005 47.8762 78.9862 47.8856 78.9674 47.9044C78.0928 49.315 77.2183 50.7256 76.3437 52.1362C76.2402 52.3055 76.118 52.4748 75.9111 52.5312C75.8923 52.55 75.8735 52.5688 75.8641 52.5876C75.1306 52.5876 74.3877 52.5876 73.6541 52.5876C73.6541 52.5594 73.6353 52.5406 73.6165 52.5312Z" fill="white"/>
<path d="M62.165 52.5308C61.9675 52.4462 61.9581 52.2675 61.9581 52.0888C61.9581 50.7064 61.9487 49.324 61.9675 47.9322C61.9675 47.6783 61.8923 47.6219 61.6572 47.6313C61.3375 47.6501 61.0083 47.6407 60.6886 47.6313C60.4065 47.6313 60.1432 47.3868 60.1149 47.1235C60.1055 47.0201 60.1338 46.9542 60.256 46.9542C60.3124 46.9542 60.3595 46.9542 60.4159 46.9542C62.3061 46.9542 64.1963 46.9636 66.0959 46.9542C66.5191 46.9542 66.5943 47.1329 66.726 47.462C66.8012 47.6313 66.6507 47.6407 66.5285 47.6407C66.1053 47.6407 65.6915 47.6501 65.2683 47.6407C65.0426 47.6313 64.9956 47.716 64.9956 47.9228C65.005 49.2864 64.9956 50.6594 65.005 52.023C65.005 52.2487 64.958 52.4368 64.7981 52.5872C63.9424 52.5872 63.0772 52.5872 62.2214 52.5872C62.1932 52.559 62.1744 52.5402 62.165 52.5308Z" fill="white"/>
<path d="M102.951 52.5773C102.791 52.4645 102.734 52.3046 102.734 52.1071C102.744 50.5367 102.734 48.9756 102.734 47.4051C102.734 47.029 102.819 46.9443 103.195 46.9443C103.891 46.9443 104.596 46.9443 105.292 46.9443C105.64 46.9443 105.734 47.0384 105.734 47.3769C105.734 48.9568 105.734 50.5273 105.734 52.1071C105.734 52.314 105.678 52.4645 105.518 52.5773C104.672 52.5773 103.816 52.5773 102.951 52.5773Z" fill="white"/>
<path d="M101.367 0.00940403C101.443 0.131656 101.377 0.2351 101.311 0.319736C100.173 1.90901 99.5805 3.71458 99.148 5.59538C98.7718 7.22227 98.3486 8.83976 97.7468 10.4008C97.1449 11.9525 96.3644 13.4007 95.2829 14.6796C95.2453 14.7267 95.2077 14.7737 95.1607 14.8113C95.1136 14.8489 95.076 14.9524 95.0008 14.9053C94.9256 14.8677 94.982 14.7831 94.9914 14.7173C95.0102 14.3975 95.0572 14.0778 94.6622 13.9273C94.54 13.8803 94.634 13.8239 94.6716 13.7769C95.3958 13.0151 95.96 12.15 96.496 11.2472C97.1919 10.0717 97.6245 8.79274 98.0101 7.48558C98.4238 6.05617 98.7624 4.60796 99.2984 3.21617C99.7592 2.02186 100.37 0.921592 101.273 0C101.301 0.009404 101.339 0.00940403 101.367 0.00940403Z" fill="white"/>
<path d="M107.471 52.5773C107.226 52.4268 107.066 52.2011 106.925 51.966C106.643 51.5052 106.351 51.0444 106.06 50.5836C105.881 50.2921 105.891 50.1604 106.098 49.8971C106.831 48.9661 107.574 48.0351 108.317 47.1041C108.392 47.0101 108.439 46.822 108.627 46.8972C108.768 46.9537 108.787 47.2828 108.665 47.4521C108.467 47.7154 108.26 47.9787 108.054 48.242C107.63 48.778 107.64 48.7686 107.997 49.3423C108.552 50.2263 109.107 51.1196 109.662 52.013C109.699 52.0694 109.718 52.1447 109.793 52.1635C109.793 52.2575 109.774 52.361 109.793 52.455C109.831 52.6243 109.718 52.5867 109.633 52.5867C109.615 52.549 109.596 52.549 109.577 52.5867C108.872 52.5773 108.176 52.5773 107.471 52.5773Z" fill="white"/>
<path d="M62.1657 52.5303C62.1845 52.5491 62.1939 52.5679 62.2127 52.5867C62.1939 52.5867 62.1751 52.5867 62.1563 52.5867C62.1563 52.5585 62.1562 52.5397 62.1657 52.5303Z" fill="white"/>
<path d="M73.6188 52.5303C73.6376 52.5491 73.647 52.5679 73.6658 52.5867C73.647 52.5867 73.6282 52.5867 73.6094 52.5867C73.6188 52.5585 73.6188 52.5397 73.6188 52.5303Z" fill="white"/>
<path d="M75.9197 52.5303C75.9197 52.5491 75.9197 52.5679 75.9197 52.5867C75.9009 52.5867 75.8821 52.5867 75.8633 52.5867C75.8915 52.5585 75.9103 52.5397 75.9197 52.5303Z" fill="white"/>
<path d="M109.578 52.578C109.597 52.5404 109.616 52.5404 109.635 52.578C109.606 52.578 109.588 52.578 109.578 52.578Z" fill="white"/>
<path d="M68.3336 10.2588C68.5029 10.2776 68.597 10.381 68.7004 10.4751C69.4621 11.1334 69.9323 11.9891 70.3461 12.8919C70.8351 13.9546 71.2771 15.0454 71.8225 16.0893C72.1141 16.6347 72.5184 17.0673 73.0827 17.3494C73.2519 17.434 73.346 17.387 73.4212 17.2366C73.4776 17.1237 73.5341 17.0203 73.5999 16.9168C73.7127 16.7475 73.7692 16.5783 73.6751 16.3808C73.6657 16.362 73.6657 16.3338 73.6563 16.3056C73.5999 16.1175 73.5529 15.9106 73.7033 15.7601C73.8632 15.6003 74.0795 15.6755 74.277 15.7319C74.3146 15.7413 74.3428 15.7507 74.3804 15.7601C74.5027 15.826 74.5779 15.7507 74.6625 15.6943C74.766 15.6191 74.7378 15.525 74.7002 15.431C74.5967 15.1677 74.4462 14.9326 74.2958 14.6975C74.1077 14.3965 73.9572 14.0862 73.976 13.7195C73.9949 13.4467 74.1359 13.3621 74.3804 13.5032C74.5497 13.5972 74.6908 13.7289 74.8224 13.8699C74.8788 13.9358 74.9447 13.9922 75.0105 14.0486C75.0951 14.1144 75.1986 14.1709 75.302 14.0862C75.3866 14.011 75.3678 13.9075 75.3302 13.8135C75.1515 13.3809 75.0105 12.9389 74.7566 12.544C74.5873 12.2806 74.5309 11.9985 74.5497 11.6882C74.5779 11.3967 74.7754 11.2838 75.0293 11.4249C75.5183 11.707 75.9133 12.1114 76.2894 12.5252C76.7408 13.0236 77.164 13.5502 77.7 13.9734C77.8693 14.105 78.048 14.2179 78.2455 14.2931C78.3865 14.3495 78.5464 14.3777 78.6686 14.2649C78.7909 14.152 78.7815 14.0016 78.7439 13.8511C78.678 13.6066 78.4712 13.4467 78.3677 13.221C78.3207 13.1176 78.2455 13.0142 78.3301 12.9107C78.4053 12.8167 78.5088 12.9107 78.5934 12.9295C78.9602 13.0048 79.2611 13.1834 79.4774 13.4938C79.8535 14.0204 80.3143 14.4436 80.8128 14.8385C81.8848 15.6849 82.6183 16.804 83.2296 18.0077C83.3894 18.3086 83.5399 18.6095 83.6057 18.9575C83.6904 19.4841 83.5963 19.9919 83.333 20.4245C83.0039 20.9793 82.9757 21.5436 83.0133 22.1454C83.0227 22.3429 83.0885 22.3994 83.2766 22.4182C83.7374 22.4558 83.7374 22.4652 83.9537 22.0326C84.5273 20.9135 85.195 19.8603 86.0602 18.9387C86.1636 18.8258 86.2953 18.6095 86.4552 18.7224C86.5868 18.8164 86.4457 19.0139 86.3893 19.155C86.032 19.9355 85.59 20.669 85.2985 21.4872C85.2138 21.7317 85.1574 21.9762 85.101 22.2207C85.0634 22.3711 85.0916 22.4276 85.2702 22.3899C86.126 22.2113 86.6056 21.6564 86.7185 20.6972C86.8031 19.9637 86.8219 19.2114 87.0194 18.4967C87.5084 16.7758 88.4676 15.384 90.0005 14.4154C90.6681 13.9922 91.3358 13.5878 91.9471 13.08C92.2668 12.8167 92.5583 12.5252 92.8217 12.2148C92.9439 12.0644 93.0662 11.9139 93.2448 11.8293C93.4423 11.7258 93.5646 11.7822 93.6022 11.9985C93.7527 12.9013 93.4799 13.6724 92.8687 14.3401C92.3609 14.895 91.7402 15.3087 91.0819 15.6567C90.8844 15.7601 90.7058 15.8824 90.6211 16.0987C90.5083 16.409 90.6493 16.6253 90.9691 16.6441C91.1948 16.6535 91.4017 16.5877 91.5991 16.4842C92.4737 16.0328 93.2542 15.4592 93.8561 14.6787C93.8843 14.6411 93.9219 14.6034 93.9595 14.5658C94.1382 14.3777 94.2887 14.3965 94.3921 14.6411C94.4956 14.8762 94.4485 15.1207 94.3827 15.3558C94.0912 16.4278 93.4141 17.1989 92.5207 17.8102C92.0035 18.1581 91.4581 18.4591 90.9126 18.7506C90.6964 18.8634 90.5083 18.9951 90.3484 19.1644C90.2073 19.3148 90.0945 19.4935 90.1885 19.6816C90.292 19.8885 90.5177 19.8227 90.6869 19.785C91.1477 19.7004 91.5615 19.4747 91.9565 19.2396C92.8028 18.7318 93.5928 18.1205 94.2887 17.4152C94.3827 17.3118 94.4862 17.1237 94.646 17.2083C94.8153 17.3024 94.7589 17.5093 94.7307 17.6691C94.599 18.2804 94.2793 18.7882 93.8937 19.2584C93.2166 20.1048 92.3797 20.7348 91.3358 21.0734C91.1289 21.1392 90.9597 21.2615 90.8374 21.4401C90.7904 21.506 90.734 21.5906 90.781 21.6846C90.828 21.7881 90.922 21.8069 91.0255 21.8069C91.3922 21.7975 91.7214 21.647 92.0505 21.506C92.8311 21.158 93.527 20.669 94.1476 20.0766C94.1758 20.0484 94.204 20.0107 94.2417 19.9825C94.3075 19.9355 94.3827 19.8415 94.4674 19.8979C94.5614 19.9543 94.5332 20.0578 94.5144 20.1612C94.2887 21.2521 93.6492 22.0796 92.8311 22.7849C92.3138 23.2269 91.7402 23.5654 91.1101 23.8194C91.0255 23.857 90.9409 23.904 90.8562 23.9604C90.6587 24.1109 90.6493 24.2896 90.828 24.4682C91.0161 24.6563 91.2606 24.7033 91.5051 24.7221C92.3044 24.788 92.9157 25.1641 93.3671 25.8036C93.9031 26.5465 94.6742 26.8192 95.5394 26.8945C96.7337 27.0073 97.6459 27.5433 98.1819 28.6436C98.4452 29.189 98.7086 29.7345 98.9719 30.2799C99.6584 31.7469 100.364 33.2045 100.843 34.7562C101.191 35.8565 101.455 36.9849 101.859 38.0664C102.235 39.0726 102.621 40.0695 103.279 40.9252C103.702 41.4801 104.266 41.8468 104.99 41.875C105.479 41.8938 105.762 41.6869 105.921 41.2262C105.997 41.0099 106.062 40.7936 106.175 40.5961C106.401 40.2293 106.796 40.0412 107.125 40.1541C107.464 40.2763 107.689 40.7277 107.624 41.1321C107.454 42.1854 106.655 42.8718 105.592 43.0223C103.749 43.2856 102.085 42.0161 101.455 40.803C101.398 40.6995 101.398 40.5114 101.229 40.5209C101.041 40.5303 100.862 40.6149 100.796 40.8124C100.665 41.1697 100.439 41.4707 100.241 41.7904C100.016 42.1477 99.8088 42.5333 99.4985 42.8342C99.2728 43.0599 99.0095 43.1728 98.6803 43.1822C97.1569 43.2386 95.6334 43.2574 94.11 43.2292C93.8937 43.2292 93.6586 43.2668 93.574 42.9753C93.5082 42.7496 93.6586 42.4675 93.9125 42.3264C94.2605 42.1383 94.646 42.176 95.0222 42.2042C95.2573 42.223 95.4736 42.1854 95.6993 42.176C95.8497 42.1665 95.9532 42.0819 96.0284 41.9503C96.414 41.292 96.8184 40.6431 97.1945 39.9848C97.4108 39.6087 97.3732 39.1855 97.3356 38.7811C97.3074 38.5084 97.2321 38.2545 97.1851 37.9818C97.1193 37.568 96.8372 37.3517 96.4704 37.2671C94.6648 36.8627 93.1884 35.8377 91.6744 34.8408C90.4801 34.0415 89.4926 33.0353 88.477 32.0478C87.8658 31.4554 87.1981 30.9382 86.474 30.4868C86.0226 30.1953 85.543 30.1671 85.0351 30.2235C84.7154 30.2611 84.3957 30.3175 84.0759 30.3645C83.5399 30.4492 83.1355 30.7031 82.891 31.2109C82.5713 31.8692 82.2045 32.518 81.8942 33.1763C81.4898 34.0415 80.8033 34.5775 79.9758 34.9537C78.979 35.4051 77.9163 35.6214 76.8349 35.7248C76.2612 35.7812 75.6876 35.8094 75.1045 35.7248C74.9258 35.6966 74.86 35.8189 74.7942 35.9505C74.5403 36.5242 74.5591 37.0978 74.6908 37.6997C74.8506 38.4144 75.1233 39.0632 75.5935 39.6275C75.9885 40.0977 75.9697 40.361 75.65 40.8594C75.5089 41.0663 75.3208 41.1415 75.0857 41.1227C73.7503 41.0005 72.6313 39.7591 72.6219 38.4144C72.6219 38.1322 72.6313 37.8501 72.5749 37.5774C72.5466 37.4457 72.4996 37.3235 72.415 37.22C72.3209 37.1072 72.2269 37.0978 72.1329 37.22C71.6062 37.9348 71.0138 38.593 70.647 39.4112C70.4119 39.9378 70.3461 40.502 70.1956 41.0475C70.1204 41.3108 70.0546 41.5741 69.9793 41.828C69.6972 42.7966 68.9919 43.248 68.0327 43.3797C67.1958 43.5019 66.3588 43.3891 65.5219 43.3232C65.1833 43.295 64.9858 43.0035 65.0517 42.665C65.1269 42.2324 65.5877 41.7528 66.0297 41.7152C67.1581 41.6117 67.807 40.991 68.155 39.9378C68.5593 38.7059 69.0013 37.4928 69.4809 36.2891C69.8195 35.4333 70.1674 34.5869 70.3555 33.6841C70.6094 32.4992 70.5906 31.3049 70.5624 30.1012C70.5436 29.2925 70.4401 28.4743 70.4307 27.6656C70.4119 26.3772 70.6188 25.1359 71.3053 24.0168C71.926 23.0012 72.2175 21.9197 72.1517 20.716C72.0764 19.3713 71.4276 18.4685 70.205 17.9607C70.0828 17.9136 69.9605 17.8572 69.8477 17.8008C69.7725 17.7632 69.716 17.6974 69.7442 17.6127C69.7725 17.5281 69.8383 17.4905 69.9229 17.4811C70.0734 17.4623 70.2239 17.5093 70.3555 17.5563C71.0608 17.8196 71.7755 18.0735 72.2551 18.713C72.3398 18.8258 72.4526 18.9199 72.5654 18.9951C72.7441 19.1268 72.8476 19.0797 72.8758 18.854C72.8946 18.6942 72.857 18.5625 72.7347 18.4497C71.6345 17.4999 71.0138 16.2585 70.553 14.9232C70.2144 13.9358 69.9135 12.9389 69.4527 12.0079C69.18 11.4625 68.8603 10.9547 68.4559 10.5033C68.3995 10.4281 68.3242 10.3904 68.3336 10.2588ZM70.9009 32.1889C70.9762 32.8284 70.7599 33.703 70.4307 34.5493C69.7537 36.2891 69.1424 38.0476 68.5029 39.7967C68.3901 40.0977 68.2678 40.3986 68.1268 40.6901C67.7412 41.4895 67.1017 41.9314 66.2083 41.9691C66.0861 41.9691 65.9544 41.9879 65.9262 42.1101C65.8886 42.2418 66.0109 42.3076 66.1237 42.3546C66.5657 42.5333 67.5343 42.4299 67.8729 42.0255C68.2396 41.5929 68.5687 41.1415 68.785 40.6243C69.1236 39.825 69.4339 39.0162 69.7819 38.2263C70.2521 37.1448 70.7505 36.0728 71.2019 34.9819C71.973 33.1293 72.3303 31.1827 72.368 29.1796C72.368 29.1044 72.3303 29.0104 72.415 28.9633C72.509 28.9163 72.5843 29.001 72.6407 29.0668C72.8664 29.2925 73.0921 29.537 73.3178 29.7627C73.5905 30.0354 73.6563 30.0448 73.9478 29.7909C74.23 29.5464 74.5121 29.2831 74.7754 29.0198C75.4995 28.2862 76.3459 27.7032 77.2486 27.2142C77.3521 27.1578 77.4273 27.139 77.4179 27.2988C77.4085 27.5339 77.4273 27.7784 77.3897 28.0041C77.3145 28.4743 77.4179 28.8787 77.7753 29.1984C78.3865 29.7345 78.2549 30.4868 77.9539 30.9946C77.8129 31.2297 77.653 31.446 77.5684 31.7093C77.4743 32.0102 77.5778 32.2265 77.9163 32.4428C78.1514 32.6027 78.3489 32.5086 78.5276 32.33C78.9037 31.9632 79.2517 31.5588 79.5056 31.1075C79.8818 30.4398 80.3896 29.9508 81.1983 29.8943C81.7626 29.8567 82.1293 29.6028 82.3174 29.0668C82.4208 28.7847 82.6465 28.6624 82.9569 28.6624C83.4741 28.653 83.9631 28.8129 84.4333 28.9821C85.2044 29.2549 85.9567 29.3301 86.7373 29.0292C86.9442 28.9539 87.1605 28.9069 87.3673 28.8505C88.035 28.6718 88.6463 28.7847 89.2011 29.2172C89.6149 29.537 89.944 29.9414 90.3014 30.2987C90.5459 30.5432 90.8186 30.7313 91.1477 30.8535C91.5897 31.004 92.0129 31.1921 92.4173 31.4084C93.4799 31.982 94.3451 32.8002 95.135 33.6935C95.53 34.1355 96.0284 34.3612 96.5833 34.4741C96.8184 34.5211 96.95 34.38 96.8842 34.1543C96.7055 33.5807 96.4798 33.0165 96.0848 32.5651C95.6711 32.0949 95.3701 31.5682 95.1162 31.0134C94.8811 30.4962 94.7025 29.9508 94.6554 29.3771C94.6084 28.7565 94.8059 28.3897 95.3231 28.3615C95.577 28.3521 95.8215 28.4179 96.0566 28.5308C96.3764 28.6812 96.6303 28.9257 96.8936 29.1608C97.1005 29.3489 97.3074 29.5182 97.5801 29.584C97.8434 29.6404 98.0127 29.5088 98.0127 29.2455C98.0033 28.8881 97.8716 28.5778 97.6647 28.2957C97.1005 27.5339 96.3105 27.2048 95.3795 27.139C94.7307 27.0919 94.1288 26.8851 93.6116 26.4713C93.2354 26.1704 92.9157 25.8036 92.5677 25.4745C92.2668 25.1923 91.9377 25.0043 91.5145 25.0513C91.3358 25.0701 91.1477 25.0795 90.9691 25.1265C90.0381 25.3616 89.2293 25.0889 88.4958 24.5152C88.1103 24.2143 87.7435 23.8852 87.3579 23.5843C86.7467 23.1141 86.0978 22.7379 85.2797 22.7755C85.101 22.7849 85.054 22.8319 85.0728 23.0106C85.1292 23.4996 85.4207 23.7817 85.8533 23.9322C86.1448 24.0262 86.4457 24.0827 86.7373 24.1579C87.151 24.2613 87.5554 24.3648 87.8093 24.7598C87.9504 24.9854 87.9222 25.0889 87.6683 25.1641C87.3861 25.2488 87.0946 25.2017 86.8125 25.1923C86.4457 25.1735 86.0884 25.0983 85.7216 25.1453C85.2702 25.1923 84.8189 25.2394 84.3675 25.1735C83.7468 25.0795 83.3706 24.6939 83.3518 24.0733C83.3424 23.7347 83.4083 23.415 83.5305 23.0952C83.6057 22.9072 83.5587 22.8601 83.3518 22.8507C82.6183 22.8225 81.913 22.9824 81.1983 23.1329C80.4648 23.2833 79.7219 23.4338 78.9602 23.3774C78.4618 23.3397 78.0104 23.1705 77.7753 22.6815C77.5684 22.2395 77.5496 21.7599 77.6624 21.2991C77.8035 20.7631 78.3959 20.3775 79.0354 20.3305C79.6373 20.2929 80.1545 20.4527 80.5777 20.9135C80.7563 21.111 80.9632 21.2991 81.2359 21.3273C81.8754 21.3931 82.75 21.1204 83.0885 20.3493C83.1167 20.274 83.1638 20.2082 83.1167 20.1236C82.9569 19.8603 83.0321 19.597 83.1449 19.3431C83.3048 18.9951 83.2484 18.6566 83.0885 18.3368C83.0227 18.1958 82.9475 18.0547 82.8722 17.9136C82.3738 17.0109 81.819 16.1363 81.0761 15.4028C80.5024 14.8385 79.8535 14.4718 79.0072 14.594C78.6404 14.6505 78.2737 14.6599 77.9069 14.6505C77.6436 14.6411 77.4179 14.5752 77.211 14.3871C76.9853 14.1897 76.7784 13.9828 76.581 13.7571C76.4587 13.616 76.3364 13.475 76.1766 13.3809C75.9509 13.2399 75.7816 13.3339 75.7722 13.5972C75.7628 13.8135 75.8192 14.0298 75.8568 14.2461C75.9697 14.8197 75.7346 15.431 75.208 15.6567C74.8318 15.8166 74.5497 16.1081 74.2864 16.4278C73.393 17.5281 73.0262 18.8258 72.8194 20.1894C72.7441 20.6784 72.7911 21.1862 72.6877 21.6752C72.5466 22.3053 72.2457 22.8695 71.9354 23.4338C71.6345 23.9792 71.3053 24.5058 71.0984 25.0983C70.7129 26.1798 70.6752 27.2988 70.7599 28.4367C70.8351 29.5746 70.8539 30.7407 70.9009 32.1889ZM97.881 34.8596C97.8528 34.9819 97.8998 35.0289 97.9656 35.0853C98.3606 35.4051 98.7462 35.7342 99.1317 36.0634C99.3386 36.2326 99.5361 36.4301 99.7806 36.5524C99.837 36.5806 99.8935 36.6182 99.9499 36.5712C100.006 36.5242 100.006 36.4583 99.9875 36.4019C99.9687 36.3455 99.9593 36.2796 99.9405 36.2232C99.395 34.5775 98.8402 32.9412 98.0879 31.3708C97.6835 30.515 97.1569 29.7439 96.4328 29.1326C96.1977 28.9351 95.9438 28.7564 95.6429 28.6906C95.135 28.5684 94.8623 28.8223 94.9282 29.3301C95.0316 30.1482 95.3043 30.91 95.7463 31.6059C96.0942 32.1607 96.5174 32.6685 96.8184 33.261C96.997 33.6183 97.2509 33.9098 97.5519 34.1732C97.7776 34.333 97.9845 34.5493 97.881 34.8596ZM77.1264 32.9036C77.0794 32.6215 76.9289 32.377 76.7502 32.1419C76.1484 31.3426 75.8757 31.2297 74.9917 31.982C74.3334 32.5369 73.8256 33.2328 73.299 33.9098C73.1579 34.0979 73.0074 34.2766 72.8758 34.4741C72.7159 34.6998 72.8099 35.0289 73.0639 35.2076C73.2707 35.3487 73.44 35.311 73.6281 35.0383C73.7503 34.8596 73.8632 34.6716 73.976 34.4835C74.1641 34.1543 74.4556 34.0133 74.813 33.9757C75.0763 33.9475 75.3396 33.9381 75.5935 33.9192C76.0449 33.8816 76.4681 33.7406 76.8255 33.4584C76.9947 33.308 77.1076 33.1387 77.1264 32.9036ZM100.966 38.7435C100.909 38.0664 100.58 37.4363 99.8747 37.032C99.7242 36.9473 99.5455 36.8157 99.395 36.9944C99.2446 37.173 99.4797 37.2577 99.5455 37.3799C99.5737 37.4269 99.6113 37.4646 99.6396 37.5022C100.025 37.9536 100.213 38.4802 100.166 39.0726C100.138 39.4676 100.119 39.8626 100.1 40.2481C100.091 40.361 100.11 40.4926 100.232 40.5303C100.373 40.5773 100.439 40.4644 100.495 40.3704C100.806 39.9096 100.947 39.4018 100.966 38.7435Z" fill="white"/>
<path d="M95.4132 17.9615C95.4226 17.717 95.4978 17.5008 95.4978 17.2562C95.4978 17.0211 95.4508 16.8237 95.2627 16.6732C95.1593 16.598 95.1687 16.5415 95.2533 16.4475C96.5605 15.0463 97.4351 13.4006 98.0651 11.6044C98.4977 10.3725 98.8457 9.11239 99.4757 7.9651C99.8707 7.23159 100.36 6.58271 101.027 6.0749C101.112 6.00907 101.197 5.95264 101.291 5.90562C101.338 5.87741 101.385 5.8492 101.432 5.90562C101.479 5.95264 101.451 6.00907 101.422 6.04668C101.357 6.14072 101.291 6.23476 101.215 6.3194C100.04 7.66417 99.3535 9.23464 98.8927 10.9462C98.4695 12.5166 97.9523 14.0589 97.1717 15.5071C96.6921 16.3817 96.0997 17.1998 95.4132 17.9615Z" fill="white"/>
<path d="M95.1055 20.886C95.2089 20.6321 95.3124 20.4346 95.3876 20.2183C95.4722 19.9456 95.5381 19.6635 95.2559 19.4472C95.1055 19.3343 95.2465 19.2873 95.3124 19.2403C95.6321 19.024 95.9424 18.7983 96.2245 18.535C96.9957 17.8203 97.4283 16.8987 97.8514 15.9583C98.3216 14.9238 98.7166 13.8518 99.2808 12.8644C99.6946 12.1403 100.231 11.5196 100.917 11.0494C100.992 10.993 101.077 10.9459 101.162 10.8989C101.246 10.8613 101.35 10.7579 101.416 10.8519C101.491 10.9553 101.359 11.0118 101.293 11.0776C100.945 11.4538 100.579 11.8299 100.259 12.2343C99.6758 12.9678 99.3467 13.8142 99.0834 14.7075C98.6038 16.3626 97.9643 17.9519 96.9298 19.3437C96.5537 19.8421 96.1399 20.3029 95.6133 20.6509C95.4816 20.7543 95.3406 20.8484 95.1055 20.886Z" fill="white"/>
<path d="M73.5352 13.8054C73.0462 13.2411 72.6512 12.6581 72.3127 12.0562C71.3535 10.3729 70.8269 8.53914 70.3661 6.66774C70.1028 5.60509 69.9147 4.53304 69.5479 3.4986C69.2282 2.61462 68.8614 1.75886 68.316 0.978326C68.3066 0.959518 68.2972 0.950114 68.2878 0.931306C68.2596 0.856074 68.1655 0.771439 68.2596 0.696207C68.3348 0.639783 68.4006 0.733823 68.4571 0.780842C68.758 1.06296 69.0119 1.3827 69.2376 1.73065C69.9429 2.81211 70.3002 4.02522 70.6388 5.24774C71.0337 6.68655 71.3629 8.15357 71.9553 9.53596C72.3973 10.5704 72.8769 11.5766 73.6104 12.4512C73.6481 12.4982 73.7421 12.5452 73.6104 12.6017C73.3753 12.7051 73.4224 12.912 73.4412 13.1001C73.4506 13.2129 73.4976 13.3164 73.5164 13.4292C73.5164 13.5421 73.5822 13.6361 73.5352 13.8054Z" fill="white"/>
<path d="M73.1558 16.3164C72.7232 15.959 72.4035 15.5265 72.1119 15.0845C71.2468 13.7303 70.7578 12.2257 70.3064 10.7116C69.9678 9.59254 69.6951 8.44526 69.1215 7.41082C68.8864 6.97823 68.623 6.56446 68.3127 6.1883C68.2657 6.12247 68.2187 6.05664 68.1811 5.99081C68.1528 5.9532 68.1434 5.90618 68.1811 5.86856C68.2187 5.83094 68.2657 5.84035 68.3033 5.86856C68.435 5.9626 68.576 6.05664 68.6983 6.16949C69.4694 6.87479 69.9302 7.76817 70.297 8.71797C70.833 10.1004 71.322 11.511 71.9333 12.8651C72.2718 13.6269 72.6762 14.351 73.278 14.9434C73.325 14.9904 73.4379 15.0281 73.325 15.1221C73.0429 15.376 73.0617 15.6863 73.137 16.0155C73.1558 16.1095 73.2122 16.1941 73.1558 16.3164Z" fill="white"/>
<path d="M94.4087 12.2258C94.4839 11.4829 94.3617 11.2478 93.8633 11.182C94.1924 10.8529 94.4839 10.5237 94.7473 10.1758C96.2237 8.21033 97.2393 6.0286 97.6343 3.59297C97.7377 2.93469 97.7847 2.27641 97.7001 1.60873C97.6907 1.51469 97.6907 1.42065 97.6907 1.3172C97.6907 1.25137 97.7095 1.18555 97.7847 1.18555C97.86 1.18555 97.8788 1.25137 97.8882 1.3078C97.9258 1.63694 97.9728 1.96608 97.9822 2.29522C98.0857 4.5992 97.465 6.74331 96.5528 8.81219C96.0262 10.0065 95.3773 11.135 94.5216 12.1412C94.4933 12.1694 94.4839 12.2164 94.4557 12.2541C94.4557 12.2541 94.4369 12.2352 94.4087 12.2258Z" fill="white"/>
<path d="M74.4629 10.42C73.8611 10.5422 73.9269 11.0218 73.8611 11.4732C73.5508 11.1347 73.3157 10.7679 73.1088 10.3824C72.1496 8.63322 71.5477 6.75242 71.228 4.78699C71.0775 3.8654 71.181 2.9344 71.2844 2.01281C71.3032 1.86235 71.3314 1.72129 71.3502 1.57082C71.3596 1.5238 71.3784 1.48619 71.4349 1.49559C71.4631 1.505 71.4913 1.54261 71.5007 1.57082C71.5101 1.61784 71.5195 1.67427 71.5101 1.73069C71.369 2.98142 71.5665 4.20394 71.8863 5.41706C72.253 6.84647 72.8173 8.20064 73.6542 9.43256C73.8799 9.78992 74.1526 10.1002 74.4629 10.42Z" fill="white"/>
<path d="M92.8594 23.9233C93.0663 23.6694 93.339 23.4907 93.5741 23.2744C93.6211 23.2368 93.6681 23.1992 93.7151 23.1522C94.2982 22.5597 94.8906 21.9955 95.6618 21.6287C96.4893 21.2243 97.0818 20.519 97.6742 19.8137C98.1444 19.2495 98.7369 18.8263 99.4704 18.6476C99.5926 18.6194 99.7713 18.5442 99.8277 18.6759C99.8936 18.8169 99.7337 18.9204 99.6209 18.9956C99.4986 19.0896 99.3763 19.1555 99.2353 19.2213C98.6522 19.4752 98.3137 19.983 97.9657 20.4814C96.8467 22.0895 95.342 23.1804 93.4988 23.8104C93.292 23.8763 93.0851 23.9515 92.8594 23.9233Z" fill="white"/>
<path d="M92.3963 50.2738C91.738 50.2738 91.0797 50.2738 90.4308 50.2738C90.1299 50.2738 89.8948 50.0669 89.8572 49.7754C89.8478 49.6813 89.876 49.6155 89.97 49.6061C90.0264 49.5967 90.0923 49.5967 90.1487 49.5967C91.4276 49.5967 92.7066 49.5967 93.9761 49.5967C94.3335 49.5967 94.5122 49.7283 94.6156 50.0575C94.6814 50.255 94.5592 50.2738 94.4087 50.2738C93.7504 50.2738 93.0733 50.2738 92.3963 50.2738Z" fill="white"/>
<path d="M92.859 23.9238C92.859 23.9352 92.8477 23.9465 92.8477 23.9465C92.8477 23.9465 92.859 23.9352 92.859 23.9238Z" fill="white"/>
<path d="M80.6133 16.8987C80.6227 16.7483 80.6885 16.673 80.8296 16.7483C81.0929 16.8893 81.3374 17.0586 81.5349 17.2749C81.5819 17.3313 81.6101 17.3971 81.5913 17.463C81.5161 17.7263 81.4408 17.9802 81.3562 18.2341C81.328 18.3281 81.2622 18.4128 81.1493 18.3846C81.0365 18.3563 81.0647 18.2623 81.0741 18.1871C81.1117 17.8767 80.9894 17.6228 80.8202 17.3783C80.7261 17.2467 80.6603 17.0774 80.6133 16.8987Z" fill="white"/>
</svg>
