<svg width="60" height="60" viewBox="0 0 60 60" fill="none" xmlns="http://www.w3.org/2000/svg">
<path d="M48.4498 43.3332H40.215L47.3429 39.298C47.9304 38.9684 48.36 38.4233 48.5366 37.7824C48.7137 37.1416 48.623 36.4584 48.2849 35.8835L42.3332 25.7799C41.9943 25.2054 41.4359 24.7865 40.7819 24.616C40.1278 24.4421 39.4297 24.5336 38.8453 24.8697L31.7159 28.906L35.8306 21.9198C36.1722 21.3453 36.266 20.6609 36.0917 20.0182C35.9174 19.3754 35.4886 18.8272 34.901 18.4953L24.5969 12.6604C24.0105 12.33 23.3144 12.2419 22.6619 12.4151C22.0094 12.5883 21.4538 13.0083 21.1172 13.5831L17.0001 20.5751V12.5002C16.9986 11.12 15.8577 10.0015 14.45 10H2.55016C1.1424 10.0015 0.0015564 11.12 0 12.5002V57.4998C0.0015564 58.88 1.1424 59.9985 2.55016 60H48.4498C49.8576 59.9985 50.9984 58.88 51 57.4998V45.8334C50.9984 44.4532 49.8576 43.3347 48.4498 43.3332ZM2.55016 43.3332C2.25989 43.3363 1.97234 43.3881 1.69997 43.4869V35H8.50493L3.59761 43.3332H2.55016ZM36.815 43.3332H25.1914L21.2973 36.7288L30.1295 31.7289L36.9263 43.2706L36.815 43.3332ZM28.7704 30.5734L18.7075 36.2707L11.9667 32.4548L17.0647 23.7981L28.8365 30.4613L28.7704 30.5734ZM15.3002 23.4613L10.0769 32.3312C10.0742 32.3354 10.0699 32.3373 10.0672 32.3419L10.0625 32.3553L9.48663 33.3334H1.69997V23.3335H15.3002V23.4613ZM11.117 33.8983L17.0075 37.2331L6.2322 43.3332H5.56062L11.117 33.8983ZM19.1215 37.961L19.1324 37.9549L19.8254 37.5623L23.2281 43.3332H9.63215L19.1215 37.961ZM15.3002 44.9998H25.5V58.3334H15.3002V44.9998ZM27.2 44.9998H37.3998V58.3334H27.2V44.9998ZM39.6986 26.3113C39.8924 26.1991 40.1247 26.1682 40.3422 26.2254C40.5616 26.2834 40.7488 26.4238 40.8632 26.6164L46.8113 36.7147C46.9246 36.9066 46.9549 37.1347 46.8954 37.3487C46.8359 37.5623 46.6919 37.7443 46.495 37.853L38.3982 42.4364L31.6019 30.895L39.6986 26.3113ZM22.5911 14.414C22.7024 14.2225 22.8872 14.0821 23.1047 14.0241C23.3218 13.9661 23.5537 13.9951 23.7491 14.105L34.0477 19.9365C34.2458 20.0483 34.3905 20.2325 34.4501 20.4488C34.5084 20.6636 34.4761 20.8921 34.3602 21.0832L29.6871 29.0178L17.9149 22.3547L22.5911 14.414ZM2.55016 11.6666H14.45C14.9192 11.6674 15.2994 12.0401 15.3002 12.5002V21.6665H1.69997V12.5002C1.70075 12.0401 2.0809 11.6674 2.55016 11.6666ZM1.69997 57.4998V45.8334C1.70075 45.3733 2.0809 45.0006 2.55016 44.9998H13.6002V58.3334H2.55016C2.0809 58.3326 1.70075 57.9599 1.69997 57.4998ZM49.3 57.4998C49.2992 57.9599 48.9191 58.3326 48.4498 58.3334H39.1002V44.9998H48.4498C48.9191 45.0006 49.2992 45.3733 49.3 45.8334V57.4998Z" fill="#325837"/>
<path d="M8.5 48C6.56695 48 5 49.5669 5 51.5C5 53.4331 6.56695 55 8.5 55C10.4331 55 12 53.4331 12 51.5C11.998 49.5678 10.4322 48.002 8.5 48ZM8.5 53.25C7.53347 53.25 6.75 52.4665 6.75 51.5C6.75 50.5335 7.53347 49.75 8.5 49.75C9.46653 49.75 10.25 50.5335 10.25 51.5C10.2492 52.4661 9.46612 53.2488 8.5 53.25Z" fill="#325837"/>
</svg>
