<svg width="60" height="61" viewBox="0 0 60 61" fill="none" xmlns="http://www.w3.org/2000/svg">
<path fill-rule="evenodd" clip-rule="evenodd" d="M54 24.7185C54 35.0559 45.6185 43.436 35.2793 43.436C34.8718 43.436 34.4674 43.423 34.0664 43.3973L34.2773 41.7198C34.6089 41.739 34.9429 41.7488 35.2793 41.7488C44.6865 41.7488 52.3125 34.1241 52.3125 24.7185C52.3125 15.3129 44.6865 7.68819 35.2793 7.68819C25.8721 7.68819 18.2461 15.3129 18.2461 24.7185C18.2461 25.6886 18.3272 26.6398 18.4831 27.5656H16.7738C16.6321 26.6373 16.5586 25.6865 16.5586 24.7185C16.5586 14.3811 24.9401 6.00098 35.2793 6.00098C45.6185 6.00098 54 14.3811 54 24.7185Z" fill="#325837"/>
<path d="M35.4375 41.433C35.4375 40.5381 35.0819 39.6798 34.449 39.047C33.816 38.4141 32.9576 38.0586 32.0625 38.0586H21.2034L21.9375 32.2546C21.9416 32.221 21.9416 32.187 21.9375 32.1534C21.9375 27.4798 18.63 26.2481 16.875 26.2481C16.6856 26.2411 16.4994 26.2981 16.3463 26.4098C16.1933 26.5215 16.0823 26.6815 16.0312 26.864L12.6562 38.5816C12.0893 39.6993 11.21 40.6284 10.125 41.2559V40.5894C10.125 40.3657 10.0361 40.1511 9.87787 39.9929C9.71964 39.8347 9.50503 39.7458 9.28125 39.7458H0.84375C0.619974 39.7458 0.405362 39.8347 0.247129 39.9929C0.0888948 40.1511 0 40.3657 0 40.5894L0 59.1488C0 59.3725 0.0888948 59.5871 0.247129 59.7453C0.405362 59.9035 0.619974 59.9924 0.84375 59.9924H9.28125C9.50503 59.9924 9.71964 59.9035 9.87787 59.7453C10.0361 59.5871 10.125 59.3725 10.125 59.1488V58.5835L14.9597 59.9924C15.0351 60.0053 15.1121 60.0053 15.1875 59.9924H29.5312C30.1705 59.9834 30.794 59.793 31.3292 59.4435C31.8644 59.094 32.2894 58.5997 32.5546 58.0181C32.8198 57.4366 32.9143 56.7917 32.8272 56.1585C32.7401 55.5253 32.4749 54.9298 32.0625 54.4414C32.4804 54.1899 32.8389 53.8508 33.1132 53.4475C33.3874 53.0441 33.571 52.5861 33.6512 52.1051C33.7314 51.624 33.7063 51.1312 33.5777 50.6607C33.4491 50.1903 33.22 49.7532 32.9062 49.3798C33.3242 49.1283 33.6826 48.7892 33.9569 48.3858C34.2312 47.9825 34.4147 47.5245 34.4949 47.0434C34.5751 46.5623 34.55 46.0696 34.4214 45.5991C34.2928 45.1286 34.0638 44.6916 33.75 44.3182C34.2576 44.0252 34.6802 43.6051 34.9761 43.0992C35.272 42.5933 35.431 42.0191 35.4375 41.433ZM8.4375 58.3052H1.6875V41.433H8.4375V58.3052ZM29.5312 58.3052H15.3056L10.125 56.8288V43.019C12.6562 42.4369 14.1834 39.4253 14.2509 39.2818C14.2743 39.2327 14.294 39.182 14.31 39.13L17.4909 28.0113C18.4781 28.2306 20.2331 29.0489 20.25 32.1028L19.4062 38.801C19.3918 38.9187 19.4024 39.0382 19.4373 39.1516C19.4722 39.265 19.5306 39.3697 19.6087 39.459C19.6888 39.5501 19.7874 39.6228 19.8981 39.6723C20.0088 39.7218 20.1288 39.7469 20.25 39.7458H32.0625C32.5101 39.7458 32.9393 39.9236 33.2557 40.24C33.5722 40.5564 33.75 40.9856 33.75 41.433C33.75 41.8805 33.5722 42.3097 33.2557 42.6261C32.9393 42.9425 32.5101 43.1202 32.0625 43.1202H27.8438C27.62 43.1202 27.4054 43.2091 27.2471 43.3673C27.0889 43.5255 27 43.7401 27 43.9639C27 44.1876 27.0889 44.4022 27.2471 44.5604C27.4054 44.7186 27.62 44.8075 27.8438 44.8075H31.2188C31.6663 44.8075 32.0955 44.9852 32.412 45.3016C32.7285 45.618 32.9062 46.0472 32.9062 46.4947C32.9062 46.9421 32.7285 47.3713 32.412 47.6877C32.0955 48.0041 31.6663 48.1819 31.2188 48.1819H27C26.7762 48.1819 26.5616 48.2708 26.4034 48.429C26.2451 48.5872 26.1562 48.8018 26.1562 49.0255C26.1562 49.2492 26.2451 49.4638 26.4034 49.622C26.5616 49.7802 26.7762 49.8691 27 49.8691H30.375C30.8226 49.8691 31.2518 50.0469 31.5682 50.3633C31.8847 50.6797 32.0625 51.1088 32.0625 51.5563C32.0625 52.0038 31.8847 52.4329 31.5682 52.7493C31.2518 53.0658 30.8226 53.2435 30.375 53.2435H26.1562C25.9325 53.2435 25.7179 53.3324 25.5596 53.4906C25.4014 53.6488 25.3125 53.8634 25.3125 54.0871C25.3125 54.3109 25.4014 54.5254 25.5596 54.6836C25.7179 54.8419 25.9325 54.9307 26.1562 54.9307H29.5312C29.9788 54.9307 30.408 55.1085 30.7245 55.4249C31.041 55.7413 31.2188 56.1705 31.2188 56.6179C31.2188 57.0654 31.041 57.4946 30.7245 57.811C30.408 58.1274 29.9788 58.3052 29.5312 58.3052Z" fill="#325837"/>
<path d="M43.0312 27.9348C43.0312 26.1449 42.3201 24.4283 41.0542 23.1627C39.7883 21.897 38.0715 21.186 36.2812 21.186H34.5938C34.1462 21.186 33.717 21.0082 33.4005 20.6918C33.084 20.3754 32.9062 19.9462 32.9062 19.4988C32.9062 19.0513 33.084 18.6221 33.4005 18.3057C33.717 17.9893 34.1462 17.8115 34.5938 17.8115H40.5C41.1713 17.8115 41.8152 17.5449 42.2899 17.0703C42.7646 16.5957 43.0312 15.9519 43.0312 15.2807C43.0312 14.6095 42.7646 13.9658 42.2899 13.4912C41.8152 13.0165 41.1713 12.7499 40.5 12.7499H37.9688V10.2191C37.9688 9.99536 37.8799 9.78078 37.7216 9.62257C37.5634 9.46437 37.3488 9.37549 37.125 9.37549H33.75C33.5262 9.37549 33.3116 9.46437 33.1534 9.62257C32.9951 9.78078 32.9062 9.99536 32.9062 10.2191V12.9692C31.32 13.3837 29.9389 14.3613 29.0207 15.7194C28.1026 17.0775 27.7102 18.7233 27.9169 20.3495C28.1235 21.9757 28.9151 23.471 30.1438 24.5564C31.3724 25.6418 32.9542 26.2429 34.5938 26.2476H36.2812C36.7288 26.2476 37.158 26.4254 37.4745 26.7418C37.791 27.0582 37.9688 27.4873 37.9688 27.9348C37.9688 28.3823 37.791 28.8114 37.4745 29.1279C37.158 29.4443 36.7288 29.622 36.2812 29.622H30.375C29.7037 29.622 29.0598 29.8887 28.5851 30.3633C28.1104 30.8379 27.8438 31.4816 27.8438 32.1528C27.8438 32.8241 28.1104 33.4678 28.5851 33.9424C29.0598 34.417 29.7037 34.6837 30.375 34.6837H32.9062V37.2145C32.9062 37.4382 32.9951 37.6528 33.1534 37.811C33.3116 37.9692 33.5262 38.0581 33.75 38.0581H37.125C37.3488 38.0581 37.5634 37.9692 37.7216 37.811C37.8799 37.6528 37.9688 37.4382 37.9688 37.2145V34.4643C39.4168 34.0905 40.6998 33.2464 41.6161 32.0646C42.5324 30.8828 43.0301 29.4301 43.0312 27.9348ZM37.0069 32.9374C36.8041 32.966 36.6187 33.0674 36.4852 33.2226C36.3517 33.3778 36.2792 33.5763 36.2812 33.781V36.3709H34.5938V33.8401C34.5938 33.6163 34.5049 33.4017 34.3466 33.2435C34.1884 33.0853 33.9738 32.9964 33.75 32.9964H30.375C30.1512 32.9964 29.9366 32.9076 29.7784 32.7494C29.6201 32.5912 29.5312 32.3766 29.5312 32.1528C29.5312 31.9291 29.6201 31.7145 29.7784 31.5563C29.9366 31.3981 30.1512 31.3092 30.375 31.3092H36.2812C37.1764 31.3092 38.0348 30.9537 38.6677 30.3209C39.3007 29.6881 39.6562 28.8298 39.6562 27.9348C39.6562 27.0399 39.3007 26.1816 38.6677 25.5487C38.0348 24.9159 37.1764 24.5604 36.2812 24.5604H34.5938C33.3218 24.5493 32.1006 24.0598 31.1732 23.1894C30.2457 22.319 29.68 21.1314 29.5885 19.8629C29.4971 18.5944 29.8866 17.3379 30.6796 16.3435C31.4726 15.3491 32.6109 14.6896 33.8681 14.4962C34.0709 14.4675 34.2563 14.3661 34.3898 14.2109C34.5233 14.0557 34.5958 13.8573 34.5938 13.6526V11.0627H36.2812V13.5935C36.2812 13.8173 36.3701 14.0318 36.5284 14.19C36.6866 14.3482 36.9012 14.4371 37.125 14.4371H40.5C40.7238 14.4371 40.9384 14.526 41.0966 14.6842C41.2549 14.8424 41.3438 15.057 41.3438 15.2807C41.3438 15.5045 41.2549 15.719 41.0966 15.8772C40.9384 16.0355 40.7238 16.1243 40.5 16.1243H34.5938C33.6986 16.1243 32.8402 16.4799 32.2073 17.1127C31.5743 17.7455 31.2188 18.6038 31.2188 19.4988C31.2188 20.3937 31.5743 21.252 32.2073 21.8848C32.8402 22.5177 33.6986 22.8732 34.5938 22.8732H36.2812C37.5532 22.8843 38.7744 23.3737 39.7018 24.2441C40.6293 25.1146 41.195 26.3022 41.2865 27.5707C41.3779 28.8392 40.9884 30.0957 40.1954 31.0901C39.4024 32.0845 38.2641 32.744 37.0069 32.9374V32.9374Z" fill="#325837"/>
</svg>
