<svg width="60" height="60" viewBox="0 0 60 60" fill="none" xmlns="http://www.w3.org/2000/svg">
<path d="M52.9868 10.911C52.9533 10.5394 52.5567 10.2838 52.3251 10.2352L31.6344 6.01643C31.3638 5.96106 31.0839 6.04755 30.8891 6.24678L0.236854 37.4714C0.0890334 37.6249 0.00435763 37.8301 9.97151e-06 38.0452V38.0562V43.1246C-9.35441e-05 43.5255 0.276914 43.8713 0.66251 43.9514L4.66567 44.7673L0.242651 49.278C0.203522 49.3251 -0.00164628 49.559 9.97151e-06 49.8746V54.9371C-9.35441e-05 55.338 0.276914 55.6838 0.66251 55.7639L21.3656 59.9827C21.4201 59.9944 21.4756 60.0001 21.5313 59.9996C21.7509 59.9996 21.9615 59.9105 22.1167 59.7523L52.7574 28.5336C52.9126 28.3754 53 28.1609 53 27.9371V22.8746C53.0001 22.4736 52.7231 22.1278 52.3375 22.0477L48.3344 21.2309L52.7607 16.7211C52.9148 16.5624 53.0008 16.3478 53 16.1246V11.0469C52.9994 11.0013 52.9949 10.9559 52.9868 10.911V10.911ZM21.2588 53.1778L19.2448 52.7669C19.7617 51.1506 20.4741 49.6062 21.3656 48.1693C21.4201 48.1814 21.4756 48.1873 21.5313 48.1871C21.6405 48.187 21.7486 48.1646 21.8493 48.1212C21.9495 48.0797 22.0405 48.018 22.1167 47.9398L36.1891 33.6028C35.5104 35.4555 35.0547 37.3852 34.8318 39.3496L21.2588 53.1778ZM19.6324 47.8167C18.7879 49.272 18.1098 50.8211 17.6109 52.4337L10.1445 50.9149C10.5837 49.3109 11.1423 47.7435 11.8157 46.2262L19.6324 47.8167ZM21.2588 41.3653L19.9711 41.0996C22.1577 30.9652 27.0212 21.6323 34.0359 14.1097L38.6461 9.16615L42.1516 9.88081L37.7087 14.1434C32.1885 19.4269 28.7941 26.6131 28.1852 34.3048L21.2588 41.3653ZM36.724 8.77465L32.8319 12.947C25.6027 20.7018 20.5936 30.3239 18.3471 40.7713L10.4046 39.153C15.7595 29.5354 22.361 20.6962 30.0311 12.8736L34.4989 8.32156L36.724 8.77465ZM38.844 15.3719L44.144 10.2875L50.4891 11.5801L30.0767 32.3811C31.0471 25.871 34.1345 19.8814 38.844 15.3719ZM31.7412 7.75878L32.5495 7.92753L28.8627 11.6805C20.955 19.7411 14.1678 28.8669 8.69035 38.8037L2.50757 37.544L31.7412 7.75878ZM1.65626 39.0914L20.7031 42.9727V46.3139L1.65626 42.4327V39.0914ZM10.1512 45.8845C9.49622 47.4079 8.94997 48.9773 8.51645 50.5808L2.50757 49.3565L6.62501 45.1656L10.1512 45.8845ZM1.65626 50.9039L20.7031 54.7852V58.1264L1.65626 54.2452V50.9039ZM51.3438 27.5877L22.3594 57.119V54.4426L51.3438 24.9114V27.5877ZM50.4924 23.3926L36.8516 37.2883C37.5272 33.6499 39.3004 30.3169 41.9238 27.754L46.9207 22.6628L50.4924 23.3926ZM51.3438 15.7752L22.3594 45.3065V42.6301L51.3438 13.0989V15.7752Z" fill="#325837"/>
</svg>
