<svg width="60" height="60" viewBox="0 0 60 60" fill="none" xmlns="http://www.w3.org/2000/svg">
<path d="M15.0019 30.2008C14.8924 30.2027 14.7837 30.183 14.6818 30.1429C14.58 30.1028 14.4871 30.043 14.4083 29.967C14.2493 29.8135 14.1578 29.603 14.1539 29.382C14.1501 29.161 14.2342 28.9475 14.3877 28.7885C14.5412 28.6295 14.7517 28.538 14.9727 28.5341C19.0616 28.4884 23.1417 28.143 27.1802 27.5008C27.2519 27.4858 27.3254 27.4807 27.3985 27.4858C28.4108 27.5393 29.3928 27.849 30.2527 28.3858C30.3947 28.4889 30.5005 28.6343 30.555 28.8011C30.6095 28.9679 30.6099 29.1477 30.5563 29.3148C30.5026 29.4819 30.3976 29.6278 30.2561 29.7316C30.1147 29.8355 29.944 29.8921 29.7685 29.8933C29.5723 29.8932 29.3819 29.8259 29.2293 29.7024C28.6676 29.3805 28.0384 29.1941 27.3918 29.1583C23.2993 29.8013 19.1659 30.1497 15.0235 30.2008H15.0019Z" fill="#325837"/>
<path d="M45.4841 50.0267C44.7731 50.0276 44.0801 49.803 43.5049 49.3851L43.3257 49.2609C43.3024 49.2451 43.2632 49.2134 43.2266 49.1776L33.4174 42.1134C33.3258 42.0509 33.2476 41.9707 33.1874 41.8776C33.1272 41.7845 33.0862 41.6803 33.0668 41.5712C33.0473 41.462 33.0499 41.3501 33.0742 41.2419C33.0986 41.1337 33.1443 41.0315 33.2087 40.9413C33.2731 40.851 33.3548 40.7745 33.4492 40.7162C33.5435 40.6579 33.6485 40.619 33.758 40.6018C33.8676 40.5847 33.9794 40.5895 34.0871 40.6161C34.1947 40.6427 34.296 40.6905 34.3849 40.7567L35.0516 41.2317L44.2307 47.8509C44.2582 47.8706 44.2844 47.892 44.3091 47.9151L44.4682 48.0259C44.8297 48.285 45.2768 48.3954 45.7173 48.3345C46.1579 48.2736 46.5582 48.0459 46.8357 47.6984C47.006 47.4835 47.1221 47.2308 47.1741 46.9616C47.2262 46.6924 47.2128 46.4146 47.1349 46.1517C47.0413 45.8205 46.8478 45.5263 46.5807 45.3092L33.4607 34.6201C28.4366 37.2867 24.8774 35.9151 23.1782 34.8292C22.8974 34.6465 22.6694 34.3933 22.517 34.0949C22.3646 33.7966 22.293 33.4635 22.3094 33.1288C22.3259 32.7942 22.4298 32.4697 22.6107 32.1877C22.7917 31.9057 23.0434 31.6761 23.3407 31.5217L30.8507 27.5334C31.3301 27.2826 31.8543 27.1292 32.3933 27.082C32.9322 27.0348 33.4751 27.0948 33.9907 27.2584L38.4332 28.7001C39.7411 29.1302 41.1597 29.0791 42.4332 28.5559L44.3682 27.7634C44.4695 27.7219 44.578 27.7007 44.6875 27.7011C44.7969 27.7015 44.9052 27.7234 45.0062 27.7657C45.1072 27.8079 45.1989 27.8697 45.276 27.9473C45.3531 28.025 45.4142 28.1171 45.4557 28.2184C45.4973 28.3197 45.5184 28.4282 45.5181 28.5376C45.5177 28.6471 45.4957 28.7554 45.4535 28.8564C45.4112 28.9574 45.3495 29.049 45.2718 29.1262C45.1941 29.2033 45.102 29.2644 45.0007 29.3059L43.0674 30.0976C41.4275 30.7726 39.6002 30.8388 37.9157 30.2842L33.4774 28.8434C33.1734 28.7479 32.8535 28.7135 32.5362 28.7421C32.2188 28.7707 31.9103 28.8618 31.6282 29.0101L24.1166 32.9992C24.0748 33.0189 24.0392 33.0499 24.0139 33.0886C23.9886 33.1272 23.9745 33.1722 23.9732 33.2184C23.9698 33.2602 23.9779 33.3021 23.9967 33.3396C24.0156 33.3771 24.0443 33.4087 24.0799 33.4309C25.8299 34.5492 28.8341 35.3692 33.1349 32.8984C33.2812 32.8144 33.4495 32.7767 33.6177 32.7904C33.7858 32.8041 33.9458 32.8685 34.0766 32.9751L47.6266 44.0167C48.1579 44.4454 48.5443 45.0273 48.7332 45.6834C48.8829 46.1998 48.9081 46.7443 48.8067 47.2723C48.7053 47.8002 48.4802 48.2967 48.1499 48.7209C47.8352 49.1282 47.4312 49.4578 46.969 49.6842C46.5068 49.9106 45.9988 50.0278 45.4841 50.0267V50.0267Z" fill="#325837"/>
<path d="M42.0365 53.8856C41.3303 53.8864 40.6414 53.667 40.0656 53.2581L31.0573 46.8665C30.8813 46.737 30.7632 46.5435 30.7284 46.3278C30.6936 46.112 30.745 45.8913 30.8714 45.713C30.9979 45.5348 31.1892 45.4134 31.4044 45.3749C31.6195 45.3364 31.8411 45.384 32.0215 45.5073L41.0298 51.8981C41.4077 52.145 41.8665 52.2362 42.3101 52.1528C42.7538 52.0694 43.148 51.8178 43.4105 51.4505C43.673 51.0833 43.7834 50.6288 43.7187 50.182C43.6539 49.7352 43.4191 49.3308 43.0631 49.0531L34.0848 42.5823C33.9193 42.4484 33.8113 42.2563 33.783 42.0454C33.7547 41.8344 33.8081 41.6206 33.9324 41.4478C34.0567 41.275 34.2424 41.1563 34.4514 41.1161C34.6604 41.0759 34.8769 41.1171 35.0565 41.2315L44.0373 47.7031C44.6219 48.1264 45.0574 48.7238 45.2815 49.4099C45.5056 50.0959 45.5066 50.8353 45.2845 51.522C45.0625 52.2087 44.6286 52.8074 44.0453 53.2323C43.4619 53.6572 42.759 53.8865 42.0373 53.8873L42.0365 53.8856Z" fill="#325837"/>
<path d="M38.1463 57.2264C37.4755 57.2262 36.8209 57.0206 36.2705 56.6373L28.198 51.0456C28.0162 50.9197 27.8918 50.7268 27.8523 50.5093C27.8128 50.2917 27.8613 50.0674 27.9871 49.8856C28.113 49.7038 28.3059 49.5795 28.5235 49.5399C28.741 49.5004 28.9654 49.5489 29.1471 49.6748L37.2196 55.2664C37.3969 55.3891 37.5966 55.4755 37.8073 55.521C38.018 55.5664 38.2356 55.5699 38.4476 55.5312C38.6597 55.4925 38.862 55.4124 39.0431 55.2955C39.2242 55.1785 39.3804 55.0271 39.503 54.8498C39.7468 54.4942 39.8415 54.0573 39.7668 53.6327C39.692 53.2081 39.4536 52.8297 39.103 52.5789L31.0696 46.8806C30.9783 46.8182 30.9003 46.7381 30.8402 46.6452C30.7801 46.5523 30.7392 46.4484 30.7197 46.3395C30.7002 46.2305 30.7026 46.1188 30.7267 46.0109C30.7509 45.9029 30.7963 45.8008 30.8603 45.7106C30.9243 45.6203 31.0057 45.5437 31.0996 45.4852C31.1935 45.4268 31.2982 45.3876 31.4074 45.37C31.5166 45.3524 31.6283 45.3567 31.7358 45.3827C31.8434 45.4087 31.9447 45.4559 32.0338 45.5214L40.0671 51.2198C40.7742 51.7251 41.2549 52.4877 41.4059 53.3436C41.5569 54.1995 41.3661 55.0805 40.8746 55.7973C40.629 56.1555 40.3149 56.4615 39.9502 56.6975C39.5856 56.9335 39.1778 57.0949 38.7505 57.1723C38.5511 57.2087 38.3489 57.2268 38.1463 57.2264V57.2264Z" fill="#325837"/>
<path d="M33.3844 59.9662C32.8014 59.9633 32.2293 59.8076 31.7252 59.5145L27.2444 56.9312C27.0546 56.8199 26.9165 56.638 26.8602 56.4253C26.804 56.2125 26.8341 55.9862 26.9442 55.7956C27.0542 55.605 27.2351 55.4657 27.4475 55.408C27.6599 55.3504 27.8864 55.3791 28.0777 55.4878L32.5577 58.0712C32.9365 58.2849 33.3838 58.3422 33.8042 58.2307C34.2245 58.1192 34.5847 57.8478 34.8077 57.4745C35.0196 57.1166 35.087 56.6913 34.9961 56.2854C34.9052 55.8796 34.6629 55.5237 34.3186 55.2903L28.5936 51.3245C28.5036 51.2622 28.4268 51.1827 28.3676 51.0907C28.3083 50.9987 28.2677 50.896 28.2482 50.7883C28.2287 50.6806 28.2305 50.5701 28.2537 50.4632C28.2768 50.3562 28.3208 50.2549 28.3832 50.1649C28.4455 50.075 28.5249 49.9982 28.6169 49.9389C28.7089 49.8796 28.8117 49.8391 28.9194 49.8195C29.027 49.8 29.1375 49.8019 29.2445 49.825C29.3514 49.8482 29.4528 49.8922 29.5427 49.9545L35.2669 53.9195C35.848 54.3218 36.2855 54.8991 36.5156 55.5673C36.7457 56.2356 36.7565 56.9598 36.5463 57.6346C36.3362 58.3094 35.916 58.8995 35.3471 59.3188C34.7782 59.7382 34.0903 59.965 33.3836 59.9662H33.3844Z" fill="#325837"/>
<path d="M23.9503 59.47C23.2686 59.471 22.6027 59.264 22.0417 58.8766C21.4807 58.4893 21.0513 57.9399 20.8107 57.302C20.5701 56.6641 20.5299 55.968 20.6954 55.3067C20.861 54.6453 21.2243 54.0502 21.737 53.6008L23.9628 51.6508C24.2936 51.3604 24.6783 51.138 25.095 50.9963C25.5117 50.8546 25.9523 50.7964 26.3915 50.8249C26.8307 50.8535 27.26 50.9683 27.6549 51.1627C28.0497 51.3572 28.4024 51.6275 28.6928 51.9583C28.9832 52.2891 29.2055 52.6739 29.3471 53.0906C29.4888 53.5074 29.5469 53.9479 29.5183 54.3872C29.4897 54.8264 29.3748 55.2557 29.1802 55.6505C28.9857 56.0453 28.7153 56.398 28.3845 56.6883L26.1586 58.6425C25.5477 59.1778 24.7626 59.472 23.9503 59.47V59.47ZM26.1728 52.4841C25.7641 52.4831 25.3691 52.6312 25.062 52.9008L22.8353 54.8533C22.669 54.9992 22.533 55.1765 22.4352 55.375C22.3373 55.5735 22.2796 55.7893 22.2651 56.0101C22.2507 56.2309 22.2799 56.4524 22.3511 56.6619C22.4222 56.8714 22.534 57.0649 22.6799 57.2312C22.9746 57.5672 23.3907 57.7723 23.8367 57.8014C24.0575 57.8158 24.279 57.7866 24.4885 57.7155C24.698 57.6443 24.8915 57.5326 25.0578 57.3866L27.2836 55.4325C27.5404 55.2065 27.7223 54.9076 27.805 54.5757C27.8878 54.2438 27.8675 53.8946 27.7469 53.5745C27.6263 53.2544 27.4111 52.9786 27.1299 52.7839C26.8487 52.5891 26.5149 52.4845 26.1728 52.4841V52.4841Z" fill="#325837"/>
<path d="M18.904 57.1987C18.8298 57.1987 18.7557 57.1987 18.6815 57.192C18.242 57.1645 17.8123 57.0502 17.4173 56.8557C17.0222 56.6611 16.6696 56.3903 16.3798 56.0587C16.0855 55.7278 15.8594 55.3421 15.7145 54.9237C15.5696 54.5052 15.5087 54.0623 15.5354 53.6202C15.5621 53.1782 15.6759 52.7458 15.8701 52.3478C16.0644 51.9499 16.3353 51.5942 16.6673 51.3012L20.3857 48.037C20.7164 47.7466 21.1012 47.5243 21.5179 47.3825C21.9346 47.2408 22.3751 47.1826 22.8143 47.2112C23.2536 47.2397 23.6829 47.3545 24.0777 47.549C24.4726 47.7434 24.8253 48.0138 25.1157 48.3445L24.5132 48.922L25.139 48.372C25.4295 48.7027 25.652 49.0875 25.7937 49.5042C25.9355 49.9209 25.9938 50.3615 25.9652 50.8007C25.9366 51.24 25.8218 51.6693 25.6273 52.0642C25.4328 52.459 25.1624 52.8117 24.8315 53.102L21.1098 56.3662C20.5009 56.9038 19.7163 57.1999 18.904 57.1987V57.1987ZM22.5915 48.8704C22.1833 48.8693 21.7888 49.0174 21.4823 49.287L17.764 52.5512C17.5151 52.776 17.3377 53.069 17.254 53.3938C17.1703 53.7185 17.184 54.0608 17.2933 54.3778C17.4027 54.6949 17.6028 54.9728 17.8689 55.177C18.135 55.3812 18.4553 55.5026 18.7898 55.5262C19.0108 55.5413 19.2326 55.5123 19.4422 55.4408C19.6518 55.3692 19.8451 55.2566 20.0107 55.1095L23.729 51.8454C23.8954 51.6994 24.0314 51.5221 24.1292 51.3236C24.227 51.125 24.2848 50.9092 24.2992 50.6883C24.3136 50.4674 24.2843 50.2459 24.2131 50.0364C24.1418 49.8268 24.03 49.6334 23.884 49.467L23.8598 49.4395C23.7144 49.2738 23.5376 49.1385 23.3397 49.0414C23.1417 48.9443 22.9266 48.8873 22.7065 48.8737C22.6673 48.872 22.6282 48.8712 22.5907 48.8712L22.5915 48.8704Z" fill="#325837"/>
<path d="M14.6988 54.1439C14.6255 54.1439 14.5513 54.1439 14.4763 54.1372C14.0368 54.1097 13.6071 53.9954 13.2121 53.8009C12.817 53.6064 12.4644 53.3355 12.1747 53.0039L12.0838 52.8956C11.4981 52.2274 11.2016 51.354 11.2596 50.4674C11.3176 49.5808 11.7252 48.7534 12.393 48.1672L16.7038 44.3831C17.0345 44.0926 17.4193 43.8701 17.836 43.7283C18.2527 43.5866 18.6933 43.5283 19.1325 43.5569C19.5718 43.5854 20.0011 43.7002 20.396 43.8948C20.7908 44.0893 21.1435 44.3597 21.4338 44.6906L21.528 44.7981C22.1139 45.4661 22.4105 46.3396 22.3526 47.2263C22.2946 48.113 21.8868 48.9404 21.2188 49.5264L16.908 53.3106C16.2983 53.8491 15.5123 54.1456 14.6988 54.1439V54.1439ZM18.9097 45.2172C18.5015 45.2162 18.107 45.3644 17.8005 45.6339L13.4897 49.4181C13.1534 49.713 12.9481 50.1295 12.9189 50.5758C12.8897 51.0221 13.0389 51.4618 13.3338 51.7981L13.428 51.9056C13.7231 52.2409 14.1392 52.4454 14.585 52.4741C15.0308 52.5029 15.4697 52.3535 15.8055 52.0589L20.1163 48.2747C20.2827 48.1288 20.4187 47.9515 20.5165 47.7529C20.6144 47.5544 20.6721 47.3385 20.6865 47.1177C20.7009 46.8968 20.6717 46.6753 20.6004 46.4657C20.5292 46.2562 20.4173 46.0627 20.2713 45.8964L20.1788 45.7906C20.0333 45.6242 19.8562 45.4882 19.6578 45.3907C19.4594 45.2931 19.2436 45.2359 19.023 45.2222C18.9838 45.2189 18.9472 45.2172 18.9097 45.2172V45.2172Z" fill="#325837"/>
<path d="M11.077 50.4319C11.0037 50.4319 10.9287 50.4319 10.8545 50.4244C10.1888 50.3825 9.55054 50.1441 9.02029 49.7395C8.49004 49.3349 8.09165 48.7821 7.87546 48.1511C7.65928 47.5202 7.635 46.8392 7.80571 46.1945C7.97641 45.5497 8.33443 44.97 8.83451 44.5286L11.5337 42.1594C11.8644 41.869 12.2491 41.6465 12.6658 41.5047C13.0826 41.3629 13.5231 41.3047 13.9624 41.3332C14.4016 41.3618 14.831 41.4766 15.2258 41.6711C15.6207 41.8657 15.9734 42.1361 16.2637 42.4669L16.2928 42.5003C16.5833 42.831 16.8058 43.2157 16.9476 43.6324C17.0893 44.0492 17.1476 44.4897 17.1191 44.929C17.0905 45.3682 16.9757 45.7976 16.7812 46.1924C16.5866 46.5873 16.3162 46.9399 15.9853 47.2303L13.2862 49.5994C12.6764 50.1378 11.8904 50.4339 11.077 50.4319ZM13.7437 42.9928C13.3355 42.9917 12.941 43.1399 12.6345 43.4094L9.93534 45.7786C9.76897 45.9246 9.63298 46.1019 9.53514 46.3004C9.43731 46.4989 9.37954 46.7148 9.36515 46.9357C9.35076 47.1565 9.38002 47.3781 9.45126 47.5876C9.5225 47.7972 9.63432 47.9906 9.78034 48.1569C9.92521 48.3285 10.1027 48.4696 10.3025 48.5721C10.5023 48.6745 10.7205 48.7363 10.9443 48.7538C11.1682 48.7714 11.3933 48.7443 11.6066 48.6741C11.8199 48.604 12.0172 48.4922 12.187 48.3453L14.8862 45.9761C15.0526 45.8301 15.1885 45.6528 15.2864 45.4543C15.3842 45.2558 15.442 45.0399 15.4564 44.8191C15.4708 44.5982 15.4415 44.3767 15.3703 44.1671C15.299 43.9576 15.1872 43.7641 15.0412 43.5978L15.012 43.5644C14.8665 43.3978 14.6893 43.2616 14.4907 43.1639C14.2922 43.0662 14.0762 43.0089 13.8553 42.9953C13.8145 42.9944 13.777 42.9928 13.7395 42.9928H13.7437Z" fill="#325837"/>
<path d="M9.56453 45.8277C9.38417 45.828 9.20861 45.7695 9.06453 45.661L6.21704 43.4943C6.12993 43.4281 6.05672 43.3453 6.0016 43.2507C5.94648 43.1562 5.91052 43.0517 5.89578 42.9432C5.88104 42.8348 5.8878 42.7245 5.91568 42.6187C5.94357 42.5128 5.99202 42.4135 6.05829 42.3264C6.19211 42.1505 6.39034 42.0349 6.60937 42.0052C6.71782 41.9904 6.82811 41.9972 6.93395 42.0251C7.03978 42.0529 7.13909 42.1014 7.2262 42.1677L10.0737 44.3343C10.214 44.4395 10.3175 44.5863 10.3695 44.7537C10.4215 44.9211 10.4194 45.1007 10.3635 45.2669C10.3076 45.4331 10.2006 45.5774 10.0579 45.6792C9.91523 45.7811 9.74403 45.8354 9.5687 45.8343L9.56453 45.8277Z" fill="#325837"/>
<path d="M47.9342 46.7485C47.7694 46.7484 47.6084 46.6995 47.4713 46.608C47.3343 46.5164 47.2276 46.3863 47.1645 46.234C47.1014 46.0818 47.0849 45.9142 47.1171 45.7526C47.1492 45.591 47.2286 45.4425 47.3451 45.326L52.0209 40.6485C52.1781 40.4967 52.3886 40.4127 52.6071 40.4146C52.8256 40.4165 53.0346 40.5041 53.1891 40.6586C53.3436 40.8131 53.4312 41.0221 53.4331 41.2406C53.435 41.4591 53.351 41.6696 53.1992 41.8268L48.5234 46.5026C48.4462 46.5803 48.3544 46.642 48.2533 46.6842C48.1522 46.7264 48.0438 46.7482 47.9342 46.7485V46.7485Z" fill="#325837"/>
<path d="M54.3083 45.0211C54.1658 45.0213 54.0256 44.985 53.9012 44.9155C53.7767 44.8461 53.6722 44.7459 53.5975 44.6245L43.4225 28.0745C43.315 27.8994 43.276 27.6908 43.3129 27.4887C43.3498 27.2866 43.4601 27.1053 43.6225 26.9795L53.7 19.1745C53.8106 19.0888 53.941 19.0324 54.0792 19.0104C54.2174 18.9884 54.3589 19.0015 54.4907 19.0486C54.6224 19.0957 54.7402 19.1752 54.8331 19.2797C54.9261 19.3843 54.9912 19.5106 55.0225 19.647L59.9783 41.2695C60.0195 41.4454 60.0023 41.63 59.9294 41.7953C59.8565 41.9607 59.7318 42.0978 59.5742 42.1861L54.715 44.917C54.5906 44.986 54.4506 45.0219 54.3083 45.0211V45.0211ZM45.2342 27.8378L54.5975 43.067L58.215 41.0336L53.69 21.2903L45.2342 27.8378Z" fill="#325837"/>
<path d="M5.6927 45.3187C5.54997 45.3187 5.40966 45.2819 5.2852 45.2121L0.426034 42.4854C0.268392 42.3971 0.143726 42.2599 0.0708271 42.0946C-0.0020722 41.9293 -0.0192552 41.7447 0.0218679 41.5687L4.97853 19.9487C5.00982 19.8124 5.07494 19.6861 5.16789 19.5815C5.26084 19.4769 5.37863 19.3974 5.51039 19.3503C5.64215 19.3033 5.78365 19.2901 5.92182 19.3121C6.06 19.3341 6.19041 19.3906 6.30103 19.4763L16.3794 27.2804C16.5418 27.4062 16.6521 27.5875 16.689 27.7896C16.7259 27.9917 16.6869 28.2003 16.5794 28.3754L6.40353 44.9254C6.32845 45.0462 6.22372 45.1457 6.09929 45.2146C5.97487 45.2834 5.8349 45.3193 5.6927 45.3187V45.3187ZM1.78603 41.3371L5.40353 43.3696L14.7669 28.1396L6.31103 21.5921L1.78603 41.3371Z" fill="#325837"/>
</svg>
