<svg width="60" height="60" viewBox="0 0 60 60" fill="none" xmlns="http://www.w3.org/2000/svg">
<path d="M6.01563 41.5327C5.50572 41.5327 5.00727 41.6804 4.5833 41.9571C4.15933 42.2338 3.82888 42.6271 3.63375 43.0872C3.43862 43.5473 3.38756 44.0536 3.48704 44.5421C3.58652 45.0306 3.83206 45.4793 4.19262 45.8314C4.55317 46.1836 5.01255 46.4234 5.51266 46.5206C6.01277 46.6178 6.53114 46.5679 7.00223 46.3773C7.47332 46.1867 7.87597 45.864 8.15926 45.4498C8.44255 45.0357 8.59375 44.5489 8.59375 44.0508C8.59298 43.3832 8.32111 42.7432 7.83779 42.2711C7.35446 41.799 6.69915 41.5335 6.01563 41.5327V41.5327ZM6.01563 44.8902C5.84566 44.8902 5.67951 44.841 5.53818 44.7488C5.39686 44.6565 5.28671 44.5254 5.22167 44.3721C5.15662 44.2187 5.1396 44.0499 5.17276 43.8871C5.20592 43.7243 5.28777 43.5747 5.40796 43.4573C5.52814 43.3399 5.68127 43.26 5.84797 43.2276C6.01467 43.1952 6.18746 43.2118 6.34449 43.2754C6.50153 43.3389 6.63574 43.4465 6.73017 43.5845C6.8246 43.7226 6.875 43.8848 6.875 44.0508C6.87474 44.2734 6.78412 44.4867 6.62301 44.6441C6.4619 44.8015 6.24347 44.89 6.01563 44.8902Z" fill="#325837"/>
<path d="M38.6719 41.5327C38.162 41.5327 37.6635 41.6804 37.2395 41.9571C36.8156 42.2338 36.4851 42.6271 36.29 43.0872C36.0949 43.5473 36.0438 44.0536 36.1433 44.5421C36.2428 45.0306 36.4883 45.4793 36.8489 45.8314C37.2094 46.1836 37.6688 46.4234 38.1689 46.5206C38.669 46.6178 39.1874 46.5679 39.6585 46.3773C40.1296 46.1867 40.5322 45.864 40.8155 45.4498C41.0988 45.0357 41.25 44.5489 41.25 44.0508C41.2492 43.3832 40.9774 42.7432 40.494 42.2711C40.0107 41.799 39.3554 41.5335 38.6719 41.5327V41.5327ZM38.6719 44.8902C38.5019 44.8902 38.3358 44.841 38.1944 44.7488C38.0531 44.6565 37.943 44.5254 37.8779 44.3721C37.8129 44.2187 37.7959 44.0499 37.829 43.8871C37.8622 43.7243 37.944 43.5747 38.0642 43.4573C38.1844 43.3399 38.3375 43.26 38.5042 43.2276C38.6709 43.1952 38.8437 43.2118 39.0007 43.2754C39.1578 43.3389 39.292 43.4465 39.3864 43.5845C39.4809 43.7226 39.5313 43.8848 39.5313 44.0508C39.531 44.2734 39.4404 44.4867 39.2793 44.6441C39.1182 44.8015 38.8997 44.89 38.6719 44.8902Z" fill="#325837"/>
<path d="M44.6875 44.051C44.6875 43.2709 44.5285 42.4987 44.2197 41.7793C43.911 41.06 43.4586 40.4078 42.8892 39.861C42.3197 39.3142 41.6444 38.8835 40.9027 38.5943C40.1611 38.305 39.3679 38.1629 38.5694 38.1762C35.3089 38.2294 32.6562 40.9019 32.6562 44.1339V46.9536C30.3021 46.3278 26.8687 45.7297 22.3437 45.7297C17.8188 45.7297 14.3854 46.3278 12.0312 46.9536V44.051C12.0312 43.2602 11.8678 42.4775 11.5507 41.7499C11.2336 41.0222 10.7694 40.3646 10.1859 39.8164C9.6024 39.2681 8.91159 38.8406 8.15487 38.5594C7.39815 38.2782 6.5911 38.149 5.78206 38.1797C4.27019 38.242 2.83737 38.8565 1.76736 39.9016C0.697353 40.9467 0.0681941 42.3462 0.00448371 43.8229C-0.0528734 45.274 0.441726 46.6946 1.39296 47.8107C2.34419 48.9269 3.68473 49.6596 5.15622 49.8677V53.2841C5.15725 54.1743 5.51974 55.0277 6.16417 55.6571C6.80861 56.2866 7.68235 56.6406 8.59372 56.6416V59.1598C8.59372 59.3824 8.68426 59.5959 8.84543 59.7533C9.00659 59.9107 9.22518 59.9992 9.4531 59.9992H12.0312C12.1908 59.9991 12.3472 59.9557 12.483 59.8738C12.6187 59.7918 12.7285 59.6746 12.7998 59.5352L14.2811 56.6416H30.4064L31.8876 59.5352C31.959 59.6746 32.0687 59.7918 32.2045 59.8738C32.3402 59.9557 32.4966 59.9991 32.6562 59.9992H35.2343C35.4623 59.9992 35.6809 59.9107 35.842 59.7533C36.0032 59.5959 36.0937 59.3824 36.0937 59.1598V56.6416C37.0051 56.6406 37.8788 56.2866 38.5233 55.6571C39.1677 55.0277 39.5302 54.1743 39.5312 53.2841V49.8668C40.9622 49.6632 42.2705 48.9636 43.2171 47.8959C44.1638 46.8281 44.6857 45.4634 44.6875 44.051ZM11.5001 58.3204H10.3125V56.6416H12.3595L11.5001 58.3204ZM34.375 58.3204H33.1873L32.3279 56.6416H34.375V58.3204ZM38.6718 48.2479C38.4439 48.2479 38.2253 48.3363 38.0642 48.4937C37.903 48.6511 37.8125 48.8646 37.8125 49.0872V53.2841C37.8119 53.7292 37.6307 54.1559 37.3085 54.4706C36.9863 54.7853 36.5494 54.9624 36.0937 54.9629H8.59372C8.13805 54.9624 7.70119 54.7853 7.37898 54.4706C7.05677 54.1559 6.87551 53.7292 6.87497 53.2841V49.0872C6.87497 48.8646 6.78443 48.6511 6.62327 48.4937C6.4621 48.3363 6.24352 48.2479 6.0156 48.2479C5.43716 48.2479 4.86467 48.1338 4.33245 47.9125C3.80023 47.6912 3.31923 47.3672 2.9183 46.96C2.51736 46.5527 2.20473 46.0706 1.99916 45.5425C1.79359 45.0144 1.6993 44.4512 1.72194 43.8867C1.76748 42.8324 2.2167 41.8332 2.98064 41.087C3.74457 40.3409 4.76753 39.9021 5.84694 39.8576C6.42494 39.8355 7.00157 39.9275 7.54227 40.1282C8.08297 40.329 8.57661 40.6343 8.9936 41.0259C9.41059 41.4174 9.74234 41.8872 9.96896 42.407C10.1956 42.9268 10.3124 43.486 10.3125 44.051V47.4714C8.95777 47.9331 8.24589 48.3152 8.17241 48.3556C8.17241 48.3556 7.91221 48.9362 8.17241 49.402C8.43262 49.8677 9.0132 49.8198 9.0132 49.8198C9.05757 49.7957 13.5559 47.4085 22.3437 47.4085C31.1316 47.4085 35.6299 49.7957 35.6724 49.8189C35.6724 49.8189 36.1844 49.979 36.515 49.402C36.8457 48.8249 36.515 48.3556 36.515 48.3556C36.4416 48.3152 35.7297 47.9327 34.375 47.4714V44.1339C34.375 41.8123 36.2695 39.8927 38.598 39.8547C39.1654 39.8451 39.7291 39.9454 40.2565 40.1497C40.784 40.354 41.2648 40.6583 41.6712 41.0451C42.0776 41.4319 42.4015 41.8935 42.6243 42.4032C42.8471 42.9129 42.9643 43.4607 42.9692 44.0149C42.9741 44.5691 42.8665 45.1188 42.6527 45.6322C42.4389 46.1456 42.1232 46.6125 41.7236 47.0061C41.3241 47.3996 40.8487 47.712 40.3249 47.9251C39.8011 48.1382 39.2393 48.2479 38.6718 48.2479Z" fill="#325837"/>
<path d="M6.875 32.2994C6.87554 31.8543 7.0568 31.4276 7.37901 31.1129C7.70122 30.7982 8.13807 30.6212 8.59375 30.6207H36.0938C36.5494 30.6212 36.9863 30.7982 37.3085 31.1129C37.6307 31.4276 37.812 31.8543 37.8125 32.2994V38.7521H39.5312V32.2994C39.5302 31.4092 39.1677 30.5558 38.5233 29.9264C37.8789 29.297 37.0051 28.9429 36.0938 28.9419H8.59375C7.68238 28.9429 6.80864 29.297 6.1642 29.9264C5.51977 30.5558 5.15727 31.4092 5.15625 32.2994V38.7521H6.875V32.2994Z" fill="#325837"/>
<path d="M20.625 29.624H22.3437V24.7975H20.625V29.624Z" fill="#325837"/>
<path fill-rule="evenodd" clip-rule="evenodd" d="M48.125 7.95752H24.0625C23.1511 7.95852 22.2774 8.31258 21.633 8.94202C20.9885 9.57146 20.626 10.4249 20.625 11.315V14.6201H22.3437V11.315C22.3443 10.87 22.5255 10.4433 22.8478 10.1286C23.17 9.81384 23.6068 9.6368 24.0625 9.63628H35.2344V29.624H36.9531V9.63628H48.125C48.5806 9.6368 49.0175 9.81384 49.3397 10.1286C49.6619 10.4433 49.8432 10.87 49.8437 11.315V53.2839C49.8432 53.729 49.6619 54.1557 49.3397 54.4704C49.0175 54.7851 48.5806 54.9622 48.125 54.9627H36.0937V56.6415H42.4377L43.9189 59.535C43.9903 59.6744 44.1 59.7917 44.2357 59.8736C44.3715 59.9556 44.5279 59.999 44.6875 59.999H47.2656C47.4935 59.999 47.7121 59.9105 47.8733 59.7531C48.0344 59.5957 48.125 59.3822 48.125 59.1596V56.6415C49.0363 56.6405 49.9101 56.2864 50.5545 55.657C51.199 55.0275 51.5614 54.1741 51.5625 53.2839V11.315C51.5614 10.4249 51.199 9.57146 50.5545 8.94202C49.9101 8.31258 49.0363 7.95852 48.125 7.95752ZM45.2186 58.3202H46.4062V56.6415H44.3592L45.2186 58.3202Z" fill="#325837"/>
<path d="M6.01559 25.5847H13.75V29.7291H15.4687V25.5847H23.2031C23.322 25.5847 23.4395 25.5606 23.5484 25.5139C23.6572 25.4673 23.755 25.3991 23.8355 25.3136C23.916 25.2282 23.9774 25.1274 24.016 25.0175C24.0545 24.9077 24.0693 24.7913 24.0595 24.6756L23.2001 14.603C23.1822 14.3932 23.0842 14.1976 22.9256 14.0551C22.7669 13.9125 22.5593 13.8334 22.3437 13.8334H15.4687V12.1547C15.4687 12.1547 15.4687 11.4727 14.6093 11.4727C13.75 11.4727 13.75 12.1547 13.75 12.1547V13.8334H6.87497C6.65942 13.8334 6.45174 13.9125 6.29312 14.0551C6.1345 14.1976 6.03652 14.3932 6.0186 14.603L5.15922 24.6756C5.14934 24.7913 5.16415 24.9077 5.2027 25.0175C5.24125 25.1274 5.30271 25.2282 5.38319 25.3136C5.46368 25.3991 5.56143 25.4673 5.67029 25.5139C5.77914 25.5606 5.89672 25.5847 6.01559 25.5847ZM7.6657 15.5122H21.553L22.2692 23.9059H6.94952L7.6657 15.5122Z" fill="#325837"/>
<path d="M15.3613 38.9627C15.3613 39.3973 15.0006 39.7496 14.5557 39.7496C14.1107 39.7496 13.75 39.3973 13.75 38.9627C13.75 38.5281 14.1107 38.1758 14.5557 38.1758C15.0006 38.1758 15.3613 38.5281 15.3613 38.9627Z" fill="#325837"/>
<path d="M30.8301 38.9627C30.8301 39.3973 30.4694 39.7496 30.0244 39.7496C29.5795 39.7496 29.2188 39.3973 29.2188 38.9627C29.2188 38.5281 29.5795 38.1758 30.0244 38.1758C30.4694 38.1758 30.8301 38.5281 30.8301 38.9627Z" fill="#325837"/>
<path d="M23.0957 38.9627C23.0957 39.3973 22.735 39.7496 22.29 39.7496C21.8451 39.7496 21.4844 39.3973 21.4844 38.9627C21.4844 38.5281 21.8451 38.1758 22.29 38.1758C22.735 38.1758 23.0957 38.5281 23.0957 38.9627Z" fill="#325837"/>
</svg>
