<svg width="60" height="60" viewBox="0 0 60 60" fill="none" xmlns="http://www.w3.org/2000/svg">
<path fill-rule="evenodd" clip-rule="evenodd" d="M48.0375 12.3754H51.625C51.8571 12.3754 52.0796 12.4643 52.2437 12.6225C52.4078 12.7808 52.5 12.9954 52.5 13.2192V48.6566C52.5 48.8804 52.4078 49.095 52.2437 49.2533C52.0796 49.4115 51.8571 49.5004 51.625 49.5004H50.75V52.0316C50.75 52.2554 50.6578 52.47 50.4937 52.6283C50.3296 52.7865 50.1071 52.8754 49.875 52.8754H38.7783L38.3539 53.5841C38.2984 53.6774 38.2247 53.7593 38.1369 53.8255L30.73 59.4448C30.5925 59.5491 30.4258 59.6113 30.2514 59.6233C30.0769 59.6353 29.9027 59.5966 29.7513 59.5123C29.5998 59.4279 29.4781 59.3017 29.4018 59.15C29.3254 58.9982 29.298 58.8279 29.323 58.661L30.1875 52.8754H0.875C0.642936 52.8754 0.420376 52.7865 0.256282 52.6283C0.0921872 52.47 0 52.2554 0 52.0316V13.2192C0 12.9954 0.0921872 12.7808 0.256282 12.6225C0.420376 12.4643 0.642936 12.3754 0.875 12.3754H4.4625C4.62909 11.5767 5.03276 10.8418 5.62442 10.2602C6.21607 9.67858 6.97023 9.27526 7.79519 9.09926C8.62014 8.92327 9.48035 8.9822 10.2712 9.26888C11.0621 9.55555 11.7495 10.0576 12.25 10.7141C12.6524 10.183 13.1791 9.75099 13.7873 9.45317C14.3954 9.15536 15.0679 9.00014 15.75 9.00014C16.4321 9.00014 17.1046 9.15536 17.7127 9.45317C18.3209 9.75099 18.8476 10.183 19.25 10.7141C19.6524 10.183 20.1791 9.75099 20.7873 9.45317C21.3954 9.15536 22.0679 9.00014 22.75 9.00014C23.4321 9.00014 24.1046 9.15536 24.7127 9.45317C25.3209 9.75099 25.8476 10.183 26.25 10.7141C26.6524 10.183 27.1791 9.75099 27.7873 9.45317C28.3954 9.15536 29.0679 9.00014 29.75 9.00014C30.4321 9.00014 31.1046 9.15536 31.7127 9.45317C32.3209 9.75099 32.8476 10.183 33.25 10.7141C33.6524 10.183 34.1791 9.75099 34.7873 9.45317C35.3954 9.15536 36.0679 9.00014 36.75 9.00014C37.4321 9.00014 38.1046 9.15536 38.7127 9.45317C39.3209 9.75099 39.8476 10.183 40.25 10.7141C40.7505 10.0576 41.4379 9.55555 42.2288 9.26888C43.0196 8.9822 43.8799 8.92327 44.7048 9.09926C45.5298 9.27526 46.2839 9.67858 46.8756 10.2602C47.4672 10.8418 47.8709 11.5767 48.0375 12.3754ZM45.2591 11.1554C44.8181 10.8534 44.291 10.6901 43.75 10.6879C43.209 10.6901 42.6819 10.8534 42.2409 11.1554C41.7998 11.4575 41.4663 11.8836 41.286 12.3754H46.214C46.0337 11.8836 45.7002 11.4575 45.2591 11.1554ZM38.2591 11.1554C37.8181 10.8534 37.291 10.6901 36.75 10.6879C36.209 10.6901 35.6819 10.8534 35.2409 11.1554C34.7998 11.4575 34.4663 11.8836 34.286 12.3754H39.214C39.0337 11.8836 38.7002 11.4575 38.2591 11.1554ZM31.2591 11.1554C30.8181 10.8534 30.291 10.6901 29.75 10.6879C29.209 10.6901 28.6819 10.8534 28.2409 11.1554C27.7998 11.4575 27.4663 11.8836 27.286 12.3754H32.214C32.0337 11.8836 31.7002 11.4575 31.2591 11.1554ZM24.2591 11.1554C23.8181 10.8534 23.291 10.6901 22.75 10.6879C22.209 10.6901 21.6819 10.8534 21.2409 11.1554C20.7998 11.4575 20.4663 11.8836 20.286 12.3754H25.214C25.0337 11.8836 24.7002 11.4575 24.2591 11.1554ZM17.2591 11.1554C16.8181 10.8534 16.291 10.6901 15.75 10.6879C15.209 10.6901 14.6819 10.8534 14.2409 11.1554C13.7998 11.4575 13.4663 11.8836 13.286 12.3754H18.214C18.0337 11.8836 17.7002 11.4575 17.2591 11.1554ZM10.2591 11.1554C9.81805 10.8534 9.29098 10.6901 8.75 10.6879C8.20902 10.6901 7.68195 10.8534 7.24089 11.1554C6.79983 11.4575 6.46632 11.8836 6.286 12.3754H11.214C11.0337 11.8836 10.7002 11.4575 10.2591 11.1554ZM35.7586 51.166L37.275 52.0097L47.3375 35.2031L45.8211 34.3593L35.7586 51.166ZM44.303 33.5156L42.7875 32.6718L32.725 49.4776L34.2405 50.3214L44.303 33.5156ZM32.2122 51.1406L31.9436 52.9395L34.5555 54.3941L36.0369 53.2694L32.2122 51.1406ZM43.6625 31.2104L48.2125 33.7417L49.0875 32.2803L44.5375 29.7491L43.6625 31.2104ZM49.9625 30.8189L50.4 30.0882C50.7481 29.5064 50.8423 28.8151 50.6617 28.1663C50.4812 27.5176 50.0409 26.9645 49.4375 26.6289C48.8341 26.2932 48.1172 26.2024 47.4444 26.3765C46.7716 26.5505 46.1981 26.9752 45.85 27.557L45.4125 28.2877L49.9625 30.8189ZM1.75 49.5004V51.1879H30.4369L30.6644 49.6692C30.6781 49.6111 30.698 49.5545 30.7239 49.5004H1.75ZM33.075 55.518L31.675 54.7392L31.3661 56.814L33.075 55.518ZM39.7863 51.1879H49V49.5004H40.796L39.7863 51.1879ZM50.75 32.8785L41.8066 47.8129H50.75V32.8785ZM11.214 14.0629H1.75V47.8129H31.7021L37.7825 37.6575L38.4405 36.559L44.3362 26.7132C44.9164 25.7443 45.872 25.0373 46.9928 24.7477C48.1135 24.4582 49.3077 24.6098 50.3125 25.1692C50.4648 25.2618 50.6109 25.3635 50.75 25.4738V14.0629H48.0375C47.8344 15.0151 47.2971 15.8708 46.5161 16.4855C45.7351 17.1003 44.7582 17.4367 43.75 17.4379C43.5179 17.4379 43.2954 17.349 43.1313 17.1908C42.9672 17.0325 42.875 16.8179 42.875 16.5942C42.875 16.3704 42.9672 16.1558 43.1313 15.9975C43.2954 15.8393 43.5179 15.7504 43.75 15.7504C44.2911 15.7484 44.8184 15.5852 45.2596 15.2831C45.7009 14.9811 46.0345 14.5549 46.2149 14.0629H41.0375C40.8344 15.0151 40.2971 15.8708 39.5161 16.4855C38.7351 17.1003 37.7582 17.4367 36.75 17.4379C36.5179 17.4379 36.2954 17.349 36.1313 17.1908C35.9672 17.0325 35.875 16.8179 35.875 16.5942C35.875 16.3704 35.9672 16.1558 36.1313 15.9975C36.2954 15.8393 36.5179 15.7504 36.75 15.7504C37.2911 15.7484 37.8184 15.5852 38.2596 15.2831C38.7009 14.9811 39.0345 14.5549 39.2149 14.0629H34.0375C33.8344 15.0151 33.2971 15.8708 32.5161 16.4855C31.7351 17.1003 30.7582 17.4367 29.75 17.4379C29.5179 17.4379 29.2954 17.349 29.1313 17.1908C28.9672 17.0325 28.875 16.8179 28.875 16.5942C28.875 16.3704 28.9672 16.1558 29.1313 15.9975C29.2954 15.8393 29.5179 15.7504 29.75 15.7504C30.2911 15.7484 30.8184 15.5852 31.2596 15.2831C31.7009 14.9811 32.0345 14.5549 32.2149 14.0629H27.0375C26.8344 15.0151 26.2971 15.8708 25.5161 16.4855C24.7351 17.1003 23.7582 17.4367 22.75 17.4379C22.5179 17.4379 22.2954 17.349 22.1313 17.1908C21.9672 17.0325 21.875 16.8179 21.875 16.5942C21.875 16.3704 21.9672 16.1558 22.1313 15.9975C22.2954 15.8393 22.5179 15.7504 22.75 15.7504C23.2911 15.7484 23.8184 15.5852 24.2596 15.2831C24.7009 14.9811 25.0345 14.5549 25.2149 14.0629H20.0375C19.8344 15.0151 19.2971 15.8708 18.5161 16.4855C17.7351 17.1003 16.7582 17.4367 15.75 17.4379C15.5179 17.4379 15.2954 17.349 15.1313 17.1908C14.9672 17.0325 14.875 16.8179 14.875 16.5942C14.875 16.3704 14.9672 16.1558 15.1313 15.9975C15.2954 15.8393 15.5179 15.7504 15.75 15.7504C16.2911 15.7484 16.8184 15.5852 17.2596 15.2831C17.7009 14.9811 18.0345 14.5549 18.2149 14.0629H13.0375C12.8344 15.0151 12.2971 15.8708 11.5161 16.4855C10.7351 17.1003 9.75818 17.4367 8.75 17.4379C8.51794 17.4379 8.29538 17.349 8.13128 17.1908C7.96719 17.0325 7.875 16.8179 7.875 16.5942C7.875 16.3704 7.96719 16.1558 8.13128 15.9975C8.29538 15.8393 8.51794 15.7504 8.75 15.7504C9.29098 15.7482 9.81805 15.585 10.2591 15.2829C10.7002 14.9808 11.0337 14.5547 11.214 14.0629Z" fill="#325837"/>
<path d="M28.875 29.3698V28.4062C28.8736 27.2878 28.4122 26.2155 27.5921 25.4246C26.7719 24.6337 25.6599 24.1888 24.5 24.1875H12.25C11.0901 24.1888 9.97811 24.6337 9.15794 25.4246C8.33777 26.2155 7.87639 27.2878 7.875 28.4062V29.3698C7.12587 29.5563 6.46195 29.9769 5.98701 30.5659C5.51208 31.1548 5.2529 31.8789 5.25 32.625V37.6875C5.25 38.5826 5.61875 39.441 6.27513 40.074C6.9315 40.7069 7.82174 41.0625 8.75 41.0625H28C28.9283 41.0625 29.8185 40.7069 30.4749 40.074C31.1313 39.441 31.5 38.5826 31.5 37.6875V32.625C31.4971 31.8789 31.2379 31.1548 30.763 30.5659C30.2881 29.9769 29.6241 29.5563 28.875 29.3698V29.3698ZM12.25 25.875H24.5C25.1962 25.875 25.8639 26.1417 26.3562 26.6164C26.8484 27.0911 27.125 27.7349 27.125 28.4062V29.3698C26.3759 29.5563 25.7119 29.9769 25.237 30.5659C24.7621 31.1548 24.5029 31.8789 24.5 32.625V34.7816C23.9703 34.4779 23.3662 34.316 22.75 34.3125H14C13.3838 34.316 12.7797 34.4779 12.25 34.7816V32.625C12.2471 31.8789 11.9879 31.1548 11.513 30.5659C11.0381 29.9769 10.3741 29.5563 9.625 29.3698V28.4062C9.625 27.7349 9.90156 27.0911 10.3938 26.6164C10.8861 26.1417 11.5538 25.875 12.25 25.875V25.875ZM7 37.6875V32.625C7 32.1774 7.18437 31.7482 7.51256 31.4318C7.84075 31.1153 8.28587 30.9375 8.75 30.9375C9.21413 30.9375 9.65925 31.1153 9.98744 31.4318C10.3156 31.7482 10.5 32.1774 10.5 32.625V39.375H8.75C8.28587 39.375 7.84075 39.1972 7.51256 38.8807C7.18437 38.5643 7 38.1351 7 37.6875ZM12.25 37.6875C12.25 37.2399 12.4344 36.8107 12.7626 36.4943C13.0908 36.1778 13.5359 36 14 36H22.75C23.2141 36 23.6592 36.1778 23.9874 36.4943C24.3156 36.8107 24.5 37.2399 24.5 37.6875V39.375H12.25V37.6875ZM29.75 37.6875C29.75 38.1351 29.5656 38.5643 29.2374 38.8807C28.9092 39.1972 28.4641 39.375 28 39.375H26.25V32.625C26.25 32.1774 26.4344 31.7482 26.7626 31.4318C27.0908 31.1153 27.5359 30.9375 28 30.9375C28.4641 30.9375 28.9092 31.1153 29.2374 31.4318C29.5656 31.7482 29.75 32.1774 29.75 32.625V37.6875Z" fill="#325837"/>
<path d="M30.625 42.75C30.3929 42.75 30.1704 42.8389 30.0063 42.9971C29.8422 43.1554 29.75 43.37 29.75 43.5938H7C7 43.37 6.90781 43.1554 6.74372 42.9971C6.57962 42.8389 6.35706 42.75 6.125 42.75C5.89294 42.75 5.67038 42.8389 5.50628 42.9971C5.34219 43.1554 5.25 43.37 5.25 43.5938V45.2812C5.25 45.505 5.34219 45.7196 5.50628 45.8779C5.67038 46.0361 5.89294 46.125 6.125 46.125C6.35706 46.125 6.57962 46.0361 6.74372 45.8779C6.90781 45.7196 7 45.505 7 45.2812H29.75C29.75 45.505 29.8422 45.7196 30.0063 45.8779C30.1704 46.0361 30.3929 46.125 30.625 46.125C30.8571 46.125 31.0796 46.0361 31.2437 45.8779C31.4078 45.7196 31.5 45.505 31.5 45.2812V43.5938C31.5 43.37 31.4078 43.1554 31.2437 42.9971C31.0796 42.8389 30.8571 42.75 30.625 42.75Z" fill="#325837"/>
<path d="M10.5 22.5C10.7321 22.5 10.9546 22.4111 11.1187 22.2529C11.2828 22.0946 11.375 21.88 11.375 21.6562H25.375C25.375 21.88 25.4672 22.0946 25.6313 22.2529C25.7954 22.4111 26.0179 22.5 26.25 22.5C26.4821 22.5 26.7046 22.4111 26.8687 22.2529C27.0328 22.0946 27.125 21.88 27.125 21.6562V19.9688C27.125 19.745 27.0328 19.5304 26.8687 19.3721C26.7046 19.2139 26.4821 19.125 26.25 19.125C26.0179 19.125 25.7954 19.2139 25.6313 19.3721C25.4672 19.5304 25.375 19.745 25.375 19.9688H11.375C11.375 19.745 11.2828 19.5304 11.1187 19.3721C10.9546 19.2139 10.7321 19.125 10.5 19.125C10.2679 19.125 10.0454 19.2139 9.88128 19.3721C9.71719 19.5304 9.625 19.745 9.625 19.9688V21.6562C9.625 21.88 9.71719 22.0946 9.88128 22.2529C10.0454 22.4111 10.2679 22.5 10.5 22.5Z" fill="#325837"/>
<path d="M16.0781 30.252C16.0781 30.6888 15.7109 31.043 15.2578 31.043C14.8048 31.043 14.4375 30.6888 14.4375 30.252C14.4375 29.8151 14.8048 29.4609 15.2578 29.4609C15.7109 29.4609 16.0781 29.8151 16.0781 30.252Z" fill="#325837"/>
<path d="M22.2031 30.252C22.2031 30.6888 21.8359 31.043 21.3828 31.043C20.9298 31.043 20.5625 30.6888 20.5625 30.252C20.5625 29.8151 20.9298 29.4609 21.3828 29.4609C21.8359 29.4609 22.2031 29.8151 22.2031 30.252Z" fill="#325837"/>
</svg>
