<svg width="60" height="60" viewBox="0 0 60 60" fill="none" xmlns="http://www.w3.org/2000/svg">
<path d="M4.5 50.6H18.7022L17.1174 58.5235C17.0913 58.6541 17.0945 58.7888 17.1268 58.918C17.159 59.0472 17.2195 59.1676 17.304 59.2706C17.3884 59.3736 17.4946 59.4565 17.615 59.5135C17.7353 59.5705 17.8668 59.6 18 59.6H36C36.1332 59.6 36.2647 59.5705 36.385 59.5135C36.5054 59.4565 36.6116 59.3736 36.696 59.2706C36.7805 59.1676 36.841 59.0472 36.8732 58.918C36.9055 58.7888 36.9087 58.6541 36.8826 58.5235L35.2978 50.6H49.5C50.6931 50.5987 51.8369 50.1241 52.6805 49.2805C53.5241 48.4369 53.9987 47.2931 54 46.1V15.5C53.9987 14.3069 53.5241 13.1631 52.6805 12.3195C51.8369 11.4759 50.6931 11.0013 49.5 11H4.5C3.30694 11.0013 2.16312 11.4759 1.3195 12.3195C0.475876 13.1631 0.00133994 14.3069 0 15.5V46.1C0.00133994 47.2931 0.475876 48.4369 1.3195 49.2805C2.16312 50.1241 3.30694 50.5987 4.5 50.6V50.6ZM19.0978 57.8L20.5378 50.6H33.4621L34.9021 57.8H19.0978ZM1.8 15.5C1.80083 14.7842 2.08556 14.0979 2.59173 13.5917C3.0979 13.0856 3.78417 12.8008 4.5 12.8H49.5C50.2158 12.8008 50.9021 13.0856 51.4083 13.5917C51.9144 14.0979 52.1992 14.7842 52.2 15.5V41.6H1.8V15.5ZM1.8 43.4H52.2V46.1C52.1992 46.8158 51.9144 47.5021 51.4083 48.0083C50.9021 48.5144 50.2158 48.7992 49.5 48.8H4.5C3.78417 48.7992 3.0979 48.5144 2.59173 48.0083C2.08556 47.5021 1.80083 46.8158 1.8 46.1V43.4Z" fill="#325837"/>
<path d="M6.30039 16.3996C6.79745 16.3996 7.20039 15.9967 7.20039 15.4996C7.20039 15.0026 6.79745 14.5996 6.30039 14.5996C5.80333 14.5996 5.40039 15.0026 5.40039 15.4996C5.40039 15.9967 5.80333 16.3996 6.30039 16.3996Z" fill="#325837"/>
<path d="M9.9 16.3996C10.3971 16.3996 10.8 15.9967 10.8 15.4996C10.8 15.0026 10.3971 14.5996 9.9 14.5996C9.40294 14.5996 9 15.0026 9 15.4996C9 15.9967 9.40294 16.3996 9.9 16.3996Z" fill="#325837"/>
<path d="M13.4996 16.3996C13.9967 16.3996 14.3996 15.9967 14.3996 15.4996C14.3996 15.0026 13.9967 14.5996 13.4996 14.5996C13.0026 14.5996 12.5996 15.0026 12.5996 15.4996C12.5996 15.9967 13.0026 16.3996 13.4996 16.3996Z" fill="#325837"/>
<path d="M26.1002 46.9992H27.9002C28.1389 46.9992 28.3678 46.9044 28.5366 46.7356C28.7054 46.5668 28.8002 46.3379 28.8002 46.0992C28.8002 45.8605 28.7054 45.6316 28.5366 45.4628C28.3678 45.294 28.1389 45.1992 27.9002 45.1992H26.1002C25.8615 45.1992 25.6326 45.294 25.4638 45.4628C25.295 45.6316 25.2002 45.8605 25.2002 46.0992C25.2002 46.3379 25.295 46.5668 25.4638 46.7356C25.6326 46.9044 25.8615 46.9992 26.1002 46.9992Z" fill="#325837"/>
<path d="M30.6002 30.8H41.4002C41.6389 30.8 41.8678 30.7052 42.0366 30.5364C42.2054 30.3676 42.3002 30.1387 42.3002 29.9C42.3002 29.6613 42.2054 29.4324 42.0366 29.2636C41.8678 29.0948 41.6389 29 41.4002 29H30.6002C30.3615 29 30.1326 29.0948 29.9638 29.2636C29.795 29.4324 29.7002 29.6613 29.7002 29.9C29.7002 30.1387 29.795 30.3676 29.9638 30.5364C30.1326 30.7052 30.3615 30.8 30.6002 30.8Z" fill="#325837"/>
<path d="M45.8996 29H44.9996C44.7609 29 44.532 29.0948 44.3632 29.2636C44.1944 29.4324 44.0996 29.6613 44.0996 29.9C44.0996 30.1387 44.1944 30.3676 44.3632 30.5364C44.532 30.7052 44.7609 30.8 44.9996 30.8H45.8996C46.1383 30.8 46.3672 30.7052 46.536 30.5364C46.7048 30.3676 46.7996 30.1387 46.7996 29.9C46.7996 29.6613 46.7048 29.4324 46.536 29.2636C46.3672 29.0948 46.1383 29 45.8996 29Z" fill="#325837"/>
<path d="M45.9002 32.5996H30.6002C30.3615 32.5996 30.1326 32.6944 29.9638 32.8632C29.795 33.032 29.7002 33.2609 29.7002 33.4996C29.7002 33.7383 29.795 33.9672 29.9638 34.136C30.1326 34.3048 30.3615 34.3996 30.6002 34.3996H45.9002C46.1389 34.3996 46.3678 34.3048 46.5366 34.136C46.7054 33.9672 46.8002 33.7383 46.8002 33.4996C46.8002 33.2609 46.7054 33.032 46.5366 32.8632C46.3678 32.6944 46.1389 32.5996 45.9002 32.5996Z" fill="#325837"/>
<path d="M45.9002 36.1992H30.6002C30.3615 36.1992 30.1326 36.294 29.9638 36.4628C29.795 36.6316 29.7002 36.8605 29.7002 37.0992C29.7002 37.3379 29.795 37.5668 29.9638 37.7356C30.1326 37.9044 30.3615 37.9992 30.6002 37.9992H45.9002C46.1389 37.9992 46.3678 37.9044 46.5366 37.7356C46.7054 37.5668 46.8002 37.3379 46.8002 37.0992C46.8002 36.8605 46.7054 36.6316 46.5366 36.4628C46.3678 36.294 46.1389 36.1992 45.9002 36.1992Z" fill="#325837"/>
<path d="M30.6002 26.3004H34.2002C34.4389 26.3004 34.6678 26.2056 34.8366 26.0368C35.0054 25.868 35.1002 25.6391 35.1002 25.4004V21.8004C35.1002 21.5617 35.0054 21.3328 34.8366 21.164C34.6678 20.9952 34.4389 20.9004 34.2002 20.9004H30.6002C30.3615 20.9004 30.1326 20.9952 29.9638 21.164C29.795 21.3328 29.7002 21.5617 29.7002 21.8004V25.4004C29.7002 25.6391 29.795 25.868 29.9638 26.0368C30.1326 26.2056 30.3615 26.3004 30.6002 26.3004ZM31.5002 22.7004H33.3002V24.5004H31.5002V22.7004Z" fill="#325837"/>
<path d="M45.9004 20.9004H37.8004C37.5617 20.9004 37.3328 20.9952 37.164 21.164C36.9952 21.3328 36.9004 21.5617 36.9004 21.8004V25.4004C36.9004 25.6391 36.9952 25.868 37.164 26.0368C37.3328 26.2056 37.5617 26.3004 37.8004 26.3004H45.9004C46.1391 26.3004 46.368 26.2056 46.5368 26.0368C46.7056 25.868 46.8004 25.6391 46.8004 25.4004V21.8004C46.8004 21.5617 46.7056 21.3328 46.5368 21.164C46.368 20.9952 46.1391 20.9004 45.9004 20.9004ZM45.0004 24.5004H38.7004V22.7004H45.0004V24.5004Z" fill="#325837"/>
<path d="M24.8193 28.2005C24.6077 27.3357 23.878 26.6315 23.0038 26.4485C22.9317 26.4333 22.8597 26.436 22.7874 26.4273C22.137 23.6075 19.658 21.5898 16.7234 21.5898H15.7624C12.8283 21.5898 10.3489 23.6079 9.69816 26.4274C9.23835 26.4857 8.79904 26.6616 8.44031 26.9665C7.90253 27.424 7.59375 28.0912 7.59375 28.7969C7.59375 29.5481 7.95599 30.2575 8.55476 30.7089V35.043C8.55476 35.7513 8.94408 36.3643 9.51577 36.6976V37.4453C9.51577 38.2402 10.1624 38.8867 10.9573 38.8867C11.7522 38.8867 12.3989 38.2402 12.3989 37.4453V36.9648H20.087V37.4453C20.087 38.2402 20.7336 38.8867 21.5285 38.8867C22.3235 38.8867 22.9701 38.2402 22.9701 37.4453V36.6976C23.5418 36.3643 23.9311 35.7513 23.9311 35.043V30.7094C24.6992 30.1332 25.0534 29.1591 24.8193 28.2005ZM15.7617 22.5508H16.7226C19.1558 22.5508 21.2161 24.1913 21.8164 26.5018C21.5135 26.59 21.2252 26.728 20.9746 26.9313C20.4096 27.3902 20.0859 28.07 20.0859 28.7969V31.1992H12.3984V28.8996C12.3984 27.7767 11.67 26.7981 10.6684 26.4991C11.2693 24.1904 13.3297 22.5508 15.7617 22.5508ZM21.0469 32.6406C21.0469 32.9057 20.8315 33.1211 20.5664 33.1211H11.918C11.6529 33.1211 11.4375 32.9057 11.4375 32.6406C11.4375 32.3755 11.6528 32.1601 11.918 32.1601H20.5664C20.8315 32.1602 21.0469 32.3755 21.0469 32.6406ZM11.4375 37.4453C11.4375 37.7104 11.2221 37.9258 10.957 37.9258C10.6919 37.9258 10.4766 37.7104 10.4766 37.4453V36.9648H11.4375V37.4453ZM22.0078 37.4453C22.0078 37.7104 21.7924 37.9258 21.5273 37.9258C21.2622 37.9258 21.0468 37.7104 21.0468 37.4453V36.9648H22.0078V37.4453ZM23.2075 30.037C23.0598 30.1228 22.9687 30.281 22.9687 30.4522V35.043C22.9687 35.5727 22.5375 36.0039 22.0078 36.0039H10.4766C9.94684 36.0039 9.51564 35.5727 9.51564 35.043V30.4522C9.51564 30.2814 9.42461 30.1233 9.27682 30.037C8.82448 29.7738 8.55467 29.3102 8.55467 28.7969C8.55467 28.3736 8.74003 27.9729 9.06281 27.6985C9.39033 27.4197 9.81027 27.3053 10.2415 27.3756C10.9232 27.4864 11.4375 28.1418 11.4375 28.8996V31.2877C10.8794 31.4867 10.4766 32.015 10.4766 32.6406C10.4766 33.4355 11.1231 34.082 11.918 34.082H20.5664C21.3612 34.082 22.0078 33.4355 22.0078 32.6406C22.0078 32.015 21.6049 31.4867 21.0469 31.2877V28.7969C21.0469 28.3605 21.2412 27.9528 21.5804 27.6774C21.9243 27.3982 22.3593 27.2954 22.8055 27.3888C23.3254 27.4977 23.7589 27.9157 23.8842 28.4286C24.0423 29.0747 23.7767 29.7057 23.2075 30.037Z" fill="#325837"/>
<path fill-rule="evenodd" clip-rule="evenodd" d="M25.0242 28.1504C25.2696 29.1551 24.9192 30.1784 24.142 30.8121V35.043C24.142 35.787 23.7558 36.4345 23.181 36.8147V37.4453C23.181 38.3567 22.44 39.0977 21.5285 39.0977C20.6171 39.0977 19.8761 38.3567 19.8761 37.4453V37.1758H12.6098V37.4453C12.6098 38.3567 11.8687 39.0977 10.9573 39.0977C10.0459 39.0977 9.30484 38.3567 9.30484 37.4453V36.8147C8.73006 36.4345 8.34382 35.787 8.34382 35.043V30.8113C7.74361 30.3194 7.38281 29.58 7.38281 28.7969C7.38281 28.0292 7.71881 27.3033 8.30362 26.8058C8.65859 26.5041 9.08309 26.3197 9.52646 26.2403C10.2475 23.3997 12.7773 21.3789 15.7624 21.3789H16.7234C19.7049 21.3789 22.2315 23.3938 22.9562 26.2286C22.9841 26.2313 23.015 26.2353 23.0471 26.242C24.0004 26.4416 24.7932 27.2065 25.0242 28.1504ZM23.0038 26.4485C23.878 26.6315 24.6077 27.3357 24.8193 28.2005C25.0534 29.1591 24.6992 30.1332 23.9311 30.7094V35.043C23.9311 35.7513 23.5418 36.3643 22.9701 36.6976V37.4453C22.9701 38.2402 22.3235 38.8867 21.5285 38.8867C20.7336 38.8867 20.087 38.2402 20.087 37.4453V36.9648H12.3989V37.4453C12.3989 38.2402 11.7522 38.8867 10.9573 38.8867C10.1624 38.8867 9.51577 38.2402 9.51577 37.4453V36.6976C8.94408 36.3643 8.55476 35.7513 8.55476 35.043V30.7089C7.95599 30.2575 7.59375 29.5481 7.59375 28.7969C7.59375 28.0912 7.90253 27.424 8.44031 26.9665C8.79904 26.6616 9.23835 26.4857 9.69816 26.4274C10.3489 23.6079 12.8283 21.5898 15.7624 21.5898H16.7234C19.658 21.5898 22.137 23.6075 22.7874 26.4273C22.8155 26.4307 22.8435 26.4323 22.8715 26.434C22.9156 26.4366 22.9597 26.4392 23.0038 26.4485ZM20.8416 26.7676L20.8417 26.7675C21.0611 26.5895 21.305 26.4584 21.559 26.3646C20.9214 24.2462 18.9906 22.7617 16.7226 22.7617H15.7617C13.4939 22.7617 11.5624 24.2466 10.9251 26.3647C11.9163 26.7538 12.6094 27.7612 12.6094 28.8996V30.9883H19.875V28.7969C19.875 28.0065 20.2274 27.2664 20.8416 26.7676ZM10.6684 26.4991C11.67 26.7981 12.3984 27.7767 12.3984 28.8996V31.1992H20.0859V28.7969C20.0859 28.07 20.4096 27.3902 20.9746 26.9313C21.2252 26.728 21.5135 26.59 21.8164 26.5018C21.2161 24.1913 19.1558 22.5508 16.7226 22.5508H15.7617C13.3297 22.5508 11.2693 24.1904 10.6684 26.4991ZM9.06281 27.6985C8.74003 27.9729 8.55467 28.3736 8.55467 28.7969C8.55467 29.3102 8.82448 29.7738 9.27682 30.037C9.4246 30.1233 9.51564 30.2814 9.51564 30.4522V35.043C9.51564 35.5727 9.94684 36.0039 10.4766 36.0039H22.0078C22.5375 36.0039 22.9687 35.5727 22.9687 35.043V30.4522C22.9687 30.281 23.0598 30.1228 23.2075 30.037C23.7767 29.7057 24.0423 29.0747 23.8842 28.4286C23.7589 27.9157 23.3254 27.4977 22.8055 27.3888C22.3593 27.2954 21.9243 27.3982 21.5804 27.6774C21.2412 27.9528 21.0469 28.3605 21.0469 28.7969V31.2877C21.6049 31.4867 22.0078 32.015 22.0078 32.6406C22.0078 33.4355 21.3612 34.082 20.5664 34.082H11.918C11.1231 34.082 10.4766 33.4355 10.4766 32.6406C10.4766 32.015 10.8794 31.4867 11.4375 31.2877V28.8996C11.4375 28.1418 10.9232 27.4864 10.2415 27.3756C9.81027 27.3053 9.39033 27.4197 9.06281 27.6985ZM11.2265 31.1463C10.6622 31.4076 10.2656 31.9752 10.2656 32.6406C10.2656 33.552 11.0066 34.293 11.918 34.293H20.5664C21.4777 34.293 22.2187 33.552 22.2187 32.6406C22.2187 31.9752 21.8222 31.4076 21.2578 31.1463V28.7969C21.2578 28.4241 21.4234 28.0765 21.7133 27.8411C22.0064 27.6032 22.3763 27.5145 22.7623 27.5953C23.2032 27.6876 23.5734 28.0453 23.6793 28.4786C23.8155 29.0351 23.5888 29.571 23.1016 29.8546C22.8887 29.9782 22.7578 30.2059 22.7578 30.4522V35.043C22.7578 35.4562 22.421 35.793 22.0078 35.793H10.4766C10.0633 35.793 9.72658 35.4562 9.72658 35.043V30.4522C9.72658 30.2061 9.59546 29.9788 9.38323 29.8549L9.3829 29.8547C8.99398 29.6284 8.76561 29.2334 8.76561 28.7969C8.76561 28.4356 8.92375 28.0936 9.19945 27.8592C9.47871 27.6215 9.83598 27.5232 10.2075 27.5838L10.2077 27.5839C10.7732 27.6757 11.2265 28.2304 11.2265 28.8996V31.1463ZM20.5664 32.9102C20.715 32.9102 20.8359 32.7892 20.8359 32.6406C20.8359 32.4921 20.715 32.3711 20.5664 32.3711C20.5664 32.3711 20.5664 32.3711 20.5664 32.3711H11.918C11.7693 32.3711 11.6484 32.492 11.6484 32.6406C11.6484 32.7892 11.7694 32.9102 11.918 32.9102H20.5664ZM20.5664 32.1601H11.918C11.6528 32.1601 11.4375 32.3755 11.4375 32.6406C11.4375 32.9057 11.6529 33.1211 11.918 33.1211H20.5664C20.8315 33.1211 21.0469 32.9057 21.0469 32.6406C21.0469 32.3755 20.8315 32.1602 20.5664 32.1601ZM10.957 37.7149C11.1056 37.7149 11.2265 37.5939 11.2265 37.4453V37.1758H10.6875V37.4453C10.6875 37.5939 10.8084 37.7149 10.957 37.7149ZM21.5273 37.7149C21.6759 37.7149 21.7969 37.5939 21.7969 37.4453V37.1758H21.2578V37.4453C21.2578 37.5939 21.3787 37.7149 21.5273 37.7149ZM10.957 37.9258C11.2221 37.9258 11.4375 37.7104 11.4375 37.4453V36.9648H10.4766V37.4453C10.4766 37.7104 10.6919 37.9258 10.957 37.9258ZM21.5273 37.9258C21.7924 37.9258 22.0078 37.7104 22.0078 37.4453V36.9648H21.0468V37.4453C21.0468 37.7104 21.2622 37.9258 21.5273 37.9258Z" fill="#325837"/>
</svg>
