<svg width="16" height="16" viewBox="0 0 16 16" fill="none" xmlns="http://www.w3.org/2000/svg">
<path d="M7.99968 1C6.61508 1 5.26158 1.41058 4.11032 2.17982C2.95907 2.94906 2.06178 4.04242 1.53192 5.32162C1.00206 6.60082 0.86342 8.00842 1.13354 9.36641C1.40366 10.7244 2.07041 11.9718 3.04947 12.9509C4.02853 13.9299 5.27593 14.5967 6.63392 14.8668C7.99191 15.1369 9.39951 14.9983 10.6787 14.4684C11.9579 13.9386 13.0513 13.0413 13.8205 11.89C14.5897 10.7388 15.0003 9.38525 15.0003 8.00065C15.0003 7.08131 14.8193 6.17098 14.4674 5.32162C14.1156 4.47226 13.6 3.70051 12.9499 3.05044C12.2998 2.40037 11.5281 1.88471 10.6787 1.53289C9.82935 1.18108 8.91902 1 7.99968 1ZM10.7999 8.70072H7.99968C7.81401 8.70072 7.63594 8.62696 7.50466 8.49567C7.37337 8.36439 7.29961 8.18632 7.29961 8.00065V3.80026C7.29961 3.61459 7.37337 3.43653 7.50466 3.30524C7.63594 3.17395 7.81401 3.1002 7.99968 3.1002C8.18535 3.1002 8.36341 3.17395 8.4947 3.30524C8.62599 3.43653 8.69974 3.61459 8.69974 3.80026V7.30059H10.7999C10.9856 7.30059 11.1637 7.37434 11.295 7.50563C11.4262 7.63692 11.5 7.81498 11.5 8.00065C11.5 8.18632 11.4262 8.36439 11.295 8.49567C11.1637 8.62696 10.9856 8.70072 10.7999 8.70072Z" fill="#A4C756"/>
</svg>
