<svg width="90" height="180" viewBox="0 0 90 180" fill="none" xmlns="http://www.w3.org/2000/svg">
<mask id="mask0_1093_1377" style="mask-type:alpha" maskUnits="userSpaceOnUse" x="0" y="90" width="90" height="90">
<rect y="90" width="90" height="90" fill="#C4C4C4"/>
</mask>
<g mask="url(#mask0_1093_1377)">
<path fill-rule="evenodd" clip-rule="evenodd" d="M50.9601 95.8042C60.9242 97.4287 67.4056 106.123 73.7011 114.016C80.5349 122.583 88.8214 131.3 87.9914 142.228C87.1129 153.794 82.1711 163.913 72.3979 170.16C63.0583 176.13 48.7275 175.801 37.738 174.351C26.1962 172.828 13.444 171.198 6.57519 161.798C-0.340868 152.334 0.485108 139.283 3.92116 128.076C6.94363 118.218 15.2217 111.7 23.7239 105.867C32.0206 100.175 41.0297 94.1851 50.9601 95.8042Z" fill="#EDF4DD"/>
<mask id="path-3-outside-1_1093_1377" maskUnits="userSpaceOnUse" x="20.9512" y="115.344" width="48" height="48" fill="black">
<rect fill="white" x="20.9512" y="115.344" width="48" height="48"/>
<path fill-rule="evenodd" clip-rule="evenodd" d="M59.2054 119.897C58.9087 120.204 58.5084 120.375 58.0915 120.375H35.9286H35.7825L31.2781 118.819C31.1871 118.789 31.108 118.728 31.0528 118.647C30.9998 118.571 30.9719 118.479 30.9737 118.385C30.9719 118.289 30.9997 118.195 31.0528 118.117C31.108 118.036 31.1871 117.975 31.2781 117.945L35.7825 116.351C35.8308 116.341 35.8803 116.341 35.9286 116.351H58.0915C58.5084 116.35 58.9087 116.522 59.2054 116.829C59.3521 116.978 59.4687 117.156 59.5482 117.354C59.6276 117.551 59.6684 117.763 59.668 117.977V118.749C59.6684 118.963 59.6276 119.175 59.5482 119.372C59.4687 119.569 59.3521 119.748 59.2054 119.897ZM58.0915 117.269H56.661V119.463H58.0915C58.2707 119.461 58.4423 119.386 58.5697 119.254C58.697 119.122 58.77 118.943 58.7732 118.755V117.977C58.7732 117.883 58.7555 117.791 58.7212 117.705C58.6869 117.618 58.6365 117.54 58.5732 117.474C58.5098 117.408 58.4346 117.356 58.3519 117.321C58.2692 117.286 58.1807 117.268 58.0915 117.269ZM55.7662 117.269H54.4088V119.463H55.7662V117.269ZM53.514 117.269H37.8764V119.463H53.514V117.269ZM36.0503 117.269L32.8242 118.366L35.9773 119.463H36.9816V117.269H36.0503ZM59.6306 123.631C59.6536 123.687 59.6658 123.747 59.6665 123.808L59.6969 153.368C59.6968 153.428 59.6849 153.487 59.6618 153.542C59.6388 153.597 59.6051 153.646 59.563 153.687C59.5222 153.732 59.473 153.767 59.4186 153.791C59.3642 153.815 59.3056 153.828 59.2464 153.827H25.4025C24.4912 153.828 23.6164 153.452 22.9677 152.781C22.645 152.448 22.3889 152.051 22.2143 151.613C22.0398 151.175 21.9503 150.705 21.9512 150.23V123.808C21.9517 122.92 22.2686 122.065 22.8399 121.41C23.4172 120.745 24.2084 120.327 25.0617 120.236H25.4086C26.1438 120.233 26.8607 120.476 27.4539 120.932C28.1436 121.449 28.6201 122.222 28.7869 123.094L28.8417 123.349H59.216C59.2747 123.347 59.3332 123.358 59.3876 123.381C59.4421 123.404 59.4914 123.439 59.5325 123.483C59.5743 123.525 59.6076 123.575 59.6306 123.631ZM23.0414 122.787C22.9118 123.11 22.8453 123.457 22.846 123.808V146.984L23.3329 146.601C23.9334 146.138 24.6597 145.888 25.4056 145.888C26.1514 145.888 26.8777 146.138 27.4782 146.601L27.9652 146.984V123.808C27.9656 123.458 27.8996 123.111 27.7711 122.788C27.6426 122.465 27.454 122.172 27.2165 121.926C26.7332 121.432 26.0843 121.155 25.4086 121.155C24.7329 121.155 24.0841 121.432 23.6008 121.926C23.3613 122.171 23.1711 122.464 23.0414 122.787ZM25.4086 152.883H58.7595L58.7717 124.261H28.8295V149.452C28.8285 149.574 28.7827 149.69 28.7017 149.777C28.6163 149.852 28.5086 149.893 28.3973 149.893C28.2861 149.893 28.1784 149.852 28.093 149.777C28.012 149.69 27.9662 149.574 27.9652 149.452C27.9651 149.103 27.8989 148.758 27.7704 148.436C27.6419 148.114 27.4536 147.822 27.2165 147.577C26.7332 147.082 26.0843 146.805 25.4086 146.805C24.7329 146.805 24.0841 147.082 23.6008 147.577C23.3617 147.821 23.1718 148.112 23.0421 148.434C22.9125 148.756 22.8458 149.102 22.846 149.452V150.23C22.8424 150.578 22.9057 150.924 23.0323 151.246C23.1588 151.568 23.3459 151.86 23.5825 152.105C23.822 152.356 24.1069 152.554 24.4205 152.687C24.7341 152.821 25.0701 152.888 25.4086 152.883ZM41.523 162.063C41.501 162.008 41.4902 161.949 41.4913 161.889V157.221C41.4902 157.161 41.501 157.102 41.523 157.047C41.545 156.992 41.5778 156.943 41.6191 156.902C41.6606 156.859 41.71 156.825 41.7644 156.802C41.8188 156.779 41.877 156.767 41.9356 156.768H62.5281V138.567C62.5287 138.447 62.5747 138.332 62.6559 138.248C62.7396 138.159 62.8534 138.109 62.9724 138.107H67.5012C67.5603 138.107 67.6189 138.119 67.6733 138.143C67.7278 138.167 67.7769 138.203 67.8177 138.248C67.8599 138.288 67.8935 138.338 67.9166 138.392C67.9396 138.447 67.9516 138.507 67.9516 138.567V161.889C67.9516 161.949 67.9396 162.009 67.9166 162.064C67.8935 162.118 67.8599 162.168 67.8177 162.208C67.7766 162.252 67.7273 162.287 67.6728 162.31C67.6183 162.333 67.5599 162.344 67.5012 162.342H41.9356C41.877 162.343 41.8188 162.332 41.7644 162.309C41.71 162.286 41.6606 162.252 41.6191 162.208C41.5778 162.167 41.545 162.118 41.523 162.063ZM67.0386 139.026H63.4046L63.4229 156.768H67.0386V139.026ZM44.4983 157.68H42.3861V161.43H67.0386V157.68H61.1342V158.758C61.1335 158.819 61.1213 158.879 61.0983 158.935C61.0753 158.991 61.042 159.041 61.0002 159.083C60.9154 159.159 60.8075 159.201 60.6959 159.201C60.5843 159.201 60.4764 159.159 60.3915 159.083C60.3506 159.041 60.3182 158.99 60.2962 158.934C60.2743 158.878 60.2632 158.818 60.2637 158.758V157.68H58.9002V158.758C58.9007 158.818 58.8896 158.878 58.8677 158.934C58.8457 158.99 58.8133 159.041 58.7724 159.083C58.6875 159.159 58.5796 159.201 58.468 159.201C58.3565 159.201 58.2485 159.159 58.1637 159.083C58.1219 159.041 58.0886 158.991 58.0656 158.935C58.0426 158.879 58.0304 158.819 58.0298 158.758V157.68H56.5019V158.758C56.5003 158.879 56.4546 158.996 56.3741 159.083C56.2887 159.158 56.181 159.199 56.0697 159.199C55.9585 159.199 55.8508 159.158 55.7654 159.083C55.6849 158.996 55.6392 158.879 55.6376 158.758V157.68H54.2801V158.758C54.2795 158.819 54.2673 158.879 54.2443 158.935C54.2213 158.991 54.188 159.041 54.1462 159.083C54.0614 159.159 53.9535 159.201 53.8419 159.201C53.7303 159.201 53.6224 159.159 53.5375 159.083C53.4966 159.041 53.4642 158.99 53.4422 158.934C53.4203 158.878 53.4092 158.818 53.4097 158.758V157.68H52.0462V158.758C52.0467 158.818 52.0356 158.878 52.0137 158.934C51.9917 158.99 51.9593 159.041 51.9184 159.083C51.8335 159.159 51.7256 159.201 51.614 159.201C51.5024 159.201 51.3945 159.159 51.3097 159.083C51.2687 159.041 51.2363 158.99 51.2144 158.934C51.1924 158.878 51.1814 158.818 51.1818 158.758V157.68H49.8183V158.758C49.8188 158.818 49.8078 158.878 49.7858 158.934C49.7639 158.99 49.7315 159.041 49.6905 159.083C49.6051 159.158 49.4974 159.199 49.3862 159.199C49.2749 159.199 49.1672 159.158 49.0818 159.083C49.0013 158.996 48.9556 158.879 48.954 158.758V157.68H47.5966V158.758C47.5959 158.819 47.5838 158.879 47.5608 158.935C47.5378 158.991 47.5044 159.041 47.4627 159.083C47.3778 159.159 47.2699 159.201 47.1583 159.201C47.0467 159.201 46.9388 159.159 46.854 159.083C46.813 159.041 46.7806 158.99 46.7587 158.934C46.7367 158.878 46.7257 158.818 46.7261 158.758V157.68H45.3626V158.758C45.3631 158.818 45.3521 158.878 45.3301 158.934C45.3081 158.99 45.2757 159.041 45.2348 159.083C45.15 159.159 45.042 159.201 44.9305 159.201C44.8189 159.201 44.711 159.159 44.6261 159.083C44.5852 159.041 44.5528 158.99 44.5308 158.934C44.5089 158.878 44.4978 158.818 44.4983 158.758V157.68ZM64.5718 159.714C64.8239 159.714 65.0283 159.5 65.0283 159.236C65.0283 158.972 64.8239 158.758 64.5718 158.758C64.3196 158.758 64.1152 158.972 64.1152 159.236C64.1152 159.5 64.3196 159.714 64.5718 159.714ZM40.7537 131.259C40.711 131.215 40.6606 131.181 40.6052 131.158C40.5498 131.135 40.4906 131.124 40.4311 131.125H31.4162C31.3576 131.124 31.2993 131.135 31.245 131.158C31.1906 131.181 31.1412 131.216 31.0997 131.259C31.0578 131.301 31.0249 131.351 31.0029 131.407C30.9808 131.463 30.9703 131.524 30.9718 131.584V150.232C30.9703 150.293 30.9808 150.353 31.0029 150.409C31.0249 150.465 31.0578 150.516 31.0997 150.558C31.1412 150.601 31.1906 150.635 31.245 150.658C31.2993 150.681 31.3576 150.692 31.4162 150.691H49.4521C49.5107 150.692 49.5688 150.681 49.6231 150.658C49.6774 150.635 49.7269 150.601 49.7686 150.558C49.8104 150.516 49.8434 150.465 49.8654 150.409C49.8874 150.353 49.898 150.293 49.8964 150.232V140.908C49.8969 140.848 49.8858 140.788 49.8639 140.732C49.8419 140.676 49.8095 140.626 49.7686 140.583C49.6826 140.499 49.5698 140.451 49.4521 140.449H40.8815V131.584C40.8817 131.524 40.8704 131.464 40.8485 131.408C40.8266 131.352 40.7944 131.302 40.7537 131.259ZM49.0016 141.367V149.779H40.8815V147.126C40.8799 147.005 40.8342 146.889 40.7537 146.801C40.6663 146.718 40.5523 146.672 40.4341 146.672C40.3159 146.672 40.202 146.718 40.1146 146.801C40.0341 146.889 39.9884 147.005 39.9867 147.126V149.779H31.8545V141.367H34.411C34.529 141.367 34.6422 141.319 34.7275 141.234C34.8064 141.148 34.8504 141.034 34.8504 140.915C34.8504 140.796 34.8064 140.681 34.7275 140.596C34.6422 140.51 34.529 140.463 34.411 140.462H31.8545V132.037H39.9867V140.449H37.4302C37.3104 140.449 37.1951 140.497 37.1076 140.583C37.0287 140.669 36.9846 140.783 36.9846 140.902C36.9846 141.021 37.0287 141.135 37.1076 141.221C37.1951 141.306 37.3104 141.354 37.4302 141.355H39.9867V144.008C39.9874 144.128 40.0334 144.242 40.1146 144.327C40.2006 144.413 40.3151 144.461 40.4341 144.461C40.5532 144.461 40.6676 144.413 40.7537 144.327C40.8349 144.242 40.8809 144.128 40.8815 144.008V141.367H49.0016ZM56.2129 127.139C56.3306 127.141 56.4434 127.188 56.5294 127.273C56.6027 127.359 56.6438 127.47 56.6451 127.585C56.6444 127.705 56.5985 127.82 56.5173 127.904C56.4336 127.993 56.3198 128.043 56.2007 128.044H43.418C43.3 128.044 43.1868 127.996 43.1014 127.91C43.0226 127.825 42.9785 127.71 42.9785 127.591C42.9785 127.473 43.0226 127.358 43.1014 127.273C43.1868 127.187 43.3 127.139 43.418 127.139H56.2129ZM56.5325 130.474C56.4465 130.39 56.3336 130.342 56.2159 130.34H43.421C43.3629 130.339 43.3053 130.35 43.2514 130.373C43.1975 130.396 43.1485 130.429 43.1071 130.472C43.0658 130.515 43.033 130.566 43.0106 130.622C42.9882 130.678 42.9766 130.738 42.9766 130.799C42.9756 130.859 42.9864 130.918 43.0084 130.973C43.0304 131.028 43.0631 131.077 43.1045 131.118C43.1457 131.162 43.1949 131.197 43.2493 131.221C43.3036 131.246 43.362 131.258 43.421 131.258H56.2038C56.3228 131.257 56.4366 131.207 56.5203 131.118C56.6015 131.034 56.6475 130.919 56.6481 130.799C56.6498 130.679 56.6085 130.563 56.5325 130.474ZM50.3737 133.588C50.428 133.612 50.4772 133.647 50.5185 133.691C50.5606 133.732 50.5943 133.781 50.6173 133.836C50.6404 133.891 50.6523 133.95 50.6524 134.01C50.6517 134.071 50.6396 134.131 50.6166 134.187C50.5936 134.243 50.5602 134.293 50.5185 134.335C50.4331 134.421 50.3199 134.468 50.2019 134.469H43.421C43.3629 134.47 43.3053 134.459 43.2514 134.436C43.1975 134.413 43.1485 134.38 43.1071 134.337C43.0658 134.294 43.033 134.243 43.0106 134.187C42.9882 134.131 42.9766 134.071 42.9766 134.01C42.9756 133.95 42.9864 133.891 43.0084 133.836C43.0304 133.781 43.0631 133.732 43.1045 133.691C43.1457 133.647 43.1949 133.612 43.2493 133.588C43.3036 133.563 43.362 133.551 43.421 133.551H50.2019C50.261 133.551 50.3193 133.563 50.3737 133.588Z"/>
</mask>
<path fill-rule="evenodd" clip-rule="evenodd" d="M59.2054 119.897C58.9087 120.204 58.5084 120.375 58.0915 120.375H35.9286H35.7825L31.2781 118.819C31.1871 118.789 31.108 118.728 31.0528 118.647C30.9998 118.571 30.9719 118.479 30.9737 118.385C30.9719 118.289 30.9997 118.195 31.0528 118.117C31.108 118.036 31.1871 117.975 31.2781 117.945L35.7825 116.351C35.8308 116.341 35.8803 116.341 35.9286 116.351H58.0915C58.5084 116.35 58.9087 116.522 59.2054 116.829C59.3521 116.978 59.4687 117.156 59.5482 117.354C59.6276 117.551 59.6684 117.763 59.668 117.977V118.749C59.6684 118.963 59.6276 119.175 59.5482 119.372C59.4687 119.569 59.3521 119.748 59.2054 119.897ZM58.0915 117.269H56.661V119.463H58.0915C58.2707 119.461 58.4423 119.386 58.5697 119.254C58.697 119.122 58.77 118.943 58.7732 118.755V117.977C58.7732 117.883 58.7555 117.791 58.7212 117.705C58.6869 117.618 58.6365 117.54 58.5732 117.474C58.5098 117.408 58.4346 117.356 58.3519 117.321C58.2692 117.286 58.1807 117.268 58.0915 117.269ZM55.7662 117.269H54.4088V119.463H55.7662V117.269ZM53.514 117.269H37.8764V119.463H53.514V117.269ZM36.0503 117.269L32.8242 118.366L35.9773 119.463H36.9816V117.269H36.0503ZM59.6306 123.631C59.6536 123.687 59.6658 123.747 59.6665 123.808L59.6969 153.368C59.6968 153.428 59.6849 153.487 59.6618 153.542C59.6388 153.597 59.6051 153.646 59.563 153.687C59.5222 153.732 59.473 153.767 59.4186 153.791C59.3642 153.815 59.3056 153.828 59.2464 153.827H25.4025C24.4912 153.828 23.6164 153.452 22.9677 152.781C22.645 152.448 22.3889 152.051 22.2143 151.613C22.0398 151.175 21.9503 150.705 21.9512 150.23V123.808C21.9517 122.92 22.2686 122.065 22.8399 121.41C23.4172 120.745 24.2084 120.327 25.0617 120.236H25.4086C26.1438 120.233 26.8607 120.476 27.4539 120.932C28.1436 121.449 28.6201 122.222 28.7869 123.094L28.8417 123.349H59.216C59.2747 123.347 59.3332 123.358 59.3876 123.381C59.4421 123.404 59.4914 123.439 59.5325 123.483C59.5743 123.525 59.6076 123.575 59.6306 123.631ZM23.0414 122.787C22.9118 123.11 22.8453 123.457 22.846 123.808V146.984L23.3329 146.601C23.9334 146.138 24.6597 145.888 25.4056 145.888C26.1514 145.888 26.8777 146.138 27.4782 146.601L27.9652 146.984V123.808C27.9656 123.458 27.8996 123.111 27.7711 122.788C27.6426 122.465 27.454 122.172 27.2165 121.926C26.7332 121.432 26.0843 121.155 25.4086 121.155C24.7329 121.155 24.0841 121.432 23.6008 121.926C23.3613 122.171 23.1711 122.464 23.0414 122.787ZM25.4086 152.883H58.7595L58.7717 124.261H28.8295V149.452C28.8285 149.574 28.7827 149.69 28.7017 149.777C28.6163 149.852 28.5086 149.893 28.3973 149.893C28.2861 149.893 28.1784 149.852 28.093 149.777C28.012 149.69 27.9662 149.574 27.9652 149.452C27.9651 149.103 27.8989 148.758 27.7704 148.436C27.6419 148.114 27.4536 147.822 27.2165 147.577C26.7332 147.082 26.0843 146.805 25.4086 146.805C24.7329 146.805 24.0841 147.082 23.6008 147.577C23.3617 147.821 23.1718 148.112 23.0421 148.434C22.9125 148.756 22.8458 149.102 22.846 149.452V150.23C22.8424 150.578 22.9057 150.924 23.0323 151.246C23.1588 151.568 23.3459 151.86 23.5825 152.105C23.822 152.356 24.1069 152.554 24.4205 152.687C24.7341 152.821 25.0701 152.888 25.4086 152.883ZM41.523 162.063C41.501 162.008 41.4902 161.949 41.4913 161.889V157.221C41.4902 157.161 41.501 157.102 41.523 157.047C41.545 156.992 41.5778 156.943 41.6191 156.902C41.6606 156.859 41.71 156.825 41.7644 156.802C41.8188 156.779 41.877 156.767 41.9356 156.768H62.5281V138.567C62.5287 138.447 62.5747 138.332 62.6559 138.248C62.7396 138.159 62.8534 138.109 62.9724 138.107H67.5012C67.5603 138.107 67.6189 138.119 67.6733 138.143C67.7278 138.167 67.7769 138.203 67.8177 138.248C67.8599 138.288 67.8935 138.338 67.9166 138.392C67.9396 138.447 67.9516 138.507 67.9516 138.567V161.889C67.9516 161.949 67.9396 162.009 67.9166 162.064C67.8935 162.118 67.8599 162.168 67.8177 162.208C67.7766 162.252 67.7273 162.287 67.6728 162.31C67.6183 162.333 67.5599 162.344 67.5012 162.342H41.9356C41.877 162.343 41.8188 162.332 41.7644 162.309C41.71 162.286 41.6606 162.252 41.6191 162.208C41.5778 162.167 41.545 162.118 41.523 162.063ZM67.0386 139.026H63.4046L63.4229 156.768H67.0386V139.026ZM44.4983 157.68H42.3861V161.43H67.0386V157.68H61.1342V158.758C61.1335 158.819 61.1213 158.879 61.0983 158.935C61.0753 158.991 61.042 159.041 61.0002 159.083C60.9154 159.159 60.8075 159.201 60.6959 159.201C60.5843 159.201 60.4764 159.159 60.3915 159.083C60.3506 159.041 60.3182 158.99 60.2962 158.934C60.2743 158.878 60.2632 158.818 60.2637 158.758V157.68H58.9002V158.758C58.9007 158.818 58.8896 158.878 58.8677 158.934C58.8457 158.99 58.8133 159.041 58.7724 159.083C58.6875 159.159 58.5796 159.201 58.468 159.201C58.3565 159.201 58.2485 159.159 58.1637 159.083C58.1219 159.041 58.0886 158.991 58.0656 158.935C58.0426 158.879 58.0304 158.819 58.0298 158.758V157.68H56.5019V158.758C56.5003 158.879 56.4546 158.996 56.3741 159.083C56.2887 159.158 56.181 159.199 56.0697 159.199C55.9585 159.199 55.8508 159.158 55.7654 159.083C55.6849 158.996 55.6392 158.879 55.6376 158.758V157.68H54.2801V158.758C54.2795 158.819 54.2673 158.879 54.2443 158.935C54.2213 158.991 54.188 159.041 54.1462 159.083C54.0614 159.159 53.9535 159.201 53.8419 159.201C53.7303 159.201 53.6224 159.159 53.5375 159.083C53.4966 159.041 53.4642 158.99 53.4422 158.934C53.4203 158.878 53.4092 158.818 53.4097 158.758V157.68H52.0462V158.758C52.0467 158.818 52.0356 158.878 52.0137 158.934C51.9917 158.99 51.9593 159.041 51.9184 159.083C51.8335 159.159 51.7256 159.201 51.614 159.201C51.5024 159.201 51.3945 159.159 51.3097 159.083C51.2687 159.041 51.2363 158.99 51.2144 158.934C51.1924 158.878 51.1814 158.818 51.1818 158.758V157.68H49.8183V158.758C49.8188 158.818 49.8078 158.878 49.7858 158.934C49.7639 158.99 49.7315 159.041 49.6905 159.083C49.6051 159.158 49.4974 159.199 49.3862 159.199C49.2749 159.199 49.1672 159.158 49.0818 159.083C49.0013 158.996 48.9556 158.879 48.954 158.758V157.68H47.5966V158.758C47.5959 158.819 47.5838 158.879 47.5608 158.935C47.5378 158.991 47.5044 159.041 47.4627 159.083C47.3778 159.159 47.2699 159.201 47.1583 159.201C47.0467 159.201 46.9388 159.159 46.854 159.083C46.813 159.041 46.7806 158.99 46.7587 158.934C46.7367 158.878 46.7257 158.818 46.7261 158.758V157.68H45.3626V158.758C45.3631 158.818 45.3521 158.878 45.3301 158.934C45.3081 158.99 45.2757 159.041 45.2348 159.083C45.15 159.159 45.042 159.201 44.9305 159.201C44.8189 159.201 44.711 159.159 44.6261 159.083C44.5852 159.041 44.5528 158.99 44.5308 158.934C44.5089 158.878 44.4978 158.818 44.4983 158.758V157.68ZM64.5718 159.714C64.8239 159.714 65.0283 159.5 65.0283 159.236C65.0283 158.972 64.8239 158.758 64.5718 158.758C64.3196 158.758 64.1152 158.972 64.1152 159.236C64.1152 159.5 64.3196 159.714 64.5718 159.714ZM40.7537 131.259C40.711 131.215 40.6606 131.181 40.6052 131.158C40.5498 131.135 40.4906 131.124 40.4311 131.125H31.4162C31.3576 131.124 31.2993 131.135 31.245 131.158C31.1906 131.181 31.1412 131.216 31.0997 131.259C31.0578 131.301 31.0249 131.351 31.0029 131.407C30.9808 131.463 30.9703 131.524 30.9718 131.584V150.232C30.9703 150.293 30.9808 150.353 31.0029 150.409C31.0249 150.465 31.0578 150.516 31.0997 150.558C31.1412 150.601 31.1906 150.635 31.245 150.658C31.2993 150.681 31.3576 150.692 31.4162 150.691H49.4521C49.5107 150.692 49.5688 150.681 49.6231 150.658C49.6774 150.635 49.7269 150.601 49.7686 150.558C49.8104 150.516 49.8434 150.465 49.8654 150.409C49.8874 150.353 49.898 150.293 49.8964 150.232V140.908C49.8969 140.848 49.8858 140.788 49.8639 140.732C49.8419 140.676 49.8095 140.626 49.7686 140.583C49.6826 140.499 49.5698 140.451 49.4521 140.449H40.8815V131.584C40.8817 131.524 40.8704 131.464 40.8485 131.408C40.8266 131.352 40.7944 131.302 40.7537 131.259ZM49.0016 141.367V149.779H40.8815V147.126C40.8799 147.005 40.8342 146.889 40.7537 146.801C40.6663 146.718 40.5523 146.672 40.4341 146.672C40.3159 146.672 40.202 146.718 40.1146 146.801C40.0341 146.889 39.9884 147.005 39.9867 147.126V149.779H31.8545V141.367H34.411C34.529 141.367 34.6422 141.319 34.7275 141.234C34.8064 141.148 34.8504 141.034 34.8504 140.915C34.8504 140.796 34.8064 140.681 34.7275 140.596C34.6422 140.51 34.529 140.463 34.411 140.462H31.8545V132.037H39.9867V140.449H37.4302C37.3104 140.449 37.1951 140.497 37.1076 140.583C37.0287 140.669 36.9846 140.783 36.9846 140.902C36.9846 141.021 37.0287 141.135 37.1076 141.221C37.1951 141.306 37.3104 141.354 37.4302 141.355H39.9867V144.008C39.9874 144.128 40.0334 144.242 40.1146 144.327C40.2006 144.413 40.3151 144.461 40.4341 144.461C40.5532 144.461 40.6676 144.413 40.7537 144.327C40.8349 144.242 40.8809 144.128 40.8815 144.008V141.367H49.0016ZM56.2129 127.139C56.3306 127.141 56.4434 127.188 56.5294 127.273C56.6027 127.359 56.6438 127.47 56.6451 127.585C56.6444 127.705 56.5985 127.82 56.5173 127.904C56.4336 127.993 56.3198 128.043 56.2007 128.044H43.418C43.3 128.044 43.1868 127.996 43.1014 127.91C43.0226 127.825 42.9785 127.71 42.9785 127.591C42.9785 127.473 43.0226 127.358 43.1014 127.273C43.1868 127.187 43.3 127.139 43.418 127.139H56.2129ZM56.5325 130.474C56.4465 130.39 56.3336 130.342 56.2159 130.34H43.421C43.3629 130.339 43.3053 130.35 43.2514 130.373C43.1975 130.396 43.1485 130.429 43.1071 130.472C43.0658 130.515 43.033 130.566 43.0106 130.622C42.9882 130.678 42.9766 130.738 42.9766 130.799C42.9756 130.859 42.9864 130.918 43.0084 130.973C43.0304 131.028 43.0631 131.077 43.1045 131.118C43.1457 131.162 43.1949 131.197 43.2493 131.221C43.3036 131.246 43.362 131.258 43.421 131.258H56.2038C56.3228 131.257 56.4366 131.207 56.5203 131.118C56.6015 131.034 56.6475 130.919 56.6481 130.799C56.6498 130.679 56.6085 130.563 56.5325 130.474ZM50.3737 133.588C50.428 133.612 50.4772 133.647 50.5185 133.691C50.5606 133.732 50.5943 133.781 50.6173 133.836C50.6404 133.891 50.6523 133.95 50.6524 134.01C50.6517 134.071 50.6396 134.131 50.6166 134.187C50.5936 134.243 50.5602 134.293 50.5185 134.335C50.4331 134.421 50.3199 134.468 50.2019 134.469H43.421C43.3629 134.47 43.3053 134.459 43.2514 134.436C43.1975 134.413 43.1485 134.38 43.1071 134.337C43.0658 134.294 43.033 134.243 43.0106 134.187C42.9882 134.131 42.9766 134.071 42.9766 134.01C42.9756 133.95 42.9864 133.891 43.0084 133.836C43.0304 133.781 43.0631 133.732 43.1045 133.691C43.1457 133.647 43.1949 133.612 43.2493 133.588C43.3036 133.563 43.362 133.551 43.421 133.551H50.2019C50.261 133.551 50.3193 133.563 50.3737 133.588Z" fill="#325837"/>
<path d="M58.0915 120.375L58.0917 120.175H58.0915V120.375ZM59.2054 119.897L59.0629 119.756L59.0616 119.758L59.2054 119.897ZM35.7825 120.375L35.7172 120.564L35.7489 120.575H35.7825V120.375ZM31.2781 118.819L31.3434 118.63L31.341 118.629L31.2781 118.819ZM31.0528 118.647L31.2185 118.534L31.2166 118.532L31.0528 118.647ZM30.9737 118.385L31.1738 118.389L31.1737 118.381L30.9737 118.385ZM31.0528 118.117L31.2182 118.23L31.2185 118.229L31.0528 118.117ZM31.2781 117.945L31.3411 118.135L31.3448 118.134L31.2781 117.945ZM35.7825 116.351L35.745 116.154L35.7301 116.157L35.7157 116.162L35.7825 116.351ZM35.9286 116.351L35.8911 116.547L35.9097 116.551H35.9286V116.351ZM58.0915 116.351V116.551L58.0917 116.551L58.0915 116.351ZM59.2054 116.829L59.0616 116.968L59.0629 116.969L59.2054 116.829ZM59.5482 117.354L59.3627 117.428L59.3627 117.428L59.5482 117.354ZM59.668 117.977L59.468 117.977V117.977H59.668ZM59.668 118.749H59.468L59.468 118.749L59.668 118.749ZM59.5482 119.372L59.3627 119.297L59.3627 119.297L59.5482 119.372ZM56.661 117.269V117.069H56.461V117.269H56.661ZM58.0915 117.269V117.469L58.0933 117.469L58.0915 117.269ZM56.661 119.463H56.461V119.663H56.661V119.463ZM58.0915 119.463V119.663L58.0933 119.663L58.0915 119.463ZM58.5697 119.254L58.4256 119.115L58.4256 119.115L58.5697 119.254ZM58.7732 118.755L58.9732 118.758V118.755H58.7732ZM58.7732 117.977L58.5732 117.977V117.977H58.7732ZM58.7212 117.705L58.5354 117.778L58.5354 117.778L58.7212 117.705ZM58.5732 117.474L58.4291 117.613L58.4291 117.613L58.5732 117.474ZM54.4088 117.269V117.069H54.2088V117.269H54.4088ZM55.7662 117.269H55.9662V117.069H55.7662V117.269ZM54.4088 119.463H54.2088V119.663H54.4088V119.463ZM55.7662 119.463V119.663H55.9662V119.463H55.7662ZM37.8764 117.269V117.069H37.6764V117.269H37.8764ZM53.514 117.269H53.714V117.069H53.514V117.269ZM37.8764 119.463H37.6764V119.663H37.8764V119.463ZM53.514 119.463V119.663H53.714V119.463H53.514ZM32.8242 118.366L32.7598 118.177L32.2093 118.364L32.7585 118.555L32.8242 118.366ZM36.0503 117.269V117.069H36.0172L35.9859 117.08L36.0503 117.269ZM35.9773 119.463L35.9115 119.652L35.9435 119.663H35.9773V119.463ZM36.9816 119.463V119.663H37.1816V119.463H36.9816ZM36.9816 117.269H37.1816V117.069H36.9816V117.269ZM59.6665 123.808L59.8665 123.808L59.8664 123.806L59.6665 123.808ZM59.6969 153.368L59.8969 153.368L59.8969 153.368L59.6969 153.368ZM59.563 153.687L59.424 153.542L59.4151 153.552L59.563 153.687ZM59.4186 153.791L59.3375 153.608L59.3375 153.608L59.4186 153.791ZM59.2464 153.827L59.2483 153.627H59.2464V153.827ZM25.4025 153.827L25.4025 153.627L25.4024 153.627L25.4025 153.827ZM22.9677 152.781L23.1115 152.642L23.1114 152.642L22.9677 152.781ZM22.2143 151.613L22.0285 151.687L22.0285 151.687L22.2143 151.613ZM21.9512 150.23L22.1512 150.23V150.23H21.9512ZM21.9512 123.808L21.7512 123.808V123.808H21.9512ZM22.8399 121.41L22.9906 121.541L22.9909 121.541L22.8399 121.41ZM25.0617 120.236V120.036H25.051L25.0404 120.037L25.0617 120.236ZM25.4086 120.236L25.4086 120.436L25.4096 120.436L25.4086 120.236ZM27.4539 120.932L27.3321 121.09L27.3338 121.091L27.4539 120.932ZM28.7869 123.094L28.5904 123.131L28.5914 123.136L28.7869 123.094ZM28.8417 123.349L28.6462 123.391L28.6801 123.549H28.8417V123.349ZM59.216 123.349V123.549L59.2219 123.549L59.216 123.349ZM59.5325 123.483L59.3864 123.619L59.3903 123.623L59.5325 123.483ZM22.846 123.808L23.046 123.808L23.046 123.807L22.846 123.808ZM23.0414 122.787L22.8558 122.713L22.8558 122.713L23.0414 122.787ZM22.846 146.984H22.646V147.395L22.9695 147.141L22.846 146.984ZM23.3329 146.601L23.2107 146.443L23.2094 146.444L23.3329 146.601ZM27.4782 146.601L27.6018 146.444L27.6004 146.443L27.4782 146.601ZM27.9652 146.984L27.8416 147.141L28.1652 147.395V146.984H27.9652ZM27.9652 123.808L27.7652 123.808V123.808H27.9652ZM27.2165 121.926L27.3603 121.787L27.3595 121.787L27.2165 121.926ZM23.6008 121.926L23.7437 122.066L23.7438 122.066L23.6008 121.926ZM58.7595 152.883V153.083H58.9594L58.9595 152.883L58.7595 152.883ZM25.4086 152.883V152.683L25.406 152.683L25.4086 152.883ZM58.7717 124.261L58.9717 124.261L58.9717 124.061H58.7717V124.261ZM28.8295 124.261V124.061H28.6295V124.261H28.8295ZM28.8295 149.452L29.0295 149.454V149.452H28.8295ZM28.7017 149.777L28.8334 149.928L28.8411 149.921L28.8481 149.913L28.7017 149.777ZM28.093 149.777L27.9466 149.913L27.9536 149.921L27.9613 149.928L28.093 149.777ZM27.9652 149.452L27.7652 149.452L27.7652 149.454L27.9652 149.452ZM27.7704 148.436L27.9561 148.362L27.9561 148.362L27.7704 148.436ZM27.2165 147.577L27.3602 147.438L27.3595 147.437L27.2165 147.577ZM23.6008 147.577L23.7436 147.717L23.7438 147.717L23.6008 147.577ZM23.0421 148.434L22.8566 148.36L22.8566 148.36L23.0421 148.434ZM22.846 149.452L23.046 149.452L23.046 149.452L22.846 149.452ZM22.846 150.23L23.046 150.232V150.23H22.846ZM23.0323 151.246L22.8461 151.319L22.8461 151.319L23.0323 151.246ZM23.5825 152.105L23.7271 151.967L23.7263 151.966L23.5825 152.105ZM24.4205 152.687L24.4989 152.503L24.4989 152.503L24.4205 152.687ZM41.4913 161.889L41.6913 161.893V161.889H41.4913ZM41.523 162.063L41.7087 161.989L41.7087 161.989L41.523 162.063ZM41.4913 157.221H41.6913L41.6913 157.217L41.4913 157.221ZM41.523 157.047L41.7087 157.122L41.7087 157.122L41.523 157.047ZM41.6191 156.902L41.7598 157.044L41.7636 157.04L41.6191 156.902ZM41.7644 156.802L41.6865 156.617L41.6865 156.617L41.7644 156.802ZM41.9356 156.768L41.9322 156.968H41.9356V156.768ZM62.5281 156.768V156.968H62.7281V156.768H62.5281ZM62.5281 138.567L62.3281 138.566V138.567H62.5281ZM62.6559 138.248L62.8 138.386L62.8014 138.385L62.6559 138.248ZM62.9724 138.107V137.907L62.9706 137.907L62.9724 138.107ZM67.5012 138.107V138.307L67.503 138.307L67.5012 138.107ZM67.8177 138.248L67.6695 138.383L67.679 138.392L67.8177 138.248ZM67.9166 138.392L67.7322 138.47L67.7322 138.47L67.9166 138.392ZM67.9516 138.567L68.1516 138.567L68.1516 138.566L67.9516 138.567ZM67.9516 161.889L68.1516 161.89V161.889H67.9516ZM67.9166 162.064L67.7322 161.986L67.7322 161.986L67.9166 162.064ZM67.8177 162.208L67.6788 162.064L67.6716 162.072L67.8177 162.208ZM67.6728 162.31L67.7508 162.494L67.7508 162.494L67.6728 162.31ZM67.5012 162.342L67.5071 162.142H67.5012V162.342ZM41.9356 162.342V162.142L41.9322 162.142L41.9356 162.342ZM41.7644 162.309L41.6865 162.493L41.6865 162.493L41.7644 162.309ZM41.6191 162.208L41.7636 162.07L41.7597 162.066L41.6191 162.208ZM63.4046 139.026V138.826H63.2044L63.2046 139.026L63.4046 139.026ZM67.0386 139.026H67.2386V138.826H67.0386V139.026ZM63.4229 156.768L63.2229 156.768L63.2231 156.968H63.4229V156.768ZM67.0386 156.768V156.968H67.2386V156.768H67.0386ZM42.3861 157.68V157.48H42.1861V157.68H42.3861ZM44.4983 157.68H44.6983V157.48H44.4983V157.68ZM42.3861 161.43H42.1861V161.63H42.3861V161.43ZM67.0386 161.43V161.63H67.2386V161.43H67.0386ZM67.0386 157.68H67.2386V157.48H67.0386V157.68ZM61.1342 157.68V157.48H60.9342V157.68H61.1342ZM61.1342 158.758L61.3342 158.76V158.758H61.1342ZM61.0983 158.935L61.2833 159.011L61.2833 159.011L61.0983 158.935ZM61.0002 159.083L61.1338 159.233L61.1424 159.224L61.0002 159.083ZM60.3915 159.083L60.2474 159.222L60.2526 159.227L60.2582 159.232L60.3915 159.083ZM60.2637 158.758L60.4637 158.76V158.758H60.2637ZM60.2637 157.68H60.4637V157.48H60.2637V157.68ZM58.9002 157.68V157.48H58.7002V157.68H58.9002ZM58.9002 158.758H58.7002L58.7002 158.76L58.9002 158.758ZM58.7724 159.083L58.9057 159.232L58.9113 159.227L58.9165 159.222L58.7724 159.083ZM58.1637 159.083L58.0212 159.224L58.0303 159.232L58.1637 159.083ZM58.0656 158.935L57.8806 159.011L57.8806 159.011L58.0656 158.935ZM58.0298 158.758H57.8298L57.8298 158.76L58.0298 158.758ZM58.0298 157.68H58.2298V157.48H58.0298V157.68ZM56.5019 157.68V157.48H56.3019V157.68H56.5019ZM56.5019 158.758L56.7019 158.761V158.758H56.5019ZM56.3741 159.083L56.5058 159.234L56.5139 159.227L56.5213 159.219L56.3741 159.083ZM55.7654 159.083L55.6182 159.219L55.6255 159.227L55.6337 159.234L55.7654 159.083ZM55.6376 158.758H55.4375L55.4376 158.761L55.6376 158.758ZM55.6376 157.68H55.8376V157.48H55.6376V157.68ZM54.2801 157.68V157.48H54.0801V157.68H54.2801ZM54.2801 158.758L54.4801 158.76V158.758H54.2801ZM54.2443 158.935L54.4293 159.011L54.4293 159.011L54.2443 158.935ZM54.1462 159.083L54.2798 159.233L54.2884 159.224L54.1462 159.083ZM53.5375 159.083L53.3934 159.222L53.3986 159.227L53.4042 159.232L53.5375 159.083ZM53.4422 158.934L53.2561 159.007L53.2561 159.007L53.4422 158.934ZM53.4097 158.758L53.6097 158.76V158.758H53.4097ZM53.4097 157.68H53.6097V157.48H53.4097V157.68ZM52.0462 157.68V157.48H51.8462V157.68H52.0462ZM52.0462 158.758H51.8462L51.8462 158.76L52.0462 158.758ZM51.9184 159.083L52.0517 159.232L52.0573 159.227L52.0625 159.222L51.9184 159.083ZM51.3097 159.083L51.1656 159.222L51.1708 159.227L51.1763 159.232L51.3097 159.083ZM51.1818 158.758L51.3818 158.76V158.758H51.1818ZM51.1818 157.68H51.3818V157.48H51.1818V157.68ZM49.8183 157.68V157.48H49.6183V157.68H49.8183ZM49.8183 158.758H49.6183L49.6184 158.76L49.8183 158.758ZM49.6905 159.083L49.8222 159.234L49.8287 159.228L49.8346 159.222L49.6905 159.083ZM49.0818 159.083L48.9346 159.219L48.942 159.227L48.9501 159.234L49.0818 159.083ZM48.954 158.758H48.754L48.754 158.761L48.954 158.758ZM48.954 157.68H49.154V157.48H48.954V157.68ZM47.5966 157.68V157.48H47.3966V157.68H47.5966ZM47.5966 158.758L47.7966 158.76V158.758H47.5966ZM47.5608 158.935L47.3758 158.859L47.3758 158.859L47.5608 158.935ZM47.4627 159.083L47.5963 159.233L47.6049 159.224L47.4627 159.083ZM46.854 159.083L46.7099 159.222L46.715 159.227L46.7206 159.232L46.854 159.083ZM46.7587 158.934L46.9448 158.861L46.9448 158.861L46.7587 158.934ZM46.7261 158.758L46.9261 158.76V158.758H46.7261ZM46.7261 157.68H46.9261V157.48H46.7261V157.68ZM45.3626 157.68V157.48H45.1626V157.68H45.3626ZM45.3626 158.758H45.1626L45.1626 158.76L45.3626 158.758ZM45.3301 158.934L45.5162 159.007L45.5162 159.007L45.3301 158.934ZM45.2348 159.083L45.3682 159.232L45.3737 159.227L45.3789 159.222L45.2348 159.083ZM44.6261 159.083L44.482 159.222L44.4872 159.227L44.4928 159.232L44.6261 159.083ZM44.4983 158.758L44.6983 158.76V158.758H44.4983ZM40.6052 131.158L40.5285 131.343L40.5285 131.343L40.6052 131.158ZM40.7537 131.259L40.8986 131.121L40.8966 131.119L40.7537 131.259ZM40.4311 131.125V131.325L40.4349 131.325L40.4311 131.125ZM31.4162 131.125L31.4128 131.325H31.4162V131.125ZM31.0997 131.259L31.2412 131.4L31.2441 131.397L31.0997 131.259ZM31.0029 131.407L31.189 131.481L31.189 131.481L31.0029 131.407ZM30.9718 131.584H31.1719L31.1718 131.579L30.9718 131.584ZM30.9718 150.232L31.1718 150.237V150.232H30.9718ZM31.0029 150.409L31.189 150.336L31.189 150.336L31.0029 150.409ZM31.0997 150.558L31.2442 150.419L31.2412 150.416L31.0997 150.558ZM31.245 150.658L31.3229 150.474L31.3229 150.474L31.245 150.658ZM31.4162 150.691V150.491L31.4128 150.491L31.4162 150.691ZM49.4521 150.691L49.4543 150.491H49.4521V150.691ZM49.6231 150.658L49.5452 150.473L49.5452 150.473L49.6231 150.658ZM49.7686 150.558L49.6271 150.416L49.6249 150.418L49.7686 150.558ZM49.8654 150.409L49.6793 150.336L49.6793 150.336L49.8654 150.409ZM49.8964 150.232H49.6964L49.6965 150.237L49.8964 150.232ZM49.8964 140.908L49.6964 140.907V140.908H49.8964ZM49.8639 140.732L49.6777 140.805L49.6777 140.805L49.8639 140.732ZM49.7686 140.583L49.9128 140.444L49.9085 140.44L49.7686 140.583ZM49.4521 140.449L49.4554 140.249H49.4521V140.449ZM40.8815 140.449H40.6815V140.649H40.8815V140.449ZM40.8815 131.584L40.6815 131.584V131.584H40.8815ZM40.8485 131.408L40.6624 131.481L40.6624 131.481L40.8485 131.408ZM49.0016 149.779V149.979H49.2016V149.779H49.0016ZM49.0016 141.367H49.2016V141.167H49.0016V141.367ZM40.8815 149.779H40.6815V149.979H40.8815V149.779ZM40.8815 147.126H41.0815L41.0815 147.124L40.8815 147.126ZM40.7537 146.801L40.9012 146.665L40.8917 146.656L40.7537 146.801ZM40.1146 146.801L39.9762 146.656L39.9674 146.666L40.1146 146.801ZM39.9867 147.126L39.7867 147.124V147.126H39.9867ZM39.9867 149.779V149.979H40.1867V149.779H39.9867ZM31.8545 149.779H31.6545V149.979H31.8545V149.779ZM31.8545 141.367V141.167H31.6545V141.367H31.8545ZM34.411 141.367V141.567L34.4122 141.567L34.411 141.367ZM34.7275 141.234L34.869 141.375L34.8746 141.369L34.7275 141.234ZM34.7275 140.596L34.8748 140.46L34.8689 140.454L34.7275 140.596ZM34.411 140.462L34.4123 140.262H34.411V140.462ZM31.8545 140.462H31.6545V140.662H31.8545V140.462ZM31.8545 132.037V131.837H31.6545V132.037H31.8545ZM39.9867 132.037H40.1867V131.837H39.9867V132.037ZM39.9867 140.449V140.649H40.1867V140.449H39.9867ZM37.4302 140.449V140.249L37.4295 140.249L37.4302 140.449ZM37.1076 140.583L36.9675 140.44L36.9605 140.448L37.1076 140.583ZM37.1076 141.221L36.9603 141.356L36.9677 141.364L37.1076 141.221ZM37.4302 141.355L37.4295 141.555H37.4302V141.355ZM39.9867 141.355H40.1867V141.155H39.9867V141.355ZM39.9867 144.008H39.7867L39.7867 144.009L39.9867 144.008ZM40.1146 144.327L39.9704 144.465L39.9731 144.468L40.1146 144.327ZM40.7537 144.327L40.8952 144.468L40.8978 144.465L40.7537 144.327ZM40.8815 144.008L41.0815 144.009V144.008H40.8815ZM40.8815 141.367V141.167H40.6815V141.367H40.8815ZM56.5294 127.273L56.6818 127.143L56.6759 127.136L56.6693 127.13L56.5294 127.273ZM56.2129 127.139L56.2163 126.939H56.2129V127.139ZM56.6451 127.585L56.8451 127.586L56.8451 127.583L56.6451 127.585ZM56.5173 127.904L56.3731 127.765L56.3717 127.767L56.5173 127.904ZM56.2007 128.044V128.244L56.2026 128.244L56.2007 128.044ZM43.418 128.044L43.4167 128.244H43.418V128.044ZM43.1014 127.91L42.9542 128.046L42.9601 128.052L43.1014 127.91ZM43.1014 127.273L42.9599 127.131L42.9543 127.137L43.1014 127.273ZM43.418 127.139L43.418 126.939L43.4167 126.939L43.418 127.139ZM56.2159 130.34L56.2193 130.14H56.2159V130.34ZM56.5325 130.474L56.6848 130.344L56.6789 130.337L56.6724 130.331L56.5325 130.474ZM43.421 130.34L43.4181 130.54H43.421V130.34ZM43.2514 130.373L43.329 130.557L43.3291 130.557L43.2514 130.373ZM43.0106 130.622L43.1963 130.696L43.1963 130.696L43.0106 130.622ZM42.9766 130.799L43.1766 130.803L43.1766 130.799L42.9766 130.799ZM43.0084 130.973L42.8227 131.047L42.8227 131.047L43.0084 130.973ZM43.1045 131.118L43.2509 130.981L43.2451 130.976L43.1045 131.118ZM43.2493 131.221L43.1682 131.404L43.1682 131.404L43.2493 131.221ZM43.421 131.258L43.4203 131.458H43.421V131.258ZM56.2038 131.258V131.458L56.2056 131.458L56.2038 131.258ZM56.5203 131.118L56.3762 130.979L56.3747 130.981L56.5203 131.118ZM56.6481 130.799L56.4481 130.796L56.4481 130.798L56.6481 130.799ZM50.5185 133.691L50.3719 133.828L50.3798 133.835L50.5185 133.691ZM50.3737 133.588L50.4547 133.405L50.4547 133.405L50.3737 133.588ZM50.6173 133.836L50.8017 133.758L50.8017 133.758L50.6173 133.836ZM50.6524 134.01L50.8524 134.012L50.8524 134.01L50.6524 134.01ZM50.6166 134.187L50.4316 134.111L50.4316 134.111L50.6166 134.187ZM50.5185 134.335L50.6598 134.477L50.6607 134.476L50.5185 134.335ZM50.2019 134.469L50.2019 134.669L50.2032 134.669L50.2019 134.469ZM43.421 134.469V134.269L43.4181 134.269L43.421 134.469ZM43.2514 134.436L43.3291 134.252L43.329 134.252L43.2514 134.436ZM43.1071 134.337L43.2509 134.198L43.2509 134.198L43.1071 134.337ZM43.0106 134.187L43.1963 134.113L43.1963 134.113L43.0106 134.187ZM42.9766 134.01L43.1767 134.01L43.1766 134.006L42.9766 134.01ZM43.1045 133.691L43.2452 133.833L43.2508 133.827L43.1045 133.691ZM43.2493 133.588L43.3303 133.77L43.3303 133.77L43.2493 133.588ZM43.421 133.551V133.351L43.4203 133.351L43.421 133.551ZM50.2019 133.551L50.2026 133.351H50.2019V133.551ZM58.0912 120.575C58.5639 120.575 59.0158 120.381 59.3492 120.036L59.0616 119.758C58.8016 120.027 58.4529 120.175 58.0917 120.175L58.0912 120.575ZM35.9286 120.575H58.0915V120.175H35.9286V120.575ZM35.7825 120.575H35.9286V120.175H35.7825V120.575ZM31.2128 119.008L35.7172 120.564L35.8478 120.186L31.3434 118.63L31.2128 119.008ZM30.8872 118.759C30.9664 118.876 31.081 118.964 31.2151 119.009L31.341 118.629C31.2932 118.613 31.2497 118.581 31.2185 118.535L30.8872 118.759ZM30.7737 118.381C30.7712 118.517 30.8113 118.65 30.8891 118.761L31.2166 118.532C31.1882 118.491 31.1727 118.441 31.1737 118.389L30.7737 118.381ZM30.8875 118.005C30.8107 118.118 30.7712 118.252 30.7737 118.389L31.1737 118.381C31.1727 118.326 31.1887 118.273 31.2182 118.23L30.8875 118.005ZM31.2151 117.755C31.081 117.8 30.9664 117.888 30.8872 118.005L31.2185 118.229C31.2497 118.183 31.2932 118.151 31.341 118.135L31.2151 117.755ZM35.7157 116.162L31.2113 117.757L31.3448 118.134L35.8492 116.539L35.7157 116.162ZM35.966 116.154C35.893 116.14 35.8181 116.14 35.745 116.154L35.8199 116.547C35.8435 116.543 35.8675 116.543 35.8911 116.547L35.966 116.154ZM58.0915 116.151H35.9286V116.551H58.0915V116.151ZM59.3492 116.69C59.0158 116.345 58.5639 116.15 58.0912 116.151L58.0917 116.551C58.4529 116.55 58.8016 116.699 59.0616 116.968L59.3492 116.69ZM59.7337 117.279C59.6445 117.058 59.5134 116.857 59.3479 116.689L59.0629 116.969C59.1908 117.099 59.2929 117.255 59.3627 117.428L59.7337 117.279ZM59.868 117.977C59.8684 117.738 59.8228 117.5 59.7337 117.279L59.3627 117.428C59.4325 117.602 59.4683 117.788 59.468 117.977L59.868 117.977ZM59.868 118.749V117.977H59.468V118.749H59.868ZM59.7337 119.447C59.8228 119.225 59.8684 118.988 59.868 118.748L59.468 118.749C59.4683 118.938 59.4325 119.124 59.3627 119.297L59.7337 119.447ZM59.3479 120.037C59.5134 119.869 59.6445 119.668 59.7337 119.447L59.3627 119.297C59.2929 119.47 59.1908 119.626 59.0629 119.756L59.3479 120.037ZM56.661 117.469H58.0915V117.069H56.661V117.469ZM56.861 119.463V117.269H56.461V119.463H56.861ZM58.0915 119.263H56.661V119.663H58.0915V119.263ZM58.4256 119.115C58.3345 119.21 58.2138 119.262 58.0896 119.263L58.0933 119.663C58.3277 119.661 58.5501 119.563 58.7137 119.393L58.4256 119.115ZM58.5732 118.752C58.5709 118.89 58.517 119.021 58.4256 119.115L58.7137 119.393C58.877 119.223 58.9692 118.995 58.9732 118.758L58.5732 118.752ZM58.5732 117.977V118.755H58.9732V117.977H58.5732ZM58.5354 117.778C58.5603 117.841 58.5732 117.909 58.5732 117.977L58.9732 117.977C58.9732 117.858 58.9508 117.741 58.907 117.631L58.5354 117.778ZM58.4291 117.613C58.4742 117.66 58.5105 117.716 58.5354 117.778L58.907 117.631C58.8633 117.521 58.7989 117.42 58.7172 117.335L58.4291 117.613ZM58.2736 117.505C58.3311 117.53 58.384 117.566 58.4291 117.613L58.7172 117.335C58.6355 117.251 58.5381 117.183 58.4302 117.137L58.2736 117.505ZM58.0933 117.469C58.1548 117.468 58.216 117.481 58.2736 117.505L58.4302 117.137C58.3224 117.091 58.2066 117.068 58.0896 117.069L58.0933 117.469ZM54.4088 117.469H55.7662V117.069H54.4088V117.469ZM54.6088 119.463V117.269H54.2088V119.463H54.6088ZM55.7662 119.263H54.4088V119.663H55.7662V119.263ZM55.5662 117.269V119.463H55.9662V117.269H55.5662ZM37.8764 117.469H53.514V117.069H37.8764V117.469ZM38.0764 119.463V117.269H37.6764V119.463H38.0764ZM53.514 119.263H37.8764V119.663H53.514V119.263ZM53.314 117.269V119.463H53.714V117.269H53.314ZM32.8886 118.555L36.1147 117.458L35.9859 117.08L32.7598 118.177L32.8886 118.555ZM36.043 119.274L32.8899 118.177L32.7585 118.555L35.9115 119.652L36.043 119.274ZM36.9816 119.263H35.9773V119.663H36.9816V119.263ZM36.7816 117.269V119.463H37.1816V117.269H36.7816ZM36.0503 117.469H36.9816V117.069H36.0503V117.469ZM59.8664 123.806C59.8655 123.72 59.8483 123.634 59.8156 123.555L59.4457 123.707C59.4589 123.739 59.4661 123.774 59.4665 123.81L59.8664 123.806ZM59.8969 153.368L59.8665 123.808L59.4665 123.808L59.4969 153.368L59.8969 153.368ZM59.8462 153.619C59.8796 153.54 59.8968 153.454 59.8969 153.368L59.4969 153.368C59.4968 153.401 59.4901 153.434 59.4774 153.465L59.8462 153.619ZM59.7017 153.831C59.7638 153.771 59.8128 153.699 59.8462 153.619L59.4774 153.465C59.4647 153.495 59.4465 153.521 59.4243 153.543L59.7017 153.831ZM59.4996 153.974C59.5799 153.938 59.6517 153.886 59.7109 153.821L59.4151 153.552C59.3926 153.577 59.3661 153.596 59.3375 153.608L59.4996 153.974ZM59.2446 154.027C59.3325 154.028 59.4193 154.01 59.4996 153.974L59.3375 153.608C59.309 153.621 59.2786 153.627 59.2483 153.627L59.2446 154.027ZM25.4025 154.027H59.2464V153.627H25.4025V154.027ZM22.824 152.92C23.5093 153.629 24.4356 154.028 25.4026 154.027L25.4024 153.627C24.5468 153.628 23.7234 153.275 23.1115 152.642L22.824 152.92ZM22.0285 151.687C22.2126 152.149 22.4829 152.568 22.8241 152.92L23.1114 152.642C22.8071 152.328 22.5651 151.953 22.4001 151.539L22.0285 151.687ZM21.7512 150.23C21.7503 150.73 21.8445 151.225 22.0285 151.687L22.4001 151.539C22.2351 151.125 22.1504 150.68 22.1512 150.23L21.7512 150.23ZM21.7512 123.808V150.23H22.1512V123.808H21.7512ZM22.6891 121.278C22.0854 121.971 21.7517 122.873 21.7512 123.808L22.1512 123.808C22.1516 122.968 22.4518 122.159 22.9906 121.541L22.6891 121.278ZM25.0404 120.037C24.1355 120.134 23.2985 120.577 22.6889 121.279L22.9909 121.541C23.536 120.914 24.2813 120.521 25.0829 120.435L25.0404 120.037ZM25.4086 120.036H25.0617V120.436H25.4086V120.036ZM27.5756 120.773C26.9479 120.291 26.188 120.032 25.4076 120.036L25.4096 120.436C26.0996 120.433 26.7735 120.662 27.3321 121.09L27.5756 120.773ZM28.9834 123.056C28.8075 122.137 28.3047 121.32 27.5739 120.772L27.3338 121.091C27.9825 121.578 28.4327 122.307 28.5905 123.131L28.9834 123.056ZM29.0372 123.307L28.9825 123.052L28.5914 123.136L28.6462 123.391L29.0372 123.307ZM59.216 123.149H28.8417V123.549H59.216V123.149ZM59.4656 123.197C59.3848 123.163 59.2978 123.146 59.2101 123.149L59.2219 123.549C59.2517 123.548 59.2815 123.553 59.3097 123.565L59.4656 123.197ZM59.6787 123.346C59.6188 123.282 59.5463 123.231 59.4656 123.197L59.3097 123.565C59.3379 123.577 59.3641 123.595 59.3864 123.619L59.6787 123.346ZM59.8156 123.555C59.7828 123.475 59.7351 123.403 59.6747 123.342L59.3903 123.623C59.4135 123.647 59.4325 123.675 59.4457 123.707L59.8156 123.555ZM23.046 123.807C23.0454 123.482 23.107 123.161 23.227 122.861L22.8558 122.713C22.7166 123.06 22.6453 123.432 22.646 123.808L23.046 123.807ZM23.046 146.984V123.808H22.646V146.984H23.046ZM23.2094 146.444L22.7224 146.827L22.9695 147.141L23.4565 146.758L23.2094 146.444ZM25.4056 145.688C24.6147 145.688 23.8455 145.953 23.2107 146.443L23.4552 146.76C24.0213 146.322 24.7047 146.088 25.4056 146.088V145.688ZM27.6004 146.443C26.9656 145.953 26.1965 145.688 25.4056 145.688V146.088C26.1064 146.088 26.7899 146.322 27.356 146.76L27.6004 146.443ZM28.0887 146.827L27.6018 146.444L27.3546 146.758L27.8416 147.141L28.0887 146.827ZM27.7652 123.808V146.984H28.1652V123.808H27.7652ZM27.5853 122.862C27.7043 123.162 27.7656 123.483 27.7652 123.808L28.1652 123.808C28.1656 123.433 28.0949 123.061 27.9569 122.714L27.5853 122.862ZM27.0726 122.065C27.2918 122.292 27.4662 122.563 27.5853 122.862L27.9569 122.714C27.8189 122.368 27.6163 122.052 27.3603 121.787L27.0726 122.065ZM25.4086 121.355C26.029 121.355 26.6267 121.609 27.0734 122.066L27.3595 121.787C26.8396 121.254 26.1396 120.955 25.4086 120.955V121.355ZM23.7438 122.066C24.1905 121.609 24.7882 121.355 25.4086 121.355V120.955C24.6777 120.955 23.9776 121.254 23.4577 121.787L23.7438 122.066ZM23.227 122.861C23.3471 122.562 23.5229 122.292 23.7437 122.066L23.4578 121.787C23.1996 122.05 22.9951 122.365 22.8558 122.713L23.227 122.861ZM58.7595 152.683H25.4086V153.083H58.7595V152.683ZM58.5717 124.261L58.5595 152.883L58.9595 152.883L58.9717 124.261L58.5717 124.261ZM28.8295 124.461H58.7717V124.061H28.8295V124.461ZM29.0295 149.452V124.261H28.6295V149.452H29.0295ZM28.8481 149.913C28.964 149.789 29.0281 149.624 29.0295 149.454L28.6295 149.45C28.6289 149.523 28.6014 149.591 28.5553 149.641L28.8481 149.913ZM28.3973 150.093C28.5581 150.093 28.7124 150.034 28.8334 149.928L28.57 149.627C28.5203 149.67 28.4591 149.693 28.3973 149.693V150.093ZM27.9613 149.928C28.0823 150.034 28.2366 150.093 28.3973 150.093V149.693C28.3356 149.693 28.2744 149.67 28.2247 149.627L27.9613 149.928ZM27.7652 149.454C27.7666 149.624 27.8307 149.789 27.9466 149.913L28.2394 149.641C28.1933 149.591 28.1658 149.523 28.1652 149.45L27.7652 149.454ZM27.5846 148.51C27.7037 148.808 27.7651 149.128 27.7652 149.452L28.1652 149.452C28.1651 149.078 28.0941 148.707 27.9561 148.362L27.5846 148.51ZM27.0727 147.716C27.2915 147.942 27.4656 148.212 27.5846 148.51L27.9561 148.362C27.8181 148.016 27.6157 147.702 27.3602 147.438L27.0727 147.716ZM25.4086 147.005C26.029 147.005 26.6267 147.26 27.0734 147.717L27.3595 147.437C26.8396 146.905 26.1396 146.605 25.4086 146.605V147.005ZM23.7438 147.717C24.1905 147.26 24.7882 147.005 25.4086 147.005V146.605C24.6777 146.605 23.9776 146.905 23.4577 147.437L23.7438 147.717ZM23.2277 148.509C23.3477 148.211 23.5233 147.942 23.7436 147.717L23.458 147.437C23.2002 147.7 22.9959 148.014 22.8566 148.36L23.2277 148.509ZM23.046 149.452C23.0458 149.128 23.1077 148.807 23.2277 148.509L22.8566 148.36C22.7173 148.706 22.6458 149.077 22.646 149.452L23.046 149.452ZM23.046 150.23V149.452H22.646V150.23H23.046ZM23.2184 151.173C23.1014 150.875 23.0426 150.555 23.046 150.232L22.646 150.228C22.6421 150.602 22.7101 150.973 22.8461 151.319L23.2184 151.173ZM23.7263 151.966C23.5084 151.741 23.3355 151.471 23.2184 151.173L22.8461 151.319C22.9821 151.665 23.1835 151.98 23.4387 152.244L23.7263 151.966ZM24.4989 152.503C24.2107 152.381 23.9482 152.198 23.7271 151.967L23.4379 152.243C23.6958 152.513 24.0031 152.727 24.3421 152.871L24.4989 152.503ZM25.406 152.683C25.0955 152.687 24.7871 152.626 24.4989 152.503L24.3421 152.871C24.6812 153.016 25.0447 153.088 25.4112 153.083L25.406 152.683ZM41.2913 161.886C41.2898 161.972 41.3054 162.058 41.3374 162.137L41.7087 161.989C41.6967 161.959 41.6907 161.926 41.6913 161.893L41.2913 161.886ZM41.2913 157.221V161.889H41.6913V157.221H41.2913ZM41.3374 156.973C41.3054 157.053 41.2898 157.139 41.2913 157.225L41.6913 157.217C41.6907 157.184 41.6967 157.152 41.7087 157.122L41.3374 156.973ZM41.4785 156.76C41.4173 156.82 41.3694 156.893 41.3374 156.973L41.7087 157.122C41.7207 157.092 41.7382 157.066 41.7597 157.044L41.4785 156.76ZM41.6865 156.617C41.6066 156.651 41.5347 156.701 41.4746 156.764L41.7636 157.04C41.7866 157.016 41.8135 156.998 41.8424 156.986L41.6865 156.617ZM41.939 156.568C41.8523 156.567 41.7664 156.584 41.6865 156.617L41.8423 156.986C41.8712 156.974 41.9017 156.968 41.9322 156.968L41.939 156.568ZM62.5281 156.568H41.9356V156.968H62.5281V156.568ZM62.3281 138.567V156.768H62.7281V138.567H62.3281ZM62.5118 138.109C62.3941 138.231 62.329 138.396 62.3281 138.566L62.7281 138.568C62.7285 138.498 62.7553 138.433 62.8 138.386L62.5118 138.109ZM62.9706 137.907C62.7956 137.909 62.6304 137.983 62.5104 138.111L62.8014 138.385C62.8488 138.335 62.9112 138.308 62.9743 138.307L62.9706 137.907ZM67.5012 137.907H62.9724V138.307H67.5012V137.907ZM67.7544 137.96C67.6741 137.925 67.5872 137.907 67.4994 137.907L67.503 138.307C67.5334 138.307 67.5637 138.313 67.5923 138.326L67.7544 137.96ZM67.9656 138.113C67.9065 138.048 67.8347 137.996 67.7544 137.96L67.5923 138.326C67.6209 138.339 67.6474 138.358 67.6698 138.382L67.9656 138.113ZM68.101 138.315C68.0676 138.236 68.0185 138.163 67.9564 138.104L67.679 138.392C67.7012 138.413 67.7195 138.44 67.7322 138.47L68.101 138.315ZM68.1516 138.566C68.1515 138.48 68.1344 138.395 68.101 138.315L67.7322 138.47C67.7449 138.5 67.7516 138.533 67.7516 138.567L68.1516 138.566ZM68.1516 161.889V138.567H67.7516V161.889H68.1516ZM68.101 162.141C68.1344 162.061 68.1515 161.976 68.1516 161.89L67.7516 161.889C67.7516 161.923 67.7449 161.956 67.7322 161.986L68.101 162.141ZM67.9564 162.352C68.0185 162.293 68.0676 162.221 68.101 162.141L67.7322 161.986C67.7195 162.016 67.7012 162.043 67.679 162.064L67.9564 162.352ZM67.7508 162.494C67.8315 162.46 67.904 162.409 67.9638 162.345L67.6716 162.072C67.6493 162.096 67.6231 162.114 67.5949 162.126L67.7508 162.494ZM67.4953 162.542C67.5829 162.545 67.67 162.528 67.7508 162.494L67.5949 162.126C67.5667 162.138 67.5369 162.143 67.5071 162.142L67.4953 162.542ZM41.9356 162.542H67.5012V162.142H41.9356V162.542ZM41.6865 162.493C41.7664 162.527 41.8523 162.544 41.939 162.542L41.9322 162.142C41.9017 162.143 41.8712 162.137 41.8423 162.125L41.6865 162.493ZM41.4746 162.347C41.5347 162.409 41.6066 162.459 41.6865 162.493L41.8424 162.125C41.8135 162.112 41.7866 162.094 41.7636 162.07L41.4746 162.347ZM41.3374 162.137C41.3694 162.217 41.4173 162.29 41.4785 162.35L41.7597 162.066C41.7382 162.045 41.7207 162.018 41.7087 161.989L41.3374 162.137ZM63.4046 139.226H67.0386V138.826H63.4046V139.226ZM63.6229 156.768L63.6046 139.026L63.2046 139.026L63.2229 156.768L63.6229 156.768ZM67.0386 156.568H63.4229V156.968H67.0386V156.568ZM66.8386 139.026V156.768H67.2386V139.026H66.8386ZM42.3861 157.88H44.4983V157.48H42.3861V157.88ZM42.5861 161.43V157.68H42.1861V161.43H42.5861ZM67.0386 161.23H42.3861V161.63H67.0386V161.23ZM66.8386 157.68V161.43H67.2386V157.68H66.8386ZM61.1342 157.88H67.0386V157.48H61.1342V157.88ZM61.3342 158.758V157.68H60.9342V158.758H61.3342ZM61.2833 159.011C61.316 158.931 61.3332 158.846 61.3341 158.76L60.9342 158.756C60.9338 158.791 60.9266 158.826 60.9134 158.859L61.2833 159.011ZM61.1424 159.224C61.2028 159.163 61.2505 159.09 61.2833 159.011L60.9134 158.859C60.9002 158.891 60.8812 158.919 60.858 158.943L61.1424 159.224ZM60.6959 159.401C60.8578 159.401 61.0129 159.34 61.1336 159.232L60.8669 158.934C60.8179 158.978 60.7572 159.001 60.6959 159.001V159.401ZM60.2582 159.232C60.3789 159.34 60.534 159.401 60.6959 159.401V159.001C60.6346 159.001 60.5739 158.978 60.5249 158.934L60.2582 159.232ZM60.1101 159.007C60.1415 159.087 60.188 159.16 60.2474 159.222L60.5356 158.945C60.5132 158.921 60.4949 158.893 60.4824 158.861L60.1101 159.007ZM60.0637 158.756C60.063 158.842 60.0787 158.928 60.1101 159.007L60.4824 158.861C60.4698 158.829 60.4634 158.795 60.4637 158.76L60.0637 158.756ZM60.0637 157.68V158.758H60.4637V157.68H60.0637ZM58.9002 157.88H60.2637V157.48H58.9002V157.88ZM59.1002 158.758V157.68H58.7002V158.758H59.1002ZM59.0538 159.007C59.0852 158.928 59.1009 158.842 59.1002 158.756L58.7002 158.76C58.7005 158.795 58.6941 158.829 58.6815 158.861L59.0538 159.007ZM58.9165 159.222C58.9759 159.16 59.0224 159.087 59.0538 159.007L58.6815 158.861C58.669 158.893 58.6507 158.921 58.6283 158.945L58.9165 159.222ZM58.468 159.401C58.6299 159.401 58.785 159.34 58.9057 159.232L58.639 158.934C58.59 158.978 58.5293 159.001 58.468 159.001V159.401ZM58.0303 159.232C58.151 159.34 58.3062 159.401 58.468 159.401V159.001C58.4067 159.001 58.346 158.978 58.297 158.934L58.0303 159.232ZM57.8806 159.011C57.9134 159.09 57.9611 159.163 58.0215 159.224L58.3059 158.943C58.2827 158.919 58.2638 158.891 58.2505 158.859L57.8806 159.011ZM57.8298 158.76C57.8307 158.846 57.8479 158.931 57.8806 159.011L58.2505 158.859C58.2373 158.826 58.2301 158.791 58.2298 158.756L57.8298 158.76ZM57.8298 157.68V158.758H58.2298V157.68H57.8298ZM56.5019 157.88H58.0298V157.48H56.5019V157.88ZM56.7019 158.758V157.68H56.3019V158.758H56.7019ZM56.5213 159.219C56.6359 159.094 56.6996 158.93 56.7019 158.761L56.3019 158.755C56.3009 158.829 56.2733 158.897 56.2269 158.948L56.5213 159.219ZM56.0697 159.399C56.2305 159.399 56.3847 159.34 56.5058 159.234L56.2424 158.933C56.1927 158.976 56.1315 158.999 56.0697 158.999V159.399ZM55.6337 159.234C55.7547 159.34 55.909 159.399 56.0697 159.399V158.999C56.008 158.999 55.9468 158.976 55.8971 158.933L55.6337 159.234ZM55.4376 158.761C55.4399 158.93 55.5036 159.094 55.6182 159.219L55.9126 158.948C55.8662 158.897 55.8385 158.829 55.8375 158.755L55.4376 158.761ZM55.4376 157.68V158.758H55.8376V157.68H55.4376ZM54.2801 157.88H55.6376V157.48H54.2801V157.88ZM54.4801 158.758V157.68H54.0801V158.758H54.4801ZM54.4293 159.011C54.462 158.931 54.4792 158.846 54.4801 158.76L54.0802 158.756C54.0798 158.791 54.0726 158.826 54.0594 158.859L54.4293 159.011ZM54.2884 159.224C54.3488 159.163 54.3965 159.09 54.4293 159.011L54.0594 158.859C54.0462 158.891 54.0272 158.919 54.004 158.943L54.2884 159.224ZM53.8419 159.401C54.0038 159.401 54.1589 159.34 54.2796 159.232L54.0129 158.934C53.9639 158.978 53.9032 159.001 53.8419 159.001V159.401ZM53.4042 159.232C53.5249 159.34 53.68 159.401 53.8419 159.401V159.001C53.7806 159.001 53.7199 158.978 53.6709 158.934L53.4042 159.232ZM53.2561 159.007C53.2875 159.087 53.334 159.16 53.3934 159.222L53.6816 158.945C53.6592 158.921 53.6409 158.893 53.6284 158.861L53.2561 159.007ZM53.2097 158.756C53.209 158.842 53.2247 158.928 53.2561 159.007L53.6284 158.861C53.6158 158.829 53.6094 158.795 53.6097 158.76L53.2097 158.756ZM53.2097 157.68V158.758H53.6097V157.68H53.2097ZM52.0462 157.88H53.4097V157.48H52.0462V157.88ZM52.2462 158.758V157.68H51.8462V158.758H52.2462ZM52.1998 159.007C52.2312 158.927 52.2469 158.842 52.2462 158.756L51.8462 158.76C51.8465 158.795 51.8401 158.829 51.8275 158.861L52.1998 159.007ZM52.0625 159.222C52.1219 159.16 52.1684 159.087 52.1998 159.007L51.8275 158.861C51.815 158.893 51.7967 158.921 51.7743 158.945L52.0625 159.222ZM51.614 159.401C51.7759 159.401 51.931 159.34 52.0517 159.232L51.785 158.934C51.736 158.978 51.6753 159.001 51.614 159.001V159.401ZM51.1763 159.232C51.297 159.34 51.4522 159.401 51.614 159.401V159.001C51.5527 159.001 51.492 158.978 51.443 158.934L51.1763 159.232ZM51.0282 159.007C51.0596 159.087 51.1061 159.16 51.1656 159.222L51.4538 158.945C51.4313 158.921 51.4131 158.893 51.4005 158.861L51.0282 159.007ZM50.9819 158.756C50.9812 158.842 50.9969 158.928 51.0282 159.007L51.4005 158.861C51.388 158.829 51.3816 158.795 51.3818 158.76L50.9819 158.756ZM50.9818 157.68V158.758H51.3818V157.68H50.9818ZM49.8183 157.88H51.1818V157.48H49.8183V157.88ZM50.0183 158.758V157.68H49.6183V158.758H50.0183ZM49.972 159.007C50.0033 158.927 50.019 158.842 50.0183 158.756L49.6184 158.76C49.6186 158.795 49.6122 158.829 49.5997 158.861L49.972 159.007ZM49.8346 159.222C49.894 159.16 49.9406 159.087 49.972 159.007L49.5997 158.861C49.5871 158.893 49.5689 158.921 49.5464 158.945L49.8346 159.222ZM49.3862 159.399C49.5469 159.399 49.7012 159.34 49.8222 159.234L49.5588 158.933C49.5091 158.976 49.4479 158.999 49.3862 158.999V159.399ZM48.9501 159.234C49.0712 159.34 49.2254 159.399 49.3862 159.399V158.999C49.3244 158.999 49.2632 158.976 49.2135 158.933L48.9501 159.234ZM48.754 158.761C48.7563 158.93 48.82 159.094 48.9346 159.219L49.229 158.948C49.1826 158.897 49.155 158.829 49.154 158.755L48.754 158.761ZM48.754 157.68V158.758H49.154V157.68H48.754ZM47.5966 157.88H48.954V157.48H47.5966V157.88ZM47.7966 158.758V157.68H47.3966V158.758H47.7966ZM47.7457 159.011C47.7784 158.931 47.7956 158.846 47.7966 158.76L47.3966 158.756C47.3962 158.791 47.3891 158.826 47.3758 158.859L47.7457 159.011ZM47.6049 159.224C47.6652 159.163 47.713 159.09 47.7457 159.011L47.3758 158.859C47.3626 158.891 47.3436 158.919 47.3205 158.943L47.6049 159.224ZM47.1583 159.401C47.3202 159.401 47.4753 159.34 47.596 159.232L47.3293 158.934C47.2803 158.978 47.2196 159.001 47.1583 159.001V159.401ZM46.7206 159.232C46.8413 159.34 46.9964 159.401 47.1583 159.401V159.001C47.097 159.001 47.0363 158.978 46.9873 158.934L46.7206 159.232ZM46.5725 159.007C46.6039 159.087 46.6504 159.16 46.7099 159.222L46.9981 158.945C46.9756 158.921 46.9574 158.893 46.9448 158.861L46.5725 159.007ZM46.5261 158.756C46.5255 158.842 46.5412 158.928 46.5725 159.007L46.9448 158.861C46.9323 158.829 46.9259 158.795 46.9261 158.76L46.5261 158.756ZM46.5261 157.68V158.758H46.9261V157.68H46.5261ZM45.3626 157.88H46.7261V157.48H45.3626V157.88ZM45.5626 158.758V157.68H45.1626V158.758H45.5626ZM45.5162 159.007C45.5476 158.927 45.5633 158.842 45.5626 158.756L45.1626 158.76C45.1629 158.795 45.1565 158.829 45.144 158.861L45.5162 159.007ZM45.3789 159.222C45.4383 159.16 45.4849 159.087 45.5162 159.007L45.144 158.861C45.1314 158.893 45.1132 158.921 45.0907 158.945L45.3789 159.222ZM44.9305 159.401C45.0923 159.401 45.2475 159.34 45.3682 159.232L45.1015 158.934C45.0525 158.978 44.9917 159.001 44.9305 159.001V159.401ZM44.4928 159.232C44.6135 159.34 44.7686 159.401 44.9305 159.401V159.001C44.8692 159.001 44.8085 158.978 44.7595 158.934L44.4928 159.232ZM44.3447 159.007C44.376 159.087 44.4226 159.16 44.482 159.222L44.7702 158.945C44.7478 158.921 44.7295 158.893 44.717 158.861L44.3447 159.007ZM44.2983 158.756C44.2976 158.842 44.3133 158.928 44.3447 159.007L44.717 158.861C44.7044 158.829 44.698 158.795 44.6983 158.76L44.2983 158.756ZM44.2983 157.68V158.758H44.6983V157.68H44.2983ZM64.8283 159.236C64.8283 159.399 64.7048 159.514 64.5718 159.514V159.914C64.943 159.914 65.2283 159.602 65.2283 159.236H64.8283ZM64.5718 158.958C64.7048 158.958 64.8283 159.074 64.8283 159.236H65.2283C65.2283 158.87 64.943 158.558 64.5718 158.558V158.958ZM64.3152 159.236C64.3152 159.074 64.4388 158.958 64.5718 158.958V158.558C64.2005 158.558 63.9152 158.87 63.9152 159.236H64.3152ZM64.5718 159.514C64.4388 159.514 64.3152 159.399 64.3152 159.236H63.9152C63.9152 159.602 64.2005 159.914 64.5718 159.914V159.514ZM40.5285 131.343C40.5586 131.355 40.5866 131.374 40.6108 131.399L40.8966 131.119C40.8354 131.057 40.7625 131.007 40.6819 130.973L40.5285 131.343ZM40.4349 131.325C40.4667 131.324 40.4985 131.33 40.5285 131.343L40.6819 130.973C40.6012 130.94 40.5146 130.923 40.4273 130.925L40.4349 131.325ZM31.4162 131.325H40.4311V130.925H31.4162V131.325ZM31.3229 131.343C31.3517 131.33 31.3823 131.325 31.4128 131.325L31.4196 130.925C31.3328 130.924 31.2469 130.94 31.167 130.974L31.3229 131.343ZM31.2441 131.397C31.2672 131.373 31.294 131.355 31.3229 131.343L31.167 130.974C31.0872 131.008 31.0152 131.058 30.9552 131.121L31.2441 131.397ZM31.189 131.481C31.2012 131.45 31.2191 131.422 31.2412 131.4L30.9582 131.118C30.8966 131.179 30.8486 131.253 30.8167 131.334L31.189 131.481ZM31.1718 131.579C31.1709 131.545 31.1768 131.512 31.189 131.481L30.8167 131.334C30.7848 131.415 30.7697 131.502 30.7719 131.589L31.1718 131.579ZM31.1718 150.232V131.584H30.7718V150.232H31.1718ZM31.189 150.336C31.1768 150.305 31.1709 150.271 31.1718 150.237L30.7719 150.227C30.7697 150.314 30.7848 150.401 30.8167 150.482L31.189 150.336ZM31.2412 150.416C31.2191 150.394 31.2012 150.367 31.189 150.336L30.8167 150.482C30.8486 150.563 30.8966 150.637 30.9582 150.699L31.2412 150.416ZM31.3229 150.474C31.294 150.462 31.2672 150.443 31.2441 150.419L30.9552 150.696C31.0152 150.759 31.0872 150.808 31.167 150.842L31.3229 150.474ZM31.4128 150.491C31.3823 150.492 31.3517 150.486 31.3229 150.474L31.167 150.842C31.2469 150.876 31.3328 150.893 31.4196 150.891L31.4128 150.491ZM49.4521 150.491H31.4162V150.891H49.4521V150.491ZM49.5452 150.473C49.516 150.486 49.4851 150.492 49.4543 150.491L49.4499 150.891C49.5362 150.892 49.6216 150.875 49.701 150.842L49.5452 150.473ZM49.6249 150.418C49.6016 150.443 49.5744 150.461 49.5452 150.473L49.701 150.842C49.7805 150.808 49.8522 150.759 49.9123 150.697L49.6249 150.418ZM49.6793 150.336C49.6671 150.367 49.6492 150.394 49.6271 150.416L49.9101 150.699C49.9717 150.637 50.0197 150.563 50.0515 150.482L49.6793 150.336ZM49.6965 150.237C49.6974 150.271 49.6914 150.305 49.6793 150.336L50.0515 150.482C50.0834 150.401 50.0986 150.314 50.0964 150.227L49.6965 150.237ZM49.6964 140.908V150.232H50.0964V140.908H49.6964ZM49.6777 140.805C49.6903 140.837 49.6967 140.872 49.6964 140.907L50.0964 140.91C50.0971 140.824 50.0814 140.739 50.05 140.659L49.6777 140.805ZM49.6245 140.722C49.647 140.745 49.6652 140.773 49.6777 140.805L50.05 140.659C50.0187 140.579 49.9721 140.506 49.9127 140.444L49.6245 140.722ZM49.4487 140.649C49.514 140.65 49.5783 140.677 49.6287 140.726L49.9085 140.44C49.7869 140.321 49.6256 140.252 49.4554 140.249L49.4487 140.649ZM40.8815 140.649H49.4521V140.249H40.8815V140.649ZM40.6815 131.584V140.449H41.0815V131.584H40.6815ZM40.6624 131.481C40.675 131.514 40.6816 131.548 40.6815 131.584L41.0815 131.585C41.0817 131.499 41.0659 131.415 41.0347 131.335L40.6624 131.481ZM40.6088 131.397C40.6314 131.421 40.6497 131.449 40.6624 131.481L41.0347 131.335C41.0034 131.256 40.9574 131.183 40.8986 131.121L40.6088 131.397ZM49.2016 149.779V141.367H48.8016V149.779H49.2016ZM40.8815 149.979H49.0016V149.579H40.8815V149.979ZM40.6815 147.126V149.779H41.0815V147.126H40.6815ZM40.6065 146.937C40.6529 146.987 40.6806 147.056 40.6815 147.129L41.0815 147.124C41.0792 146.954 41.0155 146.79 40.9009 146.666L40.6065 146.937ZM40.4341 146.872C40.4997 146.872 40.5646 146.897 40.6157 146.946L40.8917 146.656C40.768 146.538 40.605 146.472 40.4341 146.472V146.872ZM40.2526 146.946C40.3037 146.897 40.3686 146.872 40.4341 146.872V146.472C40.2633 146.472 40.1002 146.538 39.9765 146.656L40.2526 146.946ZM40.1867 147.129C40.1877 147.056 40.2154 146.987 40.2617 146.937L39.9674 146.666C39.8527 146.79 39.789 146.954 39.7867 147.124L40.1867 147.129ZM40.1867 149.779V147.126H39.7867V149.779H40.1867ZM31.8545 149.979H39.9867V149.579H31.8545V149.979ZM31.6545 141.367V149.779H32.0545V141.367H31.6545ZM34.411 141.167H31.8545V141.567H34.411V141.167ZM34.5862 141.092C34.537 141.141 34.4738 141.167 34.4098 141.167L34.4122 141.567C34.5841 141.566 34.7473 141.496 34.8689 141.375L34.5862 141.092ZM34.6504 140.915C34.6504 140.985 34.6244 141.05 34.5804 141.098L34.8746 141.369C34.9883 141.246 35.0504 141.083 35.0504 140.915H34.6504ZM34.5804 140.731C34.6244 140.779 34.6504 140.845 34.6504 140.915H35.0504C35.0504 140.747 34.9883 140.584 34.8746 140.46L34.5804 140.731ZM34.4098 140.662C34.4738 140.662 34.5371 140.688 34.5862 140.737L34.8689 140.454C34.7473 140.333 34.5841 140.263 34.4123 140.262L34.4098 140.662ZM31.8545 140.662H34.411V140.262H31.8545V140.662ZM31.6545 132.037V140.462H32.0545V132.037H31.6545ZM39.9867 131.837H31.8545V132.237H39.9867V131.837ZM40.1867 140.449V132.037H39.7867V140.449H40.1867ZM37.4302 140.649H39.9867V140.249H37.4302V140.649ZM37.2475 140.726C37.2987 140.676 37.3644 140.649 37.4308 140.649L37.4295 140.249C37.2563 140.25 37.0915 140.319 36.9677 140.44L37.2475 140.726ZM37.1846 140.902C37.1846 140.832 37.2107 140.766 37.2547 140.719L36.9605 140.448C36.8468 140.571 36.7846 140.734 36.7846 140.902H37.1846ZM37.2547 141.085C37.2107 141.037 37.1846 140.972 37.1846 140.902H36.7846C36.7846 141.07 36.8468 141.233 36.9605 141.356L37.2547 141.085ZM37.4308 141.155C37.3644 141.154 37.2987 141.128 37.2475 141.078L36.9677 141.364C37.0915 141.485 37.2563 141.554 37.4295 141.555L37.4308 141.155ZM39.9867 141.155H37.4302V141.555H39.9867V141.155ZM40.1867 144.008V141.355H39.7867V144.008H40.1867ZM40.2587 144.188C40.214 144.142 40.1871 144.076 40.1867 144.007L39.7867 144.009C39.7877 144.179 39.8527 144.343 39.9704 144.465L40.2587 144.188ZM40.4341 144.261C40.3695 144.261 40.3056 144.235 40.256 144.185L39.9731 144.468C40.0957 144.591 40.2607 144.661 40.4341 144.661V144.261ZM40.6122 144.185C40.5627 144.235 40.4987 144.261 40.4341 144.261V144.661C40.6076 144.661 40.7726 144.591 40.8952 144.468L40.6122 144.185ZM40.6815 144.007C40.6811 144.076 40.6543 144.142 40.6096 144.188L40.8978 144.465C41.0155 144.343 41.0806 144.179 41.0815 144.009L40.6815 144.007ZM40.6815 141.367V144.008H41.0815V141.367H40.6815ZM49.0016 141.167H40.8815V141.567H49.0016V141.167ZM56.6693 127.13C56.5477 127.011 56.3864 126.942 56.2163 126.939L56.2095 127.339C56.2748 127.34 56.3391 127.366 56.3895 127.416L56.6693 127.13ZM56.8451 127.583C56.8432 127.422 56.786 127.266 56.6818 127.143L56.3771 127.402C56.4194 127.452 56.4443 127.518 56.4451 127.587L56.8451 127.583ZM56.6614 128.043C56.7791 127.92 56.8441 127.756 56.8451 127.586L56.4451 127.584C56.4447 127.654 56.4178 127.719 56.3731 127.765L56.6614 128.043ZM56.2026 128.244C56.3776 128.243 56.5428 128.168 56.6628 128.041L56.3717 127.767C56.3244 127.817 56.262 127.844 56.1989 127.844L56.2026 128.244ZM43.418 128.244H56.2007V127.844H43.418V128.244ZM42.9601 128.052C43.0817 128.173 43.2448 128.243 43.4167 128.244L43.4192 127.844C43.3552 127.844 43.2919 127.818 43.2428 127.769L42.9601 128.052ZM42.7785 127.591C42.7785 127.759 42.8406 127.922 42.9543 128.046L43.2485 127.775C43.2045 127.727 43.1785 127.661 43.1785 127.591H42.7785ZM42.9543 127.137C42.8406 127.261 42.7785 127.424 42.7785 127.591H43.1785C43.1785 127.521 43.2045 127.456 43.2485 127.408L42.9543 127.137ZM43.4167 126.939C43.2448 126.94 43.0817 127.01 42.9601 127.131L43.2428 127.414C43.2919 127.365 43.3552 127.339 43.4192 127.339L43.4167 126.939ZM56.2129 126.939H43.418V127.339H56.2129V126.939ZM56.2126 130.54C56.2779 130.541 56.3422 130.567 56.3926 130.617L56.6724 130.331C56.5507 130.212 56.3894 130.143 56.2193 130.14L56.2126 130.54ZM43.421 130.54H56.2159V130.14H43.421V130.54ZM43.3291 130.557C43.3576 130.545 43.3879 130.539 43.4181 130.54L43.4239 130.14C43.338 130.139 43.2529 130.155 43.1738 130.189L43.3291 130.557ZM43.2509 130.611C43.2738 130.588 43.3004 130.569 43.329 130.557L43.1738 130.189C43.0946 130.222 43.0232 130.271 42.9634 130.333L43.2509 130.611ZM43.1963 130.696C43.2092 130.664 43.2279 130.635 43.2509 130.611L42.9634 130.333C42.9037 130.395 42.8567 130.468 42.8248 130.548L43.1963 130.696ZM43.1766 130.799C43.1766 130.763 43.1834 130.728 43.1963 130.696L42.8248 130.548C42.7929 130.628 42.7766 130.713 42.7766 130.799L43.1766 130.799ZM43.194 130.898C43.182 130.868 43.176 130.836 43.1766 130.803L42.7767 130.795C42.7751 130.882 42.7907 130.967 42.8227 131.047L43.194 130.898ZM43.2451 130.976C43.2236 130.954 43.206 130.928 43.194 130.898L42.8227 131.047C42.8548 131.127 42.9027 131.2 42.9638 131.26L43.2451 130.976ZM43.3303 131.039C43.3011 131.026 43.2739 131.006 43.2508 130.982L42.9582 131.254C43.0174 131.318 43.0888 131.369 43.1682 131.404L43.3303 131.039ZM43.4217 131.058C43.3905 131.058 43.3595 131.052 43.3303 131.039L43.1682 131.404C43.2477 131.44 43.3334 131.458 43.4203 131.458L43.4217 131.058ZM56.2038 131.058H43.421V131.458H56.2038V131.058ZM56.3747 130.981C56.3274 131.031 56.265 131.058 56.2019 131.058L56.2056 131.458C56.3806 131.457 56.5458 131.382 56.6658 131.255L56.3747 130.981ZM56.4481 130.798C56.4477 130.868 56.4209 130.933 56.3762 130.979L56.6644 131.257C56.7821 131.134 56.8472 130.97 56.8481 130.8L56.4481 130.798ZM56.3801 130.603C56.4241 130.655 56.4492 130.724 56.4481 130.796L56.8481 130.802C56.8504 130.635 56.793 130.471 56.6848 130.344L56.3801 130.603ZM50.6648 133.555C50.6055 133.491 50.5342 133.44 50.4547 133.405L50.2926 133.77C50.3219 133.783 50.349 133.803 50.3722 133.827L50.6648 133.555ZM50.8017 133.758C50.7683 133.679 50.7193 133.607 50.6572 133.547L50.3798 133.835C50.402 133.857 50.4202 133.883 50.4329 133.913L50.8017 133.758ZM50.8524 134.01C50.8523 133.923 50.8351 133.838 50.8017 133.758L50.4329 133.913C50.4456 133.944 50.4524 133.977 50.4524 134.01L50.8524 134.01ZM50.8015 134.263C50.8342 134.183 50.8515 134.098 50.8524 134.012L50.4524 134.008C50.452 134.043 50.4449 134.078 50.4316 134.111L50.8015 134.263ZM50.6607 134.476C50.7211 134.415 50.7688 134.342 50.8015 134.263L50.4316 134.111C50.4184 134.143 50.3994 134.171 50.3763 134.195L50.6607 134.476ZM50.2032 134.669C50.3751 134.668 50.5382 134.598 50.6598 134.477L50.3771 134.194C50.328 134.243 50.2647 134.269 50.2007 134.269L50.2032 134.669ZM43.421 134.669H50.2019V134.269H43.421V134.669ZM43.1738 134.62C43.2529 134.654 43.338 134.67 43.4239 134.669L43.4181 134.269C43.3879 134.27 43.3576 134.264 43.3291 134.252L43.1738 134.62ZM42.9634 134.476C43.0232 134.538 43.0946 134.587 43.1738 134.62L43.329 134.252C43.3004 134.24 43.2738 134.222 43.2509 134.198L42.9634 134.476ZM42.8248 134.261C42.8567 134.341 42.9037 134.414 42.9634 134.476L43.2509 134.198C43.2279 134.174 43.2092 134.145 43.1963 134.113L42.8248 134.261ZM42.7766 134.01C42.7766 134.096 42.7929 134.181 42.8248 134.261L43.1963 134.113C43.1834 134.081 43.1766 134.046 43.1766 134.01L42.7766 134.01ZM42.8227 133.762C42.7907 133.842 42.7751 133.928 42.7767 134.014L43.1766 134.006C43.176 133.973 43.182 133.941 43.194 133.911L42.8227 133.762ZM42.9638 133.549C42.9027 133.609 42.8548 133.682 42.8227 133.762L43.194 133.911C43.206 133.881 43.2236 133.855 43.2451 133.833L42.9638 133.549ZM43.1682 133.405C43.0888 133.44 43.0174 133.491 42.9582 133.555L43.2508 133.827C43.2739 133.803 43.3011 133.783 43.3303 133.77L43.1682 133.405ZM43.4203 133.351C43.3334 133.351 43.2477 133.37 43.1682 133.405L43.3303 133.77C43.3595 133.757 43.3905 133.751 43.4216 133.751L43.4203 133.351ZM50.2019 133.351H43.421V133.751H50.2019V133.351ZM50.4547 133.405C50.3753 133.37 50.2895 133.351 50.2026 133.351L50.2013 133.751C50.2324 133.751 50.2634 133.757 50.2926 133.77L50.4547 133.405Z" fill="#325837" mask="url(#path-3-outside-1_1093_1377)"/>
</g>
<path d="M45.25 86C45.25 86.4142 45.5858 86.75 46 86.75C46.4142 86.75 46.75 86.4142 46.75 86L45.25 86ZM46 61C48.2091 61 50 59.2091 50 57C50 54.7909 48.2091 53 46 53C43.7909 53 42 54.7909 42 57C42 59.2091 43.7909 61 46 61ZM46.75 86L46.75 57L45.25 57L45.25 86L46.75 86Z" fill="#BACC91"/>
<circle opacity="0.4" cx="30" cy="57" r="3" fill="#BACC91"/>
<circle opacity="0.4" cx="62" cy="57" r="3" fill="#BACC91"/>
<path d="M34.296 37.08V32.904L47.64 20.232C48.76 19.176 49.592 18.248 50.136 17.448C50.68 16.648 51.032 15.912 51.192 15.24C51.384 14.536 51.48 13.88 51.48 13.272C51.48 11.736 50.952 10.552 49.896 9.72C48.84 8.856 47.288 8.424 45.24 8.424C43.608 8.424 42.12 8.712 40.776 9.288C39.464 9.864 38.328 10.744 37.368 11.928L33 8.568C34.312 6.808 36.072 5.448 38.28 4.488C40.52 3.496 43.016 3 45.768 3C48.2 3 50.312 3.4 52.104 4.2C53.928 4.968 55.32 6.072 56.28 7.512C57.272 8.952 57.768 10.664 57.768 12.648C57.768 13.736 57.624 14.824 57.336 15.912C57.048 16.968 56.504 18.088 55.704 19.272C54.904 20.456 53.736 21.784 52.2 23.256L40.728 34.152L39.432 31.8H59.064V37.08H34.296Z" fill="#D2DDC7"/>
</svg>
