<svg width="179" height="90" viewBox="0 0 179 90" fill="none" xmlns="http://www.w3.org/2000/svg">
<mask id="mask0_772_794" style="mask-type:alpha" maskUnits="userSpaceOnUse" x="89" y="0" width="90" height="90">
<rect x="89" width="90" height="90" fill="#C4C4C4"/>
</mask>
<g mask="url(#mask0_772_794)">
<path fill-rule="evenodd" clip-rule="evenodd" d="M139.96 5.80417C149.924 7.42875 156.406 16.1233 162.701 24.0156C169.535 32.5826 177.821 41.3004 176.991 52.2276C176.113 63.7937 171.171 73.9127 161.398 80.1601C152.058 86.1302 137.728 85.8008 126.738 84.351C115.196 82.8284 102.444 81.1976 95.5752 71.7982C88.6591 62.3342 89.4851 49.2825 92.9212 38.0758C95.9436 28.2179 104.222 21.7003 112.724 15.8672C121.021 10.1751 130.03 4.18509 139.96 5.80417Z" fill="#EDF4DD"/>
<mask id="path-3-outside-1_772_794" maskUnits="userSpaceOnUse" x="105.117" y="33.0234" width="60" height="33" fill="black">
<rect fill="white" x="105.117" y="33.0234" width="60" height="33"/>
<path fill-rule="evenodd" clip-rule="evenodd" d="M164.25 52.3465C164.25 52.2806 164.236 52.2154 164.21 52.155C164.18 52.0998 164.137 52.0524 164.085 52.0163L161.228 49.1441L159.257 41.3527L157.287 34.3998C157.273 34.2957 157.227 34.1986 157.155 34.1225C157.07 34.0578 156.966 34.023 156.86 34.0234H106.609C106.479 34.0234 106.353 34.0756 106.261 34.1685C106.169 34.2614 106.117 34.3873 106.117 34.5187V61.2604C106.117 61.3917 106.169 61.5177 106.261 61.6106C106.353 61.7034 106.479 61.7556 106.609 61.7556H111.05L111.135 62.1518C111.335 63.1612 111.877 64.0698 112.669 64.7226C113.461 65.3755 114.453 65.7323 115.477 65.7323C116.501 65.7323 117.493 65.3755 118.285 64.7226C119.077 64.0698 119.619 63.1612 119.819 62.1518L119.904 61.7556H149.463L149.549 62.1518C149.749 63.1612 150.291 64.0698 151.083 64.7226C151.874 65.3755 152.867 65.7323 153.891 65.7323C154.915 65.7323 155.907 65.3755 156.699 64.7226C157.49 64.0698 158.032 63.1612 158.233 62.1518L158.318 61.7556H163.757C163.888 61.7556 164.013 61.7034 164.105 61.6106C164.198 61.5177 164.25 61.3917 164.25 61.2604V52.3465ZM160.144 48.88H151.441V41.9469H158.449L160.144 48.88ZM117.914 63.7101C117.595 64.0329 117.215 64.289 116.797 64.4635C116.378 64.6381 115.93 64.7276 115.477 64.7269C114.794 64.729 114.125 64.5258 113.558 64.1435C112.99 63.7611 112.549 63.217 112.291 62.581C112.034 61.9543 111.965 61.2655 112.094 60.6001C112.227 59.9231 112.557 59.3012 113.043 58.8132C113.528 58.3253 114.147 57.9935 114.82 57.8599C115.482 57.7304 116.167 57.7993 116.791 58.058C117.424 58.3172 117.965 58.7605 118.345 59.3311C118.726 59.9017 118.928 60.5735 118.926 61.2604C118.926 61.7156 118.837 62.1665 118.664 62.5869C118.49 63.0074 118.235 63.3891 117.914 63.7101ZM144.688 41.1017C144.596 41.1945 144.544 41.3204 144.543 41.4517V60.7652H119.904L119.826 60.369C119.622 59.3615 119.078 58.4556 118.286 57.805C117.494 57.1544 116.503 56.799 115.48 56.799C114.458 56.799 113.466 57.1544 112.674 57.805C111.882 58.4556 111.339 59.3615 111.135 60.369L111.05 60.7652H107.109V35.0139H156.485L158.18 40.9565H145.036C144.906 40.9566 144.78 41.0088 144.688 41.1017ZM156.341 63.7101C156.022 64.0329 155.642 64.289 155.224 64.4635C154.805 64.6381 154.357 64.7276 153.904 64.7269C153.221 64.729 152.552 64.5258 151.985 64.1435C151.417 63.7611 150.976 63.217 150.718 62.581C150.461 61.9543 150.392 61.2655 150.521 60.6001C150.655 59.9273 150.985 59.3095 151.467 58.8243C151.95 58.339 152.565 58.0081 153.234 57.8731C153.896 57.7436 154.581 57.8125 155.204 58.0712C155.838 58.3275 156.38 58.7679 156.763 59.3361C157.146 59.9042 157.351 60.5743 157.352 61.2604C157.353 61.7156 157.264 62.1665 157.09 62.5869C156.917 63.0074 156.662 63.3891 156.341 63.7101ZM163.264 60.7652H158.331L158.246 60.369C158.046 59.3595 157.504 58.451 156.712 57.7981C155.92 57.1453 154.928 56.7885 153.904 56.7885C152.88 56.7885 151.888 57.1453 151.096 57.7981C150.304 58.451 149.762 59.3595 149.562 60.369L149.477 60.7652H145.535V41.9469H150.462V49.3752C150.462 49.5065 150.514 49.6325 150.606 49.7253C150.699 49.8182 150.824 49.8704 150.955 49.8704H160.597L163.264 52.5512V60.7652ZM153.902 61.7526C154.174 61.7526 154.395 61.5308 154.395 61.2572C154.395 60.9835 154.174 60.7617 153.902 60.7617C153.63 60.7617 153.41 60.9835 153.41 61.2572C153.41 61.5308 153.63 61.7526 153.902 61.7526ZM115.969 61.2572C115.969 61.5308 115.749 61.7526 115.477 61.7526C115.204 61.7526 114.984 61.5308 114.984 61.2572C114.984 60.9835 115.204 60.7617 115.477 60.7617C115.749 60.7617 115.969 60.9835 115.969 61.2572ZM121.389 42.9401C121.661 42.9401 121.881 42.7183 121.881 42.4447C121.881 42.171 121.661 41.9492 121.389 41.9492C121.117 41.9492 120.896 42.171 120.896 42.4447C120.896 42.7183 121.117 42.9401 121.389 42.9401ZM129.762 42.4447C129.762 42.7183 129.542 42.9401 129.27 42.9401C128.997 42.9401 128.777 42.7183 128.777 42.4447C128.777 42.171 128.997 41.9492 129.27 41.9492C129.542 41.9492 129.762 42.171 129.762 42.4447ZM154.232 52.9891C154.139 52.8961 154.014 52.8439 153.883 52.8438H150.947C150.817 52.8438 150.691 52.8959 150.599 52.9889C150.506 53.0818 150.455 53.2078 150.455 53.3392C150.455 53.4706 150.506 53.5966 150.599 53.6895C150.691 53.7825 150.817 53.8347 150.947 53.8347H153.903C153.999 53.8308 154.091 53.799 154.169 53.7431C154.247 53.6871 154.307 53.6096 154.342 53.5199C154.377 53.4301 154.385 53.3322 154.366 53.2379C154.346 53.1436 154.299 53.0572 154.232 52.9891ZM137.908 44.2812C138.377 44.8883 138.631 45.6347 138.632 46.4031V51.6061C138.63 52.1958 138.396 52.7607 137.982 53.1777C137.567 53.5946 137.005 53.8296 136.418 53.8313H114.249C113.661 53.8313 113.098 53.5971 112.681 53.18C112.265 52.7629 112.031 52.1969 112.029 51.6061V46.4031C112.029 45.6347 112.284 44.8883 112.752 44.2812C113.221 43.674 113.877 43.2405 114.617 43.0488L114.985 42.9498V40.2162C114.985 39.6254 115.218 39.0587 115.633 38.6404C116.048 38.222 116.611 37.9861 117.198 37.9844H133.456C134.045 37.9844 134.609 38.2195 135.026 38.638C135.442 39.0566 135.676 39.6242 135.676 40.2162V42.9498L136.044 43.0488C136.784 43.2405 137.44 43.674 137.908 44.2812ZM114.242 52.8409H117.941V46.4031C117.941 45.7464 117.681 45.1166 117.219 44.6522C116.757 44.1879 116.131 43.927 115.477 43.927C114.824 43.927 114.198 44.1879 113.736 44.6522C113.274 45.1166 113.014 45.7464 113.014 46.4031V51.6061C113.016 51.9331 113.146 52.2461 113.376 52.4773C113.606 52.7085 113.917 52.8392 114.242 52.8409ZM118.926 52.8409H131.735V47.8887H118.926V52.8409ZM131.735 46.8983V46.4031C131.735 45.6347 131.99 44.8883 132.458 44.2812C132.927 43.674 133.583 43.2405 134.323 43.0488L134.691 42.9498V40.2096C134.689 39.8826 134.559 39.5696 134.329 39.3384C134.099 39.1072 133.788 38.9765 133.462 38.9748H117.198C116.873 38.9765 116.562 39.1072 116.332 39.3384C116.102 39.5696 115.972 39.8826 115.97 40.2096V42.9498L116.338 43.0488C117.078 43.2405 117.734 43.674 118.202 44.2812C118.671 44.8883 118.925 45.6347 118.926 46.4031V46.8983H131.735ZM137.285 52.4773C137.515 52.2461 137.645 51.9331 137.647 51.6061V46.4031C137.647 45.7464 137.387 45.1166 136.925 44.6522C136.463 44.1879 135.837 43.927 135.183 43.927C134.53 43.927 133.904 44.1879 133.442 44.6522C132.98 45.1166 132.72 45.7464 132.72 46.4031V52.8409H136.418C136.744 52.8392 137.055 52.7085 137.285 52.4773Z"/>
</mask>
<path fill-rule="evenodd" clip-rule="evenodd" d="M164.25 52.3465C164.25 52.2806 164.236 52.2154 164.21 52.155C164.18 52.0998 164.137 52.0524 164.085 52.0163L161.228 49.1441L159.257 41.3527L157.287 34.3998C157.273 34.2957 157.227 34.1986 157.155 34.1225C157.07 34.0578 156.966 34.023 156.86 34.0234H106.609C106.479 34.0234 106.353 34.0756 106.261 34.1685C106.169 34.2614 106.117 34.3873 106.117 34.5187V61.2604C106.117 61.3917 106.169 61.5177 106.261 61.6106C106.353 61.7034 106.479 61.7556 106.609 61.7556H111.05L111.135 62.1518C111.335 63.1612 111.877 64.0698 112.669 64.7226C113.461 65.3755 114.453 65.7323 115.477 65.7323C116.501 65.7323 117.493 65.3755 118.285 64.7226C119.077 64.0698 119.619 63.1612 119.819 62.1518L119.904 61.7556H149.463L149.549 62.1518C149.749 63.1612 150.291 64.0698 151.083 64.7226C151.874 65.3755 152.867 65.7323 153.891 65.7323C154.915 65.7323 155.907 65.3755 156.699 64.7226C157.49 64.0698 158.032 63.1612 158.233 62.1518L158.318 61.7556H163.757C163.888 61.7556 164.013 61.7034 164.105 61.6106C164.198 61.5177 164.25 61.3917 164.25 61.2604V52.3465ZM160.144 48.88H151.441V41.9469H158.449L160.144 48.88ZM117.914 63.7101C117.595 64.0329 117.215 64.289 116.797 64.4635C116.378 64.6381 115.93 64.7276 115.477 64.7269C114.794 64.729 114.125 64.5258 113.558 64.1435C112.99 63.7611 112.549 63.217 112.291 62.581C112.034 61.9543 111.965 61.2655 112.094 60.6001C112.227 59.9231 112.557 59.3012 113.043 58.8132C113.528 58.3253 114.147 57.9935 114.82 57.8599C115.482 57.7304 116.167 57.7993 116.791 58.058C117.424 58.3172 117.965 58.7605 118.345 59.3311C118.726 59.9017 118.928 60.5735 118.926 61.2604C118.926 61.7156 118.837 62.1665 118.664 62.5869C118.49 63.0074 118.235 63.3891 117.914 63.7101ZM144.688 41.1017C144.596 41.1945 144.544 41.3204 144.543 41.4517V60.7652H119.904L119.826 60.369C119.622 59.3615 119.078 58.4556 118.286 57.805C117.494 57.1544 116.503 56.799 115.48 56.799C114.458 56.799 113.466 57.1544 112.674 57.805C111.882 58.4556 111.339 59.3615 111.135 60.369L111.05 60.7652H107.109V35.0139H156.485L158.18 40.9565H145.036C144.906 40.9566 144.78 41.0088 144.688 41.1017ZM156.341 63.7101C156.022 64.0329 155.642 64.289 155.224 64.4635C154.805 64.6381 154.357 64.7276 153.904 64.7269C153.221 64.729 152.552 64.5258 151.985 64.1435C151.417 63.7611 150.976 63.217 150.718 62.581C150.461 61.9543 150.392 61.2655 150.521 60.6001C150.655 59.9273 150.985 59.3095 151.467 58.8243C151.95 58.339 152.565 58.0081 153.234 57.8731C153.896 57.7436 154.581 57.8125 155.204 58.0712C155.838 58.3275 156.38 58.7679 156.763 59.3361C157.146 59.9042 157.351 60.5743 157.352 61.2604C157.353 61.7156 157.264 62.1665 157.09 62.5869C156.917 63.0074 156.662 63.3891 156.341 63.7101ZM163.264 60.7652H158.331L158.246 60.369C158.046 59.3595 157.504 58.451 156.712 57.7981C155.92 57.1453 154.928 56.7885 153.904 56.7885C152.88 56.7885 151.888 57.1453 151.096 57.7981C150.304 58.451 149.762 59.3595 149.562 60.369L149.477 60.7652H145.535V41.9469H150.462V49.3752C150.462 49.5065 150.514 49.6325 150.606 49.7253C150.699 49.8182 150.824 49.8704 150.955 49.8704H160.597L163.264 52.5512V60.7652ZM153.902 61.7526C154.174 61.7526 154.395 61.5308 154.395 61.2572C154.395 60.9835 154.174 60.7617 153.902 60.7617C153.63 60.7617 153.41 60.9835 153.41 61.2572C153.41 61.5308 153.63 61.7526 153.902 61.7526ZM115.969 61.2572C115.969 61.5308 115.749 61.7526 115.477 61.7526C115.204 61.7526 114.984 61.5308 114.984 61.2572C114.984 60.9835 115.204 60.7617 115.477 60.7617C115.749 60.7617 115.969 60.9835 115.969 61.2572ZM121.389 42.9401C121.661 42.9401 121.881 42.7183 121.881 42.4447C121.881 42.171 121.661 41.9492 121.389 41.9492C121.117 41.9492 120.896 42.171 120.896 42.4447C120.896 42.7183 121.117 42.9401 121.389 42.9401ZM129.762 42.4447C129.762 42.7183 129.542 42.9401 129.27 42.9401C128.997 42.9401 128.777 42.7183 128.777 42.4447C128.777 42.171 128.997 41.9492 129.27 41.9492C129.542 41.9492 129.762 42.171 129.762 42.4447ZM154.232 52.9891C154.139 52.8961 154.014 52.8439 153.883 52.8438H150.947C150.817 52.8438 150.691 52.8959 150.599 52.9889C150.506 53.0818 150.455 53.2078 150.455 53.3392C150.455 53.4706 150.506 53.5966 150.599 53.6895C150.691 53.7825 150.817 53.8347 150.947 53.8347H153.903C153.999 53.8308 154.091 53.799 154.169 53.7431C154.247 53.6871 154.307 53.6096 154.342 53.5199C154.377 53.4301 154.385 53.3322 154.366 53.2379C154.346 53.1436 154.299 53.0572 154.232 52.9891ZM137.908 44.2812C138.377 44.8883 138.631 45.6347 138.632 46.4031V51.6061C138.63 52.1958 138.396 52.7607 137.982 53.1777C137.567 53.5946 137.005 53.8296 136.418 53.8313H114.249C113.661 53.8313 113.098 53.5971 112.681 53.18C112.265 52.7629 112.031 52.1969 112.029 51.6061V46.4031C112.029 45.6347 112.284 44.8883 112.752 44.2812C113.221 43.674 113.877 43.2405 114.617 43.0488L114.985 42.9498V40.2162C114.985 39.6254 115.218 39.0587 115.633 38.6404C116.048 38.222 116.611 37.9861 117.198 37.9844H133.456C134.045 37.9844 134.609 38.2195 135.026 38.638C135.442 39.0566 135.676 39.6242 135.676 40.2162V42.9498L136.044 43.0488C136.784 43.2405 137.44 43.674 137.908 44.2812ZM114.242 52.8409H117.941V46.4031C117.941 45.7464 117.681 45.1166 117.219 44.6522C116.757 44.1879 116.131 43.927 115.477 43.927C114.824 43.927 114.198 44.1879 113.736 44.6522C113.274 45.1166 113.014 45.7464 113.014 46.4031V51.6061C113.016 51.9331 113.146 52.2461 113.376 52.4773C113.606 52.7085 113.917 52.8392 114.242 52.8409ZM118.926 52.8409H131.735V47.8887H118.926V52.8409ZM131.735 46.8983V46.4031C131.735 45.6347 131.99 44.8883 132.458 44.2812C132.927 43.674 133.583 43.2405 134.323 43.0488L134.691 42.9498V40.2096C134.689 39.8826 134.559 39.5696 134.329 39.3384C134.099 39.1072 133.788 38.9765 133.462 38.9748H117.198C116.873 38.9765 116.562 39.1072 116.332 39.3384C116.102 39.5696 115.972 39.8826 115.97 40.2096V42.9498L116.338 43.0488C117.078 43.2405 117.734 43.674 118.202 44.2812C118.671 44.8883 118.925 45.6347 118.926 46.4031V46.8983H131.735ZM137.285 52.4773C137.515 52.2461 137.645 51.9331 137.647 51.6061V46.4031C137.647 45.7464 137.387 45.1166 136.925 44.6522C136.463 44.1879 135.837 43.927 135.183 43.927C134.53 43.927 133.904 44.1879 133.442 44.6522C132.98 45.1166 132.72 45.7464 132.72 46.4031V52.8409H136.418C136.744 52.8392 137.055 52.7085 137.285 52.4773Z" fill="#325837"/>
<path d="M164.21 52.155L164.394 52.0754L164.39 52.0665L164.385 52.058L164.21 52.155ZM164.25 52.3465L164.05 52.3459V52.3465H164.25ZM164.085 52.0163L163.944 52.1574L163.956 52.17L163.971 52.1801L164.085 52.0163ZM161.228 49.1441L161.034 49.1931L161.048 49.2463L161.086 49.2851L161.228 49.1441ZM159.257 41.3527L159.451 41.3036L159.45 41.2981L159.257 41.3527ZM157.287 34.3998L157.088 34.4254L157.09 34.4401L157.094 34.4543L157.287 34.3998ZM157.155 34.1225L157.301 33.9851L157.29 33.9732L157.276 33.9633L157.155 34.1225ZM156.86 34.0234V34.2234L156.861 34.2234L156.86 34.0234ZM106.261 34.1685L106.403 34.3095L106.403 34.3095L106.261 34.1685ZM106.261 61.6106L106.403 61.4695L106.403 61.4695L106.261 61.6106ZM111.05 61.7556L111.245 61.7135L111.211 61.5556H111.05V61.7556ZM111.135 62.1518L111.331 62.1129L111.331 62.1096L111.135 62.1518ZM118.285 64.7226L118.158 64.5683L118.158 64.5683L118.285 64.7226ZM119.819 62.1518L119.623 62.1096L119.623 62.1129L119.819 62.1518ZM119.904 61.7556V61.5556H119.743L119.709 61.7135L119.904 61.7556ZM149.463 61.7556L149.659 61.7135L149.625 61.5556H149.463V61.7556ZM149.549 62.1518L149.745 62.1129L149.744 62.1096L149.549 62.1518ZM158.233 62.1518L158.037 62.1096L158.036 62.1129L158.233 62.1518ZM158.318 61.7556V61.5556H158.157L158.123 61.7135L158.318 61.7556ZM164.105 61.6106L163.963 61.4695L163.963 61.4695L164.105 61.6106ZM151.441 48.88H151.241V49.08H151.441V48.88ZM160.144 48.88V49.08H160.399L160.338 48.8325L160.144 48.88ZM151.441 41.9469V41.7469H151.241V41.9469H151.441ZM158.449 41.9469L158.644 41.8994L158.606 41.7469H158.449V41.9469ZM116.797 64.4635L116.72 64.279L116.72 64.279L116.797 64.4635ZM117.914 63.7101L117.773 63.5686L117.772 63.5694L117.914 63.7101ZM115.477 64.7269L115.477 64.5269L115.476 64.5269L115.477 64.7269ZM113.558 64.1435L113.67 63.9776L113.67 63.9776L113.558 64.1435ZM112.291 62.581L112.477 62.5058L112.476 62.505L112.291 62.581ZM112.094 60.6001L111.898 60.5616L111.898 60.5621L112.094 60.6001ZM114.82 57.8599L114.782 57.6636L114.781 57.6637L114.82 57.8599ZM116.791 58.058L116.714 58.2427L116.715 58.2431L116.791 58.058ZM118.926 61.2604L118.726 61.2598L118.726 61.2607L118.926 61.2604ZM118.664 62.5869L118.479 62.5106L118.479 62.5106L118.664 62.5869ZM144.543 41.4517L144.343 41.4515V41.4517H144.543ZM144.688 41.1017L144.83 41.2429L144.83 41.2427L144.688 41.1017ZM144.543 60.7652V60.9652H144.743V60.7652H144.543ZM119.904 60.7652L119.708 60.8042L119.74 60.9652H119.904V60.7652ZM119.826 60.369L120.022 60.33L120.022 60.3294L119.826 60.369ZM112.674 57.805L112.801 57.9595L112.801 57.9595L112.674 57.805ZM111.135 60.369L111.331 60.4111L111.331 60.4086L111.135 60.369ZM111.05 60.7652V60.9652H111.211L111.245 60.8073L111.05 60.7652ZM107.109 60.7652H106.909V60.9652H107.109V60.7652ZM107.109 35.0139V34.8139H106.909V35.0139H107.109ZM156.485 35.0139L156.678 34.959L156.636 34.8139H156.485V35.0139ZM158.18 40.9565V41.1565H158.445L158.372 40.9016L158.18 40.9565ZM145.036 40.9565V40.7565L145.036 40.7565L145.036 40.9565ZM155.224 64.4635L155.147 64.279L155.147 64.279L155.224 64.4635ZM156.341 63.7101L156.199 63.5686L156.199 63.5694L156.341 63.7101ZM153.904 64.7269L153.904 64.5269L153.903 64.5269L153.904 64.7269ZM150.718 62.581L150.903 62.5058L150.903 62.505L150.718 62.581ZM150.521 60.6001L150.325 60.5609L150.325 60.5621L150.521 60.6001ZM153.234 57.8731L153.195 57.6768L153.194 57.677L153.234 57.8731ZM155.204 58.0712L155.128 58.2559L155.129 58.2566L155.204 58.0712ZM156.763 59.3361L156.929 59.2243L156.929 59.2243L156.763 59.3361ZM157.352 61.2604L157.552 61.2601L157.552 61.2599L157.352 61.2604ZM157.09 62.5869L156.906 62.5106L156.906 62.5106L157.09 62.5869ZM158.331 60.7652L158.136 60.8073L158.17 60.9652H158.331V60.7652ZM163.264 60.7652V60.9652H163.464V60.7652H163.264ZM158.246 60.369L158.05 60.4079L158.05 60.4111L158.246 60.369ZM149.562 60.369L149.758 60.4111L149.758 60.4079L149.562 60.369ZM149.477 60.7652V60.9652H149.638L149.672 60.8073L149.477 60.7652ZM145.535 60.7652H145.335V60.9652H145.535V60.7652ZM145.535 41.9469V41.7469H145.335V41.9469H145.535ZM150.462 41.9469H150.662V41.7469H150.462V41.9469ZM150.606 49.7253L150.748 49.5843L150.748 49.5843L150.606 49.7253ZM160.597 49.8704L160.739 49.7293L160.681 49.6704H160.597V49.8704ZM163.264 52.5512H163.464V52.4686L163.406 52.4101L163.264 52.5512ZM153.883 52.8438L153.884 52.6438H153.883V52.8438ZM154.232 52.9891L154.09 53.13L154.09 53.1302L154.232 52.9891ZM150.599 52.9889L150.457 52.8478L150.457 52.8478L150.599 52.9889ZM150.599 53.6895L150.457 53.8306L150.457 53.8306L150.599 53.6895ZM153.903 53.8347V54.0348L153.911 54.0345L153.903 53.8347ZM154.169 53.7431L154.053 53.5805L154.053 53.5805L154.169 53.7431ZM154.342 53.5199L154.529 53.5923L154.529 53.5923L154.342 53.5199ZM154.366 53.2379L154.561 53.1971L154.561 53.1971L154.366 53.2379ZM138.632 46.4031L138.832 46.4031L138.832 46.4029L138.632 46.4031ZM137.908 44.2812L138.067 44.159L138.067 44.159L137.908 44.2812ZM138.632 51.6061L138.832 51.6067V51.6061H138.632ZM137.982 53.1777L137.84 53.0366L137.84 53.0366L137.982 53.1777ZM136.418 53.8313V54.0313L136.419 54.0313L136.418 53.8313ZM114.249 53.8313L114.249 53.6313L114.249 53.6313L114.249 53.8313ZM112.029 51.6061L111.829 51.6061L111.829 51.6067L112.029 51.6061ZM112.029 46.4031L111.829 46.4029V46.4031H112.029ZM112.752 44.2812L112.911 44.4033L112.911 44.4033L112.752 44.2812ZM114.617 43.0488L114.667 43.2424L114.669 43.2419L114.617 43.0488ZM114.985 42.9498L115.037 43.1429L115.185 43.103V42.9498H114.985ZM114.985 40.2162L115.185 40.2162L115.185 40.2162L114.985 40.2162ZM115.633 38.6404L115.491 38.4995L115.491 38.4995L115.633 38.6404ZM117.198 37.9844L117.198 37.7844L117.198 37.7844L117.198 37.9844ZM135.676 42.9498H135.476V43.103L135.624 43.1429L135.676 42.9498ZM136.044 43.0488L135.992 43.2419L135.994 43.2424L136.044 43.0488ZM117.941 52.8409V53.0409H118.141V52.8409H117.941ZM114.242 52.8409L114.241 53.0409H114.242V52.8409ZM113.014 51.6061H112.814L112.814 51.6072L113.014 51.6061ZM131.735 52.8409V53.0409H131.935V52.8409H131.735ZM118.926 52.8409H118.726V53.0409H118.926V52.8409ZM131.735 47.8887H131.935V47.6887H131.735V47.8887ZM118.926 47.8887V47.6887H118.726V47.8887H118.926ZM131.735 46.4031L131.535 46.4029V46.4031H131.735ZM131.735 46.8983V47.0983H131.935V46.8983H131.735ZM132.458 44.2812L132.617 44.4033L132.617 44.4033L132.458 44.2812ZM134.323 43.0488L134.373 43.2424L134.375 43.2419L134.323 43.0488ZM134.691 42.9498L134.743 43.1429L134.891 43.103V42.9498H134.691ZM134.691 40.2096H134.891L134.891 40.2085L134.691 40.2096ZM133.462 38.9748L133.463 38.7748H133.462V38.9748ZM117.198 38.9748V38.7748L117.197 38.7748L117.198 38.9748ZM115.97 40.2096L115.77 40.2085V40.2096H115.97ZM115.97 42.9498H115.77V43.103L115.918 43.1429L115.97 42.9498ZM116.338 43.0488L116.286 43.2419L116.288 43.2424L116.338 43.0488ZM118.202 44.2812L118.044 44.4033L118.044 44.4033L118.202 44.2812ZM118.926 46.4031L119.126 46.4031L119.126 46.4029L118.926 46.4031ZM118.926 46.8983H118.726V47.0983H118.926V46.8983ZM137.647 51.6061L137.847 51.6072V51.6061H137.647ZM132.72 52.8409H132.52V53.0409H132.72V52.8409ZM136.418 52.8409V53.0409L136.419 53.0409L136.418 52.8409ZM164.027 52.2346C164.042 52.2696 164.05 52.3075 164.05 52.3459L164.45 52.3471C164.45 52.2536 164.431 52.1611 164.394 52.0754L164.027 52.2346ZM163.971 52.1801C163.997 52.1988 164.019 52.2233 164.035 52.252L164.385 52.058C164.34 51.9763 164.277 51.9061 164.2 51.8525L163.971 52.1801ZM161.086 49.2851L163.944 52.1574L164.227 51.8753L161.37 49.003L161.086 49.2851ZM159.063 41.4017L161.034 49.1931L161.422 49.095L159.451 41.3036L159.063 41.4017ZM157.094 34.4543L159.065 41.4072L159.45 41.2981L157.479 34.3453L157.094 34.4543ZM157.01 34.2599C157.053 34.3052 157.08 34.3631 157.088 34.4254L157.485 34.3742C157.466 34.2283 157.402 34.092 157.301 33.9851L157.01 34.2599ZM156.861 34.2234C156.923 34.2232 156.984 34.2435 157.034 34.2816L157.276 33.9633C157.156 33.872 157.01 33.8228 156.859 33.8234L156.861 34.2234ZM106.609 34.2234H156.86V33.8234H106.609V34.2234ZM106.403 34.3095C106.458 34.2543 106.532 34.2234 106.609 34.2234V33.8234C106.425 33.8234 106.249 33.8969 106.119 34.0274L106.403 34.3095ZM106.317 34.5187C106.317 34.44 106.348 34.3648 106.403 34.3095L106.119 34.0274C105.989 34.1579 105.917 34.3346 105.917 34.5187H106.317ZM106.317 61.2604V34.5187H105.917V61.2604H106.317ZM106.403 61.4695C106.348 61.4142 106.317 61.339 106.317 61.2604H105.917C105.917 61.4444 105.989 61.6211 106.119 61.7516L106.403 61.4695ZM106.609 61.5556C106.532 61.5556 106.458 61.5247 106.403 61.4695L106.119 61.7516C106.249 61.8821 106.425 61.9556 106.609 61.9556V61.5556ZM111.05 61.5556H106.609V61.9556H111.05V61.5556ZM111.331 62.1096L111.245 61.7135L110.854 61.7977L110.94 62.1939L111.331 62.1096ZM112.796 64.5683C112.04 63.9449 111.523 63.0772 111.331 62.1129L110.939 62.1907C111.148 63.2453 111.714 64.1946 112.542 64.8769L112.796 64.5683ZM115.477 65.5323C114.5 65.5323 113.552 65.1917 112.796 64.5683L112.542 64.8769C113.369 65.5592 114.407 65.9323 115.477 65.9323V65.5323ZM118.158 64.5683C117.402 65.1917 116.455 65.5323 115.477 65.5323V65.9323C116.548 65.9323 117.585 65.5592 118.412 64.8769L118.158 64.5683ZM119.623 62.1129C119.432 63.0772 118.914 63.9449 118.158 64.5683L118.412 64.8769C119.24 64.1946 119.806 63.2453 120.015 62.1907L119.623 62.1129ZM119.709 61.7135L119.623 62.1096L120.014 62.1939L120.1 61.7977L119.709 61.7135ZM149.463 61.5556H119.904V61.9556H149.463V61.5556ZM149.744 62.1096L149.659 61.7135L149.268 61.7977L149.353 62.1939L149.744 62.1096ZM151.21 64.5683C150.454 63.9449 149.936 63.0772 149.745 62.1129L149.353 62.1907C149.562 63.2453 150.128 64.1946 150.955 64.8769L151.21 64.5683ZM153.891 65.5323C152.913 65.5323 151.966 65.1917 151.21 64.5683L150.955 64.8769C151.783 65.5592 152.82 65.9323 153.891 65.9323V65.5323ZM156.571 64.5683C155.816 65.1917 154.868 65.5323 153.891 65.5323V65.9323C154.961 65.9323 155.999 65.5592 156.826 64.8769L156.571 64.5683ZM158.036 62.1129C157.845 63.0772 157.327 63.9449 156.571 64.5683L156.826 64.8769C157.653 64.1946 158.22 63.2453 158.429 62.1907L158.036 62.1129ZM158.123 61.7135L158.037 62.1096L158.428 62.1939L158.514 61.7977L158.123 61.7135ZM163.757 61.5556H158.318V61.9556H163.757V61.5556ZM163.963 61.4695C163.909 61.5247 163.834 61.5556 163.757 61.5556V61.9556C163.941 61.9556 164.117 61.8821 164.247 61.7516L163.963 61.4695ZM164.05 61.2604C164.05 61.339 164.018 61.4142 163.963 61.4695L164.247 61.7516C164.377 61.6212 164.45 61.4444 164.45 61.2604H164.05ZM164.05 52.3465V61.2604H164.45V52.3465H164.05ZM151.441 49.08H160.144V48.68H151.441V49.08ZM151.241 41.9469V48.88H151.641V41.9469H151.241ZM158.449 41.7469H151.441V42.1469H158.449V41.7469ZM160.338 48.8325L158.644 41.8994L158.255 41.9944L159.95 48.9274L160.338 48.8325ZM116.874 64.6481C117.317 64.4634 117.718 64.1923 118.056 63.8507L117.772 63.5694C117.471 63.8735 117.114 64.1147 116.72 64.279L116.874 64.6481ZM115.477 64.9269C115.956 64.9276 116.431 64.8329 116.874 64.6481L116.72 64.279C116.326 64.4433 115.904 64.5275 115.477 64.5269L115.477 64.9269ZM113.446 64.3094C114.047 64.714 114.754 64.9291 115.478 64.9269L115.476 64.5269C114.833 64.5289 114.204 64.3376 113.67 63.9776L113.446 64.3094ZM112.106 62.6561C112.379 63.329 112.845 63.9047 113.446 64.3094L113.67 63.9776C113.135 63.6176 112.72 63.1051 112.477 62.5058L112.106 62.6561ZM111.898 60.5621C111.762 61.2658 111.834 61.9942 112.106 62.6569L112.476 62.505C112.234 61.9145 112.169 61.2653 112.291 60.6381L111.898 60.5621ZM112.901 58.6722C112.387 59.1882 112.038 59.8459 111.898 60.5616L112.29 60.6386C112.416 60.0004 112.727 59.4141 113.184 58.9543L112.901 58.6722ZM114.781 57.6637C114.069 57.8051 113.414 58.1561 112.901 58.6722L113.184 58.9543C113.642 58.4945 114.225 58.1819 114.859 58.0561L114.781 57.6637ZM116.867 57.8732C116.208 57.5995 115.482 57.5266 114.782 57.6636L114.859 58.0562C115.482 57.9343 116.127 57.9991 116.714 58.2427L116.867 57.8732ZM118.512 59.2202C118.109 58.6165 117.536 58.1473 116.867 57.8729L116.715 58.2431C117.311 58.4871 117.821 58.9046 118.179 59.4421L118.512 59.2202ZM119.126 61.261C119.128 60.5345 118.914 59.8239 118.512 59.2202L118.179 59.4421C118.537 59.9796 118.728 60.6125 118.726 61.2598L119.126 61.261ZM118.849 62.6633C119.032 62.2185 119.126 61.7416 119.126 61.2601L118.726 61.2607C118.726 61.6896 118.642 62.1145 118.479 62.5106L118.849 62.6633ZM118.055 63.8515C118.395 63.5119 118.665 63.1081 118.849 62.6633L118.479 62.5106C118.315 62.9067 118.075 63.2663 117.773 63.5686L118.055 63.8515ZM144.743 41.4519C144.744 41.3733 144.775 41.2981 144.83 41.2429L144.546 40.9606C144.416 41.0909 144.344 41.2675 144.343 41.4515L144.743 41.4519ZM144.743 60.7652V41.4517H144.343V60.7652H144.743ZM119.904 60.9652H144.543V60.5652H119.904V60.9652ZM119.629 60.408L119.708 60.8042L120.101 60.7261L120.022 60.33L119.629 60.408ZM118.159 57.9595C118.916 58.5809 119.435 59.446 119.63 60.4086L120.022 60.3294C119.809 59.2769 119.241 58.3304 118.413 57.6505L118.159 57.9595ZM115.48 56.999C116.457 56.999 117.403 57.3382 118.159 57.9595L118.413 57.6505C117.586 56.9705 116.55 56.599 115.48 56.599V56.999ZM112.801 57.9595C113.558 57.3382 114.504 56.999 115.48 56.999V56.599C114.411 56.599 113.375 56.9705 112.547 57.6505L112.801 57.9595ZM111.331 60.4086C111.526 59.446 112.045 58.5809 112.801 57.9595L112.547 57.6505C111.72 58.3304 111.152 59.2769 110.939 60.3294L111.331 60.4086ZM111.245 60.8073L111.331 60.4111L110.94 60.3268L110.854 60.723L111.245 60.8073ZM107.109 60.9652H111.05V60.5652H107.109V60.9652ZM106.909 35.0139V60.7652H107.309V35.0139H106.909ZM156.485 34.8139H107.109V35.2139H156.485V34.8139ZM158.372 40.9016L156.678 34.959L156.293 35.0687L157.988 41.0113L158.372 40.9016ZM145.036 41.1565H158.18V40.7565H145.036V41.1565ZM144.83 41.2427C144.885 41.1874 144.959 41.1565 145.036 41.1565L145.036 40.7565C144.852 40.7566 144.676 40.8303 144.546 40.9608L144.83 41.2427ZM155.301 64.6481C155.743 64.4634 156.145 64.1923 156.483 63.8507L156.199 63.5694C155.898 63.8735 155.54 64.1147 155.147 64.279L155.301 64.6481ZM153.904 64.9269C154.383 64.9276 154.858 64.8329 155.301 64.6481L155.147 64.279C154.753 64.4433 154.33 64.5275 153.904 64.5269L153.904 64.9269ZM151.873 64.3094C152.474 64.714 153.181 64.9291 153.904 64.9269L153.903 64.5269C153.26 64.5289 152.631 64.3376 152.096 63.9776L151.873 64.3094ZM150.533 62.6561C150.805 63.329 151.272 63.9047 151.873 64.3094L152.096 63.9776C151.562 63.6176 151.146 63.1051 150.903 62.5058L150.533 62.6561ZM150.325 60.5621C150.188 61.2658 150.261 61.9942 150.533 62.6569L150.903 62.505C150.661 61.9145 150.596 61.2653 150.717 60.6381L150.325 60.5621ZM151.325 58.6832C150.815 59.1964 150.467 59.8497 150.325 60.5609L150.717 60.6392C150.844 60.0049 151.154 59.4226 151.609 58.9653L151.325 58.6832ZM153.194 57.677C152.486 57.8199 151.836 58.17 151.325 58.6832L151.609 58.9653C152.064 58.5081 152.643 58.1963 153.273 58.0691L153.194 57.677ZM155.281 57.8865C154.621 57.6127 153.896 57.5398 153.195 57.6768L153.272 58.0694C153.896 57.9475 154.541 58.0123 155.128 58.2559L155.281 57.8865ZM156.929 59.2243C156.524 58.6232 155.95 58.1571 155.28 57.8858L155.129 58.2566C155.726 58.4979 156.237 58.9126 156.597 59.4478L156.929 59.2243ZM157.552 61.2599C157.551 60.5342 157.334 59.8255 156.929 59.2243L156.597 59.4478C156.958 59.983 157.151 60.6143 157.152 61.2608L157.552 61.2599ZM157.275 62.6633C157.459 62.2185 157.553 61.7416 157.552 61.2601L157.152 61.2607C157.153 61.6896 157.069 62.1145 156.906 62.5106L157.275 62.6633ZM156.482 63.8515C156.822 63.5119 157.092 63.1081 157.275 62.6633L156.906 62.5106C156.742 62.9067 156.502 63.2663 156.199 63.5686L156.482 63.8515ZM158.331 60.9652H163.264V60.5652H158.331V60.9652ZM158.05 60.4111L158.136 60.8073L158.527 60.723L158.441 60.3269L158.05 60.4111ZM156.585 57.9525C157.341 58.5758 157.858 59.4435 158.05 60.4079L158.442 60.3301C158.233 59.2755 157.667 58.3262 156.839 57.6438L156.585 57.9525ZM153.904 56.9885C154.881 56.9885 155.829 57.3291 156.585 57.9525L156.839 57.6438C156.012 56.9615 154.974 56.5885 153.904 56.5885V56.9885ZM151.223 57.9525C151.979 57.3291 152.926 56.9885 153.904 56.9885V56.5885C152.833 56.5885 151.796 56.9615 150.969 57.6438L151.223 57.9525ZM149.758 60.4079C149.949 59.4435 150.467 58.5758 151.223 57.9525L150.969 57.6438C150.141 58.3262 149.575 59.2755 149.366 60.3301L149.758 60.4079ZM149.672 60.8073L149.757 60.4111L149.366 60.3269L149.281 60.723L149.672 60.8073ZM145.535 60.9652H149.477V60.5652H145.535V60.9652ZM145.335 41.9469V60.7652H145.735V41.9469H145.335ZM150.462 41.7469H145.535V42.1469H150.462V41.7469ZM150.662 49.3752V41.9469H150.262V49.3752H150.662ZM150.748 49.5843C150.693 49.529 150.662 49.4538 150.662 49.3752H150.262C150.262 49.5592 150.335 49.7359 150.464 49.8664L150.748 49.5843ZM150.955 49.6704C150.877 49.6704 150.803 49.6395 150.748 49.5843L150.464 49.8664C150.594 49.9969 150.771 50.0704 150.955 50.0704V49.6704ZM160.597 49.6704H150.955V50.0704H160.597V49.6704ZM163.406 52.4101L160.739 49.7293L160.456 50.0114L163.122 52.6922L163.406 52.4101ZM163.464 60.7652V52.5512H163.064V60.7652H163.464ZM154.195 61.2572C154.195 61.4214 154.063 61.5526 153.902 61.5526V61.9526C154.286 61.9526 154.595 61.6402 154.595 61.2572H154.195ZM153.902 60.9617C154.063 60.9617 154.195 61.0929 154.195 61.2572H154.595C154.595 60.8742 154.286 60.5617 153.902 60.5617V60.9617ZM153.61 61.2572C153.61 61.0929 153.742 60.9617 153.902 60.9617V60.5617C153.519 60.5617 153.21 60.8742 153.21 61.2572H153.61ZM153.902 61.5526C153.742 61.5526 153.61 61.4214 153.61 61.2572H153.21C153.21 61.6402 153.519 61.9526 153.902 61.9526V61.5526ZM115.477 61.9526C115.86 61.9526 116.169 61.6402 116.169 61.2572H115.769C115.769 61.4214 115.637 61.5526 115.477 61.5526V61.9526ZM114.784 61.2572C114.784 61.6402 115.093 61.9526 115.477 61.9526V61.5526C115.316 61.5526 115.184 61.4214 115.184 61.2572H114.784ZM115.477 60.5617C115.093 60.5617 114.784 60.8742 114.784 61.2572H115.184C115.184 61.0929 115.316 60.9617 115.477 60.9617V60.5617ZM116.169 61.2572C116.169 60.8742 115.86 60.5617 115.477 60.5617V60.9617C115.637 60.9617 115.769 61.0929 115.769 61.2572H116.169ZM121.681 42.4447C121.681 42.6089 121.549 42.7401 121.389 42.7401V43.1401C121.772 43.1401 122.081 42.8277 122.081 42.4447H121.681ZM121.389 42.1492C121.549 42.1492 121.681 42.2804 121.681 42.4447H122.081C122.081 42.0617 121.772 41.7492 121.389 41.7492V42.1492ZM121.096 42.4447C121.096 42.2804 121.228 42.1492 121.389 42.1492V41.7492C121.005 41.7492 120.696 42.0617 120.696 42.4447H121.096ZM121.389 42.7401C121.228 42.7401 121.096 42.6089 121.096 42.4447H120.696C120.696 42.8277 121.005 43.1401 121.389 43.1401V42.7401ZM129.27 43.1401C129.653 43.1401 129.962 42.8277 129.962 42.4447H129.562C129.562 42.6089 129.43 42.7401 129.27 42.7401V43.1401ZM128.577 42.4447C128.577 42.8277 128.886 43.1401 129.27 43.1401V42.7401C129.109 42.7401 128.977 42.6089 128.977 42.4447H128.577ZM129.27 41.7492C128.886 41.7492 128.577 42.0617 128.577 42.4447H128.977C128.977 42.2804 129.109 42.1492 129.27 42.1492V41.7492ZM129.962 42.4447C129.962 42.0617 129.653 41.7492 129.27 41.7492V42.1492C129.43 42.1492 129.562 42.2804 129.562 42.4447H129.962ZM153.883 53.0438C153.96 53.0438 154.035 53.0747 154.09 53.13L154.373 52.8482C154.244 52.7176 154.068 52.6439 153.884 52.6438L153.883 53.0438ZM150.947 53.0438H153.883V52.6438H150.947V53.0438ZM150.741 53.1299C150.796 53.0746 150.87 53.0438 150.947 53.0438V52.6438C150.763 52.6438 150.587 52.7173 150.457 52.8478L150.741 53.1299ZM150.655 53.3392C150.655 53.2605 150.686 53.1852 150.741 53.1299L150.457 52.8478C150.327 52.9784 150.255 53.1551 150.255 53.3392H150.655ZM150.741 53.5485C150.686 53.4932 150.655 53.4179 150.655 53.3392H150.255C150.255 53.5233 150.327 53.7001 150.457 53.8306L150.741 53.5485ZM150.947 53.6347C150.87 53.6347 150.796 53.6038 150.741 53.5485L150.457 53.8306C150.587 53.9611 150.763 54.0347 150.947 54.0347V53.6347ZM153.903 53.6347H150.947V54.0347H153.903V53.6347ZM154.053 53.5805C154.007 53.6137 153.952 53.6325 153.895 53.6348L153.911 54.0345C154.046 54.0291 154.176 53.9842 154.286 53.9056L154.053 53.5805ZM154.156 53.4475C154.135 53.5011 154.099 53.5473 154.053 53.5805L154.286 53.9056C154.396 53.827 154.48 53.7181 154.529 53.5923L154.156 53.4475ZM154.17 53.2787C154.182 53.3352 154.177 53.3938 154.156 53.4475L154.529 53.5923C154.578 53.4665 154.589 53.3292 154.561 53.1971L154.17 53.2787ZM154.09 53.1302C154.13 53.1707 154.158 53.2223 154.17 53.2787L154.561 53.1971C154.534 53.0649 154.469 52.9436 154.373 52.848L154.09 53.1302ZM138.832 46.4029C138.831 45.5905 138.562 44.8012 138.067 44.159L137.75 44.4033C138.192 44.9755 138.431 45.6789 138.432 46.4032L138.832 46.4029ZM138.832 51.6061V46.4031H138.432V51.6061H138.832ZM138.123 53.3187C138.576 52.8643 138.83 52.2489 138.832 51.6067L138.432 51.6056C138.43 52.1427 138.217 52.6571 137.84 53.0366L138.123 53.3187ZM136.419 54.0313C137.059 54.0294 137.671 53.7731 138.123 53.3187L137.84 53.0366C137.462 53.4161 136.951 53.6297 136.418 53.6313L136.419 54.0313ZM114.249 54.0313H136.418V53.6313H114.249V54.0313ZM112.54 53.3212C112.993 53.7759 113.608 54.0313 114.249 54.0313L114.249 53.6313C113.715 53.6313 113.202 53.4183 112.823 53.0387L112.54 53.3212ZM111.829 51.6067C111.831 52.2501 112.086 52.8667 112.54 53.3212L112.823 53.0387C112.444 52.6591 112.23 52.1437 112.229 51.6056L111.829 51.6067ZM111.829 46.4031V51.6061H112.229V46.4031H111.829ZM112.594 44.159C112.099 44.8012 111.829 45.5905 111.829 46.4029L112.229 46.4032C112.229 45.6789 112.469 44.9755 112.911 44.4033L112.594 44.159ZM114.567 42.8552C113.783 43.0581 113.09 43.5168 112.594 44.159L112.911 44.4033C113.352 43.8312 113.97 43.423 114.667 43.2424L114.567 42.8552ZM114.933 42.7566L114.565 42.8557L114.669 43.2419L115.037 43.1429L114.933 42.7566ZM114.785 40.2162V42.9498H115.185V40.2162H114.785ZM115.491 38.4995C115.038 38.9555 114.785 39.5728 114.785 40.2162L115.185 40.2162C115.185 39.678 115.397 39.162 115.775 38.7812L115.491 38.4995ZM117.198 37.7844C116.557 37.7863 115.943 38.0436 115.491 38.4995L115.775 38.7812C116.152 38.4005 116.665 38.186 117.199 38.1844L117.198 37.7844ZM133.456 37.7844H117.198V38.1844H133.456V37.7844ZM135.168 38.497C134.714 38.0408 134.098 37.7844 133.456 37.7844V38.1844C133.991 38.1844 134.505 38.3982 134.884 38.7791L135.168 38.497ZM135.876 40.2162C135.876 39.5715 135.621 38.9531 135.168 38.497L134.884 38.7791C135.263 39.1601 135.476 39.677 135.476 40.2162H135.876ZM135.876 42.9498V40.2162H135.476V42.9498H135.876ZM136.096 42.8557L135.728 42.7566L135.624 43.1429L135.992 43.2419L136.096 42.8557ZM138.067 44.159C137.571 43.5168 136.877 43.0581 136.094 42.8552L135.994 43.2424C136.691 43.423 137.309 43.8312 137.75 44.4033L138.067 44.159ZM117.941 52.6409H114.242V53.0409H117.941V52.6409ZM117.741 46.4031V52.8409H118.141V46.4031H117.741ZM117.077 44.7933C117.502 45.22 117.741 45.7991 117.741 46.4031H118.141C118.141 45.6937 117.86 45.0131 117.361 44.5112L117.077 44.7933ZM115.477 44.127C116.077 44.127 116.653 44.3665 117.077 44.7933L117.361 44.5112C116.862 44.0092 116.184 43.727 115.477 43.727V44.127ZM113.877 44.7933C114.302 44.3665 114.877 44.127 115.477 44.127V43.727C114.771 43.727 114.093 44.0092 113.594 44.5112L113.877 44.7933ZM113.214 46.4031C113.214 45.7991 113.453 45.22 113.877 44.7933L113.594 44.5112C113.094 45.0131 112.814 45.6937 112.814 46.4031H113.214ZM113.214 51.6061V46.4031H112.814V51.6061H113.214ZM113.518 52.3363C113.325 52.1424 113.216 51.8797 113.214 51.6051L112.814 51.6072C112.816 51.9865 112.967 52.3499 113.234 52.6184L113.518 52.3363ZM114.244 52.6409C113.971 52.6394 113.71 52.5301 113.518 52.3363L113.234 52.6184C113.501 52.8869 113.863 53.0389 114.241 53.0409L114.244 52.6409ZM131.735 52.6409H118.926V53.0409H131.735V52.6409ZM131.535 47.8887V52.8409H131.935V47.8887H131.535ZM118.926 48.0887H131.735V47.6887H118.926V48.0887ZM119.126 52.8409V47.8887H118.726V52.8409H119.126ZM131.535 46.4031V46.8983H131.935V46.4031H131.535ZM132.3 44.159C131.805 44.8012 131.535 45.5905 131.535 46.4029L131.935 46.4032C131.935 45.6789 132.175 44.9755 132.617 44.4033L132.3 44.159ZM134.273 42.8552C133.489 43.0581 132.796 43.5168 132.3 44.159L132.617 44.4033C133.058 43.8312 133.676 43.423 134.373 43.2424L134.273 42.8552ZM134.639 42.7566L134.271 42.8557L134.375 43.2419L134.743 43.1429L134.639 42.7566ZM134.491 40.2096V42.9498H134.891V40.2096H134.491ZM134.187 39.4794C134.38 39.6733 134.489 39.936 134.491 40.2106L134.891 40.2085C134.889 39.8292 134.738 39.4658 134.471 39.1973L134.187 39.4794ZM133.461 39.1748C133.734 39.1763 133.994 39.2856 134.187 39.4794L134.471 39.1973C134.204 38.9288 133.842 38.7768 133.463 38.7748L133.461 39.1748ZM117.198 39.1748H133.462V38.7748H117.198V39.1748ZM116.473 39.4794C116.666 39.2856 116.927 39.1763 117.199 39.1748L117.197 38.7748C116.819 38.7768 116.457 38.9288 116.19 39.1973L116.473 39.4794ZM116.17 40.2106C116.171 39.936 116.281 39.6733 116.473 39.4794L116.19 39.1973C115.923 39.4658 115.772 39.8292 115.77 40.2085L116.17 40.2106ZM116.17 42.9498V40.2096H115.77V42.9498H116.17ZM116.39 42.8557L116.022 42.7566L115.918 43.1429L116.286 43.2419L116.39 42.8557ZM118.361 44.159C117.865 43.5168 117.171 43.0581 116.388 42.8552L116.288 43.2424C116.985 43.423 117.603 43.8312 118.044 44.4033L118.361 44.159ZM119.126 46.4029C119.125 45.5905 118.856 44.8012 118.361 44.159L118.044 44.4033C118.485 44.9755 118.725 45.6789 118.726 46.4032L119.126 46.4029ZM119.126 46.8983V46.4031H118.726V46.8983H119.126ZM131.735 46.6983H118.926V47.0983H131.735V46.6983ZM137.447 51.6051C137.445 51.8797 137.336 52.1424 137.143 52.3363L137.427 52.6184C137.694 52.3499 137.845 51.9865 137.847 51.6072L137.447 51.6051ZM137.447 46.4031V51.6061H137.847V46.4031H137.447ZM136.783 44.7933C137.208 45.22 137.447 45.7991 137.447 46.4031H137.847C137.847 45.6937 137.566 45.0131 137.067 44.5112L136.783 44.7933ZM135.183 44.127C135.783 44.127 136.359 44.3665 136.783 44.7933L137.067 44.5112C136.568 44.0092 135.89 43.727 135.183 43.727V44.127ZM133.583 44.7933C134.008 44.3665 134.584 44.127 135.183 44.127V43.727C134.477 43.727 133.799 44.0092 133.3 44.5112L133.583 44.7933ZM132.92 46.4031C132.92 45.7991 133.159 45.22 133.583 44.7933L133.3 44.5112C132.801 45.0131 132.52 45.6937 132.52 46.4031H132.92ZM132.92 52.8409V46.4031H132.52V52.8409H132.92ZM136.418 52.6409H132.72V53.0409H136.418V52.6409ZM137.143 52.3363C136.95 52.5301 136.69 52.6394 136.417 52.6409L136.419 53.0409C136.798 53.0389 137.16 52.8869 137.427 52.6184L137.143 52.3363Z" fill="#325837" mask="url(#path-3-outside-1_772_794)"/>
</g>
<path d="M74 45.75C74.4142 45.75 74.75 45.4142 74.75 45C74.75 44.5858 74.4142 44.25 74 44.25L74 45.75ZM49 45C49 42.7909 47.2091 41 45 41C42.7909 41 41 42.7909 41 45C41 47.2091 42.7909 49 45 49C47.2091 49 49 47.2091 49 45ZM74 44.25L45 44.25L45 45.75L74 45.75L74 44.25Z" fill="#BACC91"/>
<circle opacity="0.4" cx="45" cy="29" r="3" transform="rotate(90 45 29)" fill="#BACC91"/>
<circle opacity="0.4" cx="45" cy="61" r="3" transform="rotate(90 45 61)" fill="#BACC91"/>
<path d="M4 53.968V49.648L20.56 28H27.232L10.912 49.648L7.792 48.688H34.432V53.968H4ZM22.432 61.6V53.968L22.624 48.688V41.92H28.48V61.6H22.432Z" fill="#D2DDC7"/>
</svg>
