<svg width="179" height="90" viewBox="0 0 179 90" fill="none" xmlns="http://www.w3.org/2000/svg">
<mask id="mask0_772_724" style="mask-type:alpha" maskUnits="userSpaceOnUse" x="89" y="0" width="90" height="90">
<rect x="89" width="90" height="90" fill="#C4C4C4"/>
</mask>
<g mask="url(#mask0_772_724)">
<path fill-rule="evenodd" clip-rule="evenodd" d="M139.96 5.80417C149.924 7.42875 156.406 16.1233 162.701 24.0156C169.535 32.5826 177.821 41.3004 176.991 52.2276C176.113 63.7937 171.171 73.9127 161.398 80.1601C152.058 86.1302 137.728 85.8008 126.738 84.351C115.196 82.8284 102.444 81.1976 95.5752 71.7982C88.6591 62.3342 89.4851 49.2825 92.9212 38.0758C95.9436 28.2179 104.222 21.7003 112.724 15.8672C121.021 10.1751 130.03 4.18509 139.96 5.80417Z" fill="#EDF4DD"/>
<path d="M156.68 70.4638H154.503C151.972 67.2932 151.384 61.592 154.498 57.8901H155.471C156.355 57.8901 157.074 57.1702 157.074 56.2853C157.074 55.4004 156.355 54.6804 155.471 54.6804H139.76C138.876 54.6804 138.157 55.4004 138.157 56.2853C138.157 57.1702 138.876 57.8901 139.76 57.8901H140.734C143.847 61.592 143.259 67.2932 140.728 70.4638H133.12C133.118 70.4497 133.115 70.4355 133.112 70.4214L132.629 68.2577C133.545 68.1898 134.415 67.8261 135.108 67.216C135.886 66.5308 136.375 65.5915 136.483 64.5711C136.615 63.336 136.608 61.9524 136.602 60.6145C136.591 58.1453 136.58 55.5923 137.505 54.6555C138.037 54.1779 138.372 53.4852 138.372 52.7156C138.372 51.3378 137.298 50.2064 135.945 50.1147C134.298 48.3952 132.391 47.1313 130.275 46.3572C128.553 45.7275 126.648 45.4082 124.613 45.4082C122.577 45.4082 120.672 45.7275 118.951 46.3572C116.834 47.1313 114.928 48.3952 113.281 50.1147C111.927 50.2064 110.854 51.3378 110.854 52.7156C110.854 53.4852 111.189 54.1779 111.721 54.6556C112.646 55.5924 112.634 58.1454 112.623 60.6145C112.617 61.9524 112.611 63.336 112.743 64.5711C112.851 65.5915 113.34 66.5308 114.118 67.216C114.811 67.8261 115.681 68.1898 116.597 68.2577L116.114 70.4214C116.111 70.4355 116.108 70.4497 116.106 70.4638H111.255C111.033 70.4638 110.854 70.6435 110.854 70.8651C110.854 71.0866 111.033 71.2663 111.255 71.2663H156.68C156.901 71.2663 157.081 71.0866 157.081 70.8651C157.081 70.6435 156.901 70.4638 156.68 70.4638ZM138.959 56.2853C138.959 55.8428 139.318 55.4829 139.76 55.4829H155.471C155.913 55.4829 156.273 55.8428 156.273 56.2853C156.273 56.7277 155.913 57.0877 155.471 57.0877H139.76C139.318 57.0877 138.959 56.7277 138.959 56.2853ZM142.919 68.1356C143.341 66.9917 143.593 65.7385 143.648 64.5114C143.707 63.189 143.546 61.9107 143.17 60.712C142.847 59.6834 142.371 58.7375 141.752 57.8901H153.479C152.86 58.7375 152.384 59.6834 152.062 60.712C151.685 61.9107 151.524 63.189 151.583 64.5114C151.638 65.7385 151.89 66.9917 152.312 68.1356C152.624 68.9811 153.031 69.7728 153.507 70.4638H141.725C142.2 69.7728 142.607 68.9811 142.919 68.1356ZM131.011 70.4638L129.842 68.2695H131.81L132.3 70.4638H131.011ZM128.933 68.2695L130.103 70.4638H119.123L120.293 68.2695H128.933ZM137.57 52.7156C137.57 53.2461 137.34 53.7239 136.975 54.0543C136.974 54.0555 136.972 54.0568 136.971 54.058C136.651 54.3452 136.229 54.5202 135.767 54.5202C134.773 54.5202 133.964 53.7107 133.964 52.7156C133.964 51.7205 134.773 50.9109 135.767 50.9109C136.761 50.9109 137.57 51.7205 137.57 52.7156ZM124.613 46.2106C128.703 46.2106 132.174 47.5666 134.941 50.2429C134.508 50.3884 134.124 50.6454 133.826 50.9797C133.825 50.9808 133.823 50.9818 133.822 50.983C132.671 52.1355 132.476 54.2225 132.269 56.432C132.209 57.0707 132.148 57.7179 132.063 58.3456H117.163C117.077 57.7179 117.017 57.0707 116.957 56.432C116.75 54.2225 116.555 52.1355 115.404 50.983C115.402 50.9818 115.401 50.9808 115.4 50.9797C115.101 50.6454 114.718 50.3884 114.284 50.2429C117.052 47.5666 120.523 46.2106 124.613 46.2106ZM131.937 59.148C131.814 59.8191 131.648 60.4513 131.407 61.0066C131.11 61.6899 130.42 62.1315 129.648 62.1315H119.577C118.806 62.1315 118.116 61.6899 117.819 61.0066C117.578 60.4513 117.412 59.8191 117.289 59.148H131.937ZM113.459 50.9109C114.453 50.9109 115.261 51.7205 115.261 52.7156C115.261 53.7107 114.453 54.5202 113.459 54.5202C112.996 54.5202 112.574 54.3451 112.255 54.0576C112.253 54.0566 112.252 54.0554 112.251 54.0544C111.886 53.7239 111.656 53.2461 111.656 52.7156C111.656 51.7205 112.464 50.9109 113.459 50.9109ZM113.54 64.4861C113.413 63.2952 113.419 61.9342 113.425 60.6181C113.434 58.5832 113.443 56.6316 112.979 55.2782C113.134 55.3073 113.295 55.3226 113.459 55.3226C114.504 55.3226 115.408 54.7025 115.822 53.8105C115.983 54.6267 116.07 55.5545 116.159 56.5068C116.317 58.1926 116.48 59.9357 117.084 61.3266C117.508 62.303 118.487 62.9338 119.577 62.9338H129.648C130.739 62.9338 131.717 62.303 132.142 61.3266C132.746 59.9357 132.909 58.1925 133.067 56.5068C133.156 55.5545 133.243 54.6267 133.404 53.8105C133.818 54.7025 134.722 55.3226 135.767 55.3226C135.931 55.3226 136.091 55.3073 136.247 55.2782C135.783 56.6316 135.792 58.5832 135.801 60.6181C135.807 61.9342 135.813 63.2952 135.686 64.4861C135.505 66.1856 134.056 67.4671 132.315 67.4671H129.179C129.176 67.4671 129.174 67.4671 129.171 67.4671H120.054C120.052 67.4671 120.049 67.4671 120.047 67.4671H117.102C117.101 67.4671 117.1 67.4671 117.098 67.4671H116.911C115.17 67.4671 113.721 66.1856 113.54 64.4861ZM117.416 68.2695H119.384L118.215 70.4638H116.926L117.416 68.2695Z" fill="#325837"/>
<path fill-rule="evenodd" clip-rule="evenodd" d="M133.281 70.2636H140.631C143.046 67.1612 143.591 61.6799 140.64 58.0899H139.76C138.765 58.0899 137.957 57.2802 137.957 56.2851C137.957 55.2899 138.765 54.4803 139.76 54.4803H155.471C156.465 54.4803 157.274 55.2899 157.274 56.2851C157.274 57.2802 156.465 58.0899 155.471 58.0899H154.591C151.64 61.6799 152.185 67.1612 154.6 70.2636H156.68C157.012 70.2636 157.28 70.533 157.28 70.8649C157.28 71.1967 157.012 71.4661 156.68 71.4661H111.255C110.923 71.4661 110.654 71.1967 110.654 70.8649C110.654 70.533 110.923 70.2636 111.255 70.2636H115.944L116.352 68.4339C115.478 68.3232 114.653 67.9537 113.985 67.3659C113.17 66.648 112.657 65.6629 112.544 64.5921C112.411 63.346 112.417 61.9535 112.423 60.6202L112.423 60.6134C112.429 59.3758 112.434 58.132 112.324 57.0811C112.269 56.5562 112.186 56.0866 112.063 55.6945C111.94 55.3036 111.781 55.0029 111.582 54.7999C111.013 54.2862 110.654 53.5421 110.654 52.7154C110.654 51.2584 111.768 50.0575 113.189 49.9214C114.844 48.209 116.758 46.9461 118.882 46.1692C120.628 45.5306 122.556 45.208 124.613 45.208C126.669 45.208 128.597 45.5306 130.343 46.1692C132.468 46.9461 134.382 48.209 136.036 49.9214C137.457 50.0575 138.572 51.2584 138.572 52.7154C138.572 53.542 138.212 54.2862 137.643 54.7999C137.445 55.0028 137.286 55.3035 137.163 55.6944C137.039 56.0865 136.956 56.5561 136.901 57.081C136.791 58.132 136.797 59.3757 136.802 60.6134L136.802 60.6203C136.808 61.9535 136.814 63.346 136.682 64.5921C136.568 65.6629 136.055 66.648 135.24 67.3659C134.572 67.9537 133.747 68.3232 132.873 68.4339L133.281 70.2636ZM133.112 70.4212C133.115 70.4353 133.117 70.4495 133.12 70.4636H140.728C143.259 67.293 143.846 61.5918 140.733 57.8899H139.76C138.876 57.8899 138.157 57.17 138.157 56.2851C138.157 55.4002 138.876 54.6803 139.76 54.6803H155.471C156.355 54.6803 157.074 55.4002 157.074 56.2851C157.074 57.17 156.355 57.8899 155.471 57.8899H154.497C151.384 61.5918 151.972 67.293 154.503 70.4636H156.68C156.901 70.4636 157.08 70.6433 157.08 70.8649C157.08 71.0865 156.901 71.2661 156.68 71.2661H111.255C111.033 71.2661 110.854 71.0864 110.854 70.8649C110.854 70.6433 111.033 70.4636 111.255 70.4636H116.106C116.108 70.4495 116.111 70.4353 116.114 70.4212L116.597 68.2575C116.53 68.2525 116.463 68.246 116.396 68.2378C115.554 68.135 114.76 67.7812 114.117 67.2158C113.339 66.5306 112.851 65.5913 112.742 64.5709C112.611 63.3358 112.617 61.9524 112.623 60.6145C112.634 58.1453 112.646 55.5923 111.72 54.6554C111.189 54.1777 110.854 53.485 110.854 52.7154C110.854 51.3376 111.927 50.2062 113.281 50.1145C114.928 48.3951 116.834 47.1311 118.951 46.3571C120.672 45.7273 122.577 45.408 124.613 45.408C126.648 45.408 128.553 45.7273 130.275 46.3571C132.391 47.1311 134.298 48.3951 135.945 50.1145C137.298 50.2062 138.372 51.3376 138.372 52.7154C138.372 53.485 138.037 54.1777 137.505 54.6553C136.58 55.5921 136.591 58.1451 136.602 60.6143C136.608 61.9522 136.614 63.3358 136.483 64.5709C136.374 65.5913 135.886 66.5306 135.108 67.2158C134.466 67.7812 133.671 68.135 132.829 68.2378C132.763 68.246 132.696 68.2525 132.629 68.2575L133.112 70.4212ZM142.919 68.1354C142.636 68.9004 142.276 69.6214 141.858 70.2636C141.814 70.3312 141.77 70.3979 141.724 70.4636H153.506C153.461 70.3979 153.417 70.3312 153.373 70.2636C152.955 69.6214 152.594 68.9004 152.312 68.1354C151.89 66.9915 151.638 65.7383 151.583 64.5112C151.524 63.1888 151.685 61.9105 152.061 60.7118C152.359 59.7634 152.786 58.8853 153.336 58.0899C153.383 58.0226 153.43 57.9559 153.478 57.8899H141.752C141.801 57.9559 141.848 58.0226 141.894 58.0899C142.444 58.8853 142.872 59.7634 143.169 60.7118C143.546 61.9105 143.707 63.1888 143.648 64.5112C143.593 65.7383 143.341 66.9915 142.919 68.1354ZM142.136 58.0899C142.661 58.8719 143.071 59.7297 143.36 60.6519C143.744 61.874 143.907 63.1756 143.848 64.5201C143.792 65.7677 143.536 67.0413 143.106 68.2047C142.835 68.94 142.493 69.6362 142.096 70.2636H153.135C152.738 69.6362 152.396 68.94 152.124 68.2047C151.695 67.0413 151.439 65.7677 151.383 64.5201C151.323 63.1756 151.487 61.874 151.871 60.6519C152.16 59.7297 152.57 58.8719 153.094 58.0899H142.136ZM136.975 54.0541C137.34 53.7237 137.57 53.2459 137.57 52.7154C137.57 51.7203 136.761 50.9107 135.767 50.9107C134.773 50.9107 133.964 51.7203 133.964 52.7154C133.964 53.7105 134.773 54.52 135.767 54.52C136.229 54.52 136.651 54.345 136.971 54.0578L136.975 54.0541ZM136.844 53.9031C137.167 53.6089 137.37 53.1854 137.37 52.7154C137.37 51.8306 136.651 51.1107 135.767 51.1107C134.884 51.1107 134.164 51.8306 134.164 52.7154C134.164 53.6002 134.884 54.32 135.767 54.32C136.178 54.32 136.553 54.1647 136.837 53.9091L136.841 53.9058L136.844 53.9031ZM136.837 53.9091C136.836 53.9095 136.838 53.9084 136.838 53.9077L136.837 53.9091ZM133.822 50.9828L133.826 50.9795C134.076 50.6993 134.386 50.4733 134.735 50.3219C134.802 50.2927 134.871 50.2662 134.941 50.2427C134.888 50.1907 134.833 50.1392 134.779 50.0882C132.038 47.5142 128.623 46.2104 124.613 46.2104C120.602 46.2104 117.187 47.5142 114.446 50.0882C114.392 50.1392 114.338 50.1907 114.284 50.2427C114.354 50.2662 114.423 50.2927 114.49 50.3219C114.84 50.4733 115.149 50.6993 115.4 50.9795L115.403 50.9828C116.555 52.1353 116.75 54.2223 116.957 56.4318C117.017 57.0705 117.077 57.7177 117.162 58.3454H132.063C132.148 57.7177 132.209 57.0705 132.269 56.4318C132.475 54.2223 132.671 52.1353 133.822 50.9828ZM131.888 58.1454C131.96 57.5768 132.015 56.9935 132.069 56.4131L132.07 56.4042C132.173 55.306 132.275 54.2208 132.496 53.2657C132.718 52.3082 133.067 51.456 133.681 50.8414C133.681 50.8405 133.682 50.8397 133.683 50.8389C133.932 50.5618 134.236 50.3343 134.578 50.1736C131.887 47.6766 128.544 46.4104 124.613 46.4104C120.681 46.4104 117.338 47.6766 114.648 50.1736C114.989 50.3343 115.293 50.5618 115.542 50.8389C115.543 50.8397 115.544 50.8406 115.545 50.8414C116.159 51.456 116.507 52.3082 116.729 53.2657C116.951 54.2209 117.052 55.3061 117.155 56.4044L117.156 56.4132C117.21 56.9935 117.265 57.5768 117.338 58.1454H131.888ZM112.388 53.9088C112.672 54.1646 113.047 54.32 113.458 54.32C114.342 54.32 115.061 53.6002 115.061 52.7154C115.061 51.8306 114.342 51.1107 113.458 51.1107C112.575 51.1107 111.855 51.8306 111.855 52.7154C111.855 53.1865 112.059 53.6108 112.384 53.9051L112.385 53.9061L112.388 53.9088ZM112.251 54.0542C111.885 53.7237 111.655 53.2459 111.655 52.7154C111.655 51.7203 112.464 50.9107 113.458 50.9107C114.452 50.9107 115.261 51.7203 115.261 52.7154C115.261 53.7105 114.452 54.52 113.458 54.52C112.996 54.52 112.574 54.3449 112.254 54.0574L112.251 54.0542ZM139.76 55.6827C139.429 55.6827 139.158 55.9529 139.158 56.2851C139.158 56.6172 139.429 56.8875 139.76 56.8875H155.471C155.802 56.8875 156.072 56.6173 156.072 56.2851C156.072 55.9529 155.802 55.6827 155.471 55.6827H139.76ZM131.131 70.2636H132.05L131.65 68.4693H130.175L131.131 70.2636ZM131.011 70.4636H132.3L131.81 68.2693H129.842L131.011 70.4636ZM128.813 68.4693H120.412L119.456 70.2636H129.769L128.813 68.4693ZM130.102 70.4636H119.123L120.292 68.2693H128.933L130.102 70.4636ZM131.937 59.1478H117.289C117.301 59.2149 117.314 59.2816 117.327 59.3478C117.446 59.9445 117.602 60.5066 117.819 61.0064C118.116 61.6897 118.806 62.1313 119.577 62.1313H129.648C130.419 62.1313 131.109 61.6897 131.406 61.0064C131.624 60.5066 131.78 59.9445 131.898 59.3478C131.912 59.2816 131.924 59.2149 131.937 59.1478ZM131.694 59.3478H117.531C117.647 59.9209 117.797 60.4548 118.002 60.9267C118.266 61.5337 118.882 61.9313 119.577 61.9313H129.648C130.343 61.9313 130.959 61.5337 131.223 60.9267C131.428 60.4547 131.578 59.9209 131.694 59.3478ZM113.625 60.6188C113.619 61.9377 113.613 63.2869 113.738 64.4648C113.908 66.0596 115.269 67.2669 116.91 67.2669H117.098L117.099 67.2669L117.102 67.2669H120.047L120.051 67.2669L120.054 67.2669H129.171L129.179 67.267L132.315 67.2669C133.957 67.2669 135.317 66.0596 135.487 64.4648C135.612 63.2869 135.606 61.9377 135.601 60.6188L135.601 60.6161C135.596 59.6011 135.592 58.5987 135.647 57.6804C135.694 56.8907 135.786 56.1532 135.964 55.5156C135.899 55.5201 135.833 55.5224 135.767 55.5224C134.841 55.5224 134.019 55.0707 133.508 54.3766C133.405 55.045 133.336 55.7734 133.266 56.5252L133.264 56.5457C133.108 58.2166 132.942 59.9859 132.325 61.4061C131.868 62.4578 130.816 63.1337 129.648 63.1337H119.577C118.41 63.1337 117.357 62.4578 116.9 61.4061C116.283 59.9858 116.118 58.2163 115.961 56.5453L115.96 56.5253C115.889 55.7734 115.821 55.045 115.718 54.3766C115.207 55.0707 114.385 55.5224 113.458 55.5224C113.392 55.5224 113.327 55.5201 113.262 55.5156C113.44 56.1532 113.531 56.8907 113.579 57.6804C113.634 58.5987 113.629 59.6011 113.625 60.6162L113.625 60.6188ZM113.047 55.4921C113.442 56.833 113.433 58.688 113.425 60.6179C113.419 61.934 113.413 63.295 113.54 64.486C113.72 66.1854 115.169 67.4669 116.91 67.4669H132.315C134.056 67.4669 135.505 66.1854 135.686 64.486C135.813 63.2952 135.806 61.9346 135.801 60.6187C135.792 58.6888 135.784 56.833 136.179 55.4921C136.2 55.4192 136.223 55.3478 136.247 55.278C136.174 55.2916 136.1 55.3022 136.025 55.3096C135.94 55.3181 135.854 55.3224 135.767 55.3224C134.835 55.3224 134.015 54.8294 133.555 54.0901C133.499 54.0003 133.449 53.9069 133.404 53.8103C133.383 53.9149 133.364 54.0214 133.345 54.1295C133.22 54.8648 133.144 55.6764 133.067 56.5066C132.909 58.1923 132.746 59.9355 132.142 61.3264C131.717 62.3028 130.739 62.9337 129.648 62.9337H119.577C118.487 62.9337 117.508 62.3028 117.084 61.3264C116.479 59.9355 116.316 58.1924 116.159 56.5066C116.081 55.6764 116.005 54.8648 115.88 54.1295C115.862 54.0214 115.842 53.9149 115.822 53.8103C115.777 53.9069 115.726 54.0003 115.67 54.0901C115.21 54.8294 114.391 55.3224 113.458 55.3224C113.371 55.3224 113.285 55.3181 113.2 55.3096C113.125 55.3022 113.052 55.2916 112.979 55.278C113.003 55.3478 113.025 55.4192 113.047 55.4921ZM117.576 68.4693L117.175 70.2636H118.094L119.051 68.4693H117.576ZM118.214 70.4636H116.926L117.416 68.2693H119.384L118.214 70.4636ZM139.76 55.4827C139.318 55.4827 138.958 55.8426 138.958 56.2851C138.958 56.7275 139.318 57.0875 139.76 57.0875H155.471C155.913 57.0875 156.272 56.7275 156.272 56.2851C156.272 55.8426 155.913 55.4827 155.471 55.4827H139.76Z" fill="#325837"/>
<path d="M111.237 34.7245C111.016 34.7245 110.836 34.9041 110.836 35.1257C110.836 35.3472 111.016 35.5269 111.237 35.5269H128.673V35.6585C128.673 36.3222 129.213 36.8622 129.876 36.8622H131.72L132.116 39.1604C132.193 39.6079 132.578 39.9328 133.032 39.9328H134.829C135.283 39.9328 135.668 39.6079 135.745 39.1604L136.141 36.8622H137.985C138.648 36.8622 139.188 36.3222 139.188 35.6585V35.5269H156.649C156.871 35.5269 157.05 35.3472 157.05 35.1257C157.05 34.9041 156.871 34.7245 156.649 34.7245H139.188V32.5847H156.649C156.871 32.5847 157.05 32.4051 157.05 32.1835C157.05 31.9619 156.871 31.7823 156.649 31.7823H139.188V31.6506C139.188 30.9869 138.648 30.447 137.985 30.447H134.331V27.377C136.214 28.0133 138.313 28.2395 140.458 28.2395C143.411 28.2395 146.45 27.8106 149.124 27.4332C152.396 26.9714 155.222 26.5726 156.478 27.1673C156.678 27.262 156.917 27.1764 157.012 26.9761C157.106 26.7757 157.021 26.5366 156.821 26.4418C155.347 25.7445 152.552 26.1391 149.012 26.6386C144.389 27.2911 138.657 28.0997 134.331 26.5266V25.4266C134.331 25.205 134.152 25.0254 133.931 25.0254C133.709 25.0254 133.53 25.205 133.53 25.4266V26.7956C133.53 26.7975 133.53 26.7994 133.53 26.8013V30.447H129.876C129.213 30.447 128.673 30.9869 128.673 31.6506V31.7823H111.237C111.016 31.7823 110.836 31.9619 110.836 32.1835C110.836 32.4051 111.016 32.5847 111.237 32.5847H128.673V34.7244H111.237V34.7245ZM134.955 39.0241C134.944 39.0857 134.891 39.1304 134.829 39.1304H133.032C132.97 39.1304 132.917 39.0857 132.906 39.0241L132.534 36.8622H135.327L134.955 39.0241ZM129.876 31.2494H137.985C138.206 31.2494 138.386 31.4294 138.386 31.6506V35.6585C138.386 35.8798 138.206 36.0597 137.985 36.0597H129.876C129.655 36.0597 129.475 35.8798 129.475 35.6585V35.1294C129.475 35.1281 129.475 35.1269 129.475 35.1257C129.475 35.1244 129.475 35.1232 129.475 35.1219V31.6506C129.475 31.4294 129.655 31.2494 129.876 31.2494Z" fill="#325837"/>
<path fill-rule="evenodd" clip-rule="evenodd" d="M133.53 25.4264C133.53 25.2048 133.709 25.0252 133.93 25.0252C134.152 25.0252 134.331 25.2048 134.331 25.4264V26.5264C138.657 28.0995 144.389 27.2909 149.012 26.6384C152.551 26.1389 155.347 25.7443 156.821 26.4417C157.021 26.5364 157.106 26.7755 157.012 26.9759C156.917 27.1762 156.678 27.2618 156.478 27.1671C155.221 26.5724 152.396 26.9712 149.124 27.433C146.45 27.8104 143.41 28.2393 140.457 28.2393C138.388 28.2393 136.362 28.0287 134.531 27.4426C134.464 27.4211 134.398 27.3992 134.331 27.3768V30.4468H137.985C138.648 30.4468 139.187 30.9868 139.187 31.6504V31.7821H156.649C156.871 31.7821 157.05 31.9617 157.05 32.1833C157.05 32.4049 156.871 32.5845 156.649 32.5845H139.187V34.7243H156.649C156.871 34.7243 157.05 34.9039 157.05 35.1255C157.05 35.347 156.871 35.5267 156.649 35.5267H139.187V35.6583C139.187 36.322 138.648 36.862 137.985 36.862H136.14L135.745 39.1602C135.668 39.6078 135.282 39.9326 134.829 39.9326H133.032C132.578 39.9326 132.193 39.6077 132.116 39.1602L131.72 36.862H129.876C129.213 36.862 128.673 36.322 128.673 35.6583V35.5267H111.237C111.016 35.5267 110.836 35.347 110.836 35.1255C110.836 34.9039 111.016 34.7243 111.237 34.7243L128.673 34.7242V32.5845H111.237C111.016 32.5845 110.836 32.4049 110.836 32.1833C110.836 31.9617 111.016 31.7821 111.237 31.7821H128.673V31.6504C128.673 30.9868 129.213 30.4468 129.876 30.4468H133.53V25.4264ZM133.33 30.2468V26.8012L133.33 26.7999L133.33 25.4264C133.33 25.0946 133.598 24.8252 133.93 24.8252C134.262 24.8252 134.531 25.0946 134.531 25.4264V26.3854C136.63 27.1202 139.065 27.3021 141.553 27.2171C144.093 27.1305 146.671 26.7669 148.984 26.4404L148.991 26.4393C150.755 26.1904 152.346 25.9659 153.68 25.8915C155.009 25.8174 156.121 25.8891 156.906 26.2609C157.206 26.4029 157.334 26.7612 157.192 27.0613C157.051 27.3614 156.692 27.4899 156.392 27.3479C156.109 27.214 155.725 27.1303 155.243 27.0922C154.764 27.0542 154.201 27.0622 153.57 27.1034C152.306 27.1859 150.79 27.3998 149.152 27.631L149.147 27.6318C146.476 28.0087 143.425 28.4393 140.457 28.4393C138.399 28.4393 136.372 28.2323 134.531 27.6524V30.2468H137.985C138.736 30.2468 139.35 30.8398 139.386 31.5821H156.649C156.981 31.5821 157.25 31.8515 157.25 32.1833C157.25 32.5152 156.981 32.7845 156.649 32.7845H139.387V34.5243H156.649C156.981 34.5243 157.25 34.7936 157.25 35.1255C157.25 35.4573 156.981 35.7267 156.649 35.7267H139.386C139.35 36.469 138.736 37.062 137.985 37.062H136.309L135.942 39.1941C135.848 39.7375 135.38 40.1326 134.829 40.1326H133.032C132.481 40.1326 132.012 39.7375 131.919 39.1941L131.552 37.062H129.876C129.125 37.062 128.511 36.469 128.475 35.7267H111.237C110.905 35.7267 110.636 35.4573 110.636 35.1255C110.636 34.8637 110.803 34.6408 111.037 34.5584V34.5242H128.473V32.7845H111.237C110.905 32.7845 110.636 32.5152 110.636 32.1833C110.636 31.8515 110.905 31.5821 111.237 31.5821H128.475C128.511 30.8398 129.125 30.2468 129.876 30.2468H133.33ZM134.768 38.9302L135.09 37.062H132.771L133.093 38.9302H134.768ZM132.534 36.862H135.327L134.955 39.0239C134.944 39.0855 134.891 39.1302 134.829 39.1302H133.032C132.969 39.1302 132.917 39.0855 132.906 39.0239L132.534 36.862ZM137.985 31.4492H129.876C129.765 31.4492 129.675 31.5395 129.675 31.6504V35.1209L129.675 35.1255L129.675 35.1292V35.6583C129.675 35.7693 129.765 35.8596 129.876 35.8596H137.985C138.095 35.8596 138.186 35.7693 138.186 35.6583V31.6504C138.186 31.5395 138.095 31.4492 137.985 31.4492ZM129.475 35.1292V35.6583C129.475 35.8796 129.655 36.0596 129.876 36.0596H137.985C138.206 36.0596 138.386 35.8796 138.386 35.6583V31.6504C138.386 31.4292 138.206 31.2492 137.985 31.2492H129.876C129.655 31.2492 129.475 31.4292 129.475 31.6504V35.1217L129.475 35.1255L129.475 35.1292Z" fill="#325837"/>
<path d="M121.249 54.4245C121.523 54.4245 121.744 54.2027 121.744 53.929C121.744 53.6554 121.523 53.4336 121.249 53.4336C120.976 53.4336 120.754 53.6554 120.754 53.929C120.754 54.2027 120.976 54.4245 121.249 54.4245Z" fill="#325837"/>
<path fill-rule="evenodd" clip-rule="evenodd" d="M121.249 54.2245C121.412 54.2245 121.544 54.0924 121.544 53.929C121.544 53.7657 121.412 53.6336 121.249 53.6336C121.087 53.6336 120.954 53.7657 120.954 53.929C120.954 54.0924 121.087 54.2245 121.249 54.2245ZM121.744 53.929C121.744 54.2027 121.523 54.4245 121.249 54.4245C120.976 54.4245 120.754 54.2027 120.754 53.929C120.754 53.6554 120.976 53.4336 121.249 53.4336C121.523 53.4336 121.744 53.6554 121.744 53.929Z" fill="#325837"/>
<path d="M127.521 54.4245C127.794 54.4245 128.016 54.2027 128.016 53.929C128.016 53.6554 127.794 53.4336 127.521 53.4336C127.247 53.4336 127.026 53.6554 127.026 53.929C127.026 54.2027 127.247 54.4245 127.521 54.4245Z" fill="#325837"/>
<path fill-rule="evenodd" clip-rule="evenodd" d="M127.521 54.2245C127.684 54.2245 127.816 54.0924 127.816 53.929C127.816 53.7657 127.684 53.6336 127.521 53.6336C127.358 53.6336 127.226 53.7657 127.226 53.929C127.226 54.0924 127.358 54.2245 127.521 54.2245ZM128.016 53.929C128.016 54.2027 127.794 54.4245 127.521 54.4245C127.247 54.4245 127.026 54.2027 127.026 53.929C127.026 53.6554 127.247 53.4336 127.521 53.4336C127.794 53.4336 128.016 53.6554 128.016 53.929Z" fill="#325837"/>
</g>
<path d="M19.104 61.6V30.4L21.84 33.232H12V28H25.344V61.6H19.104Z" fill="#D2DDC7"/>
<path d="M74 45.75C74.4142 45.75 74.75 45.4142 74.75 45C74.75 44.5858 74.4142 44.25 74 44.25L74 45.75ZM49 45C49 42.7909 47.2091 41 45 41C42.7909 41 41 42.7909 41 45C41 47.2091 42.7909 49 45 49C47.2091 49 49 47.2091 49 45ZM74 44.25L45 44.25L45 45.75L74 45.75L74 44.25Z" fill="#BACC91"/>
<circle opacity="0.4" cx="45" cy="29" r="3" transform="rotate(90 45 29)" fill="#BACC91"/>
<circle opacity="0.4" cx="45" cy="61" r="3" transform="rotate(90 45 61)" fill="#BACC91"/>
</svg>
