<svg width="90" height="180" viewBox="0 0 90 180" fill="none" xmlns="http://www.w3.org/2000/svg">
<mask id="mask0_1093_1317" style="mask-type:alpha" maskUnits="userSpaceOnUse" x="0" y="0" width="90" height="90">
<rect width="90" height="90" fill="#C4C4C4"/>
</mask>
<g mask="url(#mask0_1093_1317)">
<path fill-rule="evenodd" clip-rule="evenodd" d="M50.9601 5.80417C60.9242 7.42875 67.4056 16.1233 73.7011 24.0156C80.5349 32.5826 88.8214 41.3004 87.9914 52.2276C87.1129 63.7937 82.1711 73.9127 72.3979 80.1601C63.0583 86.1302 48.7275 85.8008 37.738 84.351C26.1962 82.8284 13.444 81.1976 6.57519 71.7982C-0.340868 62.3342 0.485108 49.2825 3.92116 38.0758C6.94363 28.2179 15.2217 21.7003 23.7239 15.8672C32.0206 10.1751 41.0297 4.18509 50.9601 5.80417Z" fill="#EDF4DD"/>
<mask id="path-3-outside-1_1093_1317" maskUnits="userSpaceOnUse" x="20.9512" y="23.1465" width="48" height="48" fill="black">
<rect fill="white" x="20.9512" y="23.1465" width="48" height="48"/>
<path fill-rule="evenodd" clip-rule="evenodd" d="M67.5072 27.5209L64.8224 24.8424C64.6021 24.6218 64.3404 24.4468 64.0524 24.3274C63.7643 24.208 63.4556 24.1465 63.1437 24.1465C62.8319 24.1465 62.5232 24.208 62.2351 24.3274C61.9471 24.4468 61.6854 24.6218 61.4651 24.8424L54.1437 32.1632V30.1213C54.1453 29.8531 54.093 29.5872 53.9899 29.3396C53.8867 29.092 53.7347 28.8677 53.5431 28.68C53.3545 28.4894 53.13 28.3382 52.8826 28.2351C52.6351 28.132 52.3697 28.0791 52.1016 28.0794H23.9932C23.4521 28.081 22.9336 28.2967 22.551 28.6792C22.1684 29.0618 21.9528 29.5803 21.9512 30.1213V66.0045C21.9528 67.1667 22.4152 68.2809 23.2371 69.1027C24.059 69.9245 25.1733 70.3869 26.3356 70.3885H57.5671H57.9935C59.0942 70.2514 60.106 69.7141 60.836 68.879C61.5659 68.0439 61.963 66.9694 61.9515 65.8603V60.5394C61.9532 60.2712 61.9009 60.0053 61.7977 59.7577C61.6946 59.5101 61.5426 59.2858 61.3509 59.0981C61.1624 58.9075 60.9379 58.7563 60.6905 58.6532C60.443 58.5501 60.1776 58.4972 59.9095 58.4975H54.1437V44.2644L67.5072 30.884C67.9473 30.435 68.1939 29.8313 68.1939 29.2025C68.1939 28.5737 67.9473 27.97 67.5072 27.5209ZM57.6212 30.0432L59.6152 32.0431L46.1676 45.4955L44.1676 43.4957L57.6212 30.0432ZM31.0203 61.6204C30.8788 61.6214 30.7386 61.5943 30.6076 61.5407C30.4767 61.4871 30.3577 61.4081 30.2576 61.3081C30.1566 61.2072 30.0765 61.0873 30.0219 60.9554C29.9673 60.8235 29.9392 60.6822 29.9392 60.5394V54.2937C29.9372 54.1682 29.8878 54.0481 29.8011 53.9573C29.7102 53.8665 29.5873 53.8147 29.4587 53.8132C28.937 53.8129 28.4271 53.6582 27.9931 53.3686C27.5592 53.079 27.2207 52.6674 27.0203 52.1857C26.8695 51.8251 26.8008 51.4354 26.8192 51.045C26.8376 50.6546 26.9425 50.2731 27.1265 49.9282C27.3104 49.5833 27.5688 49.2836 27.8828 49.0509C28.1969 48.8181 28.5587 48.6581 28.9422 48.5824C29.4551 48.4808 29.9865 48.5332 30.4696 48.733C30.9527 48.9329 31.3658 49.2712 31.657 49.7054C31.9465 50.1393 32.1012 50.6492 32.1014 51.1708V56.6358C32.0992 56.8014 32.1299 56.9658 32.1917 57.1194C32.2536 57.273 32.3454 57.4128 32.4618 57.5306C32.6985 57.7648 33.0178 57.8964 33.3507 57.897H42.7321C43.0667 57.897 43.3875 57.7641 43.624 57.5276C43.8605 57.2911 43.9934 56.9703 43.9934 56.6358V51.1708C43.9935 51.0259 44.0055 50.8813 44.0295 50.7384L44.0655 50.5462L48.6121 49.4051L48.7322 49.5613C48.96 49.8513 49.1219 50.1873 49.2067 50.5462C49.351 51.1326 49.2895 51.7508 49.0326 52.2974C48.7757 52.844 48.3389 53.2858 47.7953 53.549C47.4356 53.7227 47.0415 53.813 46.6421 53.8132C46.5138 53.816 46.3914 53.8675 46.2997 53.9573C46.2557 54.0016 46.2209 54.054 46.1972 54.1117C46.1735 54.1695 46.1614 54.2313 46.1616 54.2937V60.5394C46.1616 60.6822 46.1335 60.8235 46.0789 60.9554C46.0243 61.0873 45.9442 61.2072 45.8433 61.3081C45.7424 61.4088 45.6225 61.4883 45.4904 61.5419C45.3584 61.5955 45.217 61.6222 45.0745 61.6204H31.0203ZM44.594 62.5813V64.7433H40.8703V62.5813H44.594ZM35.2246 62.5813V64.7433H31.5008V62.5813H35.2246ZM41.5069 50.0237C41.5581 50.2138 41.6574 50.3875 41.7952 50.5282C41.9016 50.6402 42.0305 50.7282 42.1736 50.7864C42.3158 50.8397 42.4662 50.8681 42.618 50.8705H42.7081H43.0685L43.0324 51.2248V53.8132H33.0624V51.1708C33.0612 50.3411 32.7737 49.5373 32.2484 48.8951C31.7232 48.2528 30.9924 47.8114 30.1795 47.6455L29.9392 47.5975V47.2672C29.9424 45.325 30.7154 43.4632 32.0889 42.0899C33.4624 40.7165 35.3243 39.9436 37.2666 39.9404H38.8282C40.709 39.9459 42.5156 40.6749 43.8733 41.9763L44.0955 42.1865L43.3808 42.9071C43.1558 43.1327 42.996 43.4149 42.9183 43.7239L41.4889 49.4412C41.447 49.6339 41.4532 49.834 41.5069 50.0237ZM43.0324 54.7741V56.9361H33.0624V54.7741H43.0324ZM42.3658 49.9697L43.7472 44.4205L47.9034 48.5824L42.3658 49.9697ZM26.3356 69.4276C25.4276 69.4276 24.5569 69.067 23.9148 68.425C23.2728 67.7831 22.9121 66.9124 22.9121 66.0045V30.1213C22.9137 29.8351 23.0281 29.5611 23.2305 29.3587C23.4329 29.1563 23.707 29.0419 23.9932 29.0403H52.1016C52.3878 29.0419 52.6619 29.1563 52.8643 29.3587C53.0667 29.5611 53.1811 29.8351 53.1827 30.1213V33.1241L44.7742 41.5319L44.564 41.3277C43.0288 39.8311 40.9723 38.9892 38.8282 38.9795H37.2666C35.0699 38.9843 32.9645 39.859 31.4111 41.4122C29.8578 42.9654 28.983 45.0706 28.9783 47.2672V47.5975L28.6659 47.6575C27.9996 47.803 27.3888 48.1365 26.9062 48.6184C26.4341 49.0876 26.105 49.6811 25.9572 50.33C25.834 50.8635 25.834 51.418 25.9572 51.9515C26.0723 52.4875 26.3109 52.9892 26.6539 53.4168C27.1803 54.0777 27.9223 54.5326 28.75 54.702L28.9903 54.7501V60.5394C28.9863 60.9697 29.1188 61.3902 29.3687 61.7405C29.6117 62.0836 29.9562 62.342 30.3537 62.4792L30.5519 62.5513V64.443C30.5519 64.7775 30.6847 65.0983 30.9213 65.3348C31.1578 65.5713 31.4786 65.7042 31.8131 65.7042H34.9363C35.2708 65.7042 35.5916 65.5713 35.8281 65.3348C36.0647 65.0983 36.1976 64.7775 36.1976 64.443V62.5813H39.9213V64.443C39.9175 64.6078 39.9463 64.7717 40.0061 64.9253C40.0658 65.0788 40.1554 65.2191 40.2697 65.3379C40.5063 65.572 40.8256 65.7036 41.1586 65.7042H44.2817C44.4478 65.7058 44.6125 65.6743 44.7663 65.6115C44.92 65.5487 45.0597 65.4558 45.1771 65.3384C45.2946 65.221 45.3874 65.0813 45.4502 64.9276C45.5131 64.7738 45.5446 64.6091 45.543 64.443V62.5273L45.7412 62.4552C46.14 62.3166 46.4861 62.0581 46.7323 61.7151C46.9786 61.3722 47.1128 60.9616 47.1166 60.5394V54.7501L47.3568 54.702C48.1861 54.5365 48.9293 54.0809 49.4529 53.4168C49.7957 52.9883 50.0361 52.4871 50.1556 51.9515C50.2757 51.4197 50.2757 50.8678 50.1556 50.336C50.0528 49.9041 49.8672 49.4962 49.6091 49.1349L49.4649 48.9307L53.1947 45.2013V66.0045C53.1938 67.0837 53.5917 68.1253 54.3118 68.9292L54.7563 69.4276H26.3356ZM59.9095 59.4584C60.1957 59.46 60.4698 59.5744 60.6722 59.7768C60.8746 59.9792 60.989 60.2532 60.9906 60.5394V65.8363C61.0119 66.7093 60.7106 67.5594 60.1444 68.2242C59.5782 68.889 58.7867 69.3217 57.9215 69.4397H57.5551C57.1917 69.4392 56.8308 69.3804 56.486 69.2655C55.8039 69.0347 55.2112 68.596 54.791 68.0112C54.3709 67.4263 54.1446 66.7246 54.1437 66.0045V59.4584H59.9095ZM48.8463 48.174L46.8763 46.1742L60.3299 32.7217L62.3299 34.7276L48.8463 48.174ZM62.9786 34.055L58.2878 29.3646L60.45 27.2026L65.1348 31.8809L62.9786 34.055ZM66.8225 30.2174L65.8255 31.2143L61.1407 26.536L62.1437 25.5331C62.2761 25.4014 62.4333 25.2973 62.6062 25.2268C62.7753 25.1553 62.9571 25.1185 63.1407 25.1187C63.3263 25.1185 63.5101 25.1553 63.6813 25.2268C63.8515 25.2989 64.0065 25.4029 64.1377 25.5331L66.8165 28.2116C67.0813 28.4782 67.2299 28.8387 67.2299 29.2145C67.2299 29.5903 67.0813 29.9508 66.8165 30.2174H66.8225ZM35.3157 48.77C35.5644 48.77 35.7661 48.5683 35.7661 48.3196C35.7661 48.0708 35.5644 47.8691 35.3157 47.8691C35.0669 47.8691 34.8652 48.0708 34.8652 48.3196C34.8652 48.5683 35.0669 48.77 35.3157 48.77ZM41.4711 48.3196C41.4711 48.5683 41.2695 48.77 41.0207 48.77C40.772 48.77 40.5703 48.5683 40.5703 48.3196C40.5703 48.0708 40.772 47.8691 41.0207 47.8691C41.2695 47.8691 41.4711 48.0708 41.4711 48.3196Z"/>
</mask>
<path fill-rule="evenodd" clip-rule="evenodd" d="M67.5072 27.5209L64.8224 24.8424C64.6021 24.6218 64.3404 24.4468 64.0524 24.3274C63.7643 24.208 63.4556 24.1465 63.1437 24.1465C62.8319 24.1465 62.5232 24.208 62.2351 24.3274C61.9471 24.4468 61.6854 24.6218 61.4651 24.8424L54.1437 32.1632V30.1213C54.1453 29.8531 54.093 29.5872 53.9899 29.3396C53.8867 29.092 53.7347 28.8677 53.5431 28.68C53.3545 28.4894 53.13 28.3382 52.8826 28.2351C52.6351 28.132 52.3697 28.0791 52.1016 28.0794H23.9932C23.4521 28.081 22.9336 28.2967 22.551 28.6792C22.1684 29.0618 21.9528 29.5803 21.9512 30.1213V66.0045C21.9528 67.1667 22.4152 68.2809 23.2371 69.1027C24.059 69.9245 25.1733 70.3869 26.3356 70.3885H57.5671H57.9935C59.0942 70.2514 60.106 69.7141 60.836 68.879C61.5659 68.0439 61.963 66.9694 61.9515 65.8603V60.5394C61.9532 60.2712 61.9009 60.0053 61.7977 59.7577C61.6946 59.5101 61.5426 59.2858 61.3509 59.0981C61.1624 58.9075 60.9379 58.7563 60.6905 58.6532C60.443 58.5501 60.1776 58.4972 59.9095 58.4975H54.1437V44.2644L67.5072 30.884C67.9473 30.435 68.1939 29.8313 68.1939 29.2025C68.1939 28.5737 67.9473 27.97 67.5072 27.5209ZM57.6212 30.0432L59.6152 32.0431L46.1676 45.4955L44.1676 43.4957L57.6212 30.0432ZM31.0203 61.6204C30.8788 61.6214 30.7386 61.5943 30.6076 61.5407C30.4767 61.4871 30.3577 61.4081 30.2576 61.3081C30.1566 61.2072 30.0765 61.0873 30.0219 60.9554C29.9673 60.8235 29.9392 60.6822 29.9392 60.5394V54.2937C29.9372 54.1682 29.8878 54.0481 29.8011 53.9573C29.7102 53.8665 29.5873 53.8147 29.4587 53.8132C28.937 53.8129 28.4271 53.6582 27.9931 53.3686C27.5592 53.079 27.2207 52.6674 27.0203 52.1857C26.8695 51.8251 26.8008 51.4354 26.8192 51.045C26.8376 50.6546 26.9425 50.2731 27.1265 49.9282C27.3104 49.5833 27.5688 49.2836 27.8828 49.0509C28.1969 48.8181 28.5587 48.6581 28.9422 48.5824C29.4551 48.4808 29.9865 48.5332 30.4696 48.733C30.9527 48.9329 31.3658 49.2712 31.657 49.7054C31.9465 50.1393 32.1012 50.6492 32.1014 51.1708V56.6358C32.0992 56.8014 32.1299 56.9658 32.1917 57.1194C32.2536 57.273 32.3454 57.4128 32.4618 57.5306C32.6985 57.7648 33.0178 57.8964 33.3507 57.897H42.7321C43.0667 57.897 43.3875 57.7641 43.624 57.5276C43.8605 57.2911 43.9934 56.9703 43.9934 56.6358V51.1708C43.9935 51.0259 44.0055 50.8813 44.0295 50.7384L44.0655 50.5462L48.6121 49.4051L48.7322 49.5613C48.96 49.8513 49.1219 50.1873 49.2067 50.5462C49.351 51.1326 49.2895 51.7508 49.0326 52.2974C48.7757 52.844 48.3389 53.2858 47.7953 53.549C47.4356 53.7227 47.0415 53.813 46.6421 53.8132C46.5138 53.816 46.3914 53.8675 46.2997 53.9573C46.2557 54.0016 46.2209 54.054 46.1972 54.1117C46.1735 54.1695 46.1614 54.2313 46.1616 54.2937V60.5394C46.1616 60.6822 46.1335 60.8235 46.0789 60.9554C46.0243 61.0873 45.9442 61.2072 45.8433 61.3081C45.7424 61.4088 45.6225 61.4883 45.4904 61.5419C45.3584 61.5955 45.217 61.6222 45.0745 61.6204H31.0203ZM44.594 62.5813V64.7433H40.8703V62.5813H44.594ZM35.2246 62.5813V64.7433H31.5008V62.5813H35.2246ZM41.5069 50.0237C41.5581 50.2138 41.6574 50.3875 41.7952 50.5282C41.9016 50.6402 42.0305 50.7282 42.1736 50.7864C42.3158 50.8397 42.4662 50.8681 42.618 50.8705H42.7081H43.0685L43.0324 51.2248V53.8132H33.0624V51.1708C33.0612 50.3411 32.7737 49.5373 32.2484 48.8951C31.7232 48.2528 30.9924 47.8114 30.1795 47.6455L29.9392 47.5975V47.2672C29.9424 45.325 30.7154 43.4632 32.0889 42.0899C33.4624 40.7165 35.3243 39.9436 37.2666 39.9404H38.8282C40.709 39.9459 42.5156 40.6749 43.8733 41.9763L44.0955 42.1865L43.3808 42.9071C43.1558 43.1327 42.996 43.4149 42.9183 43.7239L41.4889 49.4412C41.447 49.6339 41.4532 49.834 41.5069 50.0237ZM43.0324 54.7741V56.9361H33.0624V54.7741H43.0324ZM42.3658 49.9697L43.7472 44.4205L47.9034 48.5824L42.3658 49.9697ZM26.3356 69.4276C25.4276 69.4276 24.5569 69.067 23.9148 68.425C23.2728 67.7831 22.9121 66.9124 22.9121 66.0045V30.1213C22.9137 29.8351 23.0281 29.5611 23.2305 29.3587C23.4329 29.1563 23.707 29.0419 23.9932 29.0403H52.1016C52.3878 29.0419 52.6619 29.1563 52.8643 29.3587C53.0667 29.5611 53.1811 29.8351 53.1827 30.1213V33.1241L44.7742 41.5319L44.564 41.3277C43.0288 39.8311 40.9723 38.9892 38.8282 38.9795H37.2666C35.0699 38.9843 32.9645 39.859 31.4111 41.4122C29.8578 42.9654 28.983 45.0706 28.9783 47.2672V47.5975L28.6659 47.6575C27.9996 47.803 27.3888 48.1365 26.9062 48.6184C26.4341 49.0876 26.105 49.6811 25.9572 50.33C25.834 50.8635 25.834 51.418 25.9572 51.9515C26.0723 52.4875 26.3109 52.9892 26.6539 53.4168C27.1803 54.0777 27.9223 54.5326 28.75 54.702L28.9903 54.7501V60.5394C28.9863 60.9697 29.1188 61.3902 29.3687 61.7405C29.6117 62.0836 29.9562 62.342 30.3537 62.4792L30.5519 62.5513V64.443C30.5519 64.7775 30.6847 65.0983 30.9213 65.3348C31.1578 65.5713 31.4786 65.7042 31.8131 65.7042H34.9363C35.2708 65.7042 35.5916 65.5713 35.8281 65.3348C36.0647 65.0983 36.1976 64.7775 36.1976 64.443V62.5813H39.9213V64.443C39.9175 64.6078 39.9463 64.7717 40.0061 64.9253C40.0658 65.0788 40.1554 65.2191 40.2697 65.3379C40.5063 65.572 40.8256 65.7036 41.1586 65.7042H44.2817C44.4478 65.7058 44.6125 65.6743 44.7663 65.6115C44.92 65.5487 45.0597 65.4558 45.1771 65.3384C45.2946 65.221 45.3874 65.0813 45.4502 64.9276C45.5131 64.7738 45.5446 64.6091 45.543 64.443V62.5273L45.7412 62.4552C46.14 62.3166 46.4861 62.0581 46.7323 61.7151C46.9786 61.3722 47.1128 60.9616 47.1166 60.5394V54.7501L47.3568 54.702C48.1861 54.5365 48.9293 54.0809 49.4529 53.4168C49.7957 52.9883 50.0361 52.4871 50.1556 51.9515C50.2757 51.4197 50.2757 50.8678 50.1556 50.336C50.0528 49.9041 49.8672 49.4962 49.6091 49.1349L49.4649 48.9307L53.1947 45.2013V66.0045C53.1938 67.0837 53.5917 68.1253 54.3118 68.9292L54.7563 69.4276H26.3356ZM59.9095 59.4584C60.1957 59.46 60.4698 59.5744 60.6722 59.7768C60.8746 59.9792 60.989 60.2532 60.9906 60.5394V65.8363C61.0119 66.7093 60.7106 67.5594 60.1444 68.2242C59.5782 68.889 58.7867 69.3217 57.9215 69.4397H57.5551C57.1917 69.4392 56.8308 69.3804 56.486 69.2655C55.8039 69.0347 55.2112 68.596 54.791 68.0112C54.3709 67.4263 54.1446 66.7246 54.1437 66.0045V59.4584H59.9095ZM48.8463 48.174L46.8763 46.1742L60.3299 32.7217L62.3299 34.7276L48.8463 48.174ZM62.9786 34.055L58.2878 29.3646L60.45 27.2026L65.1348 31.8809L62.9786 34.055ZM66.8225 30.2174L65.8255 31.2143L61.1407 26.536L62.1437 25.5331C62.2761 25.4014 62.4333 25.2973 62.6062 25.2268C62.7753 25.1553 62.9571 25.1185 63.1407 25.1187C63.3263 25.1185 63.5101 25.1553 63.6813 25.2268C63.8515 25.2989 64.0065 25.4029 64.1377 25.5331L66.8165 28.2116C67.0813 28.4782 67.2299 28.8387 67.2299 29.2145C67.2299 29.5903 67.0813 29.9508 66.8165 30.2174H66.8225ZM35.3157 48.77C35.5644 48.77 35.7661 48.5683 35.7661 48.3196C35.7661 48.0708 35.5644 47.8691 35.3157 47.8691C35.0669 47.8691 34.8652 48.0708 34.8652 48.3196C34.8652 48.5683 35.0669 48.77 35.3157 48.77ZM41.4711 48.3196C41.4711 48.5683 41.2695 48.77 41.0207 48.77C40.772 48.77 40.5703 48.5683 40.5703 48.3196C40.5703 48.0708 40.772 47.8691 41.0207 47.8691C41.2695 47.8691 41.4711 48.0708 41.4711 48.3196Z" fill="#325837"/>
<path d="M64.8224 24.8424L64.6809 24.9838L64.6812 24.984L64.8224 24.8424ZM67.5072 27.5209L67.65 27.3809L67.6484 27.3793L67.5072 27.5209ZM64.0524 24.3274L64.129 24.1426L64.129 24.1426L64.0524 24.3274ZM62.2351 24.3274L62.3117 24.5121L62.3117 24.5121L62.2351 24.3274ZM61.4651 24.8424L61.6065 24.9839L61.6066 24.9838L61.4651 24.8424ZM54.1437 32.1632H53.9437V32.646L54.2851 32.3046L54.1437 32.1632ZM54.1437 30.1213L53.9437 30.1201V30.1213H54.1437ZM53.9899 29.3396L54.1745 29.2627L54.1745 29.2627L53.9899 29.3396ZM53.5431 28.68L53.4009 28.8207L53.4031 28.8229L53.5431 28.68ZM52.8826 28.2351L52.9595 28.0505L52.9595 28.0505L52.8826 28.2351ZM52.1016 28.0794L52.1016 28.2794L52.1019 28.2794L52.1016 28.0794ZM23.9932 28.0794V27.8794L23.9926 27.8794L23.9932 28.0794ZM22.551 28.6792L22.4096 28.5378L22.4096 28.5378L22.551 28.6792ZM21.9512 30.1213L21.7512 30.1207V30.1213H21.9512ZM21.9512 66.0045L21.7512 66.0045L21.7512 66.0047L21.9512 66.0045ZM23.2371 69.1027L23.0957 69.2441L23.0957 69.2441L23.2371 69.1027ZM26.3356 70.3885L26.3353 70.5885H26.3356V70.3885ZM57.9935 70.3885V70.5885H58.006L58.0183 70.587L57.9935 70.3885ZM61.9515 65.8603H61.7515L61.7516 65.8624L61.9515 65.8603ZM61.9515 60.5394L61.7515 60.5382V60.5394H61.9515ZM61.7977 59.7577L61.9824 59.6808L61.9823 59.6808L61.7977 59.7577ZM61.3509 59.0981L61.2087 59.2388L61.211 59.241L61.3509 59.0981ZM60.6905 58.6532L60.6135 58.8378L60.6135 58.8378L60.6905 58.6532ZM59.9095 58.4975V58.6975L59.9097 58.6975L59.9095 58.4975ZM54.1437 58.4975H53.9437V58.6975H54.1437V58.4975ZM54.1437 44.2644L54.0022 44.1231L53.9437 44.1816V44.2644H54.1437ZM67.5072 30.884L67.6487 31.0254L67.65 31.024L67.5072 30.884ZM59.6152 32.0431L59.7566 32.1845L59.8978 32.0433L59.7568 31.9019L59.6152 32.0431ZM57.6212 30.0432L57.7628 29.902L57.6214 29.7602L57.4798 29.9018L57.6212 30.0432ZM46.1676 45.4955L46.0262 45.637L46.1676 45.7784L46.3091 45.6369L46.1676 45.4955ZM44.1676 43.4957L44.0262 43.3543L43.8847 43.4957L44.0262 43.6371L44.1676 43.4957ZM31.0203 61.6204L31.0203 61.4204L31.0189 61.4204L31.0203 61.6204ZM30.2576 61.3081L30.1161 61.4496L30.1163 61.4497L30.2576 61.3081ZM30.0219 60.9554L29.8371 61.032L29.8371 61.032L30.0219 60.9554ZM29.9392 60.5394L30.1392 60.5395V60.5394H29.9392ZM29.9392 54.2937H30.1393L30.1392 54.2904L29.9392 54.2937ZM29.8011 53.9573L29.9457 53.8191L29.9425 53.8159L29.8011 53.9573ZM29.4587 53.8132L29.4611 53.6132L29.4589 53.6132L29.4587 53.8132ZM27.9931 53.3686L27.8821 53.5349L27.8821 53.5349L27.9931 53.3686ZM27.0203 52.1857L27.2049 52.1089L27.2048 52.1086L27.0203 52.1857ZM26.8192 51.045L27.019 51.0544L27.019 51.0544L26.8192 51.045ZM27.1265 49.9282L26.95 49.8341L26.95 49.8341L27.1265 49.9282ZM27.8828 49.0509L27.7637 48.8902L27.7637 48.8902L27.8828 49.0509ZM28.9422 48.5824L28.981 48.7786L28.9811 48.7786L28.9422 48.5824ZM31.657 49.7054L31.8233 49.5944L31.8231 49.594L31.657 49.7054ZM32.1014 51.1708L32.3014 51.1708L32.3014 51.1707L32.1014 51.1708ZM32.1014 56.6358L32.3014 56.6385V56.6358H32.1014ZM32.1917 57.1194L32.0062 57.1941L32.0062 57.1941L32.1917 57.1194ZM32.4618 57.5306L32.3195 57.6712L32.3211 57.6728L32.4618 57.5306ZM33.3507 57.897L33.3503 58.097H33.3507V57.897ZM43.9934 51.1708L43.7934 51.1707V51.1708H43.9934ZM44.0295 50.7384L43.8328 50.7015L43.8322 50.7053L44.0295 50.7384ZM44.0655 50.5462L44.0168 50.3522L43.8925 50.3834L43.8689 50.5093L44.0655 50.5462ZM48.6121 49.4051L48.7706 49.2832L48.6906 49.1792L48.5634 49.2112L48.6121 49.4051ZM48.7322 49.5613L48.5737 49.6832L48.5749 49.6848L48.7322 49.5613ZM49.2067 50.5462L49.012 50.5922L49.0125 50.594L49.2067 50.5462ZM47.7953 53.549L47.8822 53.7291L47.8824 53.729L47.7953 53.549ZM46.6421 53.8132L46.642 53.6132L46.6378 53.6133L46.6421 53.8132ZM46.2997 53.9573L46.1597 53.8145L46.158 53.8163L46.2997 53.9573ZM46.1972 54.1117L46.3822 54.1877L46.3822 54.1877L46.1972 54.1117ZM46.1616 54.2937L46.3616 54.2937L46.3616 54.293L46.1616 54.2937ZM46.1616 60.5394L45.9616 60.5394L45.9616 60.5395L46.1616 60.5394ZM46.0789 60.9554L46.2637 61.032L46.2637 61.032L46.0789 60.9554ZM45.8433 61.3081L45.9846 61.4497L45.9847 61.4496L45.8433 61.3081ZM45.4904 61.5419L45.5657 61.7272L45.5657 61.7272L45.4904 61.5419ZM45.0745 61.6204L45.077 61.4204H45.0745V61.6204ZM44.594 64.7433V64.9433H44.794V64.7433H44.594ZM44.594 62.5813H44.794V62.3813H44.594V62.5813ZM40.8703 64.7433H40.6703V64.9433H40.8703V64.7433ZM40.8703 62.5813V62.3813H40.6703V62.5813H40.8703ZM35.2246 64.7433V64.9433H35.4246V64.7433H35.2246ZM35.2246 62.5813H35.4246V62.3813H35.2246V62.5813ZM31.5008 64.7433H31.3008V64.9433H31.5008V64.7433ZM31.5008 62.5813V62.3813H31.3008V62.5813H31.5008ZM41.7952 50.5282L41.9402 50.3904L41.9381 50.3882L41.7952 50.5282ZM41.5069 50.0237L41.7 49.9717L41.6993 49.9692L41.5069 50.0237ZM42.1736 50.7864L42.0981 50.9717L42.1035 50.9737L42.1736 50.7864ZM42.618 50.8705L42.6149 51.0705H42.618V50.8705ZM43.0685 50.8705L43.2675 50.8907L43.2899 50.6705H43.0685V50.8705ZM43.0324 51.2248L42.8335 51.2046L42.8324 51.2147V51.2248H43.0324ZM43.0324 53.8132V54.0132H43.2324V53.8132H43.0324ZM33.0624 53.8132H32.8624V54.0132H33.0624V53.8132ZM33.0624 51.1708H33.2624L33.2624 51.1705L33.0624 51.1708ZM32.2484 48.8951L32.0936 49.0217L32.0936 49.0217L32.2484 48.8951ZM30.1795 47.6455L30.2195 47.4496L30.2187 47.4494L30.1795 47.6455ZM29.9392 47.5975H29.7392V47.7614L29.9 47.7936L29.9392 47.5975ZM29.9392 47.2672L29.7392 47.2668V47.2672H29.9392ZM37.2666 39.9404L37.2666 39.7404L37.2663 39.7404L37.2666 39.9404ZM38.8282 39.9404L38.8288 39.7404H38.8282V39.9404ZM43.8733 41.9763L43.7349 42.1207L43.7359 42.1216L43.8733 41.9763ZM44.0955 42.1865L44.2375 42.3273L44.3817 42.1819L44.233 42.0412L44.0955 42.1865ZM43.3808 42.9071L43.5224 43.0484L43.5228 43.048L43.3808 42.9071ZM42.9183 43.7239L42.7244 43.6752L42.7243 43.6754L42.9183 43.7239ZM41.4889 49.4412L41.2948 49.3926L41.2935 49.3987L41.4889 49.4412ZM43.0324 56.9361V57.1361H43.2324V56.9361H43.0324ZM43.0324 54.7741H43.2324V54.5741H43.0324V54.7741ZM33.0624 56.9361H32.8624V57.1361H33.0624V56.9361ZM33.0624 54.7741V54.5741H32.8624V54.7741H33.0624ZM43.7472 44.4205L43.8887 44.2792L43.6386 44.0288L43.5531 44.3722L43.7472 44.4205ZM42.3658 49.9697L42.1717 49.9213L42.0912 50.2446L42.4144 50.1637L42.3658 49.9697ZM47.9034 48.5824L47.952 48.7764L48.2942 48.6907L48.0449 48.4411L47.9034 48.5824ZM23.9148 68.425L23.7734 68.5664L23.7734 68.5664L23.9148 68.425ZM22.9121 30.1213L22.7121 30.1202V30.1213H22.9121ZM23.9932 29.0403V28.8403L23.9921 28.8403L23.9932 29.0403ZM52.1016 29.0403L52.1027 28.8403H52.1016V29.0403ZM52.8643 29.3587L52.7229 29.5001L52.7229 29.5001L52.8643 29.3587ZM53.1827 30.1213L53.3827 30.1213L53.3827 30.1202L53.1827 30.1213ZM53.1827 33.1241L53.3241 33.2655L53.3827 33.2069V33.1241H53.1827ZM44.7742 41.5319L44.6349 41.6753L44.7762 41.8127L44.9156 41.6733L44.7742 41.5319ZM44.564 41.3277L44.4244 41.4709L44.4246 41.4711L44.564 41.3277ZM38.8282 38.9795L38.8291 38.7795H38.8282V38.9795ZM37.2666 38.9795V38.7795L37.2662 38.7795L37.2666 38.9795ZM31.4111 41.4122L31.2697 41.2707L31.4111 41.4122ZM28.9783 47.2672L28.7783 47.2667V47.2672H28.9783ZM28.9783 47.5975L29.016 47.7939L29.1783 47.7627V47.5975H28.9783ZM28.6659 47.6575L28.6282 47.4611L28.6233 47.4621L28.6659 47.6575ZM26.9062 48.6184L27.0472 48.7603L27.0475 48.7599L26.9062 48.6184ZM25.9572 50.33L26.1521 50.375L26.1522 50.3744L25.9572 50.33ZM25.9572 51.9515L26.1528 51.9095L26.1521 51.9065L25.9572 51.9515ZM26.6539 53.4168L26.8104 53.2922L26.8099 53.2917L26.6539 53.4168ZM28.75 54.702L28.7099 54.898L28.7108 54.8982L28.75 54.702ZM28.9903 54.7501H29.1903V54.5861L29.0295 54.554L28.9903 54.7501ZM28.9903 60.5394L29.1903 60.5413V60.5394H28.9903ZM29.3687 61.7405L29.5319 61.6249L29.5315 61.6244L29.3687 61.7405ZM30.3537 62.4792L30.422 62.2912L30.4189 62.2902L30.3537 62.4792ZM30.5519 62.5513H30.7519V62.4112L30.6202 62.3633L30.5519 62.5513ZM30.9213 65.3348L31.0627 65.1934L31.0627 65.1934L30.9213 65.3348ZM35.8281 65.3348L35.9695 65.4762L35.9695 65.4762L35.8281 65.3348ZM36.1976 62.5813V62.3813H35.9976V62.5813H36.1976ZM39.9213 62.5813H40.1213V62.3813H39.9213V62.5813ZM39.9213 64.443L40.1213 64.4477V64.443H39.9213ZM40.0061 64.9253L40.1924 64.8527L40.1924 64.8527L40.0061 64.9253ZM40.2697 65.3379L40.1254 65.4765L40.129 65.48L40.2697 65.3379ZM41.1586 65.7042L41.1582 65.9042H41.1586V65.7042ZM44.2817 65.7042L44.2836 65.5042H44.2817V65.7042ZM45.543 64.443H45.343L45.343 64.445L45.543 64.443ZM45.543 62.5273L45.4746 62.3393L45.343 62.3872V62.5273H45.543ZM45.7412 62.4552L45.6755 62.2663L45.6728 62.2672L45.7412 62.4552ZM47.1166 60.5394L47.3166 60.5412V60.5394H47.1166ZM47.1166 54.7501L47.0774 54.554L46.9166 54.5861V54.7501H47.1166ZM47.3568 54.702L47.3177 54.5059L47.3176 54.5059L47.3568 54.702ZM49.4529 53.4168L49.2967 53.2919L49.2959 53.293L49.4529 53.4168ZM50.1556 51.9515L49.9605 51.9075L49.9604 51.9079L50.1556 51.9515ZM50.1556 50.336L50.3507 50.292L50.3502 50.2897L50.1556 50.336ZM49.6091 49.1349L49.4457 49.2502L49.4463 49.2511L49.6091 49.1349ZM49.4649 48.9307L49.3235 48.7893L49.2044 48.9084L49.3016 49.046L49.4649 48.9307ZM53.1947 45.2013H53.3947V44.7184L53.0533 45.0598L53.1947 45.2013ZM53.1947 66.0045L53.3947 66.0046V66.0045H53.1947ZM54.3118 68.9292L54.4611 68.7961L54.4608 68.7957L54.3118 68.9292ZM54.7563 69.4276V69.6276H55.2026L54.9056 69.2945L54.7563 69.4276ZM60.6722 59.7768L60.5308 59.9182L60.6722 59.7768ZM59.9095 59.4584L59.9106 59.2584H59.9095V59.4584ZM60.9906 60.5394L61.1906 60.5394L61.1906 60.5383L60.9906 60.5394ZM60.9906 65.8363H60.7905L60.7906 65.8412L60.9906 65.8363ZM60.1444 68.2242L59.9921 68.0945L59.9921 68.0945L60.1444 68.2242ZM57.9215 69.4397V69.6397H57.935L57.9485 69.6378L57.9215 69.4397ZM57.5551 69.4397L57.5549 69.6397H57.5551V69.4397ZM56.486 69.2655L56.4219 69.4549L56.4228 69.4552L56.486 69.2655ZM54.791 68.0112L54.6286 68.1278L54.6286 68.1278L54.791 68.0112ZM54.1437 66.0045H53.9437L53.9437 66.0047L54.1437 66.0045ZM54.1437 59.4584V59.2584H53.9437V59.4584H54.1437ZM46.8763 46.1742L46.7349 46.0327L46.5945 46.1731L46.7338 46.3145L46.8763 46.1742ZM48.8463 48.174L48.7038 48.3144L48.8451 48.4577L48.9875 48.3156L48.8463 48.174ZM60.3299 32.7217L60.4715 32.5805L60.3301 32.4387L60.1885 32.5803L60.3299 32.7217ZM62.3299 34.7276L62.4712 34.8692L62.6128 34.728L62.4716 34.5864L62.3299 34.7276ZM58.2878 29.3646L58.1464 29.2232L58.005 29.3646L58.1464 29.506L58.2878 29.3646ZM62.9786 34.055L62.8372 34.1964L62.9792 34.3384L63.1206 34.1958L62.9786 34.055ZM60.45 27.2026L60.5914 27.0611L60.4499 26.9199L60.3086 27.0612L60.45 27.2026ZM65.1348 31.8809L65.2768 32.0218L65.4171 31.8803L65.2761 31.7394L65.1348 31.8809ZM65.8255 31.2143L65.6841 31.3558L65.8255 31.4971L65.9669 31.3558L65.8255 31.2143ZM66.8225 30.2174L66.9639 30.3588L67.3053 30.0174H66.8225V30.2174ZM61.1407 26.536L60.9993 26.3946L60.8578 26.5361L60.9994 26.6775L61.1407 26.536ZM62.1437 25.5331L62.0027 25.3913L62.0023 25.3917L62.1437 25.5331ZM62.6062 25.2268L62.6817 25.412L62.6841 25.411L62.6062 25.2268ZM63.1407 25.1187L63.1406 25.3187L63.1409 25.3187L63.1407 25.1187ZM63.6813 25.2268L63.7593 25.0426L63.7584 25.0422L63.6813 25.2268ZM64.1377 25.5331L64.2792 25.3917L64.2786 25.3911L64.1377 25.5331ZM66.8165 28.2116L66.9584 28.0706L66.9579 28.0701L66.8165 28.2116ZM66.8165 30.2174L66.6745 30.0765L66.3359 30.4174H66.8165V30.2174ZM64.6812 24.984L67.3659 27.6625L67.6484 27.3793L64.9637 24.7009L64.6812 24.984ZM63.9758 24.5121C64.2395 24.6215 64.4792 24.7817 64.6809 24.9838L64.964 24.7011C64.725 24.4619 64.4413 24.2721 64.129 24.1426L63.9758 24.5121ZM63.1437 24.3465C63.4293 24.3465 63.712 24.4028 63.9758 24.5121L64.129 24.1426C63.8166 24.0131 63.4819 23.9465 63.1437 23.9465V24.3465ZM62.3117 24.5121C62.5755 24.4028 62.8582 24.3465 63.1437 24.3465V23.9465C62.8056 23.9465 62.4708 24.0131 62.1585 24.1426L62.3117 24.5121ZM61.6066 24.9838C61.8083 24.7817 62.0479 24.6215 62.3117 24.5121L62.1585 24.1426C61.8462 24.2721 61.5625 24.4619 61.3235 24.7011L61.6066 24.9838ZM54.2851 32.3046L61.6065 24.9839L61.3236 24.701L54.0022 32.0218L54.2851 32.3046ZM53.9437 30.1213V32.1632H54.3437V30.1213H53.9437ZM53.8052 29.4165C53.8981 29.6394 53.9452 29.8787 53.9437 30.1201L54.3437 30.1226C54.3455 29.8275 54.288 29.5351 54.1745 29.2627L53.8052 29.4165ZM53.4031 28.8229C53.5756 28.9918 53.7124 29.1937 53.8052 29.4165L54.1745 29.2627C54.061 28.9903 53.8938 28.7435 53.683 28.5371L53.4031 28.8229ZM52.8057 28.4197C53.0287 28.5126 53.231 28.6489 53.4009 28.8206L53.6852 28.5393C53.4781 28.3299 53.2314 28.1638 52.9595 28.0505L52.8057 28.4197ZM52.1019 28.2794C52.3434 28.2791 52.5827 28.3268 52.8057 28.4197L52.9595 28.0505C52.6876 27.9372 52.3959 27.8791 52.1014 27.8794L52.1019 28.2794ZM23.9932 28.2794H52.1016V27.8794H23.9932V28.2794ZM22.6924 28.8207C23.0377 28.4754 23.5056 28.2809 23.9938 28.2794L23.9926 27.8794C23.3987 27.8812 22.8296 28.1179 22.4096 28.5378L22.6924 28.8207ZM22.1512 30.1219C22.1526 29.6337 22.3472 29.1659 22.6924 28.8207L22.4096 28.5378C21.9896 28.9578 21.7529 29.5268 21.7512 30.1207L22.1512 30.1219ZM22.1512 66.0045V30.1213H21.7512V66.0045H22.1512ZM23.3785 68.9613C22.5941 68.1769 22.1527 67.1135 22.1512 66.0042L21.7512 66.0047C21.7528 67.2199 22.2363 68.3849 23.0957 69.2441L23.3785 68.9613ZM26.3359 70.1885C25.2265 70.187 24.163 69.7457 23.3785 68.9613L23.0957 69.2441C23.955 70.1034 25.12 70.5869 26.3353 70.5885L26.3359 70.1885ZM57.5671 70.1885H26.3356V70.5885H57.5671V70.1885ZM57.9935 70.1885H57.5671V70.5885H57.9935V70.1885ZM60.6854 68.7474C59.9878 69.5455 59.0208 70.059 57.9688 70.1901L58.0183 70.587C59.1677 70.4438 60.2243 69.8827 60.9865 69.0106L60.6854 68.7474ZM61.7516 65.8624C61.7625 66.9223 61.383 67.9493 60.6854 68.7474L60.9865 69.0106C61.7488 68.1385 62.1635 67.0165 62.1515 65.8583L61.7516 65.8624ZM61.7515 60.5394V65.8603H62.1515V60.5394H61.7515ZM61.6131 59.8347C61.706 60.0575 61.7531 60.2968 61.7515 60.5382L62.1515 60.5407C62.1534 60.2456 62.0958 59.9532 61.9824 59.6808L61.6131 59.8347ZM61.211 59.241C61.3835 59.4099 61.5203 59.6118 61.6131 59.8347L61.9823 59.6808C61.8688 59.4084 61.7017 59.1617 61.4909 58.9552L61.211 59.241ZM60.6135 58.8378C60.8365 58.9307 61.0389 59.067 61.2088 59.2388L61.4931 58.9574C61.286 58.748 61.0393 58.5819 60.7674 58.4686L60.6135 58.8378ZM59.9097 58.6975C60.1513 58.6972 60.3905 58.7449 60.6135 58.8378L60.7674 58.4686C60.4955 58.3553 60.2038 58.2972 59.9092 58.2975L59.9097 58.6975ZM54.1437 58.6975H59.9095V58.2975H54.1437V58.6975ZM53.9437 44.2644V58.4975H54.3437V44.2644H53.9437ZM67.3656 30.7427L54.0022 44.1231L54.2852 44.4057L67.6487 31.0254L67.3656 30.7427ZM67.9939 29.2025C67.9939 29.7789 67.7679 30.3324 67.3643 30.744L67.65 31.024C68.1268 30.5376 68.3939 29.8836 68.3939 29.2025H67.9939ZM67.3643 27.6609C67.7679 28.0726 67.9939 28.626 67.9939 29.2025H68.3939C68.3939 28.5213 68.1268 27.8673 67.65 27.3809L67.3643 27.6609ZM59.7568 31.9019L57.7628 29.902L57.4795 30.1845L59.4736 32.1843L59.7568 31.9019ZM46.3091 45.6369L59.7566 32.1845L59.4737 31.9017L46.0262 45.3541L46.3091 45.6369ZM44.0262 43.6371L46.0262 45.637L46.309 45.3541L44.309 43.3543L44.0262 43.6371ZM57.4798 29.9018L44.0262 43.3543L44.309 43.6371L57.7626 30.1847L57.4798 29.9018ZM30.5319 61.7258C30.6873 61.7895 30.8538 61.8216 31.0217 61.8204L31.0189 61.4204C30.9039 61.4213 30.7899 61.3992 30.6834 61.3557L30.5319 61.7258ZM30.1163 61.4497C30.2352 61.5683 30.3764 61.6622 30.5319 61.7258L30.6834 61.3557C30.577 61.3121 30.4802 61.2478 30.3988 61.1666L30.1163 61.4497ZM29.8371 61.032C29.9018 61.1881 29.9966 61.33 30.1161 61.4496L30.399 61.1667C30.3166 61.0843 30.2513 60.9865 30.2067 60.8789L29.8371 61.032ZM29.7392 60.5394C29.7392 60.7084 29.7725 60.8758 29.8371 61.032L30.2067 60.8789C30.1621 60.7713 30.1392 60.6559 30.1392 60.5395L29.7392 60.5394ZM29.7392 54.2937V60.5394H30.1392V54.2937H29.7392ZM29.6565 54.0956C29.7085 54.1499 29.738 54.2218 29.7393 54.2969L30.1392 54.2904C30.1363 54.1145 30.0672 53.9462 29.9456 53.8191L29.6565 54.0956ZM29.4564 54.0132C29.5327 54.0141 29.6057 54.0448 29.6597 54.0988L29.9425 53.8159C29.8146 53.6881 29.6419 53.6154 29.4611 53.6132L29.4564 54.0132ZM27.8821 53.5349C28.3489 53.8465 28.8974 54.0129 29.4586 54.0132L29.4589 53.6132C28.9766 53.6129 28.5052 53.4699 28.1041 53.2022L27.8821 53.5349ZM26.8356 52.2625C27.0512 52.7807 27.4153 53.2234 27.8821 53.5349L28.1041 53.2022C27.703 52.9345 27.3902 52.5541 27.2049 52.1089L26.8356 52.2625ZM26.6194 51.0356C26.5997 51.4557 26.6736 51.8749 26.8358 52.2629L27.2048 52.1086C27.0655 51.7753 27.002 51.4152 27.019 51.0544L26.6194 51.0356ZM26.95 49.8341C26.7521 50.2051 26.6392 50.6155 26.6194 51.0356L27.019 51.0544C27.036 50.6936 27.133 50.3411 27.303 50.0223L26.95 49.8341ZM27.7637 48.8902C27.4259 49.1406 27.1479 49.463 26.95 49.8341L27.303 50.0223C27.473 49.7036 27.7117 49.4267 28.0019 49.2116L27.7637 48.8902ZM28.9035 48.3862C28.4909 48.4676 28.1016 48.6398 27.7637 48.8902L28.0019 49.2116C28.2921 48.9965 28.6266 48.8486 28.981 48.7786L28.9035 48.3862ZM30.546 48.5482C30.0265 48.3333 29.4549 48.2769 28.9034 48.3862L28.9811 48.7786C29.4552 48.6846 29.9465 48.7331 30.3931 48.9179L30.546 48.5482ZM31.8231 49.594C31.5099 49.127 31.0656 48.7632 30.546 48.5482L30.3931 48.9179C30.8398 49.1026 31.2217 49.4154 31.4909 49.8168L31.8231 49.594ZM32.3014 51.1707C32.3011 50.6096 32.1348 50.0611 31.8233 49.5944L31.4906 49.8164C31.7582 50.2175 31.9012 50.6887 31.9014 51.1709L32.3014 51.1707ZM32.3014 56.6358V51.1708H31.9014V56.6358H32.3014ZM32.3772 57.0447C32.3253 56.9157 32.2995 56.7776 32.3014 56.6385L31.9014 56.6331C31.8988 56.8252 31.9344 57.0159 32.0062 57.1941L32.3772 57.0447ZM32.6041 57.3901C32.5063 57.2911 32.4292 57.1737 32.3772 57.0447L32.0062 57.1941C32.078 57.3724 32.1845 57.5345 32.3195 57.6712L32.6041 57.3901ZM33.3511 57.697C33.0707 57.6965 32.8018 57.5856 32.6024 57.3885L32.3211 57.6728C32.5952 57.9439 32.9648 58.0963 33.3503 58.097L33.3511 57.697ZM42.7321 57.697H33.3507V58.097H42.7321V57.697ZM43.4826 57.3862C43.2836 57.5852 43.0136 57.697 42.7321 57.697V58.097C43.1197 58.097 43.4914 57.943 43.7654 57.669L43.4826 57.3862ZM43.7934 56.6358C43.7934 56.9173 43.6816 57.1872 43.4826 57.3862L43.7654 57.669C44.0395 57.395 44.1934 57.0234 44.1934 56.6358H43.7934ZM43.7934 51.1708V56.6358H44.1934V51.1708H43.7934ZM43.8322 50.7053C43.8065 50.8591 43.7935 51.0148 43.7934 51.1707L44.1934 51.1708C44.1935 51.037 44.2046 50.9034 44.2267 50.7714L43.8322 50.7053ZM43.8689 50.5093L43.8329 50.7015L44.226 50.7752L44.2621 50.5831L43.8689 50.5093ZM48.5634 49.2112L44.0168 50.3522L44.1142 50.7402L48.6608 49.5991L48.5634 49.2112ZM48.8907 49.4393L48.7706 49.2832L48.4536 49.5271L48.5737 49.6832L48.8907 49.4393ZM49.4013 50.5002C49.3098 50.1131 49.1352 49.7506 48.8895 49.4377L48.5749 49.6848C48.7848 49.952 48.9339 50.2616 49.012 50.5922L49.4013 50.5002ZM49.2136 52.3825C49.49 51.7945 49.5561 51.1294 49.4009 50.4984L49.0125 50.594C49.1458 51.1359 49.089 51.7072 48.8516 52.2123L49.2136 52.3825ZM47.8824 53.729C48.4673 53.4459 48.9372 52.9705 49.2136 52.3825L48.8516 52.2123C48.6142 52.7175 48.2105 53.1258 47.7081 53.369L47.8824 53.729ZM46.6422 54.0132C47.0717 54.013 47.4955 53.9158 47.8822 53.7291L47.7083 53.3689C47.3757 53.5295 47.0113 53.613 46.642 53.6132L46.6422 54.0132ZM46.4398 54.1002C46.4951 54.0459 46.569 54.0148 46.6464 54.0132L46.6378 53.6133C46.4586 53.6171 46.2877 53.6891 46.1597 53.8145L46.4398 54.1002ZM46.3822 54.1877C46.3959 54.1544 46.4161 54.124 46.4415 54.0984L46.158 53.8163C46.0954 53.8791 46.0459 53.9537 46.0122 54.0358L46.3822 54.1877ZM46.3616 54.293C46.3615 54.2569 46.3685 54.2211 46.3822 54.1877L46.0122 54.0358C45.9785 54.1178 45.9613 54.2057 45.9616 54.2944L46.3616 54.293ZM46.3616 60.5394V54.2937H45.9616V60.5394H46.3616ZM46.2637 61.032C46.3284 60.8758 46.3616 60.7084 46.3616 60.5394L45.9616 60.5395C45.9616 60.6559 45.9387 60.7713 45.8941 60.8789L46.2637 61.032ZM45.9847 61.4496C46.1042 61.33 46.199 61.1881 46.2637 61.032L45.8941 60.8789C45.8496 60.9866 45.7842 61.0843 45.7019 61.1667L45.9847 61.4496ZM45.5657 61.7272C45.7224 61.6635 45.8648 61.5692 45.9846 61.4497L45.702 61.1666C45.62 61.2484 45.5225 61.313 45.4152 61.3566L45.5657 61.7272ZM45.072 61.8204C45.2411 61.8226 45.409 61.7909 45.5657 61.7272L45.4152 61.3566C45.3078 61.4002 45.1929 61.4219 45.077 61.4204L45.072 61.8204ZM31.0203 61.8204H45.0745V61.4204H31.0203V61.8204ZM44.794 64.7433V62.5813H44.394V64.7433H44.794ZM40.8703 64.9433H44.594V64.5433H40.8703V64.9433ZM40.6703 62.5813V64.7433H41.0703V62.5813H40.6703ZM44.594 62.3813H40.8703V62.7813H44.594V62.3813ZM35.4246 64.7433V62.5813H35.0246V64.7433H35.4246ZM31.5008 64.9433H35.2246V64.5433H31.5008V64.9433ZM31.3008 62.5813V64.7433H31.7008V62.5813H31.3008ZM35.2246 62.3813H31.5008V62.7813H35.2246V62.3813ZM41.9381 50.3882C41.8243 50.2721 41.7423 50.1287 41.7 49.9717L41.3138 50.0757C41.3739 50.299 41.4905 50.503 41.6524 50.6682L41.9381 50.3882ZM42.249 50.6012C42.1323 50.5537 42.027 50.4818 41.9402 50.3904L41.6502 50.6659C41.7761 50.7985 41.9288 50.9027 42.0982 50.9717L42.249 50.6012ZM42.6212 50.6705C42.4922 50.6685 42.3645 50.6443 42.2437 50.5991L42.1035 50.9737C42.2671 51.035 42.4401 51.0677 42.6149 51.0705L42.6212 50.6705ZM42.7081 50.6705H42.618V51.0705H42.7081V50.6705ZM43.0685 50.6705H42.7081V51.0705H43.0685V50.6705ZM43.2314 51.2451L43.2675 50.8907L42.8695 50.8503L42.8335 51.2046L43.2314 51.2451ZM43.2324 53.8132V51.2248H42.8324V53.8132H43.2324ZM33.0624 54.0132H43.0324V53.6132H33.0624V54.0132ZM32.8624 51.1708V53.8132H33.2624V51.1708H32.8624ZM32.0936 49.0217C32.5897 49.6283 32.8612 50.3875 32.8624 51.1711L33.2624 51.1705C33.2611 50.2948 32.9577 49.4464 32.4033 48.7684L32.0936 49.0217ZM30.1395 47.8415C30.9073 47.9982 31.5976 48.4151 32.0936 49.0217L32.4033 48.7684C31.8489 48.0905 31.0775 47.6247 30.2195 47.4496L30.1395 47.8415ZM29.9 47.7936L30.1403 47.8416L30.2187 47.4494L29.9785 47.4014L29.9 47.7936ZM29.7392 47.2672V47.5975H30.1392V47.2672H29.7392ZM31.9475 41.9484C30.5366 43.3592 29.7425 45.2717 29.7392 47.2668L30.1392 47.2675C30.1423 45.3782 30.8943 43.5672 32.2303 42.2313L31.9475 41.9484ZM37.2663 39.7404C35.271 39.7437 33.3584 40.5377 31.9475 41.9484L32.2303 42.2313C33.5663 40.8954 35.3775 40.1435 37.267 40.1404L37.2663 39.7404ZM38.8282 39.7404H37.2666V40.1404H38.8282V39.7404ZM44.0117 41.8319C42.6169 40.4949 40.761 39.746 38.8288 39.7404L38.8276 40.1404C40.657 40.1457 42.4142 40.8548 43.7349 42.1207L44.0117 41.8319ZM44.233 42.0412L44.0107 41.831L43.7359 42.1216L43.9581 42.3318L44.233 42.0412ZM43.5228 43.048L44.2375 42.3273L43.9535 42.0456L43.2388 42.7663L43.5228 43.048ZM43.1123 43.7726C43.1811 43.4986 43.3228 43.2484 43.5224 43.0484L43.2392 42.7659C42.9887 43.017 42.8108 43.3312 42.7244 43.6752L43.1123 43.7726ZM41.6829 49.4897L43.1124 43.7724L42.7243 43.6754L41.2949 49.3927L41.6829 49.4897ZM41.6993 49.9692C41.6545 49.8111 41.6494 49.6443 41.6843 49.4837L41.2935 49.3987C41.2446 49.6235 41.2518 49.8569 41.3145 50.0782L41.6993 49.9692ZM43.2324 56.9361V54.7741H42.8324V56.9361H43.2324ZM33.0624 57.1361H43.0324V56.7361H33.0624V57.1361ZM32.8624 54.7741V56.9361H33.2624V54.7741H32.8624ZM43.0324 54.5741H33.0624V54.9741H43.0324V54.5741ZM43.5531 44.3722L42.1717 49.9213L42.5599 50.018L43.9412 44.4688L43.5531 44.3722ZM48.0449 48.4411L43.8887 44.2792L43.6057 44.5619L47.7618 48.7237L48.0449 48.4411ZM42.4144 50.1637L47.952 48.7764L47.8548 48.3884L42.3172 49.7757L42.4144 50.1637ZM23.7734 68.5664C24.453 69.2459 25.3746 69.6276 26.3356 69.6276V69.2276C25.4807 69.2276 24.6608 68.8881 24.0563 68.2836L23.7734 68.5664ZM22.7121 66.0045C22.7121 66.9654 23.0939 67.887 23.7734 68.5664L24.0563 68.2836C23.4518 67.6791 23.1121 66.8593 23.1121 66.0045H22.7121ZM22.7121 30.1213V66.0045H23.1121V30.1213H22.7121ZM23.0891 29.2173C22.8495 29.4569 22.714 29.7813 22.7121 30.1202L23.1121 30.1224C23.1134 29.8889 23.2068 29.6653 23.3719 29.5001L23.0891 29.2173ZM23.9921 28.8403C23.6532 28.8422 23.3288 28.9776 23.0891 29.2173L23.3719 29.5001C23.5371 29.335 23.7608 29.2416 23.9943 29.2403L23.9921 28.8403ZM52.1016 28.8403H23.9932V29.2403H52.1016V28.8403ZM53.0057 29.2173C52.7661 28.9776 52.4416 28.8422 52.1027 28.8403L52.1005 29.2403C52.3341 29.2416 52.5577 29.335 52.7229 29.5001L53.0057 29.2173ZM53.3827 30.1202C53.3808 29.7813 53.2454 29.4569 53.0057 29.2173L52.7229 29.5001C52.8881 29.6653 52.9814 29.8889 52.9827 30.1224L53.3827 30.1202ZM53.3827 33.1241V30.1213H52.9827V33.1241H53.3827ZM44.9156 41.6733L53.3241 33.2655L53.0413 32.9827L44.6328 41.3904L44.9156 41.6733ZM44.4246 41.4711L44.6349 41.6753L44.9136 41.3884L44.7033 41.1842L44.4246 41.4711ZM38.8273 39.1795C40.9195 39.189 42.9263 40.0105 44.4244 41.4709L44.7036 41.1845C43.1312 39.6517 41.025 38.7894 38.8291 38.7795L38.8273 39.1795ZM37.2666 39.1795H38.8282V38.7795H37.2666V39.1795ZM31.5525 41.5536C33.0685 40.0378 35.1232 39.1842 37.2671 39.1795L37.2662 38.7795C35.0166 38.7844 32.8605 39.6801 31.2697 41.2707L31.5525 41.5536ZM29.1783 47.2676C29.1829 45.1239 30.0366 43.0694 31.5525 41.5536L31.2697 41.2707C29.679 42.8613 28.7831 45.0173 28.7783 47.2667L29.1783 47.2676ZM29.1783 47.5975V47.2672H28.7783V47.5975H29.1783ZM28.7037 47.8539L29.016 47.7939L28.9405 47.4011L28.6282 47.4611L28.7037 47.8539ZM27.0475 48.7599C27.5031 48.305 28.0796 47.9903 28.7086 47.8529L28.6233 47.4621C27.9195 47.6158 27.2746 47.9679 26.7649 48.4769L27.0475 48.7599ZM26.1522 50.3744C26.2916 49.7625 26.602 49.2027 27.0472 48.7603L26.7652 48.4766C26.2663 48.9724 25.9184 49.5997 25.7622 50.2856L26.1522 50.3744ZM26.1521 51.9065C26.0357 51.4026 26.0357 50.8789 26.1521 50.375L25.7623 50.285C25.6323 50.8481 25.6323 51.4334 25.7623 51.9965L26.1521 51.9065ZM26.8099 53.2917C26.4864 52.8883 26.2614 52.4151 26.1528 51.9095L25.7617 51.9935C25.8833 52.5599 26.1354 53.0901 26.4979 53.542L26.8099 53.2917ZM28.7901 54.5061C28.0083 54.3461 27.3076 53.9164 26.8104 53.2922L26.4975 53.5415C27.0531 54.239 27.8362 54.7191 28.7099 54.898L28.7901 54.5061ZM29.0295 54.554L28.7893 54.5059L28.7108 54.8982L28.9511 54.9462L29.0295 54.554ZM29.1903 60.5394V54.7501H28.7903V60.5394H29.1903ZM29.5315 61.6244C29.3061 61.3085 29.1867 60.9293 29.1903 60.5413L28.7903 60.5376C28.7859 61.0101 28.9314 61.4719 29.2058 61.8567L29.5315 61.6244ZM30.4189 62.2902C30.061 62.1666 29.7508 61.9339 29.5319 61.6249L29.2055 61.8562C29.4727 62.2334 29.8514 62.5174 30.2884 62.6683L30.4189 62.2902ZM30.6202 62.3633L30.422 62.2913L30.2853 62.6672L30.4835 62.7392L30.6202 62.3633ZM30.7519 64.443V62.5513H30.3519V64.443H30.7519ZM31.0627 65.1934C30.8637 64.9944 30.7519 64.7245 30.7519 64.443H30.3519C30.3519 64.8306 30.5058 65.2022 30.7799 65.4762L31.0627 65.1934ZM31.8131 65.5042C31.5317 65.5042 31.2617 65.3924 31.0627 65.1934L30.7799 65.4762C31.0539 65.7503 31.4256 65.9042 31.8131 65.9042V65.5042ZM34.9363 65.5042H31.8131V65.9042H34.9363V65.5042ZM35.6867 65.1934C35.4877 65.3924 35.2178 65.5042 34.9363 65.5042V65.9042C35.3238 65.9042 35.6955 65.7503 35.9695 65.4762L35.6867 65.1934ZM35.9976 64.443C35.9976 64.7245 35.8857 64.9944 35.6867 65.1934L35.9695 65.4762C36.2436 65.2022 36.3976 64.8306 36.3976 64.443H35.9976ZM35.9976 62.5813V64.443H36.3976V62.5813H35.9976ZM39.9213 62.3813H36.1976V62.7813H39.9213V62.3813ZM40.1213 64.443V62.5813H39.7213V64.443H40.1213ZM40.1924 64.8527C40.1422 64.7237 40.118 64.5861 40.1213 64.4477L39.7214 64.4384C39.7169 64.6295 39.7503 64.8196 39.8197 64.9978L40.1924 64.8527ZM40.4138 65.1992C40.3179 65.0995 40.2426 64.9817 40.1924 64.8527L39.8197 64.9978C39.889 65.176 39.993 65.3387 40.1255 65.4765L40.4138 65.1992ZM41.1589 65.5042C40.8785 65.5037 40.6096 65.3928 40.4103 65.1957L40.129 65.48C40.403 65.7511 40.7727 65.9035 41.1582 65.9042L41.1589 65.5042ZM44.2817 65.5042H41.1586V65.9042H44.2817V65.5042ZM44.6906 65.4263C44.5615 65.4791 44.4231 65.5056 44.2836 65.5042L44.2798 65.9042C44.4724 65.9061 44.6635 65.8695 44.8419 65.7966L44.6906 65.4263ZM45.0357 65.197C44.9371 65.2956 44.8198 65.3736 44.6906 65.4263L44.8419 65.7966C45.0203 65.7237 45.1823 65.6161 45.3186 65.4798L45.0357 65.197ZM45.2651 64.8519C45.2123 64.981 45.1344 65.0983 45.0357 65.197L45.3186 65.4798C45.4548 65.3436 45.5625 65.1816 45.6354 65.0032L45.2651 64.8519ZM45.343 64.445C45.3443 64.5844 45.3179 64.7228 45.2651 64.8519L45.6354 65.0032C45.7083 64.8248 45.7448 64.6338 45.743 64.4411L45.343 64.445ZM45.343 62.5273V64.443H45.743V62.5273H45.343ZM45.6728 62.2672L45.4746 62.3393L45.6113 62.7152L45.8095 62.6432L45.6728 62.2672ZM46.5699 61.5985C46.3477 61.908 46.0353 62.1412 45.6755 62.2663L45.8069 62.6441C46.2446 62.4919 46.6246 62.2082 46.8948 61.8318L46.5699 61.5985ZM46.9166 60.5376C46.9131 60.9185 46.792 61.2891 46.5699 61.5985L46.8948 61.8318C47.1651 61.4554 47.3124 61.0046 47.3166 60.5412L46.9166 60.5376ZM46.9166 54.7501V60.5394H47.3166V54.7501H46.9166ZM47.3176 54.5059L47.0774 54.554L47.1558 54.9462L47.396 54.8982L47.3176 54.5059ZM49.2959 53.293C48.8017 53.9197 48.1003 54.3497 47.3177 54.5059L47.396 54.8982C48.2719 54.7233 49.0569 54.2421 49.61 53.5407L49.2959 53.293ZM49.9604 51.9079C49.8475 52.4138 49.6205 52.8871 49.2967 53.2919L49.6091 53.5418C49.9709 53.0894 50.2246 52.5604 50.3508 51.9951L49.9604 51.9079ZM49.9605 50.38C50.074 50.8829 50.074 51.4046 49.9605 51.9075L50.3507 51.9955C50.4773 51.4347 50.4773 50.8528 50.3507 50.292L49.9605 50.38ZM49.4463 49.2511C49.6894 49.5914 49.8642 49.9756 49.9611 50.3823L50.3502 50.2897C50.2414 49.8326 50.045 49.401 49.7718 49.0186L49.4463 49.2511ZM49.3016 49.046L49.4457 49.2502L49.7725 49.0195L49.6283 48.8154L49.3016 49.046ZM53.0533 45.0598L49.3235 48.7893L49.6064 49.0721L53.3361 45.3427L53.0533 45.0598ZM53.3947 66.0045V45.2013H52.9947V66.0045H53.3947ZM54.4608 68.7957C53.7735 68.0286 53.3939 67.0346 53.3947 66.0046L52.9947 66.0043C52.9938 67.1329 53.4098 68.222 54.1629 69.0626L54.4608 68.7957ZM54.9056 69.2945L54.4611 68.7961L54.1626 69.0623L54.607 69.5607L54.9056 69.2945ZM26.3356 69.6276H54.7563V69.2276H26.3356V69.6276ZM60.8136 59.6354C60.574 59.3957 60.2495 59.2603 59.9106 59.2584L59.9084 59.6584C60.142 59.6597 60.3656 59.7531 60.5308 59.9182L60.8136 59.6354ZM61.1906 60.5383C61.1887 60.1994 61.0532 59.875 60.8136 59.6354L60.5308 59.9182C60.6959 60.0834 60.7893 60.307 60.7906 60.5405L61.1906 60.5383ZM61.1906 65.8363V60.5394H60.7906V65.8363H61.1906ZM60.2966 68.3539C60.8948 67.6516 61.213 66.7536 61.1905 65.8314L60.7906 65.8412C60.8107 66.6649 60.5264 67.4672 59.9921 68.0945L60.2966 68.3539ZM57.9485 69.6378C58.8625 69.5132 59.6985 69.0561 60.2966 68.3539L59.9921 68.0945C59.4578 68.7218 58.711 69.1302 57.8945 69.2415L57.9485 69.6378ZM57.5551 69.6397H57.9215V69.2397H57.5551V69.6397ZM56.4228 69.4552C56.7878 69.5769 57.1701 69.6392 57.5549 69.6397L57.5554 69.2397C57.2134 69.2392 56.8737 69.1839 56.5493 69.0758L56.4228 69.4552ZM54.6286 68.1278C55.0731 68.7466 55.7002 69.2107 56.4219 69.4549L56.5501 69.076C55.9076 68.8586 55.3492 68.4454 54.9535 67.8945L54.6286 68.1278ZM53.9437 66.0047C53.9446 66.7666 54.1841 67.509 54.6286 68.1278L54.9535 67.8945C54.5578 67.3435 54.3445 66.6825 54.3437 66.0042L53.9437 66.0047ZM53.9437 59.4584V66.0045H54.3437V59.4584H53.9437ZM59.9095 59.2584H54.1437V59.6584H59.9095V59.2584ZM46.7338 46.3145L48.7038 48.3144L48.9888 48.0336L47.0188 46.0338L46.7338 46.3145ZM60.1885 32.5803L46.7349 46.0327L47.0177 46.3156L60.4713 32.8632L60.1885 32.5803ZM62.4716 34.5864L60.4715 32.5805L60.1883 32.8629L62.1883 34.8688L62.4716 34.5864ZM48.9875 48.3156L62.4712 34.8692L62.1887 34.586L48.7051 48.0324L48.9875 48.3156ZM58.1464 29.506L62.8372 34.1964L63.12 33.9135L58.4293 29.2232L58.1464 29.506ZM60.3086 27.0612L58.1464 29.2232L58.4293 29.506L60.5914 27.3441L60.3086 27.0612ZM65.2761 31.7394L60.5914 27.0611L60.3087 27.3441L64.9934 32.0225L65.2761 31.7394ZM63.1206 34.1958L65.2768 32.0218L64.9928 31.7401L62.8366 33.9141L63.1206 34.1958ZM65.9669 31.3558L66.9639 30.3588L66.681 30.076L65.684 31.0729L65.9669 31.3558ZM60.9994 26.6775L65.6841 31.3558L65.9668 31.0728L61.2821 26.3945L60.9994 26.6775ZM62.0023 25.3917L60.9993 26.3946L61.2821 26.6774L62.2852 25.6745L62.0023 25.3917ZM62.5307 25.0416C62.3333 25.1221 62.1538 25.2409 62.0027 25.3913L62.2848 25.6749C62.3984 25.5619 62.5333 25.4725 62.6817 25.412L62.5307 25.0416ZM63.1409 24.9187C62.9305 24.9185 62.7222 24.9606 62.5283 25.0426L62.6841 25.411C62.8285 25.3499 62.9838 25.3186 63.1406 25.3187L63.1409 24.9187ZM63.7584 25.0422C63.5627 24.9605 63.3527 24.9185 63.1406 24.9187L63.1409 25.3187C63.3 25.3186 63.4575 25.3501 63.6042 25.4113L63.7584 25.0422ZM64.2786 25.3911C64.1292 25.243 63.953 25.1247 63.7593 25.0426L63.6033 25.411C63.7501 25.4732 63.8837 25.5628 63.9969 25.6751L64.2786 25.3911ZM66.9579 28.0701L64.2792 25.3917L63.9963 25.6745L66.675 28.353L66.9579 28.0701ZM67.4299 29.2145C67.4299 28.7859 67.2604 28.3747 66.9584 28.0706L66.6745 28.3525C66.9021 28.5817 67.0299 28.8915 67.0299 29.2145H67.4299ZM66.9584 30.3583C67.2604 30.0542 67.4299 29.6431 67.4299 29.2145H67.0299C67.0299 29.5374 66.9021 29.8473 66.6745 30.0765L66.9584 30.3583ZM66.8225 30.0174H66.8165V30.4174H66.8225V30.0174ZM35.5661 48.3196C35.5661 48.4579 35.454 48.57 35.3157 48.57V48.97C35.6749 48.97 35.9661 48.6788 35.9661 48.3196H35.5661ZM35.3157 48.0691C35.454 48.0691 35.5661 48.1813 35.5661 48.3196H35.9661C35.9661 47.9603 35.6749 47.6691 35.3157 47.6691V48.0691ZM35.0652 48.3196C35.0652 48.1813 35.1773 48.0691 35.3157 48.0691V47.6691C34.9564 47.6691 34.6652 47.9603 34.6652 48.3196H35.0652ZM35.3157 48.57C35.1773 48.57 35.0652 48.4579 35.0652 48.3196H34.6652C34.6652 48.6788 34.9564 48.97 35.3157 48.97V48.57ZM41.0207 48.97C41.3799 48.97 41.6711 48.6788 41.6711 48.3196H41.2711C41.2711 48.4579 41.159 48.57 41.0207 48.57V48.97ZM40.3703 48.3196C40.3703 48.6788 40.6615 48.97 41.0207 48.97V48.57C40.8824 48.57 40.7703 48.4579 40.7703 48.3196H40.3703ZM41.0207 47.6691C40.6615 47.6691 40.3703 47.9603 40.3703 48.3196H40.7703C40.7703 48.1813 40.8824 48.0691 41.0207 48.0691V47.6691ZM41.6711 48.3196C41.6711 47.9603 41.3799 47.6691 41.0207 47.6691V48.0691C41.159 48.0691 41.2711 48.1813 41.2711 48.3196H41.6711Z" fill="#325837" mask="url(#path-3-outside-1_1093_1317)"/>
</g>
<path d="M46.75 94C46.75 93.5858 46.4142 93.25 46 93.25C45.5858 93.25 45.25 93.5858 45.25 94L46.75 94ZM46 119C43.7909 119 42 120.791 42 123C42 125.209 43.7909 127 46 127C48.2091 127 50 125.209 50 123C50 120.791 48.2091 119 46 119ZM45.25 94L45.25 123L46.75 123L46.75 94L45.25 94Z" fill="#BACC91"/>
<circle opacity="0.4" cx="30" cy="123" r="3" fill="#BACC91"/>
<circle opacity="0.4" cx="62" cy="123" r="3" fill="#BACC91"/>
<path d="M45.624 177.08C43.256 177.08 40.936 176.744 38.664 176.072C36.424 175.368 34.536 174.408 33 173.192L35.688 168.344C36.904 169.336 38.376 170.136 40.104 170.744C41.832 171.352 43.64 171.656 45.528 171.656C47.768 171.656 49.512 171.208 50.76 170.312C52.008 169.384 52.632 168.136 52.632 166.568C52.632 165.032 52.056 163.816 50.904 162.92C49.752 162.024 47.896 161.576 45.336 161.576H42.264V157.304L51.864 145.88L52.68 148.232H34.632V143H57.528V147.176L47.928 158.6L44.664 156.68H46.536C50.664 156.68 53.752 157.608 55.8 159.464C57.88 161.288 58.92 163.64 58.92 166.52C58.92 168.408 58.44 170.152 57.48 171.752C56.52 173.352 55.048 174.648 53.064 175.64C51.112 176.6 48.632 177.08 45.624 177.08Z" fill="#D2DDC7"/>
</svg>
