<svg width="179" height="90" viewBox="0 0 179 90" fill="none" xmlns="http://www.w3.org/2000/svg">
<mask id="mask0_772_774" style="mask-type:alpha" maskUnits="userSpaceOnUse" x="89" y="0" width="90" height="90">
<rect x="89" width="90" height="90" fill="#C4C4C4"/>
</mask>
<g mask="url(#mask0_772_774)">
<path fill-rule="evenodd" clip-rule="evenodd" d="M139.96 5.80417C149.924 7.42875 156.406 16.1233 162.701 24.0156C169.535 32.5826 177.821 41.3004 176.991 52.2276C176.113 63.7937 171.171 73.9127 161.398 80.1601C152.058 86.1302 137.728 85.8008 126.738 84.351C115.196 82.8284 102.444 81.1976 95.5752 71.7982C88.6591 62.3342 89.4851 49.2825 92.9212 38.0758C95.9436 28.2179 104.222 21.7003 112.724 15.8672C121.021 10.1751 130.03 4.18509 139.96 5.80417Z" fill="#EDF4DD"/>
<mask id="path-3-outside-1_772_774" maskUnits="userSpaceOnUse" x="109.951" y="23.1465" width="48" height="48" fill="black">
<rect fill="white" x="109.951" y="23.1465" width="48" height="48"/>
<path fill-rule="evenodd" clip-rule="evenodd" d="M156.507 27.5209L153.822 24.8424C153.602 24.6218 153.34 24.4468 153.052 24.3274C152.764 24.208 152.455 24.1465 152.143 24.1465C151.831 24.1465 151.523 24.208 151.235 24.3274C150.947 24.4468 150.685 24.6218 150.465 24.8424L143.143 32.1632V30.1213C143.145 29.8531 143.093 29.5872 142.989 29.3396C142.886 29.092 142.734 28.8677 142.543 28.68C142.354 28.4894 142.13 28.3382 141.882 28.2351C141.635 28.132 141.369 28.0791 141.101 28.0794H112.993C112.452 28.081 111.933 28.2967 111.551 28.6792C111.168 29.0618 110.952 29.5803 110.951 30.1213V66.0045C110.952 67.1667 111.415 68.2809 112.237 69.1027C113.059 69.9245 114.173 70.3869 115.335 70.3885H146.567H146.993C148.094 70.2514 149.106 69.7141 149.835 68.879C150.565 68.0439 150.963 66.9694 150.951 65.8603V60.5394C150.953 60.2712 150.9 60.0053 150.797 59.7577C150.694 59.5101 150.542 59.2858 150.35 59.0981C150.162 58.9075 149.937 58.7563 149.69 58.6532C149.443 58.5501 149.177 58.4972 148.909 58.4975H143.143V44.2644L156.507 30.884C156.947 30.435 157.193 29.8313 157.193 29.2025C157.193 28.5737 156.947 27.97 156.507 27.5209ZM146.621 30.0432L148.615 32.0431L135.167 45.4955L133.167 43.4957L146.621 30.0432ZM120.02 61.6204C119.878 61.6214 119.738 61.5943 119.607 61.5407C119.476 61.4871 119.357 61.4081 119.257 61.3081C119.156 61.2072 119.076 61.0873 119.021 60.9554C118.967 60.8235 118.939 60.6822 118.939 60.5394V54.2937C118.937 54.1682 118.887 54.0481 118.801 53.9573C118.71 53.8665 118.587 53.8147 118.458 53.8132C117.937 53.8129 117.427 53.6582 116.993 53.3686C116.559 53.079 116.22 52.6674 116.02 52.1857C115.869 51.8251 115.8 51.4354 115.819 51.045C115.837 50.6546 115.942 50.2731 116.126 49.9282C116.31 49.5833 116.568 49.2836 116.882 49.0509C117.196 48.8181 117.558 48.6581 117.942 48.5824C118.455 48.4808 118.986 48.5332 119.469 48.733C119.952 48.9329 120.365 49.2712 120.656 49.7054C120.946 50.1393 121.101 50.6492 121.101 51.1708V56.6358C121.099 56.8014 121.129 56.9658 121.191 57.1194C121.253 57.273 121.345 57.4128 121.461 57.5306C121.698 57.7648 122.017 57.8964 122.35 57.897H131.732C132.066 57.897 132.387 57.7641 132.624 57.5276C132.86 57.2911 132.993 56.9703 132.993 56.6358V51.1708C132.993 51.0259 133.005 50.8813 133.029 50.7384L133.065 50.5462L137.612 49.4051L137.732 49.5613C137.959 49.8513 138.121 50.1873 138.206 50.5462C138.35 51.1326 138.289 51.7508 138.032 52.2974C137.775 52.844 137.338 53.2858 136.795 53.549C136.435 53.7227 136.041 53.813 135.642 53.8132C135.513 53.816 135.391 53.8675 135.299 53.9573C135.255 54.0016 135.22 54.054 135.197 54.1117C135.173 54.1695 135.161 54.2313 135.161 54.2937V60.5394C135.161 60.6822 135.133 60.8235 135.078 60.9554C135.024 61.0873 134.944 61.2072 134.843 61.3081C134.742 61.4088 134.622 61.4883 134.49 61.5419C134.358 61.5955 134.217 61.6222 134.074 61.6204H120.02ZM133.594 62.5813V64.7433H129.87V62.5813H133.594ZM124.224 62.5813V64.7433H120.5V62.5813H124.224ZM130.506 50.0237C130.558 50.2138 130.657 50.3875 130.795 50.5282C130.901 50.6402 131.03 50.7282 131.173 50.7864C131.315 50.8397 131.466 50.8681 131.618 50.8705H131.708H132.068L132.032 51.2248V53.8132H122.062V51.1708C122.061 50.3411 121.773 49.5373 121.248 48.8951C120.723 48.2528 119.992 47.8114 119.179 47.6455L118.939 47.5975V47.2672C118.942 45.325 119.715 43.4632 121.088 42.0899C122.462 40.7165 124.324 39.9436 126.266 39.9404H127.828C129.709 39.9459 131.515 40.6749 132.873 41.9763L133.095 42.1865L132.38 42.9071C132.155 43.1327 131.995 43.4149 131.918 43.7239L130.488 49.4412C130.446 49.6339 130.453 49.834 130.506 50.0237ZM132.032 54.7741V56.9361H122.062V54.7741H132.032ZM131.365 49.9697L132.747 44.4205L136.903 48.5824L131.365 49.9697ZM115.335 69.4276C114.427 69.4276 113.556 69.067 112.914 68.425C112.272 67.7831 111.912 66.9124 111.912 66.0045V30.1213C111.913 29.8351 112.028 29.5611 112.23 29.3587C112.432 29.1563 112.707 29.0419 112.993 29.0403H141.101C141.387 29.0419 141.661 29.1563 141.864 29.3587C142.066 29.5611 142.181 29.8351 142.182 30.1213V33.1241L133.774 41.5319L133.564 41.3277C132.028 39.8311 129.972 38.9892 127.828 38.9795H126.266C124.069 38.9843 121.964 39.859 120.411 41.4122C118.857 42.9654 117.983 45.0706 117.978 47.2672V47.5975L117.665 47.6575C116.999 47.803 116.388 48.1365 115.906 48.6184C115.434 49.0876 115.105 49.6811 114.957 50.33C114.834 50.8635 114.834 51.418 114.957 51.9515C115.072 52.4875 115.31 52.9892 115.653 53.4168C116.18 54.0777 116.922 54.5326 117.75 54.702L117.99 54.7501V60.5394C117.986 60.9697 118.118 61.3902 118.368 61.7405C118.611 62.0836 118.956 62.342 119.353 62.4792L119.551 62.5513V64.443C119.551 64.7775 119.684 65.0983 119.921 65.3348C120.157 65.5713 120.478 65.7042 120.813 65.7042H123.936C124.27 65.7042 124.591 65.5713 124.828 65.3348C125.064 65.0983 125.197 64.7775 125.197 64.443V62.5813H128.921V64.443C128.917 64.6078 128.946 64.7717 129.006 64.9253C129.065 65.0788 129.155 65.2191 129.269 65.3379C129.506 65.572 129.825 65.7036 130.158 65.7042H133.281C133.447 65.7058 133.612 65.6743 133.766 65.6115C133.92 65.5487 134.059 65.4558 134.177 65.3384C134.294 65.221 134.387 65.0813 134.45 64.9276C134.513 64.7738 134.544 64.6091 134.542 64.443V62.5273L134.741 62.4552C135.139 62.3166 135.486 62.0581 135.732 61.7151C135.978 61.3722 136.112 60.9616 136.116 60.5394V54.7501L136.356 54.702C137.186 54.5365 137.929 54.0809 138.452 53.4168C138.795 52.9883 139.036 52.4871 139.155 51.9515C139.275 51.4197 139.275 50.8678 139.155 50.336C139.052 49.9041 138.867 49.4962 138.609 49.1349L138.464 48.9307L142.194 45.2013V66.0045C142.193 67.0837 142.591 68.1253 143.311 68.9292L143.756 69.4276H115.335ZM148.909 59.4584C149.195 59.46 149.469 59.5744 149.672 59.7768C149.874 59.9792 149.989 60.2532 149.99 60.5394V65.8363C150.011 66.7093 149.71 67.5594 149.144 68.2242C148.578 68.889 147.786 69.3217 146.921 69.4397H146.555C146.191 69.4392 145.83 69.3804 145.486 69.2655C144.803 69.0347 144.211 68.596 143.791 68.0112C143.37 67.4263 143.144 66.7246 143.143 66.0045V59.4584H148.909ZM137.846 48.174L135.876 46.1742L149.329 32.7217L151.329 34.7276L137.846 48.174ZM151.978 34.055L147.287 29.3646L149.45 27.2026L154.134 31.8809L151.978 34.055ZM155.822 30.2174L154.825 31.2143L150.14 26.536L151.143 25.5331C151.276 25.4014 151.433 25.2973 151.606 25.2268C151.775 25.1553 151.957 25.1185 152.14 25.1187C152.326 25.1185 152.51 25.1553 152.681 25.2268C152.851 25.2989 153.006 25.4029 153.137 25.5331L155.816 28.2116C156.081 28.4782 156.229 28.8387 156.229 29.2145C156.229 29.5903 156.081 29.9508 155.816 30.2174H155.822ZM124.315 48.77C124.564 48.77 124.766 48.5683 124.766 48.3196C124.766 48.0708 124.564 47.8691 124.315 47.8691C124.066 47.8691 123.865 48.0708 123.865 48.3196C123.865 48.5683 124.066 48.77 124.315 48.77ZM130.471 48.3196C130.471 48.5683 130.269 48.77 130.02 48.77C129.771 48.77 129.57 48.5683 129.57 48.3196C129.57 48.0708 129.771 47.8691 130.02 47.8691C130.269 47.8691 130.471 48.0708 130.471 48.3196Z"/>
</mask>
<path fill-rule="evenodd" clip-rule="evenodd" d="M156.507 27.5209L153.822 24.8424C153.602 24.6218 153.34 24.4468 153.052 24.3274C152.764 24.208 152.455 24.1465 152.143 24.1465C151.831 24.1465 151.523 24.208 151.235 24.3274C150.947 24.4468 150.685 24.6218 150.465 24.8424L143.143 32.1632V30.1213C143.145 29.8531 143.093 29.5872 142.989 29.3396C142.886 29.092 142.734 28.8677 142.543 28.68C142.354 28.4894 142.13 28.3382 141.882 28.2351C141.635 28.132 141.369 28.0791 141.101 28.0794H112.993C112.452 28.081 111.933 28.2967 111.551 28.6792C111.168 29.0618 110.952 29.5803 110.951 30.1213V66.0045C110.952 67.1667 111.415 68.2809 112.237 69.1027C113.059 69.9245 114.173 70.3869 115.335 70.3885H146.567H146.993C148.094 70.2514 149.106 69.7141 149.835 68.879C150.565 68.0439 150.963 66.9694 150.951 65.8603V60.5394C150.953 60.2712 150.9 60.0053 150.797 59.7577C150.694 59.5101 150.542 59.2858 150.35 59.0981C150.162 58.9075 149.937 58.7563 149.69 58.6532C149.443 58.5501 149.177 58.4972 148.909 58.4975H143.143V44.2644L156.507 30.884C156.947 30.435 157.193 29.8313 157.193 29.2025C157.193 28.5737 156.947 27.97 156.507 27.5209ZM146.621 30.0432L148.615 32.0431L135.167 45.4955L133.167 43.4957L146.621 30.0432ZM120.02 61.6204C119.878 61.6214 119.738 61.5943 119.607 61.5407C119.476 61.4871 119.357 61.4081 119.257 61.3081C119.156 61.2072 119.076 61.0873 119.021 60.9554C118.967 60.8235 118.939 60.6822 118.939 60.5394V54.2937C118.937 54.1682 118.887 54.0481 118.801 53.9573C118.71 53.8665 118.587 53.8147 118.458 53.8132C117.937 53.8129 117.427 53.6582 116.993 53.3686C116.559 53.079 116.22 52.6674 116.02 52.1857C115.869 51.8251 115.8 51.4354 115.819 51.045C115.837 50.6546 115.942 50.2731 116.126 49.9282C116.31 49.5833 116.568 49.2836 116.882 49.0509C117.196 48.8181 117.558 48.6581 117.942 48.5824C118.455 48.4808 118.986 48.5332 119.469 48.733C119.952 48.9329 120.365 49.2712 120.656 49.7054C120.946 50.1393 121.101 50.6492 121.101 51.1708V56.6358C121.099 56.8014 121.129 56.9658 121.191 57.1194C121.253 57.273 121.345 57.4128 121.461 57.5306C121.698 57.7648 122.017 57.8964 122.35 57.897H131.732C132.066 57.897 132.387 57.7641 132.624 57.5276C132.86 57.2911 132.993 56.9703 132.993 56.6358V51.1708C132.993 51.0259 133.005 50.8813 133.029 50.7384L133.065 50.5462L137.612 49.4051L137.732 49.5613C137.959 49.8513 138.121 50.1873 138.206 50.5462C138.35 51.1326 138.289 51.7508 138.032 52.2974C137.775 52.844 137.338 53.2858 136.795 53.549C136.435 53.7227 136.041 53.813 135.642 53.8132C135.513 53.816 135.391 53.8675 135.299 53.9573C135.255 54.0016 135.22 54.054 135.197 54.1117C135.173 54.1695 135.161 54.2313 135.161 54.2937V60.5394C135.161 60.6822 135.133 60.8235 135.078 60.9554C135.024 61.0873 134.944 61.2072 134.843 61.3081C134.742 61.4088 134.622 61.4883 134.49 61.5419C134.358 61.5955 134.217 61.6222 134.074 61.6204H120.02ZM133.594 62.5813V64.7433H129.87V62.5813H133.594ZM124.224 62.5813V64.7433H120.5V62.5813H124.224ZM130.506 50.0237C130.558 50.2138 130.657 50.3875 130.795 50.5282C130.901 50.6402 131.03 50.7282 131.173 50.7864C131.315 50.8397 131.466 50.8681 131.618 50.8705H131.708H132.068L132.032 51.2248V53.8132H122.062V51.1708C122.061 50.3411 121.773 49.5373 121.248 48.8951C120.723 48.2528 119.992 47.8114 119.179 47.6455L118.939 47.5975V47.2672C118.942 45.325 119.715 43.4632 121.088 42.0899C122.462 40.7165 124.324 39.9436 126.266 39.9404H127.828C129.709 39.9459 131.515 40.6749 132.873 41.9763L133.095 42.1865L132.38 42.9071C132.155 43.1327 131.995 43.4149 131.918 43.7239L130.488 49.4412C130.446 49.6339 130.453 49.834 130.506 50.0237ZM132.032 54.7741V56.9361H122.062V54.7741H132.032ZM131.365 49.9697L132.747 44.4205L136.903 48.5824L131.365 49.9697ZM115.335 69.4276C114.427 69.4276 113.556 69.067 112.914 68.425C112.272 67.7831 111.912 66.9124 111.912 66.0045V30.1213C111.913 29.8351 112.028 29.5611 112.23 29.3587C112.432 29.1563 112.707 29.0419 112.993 29.0403H141.101C141.387 29.0419 141.661 29.1563 141.864 29.3587C142.066 29.5611 142.181 29.8351 142.182 30.1213V33.1241L133.774 41.5319L133.564 41.3277C132.028 39.8311 129.972 38.9892 127.828 38.9795H126.266C124.069 38.9843 121.964 39.859 120.411 41.4122C118.857 42.9654 117.983 45.0706 117.978 47.2672V47.5975L117.665 47.6575C116.999 47.803 116.388 48.1365 115.906 48.6184C115.434 49.0876 115.105 49.6811 114.957 50.33C114.834 50.8635 114.834 51.418 114.957 51.9515C115.072 52.4875 115.31 52.9892 115.653 53.4168C116.18 54.0777 116.922 54.5326 117.75 54.702L117.99 54.7501V60.5394C117.986 60.9697 118.118 61.3902 118.368 61.7405C118.611 62.0836 118.956 62.342 119.353 62.4792L119.551 62.5513V64.443C119.551 64.7775 119.684 65.0983 119.921 65.3348C120.157 65.5713 120.478 65.7042 120.813 65.7042H123.936C124.27 65.7042 124.591 65.5713 124.828 65.3348C125.064 65.0983 125.197 64.7775 125.197 64.443V62.5813H128.921V64.443C128.917 64.6078 128.946 64.7717 129.006 64.9253C129.065 65.0788 129.155 65.2191 129.269 65.3379C129.506 65.572 129.825 65.7036 130.158 65.7042H133.281C133.447 65.7058 133.612 65.6743 133.766 65.6115C133.92 65.5487 134.059 65.4558 134.177 65.3384C134.294 65.221 134.387 65.0813 134.45 64.9276C134.513 64.7738 134.544 64.6091 134.542 64.443V62.5273L134.741 62.4552C135.139 62.3166 135.486 62.0581 135.732 61.7151C135.978 61.3722 136.112 60.9616 136.116 60.5394V54.7501L136.356 54.702C137.186 54.5365 137.929 54.0809 138.452 53.4168C138.795 52.9883 139.036 52.4871 139.155 51.9515C139.275 51.4197 139.275 50.8678 139.155 50.336C139.052 49.9041 138.867 49.4962 138.609 49.1349L138.464 48.9307L142.194 45.2013V66.0045C142.193 67.0837 142.591 68.1253 143.311 68.9292L143.756 69.4276H115.335ZM148.909 59.4584C149.195 59.46 149.469 59.5744 149.672 59.7768C149.874 59.9792 149.989 60.2532 149.99 60.5394V65.8363C150.011 66.7093 149.71 67.5594 149.144 68.2242C148.578 68.889 147.786 69.3217 146.921 69.4397H146.555C146.191 69.4392 145.83 69.3804 145.486 69.2655C144.803 69.0347 144.211 68.596 143.791 68.0112C143.37 67.4263 143.144 66.7246 143.143 66.0045V59.4584H148.909ZM137.846 48.174L135.876 46.1742L149.329 32.7217L151.329 34.7276L137.846 48.174ZM151.978 34.055L147.287 29.3646L149.45 27.2026L154.134 31.8809L151.978 34.055ZM155.822 30.2174L154.825 31.2143L150.14 26.536L151.143 25.5331C151.276 25.4014 151.433 25.2973 151.606 25.2268C151.775 25.1553 151.957 25.1185 152.14 25.1187C152.326 25.1185 152.51 25.1553 152.681 25.2268C152.851 25.2989 153.006 25.4029 153.137 25.5331L155.816 28.2116C156.081 28.4782 156.229 28.8387 156.229 29.2145C156.229 29.5903 156.081 29.9508 155.816 30.2174H155.822ZM124.315 48.77C124.564 48.77 124.766 48.5683 124.766 48.3196C124.766 48.0708 124.564 47.8691 124.315 47.8691C124.066 47.8691 123.865 48.0708 123.865 48.3196C123.865 48.5683 124.066 48.77 124.315 48.77ZM130.471 48.3196C130.471 48.5683 130.269 48.77 130.02 48.77C129.771 48.77 129.57 48.5683 129.57 48.3196C129.57 48.0708 129.771 47.8691 130.02 47.8691C130.269 47.8691 130.471 48.0708 130.471 48.3196Z" fill="#325837"/>
<path d="M153.822 24.8424L153.68 24.9838L153.681 24.984L153.822 24.8424ZM156.507 27.5209L156.649 27.3809L156.648 27.3793L156.507 27.5209ZM153.052 24.3274L153.128 24.1426L153.128 24.1426L153.052 24.3274ZM151.235 24.3274L151.311 24.5121L151.311 24.5121L151.235 24.3274ZM150.465 24.8424L150.606 24.9839L150.606 24.9838L150.465 24.8424ZM143.143 32.1632H142.943V32.646L143.285 32.3046L143.143 32.1632ZM143.143 30.1213L142.943 30.1201V30.1213H143.143ZM142.989 29.3396L143.174 29.2627L143.174 29.2627L142.989 29.3396ZM142.543 28.68L142.4 28.8207L142.403 28.8229L142.543 28.68ZM141.882 28.2351L141.959 28.0505L141.959 28.0505L141.882 28.2351ZM141.101 28.0794L141.101 28.2794L141.101 28.2794L141.101 28.0794ZM112.993 28.0794V27.8794L112.992 27.8794L112.993 28.0794ZM111.551 28.6792L111.409 28.5378L111.409 28.5378L111.551 28.6792ZM110.951 30.1213L110.751 30.1207V30.1213H110.951ZM110.951 66.0045L110.751 66.0045L110.751 66.0047L110.951 66.0045ZM112.237 69.1027L112.095 69.2441L112.095 69.2441L112.237 69.1027ZM115.335 70.3885L115.335 70.5885H115.335V70.3885ZM146.993 70.3885V70.5885H147.005L147.018 70.587L146.993 70.3885ZM150.951 65.8603H150.751L150.751 65.8624L150.951 65.8603ZM150.951 60.5394L150.751 60.5382V60.5394H150.951ZM150.797 59.7577L150.982 59.6808L150.982 59.6808L150.797 59.7577ZM150.35 59.0981L150.208 59.2388L150.211 59.241L150.35 59.0981ZM149.69 58.6532L149.613 58.8378L149.613 58.8378L149.69 58.6532ZM148.909 58.4975V58.6975L148.909 58.6975L148.909 58.4975ZM143.143 58.4975H142.943V58.6975H143.143V58.4975ZM143.143 44.2644L143.002 44.1231L142.943 44.1816V44.2644H143.143ZM156.507 30.884L156.648 31.0254L156.649 31.024L156.507 30.884ZM148.615 32.0431L148.756 32.1845L148.897 32.0433L148.756 31.9019L148.615 32.0431ZM146.621 30.0432L146.762 29.902L146.621 29.7602L146.479 29.9018L146.621 30.0432ZM135.167 45.4955L135.026 45.637L135.167 45.7784L135.309 45.6369L135.167 45.4955ZM133.167 43.4957L133.026 43.3543L132.884 43.4957L133.026 43.6371L133.167 43.4957ZM120.02 61.6204V61.4204L120.018 61.4204L120.02 61.6204ZM119.257 61.3081L119.116 61.4496L119.116 61.4497L119.257 61.3081ZM119.021 60.9554L118.837 61.032L118.837 61.032L119.021 60.9554ZM118.939 60.5394L119.139 60.5395V60.5394H118.939ZM118.939 54.2937H119.139L119.139 54.2904L118.939 54.2937ZM118.801 53.9573L118.945 53.8191L118.942 53.8159L118.801 53.9573ZM118.458 53.8132L118.461 53.6132L118.458 53.6132L118.458 53.8132ZM116.993 53.3686L116.882 53.5349L116.882 53.5349L116.993 53.3686ZM116.02 52.1857L116.204 52.1089L116.204 52.1086L116.02 52.1857ZM115.819 51.045L116.018 51.0544L116.018 51.0544L115.819 51.045ZM116.126 49.9282L115.95 49.8341L115.95 49.8341L116.126 49.9282ZM116.882 49.0509L116.763 48.8902L116.763 48.8902L116.882 49.0509ZM117.942 48.5824L117.98 48.7786L117.981 48.7786L117.942 48.5824ZM120.656 49.7054L120.823 49.5944L120.823 49.594L120.656 49.7054ZM121.101 51.1708L121.301 51.1708L121.301 51.1707L121.101 51.1708ZM121.101 56.6358L121.301 56.6385V56.6358H121.101ZM121.191 57.1194L121.006 57.1941L121.006 57.1941L121.191 57.1194ZM121.461 57.5306L121.319 57.6712L121.321 57.6728L121.461 57.5306ZM122.35 57.897L122.35 58.097H122.35V57.897ZM132.993 51.1708L132.793 51.1707V51.1708H132.993ZM133.029 50.7384L132.832 50.7015L132.832 50.7053L133.029 50.7384ZM133.065 50.5462L133.016 50.3522L132.892 50.3834L132.868 50.5093L133.065 50.5462ZM137.612 49.4051L137.77 49.2832L137.69 49.1792L137.563 49.2112L137.612 49.4051ZM137.732 49.5613L137.573 49.6832L137.574 49.6848L137.732 49.5613ZM138.206 50.5462L138.012 50.5922L138.012 50.594L138.206 50.5462ZM136.795 53.549L136.882 53.7291L136.882 53.729L136.795 53.549ZM135.642 53.8132L135.641 53.6132L135.637 53.6133L135.642 53.8132ZM135.299 53.9573L135.159 53.8145L135.157 53.8163L135.299 53.9573ZM135.197 54.1117L135.382 54.1877L135.382 54.1877L135.197 54.1117ZM135.161 54.2937L135.361 54.2937L135.361 54.293L135.161 54.2937ZM135.161 60.5394L134.961 60.5394L134.961 60.5395L135.161 60.5394ZM135.078 60.9554L135.263 61.032L135.263 61.032L135.078 60.9554ZM134.843 61.3081L134.984 61.4497L134.984 61.4496L134.843 61.3081ZM134.49 61.5419L134.565 61.7272L134.565 61.7272L134.49 61.5419ZM134.074 61.6204L134.077 61.4204H134.074V61.6204ZM133.594 64.7433V64.9433H133.794V64.7433H133.594ZM133.594 62.5813H133.794V62.3813H133.594V62.5813ZM129.87 64.7433H129.67V64.9433H129.87V64.7433ZM129.87 62.5813V62.3813H129.67V62.5813H129.87ZM124.224 64.7433V64.9433H124.424V64.7433H124.224ZM124.224 62.5813H124.424V62.3813H124.224V62.5813ZM120.5 64.7433H120.3V64.9433H120.5V64.7433ZM120.5 62.5813V62.3813H120.3V62.5813H120.5ZM130.795 50.5282L130.94 50.3904L130.938 50.3882L130.795 50.5282ZM130.506 50.0237L130.7 49.9717L130.699 49.9692L130.506 50.0237ZM131.173 50.7864L131.098 50.9717L131.103 50.9737L131.173 50.7864ZM131.618 50.8705L131.614 51.0705H131.618V50.8705ZM132.068 50.8705L132.267 50.8907L132.289 50.6705H132.068V50.8705ZM132.032 51.2248L131.833 51.2046L131.832 51.2147V51.2248H132.032ZM132.032 53.8132V54.0132H132.232V53.8132H132.032ZM122.062 53.8132H121.862V54.0132H122.062V53.8132ZM122.062 51.1708H122.262L122.262 51.1705L122.062 51.1708ZM121.248 48.8951L121.093 49.0217L121.093 49.0217L121.248 48.8951ZM119.179 47.6455L119.219 47.4496L119.218 47.4494L119.179 47.6455ZM118.939 47.5975H118.739V47.7614L118.9 47.7936L118.939 47.5975ZM118.939 47.2672L118.739 47.2668V47.2672H118.939ZM126.266 39.9404L126.266 39.7404L126.266 39.7404L126.266 39.9404ZM127.828 39.9404L127.828 39.7404H127.828V39.9404ZM132.873 41.9763L132.734 42.1207L132.735 42.1216L132.873 41.9763ZM133.095 42.1865L133.237 42.3273L133.381 42.1819L133.232 42.0412L133.095 42.1865ZM132.38 42.9071L132.522 43.0484L132.522 43.048L132.38 42.9071ZM131.918 43.7239L131.724 43.6752L131.724 43.6754L131.918 43.7239ZM130.488 49.4412L130.294 49.3926L130.293 49.3987L130.488 49.4412ZM132.032 56.9361V57.1361H132.232V56.9361H132.032ZM132.032 54.7741H132.232V54.5741H132.032V54.7741ZM122.062 56.9361H121.862V57.1361H122.062V56.9361ZM122.062 54.7741V54.5741H121.862V54.7741H122.062ZM132.747 44.4205L132.888 44.2792L132.638 44.0288L132.553 44.3722L132.747 44.4205ZM131.365 49.9697L131.171 49.9213L131.091 50.2446L131.414 50.1637L131.365 49.9697ZM136.903 48.5824L136.951 48.7764L137.294 48.6907L137.044 48.4411L136.903 48.5824ZM112.914 68.425L112.773 68.5664L112.773 68.5664L112.914 68.425ZM111.912 30.1213L111.712 30.1202V30.1213H111.912ZM112.993 29.0403V28.8403L112.992 28.8403L112.993 29.0403ZM141.101 29.0403L141.102 28.8403H141.101V29.0403ZM141.864 29.3587L141.722 29.5001L141.722 29.5001L141.864 29.3587ZM142.182 30.1213L142.382 30.1213L142.382 30.1202L142.182 30.1213ZM142.182 33.1241L142.324 33.2655L142.382 33.2069V33.1241H142.182ZM133.774 41.5319L133.634 41.6753L133.776 41.8127L133.915 41.6733L133.774 41.5319ZM133.564 41.3277L133.424 41.4709L133.424 41.4711L133.564 41.3277ZM127.828 38.9795L127.829 38.7795H127.828V38.9795ZM126.266 38.9795V38.7795L126.266 38.7795L126.266 38.9795ZM120.411 41.4122L120.269 41.2707L120.411 41.4122ZM117.978 47.2672L117.778 47.2667V47.2672H117.978ZM117.978 47.5975L118.016 47.7939L118.178 47.7627V47.5975H117.978ZM117.665 47.6575L117.628 47.4611L117.623 47.4621L117.665 47.6575ZM115.906 48.6184L116.047 48.7603L116.047 48.7599L115.906 48.6184ZM114.957 50.33L115.152 50.375L115.152 50.3744L114.957 50.33ZM114.957 51.9515L115.152 51.9095L115.152 51.9065L114.957 51.9515ZM115.653 53.4168L115.81 53.2922L115.809 53.2917L115.653 53.4168ZM117.75 54.702L117.709 54.898L117.71 54.8982L117.75 54.702ZM117.99 54.7501H118.19V54.5861L118.029 54.554L117.99 54.7501ZM117.99 60.5394L118.19 60.5413V60.5394H117.99ZM118.368 61.7405L118.531 61.6249L118.531 61.6244L118.368 61.7405ZM119.353 62.4792L119.422 62.2912L119.418 62.2902L119.353 62.4792ZM119.551 62.5513H119.751V62.4112L119.62 62.3633L119.551 62.5513ZM119.921 65.3348L120.062 65.1934L120.062 65.1934L119.921 65.3348ZM124.828 65.3348L124.969 65.4762L124.969 65.4762L124.828 65.3348ZM125.197 62.5813V62.3813H124.997V62.5813H125.197ZM128.921 62.5813H129.121V62.3813H128.921V62.5813ZM128.921 64.443L129.121 64.4477V64.443H128.921ZM129.006 64.9253L129.192 64.8527L129.192 64.8527L129.006 64.9253ZM129.269 65.3379L129.125 65.4765L129.129 65.48L129.269 65.3379ZM130.158 65.7042L130.158 65.9042H130.158V65.7042ZM133.281 65.7042L133.283 65.5042H133.281V65.7042ZM134.542 64.443H134.342L134.343 64.445L134.542 64.443ZM134.542 62.5273L134.474 62.3393L134.342 62.3872V62.5273H134.542ZM134.741 62.4552L134.675 62.2663L134.672 62.2672L134.741 62.4552ZM136.116 60.5394L136.316 60.5412V60.5394H136.116ZM136.116 54.7501L136.077 54.554L135.916 54.5861V54.7501H136.116ZM136.356 54.702L136.317 54.5059L136.317 54.5059L136.356 54.702ZM138.452 53.4168L138.296 53.2919L138.295 53.293L138.452 53.4168ZM139.155 51.9515L138.96 51.9075L138.96 51.9079L139.155 51.9515ZM139.155 50.336L139.35 50.292L139.35 50.2897L139.155 50.336ZM138.609 49.1349L138.445 49.2502L138.446 49.2511L138.609 49.1349ZM138.464 48.9307L138.323 48.7893L138.204 48.9084L138.301 49.046L138.464 48.9307ZM142.194 45.2013H142.394V44.7184L142.053 45.0598L142.194 45.2013ZM142.194 66.0045L142.394 66.0046V66.0045H142.194ZM143.311 68.9292L143.461 68.7961L143.46 68.7957L143.311 68.9292ZM143.756 69.4276V69.6276H144.202L143.905 69.2945L143.756 69.4276ZM149.672 59.7768L149.53 59.9182L149.672 59.7768ZM148.909 59.4584L148.91 59.2584H148.909V59.4584ZM149.99 60.5394L150.19 60.5394L150.19 60.5383L149.99 60.5394ZM149.99 65.8363H149.79L149.79 65.8412L149.99 65.8363ZM149.144 68.2242L148.992 68.0945L148.992 68.0945L149.144 68.2242ZM146.921 69.4397V69.6397H146.935L146.948 69.6378L146.921 69.4397ZM146.555 69.4397L146.554 69.6397H146.555V69.4397ZM145.486 69.2655L145.421 69.4549L145.422 69.4552L145.486 69.2655ZM143.791 68.0112L143.628 68.1278L143.628 68.1278L143.791 68.0112ZM143.143 66.0045H142.943L142.943 66.0047L143.143 66.0045ZM143.143 59.4584V59.2584H142.943V59.4584H143.143ZM135.876 46.1742L135.734 46.0327L135.594 46.1731L135.733 46.3145L135.876 46.1742ZM137.846 48.174L137.703 48.3144L137.845 48.4577L137.987 48.3156L137.846 48.174ZM149.329 32.7217L149.471 32.5805L149.33 32.4387L149.188 32.5803L149.329 32.7217ZM151.329 34.7276L151.471 34.8692L151.612 34.728L151.471 34.5864L151.329 34.7276ZM147.287 29.3646L147.146 29.2232L147.005 29.3646L147.146 29.506L147.287 29.3646ZM151.978 34.055L151.837 34.1964L151.979 34.3384L152.12 34.1958L151.978 34.055ZM149.45 27.2026L149.591 27.0611L149.449 26.9199L149.308 27.0612L149.45 27.2026ZM154.134 31.8809L154.276 32.0218L154.417 31.8803L154.276 31.7394L154.134 31.8809ZM154.825 31.2143L154.684 31.3558L154.825 31.4971L154.966 31.3558L154.825 31.2143ZM155.822 30.2174L155.963 30.3588L156.305 30.0174H155.822V30.2174ZM150.14 26.536L149.999 26.3946L149.857 26.5361L149.999 26.6775L150.14 26.536ZM151.143 25.5331L151.002 25.3913L151.002 25.3917L151.143 25.5331ZM151.606 25.2268L151.681 25.412L151.684 25.411L151.606 25.2268ZM152.14 25.1187L152.14 25.3187L152.14 25.3187L152.14 25.1187ZM152.681 25.2268L152.759 25.0426L152.758 25.0422L152.681 25.2268ZM153.137 25.5331L153.279 25.3917L153.278 25.3911L153.137 25.5331ZM155.816 28.2116L155.958 28.0706L155.957 28.0701L155.816 28.2116ZM155.816 30.2174L155.674 30.0765L155.335 30.4174H155.816V30.2174ZM153.681 24.984L156.365 27.6625L156.648 27.3793L153.963 24.7009L153.681 24.984ZM152.975 24.5121C153.239 24.6215 153.479 24.7817 153.68 24.9838L153.963 24.7011C153.725 24.4619 153.441 24.2721 153.128 24.1426L152.975 24.5121ZM152.143 24.3465C152.429 24.3465 152.712 24.4028 152.975 24.5121L153.128 24.1426C152.816 24.0131 152.481 23.9465 152.143 23.9465V24.3465ZM151.311 24.5121C151.575 24.4028 151.858 24.3465 152.143 24.3465V23.9465C151.805 23.9465 151.47 24.0131 151.158 24.1426L151.311 24.5121ZM150.606 24.9838C150.808 24.7817 151.047 24.6215 151.311 24.5121L151.158 24.1426C150.846 24.2721 150.562 24.4619 150.323 24.7011L150.606 24.9838ZM143.285 32.3046L150.606 24.9839L150.323 24.701L143.002 32.0218L143.285 32.3046ZM142.943 30.1213V32.1632H143.343V30.1213H142.943ZM142.805 29.4165C142.898 29.6394 142.945 29.8787 142.943 30.1201L143.343 30.1226C143.345 29.8275 143.287 29.5351 143.174 29.2627L142.805 29.4165ZM142.403 28.8229C142.575 28.9918 142.712 29.1937 142.805 29.4165L143.174 29.2627C143.06 28.9903 142.893 28.7435 142.682 28.5371L142.403 28.8229ZM141.805 28.4197C142.028 28.5126 142.23 28.6489 142.4 28.8206L142.685 28.5393C142.478 28.3299 142.231 28.1638 141.959 28.0505L141.805 28.4197ZM141.101 28.2794C141.343 28.2791 141.582 28.3268 141.805 28.4197L141.959 28.0505C141.687 27.9372 141.395 27.8791 141.101 27.8794L141.101 28.2794ZM112.993 28.2794H141.101V27.8794H112.993V28.2794ZM111.692 28.8207C112.037 28.4754 112.505 28.2809 112.993 28.2794L112.992 27.8794C112.398 27.8812 111.829 28.1179 111.409 28.5378L111.692 28.8207ZM111.151 30.1219C111.152 29.6337 111.347 29.1659 111.692 28.8207L111.409 28.5378C110.989 28.9578 110.752 29.5268 110.751 30.1207L111.151 30.1219ZM111.151 66.0045V30.1213H110.751V66.0045H111.151ZM112.378 68.9613C111.594 68.1769 111.152 67.1135 111.151 66.0042L110.751 66.0047C110.752 67.2199 111.236 68.3849 112.095 69.2441L112.378 68.9613ZM115.335 70.1885C114.226 70.187 113.162 69.7457 112.378 68.9613L112.095 69.2441C112.955 70.1034 114.12 70.5869 115.335 70.5885L115.335 70.1885ZM146.567 70.1885H115.335V70.5885H146.567V70.1885ZM146.993 70.1885H146.567V70.5885H146.993V70.1885ZM149.685 68.7474C148.987 69.5455 148.02 70.059 146.968 70.1901L147.018 70.587C148.167 70.4438 149.224 69.8827 149.986 69.0106L149.685 68.7474ZM150.751 65.8624C150.762 66.9223 150.383 67.9493 149.685 68.7474L149.986 69.0106C150.748 68.1385 151.163 67.0165 151.151 65.8583L150.751 65.8624ZM150.751 60.5394V65.8603H151.151V60.5394H150.751ZM150.613 59.8347C150.705 60.0575 150.753 60.2968 150.751 60.5382L151.151 60.5407C151.153 60.2456 151.095 59.9532 150.982 59.6808L150.613 59.8347ZM150.211 59.241C150.383 59.4099 150.52 59.6118 150.613 59.8347L150.982 59.6808C150.868 59.4084 150.701 59.1617 150.49 58.9552L150.211 59.241ZM149.613 58.8378C149.836 58.9307 150.038 59.067 150.208 59.2388L150.493 58.9574C150.285 58.748 150.039 58.5819 149.767 58.4686L149.613 58.8378ZM148.909 58.6975C149.151 58.6972 149.39 58.7449 149.613 58.8378L149.767 58.4686C149.495 58.3553 149.203 58.2972 148.909 58.2975L148.909 58.6975ZM143.143 58.6975H148.909V58.2975H143.143V58.6975ZM142.943 44.2644V58.4975H143.343V44.2644H142.943ZM156.365 30.7427L143.002 44.1231L143.285 44.4057L156.648 31.0254L156.365 30.7427ZM156.993 29.2025C156.993 29.7789 156.767 30.3324 156.364 30.744L156.649 31.024C157.126 30.5376 157.393 29.8836 157.393 29.2025H156.993ZM156.364 27.6609C156.767 28.0726 156.993 28.626 156.993 29.2025H157.393C157.393 28.5213 157.126 27.8673 156.649 27.3809L156.364 27.6609ZM148.756 31.9019L146.762 29.902L146.479 30.1845L148.473 32.1843L148.756 31.9019ZM135.309 45.6369L148.756 32.1845L148.473 31.9017L135.026 45.3541L135.309 45.6369ZM133.026 43.6371L135.026 45.637L135.309 45.3541L133.309 43.3543L133.026 43.6371ZM146.479 29.9018L133.026 43.3543L133.309 43.6371L146.762 30.1847L146.479 29.9018ZM119.531 61.7258C119.687 61.7895 119.853 61.8216 120.021 61.8204L120.018 61.4204C119.903 61.4213 119.789 61.3992 119.683 61.3557L119.531 61.7258ZM119.116 61.4497C119.235 61.5683 119.376 61.6622 119.531 61.7258L119.683 61.3557C119.576 61.3121 119.48 61.2478 119.398 61.1666L119.116 61.4497ZM118.837 61.032C118.901 61.1881 118.996 61.33 119.116 61.4496L119.398 61.1667C119.316 61.0843 119.251 60.9865 119.206 60.8789L118.837 61.032ZM118.739 60.5394C118.739 60.7084 118.772 60.8758 118.837 61.032L119.206 60.8789C119.162 60.7713 119.139 60.6559 119.139 60.5395L118.739 60.5394ZM118.739 54.2937V60.5394H119.139V54.2937H118.739ZM118.656 54.0956C118.708 54.1499 118.738 54.2218 118.739 54.2969L119.139 54.2904C119.136 54.1145 119.067 53.9462 118.945 53.8191L118.656 54.0956ZM118.456 54.0132C118.532 54.0141 118.605 54.0448 118.659 54.0988L118.942 53.8159C118.814 53.6881 118.641 53.6154 118.461 53.6132L118.456 54.0132ZM116.882 53.5349C117.348 53.8465 117.897 54.0129 118.458 54.0132L118.458 53.6132C117.976 53.6129 117.505 53.4699 117.104 53.2022L116.882 53.5349ZM115.835 52.2625C116.051 52.7807 116.415 53.2234 116.882 53.5349L117.104 53.2022C116.703 52.9345 116.39 52.5541 116.204 52.1089L115.835 52.2625ZM115.619 51.0356C115.599 51.4557 115.673 51.8749 115.835 52.2629L116.204 52.1086C116.065 51.7753 116.002 51.4152 116.018 51.0544L115.619 51.0356ZM115.95 49.8341C115.752 50.2051 115.639 50.6155 115.619 51.0356L116.018 51.0544C116.035 50.6936 116.132 50.3411 116.302 50.0223L115.95 49.8341ZM116.763 48.8902C116.425 49.1406 116.147 49.463 115.95 49.8341L116.302 50.0223C116.472 49.7036 116.711 49.4267 117.001 49.2116L116.763 48.8902ZM117.903 48.3862C117.49 48.4676 117.101 48.6398 116.763 48.8902L117.001 49.2116C117.292 48.9965 117.626 48.8486 117.98 48.7786L117.903 48.3862ZM119.546 48.5482C119.026 48.3333 118.454 48.2769 117.903 48.3862L117.981 48.7786C118.455 48.6846 118.946 48.7331 119.393 48.9179L119.546 48.5482ZM120.823 49.594C120.509 49.127 120.065 48.7632 119.546 48.5482L119.393 48.9179C119.839 49.1026 120.221 49.4154 120.49 49.8168L120.823 49.594ZM121.301 51.1707C121.301 50.6096 121.134 50.0611 120.823 49.5944L120.49 49.8164C120.758 50.2175 120.901 50.6887 120.901 51.1709L121.301 51.1707ZM121.301 56.6358V51.1708H120.901V56.6358H121.301ZM121.377 57.0447C121.325 56.9157 121.299 56.7776 121.301 56.6385L120.901 56.6331C120.898 56.8252 120.934 57.0159 121.006 57.1941L121.377 57.0447ZM121.604 57.3901C121.506 57.2911 121.429 57.1737 121.377 57.0447L121.006 57.1941C121.077 57.3724 121.184 57.5345 121.319 57.6712L121.604 57.3901ZM122.351 57.697C122.07 57.6965 121.801 57.5856 121.602 57.3885L121.321 57.6728C121.595 57.9439 121.964 58.0963 122.35 58.097L122.351 57.697ZM131.732 57.697H122.35V58.097H131.732V57.697ZM132.482 57.3862C132.283 57.5852 132.013 57.697 131.732 57.697V58.097C132.119 58.097 132.491 57.943 132.765 57.669L132.482 57.3862ZM132.793 56.6358C132.793 56.9173 132.681 57.1872 132.482 57.3862L132.765 57.669C133.039 57.395 133.193 57.0234 133.193 56.6358H132.793ZM132.793 51.1708V56.6358H133.193V51.1708H132.793ZM132.832 50.7053C132.806 50.8591 132.793 51.0148 132.793 51.1707L133.193 51.1708C133.193 51.037 133.204 50.9034 133.226 50.7714L132.832 50.7053ZM132.868 50.5093L132.832 50.7015L133.226 50.7752L133.262 50.5831L132.868 50.5093ZM137.563 49.2112L133.016 50.3522L133.114 50.7402L137.66 49.5991L137.563 49.2112ZM137.89 49.4393L137.77 49.2832L137.453 49.5271L137.573 49.6832L137.89 49.4393ZM138.401 50.5002C138.309 50.1131 138.135 49.7506 137.889 49.4377L137.574 49.6848C137.784 49.952 137.933 50.2616 138.012 50.5922L138.401 50.5002ZM138.213 52.3825C138.49 51.7945 138.556 51.1294 138.4 50.4984L138.012 50.594C138.145 51.1359 138.089 51.7072 137.851 52.2123L138.213 52.3825ZM136.882 53.729C137.467 53.4459 137.937 52.9705 138.213 52.3825L137.851 52.2123C137.614 52.7175 137.21 53.1258 136.708 53.369L136.882 53.729ZM135.642 54.0132C136.071 54.013 136.495 53.9158 136.882 53.7291L136.708 53.3689C136.375 53.5295 136.011 53.613 135.641 53.6132L135.642 54.0132ZM135.439 54.1002C135.495 54.0459 135.568 54.0148 135.646 54.0132L135.637 53.6133C135.458 53.6171 135.287 53.6891 135.159 53.8145L135.439 54.1002ZM135.382 54.1877C135.395 54.1544 135.416 54.124 135.441 54.0984L135.157 53.8163C135.095 53.8791 135.045 53.9537 135.012 54.0358L135.382 54.1877ZM135.361 54.293C135.361 54.2569 135.368 54.2211 135.382 54.1877L135.012 54.0358C134.978 54.1178 134.961 54.2057 134.961 54.2944L135.361 54.293ZM135.361 60.5394V54.2937H134.961V60.5394H135.361ZM135.263 61.032C135.328 60.8758 135.361 60.7084 135.361 60.5394L134.961 60.5395C134.961 60.6559 134.938 60.7713 134.894 60.8789L135.263 61.032ZM134.984 61.4496C135.104 61.33 135.199 61.1881 135.263 61.032L134.894 60.8789C134.849 60.9866 134.784 61.0843 134.701 61.1667L134.984 61.4496ZM134.565 61.7272C134.722 61.6635 134.864 61.5692 134.984 61.4497L134.702 61.1666C134.62 61.2484 134.522 61.313 134.415 61.3566L134.565 61.7272ZM134.071 61.8204C134.241 61.8226 134.408 61.7909 134.565 61.7272L134.415 61.3566C134.307 61.4002 134.192 61.4219 134.077 61.4204L134.071 61.8204ZM120.02 61.8204H134.074V61.4204H120.02V61.8204ZM133.794 64.7433V62.5813H133.394V64.7433H133.794ZM129.87 64.9433H133.594V64.5433H129.87V64.9433ZM129.67 62.5813V64.7433H130.07V62.5813H129.67ZM133.594 62.3813H129.87V62.7813H133.594V62.3813ZM124.424 64.7433V62.5813H124.024V64.7433H124.424ZM120.5 64.9433H124.224V64.5433H120.5V64.9433ZM120.3 62.5813V64.7433H120.7V62.5813H120.3ZM124.224 62.3813H120.5V62.7813H124.224V62.3813ZM130.938 50.3882C130.824 50.2721 130.742 50.1287 130.7 49.9717L130.313 50.0757C130.373 50.299 130.49 50.503 130.652 50.6682L130.938 50.3882ZM131.248 50.6012C131.132 50.5537 131.027 50.4818 130.94 50.3904L130.65 50.6659C130.776 50.7985 130.928 50.9027 131.098 50.9717L131.248 50.6012ZM131.621 50.6705C131.492 50.6685 131.364 50.6443 131.243 50.5991L131.103 50.9737C131.267 51.035 131.44 51.0677 131.614 51.0705L131.621 50.6705ZM131.708 50.6705H131.618V51.0705H131.708V50.6705ZM132.068 50.6705H131.708V51.0705H132.068V50.6705ZM132.231 51.2451L132.267 50.8907L131.869 50.8503L131.833 51.2046L132.231 51.2451ZM132.232 53.8132V51.2248H131.832V53.8132H132.232ZM122.062 54.0132H132.032V53.6132H122.062V54.0132ZM121.862 51.1708V53.8132H122.262V51.1708H121.862ZM121.093 49.0217C121.589 49.6283 121.861 50.3875 121.862 51.1711L122.262 51.1705C122.261 50.2948 121.957 49.4464 121.403 48.7684L121.093 49.0217ZM119.139 47.8415C119.907 47.9982 120.597 48.4151 121.093 49.0217L121.403 48.7684C120.848 48.0905 120.077 47.6247 119.219 47.4496L119.139 47.8415ZM118.9 47.7936L119.14 47.8416L119.218 47.4494L118.978 47.4014L118.9 47.7936ZM118.739 47.2672V47.5975H119.139V47.2672H118.739ZM120.947 41.9484C119.536 43.3592 118.742 45.2717 118.739 47.2668L119.139 47.2675C119.142 45.3782 119.894 43.5672 121.23 42.2313L120.947 41.9484ZM126.266 39.7404C124.271 39.7437 122.358 40.5377 120.947 41.9484L121.23 42.2313C122.566 40.8954 124.377 40.1435 126.266 40.1404L126.266 39.7404ZM127.828 39.7404H126.266V40.1404H127.828V39.7404ZM133.011 41.8319C131.616 40.4949 129.76 39.746 127.828 39.7404L127.827 40.1404C129.657 40.1457 131.414 40.8548 132.734 42.1207L133.011 41.8319ZM133.232 42.0412L133.01 41.831L132.735 42.1216L132.958 42.3318L133.232 42.0412ZM132.522 43.048L133.237 42.3273L132.953 42.0456L132.238 42.7663L132.522 43.048ZM132.112 43.7726C132.181 43.4986 132.322 43.2484 132.522 43.0484L132.239 42.7659C131.988 43.017 131.81 43.3312 131.724 43.6752L132.112 43.7726ZM130.682 49.4897L132.112 43.7724L131.724 43.6754L130.294 49.3927L130.682 49.4897ZM130.699 49.9692C130.654 49.8111 130.649 49.6443 130.684 49.4837L130.293 49.3987C130.244 49.6235 130.251 49.8569 130.314 50.0782L130.699 49.9692ZM132.232 56.9361V54.7741H131.832V56.9361H132.232ZM122.062 57.1361H132.032V56.7361H122.062V57.1361ZM121.862 54.7741V56.9361H122.262V54.7741H121.862ZM132.032 54.5741H122.062V54.9741H132.032V54.5741ZM132.553 44.3722L131.171 49.9213L131.559 50.018L132.941 44.4688L132.553 44.3722ZM137.044 48.4411L132.888 44.2792L132.605 44.5619L136.761 48.7237L137.044 48.4411ZM131.414 50.1637L136.951 48.7764L136.854 48.3884L131.317 49.7757L131.414 50.1637ZM112.773 68.5664C113.452 69.2459 114.374 69.6276 115.335 69.6276V69.2276C114.48 69.2276 113.66 68.8881 113.056 68.2836L112.773 68.5664ZM111.712 66.0045C111.712 66.9654 112.093 67.887 112.773 68.5664L113.056 68.2836C112.451 67.6791 112.112 66.8593 112.112 66.0045H111.712ZM111.712 30.1213V66.0045H112.112V30.1213H111.712ZM112.089 29.2173C111.849 29.4569 111.714 29.7813 111.712 30.1202L112.112 30.1224C112.113 29.8889 112.206 29.6653 112.371 29.5001L112.089 29.2173ZM112.992 28.8403C112.653 28.8422 112.328 28.9776 112.089 29.2173L112.371 29.5001C112.537 29.335 112.76 29.2416 112.994 29.2403L112.992 28.8403ZM141.101 28.8403H112.993V29.2403H141.101V28.8403ZM142.005 29.2173C141.766 28.9776 141.441 28.8422 141.102 28.8403L141.1 29.2403C141.334 29.2416 141.557 29.335 141.722 29.5001L142.005 29.2173ZM142.382 30.1202C142.38 29.7813 142.245 29.4569 142.005 29.2173L141.722 29.5001C141.888 29.6653 141.981 29.8889 141.982 30.1224L142.382 30.1202ZM142.382 33.1241V30.1213H141.982V33.1241H142.382ZM133.915 41.6733L142.324 33.2655L142.041 32.9827L133.632 41.3904L133.915 41.6733ZM133.424 41.4711L133.634 41.6753L133.913 41.3884L133.703 41.1842L133.424 41.4711ZM127.827 39.1795C129.919 39.189 131.926 40.0105 133.424 41.4709L133.703 41.1845C132.131 39.6517 130.025 38.7894 127.829 38.7795L127.827 39.1795ZM126.266 39.1795H127.828V38.7795H126.266V39.1795ZM120.552 41.5536C122.068 40.0378 124.123 39.1842 126.267 39.1795L126.266 38.7795C124.016 38.7844 121.86 39.6801 120.269 41.2707L120.552 41.5536ZM118.178 47.2676C118.182 45.1239 119.036 43.0694 120.552 41.5536L120.269 41.2707C118.678 42.8613 117.783 45.0173 117.778 47.2667L118.178 47.2676ZM118.178 47.5975V47.2672H117.778V47.5975H118.178ZM117.703 47.8539L118.016 47.7939L117.94 47.4011L117.628 47.4611L117.703 47.8539ZM116.047 48.7599C116.503 48.305 117.079 47.9903 117.708 47.8529L117.623 47.4621C116.919 47.6158 116.274 47.9679 115.764 48.4769L116.047 48.7599ZM115.152 50.3744C115.291 49.7625 115.601 49.2027 116.047 48.7603L115.765 48.4766C115.266 48.9724 114.918 49.5997 114.762 50.2856L115.152 50.3744ZM115.152 51.9065C115.035 51.4026 115.035 50.8789 115.152 50.375L114.762 50.285C114.632 50.8481 114.632 51.4334 114.762 51.9965L115.152 51.9065ZM115.809 53.2917C115.486 52.8883 115.261 52.4151 115.152 51.9095L114.761 51.9935C114.883 52.5599 115.135 53.0901 115.497 53.542L115.809 53.2917ZM117.79 54.5061C117.008 54.3461 116.307 53.9164 115.81 53.2922L115.497 53.5415C116.053 54.239 116.836 54.7191 117.709 54.898L117.79 54.5061ZM118.029 54.554L117.789 54.5059L117.71 54.8982L117.951 54.9462L118.029 54.554ZM118.19 60.5394V54.7501H117.79V60.5394H118.19ZM118.531 61.6244C118.306 61.3085 118.186 60.9293 118.19 60.5413L117.79 60.5376C117.785 61.0101 117.931 61.4719 118.205 61.8567L118.531 61.6244ZM119.418 62.2902C119.06 62.1666 118.75 61.9339 118.531 61.6249L118.205 61.8562C118.472 62.2334 118.851 62.5174 119.288 62.6683L119.418 62.2902ZM119.62 62.3633L119.422 62.2913L119.285 62.6672L119.483 62.7392L119.62 62.3633ZM119.751 64.443V62.5513H119.351V64.443H119.751ZM120.062 65.1934C119.863 64.9944 119.751 64.7245 119.751 64.443H119.351C119.351 64.8306 119.505 65.2022 119.779 65.4762L120.062 65.1934ZM120.813 65.5042C120.531 65.5042 120.261 65.3924 120.062 65.1934L119.779 65.4762C120.053 65.7503 120.425 65.9042 120.813 65.9042V65.5042ZM123.936 65.5042H120.813V65.9042H123.936V65.5042ZM124.686 65.1934C124.487 65.3924 124.217 65.5042 123.936 65.5042V65.9042C124.323 65.9042 124.695 65.7503 124.969 65.4762L124.686 65.1934ZM124.997 64.443C124.997 64.7245 124.885 64.9944 124.686 65.1934L124.969 65.4762C125.243 65.2022 125.397 64.8306 125.397 64.443H124.997ZM124.997 62.5813V64.443H125.397V62.5813H124.997ZM128.921 62.3813H125.197V62.7813H128.921V62.3813ZM129.121 64.443V62.5813H128.721V64.443H129.121ZM129.192 64.8527C129.142 64.7237 129.118 64.5861 129.121 64.4477L128.721 64.4384C128.716 64.6295 128.75 64.8196 128.819 64.9978L129.192 64.8527ZM129.413 65.1992C129.317 65.0995 129.242 64.9817 129.192 64.8527L128.819 64.9978C128.889 65.176 128.992 65.3387 129.125 65.4765L129.413 65.1992ZM130.158 65.5042C129.878 65.5037 129.609 65.3928 129.41 65.1957L129.129 65.48C129.403 65.7511 129.772 65.9035 130.158 65.9042L130.158 65.5042ZM133.281 65.5042H130.158V65.9042H133.281V65.5042ZM133.69 65.4263C133.561 65.4791 133.423 65.5056 133.283 65.5042L133.279 65.9042C133.472 65.9061 133.663 65.8695 133.841 65.7966L133.69 65.4263ZM134.035 65.197C133.937 65.2956 133.819 65.3736 133.69 65.4263L133.841 65.7966C134.02 65.7237 134.182 65.6161 134.318 65.4798L134.035 65.197ZM134.265 64.8519C134.212 64.981 134.134 65.0983 134.035 65.197L134.318 65.4798C134.454 65.3436 134.562 65.1816 134.635 65.0032L134.265 64.8519ZM134.343 64.445C134.344 64.5844 134.317 64.7228 134.265 64.8519L134.635 65.0032C134.708 64.8248 134.744 64.6338 134.742 64.4411L134.343 64.445ZM134.342 62.5273V64.443H134.742V62.5273H134.342ZM134.672 62.2672L134.474 62.3393L134.611 62.7152L134.809 62.6432L134.672 62.2672ZM135.569 61.5985C135.347 61.908 135.035 62.1412 134.675 62.2663L134.806 62.6441C135.244 62.4919 135.624 62.2082 135.894 61.8318L135.569 61.5985ZM135.916 60.5376C135.913 60.9185 135.792 61.2891 135.569 61.5985L135.894 61.8318C136.165 61.4554 136.312 61.0046 136.316 60.5412L135.916 60.5376ZM135.916 54.7501V60.5394H136.316V54.7501H135.916ZM136.317 54.5059L136.077 54.554L136.155 54.9462L136.396 54.8982L136.317 54.5059ZM138.295 53.293C137.801 53.9197 137.1 54.3497 136.317 54.5059L136.395 54.8982C137.271 54.7233 138.056 54.2421 138.609 53.5407L138.295 53.293ZM138.96 51.9079C138.847 52.4138 138.62 52.8871 138.296 53.2919L138.609 53.5418C138.97 53.0894 139.224 52.5604 139.35 51.9951L138.96 51.9079ZM138.96 50.38C139.074 50.8829 139.074 51.4046 138.96 51.9075L139.35 51.9955C139.477 51.4347 139.477 50.8528 139.35 50.292L138.96 50.38ZM138.446 49.2511C138.689 49.5914 138.864 49.9756 138.961 50.3823L139.35 50.2897C139.241 49.8326 139.044 49.401 138.771 49.0186L138.446 49.2511ZM138.301 49.046L138.445 49.2502L138.772 49.0195L138.628 48.8154L138.301 49.046ZM142.053 45.0598L138.323 48.7893L138.606 49.0721L142.336 45.3427L142.053 45.0598ZM142.394 66.0045V45.2013H141.994V66.0045H142.394ZM143.46 68.7957C142.773 68.0286 142.393 67.0346 142.394 66.0046L141.994 66.0043C141.993 67.1329 142.409 68.222 143.162 69.0626L143.46 68.7957ZM143.905 69.2945L143.461 68.7961L143.162 69.0623L143.607 69.5607L143.905 69.2945ZM115.335 69.6276H143.756V69.2276H115.335V69.6276ZM149.813 59.6354C149.573 59.3957 149.249 59.2603 148.91 59.2584L148.908 59.6584C149.141 59.6597 149.365 59.7531 149.53 59.9182L149.813 59.6354ZM150.19 60.5383C150.188 60.1994 150.053 59.875 149.813 59.6354L149.53 59.9182C149.695 60.0834 149.789 60.307 149.79 60.5405L150.19 60.5383ZM150.19 65.8363V60.5394H149.79V65.8363H150.19ZM149.296 68.3539C149.894 67.6516 150.213 66.7536 150.19 65.8314L149.79 65.8412C149.81 66.6649 149.526 67.4672 148.992 68.0945L149.296 68.3539ZM146.948 69.6378C147.862 69.5132 148.698 69.0561 149.296 68.3539L148.992 68.0945C148.457 68.7218 147.71 69.1302 146.894 69.2415L146.948 69.6378ZM146.555 69.6397H146.921V69.2397H146.555V69.6397ZM145.422 69.4552C145.787 69.5769 146.17 69.6392 146.554 69.6397L146.555 69.2397C146.213 69.2392 145.873 69.1839 145.549 69.0758L145.422 69.4552ZM143.628 68.1278C144.073 68.7466 144.7 69.2107 145.421 69.4549L145.55 69.076C144.907 68.8586 144.349 68.4454 143.953 67.8945L143.628 68.1278ZM142.943 66.0047C142.944 66.7666 143.184 67.509 143.628 68.1278L143.953 67.8945C143.557 67.3435 143.344 66.6825 143.343 66.0042L142.943 66.0047ZM142.943 59.4584V66.0045H143.343V59.4584H142.943ZM148.909 59.2584H143.143V59.6584H148.909V59.2584ZM135.733 46.3145L137.703 48.3144L137.988 48.0336L136.018 46.0338L135.733 46.3145ZM149.188 32.5803L135.734 46.0327L136.017 46.3156L149.471 32.8632L149.188 32.5803ZM151.471 34.5864L149.471 32.5805L149.188 32.8629L151.188 34.8688L151.471 34.5864ZM137.987 48.3156L151.471 34.8692L151.188 34.586L137.705 48.0324L137.987 48.3156ZM147.146 29.506L151.837 34.1964L152.12 33.9135L147.429 29.2232L147.146 29.506ZM149.308 27.0612L147.146 29.2232L147.429 29.506L149.591 27.3441L149.308 27.0612ZM154.276 31.7394L149.591 27.0611L149.308 27.3441L153.993 32.0225L154.276 31.7394ZM152.12 34.1958L154.276 32.0218L153.992 31.7401L151.836 33.9141L152.12 34.1958ZM154.966 31.3558L155.963 30.3588L155.681 30.076L154.684 31.0729L154.966 31.3558ZM149.999 26.6775L154.684 31.3558L154.966 31.0728L150.282 26.3945L149.999 26.6775ZM151.002 25.3917L149.999 26.3946L150.282 26.6774L151.285 25.6745L151.002 25.3917ZM151.53 25.0416C151.333 25.1221 151.153 25.2409 151.002 25.3913L151.284 25.6749C151.398 25.5619 151.533 25.4725 151.681 25.412L151.53 25.0416ZM152.14 24.9187C151.93 24.9185 151.722 24.9606 151.528 25.0426L151.684 25.411C151.828 25.3499 151.983 25.3186 152.14 25.3187L152.14 24.9187ZM152.758 25.0422C152.562 24.9605 152.352 24.9185 152.14 24.9187L152.14 25.3187C152.299 25.3186 152.457 25.3501 152.604 25.4113L152.758 25.0422ZM153.278 25.3911C153.129 25.243 152.953 25.1247 152.759 25.0426L152.603 25.411C152.75 25.4732 152.883 25.5628 152.996 25.6751L153.278 25.3911ZM155.957 28.0701L153.279 25.3917L152.996 25.6745L155.675 28.353L155.957 28.0701ZM156.429 29.2145C156.429 28.7859 156.26 28.3747 155.958 28.0706L155.674 28.3525C155.902 28.5817 156.029 28.8915 156.029 29.2145H156.429ZM155.958 30.3583C156.26 30.0542 156.429 29.6431 156.429 29.2145H156.029C156.029 29.5374 155.902 29.8473 155.674 30.0765L155.958 30.3583ZM155.822 30.0174H155.816V30.4174H155.822V30.0174ZM124.566 48.3196C124.566 48.4579 124.453 48.57 124.315 48.57V48.97C124.674 48.97 124.966 48.6788 124.966 48.3196H124.566ZM124.315 48.0691C124.453 48.0691 124.566 48.1813 124.566 48.3196H124.966C124.966 47.9603 124.674 47.6691 124.315 47.6691V48.0691ZM124.065 48.3196C124.065 48.1813 124.177 48.0691 124.315 48.0691V47.6691C123.956 47.6691 123.665 47.9603 123.665 48.3196H124.065ZM124.315 48.57C124.177 48.57 124.065 48.4579 124.065 48.3196H123.665C123.665 48.6788 123.956 48.97 124.315 48.97V48.57ZM130.02 48.97C130.379 48.97 130.671 48.6788 130.671 48.3196H130.271C130.271 48.4579 130.159 48.57 130.02 48.57V48.97ZM129.37 48.3196C129.37 48.6788 129.661 48.97 130.02 48.97V48.57C129.882 48.57 129.77 48.4579 129.77 48.3196H129.37ZM130.02 47.6691C129.661 47.6691 129.37 47.9603 129.37 48.3196H129.77C129.77 48.1813 129.882 48.0691 130.02 48.0691V47.6691ZM130.671 48.3196C130.671 47.9603 130.379 47.6691 130.02 47.6691V48.0691C130.159 48.0691 130.271 48.1813 130.271 48.3196H130.671Z" fill="#325837" mask="url(#path-3-outside-1_772_774)"/>
</g>
<path d="M74 45.75C74.4142 45.75 74.75 45.4142 74.75 45C74.75 44.5858 74.4142 44.25 74 44.25L74 45.75ZM49 45C49 42.7909 47.2091 41 45 41C42.7909 41 41 42.7909 41 45C41 47.2091 42.7909 49 45 49C47.2091 49 49 47.2091 49 45ZM74 44.25L45 44.25L45 45.75L74 45.75L74 44.25Z" fill="#BACC91"/>
<circle opacity="0.4" cx="45" cy="29" r="3" transform="rotate(90 45 29)" fill="#BACC91"/>
<circle opacity="0.4" cx="45" cy="61" r="3" transform="rotate(90 45 61)" fill="#BACC91"/>
<path d="M18.624 62.08C16.256 62.08 13.936 61.744 11.664 61.072C9.424 60.368 7.536 59.408 6 58.192L8.688 53.344C9.904 54.336 11.376 55.136 13.104 55.744C14.832 56.352 16.64 56.656 18.528 56.656C20.768 56.656 22.512 56.208 23.76 55.312C25.008 54.384 25.632 53.136 25.632 51.568C25.632 50.032 25.056 48.816 23.904 47.92C22.752 47.024 20.896 46.576 18.336 46.576H15.264V42.304L24.864 30.88L25.68 33.232H7.632V28H30.528V32.176L20.928 43.6L17.664 41.68H19.536C23.664 41.68 26.752 42.608 28.8 44.464C30.88 46.288 31.92 48.64 31.92 51.52C31.92 53.408 31.44 55.152 30.48 56.752C29.52 58.352 28.048 59.648 26.064 60.64C24.112 61.6 21.632 62.08 18.624 62.08Z" fill="#D2DDC7"/>
</svg>
