<svg width="179" height="90" viewBox="0 0 179 90" fill="none" xmlns="http://www.w3.org/2000/svg">
<mask id="mask0_772_749" style="mask-type:alpha" maskUnits="userSpaceOnUse" x="89" y="0" width="90" height="90">
<rect x="89" width="90" height="90" fill="#C4C4C4"/>
</mask>
<g mask="url(#mask0_772_749)">
<path fill-rule="evenodd" clip-rule="evenodd" d="M139.96 5.80417C149.924 7.42875 156.406 16.1233 162.701 24.0156C169.535 32.5826 177.821 41.3004 176.991 52.2276C176.113 63.7937 171.171 73.9127 161.398 80.1601C152.058 86.1302 137.728 85.8008 126.738 84.351C115.196 82.8284 102.444 81.1976 95.5752 71.7982C88.6591 62.3342 89.4851 49.2825 92.9212 38.0758C95.9436 28.2179 104.222 21.7003 112.724 15.8672C121.021 10.1751 130.03 4.18509 139.96 5.80417Z" fill="#EDF4DD"/>
<mask id="path-3-outside-1_772_749" maskUnits="userSpaceOnUse" x="109.951" y="25.3438" width="48" height="48" fill="black">
<rect fill="white" x="109.951" y="25.3438" width="48" height="48"/>
<path fill-rule="evenodd" clip-rule="evenodd" d="M148.402 29.9153C148.103 30.2239 147.701 30.3967 147.282 30.3962H125.002H124.855L120.327 28.8318C120.236 28.8015 120.156 28.7407 120.101 28.6587C120.047 28.5826 120.019 28.4903 120.021 28.3959C120.019 28.2995 120.047 28.2051 120.101 28.1266C120.156 28.0446 120.236 27.9838 120.327 27.9535L124.855 26.3507C124.904 26.3414 124.953 26.3414 125.002 26.3507H147.282C147.701 26.3502 148.103 26.523 148.402 26.8315C148.549 26.9813 148.666 27.1607 148.746 27.359C148.826 27.5572 148.867 27.7703 148.867 27.9855V28.7613C148.867 28.9765 148.826 29.1896 148.746 29.3879C148.666 29.5861 148.549 29.7655 148.402 29.9153ZM147.282 27.2739H145.844V29.4794H147.282C147.462 29.4777 147.634 29.4024 147.762 29.2695C147.891 29.1366 147.964 28.9565 147.967 28.7677V27.9855C147.967 27.8916 147.949 27.7985 147.915 27.7117C147.88 27.625 147.83 27.5462 147.766 27.4801C147.702 27.4139 147.627 27.3616 147.544 27.3262C147.46 27.2908 147.371 27.2731 147.282 27.2739ZM144.944 27.2739H143.58V29.4794H144.944V27.2739ZM142.68 27.2739H126.96V29.4794H142.68V27.2739ZM125.124 27.2739L121.881 28.3766L125.051 29.4794H126.061V27.2739H125.124ZM148.829 33.6705C148.852 33.7266 148.864 33.787 148.865 33.8481L148.895 63.564C148.895 63.6242 148.883 63.6839 148.86 63.739C148.837 63.7942 148.803 63.8438 148.761 63.8845C148.72 63.9296 148.67 63.9654 148.616 63.9896C148.561 64.0139 148.502 64.0261 148.443 64.0256H114.42C113.504 64.0261 112.625 63.6484 111.973 62.9741C111.648 62.6393 111.391 62.24 111.215 61.7997C111.04 61.3594 110.95 60.8868 110.951 60.4097V33.8481C110.951 32.956 111.27 32.0962 111.844 31.4375C112.424 30.7695 113.22 30.3494 114.078 30.2579H114.426C115.165 30.2541 115.886 30.4991 116.482 30.9567C117.176 31.477 117.655 32.2539 117.822 33.1301L117.878 33.3865H148.412C148.471 33.3848 148.53 33.3958 148.584 33.419C148.639 33.4422 148.689 33.4769 148.73 33.5211C148.772 33.5636 148.806 33.6144 148.829 33.6705ZM112.047 32.8219C111.916 33.1468 111.85 33.4957 111.85 33.8481V57.1464L112.34 56.7617C112.943 56.2957 113.673 56.0443 114.423 56.0443C115.173 56.0443 115.903 56.2957 116.507 56.7617L116.996 57.1464V33.8481C116.997 33.4963 116.93 33.148 116.801 32.8233C116.672 32.4986 116.483 32.2041 116.244 31.9568C115.758 31.4595 115.106 31.1811 114.426 31.1811C113.747 31.1811 113.095 31.4595 112.609 31.9568C112.368 32.2029 112.177 32.4971 112.047 32.8219ZM114.426 63.0767H147.953L147.965 34.3033H117.865V59.6275C117.864 59.7498 117.818 59.8669 117.737 59.9545C117.651 60.0296 117.543 60.0707 117.431 60.0707C117.319 60.0707 117.211 60.0296 117.125 59.9545C117.043 59.8669 116.997 59.7498 116.996 59.6275C116.996 59.2767 116.93 58.9295 116.801 58.6059C116.671 58.2824 116.482 57.9889 116.244 57.7426C115.758 57.2453 115.106 56.9669 114.426 56.9669C113.747 56.9669 113.095 57.2453 112.609 57.7426C112.369 57.9877 112.178 58.2808 112.047 58.6045C111.917 58.9283 111.85 59.2761 111.85 59.6275V60.4097C111.847 60.7598 111.91 61.1072 112.037 61.431C112.165 61.7548 112.353 62.0485 112.591 62.2946C112.831 62.5466 113.118 62.7457 113.433 62.88C113.748 63.0143 114.086 63.0812 114.426 63.0767ZM130.625 72.3045C130.603 72.2493 130.592 72.1899 130.593 72.13V67.437C130.592 67.3771 130.603 67.3177 130.625 67.2625C130.647 67.2073 130.68 67.1575 130.722 67.1164C130.764 67.0728 130.813 67.0385 130.868 67.0153C130.923 66.9922 130.981 66.9808 131.04 66.9818H151.741V48.6843C151.742 48.5638 151.788 48.4485 151.87 48.3637C151.954 48.2745 152.068 48.2238 152.188 48.2227H156.74C156.8 48.2221 156.859 48.2344 156.913 48.2586C156.968 48.2829 157.018 48.3187 157.059 48.3637C157.101 48.4045 157.135 48.454 157.158 48.5092C157.181 48.5644 157.193 48.624 157.193 48.6843V72.13C157.193 72.1903 157.181 72.2499 157.158 72.305C157.135 72.3602 157.101 72.4098 157.059 72.4505C157.017 72.4948 156.968 72.5295 156.913 72.5527C156.858 72.5759 156.799 72.5869 156.74 72.5852H131.04C130.981 72.5862 130.923 72.5748 130.868 72.5517C130.813 72.5285 130.764 72.4941 130.722 72.4505C130.68 72.4095 130.647 72.3597 130.625 72.3045ZM156.275 49.1459H152.622L152.641 66.9818H156.275V49.1459ZM133.616 67.8986H131.493V71.6684H156.275V67.8986H150.34V68.9821C150.339 69.0432 150.327 69.1036 150.304 69.1597C150.281 69.2159 150.247 69.2666 150.205 69.3091C150.12 69.3854 150.011 69.4273 149.899 69.4273C149.787 69.4273 149.679 69.3854 149.593 69.3091C149.552 69.2663 149.519 69.2153 149.497 69.1592C149.475 69.103 149.464 69.0428 149.465 68.9821V67.8986H148.094V68.9821C148.095 69.0428 148.083 69.103 148.061 69.1592C148.039 69.2153 148.007 69.2663 147.966 69.3091C147.88 69.3854 147.772 69.4273 147.66 69.4273C147.547 69.4273 147.439 69.3854 147.354 69.3091C147.312 69.2666 147.278 69.2159 147.255 69.1597C147.232 69.1036 147.22 69.0432 147.219 68.9821V67.8986H145.683V68.9821C145.681 69.1042 145.636 69.2211 145.555 69.3091C145.469 69.3842 145.36 69.4253 145.249 69.4253C145.137 69.4253 145.029 69.3842 144.943 69.3091C144.862 69.2211 144.816 69.1042 144.814 68.9821V67.8986H143.45V68.9821C143.449 69.0432 143.437 69.1036 143.414 69.1597C143.391 69.2159 143.357 69.2666 143.315 69.3091C143.23 69.3854 143.121 69.4273 143.009 69.4273C142.897 69.4273 142.788 69.3854 142.703 69.3091C142.662 69.2663 142.629 69.2153 142.607 69.1592C142.585 69.103 142.574 69.0428 142.575 68.9821V67.8986H141.204V68.9821C141.204 69.0428 141.193 69.103 141.171 69.1592C141.149 69.2153 141.117 69.2663 141.075 69.3091C140.99 69.3854 140.882 69.4273 140.769 69.4273C140.657 69.4273 140.549 69.3854 140.463 69.3091C140.422 69.2663 140.39 69.2153 140.368 69.1592C140.346 69.103 140.335 69.0428 140.335 68.9821V67.8986H138.964V68.9821C138.965 69.0428 138.954 69.103 138.932 69.1592C138.91 69.2153 138.877 69.2663 138.836 69.3091C138.75 69.3842 138.642 69.4253 138.53 69.4253C138.418 69.4253 138.31 69.3842 138.224 69.3091C138.143 69.2211 138.097 69.1042 138.095 68.9821V67.8986H136.731V68.9821C136.73 69.0432 136.718 69.1036 136.695 69.1597C136.672 69.2159 136.638 69.2666 136.596 69.3091C136.511 69.3854 136.402 69.4273 136.29 69.4273C136.178 69.4273 136.07 69.3854 135.984 69.3091C135.943 69.2663 135.911 69.2153 135.888 69.1592C135.866 69.103 135.855 69.0428 135.856 68.9821V67.8986H134.485V68.9821C134.486 69.0428 134.474 69.103 134.452 69.1592C134.43 69.2153 134.398 69.2663 134.357 69.3091C134.271 69.3854 134.163 69.4273 134.051 69.4273C133.938 69.4273 133.83 69.3854 133.745 69.3091C133.704 69.2663 133.671 69.2153 133.649 69.1592C133.627 69.103 133.616 69.0428 133.616 68.9821V67.8986ZM153.796 69.9421C154.05 69.9421 154.255 69.7269 154.255 69.4613C154.255 69.1957 154.05 68.9805 153.796 68.9805C153.543 68.9805 153.337 69.1957 153.337 69.4613C153.337 69.7269 153.543 69.9421 153.796 69.9421ZM129.853 41.3378C129.81 41.294 129.759 41.2596 129.703 41.2365C129.648 41.2134 129.588 41.2021 129.528 41.2032H120.466C120.407 41.2022 120.348 41.2136 120.294 41.2367C120.239 41.2599 120.189 41.2942 120.148 41.3378C120.106 41.3799 120.073 41.4307 120.05 41.4871C120.028 41.5434 120.018 41.6039 120.019 41.6648V60.4111C120.018 60.472 120.028 60.5325 120.05 60.5889C120.073 60.6452 120.106 60.696 120.148 60.7381C120.189 60.7817 120.239 60.8161 120.294 60.8392C120.348 60.8623 120.407 60.8737 120.466 60.8727H138.597C138.656 60.8734 138.714 60.8618 138.769 60.8387C138.823 60.8156 138.873 60.7814 138.915 60.7381C138.957 60.696 138.99 60.6452 139.012 60.5889C139.034 60.5325 139.045 60.472 139.044 60.4111V51.038C139.044 50.9772 139.033 50.917 139.011 50.8609C138.989 50.8047 138.956 50.7538 138.915 50.711C138.829 50.6263 138.715 50.5784 138.597 50.5764H129.981V41.6648C129.981 41.6041 129.97 41.544 129.948 41.4879C129.926 41.4318 129.894 41.3808 129.853 41.3378ZM138.144 51.4996V59.9559H129.981V57.2889C129.979 57.1667 129.934 57.0498 129.853 56.9619C129.765 56.8781 129.65 56.8317 129.531 56.8317C129.413 56.8317 129.298 56.8781 129.21 56.9619C129.129 57.0498 129.083 57.1667 129.082 57.2889V59.9559H120.906V51.4996H123.476C123.595 51.4988 123.709 51.4507 123.795 51.3649C123.874 51.2789 123.918 51.164 123.918 51.0444C123.918 50.9248 123.874 50.8099 123.795 50.7238C123.709 50.6381 123.595 50.5899 123.476 50.5892H120.906V42.12H129.082V50.5764H126.512C126.391 50.5768 126.275 50.6248 126.187 50.711C126.108 50.797 126.064 50.912 126.064 51.0316C126.064 51.1511 126.108 51.2661 126.187 51.3521C126.275 51.4383 126.391 51.4863 126.512 51.4867H129.082V54.1538C129.082 54.2743 129.128 54.3895 129.21 54.4744C129.297 54.561 129.412 54.6093 129.531 54.6093C129.651 54.6093 129.766 54.561 129.853 54.4744C129.934 54.3895 129.98 54.2743 129.981 54.1538V51.4996H138.144ZM145.394 37.1953C145.512 37.1973 145.625 37.2453 145.712 37.3299C145.785 37.4165 145.827 37.5281 145.828 37.6441C145.827 37.7646 145.781 37.8798 145.699 37.9647C145.615 38.0539 145.501 38.1046 145.381 38.1057H132.531C132.413 38.105 132.299 38.0568 132.213 37.9711C132.134 37.885 132.089 37.7701 132.089 37.6505C132.089 37.5309 132.134 37.416 132.213 37.3299C132.299 37.2442 132.413 37.1961 132.531 37.1953H145.394ZM145.715 40.5487C145.628 40.4641 145.515 40.4161 145.397 40.4141H132.534C132.476 40.4133 132.418 40.4246 132.364 40.4474C132.31 40.4702 132.26 40.5041 132.219 40.547C132.177 40.59 132.144 40.6411 132.122 40.6976C132.099 40.754 132.087 40.8145 132.087 40.8757C132.086 40.9356 132.097 40.995 132.119 41.0502C132.142 41.1054 132.174 41.1552 132.216 41.1963C132.257 41.2407 132.307 41.2761 132.362 41.3003C132.416 41.3245 132.475 41.3371 132.534 41.3373H145.384C145.504 41.3362 145.618 41.2855 145.703 41.1963C145.784 41.1114 145.83 40.9962 145.831 40.8757C145.833 40.7553 145.791 40.6386 145.715 40.5487ZM139.524 43.6776C139.578 43.7018 139.628 43.7372 139.669 43.7817C139.711 43.8224 139.745 43.872 139.768 43.9272C139.792 43.9823 139.804 44.042 139.804 44.1022C139.803 44.1634 139.791 44.2237 139.768 44.2799C139.745 44.336 139.711 44.3868 139.669 44.4292C139.583 44.5149 139.469 44.5631 139.351 44.5638H132.534C132.476 44.5647 132.418 44.5534 132.364 44.5306C132.31 44.5077 132.26 44.4739 132.219 44.4309C132.177 44.388 132.144 44.3368 132.122 44.2804C132.099 44.2239 132.087 44.1634 132.087 44.1022C132.086 44.0424 132.097 43.9829 132.119 43.9277C132.142 43.8725 132.174 43.8228 132.216 43.7817C132.257 43.7372 132.307 43.7018 132.362 43.6776C132.416 43.6534 132.475 43.6408 132.534 43.6406H139.351C139.41 43.6408 139.469 43.6534 139.524 43.6776Z"/>
</mask>
<path fill-rule="evenodd" clip-rule="evenodd" d="M148.402 29.9153C148.103 30.2239 147.701 30.3967 147.282 30.3962H125.002H124.855L120.327 28.8318C120.236 28.8015 120.156 28.7407 120.101 28.6587C120.047 28.5826 120.019 28.4903 120.021 28.3959C120.019 28.2995 120.047 28.2051 120.101 28.1266C120.156 28.0446 120.236 27.9838 120.327 27.9535L124.855 26.3507C124.904 26.3414 124.953 26.3414 125.002 26.3507H147.282C147.701 26.3502 148.103 26.523 148.402 26.8315C148.549 26.9813 148.666 27.1607 148.746 27.359C148.826 27.5572 148.867 27.7703 148.867 27.9855V28.7613C148.867 28.9765 148.826 29.1896 148.746 29.3879C148.666 29.5861 148.549 29.7655 148.402 29.9153ZM147.282 27.2739H145.844V29.4794H147.282C147.462 29.4777 147.634 29.4024 147.762 29.2695C147.891 29.1366 147.964 28.9565 147.967 28.7677V27.9855C147.967 27.8916 147.949 27.7985 147.915 27.7117C147.88 27.625 147.83 27.5462 147.766 27.4801C147.702 27.4139 147.627 27.3616 147.544 27.3262C147.46 27.2908 147.371 27.2731 147.282 27.2739ZM144.944 27.2739H143.58V29.4794H144.944V27.2739ZM142.68 27.2739H126.96V29.4794H142.68V27.2739ZM125.124 27.2739L121.881 28.3766L125.051 29.4794H126.061V27.2739H125.124ZM148.829 33.6705C148.852 33.7266 148.864 33.787 148.865 33.8481L148.895 63.564C148.895 63.6242 148.883 63.6839 148.86 63.739C148.837 63.7942 148.803 63.8438 148.761 63.8845C148.72 63.9296 148.67 63.9654 148.616 63.9896C148.561 64.0139 148.502 64.0261 148.443 64.0256H114.42C113.504 64.0261 112.625 63.6484 111.973 62.9741C111.648 62.6393 111.391 62.24 111.215 61.7997C111.04 61.3594 110.95 60.8868 110.951 60.4097V33.8481C110.951 32.956 111.27 32.0962 111.844 31.4375C112.424 30.7695 113.22 30.3494 114.078 30.2579H114.426C115.165 30.2541 115.886 30.4991 116.482 30.9567C117.176 31.477 117.655 32.2539 117.822 33.1301L117.878 33.3865H148.412C148.471 33.3848 148.53 33.3958 148.584 33.419C148.639 33.4422 148.689 33.4769 148.73 33.5211C148.772 33.5636 148.806 33.6144 148.829 33.6705ZM112.047 32.8219C111.916 33.1468 111.85 33.4957 111.85 33.8481V57.1464L112.34 56.7617C112.943 56.2957 113.673 56.0443 114.423 56.0443C115.173 56.0443 115.903 56.2957 116.507 56.7617L116.996 57.1464V33.8481C116.997 33.4963 116.93 33.148 116.801 32.8233C116.672 32.4986 116.483 32.2041 116.244 31.9568C115.758 31.4595 115.106 31.1811 114.426 31.1811C113.747 31.1811 113.095 31.4595 112.609 31.9568C112.368 32.2029 112.177 32.4971 112.047 32.8219ZM114.426 63.0767H147.953L147.965 34.3033H117.865V59.6275C117.864 59.7498 117.818 59.8669 117.737 59.9545C117.651 60.0296 117.543 60.0707 117.431 60.0707C117.319 60.0707 117.211 60.0296 117.125 59.9545C117.043 59.8669 116.997 59.7498 116.996 59.6275C116.996 59.2767 116.93 58.9295 116.801 58.6059C116.671 58.2824 116.482 57.9889 116.244 57.7426C115.758 57.2453 115.106 56.9669 114.426 56.9669C113.747 56.9669 113.095 57.2453 112.609 57.7426C112.369 57.9877 112.178 58.2808 112.047 58.6045C111.917 58.9283 111.85 59.2761 111.85 59.6275V60.4097C111.847 60.7598 111.91 61.1072 112.037 61.431C112.165 61.7548 112.353 62.0485 112.591 62.2946C112.831 62.5466 113.118 62.7457 113.433 62.88C113.748 63.0143 114.086 63.0812 114.426 63.0767ZM130.625 72.3045C130.603 72.2493 130.592 72.1899 130.593 72.13V67.437C130.592 67.3771 130.603 67.3177 130.625 67.2625C130.647 67.2073 130.68 67.1575 130.722 67.1164C130.764 67.0728 130.813 67.0385 130.868 67.0153C130.923 66.9922 130.981 66.9808 131.04 66.9818H151.741V48.6843C151.742 48.5638 151.788 48.4485 151.87 48.3637C151.954 48.2745 152.068 48.2238 152.188 48.2227H156.74C156.8 48.2221 156.859 48.2344 156.913 48.2586C156.968 48.2829 157.018 48.3187 157.059 48.3637C157.101 48.4045 157.135 48.454 157.158 48.5092C157.181 48.5644 157.193 48.624 157.193 48.6843V72.13C157.193 72.1903 157.181 72.2499 157.158 72.305C157.135 72.3602 157.101 72.4098 157.059 72.4505C157.017 72.4948 156.968 72.5295 156.913 72.5527C156.858 72.5759 156.799 72.5869 156.74 72.5852H131.04C130.981 72.5862 130.923 72.5748 130.868 72.5517C130.813 72.5285 130.764 72.4941 130.722 72.4505C130.68 72.4095 130.647 72.3597 130.625 72.3045ZM156.275 49.1459H152.622L152.641 66.9818H156.275V49.1459ZM133.616 67.8986H131.493V71.6684H156.275V67.8986H150.34V68.9821C150.339 69.0432 150.327 69.1036 150.304 69.1597C150.281 69.2159 150.247 69.2666 150.205 69.3091C150.12 69.3854 150.011 69.4273 149.899 69.4273C149.787 69.4273 149.679 69.3854 149.593 69.3091C149.552 69.2663 149.519 69.2153 149.497 69.1592C149.475 69.103 149.464 69.0428 149.465 68.9821V67.8986H148.094V68.9821C148.095 69.0428 148.083 69.103 148.061 69.1592C148.039 69.2153 148.007 69.2663 147.966 69.3091C147.88 69.3854 147.772 69.4273 147.66 69.4273C147.547 69.4273 147.439 69.3854 147.354 69.3091C147.312 69.2666 147.278 69.2159 147.255 69.1597C147.232 69.1036 147.22 69.0432 147.219 68.9821V67.8986H145.683V68.9821C145.681 69.1042 145.636 69.2211 145.555 69.3091C145.469 69.3842 145.36 69.4253 145.249 69.4253C145.137 69.4253 145.029 69.3842 144.943 69.3091C144.862 69.2211 144.816 69.1042 144.814 68.9821V67.8986H143.45V68.9821C143.449 69.0432 143.437 69.1036 143.414 69.1597C143.391 69.2159 143.357 69.2666 143.315 69.3091C143.23 69.3854 143.121 69.4273 143.009 69.4273C142.897 69.4273 142.788 69.3854 142.703 69.3091C142.662 69.2663 142.629 69.2153 142.607 69.1592C142.585 69.103 142.574 69.0428 142.575 68.9821V67.8986H141.204V68.9821C141.204 69.0428 141.193 69.103 141.171 69.1592C141.149 69.2153 141.117 69.2663 141.075 69.3091C140.99 69.3854 140.882 69.4273 140.769 69.4273C140.657 69.4273 140.549 69.3854 140.463 69.3091C140.422 69.2663 140.39 69.2153 140.368 69.1592C140.346 69.103 140.335 69.0428 140.335 68.9821V67.8986H138.964V68.9821C138.965 69.0428 138.954 69.103 138.932 69.1592C138.91 69.2153 138.877 69.2663 138.836 69.3091C138.75 69.3842 138.642 69.4253 138.53 69.4253C138.418 69.4253 138.31 69.3842 138.224 69.3091C138.143 69.2211 138.097 69.1042 138.095 68.9821V67.8986H136.731V68.9821C136.73 69.0432 136.718 69.1036 136.695 69.1597C136.672 69.2159 136.638 69.2666 136.596 69.3091C136.511 69.3854 136.402 69.4273 136.29 69.4273C136.178 69.4273 136.07 69.3854 135.984 69.3091C135.943 69.2663 135.911 69.2153 135.888 69.1592C135.866 69.103 135.855 69.0428 135.856 68.9821V67.8986H134.485V68.9821C134.486 69.0428 134.474 69.103 134.452 69.1592C134.43 69.2153 134.398 69.2663 134.357 69.3091C134.271 69.3854 134.163 69.4273 134.051 69.4273C133.938 69.4273 133.83 69.3854 133.745 69.3091C133.704 69.2663 133.671 69.2153 133.649 69.1592C133.627 69.103 133.616 69.0428 133.616 68.9821V67.8986ZM153.796 69.9421C154.05 69.9421 154.255 69.7269 154.255 69.4613C154.255 69.1957 154.05 68.9805 153.796 68.9805C153.543 68.9805 153.337 69.1957 153.337 69.4613C153.337 69.7269 153.543 69.9421 153.796 69.9421ZM129.853 41.3378C129.81 41.294 129.759 41.2596 129.703 41.2365C129.648 41.2134 129.588 41.2021 129.528 41.2032H120.466C120.407 41.2022 120.348 41.2136 120.294 41.2367C120.239 41.2599 120.189 41.2942 120.148 41.3378C120.106 41.3799 120.073 41.4307 120.05 41.4871C120.028 41.5434 120.018 41.6039 120.019 41.6648V60.4111C120.018 60.472 120.028 60.5325 120.05 60.5889C120.073 60.6452 120.106 60.696 120.148 60.7381C120.189 60.7817 120.239 60.8161 120.294 60.8392C120.348 60.8623 120.407 60.8737 120.466 60.8727H138.597C138.656 60.8734 138.714 60.8618 138.769 60.8387C138.823 60.8156 138.873 60.7814 138.915 60.7381C138.957 60.696 138.99 60.6452 139.012 60.5889C139.034 60.5325 139.045 60.472 139.044 60.4111V51.038C139.044 50.9772 139.033 50.917 139.011 50.8609C138.989 50.8047 138.956 50.7538 138.915 50.711C138.829 50.6263 138.715 50.5784 138.597 50.5764H129.981V41.6648C129.981 41.6041 129.97 41.544 129.948 41.4879C129.926 41.4318 129.894 41.3808 129.853 41.3378ZM138.144 51.4996V59.9559H129.981V57.2889C129.979 57.1667 129.934 57.0498 129.853 56.9619C129.765 56.8781 129.65 56.8317 129.531 56.8317C129.413 56.8317 129.298 56.8781 129.21 56.9619C129.129 57.0498 129.083 57.1667 129.082 57.2889V59.9559H120.906V51.4996H123.476C123.595 51.4988 123.709 51.4507 123.795 51.3649C123.874 51.2789 123.918 51.164 123.918 51.0444C123.918 50.9248 123.874 50.8099 123.795 50.7238C123.709 50.6381 123.595 50.5899 123.476 50.5892H120.906V42.12H129.082V50.5764H126.512C126.391 50.5768 126.275 50.6248 126.187 50.711C126.108 50.797 126.064 50.912 126.064 51.0316C126.064 51.1511 126.108 51.2661 126.187 51.3521C126.275 51.4383 126.391 51.4863 126.512 51.4867H129.082V54.1538C129.082 54.2743 129.128 54.3895 129.21 54.4744C129.297 54.561 129.412 54.6093 129.531 54.6093C129.651 54.6093 129.766 54.561 129.853 54.4744C129.934 54.3895 129.98 54.2743 129.981 54.1538V51.4996H138.144ZM145.394 37.1953C145.512 37.1973 145.625 37.2453 145.712 37.3299C145.785 37.4165 145.827 37.5281 145.828 37.6441C145.827 37.7646 145.781 37.8798 145.699 37.9647C145.615 38.0539 145.501 38.1046 145.381 38.1057H132.531C132.413 38.105 132.299 38.0568 132.213 37.9711C132.134 37.885 132.089 37.7701 132.089 37.6505C132.089 37.5309 132.134 37.416 132.213 37.3299C132.299 37.2442 132.413 37.1961 132.531 37.1953H145.394ZM145.715 40.5487C145.628 40.4641 145.515 40.4161 145.397 40.4141H132.534C132.476 40.4133 132.418 40.4246 132.364 40.4474C132.31 40.4702 132.26 40.5041 132.219 40.547C132.177 40.59 132.144 40.6411 132.122 40.6976C132.099 40.754 132.087 40.8145 132.087 40.8757C132.086 40.9356 132.097 40.995 132.119 41.0502C132.142 41.1054 132.174 41.1552 132.216 41.1963C132.257 41.2407 132.307 41.2761 132.362 41.3003C132.416 41.3245 132.475 41.3371 132.534 41.3373H145.384C145.504 41.3362 145.618 41.2855 145.703 41.1963C145.784 41.1114 145.83 40.9962 145.831 40.8757C145.833 40.7553 145.791 40.6386 145.715 40.5487ZM139.524 43.6776C139.578 43.7018 139.628 43.7372 139.669 43.7817C139.711 43.8224 139.745 43.872 139.768 43.9272C139.792 43.9823 139.804 44.042 139.804 44.1022C139.803 44.1634 139.791 44.2237 139.768 44.2799C139.745 44.336 139.711 44.3868 139.669 44.4292C139.583 44.5149 139.469 44.5631 139.351 44.5638H132.534C132.476 44.5647 132.418 44.5534 132.364 44.5306C132.31 44.5077 132.26 44.4739 132.219 44.4309C132.177 44.388 132.144 44.3368 132.122 44.2804C132.099 44.2239 132.087 44.1634 132.087 44.1022C132.086 44.0424 132.097 43.9829 132.119 43.9277C132.142 43.8725 132.174 43.8228 132.216 43.7817C132.257 43.7372 132.307 43.7018 132.362 43.6776C132.416 43.6534 132.475 43.6408 132.534 43.6406H139.351C139.41 43.6408 139.469 43.6534 139.524 43.6776Z" fill="#325837"/>
<path d="M147.282 30.3962L147.282 30.1962H147.282V30.3962ZM148.402 29.9153L148.259 29.775L148.258 29.7763L148.402 29.9153ZM124.855 30.3962L124.79 30.5852L124.822 30.5962H124.855V30.3962ZM120.327 28.8318L120.392 28.6428L120.39 28.642L120.327 28.8318ZM120.101 28.6587L120.266 28.5466L120.264 28.5439L120.101 28.6587ZM120.021 28.3959L120.221 28.3996L120.221 28.3922L120.021 28.3959ZM120.101 28.1266L120.266 28.2392L120.266 28.2387L120.101 28.1266ZM120.327 27.9535L120.39 28.1434L120.394 28.142L120.327 27.9535ZM124.855 26.3507L124.818 26.1542L124.803 26.1571L124.788 26.1622L124.855 26.3507ZM125.002 26.3507L124.965 26.5472L124.983 26.5507H125.002V26.3507ZM147.282 26.3507L147.282 26.5507L147.282 26.5507L147.282 26.3507ZM148.402 26.8315L148.258 26.9705L148.259 26.9719L148.402 26.8315ZM148.746 27.359L148.561 27.4337L148.561 27.4337L148.746 27.359ZM148.867 27.9855L148.667 27.9852V27.9855H148.867ZM148.867 28.7613L148.667 28.7613L148.667 28.7617L148.867 28.7613ZM148.746 29.3879L148.561 29.3131L148.561 29.3131L148.746 29.3879ZM145.844 27.2739V27.0739H145.644V27.2739H145.844ZM147.282 27.2739V27.4739L147.284 27.4739L147.282 27.2739ZM145.844 29.4794H145.644V29.6794H145.844V29.4794ZM147.282 29.4794V29.6794L147.284 29.6793L147.282 29.4794ZM147.967 28.7677L148.167 28.7711V28.7677H147.967ZM147.967 27.9855L147.767 27.9855V27.9855H147.967ZM143.58 27.2739V27.0739H143.38V27.2739H143.58ZM144.944 27.2739H145.144V27.0739H144.944V27.2739ZM143.58 29.4794H143.38V29.6794H143.58V29.4794ZM144.944 29.4794V29.6794H145.144V29.4794H144.944ZM126.96 27.2739V27.0739H126.76V27.2739H126.96ZM142.68 27.2739H142.88V27.0739H142.68V27.2739ZM126.96 29.4794H126.76V29.6794H126.96V29.4794ZM142.68 29.4794V29.6794H142.88V29.4794H142.68ZM121.881 28.3766L121.817 28.1873L121.266 28.3745L121.816 28.5655L121.881 28.3766ZM125.124 27.2739V27.0739H125.091L125.06 27.0846L125.124 27.2739ZM125.051 29.4794L124.985 29.6682L125.017 29.6794H125.051V29.4794ZM126.061 29.4794V29.6794H126.261V29.4794H126.061ZM126.061 27.2739H126.261V27.0739H126.061V27.2739ZM148.865 33.8481L149.065 33.8479L149.065 33.846L148.865 33.8481ZM148.829 33.6705L148.644 33.7466L148.644 33.7466L148.829 33.6705ZM148.895 63.564L149.095 63.5642L149.095 63.5638L148.895 63.564ZM148.86 63.739L149.045 63.8165L149.045 63.8165L148.86 63.739ZM148.761 63.8845L148.622 63.7401L148.613 63.7499L148.761 63.8845ZM148.616 63.9896L148.535 63.8068L148.535 63.8068L148.616 63.9896ZM148.443 64.0256L148.444 63.8256H148.443V64.0256ZM114.42 64.0256L114.42 63.8256L114.42 63.8256L114.42 64.0256ZM111.973 62.9741L112.116 62.8351L112.116 62.835L111.973 62.9741ZM110.951 60.4097L111.151 60.41V60.4097H110.951ZM110.951 33.8481L110.751 33.848V33.8481H110.951ZM111.844 31.4375L111.995 31.5689L111.995 31.5687L111.844 31.4375ZM114.078 30.2579V30.0579H114.067L114.056 30.059L114.078 30.2579ZM114.426 30.2579V30.4579L114.427 30.4579L114.426 30.2579ZM116.482 30.9567L116.361 31.1153L116.362 31.1166L116.482 30.9567ZM117.822 33.1301L117.626 33.1677L117.627 33.1721L117.822 33.1301ZM117.878 33.3865L117.682 33.4285L117.716 33.5865H117.878V33.3865ZM148.412 33.3865V33.5866L148.418 33.5864L148.412 33.3865ZM148.584 33.419L148.662 33.2348L148.662 33.2348L148.584 33.419ZM148.73 33.5211L148.584 33.6578L148.588 33.6618L148.73 33.5211ZM111.85 33.8481L112.05 33.8481L112.05 33.8477L111.85 33.8481ZM111.85 57.1464H111.65V57.5579L111.974 57.3036L111.85 57.1464ZM112.34 56.7617L112.218 56.6034L112.216 56.6044L112.34 56.7617ZM116.507 56.7617L116.63 56.6044L116.629 56.6034L116.507 56.7617ZM116.996 57.1464L116.873 57.3036L117.196 57.5579V57.1464H116.996ZM116.996 33.8481L116.796 33.8479V33.8481H116.996ZM116.801 32.8233L116.987 32.7494L116.987 32.7494L116.801 32.8233ZM116.244 31.9568L116.388 31.8179L116.387 31.8171L116.244 31.9568ZM112.609 31.9568L112.752 32.0967L112.752 32.0966L112.609 31.9568ZM147.953 63.0767V63.2767H148.153L148.153 63.0768L147.953 63.0767ZM114.426 63.0767V62.8767L114.424 62.8767L114.426 63.0767ZM147.965 34.3033L148.165 34.3034L148.165 34.1033H147.965V34.3033ZM117.865 34.3033V34.1033H117.665V34.3033H117.865ZM117.865 59.6275L118.065 59.6292V59.6275H117.865ZM117.737 59.9545L117.869 60.105L117.876 60.0982L117.883 60.0907L117.737 59.9545ZM117.125 59.9545L116.978 60.0907L116.985 60.0982L116.993 60.105L117.125 59.9545ZM116.996 59.6275L116.796 59.6275L116.796 59.6292L116.996 59.6275ZM116.801 58.6059L116.615 58.6801L116.615 58.6801L116.801 58.6059ZM116.244 57.7426L116.387 57.6035L116.387 57.6028L116.244 57.7426ZM112.609 57.7426L112.752 57.8826L112.752 57.8824L112.609 57.7426ZM112.047 58.6045L111.862 58.5299L111.862 58.5299L112.047 58.6045ZM111.85 59.6275L112.05 59.6275L112.05 59.6274L111.85 59.6275ZM111.85 60.4097L112.05 60.4117V60.4097H111.85ZM112.591 62.2946L112.735 62.1564L112.734 62.1556L112.591 62.2946ZM130.593 72.13L130.793 72.1336V72.13H130.593ZM130.625 72.3045L130.811 72.2301L130.811 72.2301L130.625 72.3045ZM130.593 67.437H130.793L130.793 67.4334L130.593 67.437ZM130.625 67.2625L130.811 67.3369L130.811 67.3369L130.625 67.2625ZM130.722 67.1164L130.863 67.2587L130.866 67.2547L130.722 67.1164ZM130.868 67.0153L130.946 67.1995L130.946 67.1995L130.868 67.0153ZM131.04 66.9818L131.037 67.1818H131.04V66.9818ZM151.741 66.9818V67.1818H151.941V66.9818H151.741ZM151.741 48.6843L151.541 48.6832V48.6843H151.741ZM151.87 48.3637L152.014 48.5024L152.015 48.5009L151.87 48.3637ZM152.188 48.2227V48.0227L152.186 48.0227L152.188 48.2227ZM156.74 48.2227V48.4227L156.742 48.4227L156.74 48.2227ZM156.913 48.2586L156.832 48.4415L156.832 48.4415L156.913 48.2586ZM157.059 48.3637L156.91 48.4986L156.92 48.5078L157.059 48.3637ZM157.158 48.5092L157.342 48.4318L157.342 48.4318L157.158 48.5092ZM157.193 48.6843L157.393 48.6843L157.393 48.6841L157.193 48.6843ZM157.193 72.13L157.393 72.1302V72.13H157.193ZM157.059 72.4505L156.92 72.3062L156.912 72.314L157.059 72.4505ZM156.913 72.5527L156.835 72.3685L156.835 72.3685L156.913 72.5527ZM156.74 72.5852L156.746 72.3852H156.74V72.5852ZM131.04 72.5852V72.3852L131.037 72.3852L131.04 72.5852ZM130.868 72.5517L130.79 72.7358L130.79 72.7359L130.868 72.5517ZM130.722 72.4505L130.866 72.3122L130.862 72.3083L130.722 72.4505ZM152.622 49.1459V48.9459H152.422L152.422 49.1461L152.622 49.1459ZM156.275 49.1459H156.475V48.9459H156.275V49.1459ZM152.641 66.9818L152.441 66.982L152.441 67.1818H152.641V66.9818ZM156.275 66.9818V67.1818H156.475V66.9818H156.275ZM131.493 67.8986V67.6986H131.293V67.8986H131.493ZM133.616 67.8986H133.816V67.6986H133.616V67.8986ZM131.493 71.6684H131.293V71.8684H131.493V71.6684ZM156.275 71.6684V71.8684H156.475V71.6684H156.275ZM156.275 67.8986H156.475V67.6986H156.275V67.8986ZM150.34 67.8986V67.6986H150.14V67.8986H150.34ZM150.34 68.9821L150.54 68.9843V68.9821H150.34ZM150.205 69.3091L150.339 69.4584L150.347 69.4497L150.205 69.3091ZM149.593 69.3091L149.449 69.4477L149.454 69.4531L149.46 69.4581L149.593 69.3091ZM149.497 69.1592L149.684 69.086L149.684 69.086L149.497 69.1592ZM149.465 68.9821L149.665 68.9837V68.9821H149.465ZM149.465 67.8986H149.665V67.6986H149.465V67.8986ZM148.094 67.8986V67.6986H147.894V67.8986H148.094ZM148.094 68.9821H147.894L147.894 68.9837L148.094 68.9821ZM148.061 69.1592L147.875 69.086L147.875 69.086L148.061 69.1592ZM147.966 69.3091L148.099 69.4581L148.104 69.4531L148.11 69.4477L147.966 69.3091ZM147.354 69.3091L147.211 69.45L147.22 69.4581L147.354 69.3091ZM147.219 68.9821H147.019L147.019 68.9842L147.219 68.9821ZM147.219 67.8986H147.419V67.6986H147.219V67.8986ZM145.683 67.8986V67.6986H145.483V67.8986H145.683ZM145.683 68.9821L145.883 68.9848V68.9821H145.683ZM145.555 69.3091L145.686 69.4596L145.694 69.4525L145.702 69.4445L145.555 69.3091ZM144.943 69.3091L144.796 69.4445L144.803 69.4525L144.811 69.4596L144.943 69.3091ZM144.814 68.9821H144.614L144.614 68.9848L144.814 68.9821ZM144.814 67.8986H145.014V67.6986H144.814V67.8986ZM143.45 67.8986V67.6986H143.25V67.8986H143.45ZM143.45 68.9821L143.65 68.9842V68.9821H143.45ZM143.315 69.3091L143.449 69.4584L143.457 69.4497L143.315 69.3091ZM142.703 69.3091L142.559 69.4477L142.564 69.4531L142.57 69.4581L142.703 69.3091ZM142.607 69.1592L142.793 69.086L142.793 69.086L142.607 69.1592ZM142.575 68.9821L142.775 68.9837V68.9821H142.575ZM142.575 67.8986H142.775V67.6986H142.575V67.8986ZM141.204 67.8986V67.6986H141.004V67.8986H141.204ZM141.204 68.9821H141.004L141.004 68.9837L141.204 68.9821ZM141.171 69.1592L140.985 69.086L140.985 69.086L141.171 69.1592ZM141.075 69.3091L141.209 69.4581L141.214 69.4531L141.22 69.4477L141.075 69.3091ZM140.463 69.3091L140.319 69.4477L140.325 69.4531L140.33 69.4581L140.463 69.3091ZM140.368 69.1592L140.182 69.2323L140.182 69.2323L140.368 69.1592ZM140.335 68.9821L140.535 68.9837V68.9821H140.335ZM140.335 67.8986H140.535V67.6986H140.335V67.8986ZM138.964 67.8986V67.6986H138.764V67.8986H138.964ZM138.964 68.9821H138.764L138.764 68.9837L138.964 68.9821ZM138.932 69.1592L139.118 69.2323L139.118 69.2323L138.932 69.1592ZM138.836 69.3091L138.968 69.4596L138.974 69.4539L138.98 69.4477L138.836 69.3091ZM138.224 69.3091L138.077 69.4445L138.084 69.4525L138.092 69.4596L138.224 69.3091ZM138.095 68.9821H137.895L137.895 68.9848L138.095 68.9821ZM138.095 67.8986H138.295V67.6986H138.095V67.8986ZM136.731 67.8986V67.6986H136.531V67.8986H136.731ZM136.731 68.9821L136.931 68.9842V68.9821H136.731ZM136.596 69.3091L136.73 69.4584L136.738 69.4497L136.596 69.3091ZM135.984 69.3091L135.84 69.4477L135.845 69.4531L135.851 69.4581L135.984 69.3091ZM135.888 69.1592L136.075 69.086L136.075 69.086L135.888 69.1592ZM135.856 68.9821L136.056 68.9837V68.9821H135.856ZM135.856 67.8986H136.056V67.6986H135.856V67.8986ZM134.485 67.8986V67.6986H134.285V67.8986H134.485ZM134.485 68.9821H134.285L134.285 68.9837L134.485 68.9821ZM134.452 69.1592L134.639 69.2323L134.639 69.2323L134.452 69.1592ZM134.357 69.3091L134.49 69.4581L134.496 69.4531L134.501 69.4477L134.357 69.3091ZM133.745 69.3091L133.601 69.4477L133.606 69.4531L133.611 69.4581L133.745 69.3091ZM133.649 69.1592L133.835 69.086L133.835 69.086L133.649 69.1592ZM133.616 68.9821L133.816 68.9837V68.9821H133.616ZM129.703 41.2365L129.78 41.0518L129.78 41.0518L129.703 41.2365ZM129.853 41.3378L129.998 41.2L129.996 41.1979L129.853 41.3378ZM129.528 41.2032V41.4032L129.532 41.4032L129.528 41.2032ZM120.466 41.2032L120.462 41.4032H120.466V41.2032ZM120.294 41.2367L120.372 41.4209L120.372 41.4209L120.294 41.2367ZM120.148 41.3378L120.289 41.4792L120.292 41.4762L120.148 41.3378ZM120.05 41.4871L120.237 41.5602L120.237 41.5602L120.05 41.4871ZM120.019 41.6648H120.219L120.219 41.6597L120.019 41.6648ZM120.019 60.4111L120.219 60.4163V60.4111H120.019ZM120.05 60.5889L120.237 60.5157L120.237 60.5157L120.05 60.5889ZM120.148 60.7381L120.292 60.5997L120.289 60.5967L120.148 60.7381ZM120.294 60.8392L120.216 61.0234L120.216 61.0234L120.294 60.8392ZM120.466 60.8727V60.6727L120.462 60.6727L120.466 60.8727ZM138.597 60.8727L138.599 60.6727H138.597V60.8727ZM138.769 60.8387L138.847 61.0229L138.847 61.0229L138.769 60.8387ZM138.915 60.7381L138.774 60.5967L138.771 60.5989L138.915 60.7381ZM139.012 60.5889L139.198 60.662L139.199 60.662L139.012 60.5889ZM139.044 60.4111H138.843L138.844 60.4163L139.044 60.4111ZM139.044 51.038L138.844 51.0364V51.038H139.044ZM139.011 50.8609L139.197 50.7877L139.197 50.7877L139.011 50.8609ZM138.915 50.711L139.059 50.5722L139.055 50.5681L138.915 50.711ZM138.597 50.5764L138.6 50.3764H138.597V50.5764ZM129.981 50.5764H129.781V50.7764H129.981V50.5764ZM129.981 41.6648L129.781 41.6643V41.6648H129.981ZM129.948 41.4879L129.762 41.5611L129.762 41.5611L129.948 41.4879ZM138.144 59.9559V60.1559H138.344V59.9559H138.144ZM138.144 51.4996H138.344V51.2996H138.144V51.4996ZM129.981 59.9559H129.781V60.1559H129.981V59.9559ZM129.981 57.2889H130.181L130.181 57.2862L129.981 57.2889ZM129.853 56.9619L130 56.8262L129.991 56.8172L129.853 56.9619ZM129.21 56.9619L129.072 56.8168L129.063 56.8265L129.21 56.9619ZM129.082 57.2889L128.882 57.2862V57.2889H129.082ZM129.082 59.9559V60.1559H129.282V59.9559H129.082ZM120.906 59.9559H120.706V60.1559H120.906V59.9559ZM120.906 51.4996V51.2996H120.706V51.4996H120.906ZM123.476 51.4996V51.6996L123.478 51.6996L123.476 51.4996ZM123.795 51.3649L123.936 51.5065L123.942 51.5004L123.795 51.3649ZM123.795 50.7238L123.942 50.5882L123.936 50.5823L123.795 50.7238ZM123.476 50.5892L123.478 50.3892H123.476V50.5892ZM120.906 50.5892H120.706V50.7892H120.906V50.5892ZM120.906 42.12V41.92H120.706V42.12H120.906ZM129.082 42.12H129.282V41.92H129.082V42.12ZM129.082 50.5764V50.7764H129.282V50.5764H129.082ZM126.512 50.5764V50.3764L126.511 50.3764L126.512 50.5764ZM126.187 50.711L126.047 50.5679L126.04 50.5755L126.187 50.711ZM126.187 51.3521L126.04 51.4878L126.047 51.495L126.187 51.3521ZM126.512 51.4867L126.511 51.6867H126.512V51.4867ZM129.082 51.4867H129.282V51.2867H129.082V51.4867ZM129.082 54.1538H128.882L128.882 54.1549L129.082 54.1538ZM129.21 54.4744L129.066 54.6131L129.069 54.6157L129.21 54.4744ZM129.853 54.4744L129.994 54.6157L129.997 54.613L129.853 54.4744ZM129.981 54.1538L130.181 54.1549V54.1538H129.981ZM129.981 51.4996V51.2996H129.781V51.4996H129.981ZM145.712 37.3299L145.864 37.2004L145.858 37.1934L145.852 37.187L145.712 37.3299ZM145.394 37.1953L145.397 36.9953H145.394V37.1953ZM145.828 37.6441L146.028 37.6452L146.028 37.6418L145.828 37.6441ZM145.699 37.9647L145.555 37.826L145.554 37.8275L145.699 37.9647ZM145.381 38.1057V38.3057L145.383 38.3057L145.381 38.1057ZM132.531 38.1057L132.53 38.3057H132.531V38.1057ZM132.213 37.9711L132.066 38.1067L132.072 38.1125L132.213 37.9711ZM132.213 37.3299L132.071 37.1883L132.066 37.1944L132.213 37.3299ZM132.531 37.1953V36.9953L132.53 36.9953L132.531 37.1953ZM145.397 40.4141L145.4 40.2141H145.397V40.4141ZM145.715 40.5487L145.867 40.4192L145.861 40.4122L145.855 40.4058L145.715 40.5487ZM132.534 40.4141L132.531 40.6141H132.534V40.4141ZM132.364 40.4474L132.441 40.6317L132.441 40.6317L132.364 40.4474ZM132.219 40.547L132.362 40.6861L132.362 40.6861L132.219 40.547ZM132.122 40.6976L132.307 40.7717L132.307 40.7717L132.122 40.6976ZM132.087 40.8757L132.287 40.8793L132.287 40.8757L132.087 40.8757ZM132.119 41.0502L131.934 41.1246L131.934 41.1246L132.119 41.0502ZM132.216 41.1963L132.362 41.0598L132.357 41.0541L132.216 41.1963ZM132.362 41.3003L132.28 41.4832L132.28 41.4832L132.362 41.3003ZM132.534 41.3373L132.534 41.5373H132.534V41.3373ZM145.384 41.3373V41.5373L145.386 41.5373L145.384 41.3373ZM145.703 41.1963L145.558 41.0576L145.557 41.0591L145.703 41.1963ZM145.831 40.8757L145.631 40.8729L145.631 40.8746L145.831 40.8757ZM139.669 43.7817L139.523 43.9182L139.53 43.9258L139.669 43.7817ZM139.524 43.6776L139.442 43.8605L139.442 43.8605L139.524 43.6776ZM139.768 43.9272L139.953 43.8497L139.953 43.8497L139.768 43.9272ZM139.804 44.1022L140.004 44.1044L140.004 44.102L139.804 44.1022ZM139.768 44.2799L139.583 44.2037L139.583 44.2037L139.768 44.2799ZM139.669 44.4292L139.81 44.5707L139.811 44.5698L139.669 44.4292ZM139.351 44.5638V44.7638L139.352 44.7638L139.351 44.5638ZM132.534 44.5638V44.3638L132.531 44.3639L132.534 44.5638ZM132.364 44.5306L132.286 44.7149L132.286 44.7149L132.364 44.5306ZM132.087 44.1022L132.288 44.1023L132.287 44.0986L132.087 44.1022ZM132.119 43.9277L132.305 44.0021L132.305 44.0021L132.119 43.9277ZM132.216 43.7817L132.357 43.924L132.362 43.918L132.216 43.7817ZM132.362 43.6776L132.443 43.8605L132.443 43.8605L132.362 43.6776ZM132.534 43.6406V43.4406L132.534 43.4406L132.534 43.6406ZM139.351 43.6406L139.352 43.4406H139.351V43.6406ZM147.282 30.5962C147.756 30.5968 148.21 30.4009 148.545 30.0543L148.258 29.7763C147.996 30.0469 147.645 30.1966 147.282 30.1962L147.282 30.5962ZM125.002 30.5962H147.282V30.1962H125.002V30.5962ZM124.855 30.5962H125.002V30.1962H124.855V30.5962ZM120.262 29.0209L124.79 30.5852L124.92 30.2071L120.392 28.6428L120.262 29.0209ZM119.935 28.7708C120.014 28.8882 120.13 28.977 120.264 29.0216L120.39 28.642C120.342 28.626 120.298 28.5932 120.266 28.5466L119.935 28.7708ZM119.821 28.3921C119.819 28.5282 119.859 28.6622 119.937 28.7736L120.264 28.5439C120.236 28.5031 120.22 28.4524 120.221 28.3996L119.821 28.3921ZM119.935 28.014C119.858 28.1273 119.819 28.2624 119.821 28.3995L120.221 28.3922C120.22 28.3365 120.236 28.2828 120.266 28.2391L119.935 28.014ZM120.264 27.7637C120.13 27.8083 120.014 27.8971 119.935 28.0145L120.266 28.2387C120.298 28.1921 120.342 28.1594 120.39 28.1433L120.264 27.7637ZM124.788 26.1622L120.26 27.765L120.394 28.142L124.922 26.5392L124.788 26.1622ZM125.04 26.1542C124.966 26.1403 124.891 26.1403 124.818 26.1542L124.893 26.5472C124.916 26.5426 124.941 26.5426 124.965 26.5472L125.04 26.1542ZM147.282 26.1507H125.002V26.5507H147.282V26.1507ZM148.545 26.6925C148.21 26.346 147.756 26.1501 147.282 26.1507L147.282 26.5507C147.645 26.5502 147.996 26.7 148.258 26.9705L148.545 26.6925ZM148.932 27.2842C148.842 27.0619 148.71 26.8601 148.544 26.6912L148.259 26.9719C148.388 27.1025 148.49 27.2595 148.561 27.4337L148.932 27.2842ZM149.067 27.9859C149.067 27.7451 149.021 27.5065 148.932 27.2842L148.561 27.4337C148.631 27.6079 148.667 27.7955 148.667 27.9852L149.067 27.9859ZM149.067 28.7613V27.9855H148.667V28.7613H149.067ZM148.932 29.4626C149.021 29.2403 149.067 29.0017 149.067 28.7609L148.667 28.7617C148.667 28.9513 148.631 29.1389 148.561 29.3131L148.932 29.4626ZM148.544 30.0556C148.71 29.8867 148.842 29.685 148.932 29.4626L148.561 29.3131C148.49 29.4873 148.388 29.6443 148.259 29.775L148.544 30.0556ZM145.844 27.4739H147.282V27.0739H145.844V27.4739ZM146.044 29.4794V27.2739H145.644V29.4794H146.044ZM147.282 29.2794H145.844V29.6794H147.282V29.2794ZM147.618 29.1307C147.527 29.226 147.405 29.2782 147.28 29.2794L147.284 29.6793C147.519 29.6772 147.742 29.5788 147.907 29.4082L147.618 29.1307ZM147.767 28.7643C147.765 28.9039 147.71 29.0352 147.618 29.1307L147.907 29.4082C148.071 29.2379 148.163 29.0092 148.167 28.7711L147.767 28.7643ZM147.767 27.9855V28.7677H148.167V27.9855H147.767ZM147.729 27.7857C147.754 27.8487 147.767 27.9167 147.767 27.9855L148.167 27.9856C148.167 27.8664 148.145 27.7482 148.101 27.6378L147.729 27.7857ZM147.622 27.6188C147.667 27.666 147.704 27.7226 147.729 27.7857L148.101 27.6378C148.057 27.5273 147.992 27.4265 147.91 27.3413L147.622 27.6188ZM147.465 27.5102C147.523 27.5349 147.577 27.5717 147.622 27.6188L147.91 27.3413C147.828 27.2561 147.73 27.1883 147.622 27.1422L147.465 27.5102ZM147.284 27.4739C147.346 27.4733 147.407 27.4856 147.465 27.5102L147.622 27.1422C147.514 27.0961 147.397 27.0728 147.28 27.0739L147.284 27.4739ZM143.58 27.4739H144.944V27.0739H143.58V27.4739ZM143.78 29.4794V27.2739H143.38V29.4794H143.78ZM144.944 29.2794H143.58V29.6794H144.944V29.2794ZM144.744 27.2739V29.4794H145.144V27.2739H144.744ZM126.96 27.4739H142.68V27.0739H126.96V27.4739ZM127.16 29.4794V27.2739H126.76V29.4794H127.16ZM142.68 29.2794H126.96V29.6794H142.68V29.2794ZM142.48 27.2739V29.4794H142.88V27.2739H142.48ZM121.946 28.566L125.189 27.4633L125.06 27.0846L121.817 28.1873L121.946 28.566ZM125.117 29.2905L121.947 28.1877L121.816 28.5655L124.985 29.6682L125.117 29.2905ZM126.061 29.2794H125.051V29.6794H126.061V29.2794ZM125.861 27.2739V29.4794H126.261V27.2739H125.861ZM125.124 27.4739H126.061V27.0739H125.124V27.4739ZM149.065 33.846C149.064 33.7596 149.047 33.6741 149.014 33.5943L148.644 33.7466C148.657 33.7791 148.664 33.8144 148.665 33.8503L149.065 33.846ZM149.095 63.5638L149.065 33.8479L148.665 33.8483L148.695 63.5642L149.095 63.5638ZM149.045 63.8165C149.078 63.7367 149.095 63.6508 149.095 63.5642L148.695 63.5637C148.695 63.5977 148.689 63.6311 148.676 63.6616L149.045 63.8165ZM148.899 64.0286C148.962 63.9686 149.011 63.8963 149.045 63.8165L148.676 63.6616C148.663 63.6921 148.644 63.7189 148.622 63.7404L148.899 64.0286ZM148.697 64.1725C148.777 64.1367 148.849 64.0844 148.909 64.0192L148.613 63.7499C148.59 63.7748 148.563 63.794 148.535 63.8068L148.697 64.1725ZM148.441 64.2256C148.529 64.2264 148.616 64.2082 148.697 64.1725L148.535 63.8068C148.506 63.8196 148.475 63.8259 148.444 63.8256L148.441 64.2256ZM114.42 64.2256H148.443V63.8256H114.42V64.2256ZM111.829 63.1132C112.518 63.8253 113.449 64.2262 114.42 64.2256L114.42 63.8256C113.56 63.8261 112.732 63.4714 112.116 62.8351L111.829 63.1132ZM111.029 61.8737C111.214 62.3379 111.486 62.7594 111.829 63.1133L112.116 62.835C111.81 62.5192 111.567 62.1421 111.401 61.7257L111.029 61.8737ZM110.751 60.4093C110.75 60.9118 110.844 61.4096 111.029 61.8737L111.401 61.7257C111.235 61.3092 111.15 60.8619 111.151 60.41L110.751 60.4093ZM110.751 33.8481V60.4097H111.151V33.8481H110.751ZM111.693 31.3061C111.087 32.002 110.751 32.9087 110.751 33.848L111.151 33.8482C111.151 33.0033 111.453 32.1904 111.995 31.5689L111.693 31.3061ZM114.056 30.059C113.147 30.1561 112.306 30.6013 111.693 31.3063L111.995 31.5687C112.543 30.9377 113.293 30.5428 114.099 30.4567L114.056 30.059ZM114.426 30.0579H114.078V30.4579H114.426V30.0579ZM116.604 30.798C115.973 30.3139 115.21 30.0539 114.425 30.0579L114.427 30.4579C115.121 30.4543 115.799 30.6843 116.361 31.1153L116.604 30.798ZM118.019 33.0925C117.842 32.169 117.337 31.3479 116.602 30.7967L116.362 31.1166C117.015 31.6062 117.467 32.3388 117.626 33.1677L118.019 33.0925ZM118.073 33.3445L118.018 33.0881L117.627 33.1721L117.682 33.4285L118.073 33.3445ZM148.412 33.1865H117.878V33.5865H148.412V33.1865ZM148.662 33.2348C148.581 33.2005 148.494 33.184 148.406 33.1866L148.418 33.5864C148.448 33.5855 148.478 33.5911 148.507 33.6032L148.662 33.2348ZM148.876 33.3846C148.816 33.3203 148.743 33.2691 148.662 33.2348L148.507 33.6032C148.535 33.6152 148.562 33.6336 148.584 33.6577L148.876 33.3846ZM149.014 33.5943C148.981 33.5146 148.933 33.4418 148.872 33.3805L148.588 33.6618C148.611 33.6854 148.63 33.7142 148.644 33.7466L149.014 33.5943ZM112.05 33.8477C112.05 33.5208 112.112 33.1973 112.232 32.8964L111.861 32.7475C111.721 33.0963 111.649 33.4706 111.65 33.8485L112.05 33.8477ZM112.05 57.1464V33.8481H111.65V57.1464H112.05ZM112.216 56.6044L111.727 56.9891L111.974 57.3036L112.463 56.919L112.216 56.6044ZM114.423 55.8443C113.628 55.8443 112.856 56.1108 112.218 56.6034L112.462 56.92C113.031 56.4805 113.719 56.2443 114.423 56.2443V55.8443ZM116.629 56.6034C115.991 56.1108 115.218 55.8443 114.423 55.8443V56.2443C115.128 56.2443 115.815 56.4805 116.385 56.92L116.629 56.6034ZM117.12 56.9891L116.63 56.6044L116.383 56.919L116.873 57.3036L117.12 56.9891ZM116.796 33.8481V57.1464H117.196V33.8481H116.796ZM116.615 32.8973C116.735 33.1982 116.797 33.5213 116.796 33.8479L117.196 33.8484C117.197 33.4714 117.126 33.0978 116.987 32.7494L116.615 32.8973ZM116.1 32.0958C116.32 32.324 116.496 32.5963 116.615 32.8973L116.987 32.7494C116.848 32.4009 116.645 32.0842 116.388 31.8179L116.1 32.0958ZM114.426 31.3811C115.05 31.3811 115.651 31.6368 116.101 32.0966L116.387 31.8171C115.864 31.2822 115.161 30.9811 114.426 30.9811V31.3811ZM112.752 32.0966C113.201 31.6368 113.802 31.3811 114.426 31.3811V30.9811C113.692 30.9811 112.988 31.2822 112.466 31.8171L112.752 32.0966ZM112.232 32.8964C112.353 32.5955 112.53 32.3237 112.752 32.0967L112.466 31.817C112.207 32.0821 112.001 32.3986 111.861 32.7475L112.232 32.8964ZM147.953 62.8767H114.426V63.2767H147.953V62.8767ZM147.765 34.3032L147.753 63.0766L148.153 63.0768L148.165 34.3034L147.765 34.3032ZM117.865 34.5033H147.965V34.1033H117.865V34.5033ZM118.065 59.6275V34.3033H117.665V59.6275H118.065ZM117.883 60.0907C118 59.9656 118.064 59.8002 118.065 59.6292L117.665 59.6258C117.665 59.6994 117.637 59.7682 117.59 59.8183L117.883 60.0907ZM117.431 60.2707C117.592 60.2707 117.747 60.2113 117.869 60.105L117.605 59.804C117.555 59.8479 117.493 59.8707 117.431 59.8707V60.2707ZM116.993 60.105C117.115 60.2113 117.27 60.2707 117.431 60.2707V59.8707C117.369 59.8707 117.307 59.8479 117.257 59.804L116.993 60.105ZM116.796 59.6292C116.798 59.8002 116.862 59.9656 116.978 60.0907L117.271 59.8183C117.225 59.7682 117.197 59.6994 117.196 59.6258L116.796 59.6292ZM116.615 58.6801C116.735 58.9799 116.796 59.302 116.796 59.6275L117.196 59.6275C117.196 59.2515 117.125 58.8791 116.986 58.5318L116.615 58.6801ZM116.1 57.8817C116.32 58.109 116.495 58.3803 116.615 58.6801L116.986 58.5318C116.848 58.1844 116.644 57.8688 116.387 57.6035L116.1 57.8817ZM114.426 57.1669C115.05 57.1669 115.651 57.4225 116.101 57.8824L116.387 57.6028C115.864 57.068 115.161 56.7669 114.426 56.7669V57.1669ZM112.752 57.8824C113.201 57.4225 113.802 57.1669 114.426 57.1669V56.7669C113.692 56.7669 112.988 57.068 112.466 57.6028L112.752 57.8824ZM112.233 58.6792C112.354 58.3794 112.53 58.1086 112.752 57.8826L112.466 57.6026C112.207 57.8668 112.002 58.1822 111.862 58.5299L112.233 58.6792ZM112.05 59.6274C112.05 59.3015 112.112 58.979 112.233 58.6792L111.862 58.5299C111.722 58.8775 111.65 59.2508 111.65 59.6276L112.05 59.6274ZM112.05 60.4097V59.6275H111.65V60.4097H112.05ZM112.224 61.3579C112.106 61.0581 112.047 60.7363 112.05 60.4117L111.65 60.4076C111.646 60.7833 111.715 61.1562 111.851 61.5041L112.224 61.3579ZM112.734 62.1556C112.515 61.9288 112.341 61.6576 112.224 61.3579L111.851 61.5041C111.988 61.852 112.19 62.1682 112.447 62.4335L112.734 62.1556ZM113.511 62.696C113.222 62.5725 112.958 62.3892 112.735 62.1564L112.446 62.4327C112.705 62.704 113.014 62.9188 113.355 63.064L113.511 62.696ZM114.424 62.8767C114.111 62.8808 113.801 62.8195 113.511 62.696L113.355 63.064C113.695 63.2091 114.061 63.2815 114.429 63.2767L114.424 62.8767ZM130.393 72.1264C130.392 72.2127 130.407 72.2987 130.44 72.3789L130.811 72.2301C130.799 72.1999 130.793 72.167 130.793 72.1336L130.393 72.1264ZM130.393 67.437V72.13H130.793V67.437H130.393ZM130.44 67.1881C130.407 67.2683 130.392 67.3542 130.393 67.4406L130.793 67.4334C130.793 67.4 130.799 67.3671 130.811 67.3369L130.44 67.1881ZM130.581 66.9742C130.52 67.0349 130.472 67.1079 130.44 67.1881L130.811 67.3369C130.823 67.3067 130.841 67.2801 130.862 67.2586L130.581 66.9742ZM130.79 66.8311C130.71 66.8651 130.638 66.9152 130.577 66.9781L130.866 67.2547C130.89 67.2305 130.917 67.2119 130.946 67.1995L130.79 66.8311ZM131.043 66.7818C130.956 66.7804 130.87 66.7972 130.79 66.8311L130.946 67.1995C130.975 67.1872 131.006 67.1813 131.037 67.1818L131.043 66.7818ZM151.741 66.7818H131.04V67.1818H151.741V66.7818ZM151.541 48.6843V66.9818H151.941V48.6843H151.541ZM151.725 48.225C151.607 48.3478 151.542 48.5127 151.541 48.6832L151.941 48.6854C151.941 48.6149 151.969 48.5493 152.014 48.5024L151.725 48.225ZM152.186 48.0227C152.01 48.0243 151.844 48.0988 151.724 48.2265L152.015 48.5009C152.063 48.4502 152.126 48.4233 152.19 48.4227L152.186 48.0227ZM156.74 48.0227H152.188V48.4227H156.74V48.0227ZM156.994 48.0758C156.914 48.0401 156.827 48.0219 156.739 48.0227L156.742 48.4227C156.773 48.4224 156.804 48.4287 156.832 48.4415L156.994 48.0758ZM157.206 48.2291C157.147 48.1639 157.075 48.1115 156.994 48.0758L156.832 48.4415C156.861 48.4543 156.888 48.4734 156.911 48.4983L157.206 48.2291ZM157.342 48.4318C157.309 48.352 157.26 48.2796 157.197 48.2196L156.92 48.5078C156.942 48.5294 156.961 48.5561 156.974 48.5867L157.342 48.4318ZM157.393 48.6841C157.393 48.5975 157.376 48.5116 157.342 48.4318L156.974 48.5866C156.986 48.6172 156.993 48.6505 156.993 48.6845L157.393 48.6841ZM157.393 72.13V48.6843H156.993V72.13H157.393ZM157.342 72.3825C157.376 72.3027 157.393 72.2168 157.393 72.1302L156.993 72.1298C156.993 72.1637 156.986 72.1971 156.974 72.2276L157.342 72.3825ZM157.197 72.5947C157.26 72.5347 157.309 72.4623 157.342 72.3825L156.974 72.2276C156.961 72.2581 156.942 72.2849 156.92 72.3064L157.197 72.5947ZM156.991 72.7369C157.072 72.7026 157.145 72.6514 157.205 72.5871L156.912 72.314C156.89 72.3381 156.863 72.3565 156.835 72.3685L156.991 72.7369ZM156.734 72.7851C156.822 72.7877 156.91 72.7712 156.991 72.7369L156.835 72.3685C156.807 72.3806 156.776 72.3862 156.746 72.3853L156.734 72.7851ZM131.04 72.7852H156.74V72.3852H131.04V72.7852ZM130.79 72.7359C130.87 72.7698 130.956 72.7866 131.043 72.7852L131.037 72.3852C131.006 72.3857 130.975 72.3798 130.946 72.3675L130.79 72.7359ZM130.577 72.5889C130.638 72.6518 130.71 72.7019 130.79 72.7358L130.946 72.3675C130.917 72.3551 130.89 72.3365 130.866 72.3122L130.577 72.5889ZM130.44 72.3789C130.472 72.4591 130.52 72.532 130.581 72.5928L130.862 72.3083C130.841 72.2869 130.823 72.2603 130.811 72.2301L130.44 72.3789ZM152.622 49.3459H156.275V48.9459H152.622V49.3459ZM152.841 66.9816L152.822 49.1457L152.422 49.1461L152.441 66.982L152.841 66.9816ZM156.275 66.7818H152.641V67.1818H156.275V66.7818ZM156.075 49.1459V66.9818H156.475V49.1459H156.075ZM131.493 68.0986H133.616V67.6986H131.493V68.0986ZM131.693 71.6684V67.8986H131.293V71.6684H131.693ZM156.275 71.4684H131.493V71.8684H156.275V71.4684ZM156.075 67.8986V71.6684H156.475V67.8986H156.075ZM150.34 68.0986H156.275V67.6986H150.34V68.0986ZM150.54 68.9821V67.8986H150.14V68.9821H150.54ZM150.489 69.2359C150.522 69.1561 150.539 69.0706 150.54 68.9843L150.14 68.9799C150.139 69.0159 150.132 69.0511 150.119 69.0836L150.489 69.2359ZM150.347 69.4497C150.408 69.3884 150.456 69.3157 150.489 69.2359L150.119 69.0836C150.105 69.116 150.086 69.1448 150.063 69.1684L150.347 69.4497ZM149.899 69.6273C150.062 69.6273 150.217 69.5665 150.338 69.4581L150.072 69.16C150.022 69.2042 149.961 69.2273 149.899 69.2273V69.6273ZM149.46 69.4581C149.581 69.5665 149.737 69.6273 149.899 69.6273V69.2273C149.837 69.2273 149.776 69.2042 149.727 69.16L149.46 69.4581ZM149.311 69.2323C149.343 69.3125 149.389 69.3858 149.449 69.4477L149.737 69.1704C149.715 69.1468 149.696 69.1182 149.684 69.086L149.311 69.2323ZM149.265 68.9805C149.264 69.0666 149.28 69.1522 149.311 69.2323L149.684 69.086C149.671 69.0538 149.664 69.019 149.665 68.9837L149.265 68.9805ZM149.265 67.8986V68.9821H149.665V67.8986H149.265ZM148.094 68.0986H149.465V67.6986H148.094V68.0986ZM148.294 68.9821V67.8986H147.894V68.9821H148.294ZM148.247 69.2323C148.279 69.1522 148.295 69.0666 148.294 68.9805L147.894 68.9837C147.894 69.019 147.888 69.0538 147.875 69.086L148.247 69.2323ZM148.11 69.4477C148.169 69.3858 148.216 69.3125 148.247 69.2323L147.875 69.086C147.863 69.1182 147.844 69.1468 147.821 69.1704L148.11 69.4477ZM147.66 69.6273C147.822 69.6273 147.978 69.5665 148.099 69.4581L147.832 69.16C147.783 69.2042 147.721 69.2273 147.66 69.2273V69.6273ZM147.22 69.4581C147.341 69.5665 147.497 69.6273 147.66 69.6273V69.2273C147.598 69.2273 147.536 69.2042 147.487 69.16L147.22 69.4581ZM147.07 69.2359C147.103 69.3157 147.151 69.3884 147.211 69.4497L147.496 69.1684C147.472 69.1448 147.453 69.1161 147.44 69.0836L147.07 69.2359ZM147.019 68.9842C147.02 69.0706 147.037 69.1561 147.07 69.2359L147.44 69.0836C147.427 69.0511 147.419 69.0159 147.419 68.9799L147.019 68.9842ZM147.019 67.8986V68.9821H147.419V67.8986H147.019ZM145.683 68.0986H147.219V67.6986H145.683V68.0986ZM145.883 68.9821V67.8986H145.483V68.9821H145.883ZM145.702 69.4445C145.817 69.3194 145.881 69.155 145.883 68.9848L145.483 68.9794C145.482 69.0535 145.454 69.1228 145.407 69.1736L145.702 69.4445ZM145.249 69.6253C145.41 69.6253 145.565 69.5659 145.686 69.4596L145.423 69.1586C145.373 69.2025 145.311 69.2253 145.249 69.2253V69.6253ZM144.811 69.4596C144.932 69.5659 145.087 69.6253 145.249 69.6253V69.2253C145.186 69.2253 145.125 69.2025 145.074 69.1586L144.811 69.4596ZM144.614 68.9848C144.616 69.155 144.68 69.3194 144.796 69.4445L145.09 69.1736C145.043 69.1228 145.015 69.0535 145.014 68.9794L144.614 68.9848ZM144.614 67.8986V68.9821H145.014V67.8986H144.614ZM143.45 68.0986H144.814V67.6986H143.45V68.0986ZM143.65 68.9821V67.8986H143.25V68.9821H143.65ZM143.599 69.2359C143.631 69.1561 143.649 69.0706 143.65 68.9842L143.25 68.9799C143.249 69.0159 143.242 69.0511 143.229 69.0836L143.599 69.2359ZM143.457 69.4497C143.518 69.3884 143.566 69.3157 143.599 69.2359L143.229 69.0836C143.215 69.116 143.196 69.1448 143.173 69.1684L143.457 69.4497ZM143.009 69.6273C143.171 69.6273 143.327 69.5665 143.448 69.4581L143.182 69.16C143.132 69.2042 143.071 69.2273 143.009 69.2273V69.6273ZM142.57 69.4581C142.691 69.5665 142.847 69.6273 143.009 69.6273V69.2273C142.947 69.2273 142.886 69.2042 142.836 69.16L142.57 69.4581ZM142.421 69.2323C142.453 69.3125 142.499 69.3858 142.559 69.4477L142.847 69.1704C142.825 69.1468 142.806 69.1182 142.793 69.086L142.421 69.2323ZM142.375 68.9805C142.374 69.0666 142.39 69.1522 142.421 69.2323L142.793 69.086C142.781 69.0538 142.774 69.019 142.775 68.9837L142.375 68.9805ZM142.375 67.8986V68.9821H142.775V67.8986H142.375ZM141.204 68.0986H142.575V67.6986H141.204V68.0986ZM141.404 68.9821V67.8986H141.004V68.9821H141.404ZM141.357 69.2323C141.389 69.1522 141.405 69.0666 141.404 68.9805L141.004 68.9837C141.004 69.019 140.998 69.0538 140.985 69.086L141.357 69.2323ZM141.22 69.4477C141.279 69.3858 141.326 69.3125 141.357 69.2323L140.985 69.086C140.972 69.1182 140.954 69.1468 140.931 69.1704L141.22 69.4477ZM140.769 69.6273C140.932 69.6273 141.088 69.5665 141.209 69.4581L140.942 69.16C140.893 69.2042 140.831 69.2273 140.769 69.2273V69.6273ZM140.33 69.4581C140.451 69.5665 140.607 69.6273 140.769 69.6273V69.2273C140.708 69.2273 140.646 69.2042 140.597 69.16L140.33 69.4581ZM140.182 69.2323C140.213 69.3125 140.26 69.3858 140.319 69.4477L140.608 69.1704C140.585 69.1468 140.566 69.1182 140.554 69.086L140.182 69.2323ZM140.135 68.9805C140.134 69.0666 140.15 69.1522 140.182 69.2323L140.554 69.086C140.541 69.0538 140.535 69.019 140.535 68.9837L140.135 68.9805ZM140.135 67.8986V68.9821H140.535V67.8986H140.135ZM138.964 68.0986H140.335V67.6986H138.964V68.0986ZM139.164 68.9821V67.8986H138.764V68.9821H139.164ZM139.118 69.2323C139.149 69.1522 139.165 69.0666 139.164 68.9805L138.764 68.9837C138.765 69.019 138.758 69.0538 138.745 69.086L139.118 69.2323ZM138.98 69.4477C139.04 69.3858 139.086 69.3125 139.118 69.2323L138.745 69.086C138.733 69.1182 138.714 69.1468 138.692 69.1704L138.98 69.4477ZM138.53 69.6253C138.691 69.6253 138.846 69.5659 138.968 69.4596L138.704 69.1586C138.654 69.2025 138.592 69.2253 138.53 69.2253V69.6253ZM138.092 69.4596C138.214 69.5659 138.369 69.6253 138.53 69.6253V69.2253C138.467 69.2253 138.406 69.2025 138.356 69.1586L138.092 69.4596ZM137.895 68.9848C137.898 69.155 137.962 69.3194 138.077 69.4445L138.371 69.1736C138.324 69.1228 138.296 69.0535 138.295 68.9794L137.895 68.9848ZM137.895 67.8986V68.9821H138.295V67.8986H137.895ZM136.731 68.0986H138.095V67.6986H136.731V68.0986ZM136.931 68.9821V67.8986H136.531V68.9821H136.931ZM136.88 69.2359C136.913 69.1561 136.93 69.0706 136.931 68.9842L136.531 68.9799C136.53 69.0159 136.523 69.0511 136.51 69.0836L136.88 69.2359ZM136.738 69.4497C136.799 69.3884 136.847 69.3157 136.88 69.2359L136.51 69.0836C136.497 69.1161 136.477 69.1448 136.454 69.1684L136.738 69.4497ZM136.29 69.6273C136.453 69.6273 136.608 69.5665 136.73 69.4581L136.463 69.16C136.413 69.2042 136.352 69.2273 136.29 69.2273V69.6273ZM135.851 69.4581C135.972 69.5665 136.128 69.6273 136.29 69.6273V69.2273C136.228 69.2273 136.167 69.2042 136.118 69.16L135.851 69.4581ZM135.702 69.2323C135.734 69.3125 135.781 69.3858 135.84 69.4477L136.128 69.1704C136.106 69.1468 136.087 69.1182 136.075 69.086L135.702 69.2323ZM135.656 68.9805C135.655 69.0666 135.671 69.1522 135.702 69.2323L136.075 69.086C136.062 69.0538 136.055 69.019 136.056 68.9837L135.656 68.9805ZM135.656 67.8986V68.9821H136.056V67.8986H135.656ZM134.485 68.0986H135.856V67.6986H134.485V68.0986ZM134.685 68.9821V67.8986H134.285V68.9821H134.685ZM134.639 69.2323C134.67 69.1522 134.686 69.0666 134.685 68.9805L134.285 68.9837C134.285 69.019 134.279 69.0538 134.266 69.086L134.639 69.2323ZM134.501 69.4477C134.56 69.3858 134.607 69.3125 134.639 69.2323L134.266 69.086C134.254 69.1182 134.235 69.1468 134.212 69.1704L134.501 69.4477ZM134.051 69.6273C134.213 69.6273 134.369 69.5665 134.49 69.4581L134.223 69.16C134.174 69.2042 134.113 69.2273 134.051 69.2273V69.6273ZM133.611 69.4581C133.732 69.5665 133.888 69.6273 134.051 69.6273V69.2273C133.989 69.2273 133.927 69.2042 133.878 69.16L133.611 69.4581ZM133.463 69.2323C133.494 69.3125 133.541 69.3858 133.601 69.4477L133.889 69.1704C133.866 69.1468 133.848 69.1182 133.835 69.086L133.463 69.2323ZM133.416 68.9805C133.416 69.0666 133.431 69.1522 133.463 69.2323L133.835 69.086C133.822 69.0538 133.816 69.019 133.816 68.9837L133.416 68.9805ZM133.416 67.8986V68.9821H133.816V67.8986H133.416ZM154.055 69.4613C154.055 69.6253 153.931 69.7421 153.796 69.7421V70.1421C154.169 70.1421 154.455 69.8284 154.455 69.4613H154.055ZM153.796 69.1805C153.931 69.1805 154.055 69.2973 154.055 69.4613H154.455C154.455 69.0942 154.169 68.7805 153.796 68.7805V69.1805ZM153.537 69.4613C153.537 69.2973 153.662 69.1805 153.796 69.1805V68.7805C153.424 68.7805 153.137 69.0942 153.137 69.4613H153.537ZM153.796 69.7421C153.662 69.7421 153.537 69.6253 153.537 69.4613H153.137C153.137 69.8284 153.424 70.1421 153.796 70.1421V69.7421ZM129.627 41.4212C129.657 41.4338 129.685 41.4529 129.71 41.4778L129.996 41.1979C129.934 41.1352 129.861 41.0854 129.78 41.0518L129.627 41.4212ZM129.532 41.4032C129.564 41.4026 129.596 41.4086 129.627 41.4212L129.78 41.0518C129.699 41.0182 129.612 41.0016 129.525 41.0032L129.532 41.4032ZM120.466 41.4032H129.528V41.0032H120.466V41.4032ZM120.372 41.4209C120.401 41.4086 120.432 41.4027 120.462 41.4032L120.469 41.0032C120.382 41.0018 120.296 41.0186 120.216 41.0525L120.372 41.4209ZM120.292 41.4762C120.315 41.4519 120.343 41.4333 120.372 41.4209L120.216 41.0525C120.136 41.0865 120.063 41.1366 120.003 41.1995L120.292 41.4762ZM120.237 41.5602C120.249 41.529 120.267 41.5015 120.289 41.4792L120.006 41.1965C119.944 41.2583 119.896 41.3325 119.864 41.4139L120.237 41.5602ZM120.219 41.6597C120.218 41.6254 120.224 41.5915 120.237 41.5602L119.864 41.4139C119.832 41.4953 119.817 41.5825 119.819 41.67L120.219 41.6597ZM120.219 60.4111V41.6648H119.819V60.4111H120.219ZM120.237 60.5157C120.224 60.4845 120.218 60.4506 120.219 60.4163L119.819 60.406C119.817 60.4934 119.832 60.5806 119.864 60.662L120.237 60.5157ZM120.289 60.5967C120.267 60.5744 120.249 60.5469 120.237 60.5157L119.864 60.662C119.896 60.7434 119.944 60.8176 120.006 60.8794L120.289 60.5967ZM120.372 60.655C120.343 60.6427 120.315 60.6241 120.292 60.5998L120.003 60.8764C120.063 60.9393 120.136 60.9895 120.216 61.0234L120.372 60.655ZM120.462 60.6727C120.432 60.6733 120.401 60.6673 120.372 60.655L120.216 61.0234C120.296 61.0573 120.382 61.0742 120.469 61.0727L120.462 60.6727ZM138.597 60.6727H120.466V61.0727H138.597V60.6727ZM138.691 60.6545C138.661 60.667 138.63 60.6731 138.599 60.6727L138.595 61.0727C138.681 61.0737 138.767 61.0566 138.847 61.0229L138.691 60.6545ZM138.771 60.5989C138.748 60.6233 138.72 60.642 138.691 60.6545L138.847 61.0229C138.926 60.9891 138.998 60.9395 139.059 60.8772L138.771 60.5989ZM138.826 60.5157C138.814 60.5469 138.796 60.5744 138.774 60.5967L139.057 60.8794C139.118 60.8176 139.167 60.7434 139.198 60.662L138.826 60.5157ZM138.844 60.4163C138.844 60.4506 138.838 60.4845 138.826 60.5157L139.199 60.662C139.23 60.5806 139.246 60.4934 139.243 60.406L138.844 60.4163ZM138.844 51.038V60.4111H139.244V51.038H138.844ZM138.825 50.934C138.837 50.9662 138.844 51.0011 138.844 51.0364L139.244 51.0396C139.244 50.9534 139.228 50.8678 139.197 50.7877L138.825 50.934ZM138.771 50.8497C138.794 50.8732 138.812 50.9018 138.825 50.934L139.197 50.7877C139.165 50.7076 139.119 50.6343 139.059 50.5723L138.771 50.8497ZM138.593 50.7763C138.659 50.7774 138.724 50.8041 138.775 50.8539L139.055 50.5681C138.933 50.4485 138.771 50.3793 138.6 50.3764L138.593 50.7763ZM129.981 50.7764H138.597V50.3764H129.981V50.7764ZM129.781 41.6648V50.5764H130.181V41.6648H129.781ZM129.762 41.5611C129.775 41.5936 129.781 41.6287 129.781 41.6643L130.181 41.6653C130.181 41.5796 130.165 41.4945 130.134 41.4148L129.762 41.5611ZM129.708 41.4757C129.731 41.4996 129.749 41.5286 129.762 41.5611L130.134 41.4148C130.103 41.335 130.057 41.262 129.998 41.2L129.708 41.4757ZM138.344 59.9559V51.4996H137.944V59.9559H138.344ZM129.981 60.1559H138.144V59.7559H129.981V60.1559ZM129.781 57.2889V59.9559H130.181V57.2889H129.781ZM129.705 57.0973C129.752 57.1481 129.78 57.2175 129.781 57.2916L130.181 57.2862C130.179 57.116 130.115 56.9515 130 56.8265L129.705 57.0973ZM129.531 57.0317C129.598 57.0317 129.663 57.0575 129.715 57.1066L129.991 56.8172C129.866 56.6988 129.703 56.6317 129.531 56.6317V57.0317ZM129.348 57.1066C129.4 57.0575 129.465 57.0317 129.531 57.0317V56.6317C129.36 56.6317 129.196 56.6988 129.072 56.8172L129.348 57.1066ZM129.282 57.2916C129.283 57.2175 129.311 57.1481 129.357 57.0973L129.063 56.8265C128.948 56.9515 128.884 57.116 128.882 57.2862L129.282 57.2916ZM129.282 59.9559V57.2889H128.882V59.9559H129.282ZM120.906 60.1559H129.082V59.7559H120.906V60.1559ZM120.706 51.4996V59.9559H121.106V51.4996H120.706ZM123.476 51.2996H120.906V51.6996H123.476V51.2996ZM123.653 51.2235C123.604 51.273 123.54 51.2992 123.475 51.2996L123.478 51.6996C123.65 51.6985 123.814 51.6284 123.936 51.5064L123.653 51.2235ZM123.718 51.0444C123.718 51.115 123.692 51.1812 123.648 51.2294L123.942 51.5004C124.056 51.3766 124.118 51.2129 124.118 51.0444H123.718ZM123.648 50.8593C123.692 50.9075 123.718 50.9738 123.718 51.0444H124.118C124.118 50.8758 124.056 50.7122 123.942 50.5883L123.648 50.8593ZM123.475 50.7892C123.54 50.7896 123.604 50.8158 123.653 50.8653L123.936 50.5823C123.814 50.4604 123.65 50.3903 123.478 50.3892L123.475 50.7892ZM120.906 50.7892H123.476V50.3892H120.906V50.7892ZM120.706 42.12V50.5892H121.106V42.12H120.706ZM129.082 41.92H120.906V42.32H129.082V41.92ZM129.282 50.5764V42.12H128.882V50.5764H129.282ZM126.512 50.7764H129.082V50.3764H126.512V50.7764ZM126.327 50.8539C126.379 50.8033 126.445 50.7766 126.512 50.7764L126.511 50.3764C126.337 50.3769 126.172 50.4464 126.047 50.5681L126.327 50.8539ZM126.264 51.0316C126.264 50.9609 126.29 50.8947 126.334 50.8465L126.04 50.5755C125.926 50.6994 125.864 50.863 125.864 51.0316H126.264ZM126.334 51.2166C126.29 51.1684 126.264 51.1022 126.264 51.0316H125.864C125.864 51.2001 125.926 51.3637 126.04 51.4876L126.334 51.2166ZM126.512 51.2867C126.445 51.2865 126.379 51.2598 126.327 51.2092L126.047 51.495C126.172 51.6167 126.337 51.6862 126.511 51.6867L126.512 51.2867ZM129.082 51.2867H126.512V51.6867H129.082V51.2867ZM129.282 54.1538V51.4867H128.882V54.1538H129.282ZM129.354 54.3357C129.309 54.2888 129.282 54.2231 129.282 54.1527L128.882 54.1549C128.883 54.3254 128.948 54.4903 129.066 54.613L129.354 54.3357ZM129.531 54.4093C129.466 54.4093 129.402 54.383 129.352 54.333L129.069 54.6157C129.192 54.7389 129.357 54.8093 129.531 54.8093V54.4093ZM129.711 54.333C129.661 54.383 129.597 54.4093 129.531 54.4093V54.8093C129.705 54.8093 129.871 54.7389 129.994 54.6157L129.711 54.333ZM129.781 54.1527C129.781 54.2231 129.754 54.2888 129.709 54.3357L129.997 54.613C130.115 54.4903 130.18 54.3254 130.181 54.1549L129.781 54.1527ZM129.781 51.4996V54.1538H130.181V51.4996H129.781ZM138.144 51.2996H129.981V51.6996H138.144V51.2996ZM145.852 37.187C145.73 37.0675 145.568 36.9982 145.397 36.9953L145.39 37.3953C145.456 37.3964 145.521 37.4231 145.572 37.4729L145.852 37.187ZM146.028 37.6418C146.026 37.4802 145.969 37.3233 145.864 37.2004L145.559 37.4595C145.602 37.5098 145.627 37.576 145.628 37.6464L146.028 37.6418ZM145.844 38.1033C145.962 37.9806 146.027 37.8157 146.028 37.6452L145.628 37.643C145.628 37.7134 145.6 37.7791 145.555 37.826L145.844 38.1033ZM145.383 38.3057C145.559 38.3041 145.725 38.2296 145.845 38.1018L145.554 37.8275C145.506 37.8782 145.443 37.9051 145.379 37.9057L145.383 38.3057ZM132.531 38.3057H145.381V37.9057H132.531V38.3057ZM132.072 38.1125C132.194 38.2345 132.357 38.3046 132.53 38.3057L132.532 37.9057C132.468 37.9053 132.404 37.8791 132.354 37.8296L132.072 38.1125ZM131.889 37.6505C131.889 37.8191 131.952 37.9827 132.066 38.1066L132.36 37.8356C132.316 37.7873 132.289 37.7211 132.289 37.6505H131.889ZM132.066 37.1944C131.952 37.3183 131.889 37.4819 131.889 37.6505H132.289C132.289 37.5799 132.316 37.5137 132.36 37.4655L132.066 37.1944ZM132.53 36.9953C132.357 36.9964 132.194 37.0665 132.072 37.1885L132.354 37.4714C132.404 37.4219 132.468 37.3957 132.532 37.3953L132.53 36.9953ZM145.394 36.9953H132.531V37.3953H145.394V36.9953ZM145.393 40.6141C145.459 40.6152 145.524 40.6419 145.575 40.6917L145.855 40.4058C145.733 40.2863 145.571 40.217 145.4 40.2141L145.393 40.6141ZM132.534 40.6141H145.397V40.2141H132.534V40.6141ZM132.441 40.6317C132.47 40.6195 132.501 40.6136 132.531 40.6141L132.537 40.2141C132.451 40.2129 132.366 40.2296 132.286 40.2631L132.441 40.6317ZM132.362 40.6861C132.386 40.6622 132.412 40.6439 132.441 40.6317L132.286 40.2631C132.207 40.2965 132.135 40.3459 132.075 40.4079L132.362 40.6861ZM132.307 40.7717C132.32 40.739 132.339 40.71 132.362 40.6861L132.075 40.4079C132.015 40.4699 131.968 40.5432 131.936 40.6234L132.307 40.7717ZM132.287 40.8757C132.287 40.8398 132.294 40.8044 132.307 40.7717L131.936 40.6234C131.904 40.7036 131.887 40.7893 131.887 40.8757L132.287 40.8757ZM132.305 40.9758C132.293 40.9456 132.287 40.9127 132.287 40.8793L131.888 40.8721C131.886 40.9585 131.902 41.0445 131.934 41.1246L132.305 40.9758ZM132.357 41.0541C132.335 41.0326 132.317 41.006 132.305 40.9758L131.934 41.1246C131.966 41.2048 132.014 41.2778 132.075 41.3385L132.357 41.0541ZM132.443 41.1175C132.413 41.1044 132.386 41.085 132.362 41.0599L132.07 41.3326C132.129 41.3965 132.201 41.4478 132.28 41.4832L132.443 41.1175ZM132.535 41.1373C132.503 41.1372 132.472 41.1306 132.443 41.1175L132.28 41.4832C132.36 41.5185 132.446 41.537 132.534 41.5373L132.535 41.1373ZM145.384 41.1373H132.534V41.5373H145.384V41.1373ZM145.557 41.0591C145.509 41.1098 145.446 41.1367 145.382 41.1373L145.386 41.5373C145.562 41.5357 145.728 41.4612 145.848 41.3334L145.557 41.0591ZM145.631 40.8746C145.631 40.9451 145.604 41.0107 145.558 41.0576L145.847 41.3349C145.965 41.2122 146.03 41.0473 146.031 40.8768L145.631 40.8746ZM145.562 40.6783C145.607 40.7305 145.632 40.7999 145.631 40.8729L146.031 40.8785C146.033 40.7108 145.976 40.5468 145.867 40.4192L145.562 40.6783ZM139.815 43.6453C139.756 43.5815 139.684 43.5301 139.605 43.4948L139.442 43.8605C139.472 43.8735 139.499 43.8929 139.523 43.918L139.815 43.6453ZM139.953 43.8497C139.919 43.7699 139.87 43.6976 139.808 43.6376L139.53 43.9258C139.553 43.9473 139.571 43.9741 139.584 44.0046L139.953 43.8497ZM140.004 44.102C140.004 44.0154 139.986 43.9295 139.953 43.8497L139.584 44.0046C139.597 44.0351 139.604 44.0685 139.604 44.1025L140.004 44.102ZM139.953 44.356C139.985 44.2762 140.003 44.1907 140.004 44.1044L139.604 44.1001C139.603 44.136 139.596 44.1712 139.583 44.2037L139.953 44.356ZM139.811 44.5698C139.872 44.5086 139.92 44.4358 139.953 44.356L139.583 44.2037C139.569 44.2362 139.55 44.2649 139.527 44.2886L139.811 44.5698ZM139.352 44.7638C139.525 44.7628 139.688 44.6926 139.81 44.5707L139.528 44.2877C139.478 44.3372 139.414 44.3634 139.35 44.3638L139.352 44.7638ZM132.534 44.7638H139.351V44.3638H132.534V44.7638ZM132.286 44.7149C132.366 44.7483 132.451 44.7651 132.537 44.7638L132.531 44.3639C132.501 44.3643 132.47 44.3584 132.441 44.3462L132.286 44.7149ZM132.075 44.57C132.135 44.632 132.207 44.6814 132.286 44.7149L132.441 44.3462C132.412 44.3341 132.386 44.3158 132.362 44.2918L132.075 44.57ZM131.936 44.3545C131.968 44.4347 132.015 44.508 132.075 44.57L132.362 44.2918C132.339 44.2679 132.32 44.2389 132.307 44.2062L131.936 44.3545ZM131.887 44.1022C131.887 44.1886 131.904 44.2743 131.936 44.3545L132.307 44.2062C132.294 44.1736 132.287 44.1382 132.287 44.1023L131.887 44.1022ZM131.934 43.8533C131.902 43.9335 131.886 44.0195 131.888 44.1059L132.287 44.0986C132.287 44.0653 132.293 44.0324 132.305 44.0021L131.934 43.8533ZM132.075 43.6395C132.014 43.7002 131.966 43.7731 131.934 43.8533L132.305 44.0021C132.317 43.9719 132.335 43.9454 132.357 43.9239L132.075 43.6395ZM132.28 43.4948C132.201 43.5301 132.129 43.5815 132.07 43.6453L132.362 43.918C132.386 43.893 132.413 43.8735 132.443 43.8605L132.28 43.4948ZM132.534 43.4406C132.446 43.4409 132.36 43.4594 132.28 43.4948L132.443 43.8605C132.472 43.8474 132.503 43.8407 132.535 43.8406L132.534 43.4406ZM139.351 43.4406H132.534V43.8406H139.351V43.4406ZM139.605 43.4948C139.525 43.4594 139.439 43.4409 139.352 43.4406L139.35 43.8406C139.382 43.8407 139.413 43.8474 139.442 43.8605L139.605 43.4948Z" fill="#325837" mask="url(#path-3-outside-1_772_749)"/>
</g>
<path d="M74 45.75C74.4142 45.75 74.75 45.4142 74.75 45C74.75 44.5858 74.4142 44.25 74 44.25L74 45.75ZM49 45C49 42.7909 47.2091 41 45 41C42.7909 41 41 42.7909 41 45C41 47.2091 42.7909 49 45 49C47.2091 49 49 47.2091 49 45ZM74 44.25L45 44.25L45 45.75L74 45.75L74 44.25Z" fill="#BACC91"/>
<circle opacity="0.4" cx="45" cy="29" r="3" transform="rotate(90 45 29)" fill="#BACC91"/>
<circle opacity="0.4" cx="45" cy="61" r="3" transform="rotate(90 45 61)" fill="#BACC91"/>
<path d="M7.296 62.08V57.904L20.64 45.232C21.76 44.176 22.592 43.248 23.136 42.448C23.68 41.648 24.032 40.912 24.192 40.24C24.384 39.536 24.48 38.88 24.48 38.272C24.48 36.736 23.952 35.552 22.896 34.72C21.84 33.856 20.288 33.424 18.24 33.424C16.608 33.424 15.12 33.712 13.776 34.288C12.464 34.864 11.328 35.744 10.368 36.928L6 33.568C7.312 31.808 9.072 30.448 11.28 29.488C13.52 28.496 16.016 28 18.768 28C21.2 28 23.312 28.4 25.104 29.2C26.928 29.968 28.32 31.072 29.28 32.512C30.272 33.952 30.768 35.664 30.768 37.648C30.768 38.736 30.624 39.824 30.336 40.912C30.048 41.968 29.504 43.088 28.704 44.272C27.904 45.456 26.736 46.784 25.2 48.256L13.728 59.152L12.432 56.8H32.064V62.08H7.296Z" fill="#D2DDC7"/>
</svg>
