<svg width="90" height="180" viewBox="0 0 90 180" fill="none" xmlns="http://www.w3.org/2000/svg">
<mask id="mask0_1093_1453" style="mask-type:alpha" maskUnits="userSpaceOnUse" x="0" y="90" width="90" height="90">
<rect y="90" width="90" height="90" fill="#C4C4C4"/>
</mask>
<g mask="url(#mask0_1093_1453)">
<path fill-rule="evenodd" clip-rule="evenodd" d="M50.9601 95.8042C60.9242 97.4287 67.4056 106.123 73.7011 114.016C80.5349 122.583 88.8214 131.3 87.9914 142.228C87.1129 153.794 82.1711 163.913 72.3979 170.16C63.0583 176.13 48.7275 175.801 37.738 174.351C26.1962 172.828 13.444 171.198 6.57519 161.798C-0.340868 152.334 0.485108 139.283 3.92116 128.076C6.94363 118.218 15.2217 111.7 23.7239 105.867C32.0206 100.175 41.0297 94.1851 50.9601 95.8042Z" fill="#EDF4DD"/>
<mask id="path-3-outside-1_1093_1453" maskUnits="userSpaceOnUse" x="16.1172" y="123.023" width="60" height="33" fill="black">
<rect fill="white" x="16.1172" y="123.023" width="60" height="33"/>
<path fill-rule="evenodd" clip-rule="evenodd" d="M75.25 142.346C75.2502 142.281 75.2368 142.215 75.2106 142.155C75.18 142.1 75.1374 142.052 75.0858 142.016L72.2284 139.144L70.2578 131.353L68.2872 124.4C68.2738 124.296 68.2278 124.199 68.1559 124.122C68.0708 124.058 67.9669 124.023 67.8603 124.023H17.6098C17.4792 124.023 17.3539 124.076 17.2615 124.168C17.1691 124.261 17.1172 124.387 17.1172 124.519V151.26C17.1172 151.392 17.1691 151.518 17.2615 151.611C17.3539 151.703 17.4792 151.756 17.6098 151.756H22.0503L22.1357 152.152C22.3358 153.161 22.8779 154.07 23.6696 154.723C24.4612 155.375 25.4536 155.732 26.4776 155.732C27.5016 155.732 28.4939 155.375 29.2856 154.723C30.0772 154.07 30.6193 153.161 30.8195 152.152L30.9049 151.756H60.4639L60.5493 152.152C60.7495 153.161 61.2915 154.07 62.0832 154.723C62.8749 155.375 63.8672 155.732 64.8912 155.732C65.9152 155.732 66.9076 155.375 67.6992 154.723C68.4909 154.07 69.033 153.161 69.2331 152.152L69.3185 151.756H74.7574C74.8881 151.756 75.0134 151.703 75.1057 151.611C75.1981 151.518 75.25 151.392 75.25 151.26V142.346ZM71.1446 138.88H62.4411V131.947H69.4499L71.1446 138.88ZM28.9145 153.71C28.5953 154.033 28.2155 154.289 27.7973 154.464C27.379 154.638 26.9304 154.728 26.4776 154.727C25.7943 154.729 25.1259 154.526 24.5583 154.143C23.9907 153.761 23.5496 153.217 23.2917 152.581C23.0344 151.954 22.9659 151.266 23.0947 150.6C23.2276 149.923 23.5577 149.301 24.0431 148.813C24.5285 148.325 25.1472 147.993 25.8207 147.86C26.4827 147.73 27.1679 147.799 27.7913 148.058C28.4241 148.317 28.9654 148.761 29.3457 149.331C29.7261 149.902 29.9282 150.574 29.9261 151.26C29.9268 151.716 29.8378 152.166 29.6641 152.587C29.4905 153.007 29.2357 153.389 28.9145 153.71ZM55.6885 131.102C55.5961 131.195 55.5441 131.32 55.544 131.452V150.765H30.9049L30.826 150.369C30.6225 149.361 30.0787 148.456 29.2868 147.805C28.4949 147.154 27.5036 146.799 26.4808 146.799C25.4581 146.799 24.4668 147.154 23.6749 147.805C22.883 148.456 22.3392 149.361 22.1357 150.369L22.0503 150.765H18.1091V125.014H67.4859L69.1806 130.956H56.0366C55.906 130.957 55.7808 131.009 55.6885 131.102ZM67.3413 153.71C67.0221 154.033 66.6423 154.289 66.2241 154.464C65.8058 154.638 65.3572 154.728 64.9044 154.727C64.2211 154.729 63.5527 154.526 62.9851 154.143C62.4175 153.761 61.9764 153.217 61.7186 152.581C61.4612 151.954 61.3927 151.266 61.5215 150.6C61.6558 149.927 61.985 149.309 62.4677 148.824C62.9504 148.339 63.5651 148.008 64.2344 147.873C64.8964 147.744 65.5816 147.813 66.205 148.071C66.8381 148.327 67.3808 148.768 67.7634 149.336C68.1461 149.904 68.3513 150.574 68.3529 151.26C68.3536 151.716 68.2646 152.166 68.0909 152.587C67.9173 153.007 67.6625 153.389 67.3413 153.71ZM74.2647 150.765H69.3317L69.2463 150.369C69.0461 149.36 68.504 148.451 67.7124 147.798C66.9207 147.145 65.9284 146.788 64.9044 146.788C63.8804 146.788 62.888 147.145 62.0964 147.798C61.3047 148.451 60.7626 149.36 60.5625 150.369L60.4771 150.765H56.5359V131.947H61.4624V139.375C61.4624 139.507 61.5143 139.632 61.6067 139.725C61.6991 139.818 61.8244 139.87 61.955 139.87H71.5979L74.2647 142.551V150.765ZM64.9028 151.753C65.1749 151.753 65.3955 151.531 65.3955 151.257C65.3955 150.984 65.1749 150.762 64.9028 150.762C64.6307 150.762 64.4102 150.984 64.4102 151.257C64.4102 151.531 64.6307 151.753 64.9028 151.753ZM26.9697 151.257C26.9697 151.531 26.7491 151.753 26.477 151.753C26.2049 151.753 25.9844 151.531 25.9844 151.257C25.9844 150.984 26.2049 150.762 26.477 150.762C26.7491 150.762 26.9697 150.984 26.9697 151.257ZM32.3891 132.94C32.6612 132.94 32.8818 132.718 32.8818 132.445C32.8818 132.171 32.6612 131.949 32.3891 131.949C32.1171 131.949 31.8965 132.171 31.8965 132.445C31.8965 132.718 32.1171 132.94 32.3891 132.94ZM40.7626 132.445C40.7626 132.718 40.5421 132.94 40.27 132.94C39.9979 132.94 39.7773 132.718 39.7773 132.445C39.7773 132.171 39.9979 131.949 40.27 131.949C40.5421 131.949 40.7626 132.171 40.7626 132.445ZM65.2321 142.989C65.1398 142.896 65.0145 142.844 64.8839 142.844H61.9477C61.8171 142.844 61.6918 142.896 61.5994 142.989C61.507 143.082 61.4551 143.208 61.4551 143.339C61.4551 143.471 61.507 143.597 61.5994 143.69C61.6918 143.782 61.8171 143.835 61.9477 143.835H64.9036C64.9993 143.831 65.0918 143.799 65.1698 143.743C65.2478 143.687 65.3079 143.61 65.3428 143.52C65.3776 143.43 65.3857 143.332 65.3661 143.238C65.3464 143.144 65.2998 143.057 65.2321 142.989ZM48.9089 134.281C49.3774 134.888 49.6319 135.635 49.6325 136.403V141.606C49.6307 142.196 49.397 142.761 48.9822 143.178C48.5674 143.595 48.0054 143.83 47.4188 143.831H25.2495C24.6618 143.831 24.0981 143.597 23.6819 143.18C23.2657 142.763 23.031 142.197 23.0293 141.606V136.403C23.0299 135.635 23.2844 134.888 23.7528 134.281C24.2213 133.674 24.8772 133.241 25.6174 133.049L25.9852 132.95V130.216C25.9852 129.625 26.2182 129.059 26.6332 128.64C27.0481 128.222 27.6112 127.986 28.1989 127.984H44.4563C45.0452 127.984 45.6099 128.22 46.0263 128.638C46.4426 129.057 46.6766 129.624 46.6766 130.216V132.95L47.0444 133.049C47.7846 133.241 48.4405 133.674 48.9089 134.281ZM25.2429 142.841H28.9411V136.403C28.9411 135.746 28.6816 135.117 28.2196 134.652C27.7577 134.188 27.1312 133.927 26.4779 133.927C25.8246 133.927 25.198 134.188 24.7361 134.652C24.2741 135.117 24.0146 135.746 24.0146 136.403V141.606C24.0163 141.933 24.1463 142.246 24.3763 142.477C24.6063 142.709 24.9177 142.839 25.2429 142.841ZM29.9264 142.841H42.7354V137.889H29.9264V142.841ZM42.7354 136.898V136.403C42.7359 135.635 42.9904 134.888 43.4589 134.281C43.9274 133.674 44.5832 133.241 45.3234 133.049L45.6913 132.95V130.21C45.6895 129.883 45.5596 129.57 45.3296 129.338C45.0996 129.107 44.7882 128.977 44.4629 128.975H28.1989C27.8736 128.977 27.5622 129.107 27.3322 129.338C27.1022 129.57 26.9722 129.883 26.9705 130.21V132.95L27.3384 133.049C28.0786 133.241 28.7344 133.674 29.2029 134.281C29.6713 134.888 29.9258 135.635 29.9264 136.403V136.898H42.7354ZM48.2855 142.477C48.5155 142.246 48.6454 141.933 48.6472 141.606V136.403C48.6472 135.746 48.3876 135.117 47.9257 134.652C47.4637 134.188 46.8372 133.927 46.1839 133.927C45.5306 133.927 44.9041 134.188 44.4421 134.652C43.9802 135.117 43.7207 135.746 43.7207 136.403V142.841H47.4188C47.7441 142.839 48.0555 142.709 48.2855 142.477Z"/>
</mask>
<path fill-rule="evenodd" clip-rule="evenodd" d="M75.25 142.346C75.2502 142.281 75.2368 142.215 75.2106 142.155C75.18 142.1 75.1374 142.052 75.0858 142.016L72.2284 139.144L70.2578 131.353L68.2872 124.4C68.2738 124.296 68.2278 124.199 68.1559 124.122C68.0708 124.058 67.9669 124.023 67.8603 124.023H17.6098C17.4792 124.023 17.3539 124.076 17.2615 124.168C17.1691 124.261 17.1172 124.387 17.1172 124.519V151.26C17.1172 151.392 17.1691 151.518 17.2615 151.611C17.3539 151.703 17.4792 151.756 17.6098 151.756H22.0503L22.1357 152.152C22.3358 153.161 22.8779 154.07 23.6696 154.723C24.4612 155.375 25.4536 155.732 26.4776 155.732C27.5016 155.732 28.4939 155.375 29.2856 154.723C30.0772 154.07 30.6193 153.161 30.8195 152.152L30.9049 151.756H60.4639L60.5493 152.152C60.7495 153.161 61.2915 154.07 62.0832 154.723C62.8749 155.375 63.8672 155.732 64.8912 155.732C65.9152 155.732 66.9076 155.375 67.6992 154.723C68.4909 154.07 69.033 153.161 69.2331 152.152L69.3185 151.756H74.7574C74.8881 151.756 75.0134 151.703 75.1057 151.611C75.1981 151.518 75.25 151.392 75.25 151.26V142.346ZM71.1446 138.88H62.4411V131.947H69.4499L71.1446 138.88ZM28.9145 153.71C28.5953 154.033 28.2155 154.289 27.7973 154.464C27.379 154.638 26.9304 154.728 26.4776 154.727C25.7943 154.729 25.1259 154.526 24.5583 154.143C23.9907 153.761 23.5496 153.217 23.2917 152.581C23.0344 151.954 22.9659 151.266 23.0947 150.6C23.2276 149.923 23.5577 149.301 24.0431 148.813C24.5285 148.325 25.1472 147.993 25.8207 147.86C26.4827 147.73 27.1679 147.799 27.7913 148.058C28.4241 148.317 28.9654 148.761 29.3457 149.331C29.7261 149.902 29.9282 150.574 29.9261 151.26C29.9268 151.716 29.8378 152.166 29.6641 152.587C29.4905 153.007 29.2357 153.389 28.9145 153.71ZM55.6885 131.102C55.5961 131.195 55.5441 131.32 55.544 131.452V150.765H30.9049L30.826 150.369C30.6225 149.361 30.0787 148.456 29.2868 147.805C28.4949 147.154 27.5036 146.799 26.4808 146.799C25.4581 146.799 24.4668 147.154 23.6749 147.805C22.883 148.456 22.3392 149.361 22.1357 150.369L22.0503 150.765H18.1091V125.014H67.4859L69.1806 130.956H56.0366C55.906 130.957 55.7808 131.009 55.6885 131.102ZM67.3413 153.71C67.0221 154.033 66.6423 154.289 66.2241 154.464C65.8058 154.638 65.3572 154.728 64.9044 154.727C64.2211 154.729 63.5527 154.526 62.9851 154.143C62.4175 153.761 61.9764 153.217 61.7186 152.581C61.4612 151.954 61.3927 151.266 61.5215 150.6C61.6558 149.927 61.985 149.309 62.4677 148.824C62.9504 148.339 63.5651 148.008 64.2344 147.873C64.8964 147.744 65.5816 147.813 66.205 148.071C66.8381 148.327 67.3808 148.768 67.7634 149.336C68.1461 149.904 68.3513 150.574 68.3529 151.26C68.3536 151.716 68.2646 152.166 68.0909 152.587C67.9173 153.007 67.6625 153.389 67.3413 153.71ZM74.2647 150.765H69.3317L69.2463 150.369C69.0461 149.36 68.504 148.451 67.7124 147.798C66.9207 147.145 65.9284 146.788 64.9044 146.788C63.8804 146.788 62.888 147.145 62.0964 147.798C61.3047 148.451 60.7626 149.36 60.5625 150.369L60.4771 150.765H56.5359V131.947H61.4624V139.375C61.4624 139.507 61.5143 139.632 61.6067 139.725C61.6991 139.818 61.8244 139.87 61.955 139.87H71.5979L74.2647 142.551V150.765ZM64.9028 151.753C65.1749 151.753 65.3955 151.531 65.3955 151.257C65.3955 150.984 65.1749 150.762 64.9028 150.762C64.6307 150.762 64.4102 150.984 64.4102 151.257C64.4102 151.531 64.6307 151.753 64.9028 151.753ZM26.9697 151.257C26.9697 151.531 26.7491 151.753 26.477 151.753C26.2049 151.753 25.9844 151.531 25.9844 151.257C25.9844 150.984 26.2049 150.762 26.477 150.762C26.7491 150.762 26.9697 150.984 26.9697 151.257ZM32.3891 132.94C32.6612 132.94 32.8818 132.718 32.8818 132.445C32.8818 132.171 32.6612 131.949 32.3891 131.949C32.1171 131.949 31.8965 132.171 31.8965 132.445C31.8965 132.718 32.1171 132.94 32.3891 132.94ZM40.7626 132.445C40.7626 132.718 40.5421 132.94 40.27 132.94C39.9979 132.94 39.7773 132.718 39.7773 132.445C39.7773 132.171 39.9979 131.949 40.27 131.949C40.5421 131.949 40.7626 132.171 40.7626 132.445ZM65.2321 142.989C65.1398 142.896 65.0145 142.844 64.8839 142.844H61.9477C61.8171 142.844 61.6918 142.896 61.5994 142.989C61.507 143.082 61.4551 143.208 61.4551 143.339C61.4551 143.471 61.507 143.597 61.5994 143.69C61.6918 143.782 61.8171 143.835 61.9477 143.835H64.9036C64.9993 143.831 65.0918 143.799 65.1698 143.743C65.2478 143.687 65.3079 143.61 65.3428 143.52C65.3776 143.43 65.3857 143.332 65.3661 143.238C65.3464 143.144 65.2998 143.057 65.2321 142.989ZM48.9089 134.281C49.3774 134.888 49.6319 135.635 49.6325 136.403V141.606C49.6307 142.196 49.397 142.761 48.9822 143.178C48.5674 143.595 48.0054 143.83 47.4188 143.831H25.2495C24.6618 143.831 24.0981 143.597 23.6819 143.18C23.2657 142.763 23.031 142.197 23.0293 141.606V136.403C23.0299 135.635 23.2844 134.888 23.7528 134.281C24.2213 133.674 24.8772 133.241 25.6174 133.049L25.9852 132.95V130.216C25.9852 129.625 26.2182 129.059 26.6332 128.64C27.0481 128.222 27.6112 127.986 28.1989 127.984H44.4563C45.0452 127.984 45.6099 128.22 46.0263 128.638C46.4426 129.057 46.6766 129.624 46.6766 130.216V132.95L47.0444 133.049C47.7846 133.241 48.4405 133.674 48.9089 134.281ZM25.2429 142.841H28.9411V136.403C28.9411 135.746 28.6816 135.117 28.2196 134.652C27.7577 134.188 27.1312 133.927 26.4779 133.927C25.8246 133.927 25.198 134.188 24.7361 134.652C24.2741 135.117 24.0146 135.746 24.0146 136.403V141.606C24.0163 141.933 24.1463 142.246 24.3763 142.477C24.6063 142.709 24.9177 142.839 25.2429 142.841ZM29.9264 142.841H42.7354V137.889H29.9264V142.841ZM42.7354 136.898V136.403C42.7359 135.635 42.9904 134.888 43.4589 134.281C43.9274 133.674 44.5832 133.241 45.3234 133.049L45.6913 132.95V130.21C45.6895 129.883 45.5596 129.57 45.3296 129.338C45.0996 129.107 44.7882 128.977 44.4629 128.975H28.1989C27.8736 128.977 27.5622 129.107 27.3322 129.338C27.1022 129.57 26.9722 129.883 26.9705 130.21V132.95L27.3384 133.049C28.0786 133.241 28.7344 133.674 29.2029 134.281C29.6713 134.888 29.9258 135.635 29.9264 136.403V136.898H42.7354ZM48.2855 142.477C48.5155 142.246 48.6454 141.933 48.6472 141.606V136.403C48.6472 135.746 48.3876 135.117 47.9257 134.652C47.4637 134.188 46.8372 133.927 46.1839 133.927C45.5306 133.927 44.9041 134.188 44.4421 134.652C43.9802 135.117 43.7207 135.746 43.7207 136.403V142.841H47.4188C47.7441 142.839 48.0555 142.709 48.2855 142.477Z" fill="#325837"/>
<path d="M75.2106 142.155L75.3941 142.075L75.3902 142.066L75.3855 142.058L75.2106 142.155ZM75.25 142.346L75.05 142.346V142.346H75.25ZM75.0858 142.016L74.944 142.157L74.9565 142.17L74.9711 142.18L75.0858 142.016ZM72.2284 139.144L72.0346 139.193L72.048 139.246L72.0867 139.285L72.2284 139.144ZM70.2578 131.353L70.4518 131.304L70.4503 131.298L70.2578 131.353ZM68.2872 124.4L68.0889 124.425L68.0908 124.44L68.0948 124.454L68.2872 124.4ZM68.1559 124.122L68.3012 123.985L68.29 123.973L68.277 123.963L68.1559 124.122ZM67.8603 124.023V124.223L67.8612 124.223L67.8603 124.023ZM17.2615 124.168L17.4033 124.31L17.4033 124.31L17.2615 124.168ZM17.2615 151.611L17.4033 151.469L17.4033 151.469L17.2615 151.611ZM22.0503 151.756L22.2458 151.713L22.2118 151.556H22.0503V151.756ZM22.1357 152.152L22.3319 152.113L22.3312 152.11L22.1357 152.152ZM29.2856 154.723L29.1583 154.568L29.1583 154.568L29.2856 154.723ZM30.8195 152.152L30.6239 152.11L30.6233 152.113L30.8195 152.152ZM30.9049 151.756V151.556H30.7434L30.7093 151.713L30.9049 151.756ZM60.4639 151.756L60.6594 151.713L60.6254 151.556H60.4639V151.756ZM60.5493 152.152L60.7455 152.113L60.7448 152.11L60.5493 152.152ZM69.2331 152.152L69.0376 152.11L69.0369 152.113L69.2331 152.152ZM69.3185 151.756V151.556H69.157L69.123 151.713L69.3185 151.756ZM75.1057 151.611L74.964 151.469L74.964 151.47L75.1057 151.611ZM62.4411 138.88H62.2411V139.08H62.4411V138.88ZM71.1446 138.88V139.08H71.3994L71.3389 138.832L71.1446 138.88ZM62.4411 131.947V131.747H62.2411V131.947H62.4411ZM69.4499 131.947L69.6442 131.899L69.6069 131.747H69.4499V131.947ZM27.7973 154.464L27.7202 154.279L27.7202 154.279L27.7973 154.464ZM28.9145 153.71L28.7732 153.569L28.7723 153.569L28.9145 153.71ZM26.4776 154.727L26.4779 154.527L26.4769 154.527L26.4776 154.727ZM24.5583 154.143L24.67 153.978L24.67 153.978L24.5583 154.143ZM23.2917 152.581L23.4771 152.506L23.4768 152.505L23.2917 152.581ZM23.0947 150.6L22.8984 150.562L22.8983 150.562L23.0947 150.6ZM25.8207 147.86L25.7823 147.664L25.7818 147.664L25.8207 147.86ZM27.7913 148.058L27.7146 148.243L27.7155 148.243L27.7913 148.058ZM29.9261 151.26L29.7261 151.26L29.7261 151.261L29.9261 151.26ZM29.6641 152.587L29.4793 152.511L29.4793 152.511L29.6641 152.587ZM55.544 131.452L55.344 131.452V131.452H55.544ZM55.6885 131.102L55.8302 131.243L55.8304 131.243L55.6885 131.102ZM55.544 150.765V150.965H55.744V150.765H55.544ZM30.9049 150.765L30.7087 150.804L30.7407 150.965H30.9049V150.765ZM30.826 150.369L31.0222 150.33L31.0221 150.329L30.826 150.369ZM23.6749 147.805L23.8018 147.96L23.8018 147.96L23.6749 147.805ZM22.1357 150.369L22.3312 150.411L22.3317 150.409L22.1357 150.369ZM22.0503 150.765V150.965H22.2118L22.2458 150.807L22.0503 150.765ZM18.1091 150.765H17.9091V150.965H18.1091V150.765ZM18.1091 125.014V124.814H17.9091V125.014H18.1091ZM67.4859 125.014L67.6782 124.959L67.6368 124.814H67.4859V125.014ZM69.1806 130.956V131.156H69.4456L69.3729 130.902L69.1806 130.956ZM56.0366 130.956V130.756L56.0365 130.756L56.0366 130.956ZM66.2241 154.464L66.147 154.279L66.147 154.279L66.2241 154.464ZM67.3413 153.71L67.2 153.569L67.1991 153.569L67.3413 153.71ZM64.9044 154.727L64.9047 154.527L64.9037 154.527L64.9044 154.727ZM61.7186 152.581L61.9039 152.506L61.9036 152.505L61.7186 152.581ZM61.5215 150.6L61.3254 150.561L61.3251 150.562L61.5215 150.6ZM64.2344 147.873L64.196 147.677L64.1948 147.677L64.2344 147.873ZM66.205 148.071L66.1283 148.256L66.1299 148.257L66.205 148.071ZM67.7634 149.336L67.9293 149.224L67.9293 149.224L67.7634 149.336ZM68.3529 151.26L68.5529 151.26L68.5529 151.26L68.3529 151.26ZM68.0909 152.587L67.9061 152.511L67.9061 152.511L68.0909 152.587ZM69.3317 150.765L69.1361 150.807L69.1702 150.965H69.3317V150.765ZM74.2647 150.765V150.965H74.4647V150.765H74.2647ZM69.2463 150.369L69.0501 150.408L69.0508 150.411L69.2463 150.369ZM60.5625 150.369L60.758 150.411L60.7586 150.408L60.5625 150.369ZM60.4771 150.765V150.965H60.6386L60.6726 150.807L60.4771 150.765ZM56.5359 150.765H56.3359V150.965H56.5359V150.765ZM56.5359 131.947V131.747H56.3359V131.947H56.5359ZM61.4624 131.947H61.6624V131.747H61.4624V131.947ZM61.6067 139.725L61.7485 139.584L61.7485 139.584L61.6067 139.725ZM71.5979 139.87L71.7396 139.729L71.681 139.67H71.5979V139.87ZM74.2647 142.551H74.4647V142.469L74.4065 142.41L74.2647 142.551ZM64.8839 142.844L64.8841 142.644H64.8839V142.844ZM65.2321 142.989L65.0902 143.13L65.0903 143.13L65.2321 142.989ZM61.5994 142.989L61.4576 142.848L61.4575 142.848L61.5994 142.989ZM61.5994 143.69L61.4576 143.831L61.4576 143.831L61.5994 143.69ZM64.9036 143.835V144.035L64.9117 144.034L64.9036 143.835ZM65.1698 143.743L65.0533 143.581L65.0533 143.581L65.1698 143.743ZM65.3428 143.52L65.5292 143.592L65.5292 143.592L65.3428 143.52ZM65.3661 143.238L65.5618 143.197L65.5618 143.197L65.3661 143.238ZM49.6325 136.403H49.8325L49.8325 136.403L49.6325 136.403ZM48.9089 134.281L49.0673 134.159L49.0673 134.159L48.9089 134.281ZM49.6325 141.606L49.8325 141.607V141.606H49.6325ZM48.9822 143.178L48.8404 143.037L48.8404 143.037L48.9822 143.178ZM47.4188 143.831L47.4188 144.031L47.4194 144.031L47.4188 143.831ZM25.2495 143.831L25.2495 143.631L25.2495 143.631L25.2495 143.831ZM23.0293 141.606H22.8293L22.8293 141.607L23.0293 141.606ZM23.0293 136.403L22.8293 136.403V136.403H23.0293ZM23.7528 134.281L23.9112 134.403L23.9112 134.403L23.7528 134.281ZM25.6174 133.049L25.6675 133.242L25.6694 133.242L25.6174 133.049ZM25.9852 132.95L26.0372 133.143L26.1852 133.103V132.95H25.9852ZM25.9852 130.216L26.1852 130.216L26.1852 130.216L25.9852 130.216ZM26.6332 128.64L26.4912 128.5L26.4912 128.5L26.6332 128.64ZM28.1989 127.984L28.1989 127.784L28.1983 127.784L28.1989 127.984ZM46.6766 132.95H46.4766V133.103L46.6246 133.143L46.6766 132.95ZM47.0444 133.049L46.9924 133.242L46.9943 133.242L47.0444 133.049ZM28.9411 142.841V143.041H29.1411V142.841H28.9411ZM25.2429 142.841L25.2419 143.041H25.2429V142.841ZM24.0146 141.606H23.8146L23.8146 141.607L24.0146 141.606ZM42.7354 142.841V143.041H42.9354V142.841H42.7354ZM29.9264 142.841H29.7264V143.041H29.9264V142.841ZM42.7354 137.889H42.9354V137.689H42.7354V137.889ZM29.9264 137.889V137.689H29.7264V137.889H29.9264ZM42.7354 136.403L42.5354 136.403V136.403H42.7354ZM42.7354 136.898V137.098H42.9354V136.898H42.7354ZM43.4589 134.281L43.6172 134.403L43.6172 134.403L43.4589 134.281ZM45.3234 133.049L45.3736 133.242L45.3754 133.242L45.3234 133.049ZM45.6913 132.95L45.7433 133.143L45.8913 133.103V132.95H45.6913ZM45.6913 130.21H45.8913L45.8913 130.208L45.6913 130.21ZM44.4629 128.975L44.464 128.775H44.4629V128.975ZM28.1989 128.975V128.775L28.1978 128.775L28.1989 128.975ZM26.9705 130.21L26.7705 130.208V130.21H26.9705ZM26.9705 132.95H26.7705V133.103L26.9185 133.143L26.9705 132.95ZM27.3384 133.049L27.2864 133.242L27.2882 133.242L27.3384 133.049ZM29.2029 134.281L29.0445 134.403L29.0445 134.403L29.2029 134.281ZM29.9264 136.403H30.1264L30.1264 136.403L29.9264 136.403ZM29.9264 136.898H29.7264V137.098H29.9264V136.898ZM48.6472 141.606L48.8472 141.607V141.606H48.6472ZM43.7207 142.841H43.5207V143.041H43.7207V142.841ZM47.4188 142.841L47.4188 143.041L47.4199 143.041L47.4188 142.841ZM75.0271 142.235C75.0424 142.27 75.0502 142.308 75.05 142.346L75.45 142.347C75.4503 142.254 75.4313 142.161 75.3941 142.075L75.0271 142.235ZM74.9711 142.18C74.9977 142.199 75.0198 142.223 75.0357 142.252L75.3855 142.058C75.3402 141.976 75.277 141.906 75.2006 141.853L74.9711 142.18ZM72.0867 139.285L74.944 142.157L75.2276 141.875L72.3702 139.003L72.0867 139.285ZM70.0639 131.402L72.0346 139.193L72.4223 139.095L70.4517 131.304L70.0639 131.402ZM68.0948 124.454L70.0654 131.407L70.4503 131.298L68.4797 124.345L68.0948 124.454ZM68.0105 124.26C68.0533 124.305 68.0808 124.363 68.0889 124.425L68.4856 124.374C68.4667 124.228 68.4022 124.092 68.3012 123.985L68.0105 124.26ZM67.8612 124.223C67.9237 124.223 67.9847 124.244 68.0347 124.282L68.277 123.963C68.1569 123.872 68.0102 123.823 67.8594 123.823L67.8612 124.223ZM17.6098 124.223H67.8603V123.823H17.6098V124.223ZM17.4033 124.31C17.4582 124.254 17.5326 124.223 17.6098 124.223V123.823C17.4258 123.823 17.2495 123.897 17.1197 124.027L17.4033 124.31ZM17.3172 124.519C17.3172 124.44 17.3483 124.365 17.4033 124.31L17.1197 124.027C16.9899 124.158 16.9172 124.335 16.9172 124.519H17.3172ZM17.3172 151.26V124.519H16.9172V151.26H17.3172ZM17.4033 151.469C17.3483 151.414 17.3172 151.339 17.3172 151.26H16.9172C16.9172 151.444 16.9899 151.621 17.1197 151.752L17.4033 151.469ZM17.6098 151.556C17.5326 151.556 17.4582 151.525 17.4033 151.469L17.1197 151.752C17.2495 151.882 17.4258 151.956 17.6098 151.956V151.556ZM22.0503 151.556H17.6098V151.956H22.0503V151.556ZM22.3312 152.11L22.2458 151.713L21.8548 151.798L21.9402 152.194L22.3312 152.11ZM23.7968 154.568C23.0408 153.945 22.523 153.077 22.3318 152.113L21.9395 152.191C22.1486 153.245 22.7149 154.195 23.5423 154.877L23.7968 154.568ZM26.4776 155.532C25.5001 155.532 24.5527 155.192 23.7968 154.568L23.5423 154.877C24.3697 155.559 25.407 155.932 26.4776 155.932V155.532ZM29.1583 154.568C28.4024 155.192 27.455 155.532 26.4776 155.532V155.932C27.5481 155.932 28.5854 155.559 29.4128 154.877L29.1583 154.568ZM30.6233 152.113C30.4321 153.077 29.9143 153.945 29.1583 154.568L29.4128 154.877C30.2402 154.195 30.8065 153.245 31.0156 152.191L30.6233 152.113ZM30.7093 151.713L30.624 152.11L31.015 152.194L31.1004 151.798L30.7093 151.713ZM60.4639 151.556H30.9049V151.956H60.4639V151.556ZM60.7448 152.11L60.6594 151.713L60.2684 151.798L60.3538 152.194L60.7448 152.11ZM62.2105 154.568C61.4545 153.945 60.9367 153.077 60.7455 152.113L60.3531 152.191C60.5622 153.245 61.1286 154.195 61.956 154.877L62.2105 154.568ZM64.8912 155.532C63.9138 155.532 62.9664 155.192 62.2105 154.568L61.956 154.877C62.7834 155.559 63.8207 155.932 64.8912 155.932V155.532ZM67.572 154.568C66.816 155.192 65.8687 155.532 64.8912 155.532V155.932C65.9618 155.932 66.9991 155.559 67.8265 154.877L67.572 154.568ZM69.0369 152.113C68.8457 153.077 68.3279 153.945 67.572 154.568L67.8265 154.877C68.6539 154.195 69.2202 153.245 69.4293 152.191L69.0369 152.113ZM69.123 151.713L69.0376 152.11L69.4286 152.194L69.514 151.798L69.123 151.713ZM74.7574 151.556H69.3185V151.956H74.7574V151.556ZM74.964 151.47C74.909 151.525 74.8347 151.556 74.7574 151.556V151.956C74.9414 151.956 75.1177 151.882 75.2475 151.752L74.964 151.47ZM75.05 151.26C75.05 151.339 75.019 151.414 74.964 151.469L75.2475 151.752C75.3773 151.621 75.45 151.444 75.45 151.26H75.05ZM75.05 142.346V151.26H75.45V142.346H75.05ZM62.4411 139.08H71.1446V138.68H62.4411V139.08ZM62.2411 131.947V138.88H62.6411V131.947H62.2411ZM69.4499 131.747H62.4411V132.147H69.4499V131.747ZM71.3389 138.832L69.6442 131.899L69.2556 131.994L70.9503 138.927L71.3389 138.832ZM27.8743 154.648C28.317 154.463 28.7189 154.192 29.0568 153.851L28.7723 153.569C28.4716 153.874 28.114 154.115 27.7202 154.279L27.8743 154.648ZM26.4773 154.927C26.9567 154.928 27.4315 154.833 27.8743 154.648L27.7202 154.279C27.3264 154.443 26.9042 154.528 26.4779 154.527L26.4773 154.927ZM24.4466 154.309C25.0473 154.714 25.7548 154.929 26.4782 154.927L26.4769 154.527C25.8337 154.529 25.2045 154.338 24.67 153.978L24.4466 154.309ZM23.1064 152.656C23.3792 153.329 23.8458 153.905 24.4466 154.309L24.67 153.978C24.1355 153.618 23.7201 153.105 23.4771 152.506L23.1064 152.656ZM22.8983 150.562C22.7621 151.266 22.8346 151.994 23.1067 152.657L23.4768 152.505C23.2343 151.914 23.1697 151.265 23.291 150.638L22.8983 150.562ZM23.9013 148.672C23.388 149.188 23.0389 149.846 22.8984 150.562L23.2909 150.639C23.4162 150 23.7275 149.414 24.1849 148.954L23.9013 148.672ZM25.7818 147.664C25.0692 147.805 24.4147 148.156 23.9013 148.672L24.1849 148.954C24.6423 148.494 25.2253 148.182 25.8596 148.056L25.7818 147.664ZM27.8679 147.873C27.2082 147.6 26.483 147.527 25.7823 147.664L25.8591 148.056C26.4824 147.934 27.1276 147.999 27.7146 148.243L27.8679 147.873ZM29.5122 149.22C29.1097 148.617 28.5369 148.147 27.8671 147.873L27.7155 148.243C28.3112 148.487 28.821 148.905 29.1793 149.442L29.5122 149.22ZM30.1261 151.261C30.1283 150.535 29.9146 149.824 29.5122 149.22L29.1793 149.442C29.5376 149.98 29.7281 150.613 29.7261 151.26L30.1261 151.261ZM29.849 152.663C30.0327 152.219 30.1268 151.742 30.1261 151.26L29.7261 151.261C29.7268 151.69 29.6429 152.114 29.4793 152.511L29.849 152.663ZM29.0559 153.852C29.3958 153.512 29.6653 153.108 29.849 152.663L29.4793 152.511C29.3157 152.907 29.0757 153.266 28.7732 153.569L29.0559 153.852ZM55.744 131.452C55.7441 131.373 55.7752 131.298 55.8302 131.243L55.5468 130.961C55.417 131.091 55.3442 131.268 55.344 131.452L55.744 131.452ZM55.744 150.765V131.452H55.344V150.765H55.744ZM30.9049 150.965H55.544V150.565H30.9049V150.965ZM30.6299 150.408L30.7087 150.804L31.101 150.726L31.0222 150.33L30.6299 150.408ZM29.1599 147.96C29.9161 148.581 30.4355 149.446 30.63 150.409L31.0221 150.329C30.8095 149.277 30.2414 148.33 29.4138 147.65L29.1599 147.96ZM26.4808 146.999C27.4572 146.999 28.4037 147.338 29.1599 147.96L29.4138 147.65C28.5862 146.971 27.55 146.599 26.4808 146.599V146.999ZM23.8018 147.96C24.558 147.338 25.5045 146.999 26.4808 146.999V146.599C25.4117 146.599 24.3755 146.971 23.5479 147.65L23.8018 147.96ZM22.3317 150.409C22.5261 149.446 23.0456 148.581 23.8018 147.96L23.5479 147.65C22.7203 148.33 22.1522 149.277 21.9396 150.329L22.3317 150.409ZM22.2458 150.807L22.3312 150.411L21.9402 150.327L21.8548 150.723L22.2458 150.807ZM18.1091 150.965H22.0503V150.565H18.1091V150.965ZM17.9091 125.014V150.765H18.3091V125.014H17.9091ZM67.4859 124.814H18.1091V125.214H67.4859V124.814ZM69.3729 130.902L67.6782 124.959L67.2935 125.069L68.9882 131.011L69.3729 130.902ZM56.0366 131.156H69.1806V130.756H56.0366V131.156ZM55.8304 131.243C55.8853 131.187 55.9596 131.157 56.0368 131.156L56.0365 130.756C55.8525 130.757 55.6763 130.83 55.5466 130.961L55.8304 131.243ZM66.3011 154.648C66.7438 154.463 67.1457 154.192 67.4836 153.851L67.1991 153.569C66.8984 153.874 66.5408 154.115 66.147 154.279L66.3011 154.648ZM64.9041 154.927C65.3835 154.928 65.8583 154.833 66.3011 154.648L66.147 154.279C65.7532 154.443 65.331 154.528 64.9047 154.527L64.9041 154.927ZM62.8734 154.309C63.4741 154.714 64.1816 154.929 64.905 154.927L64.9037 154.527C64.2605 154.529 63.6313 154.338 63.0968 153.978L62.8734 154.309ZM61.5332 152.656C61.806 153.329 62.2726 153.905 62.8734 154.309L63.0968 153.978C62.5623 153.618 62.1469 153.105 61.9039 152.506L61.5332 152.656ZM61.3251 150.562C61.1889 151.266 61.2614 151.994 61.5335 152.657L61.9036 152.505C61.6611 151.914 61.5965 151.265 61.7178 150.638L61.3251 150.562ZM62.3259 148.683C61.8154 149.196 61.4674 149.85 61.3254 150.561L61.7176 150.639C61.8443 150.005 62.1546 149.423 62.6095 148.965L62.3259 148.683ZM64.1948 147.677C63.4866 147.82 62.8365 148.17 62.3259 148.683L62.6095 148.965C63.0644 148.508 63.6435 148.196 64.2739 148.069L64.1948 147.677ZM66.2816 147.886C65.6219 147.613 64.8966 147.54 64.196 147.677L64.2727 148.069C64.8961 147.947 65.5413 148.012 66.1283 148.256L66.2816 147.886ZM67.9293 149.224C67.5244 148.623 66.9502 148.157 66.28 147.886L66.1299 148.257C66.726 148.498 67.2371 148.913 67.5975 149.448L67.9293 149.224ZM68.5529 151.26C68.5512 150.534 68.3342 149.825 67.9293 149.224L67.5975 149.448C67.958 149.983 68.1514 150.614 68.1529 151.261L68.5529 151.26ZM68.2758 152.663C68.4595 152.219 68.5536 151.742 68.5529 151.26L68.1529 151.261C68.1536 151.69 68.0697 152.114 67.9061 152.511L68.2758 152.663ZM67.4827 153.852C67.8226 153.512 68.0921 153.108 68.2758 152.663L67.9061 152.511C67.7425 152.907 67.5025 153.266 67.2 153.569L67.4827 153.852ZM69.3317 150.965H74.2647V150.565H69.3317V150.965ZM69.0508 150.411L69.1361 150.807L69.5272 150.723L69.4418 150.327L69.0508 150.411ZM67.5851 147.952C68.3411 148.576 68.8589 149.444 69.0501 150.408L69.4424 150.33C69.2333 149.275 68.667 148.326 67.8396 147.644L67.5851 147.952ZM64.9044 146.988C65.8818 146.988 66.8292 147.329 67.5851 147.952L67.8396 147.644C67.0122 146.962 65.9749 146.588 64.9044 146.588V146.988ZM62.2236 147.952C62.9795 147.329 63.9269 146.988 64.9044 146.988V146.588C63.8338 146.588 62.7965 146.962 61.9691 147.644L62.2236 147.952ZM60.7586 150.408C60.9498 149.444 61.4676 148.576 62.2236 147.952L61.9691 147.644C61.1417 148.326 60.5754 149.275 60.3663 150.33L60.7586 150.408ZM60.6726 150.807L60.758 150.411L60.367 150.327L60.2816 150.723L60.6726 150.807ZM56.5359 150.965H60.4771V150.565H56.5359V150.965ZM56.3359 131.947V150.765H56.7359V131.947H56.3359ZM61.4624 131.747H56.5359V132.147H61.4624V131.747ZM61.6624 139.375V131.947H61.2624V139.375H61.6624ZM61.7485 139.584C61.6935 139.529 61.6624 139.454 61.6624 139.375H61.2624C61.2624 139.559 61.3351 139.736 61.4649 139.866L61.7485 139.584ZM61.955 139.67C61.8777 139.67 61.8034 139.64 61.7485 139.584L61.4649 139.866C61.5947 139.997 61.771 140.07 61.955 140.07V139.67ZM71.5979 139.67H61.955V140.07H71.5979V139.67ZM74.4065 142.41L71.7396 139.729L71.4561 140.011L74.123 142.692L74.4065 142.41ZM74.4647 150.765V142.551H74.0647V150.765H74.4647ZM65.1955 151.257C65.1955 151.421 65.0634 151.553 64.9028 151.553V151.953C65.2864 151.953 65.5955 151.64 65.5955 151.257H65.1955ZM64.9028 150.962C65.0634 150.962 65.1955 151.093 65.1955 151.257H65.5955C65.5955 150.874 65.2864 150.562 64.9028 150.562V150.962ZM64.6102 151.257C64.6102 151.093 64.7422 150.962 64.9028 150.962V150.562C64.5192 150.562 64.2102 150.874 64.2102 151.257H64.6102ZM64.9028 151.553C64.7422 151.553 64.6102 151.421 64.6102 151.257H64.2102C64.2102 151.64 64.5192 151.953 64.9028 151.953V151.553ZM26.477 151.953C26.8606 151.953 27.1697 151.64 27.1697 151.257H26.7697C26.7697 151.421 26.6376 151.553 26.477 151.553V151.953ZM25.7844 151.257C25.7844 151.64 26.0934 151.953 26.477 151.953V151.553C26.3165 151.553 26.1844 151.421 26.1844 151.257H25.7844ZM26.477 150.562C26.0934 150.562 25.7844 150.874 25.7844 151.257H26.1844C26.1844 151.093 26.3165 150.962 26.477 150.962V150.562ZM27.1697 151.257C27.1697 150.874 26.8606 150.562 26.477 150.562V150.962C26.6376 150.962 26.7697 151.093 26.7697 151.257H27.1697ZM32.6818 132.445C32.6818 132.609 32.5497 132.74 32.3891 132.74V133.14C32.7727 133.14 33.0818 132.828 33.0818 132.445H32.6818ZM32.3891 132.149C32.5497 132.149 32.6818 132.28 32.6818 132.445H33.0818C33.0818 132.062 32.7727 131.749 32.3891 131.749V132.149ZM32.0965 132.445C32.0965 132.28 32.2286 132.149 32.3891 132.149V131.749C32.0055 131.749 31.6965 132.062 31.6965 132.445H32.0965ZM32.3891 132.74C32.2286 132.74 32.0965 132.609 32.0965 132.445H31.6965C31.6965 132.828 32.0055 133.14 32.3891 133.14V132.74ZM40.27 133.14C40.6536 133.14 40.9626 132.828 40.9626 132.445H40.5626C40.5626 132.609 40.4306 132.74 40.27 132.74V133.14ZM39.5773 132.445C39.5773 132.828 39.8864 133.14 40.27 133.14V132.74C40.1094 132.74 39.9773 132.609 39.9773 132.445H39.5773ZM40.27 131.749C39.8864 131.749 39.5773 132.062 39.5773 132.445H39.9773C39.9773 132.28 40.1094 132.149 40.27 132.149V131.749ZM40.9626 132.445C40.9626 132.062 40.6536 131.749 40.27 131.749V132.149C40.4306 132.149 40.5626 132.28 40.5626 132.445H40.9626ZM64.8838 143.044C64.961 143.044 65.0352 143.075 65.0902 143.13L65.374 142.848C65.2443 142.718 65.0681 142.644 64.8841 142.644L64.8838 143.044ZM61.9477 143.044H64.8839V142.644H61.9477V143.044ZM61.7412 143.13C61.7962 143.075 61.8705 143.044 61.9477 143.044V142.644C61.7637 142.644 61.5874 142.717 61.4576 142.848L61.7412 143.13ZM61.6551 143.339C61.6551 143.26 61.6862 143.185 61.7412 143.13L61.4575 142.848C61.3278 142.978 61.2551 143.155 61.2551 143.339H61.6551ZM61.7412 143.549C61.6862 143.493 61.6551 143.418 61.6551 143.339H61.2551C61.2551 143.523 61.3278 143.7 61.4576 143.831L61.7412 143.549ZM61.9477 143.635C61.8705 143.635 61.7962 143.604 61.7412 143.549L61.4576 143.831C61.5874 143.961 61.7637 144.035 61.9477 144.035V143.635ZM64.9036 143.635H61.9477V144.035H64.9036V143.635ZM65.0533 143.581C65.007 143.614 64.9522 143.633 64.8956 143.635L64.9117 144.034C65.0465 144.029 65.1767 143.984 65.2864 143.906L65.0533 143.581ZM65.1563 143.447C65.1355 143.501 65.0996 143.547 65.0533 143.581L65.2864 143.906C65.396 143.827 65.4803 143.718 65.5292 143.592L65.1563 143.447ZM65.1703 143.279C65.182 143.335 65.1772 143.394 65.1563 143.447L65.5292 143.592C65.5781 143.466 65.5894 143.329 65.5618 143.197L65.1703 143.279ZM65.0903 143.13C65.1307 143.171 65.1585 143.222 65.1703 143.279L65.5618 143.197C65.5343 143.065 65.469 142.944 65.3738 142.848L65.0903 143.13ZM49.8325 136.403C49.8319 135.59 49.5628 134.801 49.0673 134.159L48.7506 134.403C49.192 134.975 49.4319 135.679 49.4325 136.403L49.8325 136.403ZM49.8325 141.606V136.403H49.4325V141.606H49.8325ZM49.124 143.319C49.576 142.864 49.8306 142.249 49.8325 141.607L49.4325 141.606C49.4309 142.143 49.2179 142.657 48.8404 143.037L49.124 143.319ZM47.4194 144.031C48.0592 144.029 48.6719 143.773 49.124 143.319L48.8404 143.037C48.4629 143.416 47.9516 143.63 47.4182 143.631L47.4194 144.031ZM25.2495 144.031H47.4188V143.631H25.2495V144.031ZM23.5403 143.321C23.9939 143.776 24.6085 144.031 25.2495 144.031L25.2495 143.631C24.7151 143.631 24.2023 143.418 23.8235 143.039L23.5403 143.321ZM22.8293 141.607C22.8312 142.25 23.0868 142.867 23.5403 143.321L23.8235 143.039C23.4447 142.659 23.2309 142.144 23.2293 141.606L22.8293 141.607ZM22.8293 136.403V141.606H23.2293V136.403H22.8293ZM23.5945 134.159C23.099 134.801 22.8299 135.59 22.8293 136.403L23.2293 136.403C23.2298 135.679 23.4698 134.975 23.9112 134.403L23.5945 134.159ZM25.5672 132.855C24.7839 133.058 24.09 133.517 23.5945 134.159L23.9112 134.403C24.3526 133.831 24.9704 133.423 25.6675 133.242L25.5672 132.855ZM25.9332 132.757L25.5654 132.856L25.6694 133.242L26.0372 133.143L25.9332 132.757ZM25.7852 130.216V132.95H26.1852V130.216H25.7852ZM26.4912 128.5C26.039 128.955 25.7852 129.573 25.7852 130.216L26.1852 130.216C26.1852 129.678 26.3975 129.162 26.7752 128.781L26.4912 128.5ZM28.1983 127.784C27.5573 127.786 26.9434 128.044 26.4912 128.5L26.7752 128.781C27.1528 128.4 27.665 128.186 28.1994 128.184L28.1983 127.784ZM44.4563 127.784H28.1989V128.184H44.4563V127.784ZM46.1681 128.497C45.7143 128.041 45.0986 127.784 44.4563 127.784V128.184C44.9918 128.184 45.5055 128.398 45.8845 128.779L46.1681 128.497ZM46.8766 130.216C46.8766 129.572 46.6218 128.953 46.1681 128.497L45.8845 128.779C46.2635 129.16 46.4766 129.677 46.4766 130.216H46.8766ZM46.8766 132.95V130.216H46.4766V132.95H46.8766ZM47.0964 132.856L46.7286 132.757L46.6246 133.143L46.9924 133.242L47.0964 132.856ZM49.0673 134.159C48.5718 133.517 47.8779 133.058 47.0946 132.855L46.9943 133.242C47.6913 133.423 48.3092 133.831 48.7506 134.403L49.0673 134.159ZM28.9411 142.641H25.2429V143.041H28.9411V142.641ZM28.7411 136.403V142.841H29.1411V136.403H28.7411ZM28.0779 134.793C28.5024 135.22 28.7411 135.799 28.7411 136.403H29.1411C29.1411 135.694 28.8608 135.013 28.3614 134.511L28.0779 134.793ZM26.4779 134.127C27.0778 134.127 27.6533 134.367 28.0779 134.793L28.3614 134.511C27.8621 134.009 27.1845 133.727 26.4779 133.727V134.127ZM24.8779 134.793C25.3024 134.367 25.8779 134.127 26.4779 134.127V133.727C25.7712 133.727 25.0937 134.009 24.5943 134.511L24.8779 134.793ZM24.2146 136.403C24.2146 135.799 24.4533 135.22 24.8779 134.793L24.5943 134.511C24.0949 135.013 23.8146 135.694 23.8146 136.403H24.2146ZM24.2146 141.606V136.403H23.8146V141.606H24.2146ZM24.5181 142.336C24.3252 142.142 24.216 141.88 24.2146 141.605L23.8146 141.607C23.8166 141.986 23.9674 142.35 24.2345 142.618L24.5181 142.336ZM25.244 142.641C24.9718 142.639 24.7109 142.53 24.5181 142.336L24.2345 142.618C24.5016 142.887 24.8636 143.039 25.2419 143.041L25.244 142.641ZM42.7354 142.641H29.9264V143.041H42.7354V142.641ZM42.5354 137.889V142.841H42.9354V137.889H42.5354ZM29.9264 138.089H42.7354V137.689H29.9264V138.089ZM30.1264 142.841V137.889H29.7264V142.841H30.1264ZM42.5354 136.403V136.898H42.9354V136.403H42.5354ZM43.3005 134.159C42.8051 134.801 42.536 135.59 42.5354 136.403L42.9354 136.403C42.9359 135.679 43.1758 134.975 43.6172 134.403L43.3005 134.159ZM45.2733 132.855C44.4899 133.058 43.7961 133.517 43.3005 134.159L43.6172 134.403C44.0587 133.831 44.6765 133.423 45.3736 133.242L45.2733 132.855ZM45.6393 132.757L45.2714 132.856L45.3754 133.242L45.7433 133.143L45.6393 132.757ZM45.4913 130.21V132.95H45.8913V130.21H45.4913ZM45.1878 129.479C45.3806 129.673 45.4898 129.936 45.4913 130.211L45.8913 130.208C45.8893 129.829 45.7385 129.466 45.4714 129.197L45.1878 129.479ZM44.4618 129.175C44.7341 129.176 44.995 129.286 45.1878 129.479L45.4714 129.197C45.2042 128.929 44.8422 128.777 44.464 128.775L44.4618 129.175ZM28.1989 129.175H44.4629V128.775H28.1989V129.175ZM27.474 129.479C27.6668 129.286 27.9277 129.176 28.1999 129.175L28.1978 128.775C27.8195 128.777 27.4576 128.929 27.1904 129.197L27.474 129.479ZM27.1705 130.211C27.172 129.936 27.2811 129.673 27.474 129.479L27.1904 129.197C26.9233 129.466 26.7725 129.829 26.7705 130.208L27.1705 130.211ZM27.1705 132.95V130.21H26.7705V132.95H27.1705ZM27.3904 132.856L27.0225 132.757L26.9185 133.143L27.2864 133.242L27.3904 132.856ZM29.3612 134.159C28.8657 133.517 28.1718 133.058 27.3885 132.855L27.2882 133.242C27.9853 133.423 28.6031 133.831 29.0445 134.403L29.3612 134.159ZM30.1264 136.403C30.1258 135.59 29.8567 134.801 29.3612 134.159L29.0445 134.403C29.486 134.975 29.7259 135.679 29.7264 136.403L30.1264 136.403ZM30.1264 136.898V136.403H29.7264V136.898H30.1264ZM42.7354 136.698H29.9264V137.098H42.7354V136.698ZM48.4472 141.605C48.4457 141.88 48.3366 142.142 48.1437 142.336L48.4273 142.618C48.6944 142.35 48.8452 141.986 48.8472 141.607L48.4472 141.605ZM48.4472 136.403V141.606H48.8472V136.403H48.4472ZM47.7839 134.793C48.2085 135.22 48.4472 135.799 48.4472 136.403H48.8472C48.8472 135.694 48.5668 135.013 48.0675 134.511L47.7839 134.793ZM46.1839 134.127C46.7838 134.127 47.3594 134.367 47.7839 134.793L48.0675 134.511C47.5681 134.009 46.8906 133.727 46.1839 133.727V134.127ZM44.5839 134.793C45.0084 134.367 45.584 134.127 46.1839 134.127V133.727C45.4772 133.727 44.7997 134.009 44.3003 134.511L44.5839 134.793ZM43.9207 136.403C43.9207 135.799 44.1594 135.22 44.5839 134.793L44.3003 134.511C43.801 135.013 43.5207 135.694 43.5207 136.403H43.9207ZM43.9207 142.841V136.403H43.5207V142.841H43.9207ZM47.4188 142.641H43.7207V143.041H47.4188V142.641ZM48.1437 142.336C47.9509 142.53 47.69 142.639 47.4178 142.641L47.4199 143.041C47.7981 143.039 48.1601 142.887 48.4273 142.618L48.1437 142.336Z" fill="#325837" mask="url(#path-3-outside-1_1093_1453)"/>
</g>
<circle opacity="0.4" cx="30" cy="57" r="3" fill="#BACC91"/>
<circle opacity="0.4" cx="62" cy="57" r="3" fill="#BACC91"/>
<path d="M45.25 86C45.25 86.4142 45.5858 86.75 46 86.75C46.4142 86.75 46.75 86.4142 46.75 86L45.25 86ZM46 61C48.2091 61 50 59.2091 50 57C50 54.7909 48.2091 53 46 53C43.7909 53 42 54.7909 42 57C42 59.2091 43.7909 61 46 61ZM46.75 86L46.75 57L45.25 57L45.25 86L46.75 86Z" fill="#BACC91"/>
<path d="M31 28.968V24.648L47.56 3H54.232L37.912 24.648L34.792 23.688H61.432V28.968H31ZM49.432 36.6V28.968L49.624 23.688V16.92H55.48V36.6H49.432Z" fill="#D2DDC7"/>
</svg>
