<svg width="90" height="180" viewBox="0 0 90 180" fill="none" xmlns="http://www.w3.org/2000/svg">
<mask id="mask0_1093_1378" style="mask-type:alpha" maskUnits="userSpaceOnUse" x="0" y="0" width="90" height="90">
<rect width="90" height="90" fill="#C4C4C4"/>
</mask>
<g mask="url(#mask0_1093_1378)">
<path fill-rule="evenodd" clip-rule="evenodd" d="M50.9601 5.80417C60.9242 7.42875 67.4056 16.1233 73.7011 24.0156C80.5349 32.5826 88.8214 41.3004 87.9914 52.2276C87.1129 63.7937 82.1711 73.9127 72.3979 80.1601C63.0583 86.1302 48.7275 85.8008 37.738 84.351C26.1962 82.8284 13.444 81.1976 6.57519 71.7982C-0.340868 62.3342 0.485108 49.2825 3.92116 38.0758C6.94363 28.2179 15.2217 21.7003 23.7239 15.8672C32.0206 10.1751 41.0297 4.18509 50.9601 5.80417Z" fill="#EDF4DD"/>
<path d="M67.6793 70.4638H65.5027C62.9715 67.2932 62.384 61.592 65.497 57.8901H66.4705C67.3545 57.8901 68.0737 57.1702 68.0737 56.2853C68.0737 55.4004 67.3545 54.6804 66.4705 54.6804H50.7596C49.8756 54.6804 49.1564 55.4004 49.1564 56.2853C49.1564 57.1702 49.8756 57.8901 50.7596 57.8901H51.7331C54.8462 61.592 54.2587 67.2932 51.7274 70.4638H44.1194C44.1171 70.4497 44.1145 70.4355 44.1114 70.4214L43.6283 68.2577C44.5441 68.1898 45.4147 67.8261 46.1075 67.216C46.8857 66.5308 47.374 65.5915 47.4826 64.5711C47.614 63.336 47.6078 61.9524 47.6019 60.6145C47.5908 58.1453 47.5795 55.5923 48.5047 54.6555C49.0362 54.1779 49.3712 53.4852 49.3712 52.7156C49.3712 51.3378 48.2979 50.2064 46.9443 50.1147C45.2974 48.3952 43.3908 47.1313 41.2745 46.3572C39.5527 45.7275 37.6478 45.4082 35.6124 45.4082C33.577 45.4082 31.672 45.7275 29.9503 46.3572C27.834 47.1313 25.9273 48.3952 24.2804 50.1147C22.9268 50.2064 21.8535 51.3378 21.8535 52.7156C21.8535 53.4852 22.1885 54.1779 22.7201 54.6556C23.6453 55.5924 23.634 58.1454 23.6229 60.6145C23.6169 61.9524 23.6107 63.336 23.7421 64.5711C23.8507 65.5915 24.339 66.5308 25.1172 67.216C25.8101 67.8261 26.6806 68.1898 27.5965 68.2577L27.1134 70.4214C27.1102 70.4355 27.1076 70.4497 27.1053 70.4638H22.2543C22.033 70.4638 21.8535 70.6435 21.8535 70.8651C21.8535 71.0866 22.033 71.2663 22.2543 71.2663H67.6793C67.9006 71.2663 68.0801 71.0866 68.0801 70.8651C68.0801 70.6435 67.9006 70.4638 67.6793 70.4638V70.4638ZM49.958 56.2853C49.958 55.8428 50.3176 55.4829 50.7597 55.4829H66.4705C66.9125 55.4829 67.2721 55.8428 67.2721 56.2853C67.2721 56.7277 66.9125 57.0877 66.4705 57.0877H50.7597C50.3176 57.0877 49.958 56.7277 49.958 56.2853ZM53.9184 68.1356C54.3408 66.9917 54.5928 65.7385 54.6474 64.5114C54.7062 63.189 54.5453 61.9107 54.1691 60.712C53.8463 59.6834 53.3709 58.7375 52.752 57.8901H64.4781C63.8593 58.7375 63.3839 59.6834 63.061 60.712C62.6848 61.9107 62.5239 63.189 62.5827 64.5114C62.6373 65.7385 62.8894 66.9917 63.3117 68.1356C63.6239 68.9811 64.0309 69.7728 64.5061 70.4638H52.7241C53.1993 69.7728 53.6063 68.9811 53.9184 68.1356ZM42.0107 70.4638L40.8412 68.2695H42.8095L43.2995 70.4638H42.0107ZM39.9327 68.2695L41.1022 70.4638H30.1226L31.2921 68.2695H39.9327ZM48.5696 52.7156C48.5696 53.2461 48.3397 53.7239 47.9744 54.0543C47.973 54.0555 47.9717 54.0568 47.9703 54.058C47.6509 54.3452 47.2289 54.5202 46.7668 54.5202C45.7726 54.5202 44.9639 53.7107 44.9639 52.7156C44.9639 51.7205 45.7727 50.9109 46.7668 50.9109C47.7609 50.9109 48.5696 51.7205 48.5696 52.7156V52.7156ZM35.6124 46.2106C39.7022 46.2106 43.173 47.5666 45.941 50.2429C45.5072 50.3884 45.124 50.6454 44.8254 50.9797C44.8242 50.9808 44.8229 50.9818 44.8217 50.983C43.6703 52.1355 43.4751 54.2225 43.2683 56.432C43.2086 57.0707 43.1479 57.7179 43.0627 58.3456H28.1621C28.0769 57.7179 28.0162 57.0707 27.9565 56.432C27.7497 54.2225 27.5545 52.1355 26.4031 50.983C26.4019 50.9818 26.4006 50.9808 26.3994 50.9797C26.1008 50.6454 25.7176 50.3884 25.2838 50.2429C28.0517 47.5666 31.5226 46.2106 35.6124 46.2106V46.2106ZM42.9363 59.148C42.8133 59.8191 42.6474 60.4513 42.4061 61.0066C42.1092 61.6899 41.419 62.1315 40.6478 62.1315H30.5769C29.8058 62.1315 29.1156 61.6899 28.8186 61.0066C28.5774 60.4513 28.4115 59.8191 28.2885 59.148H42.9363ZM24.458 50.9109C25.4521 50.9109 26.2609 51.7205 26.2609 52.7156C26.2609 53.7107 25.4521 54.5202 24.458 54.5202C23.9957 54.5202 23.5735 54.3451 23.2541 54.0576C23.2528 54.0566 23.2516 54.0554 23.2504 54.0544C22.8851 53.7239 22.6551 53.2461 22.6551 52.7156C22.6551 51.7205 23.4639 50.9109 24.458 50.9109V50.9109ZM24.5393 64.4861C24.4126 63.2952 24.4186 61.9342 24.4245 60.6181C24.4337 58.5832 24.4423 56.6316 23.9785 55.2782C24.134 55.3073 24.2942 55.3226 24.458 55.3226C25.5037 55.3226 26.4073 54.7025 26.8214 53.8105C26.9824 54.6267 27.0693 55.5545 27.1584 56.5068C27.3161 58.1926 27.4792 59.9357 28.0836 61.3266C28.5078 62.303 29.4865 62.9338 30.5769 62.9338H40.6478C41.7382 62.9338 42.717 62.303 43.1412 61.3266C43.7456 59.9357 43.9087 58.1925 44.0665 56.5068C44.1556 55.5545 44.2424 54.6267 44.4034 53.8105C44.8176 54.7025 45.7211 55.3226 46.7668 55.3226C46.9305 55.3226 47.0908 55.3073 47.2463 55.2782C46.7825 56.6316 46.7912 58.5832 46.8003 60.6181C46.8061 61.9342 46.8122 63.2952 46.6855 64.4861C46.5047 66.1856 45.0556 67.4671 43.3148 67.4671H40.1784C40.1759 67.4671 40.1734 67.4671 40.171 67.4671H31.0536C31.0513 67.4671 31.0489 67.4671 31.0465 67.4671H28.1015C28.1003 67.4671 28.0991 67.4671 28.0979 67.4671H27.91C26.1692 67.4671 24.7201 66.1856 24.5393 64.4861V64.4861ZM28.4153 68.2695H30.3836L29.2141 70.4638H27.9253L28.4153 68.2695Z" fill="#325837"/>
<path fill-rule="evenodd" clip-rule="evenodd" d="M44.2809 70.2646H51.6302C54.0455 67.1622 54.5903 61.6809 51.6391 58.0908H50.7594C49.7648 58.0908 48.9562 57.2812 48.9562 56.2861C48.9562 55.2909 49.7648 54.4812 50.7594 54.4812H66.4703C67.4649 54.4812 68.2735 55.2909 68.2735 56.2861C68.2735 57.2812 67.4649 58.0908 66.4703 58.0908H65.5906C62.6395 61.6809 63.1842 67.1622 65.5996 70.2646H67.6791C68.0111 70.2646 68.2799 70.534 68.2799 70.8658C68.2799 71.1977 68.0111 71.4671 67.6791 71.4671H22.2541C21.9221 71.4671 21.6533 71.1977 21.6533 70.8658C21.6533 70.534 21.9221 70.2646 22.2541 70.2646H26.9434L27.3519 68.4349C26.4775 68.3242 25.6524 67.9547 24.9848 67.3669C24.1695 66.649 23.657 65.6638 23.5431 64.5931C23.4105 63.347 23.4167 61.9544 23.4227 60.6212L23.4227 60.6144C23.4282 59.3768 23.4336 58.133 23.3235 57.0821C23.2685 56.5572 23.1854 56.0876 23.0621 55.6955C22.9391 55.3045 22.7802 55.0039 22.5816 54.8009C22.0124 54.2872 21.6533 53.543 21.6533 52.7164C21.6533 51.2594 22.7677 50.0585 24.1885 49.9223C25.8433 48.21 27.7574 46.9471 29.8814 46.1702C31.6274 45.5316 33.5559 45.209 35.6122 45.209C37.6684 45.209 39.597 45.5316 41.343 46.1702C43.467 46.9471 45.3811 48.21 47.0359 49.9223C48.4567 50.0585 49.571 51.2594 49.571 52.7164C49.571 53.543 49.212 54.2872 48.6429 54.8009C48.4442 55.0038 48.2853 55.3045 48.1623 55.6954C48.039 56.0875 47.9559 56.5571 47.9009 57.082C47.7908 58.1329 47.7961 59.3767 47.8017 60.6144L47.8017 60.6213C47.8076 61.9545 47.8139 63.347 47.6813 64.5931C47.5673 65.6638 47.0548 66.649 46.2395 67.3669C45.5719 67.9547 44.7469 68.3241 43.8724 68.4349L44.2809 70.2646ZM44.1112 70.4222C44.1143 70.4363 44.1169 70.4504 44.1192 70.4646H51.7272C54.2585 67.294 54.846 61.5927 51.7329 57.8909H50.7594C49.8754 57.8909 49.1562 57.171 49.1562 56.2861C49.1562 55.4011 49.8754 54.6812 50.7594 54.6812H66.4703C67.3543 54.6812 68.0735 55.4012 68.0735 56.2861C68.0735 57.1709 67.3543 57.8909 66.4703 57.8909H65.4968C62.3838 61.5927 62.9713 67.294 65.5026 70.4646H67.6791C67.9005 70.4646 68.0799 70.6443 68.0799 70.8658C68.0799 71.0874 67.9005 71.2671 67.6791 71.2671H22.2541C22.0328 71.2671 21.8533 71.0874 21.8533 70.8658C21.8533 70.6443 22.0328 70.4646 22.2541 70.4646H27.1051C27.1074 70.4504 27.11 70.4363 27.1132 70.4222L27.5963 68.2585C27.5292 68.2535 27.4623 68.2469 27.3957 68.2388C26.5538 68.136 25.7591 67.7822 25.117 67.2168C24.3388 66.5316 23.8505 65.5923 23.7419 64.5719C23.6105 63.3368 23.6167 61.9533 23.6227 60.6154C23.6338 58.1463 23.6451 55.5932 22.7199 54.6564C22.1883 54.1787 21.8533 53.486 21.8533 52.7164C21.8533 51.3386 22.9266 50.2072 24.2802 50.1155C25.9271 48.396 27.8338 47.1321 29.9501 46.358C31.6718 45.7283 33.5768 45.409 35.6122 45.409C37.6476 45.409 39.5526 45.7283 41.2743 46.358C43.3906 47.1321 45.2972 48.396 46.9442 50.1155C48.2977 50.2072 49.371 51.3386 49.371 52.7164C49.371 53.486 49.036 54.1787 48.5045 54.6563C47.5793 55.5931 47.5906 58.1461 47.6017 60.6153C47.6076 61.9532 47.6138 63.3368 47.4824 64.5719C47.3738 65.5923 46.8855 66.5316 46.1073 67.2168C45.4652 67.7822 44.6705 68.136 43.8286 68.2388C43.762 68.2469 43.6952 68.2535 43.6281 68.2585L44.1112 70.4222ZM53.9182 68.1364C53.6358 68.9014 53.2757 69.6224 52.8577 70.2646C52.8137 70.3322 52.7691 70.3988 52.7239 70.4646H64.5059C64.4607 70.3988 64.4161 70.3322 64.3721 70.2646C63.9541 69.6224 63.594 68.9014 63.3115 68.1364C62.8892 66.9925 62.6371 65.7393 62.5825 64.5122C62.5237 63.1897 62.6846 61.9114 63.0609 60.7128C63.3585 59.7644 63.7859 58.8863 64.3358 58.0908C64.3823 58.0236 64.4297 57.9569 64.4779 57.8909H52.7518C52.8001 57.9569 52.8474 58.0236 52.8939 58.0908C53.4439 58.8863 53.8712 59.7644 54.1689 60.7128C54.5451 61.9115 54.706 63.1897 54.6472 64.5122C54.5926 65.7393 54.3406 66.9925 53.9182 68.1364ZM53.1359 58.0908C53.6603 58.8729 54.0703 59.7307 54.3597 60.6529C54.7433 61.875 54.9068 63.1766 54.847 64.5211C54.7915 65.7686 54.5354 67.0423 54.1058 68.2057C53.8344 68.9409 53.4921 69.6372 53.0953 70.2646H64.1345C63.7377 69.6372 63.3954 68.9409 63.1239 68.2057C62.6944 67.0423 62.4382 65.7686 62.3827 64.5211C62.3229 63.1766 62.4865 61.875 62.87 60.6529C63.1595 59.7307 63.5695 58.8729 64.0939 58.0908H53.1359ZM47.9742 54.0551C48.3395 53.7246 48.5694 53.2469 48.5694 52.7164C48.5694 51.7213 47.7607 50.9117 46.7666 50.9117C45.7725 50.9117 44.9637 51.7213 44.9637 52.7164C44.9637 53.7114 45.7725 54.521 46.7666 54.521C47.2287 54.521 47.6507 54.346 47.9701 54.0587L47.9742 54.0551ZM47.843 53.9041C48.1666 53.6099 48.3694 53.1864 48.3694 52.7164C48.3694 51.8316 47.65 51.1117 46.7666 51.1117C45.8831 51.1117 45.1637 51.8316 45.1637 52.7164C45.1637 53.6012 45.8831 54.321 46.7666 54.321C47.1772 54.321 47.5521 54.1657 47.8364 53.91L47.84 53.9068L47.843 53.9041ZM47.8364 53.91C47.8359 53.9105 47.8372 53.9094 47.838 53.9086L47.8364 53.91ZM44.8215 50.9838L44.8252 50.9805C45.0755 50.7002 45.3853 50.4743 45.7345 50.3229C45.8019 50.2936 45.8707 50.2672 45.9408 50.2437C45.887 50.1917 45.833 50.1402 45.7787 50.0892C43.0378 47.5152 39.6226 46.2114 35.6122 46.2114C31.6018 46.2114 28.1866 47.5152 25.4457 50.0892C25.3914 50.1402 25.3374 50.1917 25.2836 50.2437C25.3537 50.2672 25.4225 50.2936 25.4899 50.3228C25.8391 50.4743 26.1489 50.7002 26.3992 50.9805L26.4029 50.9838C27.5543 52.1363 27.7495 54.2233 27.9563 56.4328C28.016 57.0715 28.0767 57.7186 28.1619 58.3464H43.0625C43.1477 57.7186 43.2084 57.0715 43.2681 56.4328C43.4749 54.2233 43.6702 52.1363 44.8215 50.9838ZM42.8871 58.1464C42.96 57.5778 43.0147 56.9945 43.069 56.4141L43.0698 56.4052C43.1726 55.3069 43.2741 54.2218 43.4958 53.2667C43.718 52.3092 44.066 51.457 44.68 50.8424C44.6809 50.8415 44.6818 50.8407 44.6826 50.8399C44.932 50.5627 45.2357 50.3353 45.5771 50.1746C42.8866 47.6776 39.5434 46.4114 35.6122 46.4114C31.681 46.4114 28.3378 47.6776 25.6473 50.1746C25.9887 50.3353 26.2924 50.5627 26.5418 50.8399C26.5426 50.8407 26.5435 50.8415 26.5444 50.8424C27.1584 51.457 27.5065 52.3092 27.7286 53.2667C27.9503 54.2219 28.0518 55.3071 28.1546 56.4054L28.1554 56.4141C28.2097 56.9945 28.2644 57.5778 28.3373 58.1464H42.8871ZM23.3876 53.9097C23.6719 54.1656 24.047 54.321 24.4578 54.321C25.3413 54.321 26.0607 53.6012 26.0607 52.7164C26.0607 51.8316 25.3413 51.1117 24.4578 51.1117C23.5744 51.1117 22.855 51.8316 22.8549 52.7164C22.8549 53.1875 23.0587 53.6118 23.3835 53.906L23.3847 53.9071L23.3876 53.9097ZM23.2502 54.0552C22.8849 53.7247 22.6549 53.2469 22.6549 52.7164C22.655 51.7213 23.4637 50.9117 24.4578 50.9117C25.4519 50.9117 26.2607 51.7213 26.2607 52.7164C26.2607 53.7114 25.4519 54.521 24.4578 54.521C23.9955 54.521 23.5733 54.3458 23.2539 54.0584L23.2502 54.0552ZM50.7595 55.6837C50.4281 55.6837 50.1578 55.9539 50.1578 56.2861C50.1578 56.6182 50.4281 56.8885 50.7595 56.8885H66.4703C66.8017 56.8885 67.0719 56.6182 67.0719 56.2861C67.0719 55.9539 66.8017 55.6837 66.4703 55.6837H50.7595ZM42.1306 70.2646H43.0497L42.6491 68.4703H41.1743L42.1306 70.2646ZM42.0105 70.4646H43.2993L42.8093 68.2703H40.841L42.0105 70.4646ZM39.8124 68.4703H31.412L30.4557 70.2646H40.7687L39.8124 68.4703ZM41.102 70.4646H30.1224L31.2919 68.2703H39.9325L41.102 70.4646ZM42.9361 59.1488H28.2883C28.3006 59.2159 28.3133 59.2826 28.3265 59.3488C28.4452 59.9455 28.6013 60.5076 28.8184 61.0074C29.1154 61.6907 29.8056 62.1323 30.5768 62.1323H40.6476C41.4188 62.1323 42.109 61.6907 42.4059 61.0074C42.6231 60.5076 42.7792 59.9455 42.8979 59.3488C42.9111 59.2826 42.9238 59.2159 42.9361 59.1488ZM42.6939 59.3488H28.5305C28.6464 59.9219 28.7968 60.4557 29.0019 60.9276C29.2657 61.5347 29.8816 61.9323 30.5768 61.9323H40.6476C41.3428 61.9323 41.9587 61.5347 42.2225 60.9277C42.4276 60.4557 42.578 59.9219 42.6939 59.3488ZM24.6243 60.6198C24.6184 61.9387 24.6126 63.2879 24.738 64.4658C24.9077 66.0606 26.2683 67.2679 27.9098 67.2679H28.0975L28.0986 67.2679L28.1013 67.2679H31.0463L31.0508 67.2679L31.0534 67.2679H40.1708L40.1782 67.2679L43.3146 67.2679C44.9561 67.2679 46.3167 66.0606 46.4864 64.4658C46.6118 63.2879 46.606 61.9387 46.6001 60.6198L46.6001 60.6171C46.5955 59.6021 46.591 58.5997 46.6461 57.6814C46.6935 56.8916 46.7853 56.1542 46.9633 55.5165C46.8983 55.5211 46.8327 55.5234 46.7666 55.5234C45.8402 55.5234 45.0181 55.0717 44.5074 54.3776C44.4041 55.046 44.3357 55.7744 44.2654 56.5262L44.2635 56.5467C44.1071 58.2176 43.9416 59.9869 43.3245 61.4071C42.8675 62.4588 41.8152 63.1346 40.6476 63.1346H30.5768C29.4092 63.1346 28.3569 62.4588 27.8999 61.4071C27.2828 59.9868 27.1172 58.2173 26.9609 56.5462L26.959 56.5262C26.8887 55.7744 26.8204 55.046 26.7171 54.3776C26.2064 55.0717 25.3842 55.5234 24.4578 55.5234C24.3917 55.5234 24.3261 55.5211 24.2611 55.5165C24.4391 56.1542 24.5309 56.8917 24.5783 57.6814C24.6334 58.5997 24.6289 59.6021 24.6244 60.6172L24.6243 60.6198ZM24.0464 55.4931C24.4412 56.834 24.433 58.689 24.4244 60.6189C24.4185 61.935 24.4124 63.2959 24.5391 64.4869C24.7199 66.1863 26.169 67.4679 27.9098 67.4679H43.3146C45.0554 67.4679 46.5045 66.1863 46.6853 64.4869C46.812 63.2962 46.806 61.9356 46.8001 60.6197C46.7914 58.6897 46.7832 56.834 47.178 55.4931C47.1995 55.4202 47.2222 55.3488 47.2461 55.279C47.1734 55.2926 47.0996 55.3032 47.0249 55.3106C46.9399 55.3191 46.8538 55.3234 46.7666 55.3234C45.8342 55.3234 45.0147 54.8303 44.5546 54.0911C44.4987 54.0013 44.4481 53.9079 44.4032 53.8112C44.3826 53.9159 44.3632 54.0224 44.3448 54.1305C44.2199 54.8658 44.1439 55.6774 44.0663 56.5076C43.9085 58.1933 43.7454 59.9365 43.141 61.3274C42.7168 62.3037 41.7381 62.9346 40.6476 62.9346H30.5768C29.4863 62.9346 28.5076 62.3037 28.0834 61.3274C27.479 59.9365 27.3159 58.1933 27.1582 56.5076C27.0805 55.6774 27.0045 54.8658 26.8796 54.1305C26.8612 54.0224 26.8418 53.9159 26.8212 53.8112C26.7763 53.9079 26.7257 54.0013 26.6698 54.0911C26.2097 54.8303 25.3903 55.3234 24.4578 55.3234C24.3707 55.3234 24.2845 55.3191 24.1995 55.3106C24.1248 55.3032 24.0511 55.2926 23.9783 55.279C24.0022 55.3488 24.0249 55.4202 24.0464 55.4931ZM28.5753 68.4703L28.1747 70.2646H29.0939L30.0502 68.4703H28.5753ZM29.2139 70.4646H27.9251L28.4151 68.2703H30.3834L29.2139 70.4646ZM50.7595 55.4837C50.3174 55.4837 49.9578 55.8436 49.9578 56.2861C49.9578 56.7285 50.3174 57.0885 50.7595 57.0885H66.4703C66.9123 57.0885 67.2719 56.7285 67.2719 56.2861C67.2719 55.8436 66.9123 55.4837 66.4703 55.4837H50.7595Z" fill="#325837"/>
<path d="M22.2367 34.7245C22.0154 34.7245 21.8359 34.9041 21.8359 35.1257C21.8359 35.3472 22.0154 35.5269 22.2367 35.5269H39.6729V35.6585C39.6729 36.3222 40.2123 36.8622 40.8754 36.8622H42.7199L43.1156 39.1604C43.1927 39.6079 43.5779 39.9328 44.0316 39.9328H45.8285C46.2822 39.9328 46.6674 39.6079 46.7445 39.1604L47.1402 36.8622H48.9847C49.6478 36.8622 50.1871 36.3222 50.1871 35.6585V35.5269H67.6489C67.8703 35.5269 68.0497 35.3472 68.0497 35.1257C68.0497 34.9041 67.8703 34.7245 67.6489 34.7245H50.1871V32.5847H67.6489C67.8703 32.5847 68.0497 32.4051 68.0497 32.1835C68.0497 31.9619 67.8703 31.7823 67.6489 31.7823H50.1871V31.6506C50.1871 30.9869 49.6477 30.447 48.9847 30.447H45.3309V27.377C47.2133 28.0133 49.3122 28.2395 51.4571 28.2395C54.41 28.2395 57.4493 27.8106 60.1238 27.4332C63.3955 26.9714 66.2211 26.5726 67.4776 27.1673C67.6777 27.262 67.9167 27.1764 68.0113 26.9761C68.1059 26.7757 68.0204 26.5366 67.8203 26.4418C66.3468 25.7445 63.5512 26.1391 60.0119 26.6386C55.3885 27.2911 49.6568 28.0997 45.3309 26.5266V25.4266C45.3309 25.205 45.1514 25.0254 44.9301 25.0254C44.7087 25.0254 44.5293 25.205 44.5293 25.4266V26.7956C44.5292 26.7975 44.5293 26.7994 44.5293 26.8013V30.447H40.8754C40.2124 30.447 39.673 30.9869 39.673 31.6506V31.7823H22.2368C22.0154 31.7823 21.836 31.9619 21.836 32.1835C21.836 32.4051 22.0154 32.5847 22.2368 32.5847H39.673V34.7244H22.2367V34.7245ZM45.9545 39.0241C45.9439 39.0857 45.8909 39.1304 45.8285 39.1304H44.0316C43.9692 39.1304 43.9162 39.0857 43.9056 39.0241L43.5334 36.8622H46.3268L45.9545 39.0241ZM40.8754 31.2494H48.9847C49.2057 31.2494 49.3855 31.4294 49.3855 31.6506V35.6585C49.3855 35.8798 49.2057 36.0597 48.9847 36.0597H40.8754C40.6544 36.0597 40.4746 35.8798 40.4746 35.6585V35.1294C40.4746 35.1281 40.4746 35.1269 40.4746 35.1257C40.4746 35.1244 40.4746 35.1232 40.4746 35.1219V31.6506C40.4745 31.4294 40.6543 31.2494 40.8754 31.2494V31.2494Z" fill="#325837"/>
<path fill-rule="evenodd" clip-rule="evenodd" d="M44.5291 25.4274C44.5291 25.2058 44.7085 25.0262 44.9299 25.0262C45.1512 25.0262 45.3307 25.2058 45.3307 25.4274V26.5274C49.6566 28.1005 55.3883 27.2919 60.0117 26.6394C63.551 26.1399 66.3466 25.7453 67.8201 26.4426C68.0202 26.5374 68.1057 26.7765 68.0111 26.9768C67.9165 27.1772 67.6775 27.2627 67.4774 27.1681C66.2209 26.5734 63.3953 26.9722 60.1236 27.4339C57.4491 27.8114 54.4098 28.2403 51.4569 28.2403C49.3877 28.2403 47.3612 28.0297 45.5307 27.4436C45.4638 27.4221 45.3971 27.4002 45.3307 27.3777V30.4478H48.9845C49.6475 30.4478 50.1869 30.9877 50.1869 31.6514V31.7831H67.6488C67.8701 31.7831 68.0496 31.9627 68.0496 32.1843C68.0496 32.4059 67.8701 32.5855 67.6488 32.5855H50.1869V34.7252H67.6488C67.8701 34.7252 68.0496 34.9049 68.0496 35.1264C68.0496 35.348 67.8701 35.5276 67.6488 35.5276H50.1869V35.6593C50.1869 36.323 49.6476 36.8629 48.9845 36.8629H47.14L46.7443 39.1612C46.6672 39.6087 46.282 39.9336 45.8283 39.9336H44.0314C43.5777 39.9336 43.1925 39.6087 43.1154 39.1612L42.7197 36.8629H40.8752C40.2121 36.8629 39.6727 36.323 39.6727 35.6593V35.5276H22.2365C22.0152 35.5276 21.8357 35.348 21.8357 35.1264C21.8357 34.9049 22.0152 34.7252 22.2365 34.7252L39.6728 34.7252V32.5855H22.2366C22.0152 32.5855 21.8358 32.4059 21.8358 32.1843C21.8358 31.9627 22.0152 31.7831 22.2366 31.7831H39.6728V31.6514C39.6728 30.9877 40.2122 30.4478 40.8752 30.4478H44.5291V25.4274ZM44.3291 30.2478V26.8021L44.3291 26.8009L44.3291 25.4274C44.3291 25.0955 44.5979 24.8262 44.9299 24.8262C45.2619 24.8262 45.5307 25.0955 45.5307 25.4274V26.3864C47.6296 27.1212 50.0648 27.303 52.5528 27.2181C55.0921 27.1315 57.6704 26.7678 59.9838 26.4413L59.991 26.4403C61.755 26.1914 63.3455 25.9669 64.6794 25.8925C66.0084 25.8184 67.12 25.8901 67.9056 26.2619C68.2056 26.4039 68.3337 26.7622 68.1919 27.0622C68.0502 27.3624 67.692 27.4908 67.3919 27.3488C67.109 27.2149 66.724 27.1313 66.2426 27.0932C65.7631 27.0552 65.2004 27.0632 64.5692 27.1044C63.3059 27.1869 61.7898 27.4008 60.1516 27.632L60.1461 27.6327C57.4753 28.0097 54.4242 28.4403 51.4569 28.4403C49.3984 28.4403 47.3716 28.2333 45.5307 27.6534V30.2478H48.9845C49.7353 30.2478 50.3496 30.8407 50.3853 31.5831H67.6488C67.9808 31.5831 68.2496 31.8525 68.2496 32.1843C68.2496 32.5161 67.9808 32.7855 67.6488 32.7855H50.3869V34.5252H67.6488C67.9808 34.5252 68.2496 34.7946 68.2496 35.1264C68.2496 35.4583 67.9808 35.7276 67.6488 35.7276H50.3853C50.3496 36.47 49.7353 37.0629 48.9845 37.0629H47.3085L46.9414 39.1951C46.8478 39.7385 46.3795 40.1336 45.8283 40.1336H44.0314C43.4802 40.1336 43.0119 39.7385 42.9183 39.1951L42.5512 37.0629H40.8752C40.1244 37.0629 39.5101 36.47 39.4744 35.7276H22.2365C21.9045 35.7276 21.6357 35.4583 21.6357 35.1264C21.6357 34.8647 21.803 34.6418 22.0365 34.5593V34.5252H39.4728V32.7855H22.2366C21.9046 32.7855 21.6358 32.5161 21.6358 32.1843C21.6358 31.8524 21.9046 31.5831 22.2366 31.5831H39.4744C39.5101 30.8407 40.1244 30.2478 40.8752 30.2478H44.3291ZM45.7675 38.9312L46.0892 37.063H43.7705L44.0922 38.9312H45.7675ZM43.5332 36.863H46.3266L45.9543 39.0249C45.9437 39.0865 45.8907 39.1312 45.8283 39.1312H44.0314C43.969 39.1312 43.916 39.0865 43.9054 39.0249L43.5332 36.863ZM48.9845 31.4502H40.8752C40.7648 31.4502 40.6744 31.5404 40.6744 31.6514V35.1218L40.6745 35.1264L40.6744 35.1301V35.6593C40.6744 35.7703 40.7648 35.8605 40.8752 35.8605H48.9845C49.0949 35.8605 49.1853 35.7703 49.1853 35.6593V31.6514C49.1853 31.5405 49.0949 31.4502 48.9845 31.4502ZM40.4744 35.1301V35.6593C40.4744 35.8805 40.6542 36.0605 40.8752 36.0605H48.9845C49.2055 36.0605 49.3853 35.8805 49.3853 35.6593V31.6514C49.3853 31.4302 49.2055 31.2502 48.9845 31.2502H40.8752C40.6542 31.2502 40.4743 31.4302 40.4744 31.6514V35.1227L40.4745 35.1264L40.4744 35.1301Z" fill="#325837"/>
<path d="M32.2489 54.4245C32.5222 54.4245 32.7438 54.2027 32.7438 53.929C32.7438 53.6554 32.5222 53.4336 32.2489 53.4336C31.9755 53.4336 31.7539 53.6554 31.7539 53.929C31.7539 54.2027 31.9755 54.4245 32.2489 54.4245Z" fill="#325837"/>
<path fill-rule="evenodd" clip-rule="evenodd" d="M32.2489 54.2245C32.4116 54.2245 32.5438 54.0924 32.5438 53.929C32.5438 53.7657 32.4116 53.6336 32.2489 53.6336C32.0862 53.6336 31.9539 53.7657 31.9539 53.929C31.9539 54.0924 32.0862 54.2245 32.2489 54.2245ZM32.7438 53.929C32.7438 54.2027 32.5222 54.4245 32.2489 54.4245C31.9755 54.4245 31.7539 54.2027 31.7539 53.929C31.7539 53.6554 31.9755 53.4336 32.2489 53.4336C32.5222 53.4336 32.7438 53.6554 32.7438 53.929Z" fill="#325837"/>
<path d="M38.5204 54.4245C38.7937 54.4245 39.0153 54.2027 39.0153 53.929C39.0153 53.6554 38.7937 53.4336 38.5204 53.4336C38.247 53.4336 38.0254 53.6554 38.0254 53.929C38.0254 54.2027 38.247 54.4245 38.5204 54.4245Z" fill="#325837"/>
<path fill-rule="evenodd" clip-rule="evenodd" d="M38.5204 54.2245C38.6831 54.2245 38.8153 54.0924 38.8153 53.929C38.8153 53.7657 38.6831 53.6336 38.5204 53.6336C38.3576 53.6336 38.2254 53.7657 38.2254 53.929C38.2254 54.0924 38.3576 54.2245 38.5204 54.2245ZM39.0153 53.929C39.0153 54.2027 38.7937 54.4245 38.5204 54.4245C38.247 54.4245 38.0254 54.2027 38.0254 53.929C38.0254 53.6554 38.247 53.4336 38.5204 53.4336C38.7937 53.4336 39.0153 53.6554 39.0153 53.929Z" fill="#325837"/>
</g>
<path d="M45.104 176.6V145.4L47.84 148.232H38V143H51.344V176.6H45.104Z" fill="#D2DDC7"/>
<path d="M45.75 94C45.75 93.5858 45.4142 93.25 45 93.25C44.5858 93.25 44.25 93.5858 44.25 94L45.75 94ZM45 119C42.7909 119 41 120.791 41 123C41 125.209 42.7909 127 45 127C47.2091 127 49 125.209 49 123C49 120.791 47.2091 119 45 119ZM44.25 94L44.25 123L45.75 123L45.75 94L44.25 94Z" fill="#BACC91"/>
<circle opacity="0.4" cx="29" cy="123" r="3" fill="#BACC91"/>
<circle opacity="0.4" cx="61" cy="123" r="3" fill="#BACC91"/>
</svg>
