<svg width="259" height="261" viewBox="0 0 259 261" fill="none" xmlns="http://www.w3.org/2000/svg">
<mask id="mask0_463_2954" style="mask-type:alpha" maskUnits="userSpaceOnUse" x="0" y="0" width="259" height="261">
<rect width="259" height="261" fill="#C4C4C4"/>
</mask>
<g mask="url(#mask0_463_2954)">
<path fill-rule="evenodd" clip-rule="evenodd" d="M135.981 20.4149C161.468 16.4942 189.864 21.1581 209.241 39.2855C228.095 56.9232 227.791 87.046 234.721 112.784C241.353 137.419 254.252 161.309 248.818 186.276C243.163 212.253 226.499 235.07 205.112 248.803C184.681 261.922 159.811 258.289 135.981 258.73C111.648 259.18 86.4373 263.885 65.0891 251.394C42.2075 238.005 22.872 215.644 16.2486 188.672C9.78011 162.33 19.0791 134.791 30.4742 110.434C40.589 88.8131 58.9154 74.7713 76.5892 59.6919C95.2404 43.7786 112.361 24.0484 135.981 20.4149Z" fill="#A6C23E"/>
<path fill-rule="evenodd" clip-rule="evenodd" d="M104.38 20.9455C131.879 13.9832 157.788 29.5249 182.373 43.168C209.06 57.9774 239.665 71.5456 248.992 101.196C258.864 132.579 249.739 181.066 231 208.499C213.093 234.715 182.609 233.676 152.638 242.254C121.162 251.262 86.4385 261.351 58.7867 244.394C30.945 227.32 19.377 192.092 16.503 158.77C13.9749 129.459 28.5592 103.001 44.4429 78.0891C59.9425 53.7798 76.9734 27.8843 104.38 20.9455Z" fill="white"/>
</g>
</svg>
