<svg xmlns="http://www.w3.org/2000/svg" viewBox="0 0 53 54"><title>Гарантия</title><polygon points="34.24 20.58 35.855 20.574 35.855 18.88 34.24 18.874 34.24 20.58" style="fill:#325837"/><polygon points="10.285 34.696 21.308 34.696 21.365 33.057 10.228 33.057 10.285 34.696" style="fill:#325837"/><rect x="15.43018" y="37.3418" width="5.92773" height="1.58789" style="fill:#325837"/><path d="M47.292,29.90332c-.25488.23438-2.51855,2.50488-5.6875,5.72168l-5.69824,5.78223-.03516-.03614-2.77636-2.81152L31.97656,39.707l3.92969,3.9834,12.499-12.68457-.53222-.5459A7.4066,7.4066,0,0,0,47.292,29.90332Z" style="fill:#325837"/><polygon points="34.24 15.488 35.855 15.431 35.855 13.789 34.24 13.782 34.24 15.488" style="fill:#325837"/><path d="M43.84961,51.8291c4.31543-2.50195,4.87207-2.87695,5.96094-4.01562a10.77012,10.77012,0,0,0,2.55175-4.13575c.57715-1.63085.5879-1.81835.5879-10.0498V26.09619H50.93555a12.53332,12.53332,0,0,1-4.55078-.564,11.07579,11.07579,0,0,1-5.61914-4.4375c-.27735-.41895-.4795-.69629-.55079-.77784-.08105.08985-.333.41944-.68554.92676A10.79027,10.79027,0,0,1,33.165,25.80078a13.06551,13.06551,0,0,1-3.3125.2666l-2.47168.04981.001,7.085c0,4.53418.042,7.47754.11425,8.07617a11.40894,11.40894,0,0,0,3.082,6.55859l.79.82618H13.55762l.05859-3.52735h.04932L24.78809,45.082l-.05274-15.45312L6.90869,29.5752v6.96093H1.61182l.00048-.0498L1.665,1.68994H39.38379v.04981l.05371,15.60986H40.999V.0498H.0498V37.78613L12.44385,50.35645H34.02246l.01172.00683,6.17187,3.5791ZM12.001,47.52148l-.08545-.08691-4.46875-4.5332c-1.34815-1.36719-4.48291-4.55762-4.48291-4.64844,0-.06445,0-.082,1.36133-.10645.84423-.01464,1.96533-.02246,3.15722-.02246H12.001ZM8.47168,36.53613v-5.2666H23.12061V43.49805h-.0503l-9.45459-.05469v-.04981L13.561,36.53613Zm28.26074,13.502c-3.8164-2.21485-3.90722-2.27539-4.84863-3.21094a9.53479,9.53479,0,0,1-2.49316-4.17871l-.28711-.94239L29.04,27.82471l.04785-.002,1.43262-.06689a13.4129,13.4129,0,0,0,4.13281-.70947,12.574,12.574,0,0,0,4.87109-3.18555l.6377-.71045.03711.03662.99609.96973a15.44274,15.44274,0,0,0,1.708,1.44629,12.36948,12.36948,0,0,0,6.94727,2.15039l1.54785.07129v.04834l-.03614,6.81054c-.03417,6.626-.041,6.83985-.26367,7.64649a10.31288,10.31288,0,0,1-2.748,4.6748c-.85938.80762-1.03907.92383-4.8125,3.11621L40.209,52.05566l-.02539-.01464Z" style="fill:#325837"/><path d="M5.14209,10.209H35.90723V5.1416H5.14209Zm1.667-3.47949H34.24023V8.62158H6.80908Z" style="fill:#325837"/><polygon points="5.142 13.789 5.142 15.482 32.484 15.482 32.484 13.841 5.142 13.789" style="fill:#325837"/><rect x="23.1206" y="23.41602" width="1.61475" height="1.70313" transform="translate(-0.0879 0.08699) rotate(-0.20791)" style="fill:#325837"/><polygon points="5.142 25.116 21.306 25.063 21.306 23.475 5.142 23.422 5.142 25.116" style="fill:#325837"/><polygon points="5.142 18.88 5.142 20.574 32.484 20.574 32.484 18.933 5.142 18.88" style="fill:#325837"/></svg>