<?xml version="1.0" encoding="utf-8"?>
<!-- Generator: Adobe Illustrator 22.1.0, SVG Export Plug-In . SVG Version: 6.00 Build 0)  -->
<svg version="1.1" id="Слой_1" xmlns="http://www.w3.org/2000/svg" xmlns:xlink="http://www.w3.org/1999/xlink" x="0px" y="0px"
	 viewBox="0 0 53 54" style="enable-background:new 0 0 53 54;" xml:space="preserve">
<style type="text/css">
	.st0{fill:#325837;}
</style>
<g>
	<rect x="12.4" y="41" class="st0" width="5.6" height="2"/>
	<rect x="12.4" y="31" class="st0" width="5.6" height="2"/>
	<rect x="31.3" y="27" class="st0" width="9.4" height="2"/>
	<path class="st0" d="M6,24.8l-1.2,0.5V51H1v2h51v-2h-3.8V23.4L36,16.9l-10.5,5.5v-5.9l-0.6,0.2c-0.3,0.1-0.5,0.2-0.9,0.3
		c-0.3,0.1-0.7,0.2-1.3,0.4l-1.1,0.4l-0.2-1.5c-0.2-1.2-0.5-3.6-0.9-7.4c-0.4-4-0.8-7.2-0.9-8h-9.2c-0.1,1.1-0.5,5.3-0.9,10.7
		C9.2,16.6,8.7,22.5,8.5,23C8.3,23.6,6.9,24.4,6,24.8z M38.9,51h-5.8V37h5.8V51z M25.5,24.7l5.2-2.8c4.8-2.5,4.8-2.6,5-2.6
		c0.4-0.1,0.4-0.1,5.5,2.6v0l5.3,2.8V51h-5.8V35h-9.4v16h-5.8V24.7z M11.9,6.6C12,5.8,12,5,12,4.7L12,3h3.1c2,0,3.1,0,3.1,1.5
		c0,0.3,0.1,1.1,0.2,1.9L18.8,9h-7.2L11.9,6.6z M11,16.5l0.5-5.5l7.5,0.2l0.4,3.4c0,0.4,0.1,0.7,0.1,1c0.4,3.1,0.1,3.6-2.9,4.8
		c-0.3,0.1-0.6,0.3-1,0.4c-2.6,1.1-3.5,1.5-4,1.5c-0.3,0-0.4-0.1-0.6-0.3C10.6,21.5,10.6,21.5,11,16.5z M14.6,23.3
		c7.5-3.2,7.7-3.2,7.8-3.2l0.4-0.1l0.3,0.3c0.4,0.4,0.5,0.5,0.5,15.2V51H6.6V26.7L14.6,23.3z"/>
</g>
</svg>
