<svg xmlns="http://www.w3.org/2000/svg" viewBox="0 0 53 54"><title>Мебель</title><path d="M52.669,29.33105c.02246-.12792.043-1.085.02343-2.35253l-.03027-1.96045-.40332-.41016-20.11914-.10645-.02539-12.00585c-.01465-7.23536-.042-11.49415-.13281-11.853L31.95215.585c-.27637-.29-3.0752-.2876-13.49268-.28369l-2.26074.001C7.53564.30664,1.30908.34912.70752.3877a1.25125,1.25125,0,0,0-.2749.22753C.2998.93359.2998,4.91406.2998,27.00684V53.24023l.40088.40723,14.54.02832c11.77686.02344,14.55616.01465,14.84424-.10644.33789-.17774.44824-.39649.44824-2.30762V49.27051H44.08691v1.99121c0,1.26172,0,1.93262.27344,2.17969.28711.25879,1.04785.26562,2.40528.25879H46.874c2.623-.001,2.623-.001,2.624-2.46387l.001-1.96582h.667a.91447.91447,0,0,0,.79589-.38281c.07618-.29786.10352-3.79786.11817-9.33887l.02637-9.50977.76269-.0498A.803.803,0,0,0,52.669,29.33105ZM15.37939,52.085H1.82471v-9.9873H15.37939Zm0-11.60254H1.82471V1.91113H15.37939ZM25.12109,52.085h-8.165V1.91113H30.61621l-.05469,22.58838-4.54443.05615c-2.57031.03174-4.18115.09717-4.356.13233-.20605.10889-.271.438-.271,2.666v2.14209l.22851.23145c.20948.21387.23145.23633.86133.26269l1.03467.042.0249,9.5166c.01563,5.68555.042,9.041.13135,9.36914a.9315.9315,0,0,0,.78271.35254h.66748Zm3.835,0H26.69824V49.27051h2.25781Zm18.96583,0H45.66406V49.27051h2.25782Zm1.55468-4.42969h-24.333v-8.2998h24.333Zm0-9.915h-24.333V29.96777h24.333Zm1.65821-9.38769H22.96729V26.1709H51.13477Z" style="fill:#325837"/><rect x="36.00293" y="42.16992" width="2.61328" height="1.61621" style="fill:#325837"/><rect x="19.73193" y="17.91064" width="1.57715" height="3.83008" style="fill:#325837"/><rect x="7.29541" y="46.07324" width="2.61328" height="1.61523" style="fill:#325837"/><path d="M12.603,21.73975V17.91064h-.73975a6.53772,6.53772,0,0,0-.80713.03223c-.0122.29151-.01953,1.00293-.00586,1.98731l.02393,1.76611Z" style="fill:#325837"/><rect x="36.00293" y="32.7832" width="2.61328" height="1.61523" style="fill:#325837"/></svg>