<svg width="259" height="261" viewBox="0 0 259 261" fill="none" xmlns="http://www.w3.org/2000/svg">
<mask id="mask0_463_2990" style="mask-type:alpha" maskUnits="userSpaceOnUse" x="0" y="0" width="259" height="261">
<rect width="259" height="261" fill="#C4C4C4"/>
</mask>
<g mask="url(#mask0_463_2990)">
<path fill-rule="evenodd" clip-rule="evenodd" d="M122.86 17.6356C148.347 13.7149 176.743 18.3788 196.12 36.5062C214.974 54.1439 214.67 84.2667 221.6 110.005C228.232 134.639 241.131 158.53 235.697 183.497C230.042 209.474 213.378 232.291 191.991 246.024C171.559 259.143 146.69 255.509 122.86 255.95C98.527 256.401 73.3162 261.106 51.968 248.614C29.0864 235.226 9.75092 212.864 3.12754 185.892C-3.34098 159.551 5.95798 132.012 17.3531 107.654C27.4679 86.0338 45.7943 71.992 63.4681 56.9126C82.1193 40.9993 99.2402 21.2691 122.86 17.6356Z" fill="#A6C23E"/>
<path fill-rule="evenodd" clip-rule="evenodd" d="M150.057 28.6205C178.383 33.2389 196.808 57.9558 214.705 80.3921C234.132 104.746 257.689 129.53 255.329 160.594C252.832 193.474 238.784 222.24 211 240C184.449 256.972 143.71 256.035 112.469 251.914C79.6577 247.586 43.4057 242.95 23.8789 216.229C4.21786 189.325 6.56595 152.221 16.334 120.362C24.9263 92.3385 48.4591 73.8101 72.6294 57.2277C96.2153 41.0464 121.826 24.0178 150.057 28.6205Z" fill="white"/>
</g>
</svg>
