<svg width="259" height="261" viewBox="0 0 259 261" fill="none" xmlns="http://www.w3.org/2000/svg">
<mask id="mask0_463_2981" style="mask-type:alpha" maskUnits="userSpaceOnUse" x="0" y="0" width="259" height="261">
<rect width="259" height="261" fill="#C4C4C4"/>
</mask>
<g mask="url(#mask0_463_2981)">
<path fill-rule="evenodd" clip-rule="evenodd" d="M125.715 12.1161C151.202 8.19537 179.598 12.8592 198.976 30.9867C217.83 48.6244 217.525 78.7472 224.455 104.486C231.088 129.12 243.987 153.01 238.552 177.978C232.897 203.955 216.234 226.771 194.847 240.504C174.415 253.623 149.546 249.99 125.715 250.431C101.382 250.881 76.1717 255.586 54.8235 243.095C31.9419 229.706 12.6064 207.345 5.98301 180.373C-0.485511 154.032 8.81345 126.492 20.2086 102.135C30.3234 80.5143 48.6497 66.4725 66.3236 51.3931C84.9748 35.4798 102.096 15.7496 125.715 12.1161Z" fill="#A6C23E"/>
<path fill-rule="evenodd" clip-rule="evenodd" d="M156.359 18.9943C183.601 26.6197 199.521 53.3078 215.114 77.6577C232.04 104.089 252.959 131.388 248.081 162.223C242.918 194.861 218.65 221.072 190.081 235.898C162.779 250.066 131.305 245.895 101.178 238.458C69.5376 230.647 34.5668 222.163 17.7394 193.353C0.796402 164.345 6.16422 127.464 18.3334 96.6194C29.0379 69.487 53.5256 53.4412 78.4737 39.4105C102.818 25.7191 129.209 11.3946 156.359 18.9943Z" fill="white"/>
</g>
</svg>
