<svg width="259" height="261" viewBox="0 0 259 261" fill="none" xmlns="http://www.w3.org/2000/svg">
<mask id="mask0_463_2972" style="mask-type:alpha" maskUnits="userSpaceOnUse" x="0" y="0" width="259" height="261">
<rect width="259" height="261" fill="#C4C4C4"/>
</mask>
<g mask="url(#mask0_463_2972)">
<path fill-rule="evenodd" clip-rule="evenodd" d="M128.39 10.5086C153.769 6.58795 182.045 11.2518 201.34 29.3792C220.115 47.017 219.811 77.1398 226.712 102.878C233.316 127.512 246.161 151.403 240.749 176.37C235.118 202.347 218.525 225.164 197.229 238.897C176.884 252.016 152.12 248.383 128.39 248.823C104.161 249.274 79.0567 253.979 57.7989 241.487C35.0143 228.099 15.7607 205.737 9.1654 178.765C2.72429 152.424 11.9838 124.885 23.3307 100.528C33.4026 78.9069 51.6513 64.8651 69.2503 49.7856C87.8225 33.8724 104.871 14.1422 128.39 10.5086Z" fill="#A6C23E"/>
<path fill-rule="evenodd" clip-rule="evenodd" d="M101.435 21.242C128.7 13.3029 155.082 27.912 180.082 40.6707C207.219 54.52 238.233 66.9892 248.486 96.29C259.337 127.304 250.561 162.95 232.695 191.036C215.621 217.875 186.3 231.064 156.616 240.705C125.44 250.831 91.0526 262.153 62.8839 246.191C34.5216 230.12 21.8538 195.324 17.935 162.123C14.4879 132.918 28.2332 105.955 43.3257 80.4911C58.0533 55.6427 74.2614 29.1543 101.435 21.242Z" fill="white"/>
</g>
</svg>
