<svg width="259" height="261" viewBox="0 0 259 261" fill="none" xmlns="http://www.w3.org/2000/svg">
<mask id="mask0_463_2963" style="mask-type:alpha" maskUnits="userSpaceOnUse" x="0" y="0" width="259" height="261">
<rect width="259" height="261" fill="#C4C4C4"/>
</mask>
<g mask="url(#mask0_463_2963)">
<path fill-rule="evenodd" clip-rule="evenodd" d="M128.903 19.5438C154.39 15.6231 182.786 20.287 202.163 38.4144C221.017 56.0521 220.713 86.1749 227.643 111.913C234.275 136.548 247.174 160.438 241.739 185.405C236.085 211.382 219.421 234.199 198.034 247.932C177.602 261.051 152.733 257.418 128.903 257.859C104.57 258.309 79.3592 263.014 58.011 250.523C35.1294 237.134 15.7939 214.772 9.17051 187.801C2.70199 161.459 12.001 133.92 23.3961 109.563C33.5109 87.942 51.8372 73.9002 69.5111 58.8208C88.1623 42.9075 105.283 23.1773 128.903 19.5438Z" fill="#A6C23E"/>
<path fill-rule="evenodd" clip-rule="evenodd" d="M182.318 30.8074C206.78 45.687 215.675 75.8565 224.823 103.678C234.753 133.877 248.329 166.015 236.128 194.454C223.214 224.556 193.408 243.181 162.212 249.621C132.399 255.776 103.01 243.066 75.7164 227.573C47.0511 211.301 15.3323 193.461 6.07535 160.991C-3.24519 128.298 10.8968 94.1552 30.1426 67.7177C47.0719 44.4623 74.6223 35.7174 102.128 29.0459C128.968 22.5357 157.938 15.9782 182.318 30.8074Z" fill="white"/>
</g>
</svg>
