<svg xmlns="http://www.w3.org/2000/svg" viewBox="0 0 53 54"><title>быстрое</title><path d="M28.92383,19.34717a.81279.81279,0,0,0-.52051-.395.9798.9798,0,0,0-.26172-.03565.84386.84386,0,0,0-.45019.123h-.001c-.40039.25293-.43359.27344-.43359,4.3999,0,3.63623.00586,3.749.17871,4.01026.30078.45556.30664.46386,3.418.46582,2.85058.002,2.86816-.0083,3.11523-.17823a.88852.88852,0,0,0,0-1.47314c-.2373-.1626-.26172-.17969-2.36426-.17969H29.043V22.61621A16.593,16.593,0,0,0,28.92383,19.34717Z" style="fill:#325837"/><path d="M20.36035,19.33057H14.62549l-.21973.188a.87828.87828,0,0,0-.29931.86426.92072.92072,0,0,0,.66845.6875,39.9633,39.9633,0,0,0,5.42871-.00342.88833.88833,0,0,0,.65772-.8916.61179.61179,0,0,0-.25195-.59082Z" style="fill:#325837"/><path d="M11.11328,27.86865l2.82764.07227.10351.939a16.95066,16.95066,0,0,0,.96485,3.64356,14.57278,14.57278,0,0,0,7.7124,7.8789A13.9941,13.9941,0,0,0,38.19824,37.25a14.52121,14.52121,0,0,0,3.919-7.39941,17.28358,17.28358,0,0,0,0-5.69971,14.48017,14.48017,0,0,0-11.126-11.3916c-.94824-.21875-1.1416-.22364-10.35058-.25782-7.84424-.02978-9.32813-.03076-9.54639.10694-.36524.231-.43067.34668-.479.65185a.98176.98176,0,0,0,.4126.91358c.20557.124,2.30371.12988,8.90528.12988,5.8457.00049,9.12939.04053,9.76123.11963a12.5482,12.5482,0,0,1,10.56054,9.62451,12.67641,12.67641,0,0,1-.959,8.54,12.34879,12.34879,0,0,1-7.5586,6.54688A12.20007,12.20007,0,0,1,21.9209,37.958a12.82223,12.82223,0,0,1-6.08447-9.1416l-.12549-.89893h1.4082c1.19141,0,1.38379-.17822,1.5415-.45019a.92376.92376,0,0,0,.08252-.731.861.861,0,0,0-.44775-.53076,17.84012,17.84012,0,0,0-3.75684-.09864l-3.42773.02881-.23682.2417c-.21826.22266-.23828.25342-.23828.62354,0,.36963.02.40088.23828.624Z" style="fill:#325837"/><path d="M14.73,3.20508a25.78983,25.78983,0,0,0-6.32227,4.5918A25.71843,25.71843,0,0,0,3.0376,15.28027,25.88649,25.88649,0,0,0,.36719,26.11621,26.43864,26.43864,0,0,0,3.04785,38.76074a24.82038,24.82038,0,0,0,4.99658,7.04883,24.08646,24.08646,0,0,0,6.95411,5.09961,22.57506,22.57506,0,0,0,5.10888,1.92676,23.86667,23.86667,0,0,0,5.56934.79883,25.60814,25.60814,0,0,0,16.501-5.32422,34.59246,34.59246,0,0,0,4.87207-4.84668,26.88934,26.88934,0,0,0,4.78711-23.03174A28.59327,28.59327,0,0,0,48.71,12.939a28.45178,28.45178,0,0,0-8.751-8.78369A25.80425,25.80425,0,0,0,26.58643.3501q-.148,0-.2959.00195c-.82862.00977-1.564.03418-1.731.05029A25.56,25.56,0,0,0,14.73,3.20508Zm14.03174-.92334A24.25732,24.25732,0,0,1,46.4209,12.73828a25.47038,25.47038,0,0,1,4.33691,16.57227,24.81053,24.81053,0,0,1-6.74414,14.88476,23.16882,23.16882,0,0,1-5.64453,4.46387,23.80063,23.80063,0,0,1-23.5415.11621,21.93787,21.93787,0,0,1-5.52442-4.26758,23.45233,23.45233,0,0,1-5.22656-7.78613,25.38611,25.38611,0,0,1,.041-19.53662,23.99544,23.99544,0,0,1,5.4414-7.97754,23.74,23.74,0,0,1,12.20508-6.5459A23.40022,23.40022,0,0,1,28.76172,2.28174Z" style="fill:#325837"/></svg>