<svg xmlns="http://www.w3.org/2000/svg" viewBox="0 0 53 54"><title>корзина процент</title><path d="M31.62305,2.71631a2.80618,2.80618,0,0,0-.3252,1.76514,2.91611,2.91611,0,0,0,.30274,1.7456,4.07259,4.07259,0,0,0,1.95214,2.02637,2.6939,2.6939,0,0,0,1.794.36181,2.65343,2.65343,0,0,0,1.7373-.33056,4.19173,4.19173,0,0,0,1.19727-6.65674A4.0128,4.0128,0,0,0,35.32422.311a4.10141,4.10141,0,0,0-1.084.14746A4.17508,4.17508,0,0,0,31.62305,2.71631Zm1.501.647a2.4888,2.4888,0,0,1,1.61036-1.33642,1.89014,1.89014,0,0,1,1.2373.022A2.731,2.731,0,0,1,37.75684,3.898,2.493,2.493,0,0,1,36.457,6.74268,2.58456,2.58456,0,0,1,35.28516,7.04a2.36711,2.36711,0,0,1-1.70508-.76123A2.43645,2.43645,0,0,1,33.124,3.36328Z" style="fill:#325837"/><path d="M48.24512,41.459a.73005.73005,0,0,0-.376-.54687c-.4043-.08008-7.33691-.09863-19.16113-.09863l-4.15576.001c-15.686.00293-15.69043.00293-15.88428-.78027a.79489.79489,0,0,0-.03223-.1084,1.413,1.413,0,0,1,.43555-1.64941c.34814-.27832.34814-.27832,17.28809-.27832h2.48535c13.001.002,14.6709.001,14.832-.30078l.05176-.09278c.22363-.541,2.21289-10.76269,2.20507-11.3706a.75468.75468,0,0,0-.65527-.56494.73332.73332,0,0,0-.79492.36132c-.05957.17481-.502,2.25782-1.04785,5.0459l-1.00977,5.14746-27.42627.05469L12.99268,26.03857C11.813,20.019,11.03564,16.105,10.99219,15.93066l-.03321-.13378.07959-.12647c.16114-.22705.17774-.25049,11.04737-.25049H32.80957l.27832-.28271c.2627-.26709.2627-.26709.22363-.55762a.97371.97371,0,0,0-.24218-.53809l-.18164-.185-22.3335-.106-.54346-2.77344A12.88273,12.88273,0,0,0,9.1626,7.7373,5.30186,5.30186,0,0,0,5.83984,4.98779,28.48458,28.48458,0,0,0,.64307,4.93262a.69169.69169,0,0,0-.33155.5249A.88745.88745,0,0,0,.543,6.228c.16748.16064.18115.17383,2.46582.22656,2.25879.05176,2.48437.06445,3.04687.34521A3.78237,3.78237,0,0,1,7.772,8.585c.15967.36914,1.11621,5.04443,2.84278,13.89649,2.60107,13.33593,2.60107,13.40234,2.60107,13.43066,0,.33691-.13818.36426-1.84912.36426-2.31348,0-2.88379.23242-3.64209,1.03222a2.73628,2.73628,0,0,0-.77686,2.09864,2.33555,2.33555,0,0,0,.25733,1.31054A3.3468,3.3468,0,0,0,8.625,42.1709l.37793.206,38.8252.05469.21582-.21973A.86286.86286,0,0,0,48.24512,41.459Z" style="fill:#325837"/><path d="M18.375,53.63672a4.11661,4.11661,0,0,0,2.98291-2.333,2.83113,2.83113,0,0,0,.3252-1.76953,2.90742,2.90742,0,0,0-.30225-1.74219,4.1271,4.1271,0,0,0-1.94678-2.02441,2.80675,2.80675,0,0,0-1.64551-.38965,3.21671,3.21671,0,0,0-1.44775.16309,4.20081,4.20081,0,0,0-1.51172,6.98242A4.03208,4.03208,0,0,0,18.375,53.63672Zm-3.19922-4.56055a2.4621,2.4621,0,0,1,1.34815-1.80078,2.286,2.286,0,0,1,1.90771-.167,2.67834,2.67834,0,0,1,1.72656,2.49707,2.91723,2.91723,0,0,1-1.07129,1.98828,2.57571,2.57571,0,0,1-1.43945.47363,2.42163,2.42163,0,0,1-1.73828-.78808A2.541,2.541,0,0,1,15.17578,49.07617Z" style="fill:#325837"/><path d="M38.26953,53.6377a4.12166,4.12166,0,0,0,2.98438-2.334,2.83567,2.83567,0,0,0,.32422-1.76953,2.90493,2.90493,0,0,0-.30176-1.74219,4.12014,4.12014,0,0,0-1.94727-2.02344,2.79974,2.79974,0,0,0-1.64551-.39062,3.14633,3.14633,0,0,0-1.44726.16309V45.54a4.20171,4.20171,0,0,0-1.51172,6.9834A4.05585,4.05585,0,0,0,38.26953,53.6377Zm-3.19824-4.56153A2.46264,2.46264,0,0,1,36.419,47.27539a2.27709,2.27709,0,0,1,1.9082-.167,2.678,2.678,0,0,1,1.72656,2.49707,2.92,2.92,0,0,1-1.07031,1.98828,2.57867,2.57867,0,0,1-1.44043.47363,2.42163,2.42163,0,0,1-1.73828-.78808A2.54239,2.54239,0,0,1,35.07129,49.07617Z" style="fill:#325837"/><path d="M49.69141.2998a.99753.99753,0,0,0-.40528.17041C48.98828.7749,45.71,4.98,41.23926,10.83789c-3.749,4.91211-7.60645,9.99414-7.792,10.44531a.74705.74705,0,0,0,.28222.7002.89159.89159,0,0,0,.834.16211C35.48438,21.103,50.0459,2.05371,50.40137,1.42139a.51376.51376,0,0,0,.0498-.54248A.90726.90726,0,0,0,49.69141.2998Z" style="fill:#325837"/><path d="M52.63281,18.77246a4.21338,4.21338,0,0,0-1.08789-3.64014,4.01437,4.01437,0,0,0-2.957-1.31689,4.09586,4.09586,0,0,0-1.084.14746,4.17653,4.17653,0,0,0-2.61719,2.25781,2.80781,2.80781,0,0,0-.3252,1.76563,2.91611,2.91611,0,0,0,.30274,1.7456,4.07674,4.07674,0,0,0,1.95215,2.02637,2.67376,2.67376,0,0,0,1.79394.36133,2.64927,2.64927,0,0,0,1.73633-.33008A4.19558,4.19558,0,0,0,52.63281,18.77246Zm-2.91211,1.4751a2.5844,2.5844,0,0,1-1.17187.29736,2.36708,2.36708,0,0,1-1.70508-.76123,2.43846,2.43846,0,0,1-.456-2.916,2.48612,2.48612,0,0,1,1.61035-1.33594,1.8806,1.8806,0,0,1,1.2373.02148h.001a2.7324,2.7324,0,0,1,1.78418,1.84961A2.493,2.493,0,0,1,49.7207,20.24756Z" style="fill:#325837"/></svg>