<svg width="532" height="419" viewBox="0 0 532 419" fill="none" xmlns="http://www.w3.org/2000/svg">
<path fill-rule="evenodd" clip-rule="evenodd" d="M247.526 75.5556L253.052 81.1111H378.5H503.948L509.474 75.5556L515 70H378.5H242L247.526 75.5556ZM253.432 203.333V320H261.77H270.108V311.667V303.333H320.135H370.162V311.667V320H378.5H386.838V311.667V303.333H436.865H486.892V311.667V320H495.23H503.568V203.333V86.6667H378.5H253.432V203.333ZM481.334 125.556V147.778H378.5H275.666V125.556V103.333H378.5H481.334V125.556ZM281.225 125.556V142.222H378.5H475.775V125.556V108.889H378.5H281.225V125.556ZM378.604 118.667C379.376 119.08 380.465 120.512 381.025 121.851C382.964 126.491 379.888 131.111 374.858 131.111C368.595 131.111 366.052 123.085 371.066 119.147C372.799 117.787 376.516 117.55 378.604 118.667ZM370.162 225.556V286.667H322.914H275.666V225.556V164.444H322.914H370.162V225.556ZM481.334 225.556V286.667H434.086H386.838V225.556V164.444H434.086H481.334V225.556ZM281.225 225.556V281.111H322.914H364.604V225.556V170H322.914H281.225V225.556ZM392.396 225.556V281.111H434.086H475.775V225.556V170H434.086H392.396V225.556ZM351.044 224.571C353.554 226.215 354.493 229.715 353.232 232.732C352.047 235.565 350.327 236.667 347.086 236.667C344.061 236.667 341.968 235.144 341.012 232.251C339.01 226.19 345.698 221.07 351.044 224.571ZM412.188 224.571C414.699 226.215 415.638 229.715 414.376 232.732C413.209 235.524 411.473 236.667 408.399 236.667C403.52 236.667 400.465 231.982 402.372 227.422C402.929 226.092 403.96 224.668 404.664 224.259C406.553 223.162 410.272 223.316 412.188 224.571Z" fill="#F6F6F6"/>
<g filter="url(#filter0_d_469_2920)">
<path fill-rule="evenodd" clip-rule="evenodd" d="M186.769 35.1407C191.151 35.2586 208.734 35.866 225.843 36.4901C242.952 37.1141 264.974 37.8113 274.781 38.0389C323.037 39.1599 330.096 39.6919 334.602 42.5445C336.139 43.5179 337.888 44.9084 338.488 45.6337C339.447 46.7921 339.421 47.041 338.278 47.6826C334.69 49.6972 329.769 57.0637 326.155 65.8322C325.033 68.5531 318.974 87.0474 312.689 106.931C293.873 166.461 293.089 168.747 290.827 170.666C288.227 172.873 280.284 175.712 261.503 181.147C244.735 185.999 238.866 188.282 237.744 190.39C236.853 192.061 234.872 204.772 233.848 215.385C232.977 224.413 232.453 243.549 231.894 286.771C231.668 304.265 231.285 319.566 231.045 320.772C230.66 322.703 229.734 323.342 223.294 326.12C213.15 330.496 212.652 331.045 213.459 336.984C216.029 355.892 217.248 361.193 222.069 374.42C224.771 381.831 226.981 388.354 226.981 388.916C226.981 389.879 224.696 390.852 219.965 391.903C218.526 392.222 216.691 391.761 214.037 390.411C210.609 388.669 209.944 387.904 207.9 383.358C200.96 367.915 199.176 361.334 196.17 340.079L195.83 337.673L189.592 337.263C186.162 337.038 176.688 336.498 168.539 336.062C127.469 333.869 97.8755 328.659 66.3788 318.077C57.1255 314.967 49.2485 312.424 48.8752 312.424C48.5027 312.424 47.7986 315.421 47.3115 319.083C46.0854 328.305 44.794 332.87 40.0331 344.819C35.5437 356.086 34.6158 357.49 30.1401 359.781C27.4952 361.135 26.7092 361.211 23.3117 360.442C16.7632 358.96 16.814 359.844 22.3898 344.284C25.1448 336.598 27.7449 328.706 28.1682 326.748C29.0506 322.666 31.232 308.424 31.232 306.744C31.232 306.101 28.8321 304.446 25.6349 302.882C19.0158 299.644 16.1843 296.924 15.2571 292.911C14.8838 291.295 14.0333 282.266 13.3679 272.847C12.7026 263.429 11.6745 253.668 11.0842 251.156C10.4931 248.645 10.0053 245.544 9.99923 244.266C9.98557 241.512 13.7716 235.989 16.7093 234.476C19.6714 232.951 29.6113 230.287 39.9473 228.248C45.206 227.21 47.1863 226.632 44.6279 226.88C40.5862 227.271 40.2288 227.186 40.587 225.914C41.7835 221.662 41.8601 204.74 40.7288 194.456C40.0612 188.386 39.2046 180.557 38.826 177.059C38.0118 169.544 38.8032 164.199 40.9921 162.421C42.8017 160.951 43.6142 160.822 86.2557 155.232C104.19 152.881 119.888 151.128 121.14 151.336C130.047 152.814 137.336 155.661 140.247 158.801C143.763 162.593 145.447 170.844 147.182 192.775C148.456 208.899 148.455 208.982 146.941 209.314C146.104 209.498 131.25 212.049 113.932 214.984C54.1528 225.115 49.4639 225.936 49.7523 226.226C49.9116 226.385 57.674 225.301 67.0025 223.814C88.9492 220.319 118.135 216.086 128.727 214.864C140.644 213.489 196.83 213.514 206.588 214.9C210.604 215.47 214.282 216.18 214.763 216.478C215.415 216.882 215.45 220.393 214.899 230.283C214.493 237.577 214.413 244.744 214.721 246.207C215.14 248.192 215.995 243.064 218.085 226.038C221.083 201.608 222.7 193.844 226.267 186.756C228.654 182.013 228.408 181.314 225.235 183.818C222.574 185.918 220.6 191.61 218.204 204.089C217.093 209.884 216.108 214.71 216.017 214.815C215.926 214.921 213.32 214.358 210.225 213.564C207.131 212.77 202.38 211.903 199.667 211.636C194.996 211.177 156.332 208.931 152.921 208.921C151.386 208.916 151.3 208.457 150.87 198.071C150.623 192.105 150.066 181.605 149.632 174.737C148.903 163.199 148.679 161.953 146.688 158.373C143.94 153.434 138.899 149.914 132.87 148.723C127.996 147.762 128.195 148.12 129.528 142.702C130.581 138.428 131.582 125.038 132.116 108.072C132.664 90.6786 134.259 70.9162 136.646 51.9781C137.774 43.0285 140.239 39.0169 146.206 36.4223C148.679 35.3469 151.842 35.098 164.008 35.0196C172.145 34.9679 182.388 35.0219 186.769 35.1407ZM340.789 50.8776C340.789 51.8678 338.486 57.5759 335.065 65.0711C330.307 75.4903 325.43 89.7516 320.752 106.931C318.871 113.838 313.073 132.674 307.868 148.79C302.663 164.906 297.522 181.175 296.445 184.942C292.89 197.374 292.441 200.795 287.654 251.918C284.85 281.865 283.221 290.847 279.906 294.634L277.595 297.274L278.509 303.897C280.211 316.238 282.221 323.507 287.233 335.45C289.982 342.001 292.231 347.508 292.231 347.687C292.231 348.193 285.724 349.717 283.57 349.717C282.513 349.717 280.086 348.955 278.174 348.024C274.9 346.428 274.442 345.8 270.261 337.178C265.099 326.534 263.948 323.307 262.214 314.62C261.513 311.11 260.839 308.124 260.716 307.985C260.523 307.765 242.376 317.356 235.566 321.278C234.237 322.044 232.974 322.494 232.76 322.28C232.546 322.065 232.676 319.503 233.05 316.585C233.424 313.669 234.099 298.781 234.551 283.503C235.766 242.419 238.823 196.336 240.545 193.108C242.046 190.294 244.386 189.194 254.543 186.527C277.538 180.488 293.035 174.486 294.833 170.925C295.378 169.844 298.456 160.568 301.673 150.313C323.627 80.3202 335.057 50.6105 340.03 50.6105C340.448 50.6105 340.789 50.7307 340.789 50.8776ZM27.8177 267.973C70.5343 289.236 112.334 299.082 171.216 301.751C180.813 302.186 191.429 302.737 194.806 302.975L200.947 303.407L201.919 315.717C204.022 342.35 204.24 336.506 202.988 287.061C202.62 272.543 202.318 268.846 201.468 268.519C199.802 267.877 198.268 269.669 198.548 271.929C198.689 273.062 199.012 278.27 199.265 283.503C199.519 288.735 199.931 294.179 200.181 295.601L200.636 298.185L192.375 297.653C168.156 296.093 118.538 289.261 89.6533 283.508C67.4623 279.088 31.2266 268.671 20.9892 263.769C19.3201 262.969 17.613 262.314 17.1957 262.312C16.7784 262.31 21.5583 264.857 27.8177 267.973Z" fill="#F6F6F6"/>
<path d="M27.8177 267.973C70.5343 289.236 112.334 299.082 171.216 301.751C180.813 302.186 191.429 302.737 194.806 302.975L200.947 303.407L201.919 315.717C204.022 342.35 204.24 336.506 202.988 287.061C202.62 272.543 202.318 268.846 201.468 268.519C199.802 267.877 198.268 269.669 198.548 271.929C198.689 273.062 199.012 278.27 199.265 283.503C199.519 288.735 199.931 294.179 200.181 295.601L200.636 298.185L192.375 297.653C168.156 296.093 118.538 289.261 89.6533 283.508C67.4623 279.088 31.2266 268.671 20.9892 263.769C19.3201 262.969 17.613 262.314 17.1957 262.312C16.7784 262.31 21.5583 264.857 27.8177 267.973Z" fill="white"/>
</g>
<path d="M116.646 153.849C123.154 152.403 128.396 148.426 130.203 146.619L141.501 142.552L160.481 168.31L215.612 182.771L281.138 168.31L324.068 51.7201C327.683 49.6112 336.379 44.1254 338.529 45.8454C340.788 47.653 340.336 50.515 339.884 51.7201L332.202 65.7289L294.695 175.088L245.889 194.972L237.303 319.244L228.717 322.859L211.545 251.911L210.189 222.086L160.481 218.471L35.3047 231.576C59.7072 206.269 110.139 155.295 116.646 153.849Z" fill="white"/>
<path fill-rule="evenodd" clip-rule="evenodd" d="M186.769 35.1407C191.151 35.2586 208.734 35.866 225.843 36.4901C242.952 37.1141 264.974 37.8113 274.781 38.0389C323.037 39.1599 330.096 39.6919 334.602 42.5445C336.139 43.5179 337.888 44.9084 338.488 45.6337C339.447 46.7921 339.421 47.041 338.278 47.6826C334.69 49.6972 329.769 57.0637 326.155 65.8322C325.033 68.5531 318.974 87.0474 312.689 106.931C293.873 166.461 293.089 168.747 290.827 170.666C288.227 172.873 280.284 175.712 261.503 181.147C244.735 185.999 238.866 188.282 237.744 190.39C236.853 192.061 234.872 204.772 233.848 215.385C232.977 224.413 232.453 243.549 231.894 286.771C231.668 304.265 231.285 319.566 231.045 320.772C230.66 322.703 229.734 323.342 223.294 326.12C213.15 330.496 212.652 331.045 213.459 336.984C216.029 355.892 217.248 361.193 222.069 374.42C224.771 381.831 226.981 388.354 226.981 388.916C226.981 389.879 224.696 390.852 219.965 391.903C218.526 392.222 216.691 391.761 214.037 390.411C210.609 388.669 209.944 387.904 207.9 383.358C200.96 367.915 199.176 361.334 196.171 340.079L195.83 337.673L189.592 337.263C186.161 337.038 176.688 336.498 168.539 336.062C127.469 333.869 97.8755 328.659 66.3788 318.077C57.1255 314.967 49.2485 312.424 48.8752 312.424C48.5027 312.424 47.7986 315.421 47.3115 319.083C46.0854 328.305 44.794 332.87 40.0331 344.819C35.5437 356.086 34.6158 357.49 30.1401 359.781C27.4952 361.135 26.7092 361.211 23.3117 360.442C16.7632 358.96 16.814 359.844 22.3898 344.284C25.1447 336.598 27.7449 328.706 28.1682 326.748C29.0506 322.666 31.232 308.424 31.232 306.744C31.232 306.101 28.8321 304.446 25.6349 302.882C19.0158 299.644 16.1843 296.924 15.2571 292.911C14.8839 291.295 14.0333 282.266 13.368 272.847C12.7026 263.429 11.6745 253.668 11.0842 251.156C10.4932 248.645 10.0053 245.544 9.99924 244.266C9.98558 241.512 13.7716 235.989 16.7094 234.476C19.6714 232.951 29.6113 230.287 39.9473 228.248C45.206 227.21 47.1863 226.632 44.6279 226.88C40.5862 227.271 40.2289 227.186 40.587 225.914C41.7835 221.662 41.8601 204.74 40.7289 194.456C40.0612 188.386 39.2046 180.557 38.826 177.059C38.0119 169.544 38.8032 164.199 40.9921 162.421C42.8016 160.951 43.6142 160.822 86.2557 155.232C104.19 152.881 119.888 151.128 121.14 151.336C130.047 152.814 137.336 155.661 140.247 158.801C143.763 162.593 145.447 170.844 147.182 192.775C148.456 208.899 148.455 208.982 146.941 209.314C146.104 209.498 131.25 212.049 113.932 214.984C54.1528 225.115 49.4639 225.936 49.7523 226.226C49.9116 226.385 57.6741 225.301 67.0025 223.814C88.9492 220.319 118.135 216.086 128.727 214.864C140.644 213.489 196.83 213.514 206.588 214.9C210.604 215.47 214.282 216.18 214.763 216.478C215.415 216.882 215.45 220.393 214.899 230.283C214.493 237.577 214.413 244.744 214.721 246.207C215.14 248.192 215.995 243.064 218.085 226.038C221.083 201.607 222.7 193.844 226.267 186.756C228.654 182.013 228.408 181.314 225.235 183.818C222.574 185.918 220.6 191.61 218.204 204.089C217.093 209.884 216.108 214.71 216.017 214.815C215.926 214.921 213.32 214.358 210.225 213.564C207.131 212.77 202.38 211.903 199.667 211.636C194.996 211.177 156.332 208.931 152.921 208.921C151.386 208.916 151.3 208.457 150.87 198.071C150.623 192.105 150.066 181.605 149.632 174.737C148.903 163.199 148.679 161.953 146.688 158.373C143.94 153.434 138.899 149.914 132.87 148.723C127.996 147.762 128.195 148.12 129.528 142.702C130.581 138.428 131.582 125.038 132.116 108.072C132.664 90.6786 134.259 70.9162 136.646 51.9781C137.774 43.0285 140.239 39.0169 146.206 36.4223C148.679 35.3469 151.842 35.098 164.008 35.0196C172.145 34.9679 182.388 35.0219 186.769 35.1407ZM340.789 50.8776C340.789 51.8678 338.486 57.5759 335.065 65.0711C330.307 75.4903 325.43 89.7516 320.752 106.931C318.871 113.838 313.073 132.674 307.868 148.79C302.663 164.906 297.522 181.175 296.445 184.942C292.89 197.374 292.441 200.795 287.654 251.918C284.85 281.865 283.221 290.847 279.906 294.634L277.595 297.274L278.509 303.897C280.211 316.238 282.221 323.507 287.233 335.45C289.982 342.001 292.231 347.508 292.231 347.687C292.231 348.193 285.724 349.717 283.57 349.717C282.513 349.717 280.086 348.955 278.174 348.024C274.9 346.428 274.442 345.8 270.261 337.178C265.099 326.534 263.948 323.307 262.214 314.62C261.513 311.11 260.839 308.124 260.716 307.985C260.523 307.765 242.376 317.356 235.566 321.278C234.237 322.044 232.974 322.494 232.76 322.28C232.546 322.065 232.676 319.503 233.05 316.585C233.424 313.669 234.099 298.781 234.551 283.503C235.766 242.419 238.823 196.336 240.545 193.108C242.046 190.294 244.386 189.194 254.543 186.527C277.538 180.488 293.035 174.486 294.833 170.925C295.378 169.844 298.456 160.568 301.673 150.313C323.627 80.3202 335.057 50.6105 340.03 50.6105C340.448 50.6105 340.789 50.7307 340.789 50.8776ZM27.8177 267.973C70.5343 289.236 112.334 299.082 171.215 301.751C180.813 302.186 191.429 302.737 194.806 302.975L200.947 303.407L201.919 315.717C204.022 342.35 204.24 336.506 202.988 287.061C202.62 272.543 202.318 268.846 201.468 268.519C199.802 267.877 198.268 269.669 198.548 271.929C198.689 273.062 199.012 278.27 199.265 283.503C199.519 288.735 199.931 294.179 200.181 295.601L200.636 298.185L192.375 297.653C168.156 296.093 118.538 289.261 89.6533 283.508C67.4623 279.088 31.2266 268.671 20.9893 263.769C19.3201 262.969 17.6129 262.314 17.1956 262.312C16.7784 262.31 21.5583 264.857 27.8177 267.973Z" fill="#F6F6F6"/>
<path d="M27.8177 267.973C70.5343 289.236 112.334 299.082 171.215 301.751C180.813 302.186 191.429 302.737 194.806 302.975L200.947 303.407L201.919 315.717C204.022 342.35 204.24 336.506 202.988 287.061C202.62 272.543 202.318 268.846 201.468 268.519C199.802 267.877 198.268 269.669 198.548 271.929C198.689 273.062 199.012 278.27 199.265 283.503C199.519 288.735 199.931 294.179 200.181 295.601L200.636 298.185L192.375 297.653C168.156 296.093 118.538 289.261 89.6533 283.508C67.4623 279.088 31.2266 268.671 20.9893 263.769C19.3201 262.969 17.6129 262.314 17.1956 262.312C16.7784 262.31 21.5583 264.857 27.8177 267.973Z" fill="white"/>
<defs>
<filter id="filter0_d_469_2920" x="-0.000732422" y="20" width="360.79" height="387" filterUnits="userSpaceOnUse" color-interpolation-filters="sRGB">
<feFlood flood-opacity="0" result="BackgroundImageFix"/>
<feColorMatrix in="SourceAlpha" type="matrix" values="0 0 0 0 0 0 0 0 0 0 0 0 0 0 0 0 0 0 127 0" result="hardAlpha"/>
<feOffset dx="5"/>
<feGaussianBlur stdDeviation="7.5"/>
<feComposite in2="hardAlpha" operator="out"/>
<feColorMatrix type="matrix" values="0 0 0 0 0 0 0 0 0 0 0 0 0 0 0 0 0 0 0.05 0"/>
<feBlend mode="normal" in2="BackgroundImageFix" result="effect1_dropShadow_469_2920"/>
<feBlend mode="normal" in="SourceGraphic" in2="effect1_dropShadow_469_2920" result="shape"/>
</filter>
</defs>
</svg>
