<svg width="1040" height="821" viewBox="0 0 1040 821" fill="none" xmlns="http://www.w3.org/2000/svg">
<path fill-rule="evenodd" clip-rule="evenodd" d="M409.242 23.8031C410.927 24.611 416.427 28.3224 421.466 32.0493C434.244 41.4977 436.6 41.8961 453.428 37.4527L467.784 33.6634L491.616 38.2932C527.54 45.2729 533.205 47.7549 548.806 63.3579C563.733 78.2888 567.882 80.0764 580.113 76.848C592.568 73.5614 596.22 75.264 616.895 94.0032C626.978 103.141 637.37 112.071 639.99 113.848C642.612 115.626 651.723 118.867 660.24 121.052C668.756 123.237 676.677 125.922 677.842 127.019C680.54 129.561 685.911 142.035 689.858 154.924C694.77 170.965 696.53 174.024 709.723 189.451C723.009 204.985 725.376 208.861 725.021 214.505C724.899 216.455 726.656 221.968 728.924 226.757C733.257 235.905 738.926 249.869 742.804 260.952C744.072 264.572 748.081 271.537 751.714 276.428C756.969 283.498 758.6 287.292 759.686 294.944C760.436 300.239 763.415 310.116 766.304 316.894C772.071 330.42 772.366 335.355 768.173 348.114C765.783 355.393 765.64 358.101 766.984 370.773C770.3 402.018 765.203 441.484 752.792 480.688C747.84 496.331 744.841 499.352 746.801 486.722C753.411 444.131 755.239 426.086 754.56 410.155C753.519 385.744 749.13 352.157 744.877 336.058C740.996 321.362 727.457 286.515 722.575 278.655C721.014 276.144 717.601 269.683 714.99 264.299C704.34 242.339 673.398 201.12 653.033 181.766L645.763 174.855L641.276 179.699L636.788 184.544L647.766 195.518C661.703 209.451 671.689 223.477 685.864 249.024C715.726 302.841 728.774 350.859 729.495 409.595C729.625 420.164 730.496 435.017 731.43 442.601C733.386 458.462 732.065 467.129 726.609 474.219C724.376 477.119 721.046 485.764 718.337 495.686C699.45 564.883 657.118 626.805 599.847 669.011C582.549 681.76 549.846 701.058 534.393 707.635C524.052 712.038 488.498 723.386 480.625 724.798C475.87 725.65 476.08 726.97 482.33 735.475L485.588 739.906L501.785 737.781C534.466 733.492 546.151 731.247 557.774 727.028C573.316 721.387 593.492 709.778 608.976 697.568C651.016 664.417 661.429 655.682 671.561 645.07C685.279 630.703 693.685 620.575 703.554 606.526C710.556 596.557 713.467 593.857 713.235 597.547C713.088 599.89 696.301 628.286 689.61 637.511C686.387 641.955 678.973 651.259 673.136 658.186C667.117 665.331 660.961 674.538 658.915 679.461C654.27 690.635 651.736 692.959 643.414 693.678C635.033 694.401 630.298 699.053 618.666 717.993C614.186 725.286 607.324 734.073 603.416 737.522C594.58 745.314 578.439 751.924 558.162 756.051C534.654 760.836 517.437 766.007 503.007 772.615C495.84 775.896 489.228 778.534 488.312 778.476C487.395 778.419 482.016 779.895 476.358 781.758L466.069 785.143L453.971 781.262C440.54 776.95 438.652 777.136 427.425 783.867C416.974 790.131 413.783 790.678 394.114 789.565C384.155 789.001 371.574 789.216 366.155 790.043C360.738 790.87 350.726 792.364 343.906 793.362L331.508 795.178L319.979 788.089C312.756 783.647 306.441 780.873 303.069 780.661C299.616 780.444 295.891 778.766 292.681 775.982C287.772 771.722 287.457 771.659 276.04 772.632C269.639 773.177 261.813 773.46 258.647 773.261C250.29 772.736 240.161 764.79 234.246 754.118C227.909 742.691 224.55 740.019 199.556 726.535C179.642 715.79 178.287 714.759 172.084 705.607C165.865 696.434 164.905 695.705 151.72 690.152C132.151 681.911 130.633 680.378 126.625 664.809C123.041 650.884 120.789 647.595 106.594 635.551C98.3806 628.581 95.9092 624.438 96.2236 618.164C96.3437 615.789 94.5733 610.728 92.2913 606.918C88.9071 601.269 87.0124 599.726 82.0139 598.556C74.8485 596.876 68.8891 591.668 65.3643 584.006C62.9865 578.836 63.0088 578.212 65.7891 572.358C70.0209 563.444 69.7221 562.162 62.5413 558.43L56.0817 555.073L56.0557 541.167C56.0358 531.123 55.0713 524.503 52.5784 517.329C47.8632 503.759 44.8885 492.229 42.797 479.401C41.827 473.455 39.3197 465.752 37.2267 462.283C33.6621 456.376 33.4937 455 34.5519 440.556C35.1739 432.076 36.534 420.205 37.5762 414.177C39.1442 405.109 39.0721 402.518 37.1653 399.164C35.8972 396.936 34.4232 391.459 33.8899 386.995C33.3565 382.531 31.3827 374.452 29.5037 369.043L26.0879 359.206L33.156 344.694C37.0452 336.711 41.3821 325.367 42.7959 319.485C45.2163 309.412 45.182 307.979 42.2052 294.869C37.6795 274.936 38.0937 272.572 47.7527 263.162C58.3603 252.828 60.4708 249.764 62.1751 242.216C63.7771 235.123 65.5308 233.461 77.2723 227.908C85.964 223.798 86.0957 223.583 89.0198 208.819C89.8456 204.646 91.7488 199.236 93.2488 196.796C95.2159 193.595 96.5787 186.325 98.144 170.703C100.297 149.197 100.347 149.017 105.205 144.505C110.751 139.354 118.154 135.908 138.424 129.041C155.328 123.313 170.869 116.22 179.229 110.415C182.933 107.845 189.4 100.128 195.603 90.8766C208.99 70.9092 212.47 68.3382 225.034 69.1278L234.665 69.733L243.531 60.0501C256.587 45.7872 258.676 44.754 272.275 45.8129C281.46 46.5299 285.495 46.0461 292.768 43.3602C306.489 38.2929 329.343 35.2835 348.114 36.0713L364.575 36.7617L382.325 29.2532C400.077 21.7417 403.505 21.0477 409.242 23.8031ZM387.977 76.3242C351.206 77.6234 312.158 85.1638 287.939 95.6407C280.125 99.0208 269.923 102.839 265.266 104.127C244.516 109.863 204.634 134.429 175.162 159.628C157.53 174.705 156.19 176.214 158.635 178.251C165.764 184.188 167.287 183.557 187.244 166.398C224.084 134.726 232.185 129.404 263.608 116.228C296.022 102.634 315.892 96.2928 340.576 91.6579C357.667 88.4476 386.214 85.4195 394.702 85.9146C397.119 86.0557 403.546 85.077 408.983 83.7397C421.824 80.5818 427.932 81.0809 447.274 86.868C456.059 89.4968 472.771 94.0265 484.412 96.9363C531.245 108.638 577.016 132.176 613.826 163.486C621.042 169.623 627.739 175.01 628.709 175.458C629.681 175.905 631.756 174.132 633.323 171.519C636.013 167.029 636.024 166.602 633.527 163.822C632.072 162.202 623.296 155.133 614.025 148.109C593.288 132.4 561.572 114.102 537.709 104.078C527.835 99.9307 517.01 95.0844 513.651 93.3065C508.255 90.4512 494.216 87.3723 455.498 80.5565C440.234 77.8692 405.632 75.6994 387.977 76.3242ZM409.548 95.2702C406.804 96.2038 398.315 97.3816 390.682 97.8866C353.663 100.338 320.686 107.9 287.851 121.47C276.579 126.129 264.862 131.153 261.813 132.635C258.764 134.116 253.076 136.648 249.174 138.262C245.272 139.875 236.632 145.421 229.973 150.584C213.291 163.519 186.235 186.817 186.14 188.327C185.935 191.589 190.798 189.086 198.89 181.765C216.034 166.254 248.023 142.317 255.102 139.702C259.032 138.25 269.029 133.816 277.316 129.848C308.394 114.971 350.584 104.127 386.981 101.662C396.56 101.013 407.465 99.6126 411.21 98.5498C420.32 95.964 431.526 96.8495 444.253 101.161C450.025 103.115 458.505 105.396 463.098 106.229C514.913 115.617 567.369 141.32 610.591 178.495C616.472 183.554 617.544 183.966 620.886 182.437C624.53 180.772 624.33 180.492 612.409 170.567C572.474 137.322 520.399 113.134 466.389 102.738C459.296 101.373 448.413 98.6051 442.206 96.5866C430.107 92.6511 418.608 92.1881 409.548 95.2702ZM409.611 103.015C406.567 103.94 395.744 105.306 385.562 106.051C363.387 107.669 342.614 111.398 321.251 117.592C307.208 121.663 296.329 126.003 257.795 142.909C247.74 147.321 221.234 167.269 201.175 185.519L193.318 192.666L199.562 197.894L205.804 203.121L212.355 197.719C215.957 194.749 224.005 188.121 230.24 182.989C243.161 172.353 277.363 153.456 299.363 144.796C320.554 136.457 347.345 129.721 368.87 127.32C379.076 126.183 393.511 124.228 400.946 122.976C415.873 120.464 423.317 121.381 459.291 130.156C484.193 136.231 489.512 137.849 507.508 144.832C535.667 155.757 564.276 173.171 591.368 195.876L596.765 200.399L604.904 192.655L613.04 184.912L609.875 181.971C608.132 180.354 599.456 173.454 590.594 166.64C556.073 140.094 512.195 120.265 467.961 111.224C458.896 109.372 447.756 106.625 443.205 105.121C438.655 103.616 433.574 101.988 431.916 101.501C427.649 100.248 416.141 101.029 409.611 103.015ZM395.208 135.819C387.968 136.802 374.731 138.511 365.794 139.617C319.924 145.297 267.023 167.478 231.472 195.936C221.838 203.647 213.943 210.191 213.924 210.479C213.906 210.767 218.419 215.958 223.95 222.016C229.483 228.075 233.688 233.315 233.296 233.66C232.905 234.006 227.724 230.454 221.784 225.771C215.842 221.085 210.246 217.205 209.347 217.149C207.291 217.019 187.274 240.426 176.931 255.051C172.64 261.118 165.975 271.847 162.119 278.891C154.098 293.544 140.723 325.5 140.35 330.903C140.212 332.9 137.22 339.971 133.701 346.614C127.989 357.4 127.207 360.09 126.408 371.696C125.061 391.234 126.75 439.669 129.385 457.034C133.959 487.195 142.727 512.882 157.819 540.342C162.147 548.218 168.197 559.659 171.261 565.766C181.164 585.502 196.071 602.364 214.084 614.206C218.038 616.805 227.854 624.152 235.899 630.53C262.032 651.25 292.872 667.042 326.108 676.724C335.733 679.529 344.64 681.887 345.902 681.967C347.583 682.072 348.648 679.568 349.878 672.623C350.804 667.405 353.109 659.475 355.004 655.003C356.898 650.532 358.291 646.756 358.099 646.613C357.908 646.471 350.938 644.816 342.61 642.935C324.279 638.797 303.782 630.8 285.31 620.581C271.908 613.167 249.953 597.732 241.85 590.027C239.633 587.918 233.264 583.421 227.695 580.031C205.874 566.75 192.715 550.58 184.25 526.642C181.807 519.729 177.056 506.745 173.696 497.787C162.54 468.062 158.443 446.739 158.064 416.463C157.943 406.868 157.209 395.089 156.43 390.285C155.213 382.769 155.504 379.686 158.52 368.143C160.449 360.767 164.012 351.055 166.44 346.561C168.867 342.067 174.059 330.749 177.975 321.411C195.51 279.61 216.253 252.298 255.151 219.8C277.865 200.822 287.144 194.473 294.898 192.601C297.042 192.082 305.176 189.105 312.974 185.982C333.515 177.755 352.351 172.806 374.427 169.837C385.107 168.4 397.635 165.656 402.268 163.738C409.491 160.748 411.933 160.465 419.364 161.754C424.134 162.581 432.421 164.94 437.781 166.998C443.142 169.055 454.665 172.612 463.389 174.902C496.79 183.671 527.071 198.473 554.766 219.567C562.691 225.605 569.729 230.579 570.404 230.621C571.742 230.705 590.085 211.398 590.186 209.8C590.292 208.102 572.574 193.897 558.233 184.186C527.077 163.086 497.562 151.079 450.212 140.243C418.894 133.075 416.714 132.9 395.208 135.819ZM401.734 169.451C398.927 171.389 392.655 172.843 383.214 173.749C356.088 176.35 337.478 180.807 309.563 191.388C283.881 201.122 281.813 202.338 259.122 221.045C220.938 252.525 200.167 280.193 183.234 322.135C179.878 330.448 175.149 341.045 172.725 345.686C167.978 354.772 162.183 374.073 161.649 382.573C161.468 385.456 162.197 390.351 163.269 393.451C164.351 396.581 164.928 403.703 164.566 409.461C163.778 422.003 166.725 450.959 170.285 465.653C171.715 471.547 176.149 485.305 180.143 496.228C184.137 507.15 189.112 520.989 191.197 526.982C193.284 532.973 196.221 540.18 197.726 542.998C202.153 551.284 218.209 567.281 229.016 574.169C234.528 577.685 241.156 582.622 243.742 585.143C257.029 598.089 282.209 615.086 302.297 624.67C314.885 630.676 342.051 640.371 354.244 643.21C359.495 644.432 359.744 644.282 361.824 638.648C363.008 635.442 364.069 631.352 364.181 629.556C364.294 627.759 365.141 626.338 366.063 626.396C367.154 626.464 367.348 629.775 366.619 635.875L365.499 645.247L370.729 647.538C378.275 650.84 388.814 651.255 409.024 649.044C438.526 645.816 450.408 643.941 462.216 640.651C468.409 638.924 477.799 637.215 483.082 636.853C496.031 635.966 505.366 631.855 518.106 621.429C523.978 616.624 535.757 607.473 544.282 601.092C578.427 575.539 606.116 539.561 621.979 500.138C625.575 491.206 631.272 477.679 634.645 470.079C642.298 452.822 644.318 441.674 641.866 430.203C640.86 425.493 639.95 415.758 639.846 408.57C639.423 379.556 635.255 358.515 621.826 317.573C613.832 293.203 607.908 281.391 598.974 272.007C595.318 268.168 587.331 259.354 581.225 252.423C575.117 245.492 569.451 239.778 568.631 239.726C567.811 239.675 566.636 240.736 566.018 242.086C565.402 243.436 564.537 244.131 564.097 243.634C563.658 243.134 564.117 241.404 565.117 239.787C566.756 237.137 565.383 235.693 551.19 225.137C521.775 203.26 493.086 188.934 462.65 180.922C454.121 178.678 442.089 174.814 435.91 172.338C421.315 166.488 407.696 165.337 401.734 169.451ZM640.728 208.766C659.25 229.376 675.225 256.072 690.98 292.731C708.898 334.427 716.77 372.415 715.17 409.463C714.621 422.201 714.964 435.011 716.015 441.007C718.535 455.378 717.862 460.283 712.074 469.731C709.078 474.621 705.282 484.325 702.899 493.18C684.437 561.815 644.243 620.733 587.043 663.005C571.24 674.684 539.41 693.526 525.638 699.355C516.321 703.298 486.55 712.667 475.555 715.116C470.05 716.343 469.217 716.962 470.921 718.567C472.569 720.121 478.446 719.042 499.488 713.318C528.131 705.527 535.745 702.597 557.284 691.072C602.622 666.809 641.69 633.106 669.022 594.681C689.707 565.602 707.583 527.953 716.849 493.96C719.324 484.875 722.701 475.881 724.35 473.973C729.935 467.519 731.279 460.402 729.577 446.294C728.715 439.154 727.874 424.663 727.706 414.091C726.748 353.757 713.243 305.833 681.645 250.636C666.657 224.451 657.707 212.466 642.472 198.17C633.651 189.893 631.99 188.913 628.821 190.125C625.374 191.441 625.901 192.267 640.728 208.766ZM608.728 199.56L602.048 205.163L612.824 216.51C638.975 244.047 638.992 244.071 651.165 269.501C666.351 301.229 669.9 309.805 675.305 327.846C681.638 348.98 685.371 372.924 686.951 402.542C687.704 416.657 689.199 430.231 690.275 432.706C695.269 444.206 693.196 456.715 684.259 469.032C681.267 473.155 677.059 482.714 673.705 493.007C653.179 555.993 613.404 607.715 556.886 644.91C548.411 650.49 537.983 657.747 533.716 661.04C524.751 667.959 512.92 673.145 501.83 675.02C497.562 675.741 485.835 678.313 475.769 680.734C462.312 683.971 457.422 685.792 457.294 687.61C457.005 691.71 462.48 706.723 465.673 710.581L468.659 714.191L484.532 709.839C520.24 700.045 541.132 690.565 572.641 669.858C634.537 629.182 680.956 565.441 700.767 493.92C703.759 483.123 707.689 472.966 711.063 467.32L716.521 458.19L714.073 440.893C712.366 428.819 712.073 421.388 713.103 416.287C716.348 400.229 710.712 356.731 701.583 327.368C692.987 299.724 675.53 262.948 657.358 234.197C653.616 228.277 644.055 216.525 636.114 208.083C619.828 190.768 619.379 190.628 608.728 199.56ZM436.512 205.283C439.131 207.116 448.036 210.442 456.298 212.674C482.44 219.738 506.465 231.29 527.769 247.041C533.114 250.993 540.942 256.677 545.164 259.67C553.639 265.681 567.397 281.672 570.833 289.507C572.046 292.273 576.728 300.081 581.239 306.856C592.574 323.885 594.361 327.776 599.348 346.301C605.491 369.113 608.076 383.703 608.903 400.269C609.299 408.151 610.675 419.608 611.964 425.729C616.056 445.167 613.925 455.9 603.469 468.538C600.794 471.771 596.733 479.119 594.443 484.868C588.778 499.093 577.599 518.293 566.876 532.219C556.443 545.77 535.612 565.371 521.969 574.48C516.679 578.011 507.856 584.492 502.36 588.881C496.865 593.27 488.453 598.484 483.668 600.466C474.302 604.346 471.74 604.801 437.668 608.645C425.334 610.037 409.629 612.178 402.769 613.402C388.141 616.013 376.185 615.605 372.114 612.353C370.521 611.079 361.921 608.078 353.005 605.682C319.85 596.77 288.685 580.747 269.042 562.511C265.691 559.4 258.878 554.203 253.905 550.963C242.694 543.659 223.418 524.112 217.803 514.352C215.488 510.331 212.811 503.175 211.852 498.452C210.894 493.728 207.69 479.688 204.736 467.251C198.379 440.508 197.051 431.288 196.713 411.572C196.574 403.467 195.605 391.598 194.559 385.196C191.531 366.665 195.675 352.262 207.126 341.511C210.037 338.778 216.88 328.492 222.331 318.651C227.781 308.812 234.901 297.129 238.152 292.689C246.62 281.126 276.109 250.294 284.263 244.478C310.008 226.115 351.317 210.744 382.225 208.029C389.019 207.431 400.735 205.679 408.26 204.133C424.876 200.718 430.303 200.939 436.512 205.283ZM584.174 223.575L573.119 233.401L586.377 247.908C616.947 281.354 617.94 282.911 628.465 313.91C642.01 353.794 646.009 373.125 647.033 403.645C647.345 412.958 648.429 425.402 649.442 431.296C651.583 443.772 649.604 454.347 641.937 471.37C639.458 476.878 634.314 488.873 630.507 498.024C610.852 545.279 585.424 576.527 538.367 611.26C530.559 617.023 520.412 624.544 515.819 627.974C505.273 635.846 494.294 640.17 483.338 640.769C478.63 641.026 467.427 642.745 458.443 644.589C423.36 651.787 377.857 653.974 366.506 649.008C363.632 647.749 362.993 648.27 361.245 653.286C360.151 656.426 358.467 664.562 357.502 671.363L355.746 683.733L365.534 686.077C370.917 687.368 379.08 688.66 383.672 688.948C400.69 690.018 454.36 685.123 454.526 682.487C454.57 681.786 455.455 681.602 456.493 682.077C457.53 682.553 464.697 681.232 472.417 679.142C480.137 677.054 491.075 674.674 496.723 673.854C509.237 672.038 519.803 667.64 531.096 659.548C535.79 656.184 545.354 649.573 552.352 644.854C611.147 605.214 648.625 555.007 668.781 488.89C671.408 480.27 675.044 471.386 676.861 469.145C685.089 458.997 688.106 443.891 683.807 434.351C681.45 429.12 679.904 416.96 678.99 396.436C677.812 370.003 669.284 332.025 659.183 308.227C647.955 281.779 628.811 246.31 622.893 240.992C619.755 238.172 612.609 230.923 607.014 224.883C601.417 218.843 596.476 213.865 596.034 213.824C595.591 213.782 590.255 218.169 584.174 223.575ZM135.014 199.824C121.441 215.92 108.555 234.653 93.9935 259.451C81.8049 280.208 79.4313 285.503 72.5668 307.258C68.3213 320.716 63.0801 339.218 60.9198 348.377C35.7825 454.94 69.8934 572.339 148.177 648.686C189.281 688.771 239.813 717.599 298.179 734.258C309.243 737.416 322.76 740.742 328.221 741.65C337.772 743.24 338.196 743.168 339.35 739.733C341.858 732.266 341.295 727.855 337.715 726.936C309.44 719.683 297.98 716.121 281.422 709.439C246.958 695.533 217.886 677.839 189.908 653.745C181.896 646.845 173.025 639.561 170.195 637.56C163.455 632.793 155.325 622.984 144.712 606.816C139.974 599.598 135.445 593.23 134.648 592.664C132.306 591.005 115.68 563.002 107.542 547.014C99.6921 531.593 89.6414 502.423 84.2229 479.345C79.8925 460.896 77.2626 439.409 75.9921 412.098C74.2504 374.643 74.4792 367.459 77.7334 357.313C79.3607 352.238 83.5081 338.239 86.9501 326.204C100.343 279.372 117.942 244.383 145.875 209.055L156.488 195.633L151.989 194.344C149.513 193.635 147.136 192.395 146.704 191.588C145.17 188.714 143.227 190.083 135.014 199.824ZM408.895 211.255C402.482 212.512 395.168 213.434 392.643 213.304C384.919 212.903 360.928 216.964 346.08 221.188C319.551 228.732 291.731 242.589 278.529 254.835C266.978 265.549 244.765 290.97 238.705 300.409C235.316 305.688 229.307 316.598 225.353 324.654C221.085 333.346 215.603 341.864 211.87 345.606C201.293 356.205 198.607 368.483 202.59 388.035C203.807 394.009 204.918 404.434 205.059 411.202C205.397 427.517 208.334 445.663 214.454 469.255C217.218 479.912 219.407 489.776 219.319 491.178C219.231 492.578 220.093 497.159 221.234 501.355C223.881 511.092 243.786 534.984 256.591 543.798C261.509 547.184 267.869 552.3 270.726 555.169C289.81 574.335 321.409 592.202 351.495 600.836C359.738 603.202 368.341 606.297 370.612 607.716C379.256 613.12 383.693 613.771 396.723 611.551C403.592 610.38 415.477 608.679 423.135 607.768C430.793 606.858 440.561 605.378 444.84 604.479C449.119 603.582 457.096 602.41 462.566 601.875C468.036 601.342 476.287 599.343 480.902 597.433C495.509 591.388 539.685 554.764 554.323 536.562C565.575 522.575 577.983 501.228 585.181 483.478C588.356 475.651 593.624 465.838 596.889 461.671C604.95 451.383 606.003 444.394 602.265 425.969C600.641 417.956 598.727 403.64 598.013 394.157C596.195 369.968 587.154 335.451 579.063 321.798C575.682 316.094 570.168 306.761 566.807 301.058C553.898 279.145 550.271 274.9 533.857 262.494C503.927 239.876 481.38 228.08 452.749 220.069C444.1 217.648 435.465 214.284 433.557 212.591C429.161 208.692 423.519 208.387 408.895 211.255ZM164.585 210.93C136.244 245.176 117.669 280.964 103.805 328.032C100.385 339.645 96.3154 353.356 94.762 358.503C91.481 369.368 90.5869 379.882 91.815 393.156C92.2962 398.352 92.9134 410.914 93.1843 421.069C94.0949 455.083 102.869 497.02 115.655 528.476C121.445 542.72 143.183 583.203 145.106 583.324C145.538 583.351 141.296 575.308 135.678 565.45C121.789 541.075 114.548 523.354 107.161 495.657C99.8122 468.103 96.9851 448.483 95.6637 415.849C94.0323 375.564 94.0544 374.846 97.348 364.097C99.0597 358.509 103.22 344.432 106.589 332.815C120.439 285.088 142.322 243.368 170.117 211.703C175.101 206.027 179.199 201.048 179.224 200.639C179.25 200.231 178.064 199.844 176.591 199.779C175.044 199.711 169.966 204.428 164.585 210.93ZM173.952 213.772C143.692 250.148 125.499 285.254 110.922 335.392C107.665 346.593 103.555 360.725 101.79 366.797C99.0748 376.132 98.7196 379.903 99.4865 391.231C99.9848 398.597 100.6 412.299 100.852 421.676C101.891 460.171 110.622 501.916 124.43 534.404C137.387 564.889 172.511 619.301 185.115 628.414C188.464 630.835 195.121 636.527 199.909 641.06C230.931 670.436 278.39 696.6 323.377 709.126C332.777 711.743 340.697 713.899 340.98 713.916C341.371 713.941 345.627 695.561 347.411 686.137C347.544 685.429 339.755 682.708 330.101 680.09C290.049 669.23 256.257 651.818 223.194 624.997C217.971 620.761 210.037 615.056 205.564 612.322C194.887 605.795 177.463 585.965 169.27 571.017C165.673 564.454 158.352 551.206 153.002 541.576C141.39 520.678 136.611 509.892 130.797 491.468C122.822 466.194 120.799 450.419 118.465 395.331C117.27 367.113 118.543 357.897 125.436 344.925C128.162 339.793 131.106 332.239 131.978 328.138C134.138 317.98 146.029 288.977 154.339 273.602C163.22 257.165 174.673 240.419 187.581 224.998C193.292 218.175 198.489 211.79 199.131 210.809C200.383 208.895 191.092 202.365 186.538 201.957C185.04 201.823 179.794 206.747 173.952 213.772ZM428.519 241.073C432.43 242.053 450.571 248.588 467.561 255.136C487.248 262.725 508.424 276.786 528.735 295.759C542.054 308.2 547.281 316.338 558.441 342.008C568.116 364.262 571.818 380.982 572.583 405.879C572.751 411.381 573.573 421.052 574.406 427.371C576.07 439.972 575.118 445.539 569.973 453.303C568.103 456.125 564.263 463.329 561.441 469.313C553.873 485.356 545.636 498.819 536.231 510.512C527.571 521.282 487.292 556.128 475.622 562.948C467.441 567.728 455.636 570.574 446.343 570.007C442.5 569.773 429.242 571.063 416.882 572.876C391.627 576.58 378.839 576.434 370.08 572.345C366.798 570.813 358.452 567.76 351.534 565.561C333.039 559.681 321.385 554.048 301.798 541.514C270.393 521.422 258.228 507.783 246.826 479.881C238.775 460.181 235.112 441.913 234.089 416.361C233.61 404.359 232.627 392.081 231.903 389.079C231.181 386.076 230.814 379.1 231.087 373.578C231.692 361.307 235.635 353.888 245.76 345.973C250.021 342.641 255.78 335.611 260.343 328.169C270.981 310.825 297.181 280.633 307.228 274.143C332.028 258.12 389.817 239.458 413.237 239.906C419.564 240.027 426.441 240.552 428.519 241.073ZM384.746 253.437C357.341 259.295 349.751 261.503 331.793 268.854C321.495 273.069 310.788 278.703 306.574 282.127C294.13 292.233 275.736 315 264.64 334.025C260.685 340.807 255.022 348.234 252.057 350.525C240.645 359.346 238.505 369.23 243.072 392.023C244.622 399.759 246.226 412.976 246.633 421.397C248.273 455.203 264.012 495.867 282.176 513.222C290.02 520.717 319.78 543.245 328.922 548.609C335.413 552.417 364.801 565.083 377.923 569.726C386.383 572.72 394.334 572.407 424.105 567.903C433.484 566.483 445.359 565.258 450.491 565.18C464.686 564.964 471.642 561.133 493.114 541.706C522.663 514.97 533.155 500.716 547.805 467.405C551.94 458.004 556.427 448.47 557.777 446.219C560.592 441.52 561.448 433.228 559.702 427.588C559.042 425.459 558.181 416.891 557.79 408.55C556.581 382.773 552.641 365.793 542.454 342.457C532.173 318.902 526.21 310.848 507.167 294.792C492.483 282.413 472.82 270.587 456.487 264.313C449.612 261.672 442.659 258.688 441.036 257.683C435.244 254.098 419.326 250.386 409.51 250.333C404.023 250.303 392.879 251.7 384.746 253.437ZM422.968 279.762C425.842 280.631 432.214 283.69 437.129 286.56C442.042 289.429 451.29 294.176 457.678 297.108C478.235 306.544 500.277 325.773 511.858 344.374C520.22 357.805 526.819 379.368 528.554 398.917C529.326 407.609 530.57 416.834 531.32 419.416C533.714 427.648 533.1 441.187 529.985 448.869C528.39 452.801 523.552 460.089 519.235 465.063C514.917 470.039 508.621 477.939 505.242 482.618C496.281 495.029 487.234 503.559 472.374 513.615C452.739 526.899 451.271 527.53 430.215 531.756C396.621 538.498 389.035 539.111 379.113 535.893C368.462 532.437 340.562 518.504 331.409 512.067C327.649 509.423 321.181 505.541 317.035 503.438C305.897 497.794 298.379 487.496 288.277 464.052C277.969 440.126 276.953 435.874 276.044 412.856C274.543 374.862 278.235 356.769 288.706 350.807C293.987 347.799 304.633 334.633 309.948 324.537C314.827 315.269 327.368 305.468 341.233 300.092C348.096 297.431 355.085 294.586 356.767 293.771C358.447 292.955 364.443 291.005 370.092 289.435C375.738 287.865 384.252 285.117 389.01 283.329C397.147 280.268 411.862 277.303 415.915 277.907C416.92 278.058 420.093 278.891 422.968 279.762ZM384.31 288.966C331.469 305.876 320.637 311.489 312.46 326.2C306.508 336.908 296.37 349.494 291.015 352.823C287.573 354.963 285.347 358.204 283.172 364.244C279.779 373.67 278.222 392.92 280.175 401.318C280.871 404.315 281.24 409.946 280.996 413.834C280.751 417.722 281.002 424.655 281.554 429.242C282.678 438.597 299.386 480.496 305.207 488.558C307.285 491.437 314.643 497.242 321.557 501.457C340.984 513.303 370.553 530.014 376.983 532.782C384.605 536.065 395.026 536.614 405.536 534.288C410.218 533.252 420.72 531.233 428.87 529.802C447.2 526.585 452.904 524.147 469.276 512.541C484.49 501.758 494.499 492.021 502.48 480.244C505.653 475.562 511.06 468.434 514.496 464.404C517.931 460.374 522.333 454.084 524.276 450.426C528.419 442.63 529.754 429.528 527.042 423.294C526.021 420.949 524.985 414.524 524.739 409.017C523.899 390.142 519.265 370.727 511.542 353.73C502.658 334.172 477.743 311.105 453.544 300.03C446.804 296.945 438.298 292.555 434.641 290.275C419.409 280.77 410.633 280.543 384.31 288.966ZM431.423 292.618C436.723 295.633 444.717 299.644 449.188 301.53C468.121 309.517 491.377 328.012 502.302 343.766C512.996 359.185 519.977 380.661 521.401 402.521C521.876 409.811 523.088 418.096 524.092 420.934C528.38 433.044 523.218 450.401 511.857 462.073C509.195 464.807 505.217 469.697 503.019 472.938C495.405 484.159 482.574 497.257 471.809 504.794C453.693 517.478 447.061 520.453 431.12 523.047C422.963 524.375 413.976 526.26 411.149 527.24C401.627 530.534 386.022 529.939 376.836 525.93C361.63 519.293 343.355 509.756 336.504 504.883C332.765 502.224 327.124 499.011 323.966 497.745C314.458 493.927 305.677 481.968 297.16 461.231C286.915 436.281 286.129 433.044 285.342 412.481C284.021 377.931 287.452 360.315 296.501 355.163C301.48 352.33 311.578 340.333 316.681 331.191C322.534 320.704 334.318 311.956 351.755 305.154C360.12 301.892 369.851 298.428 373.376 297.457C376.903 296.488 384.942 293.861 391.242 291.62C398.097 289.181 406.531 287.462 412.242 287.34C420.739 287.157 422.843 287.736 431.423 292.618ZM396.453 294.279C390.602 296.071 381.239 298.859 375.648 300.476C343.989 309.625 326.224 319.679 319.229 332.403C314.137 341.669 303.963 354.119 298.775 357.436C295.068 359.806 293.488 362.435 291.515 369.517C288.998 378.551 288.804 384.339 290.006 414.792C290.758 433.819 291.525 436.782 302.097 461.424C310.863 481.864 317.793 491.352 325.821 493.913C327.739 494.524 334.146 498.446 340.058 502.625C345.972 506.805 351.384 510.262 352.084 510.306C352.786 510.35 360.126 514.019 368.396 518.457C385.783 527.793 393.642 528.992 410.683 524.914C416.256 523.579 425.544 521.712 431.322 520.767C445.079 518.514 451.049 515.791 466.97 504.507C480.708 494.768 490.3 485.173 497.913 473.553C500.364 469.813 505.213 463.431 508.692 459.37C519.493 446.755 523.352 433.221 519.403 421.799C518.388 418.866 517.357 412.429 517.11 407.495C516.063 386.637 507.985 359.824 498.794 346.709C488.053 331.379 464.266 312.604 447.069 305.882C443.962 304.669 437.057 301.04 431.724 297.817C419.655 290.526 411.41 289.699 396.453 294.279ZM424.618 315.372C427.084 316.449 431.393 319.351 434.194 321.82C436.995 324.29 443.957 328.963 449.665 332.203C464.125 340.41 481.735 360.222 487.548 374.82C492.993 388.493 495.024 402.942 494.166 421.89C493.23 442.534 491.168 447.519 477.996 460.943C457.36 481.979 441.517 492.359 424.797 495.801C420.091 496.771 413.211 498.728 409.51 500.151C396.907 504.998 383.827 501.96 361.167 488.924C338.945 476.138 326.906 463.739 319.534 446.047C315.606 436.618 314.852 432.417 314.373 417.303C313.55 391.286 315.919 376.041 322.598 364.376C332.938 346.322 352.995 332.705 387.336 320.421C406.699 313.495 417.094 312.088 424.618 315.372ZM387.15 326.483C346.342 339.517 325.55 356.325 320.856 380.075C318.514 391.927 319.5 424.843 322.518 435.55C328.307 456.088 340.963 470.09 368.864 486.821C384.43 496.154 394.32 499.484 402.097 498.006C431.983 492.332 440.331 489.299 453.591 479.297C461.743 473.148 481.202 451.498 484.419 444.999C487.597 438.575 488.257 408.97 485.542 394.607C480.999 370.59 467.4 351.287 445.888 338.327C439.208 334.302 433.34 330.257 432.85 329.338C432.358 328.418 429.877 326.211 427.336 324.434C419.358 318.853 409.466 319.357 387.15 326.483ZM418.602 350.023C427.944 353.544 441.969 363.313 448.679 370.973C456.89 380.347 461.051 391.279 462.615 407.589C463.723 419.151 462.025 425.571 454.44 438.516C443.65 456.928 416.027 471.312 394.103 469.934C378.283 468.94 357.73 451.994 349.499 433.156C344.668 422.1 344.562 401.314 349.269 388.239C354.293 374.281 372.087 356.457 387.102 350.338C395.256 347.015 410.224 346.866 418.602 350.023ZM385.612 357.389C375.13 361.911 357.9 378.146 354.291 386.901C344.644 410.302 349.554 431.913 368.57 449.753C376.968 457.632 388.932 463.465 397.837 464.025C405.659 464.516 421.057 461.593 429.168 458.075C445.486 451 457.665 431.92 457.175 414.199C456.821 401.368 450.112 383.23 442.728 375.133C436.201 367.977 420.726 358.149 412.104 355.682C404.13 353.402 393.226 354.104 385.612 357.389ZM423.195 366.748C432.349 370.654 441.751 380.8 445.227 390.521C447.887 397.96 448.002 400.405 446.333 413.846C444.188 431.119 440.36 438.467 429.621 445.929C411.413 458.582 390.451 456.568 375.139 440.694C364.681 429.854 360.515 419.097 361.389 405.198C361.96 396.112 362.93 393.094 368.178 384.064C371.676 378.044 376.792 371.725 380.117 369.318C389.716 362.366 410.083 361.152 423.195 366.748ZM386.838 373.258C377.353 377.432 366.701 395.568 365.788 409.096C365.135 418.753 370.128 431.301 377.289 438.003C394.36 453.981 427.608 448.644 439.951 427.945C444.213 420.794 445.681 401.551 442.525 394.173C438.396 384.521 430.753 377.284 420.234 373.063C414.325 370.692 392.377 370.82 386.838 373.258ZM419.799 379.402C433.065 386.655 437.287 394.79 436.26 411.125C435.44 424.179 432.753 430.093 424.876 436.18C413.228 445.182 399.219 446.804 387.579 440.497C375.155 433.767 367.211 418.137 369.59 405.103C371.288 395.805 378.757 383.766 385.707 379.123C393.298 374.051 410.265 374.19 419.799 379.402ZM390.403 381.435C379.223 386.356 371.614 404.57 375.145 417.956C380.312 437.555 402.64 446.796 419.931 436.49C430.23 430.351 432.89 426.08 434.337 413.356C435.426 403.77 435.151 401.143 432.468 395.576C429.13 388.652 422.404 382.954 414.605 380.446C408.479 378.475 395.965 378.987 390.403 381.435ZM147.265 587.033C147.248 587.306 149.022 589.318 151.207 591.505L155.18 595.478L151.737 591.037C148.518 586.887 147.34 585.831 147.265 587.033ZM157.138 600.978C158.776 603.615 160.46 605.795 160.881 605.821C161.302 605.848 160.306 603.711 158.667 601.074C157.029 598.436 155.344 596.256 154.924 596.23C154.503 596.204 155.499 598.34 157.138 600.978ZM164.079 612.697C164.061 612.988 165.512 614.633 167.304 616.356L170.563 619.487L167.865 615.861C165.331 612.454 164.156 611.473 164.079 612.697ZM441.725 687.2C411.66 691.336 380.629 691.581 364.36 687.809C360.197 686.845 356.709 686.148 356.609 686.262C356.508 686.375 355.592 693.078 354.573 701.156L352.721 715.843L362.93 717.496C368.546 718.403 376.729 720.086 381.118 721.235C387.274 722.846 391.824 722.96 401.049 721.734C407.622 720.86 421.329 719.589 431.507 718.909C457.706 717.161 465.602 715.133 460.443 711.477C459.092 710.52 456.08 698.935 454.85 689.965C454.529 687.622 454.008 685.688 453.693 685.668C453.378 685.648 447.993 686.337 441.725 687.2ZM449.862 720.053C441.498 721.554 413.109 724.524 390.35 726.28L381.864 726.934L391.83 727.169C403.87 727.452 436.29 725.379 452.979 723.259C459.653 722.411 465.286 721.728 465.495 721.741C465.705 721.754 465.921 721.077 465.974 720.235C466.106 718.133 460.895 718.074 449.862 720.053ZM425.228 733.293C401.434 735.504 383.97 735.058 365.436 731.767L354.047 729.744L354.085 737.562C354.122 745.192 354.255 745.414 359.572 746.762C379.686 751.861 467.502 747.507 475.736 741.003C476.364 740.506 475.265 737.205 473.293 733.665L469.707 727.23L458.665 729.22C452.594 730.315 437.546 732.148 425.228 733.293ZM364.841 722.616C366.279 723.09 369.032 723.277 370.958 723.031C372.883 722.785 371.707 722.396 368.343 722.168C364.979 721.939 363.403 722.141 364.841 722.616Z" fill="#2E5233"/>
<path fill-rule="evenodd" clip-rule="evenodd" d="M1007.7 617.955C1007.32 618.451 1005.75 620 1004.2 621.398C1000.28 624.943 999.998 625.685 1000.34 631.464L1000.63 636.394L997.555 643.859C992.916 655.113 991.734 656.797 985.621 660.858C979.771 664.743 978.916 665.978 979.164 670.178C979.416 674.455 978.621 675.534 971.151 681.043C967.509 683.729 963.914 686.53 963.162 687.267C962.41 688.005 960.754 690.763 959.481 693.396C958.209 696.029 956.813 698.435 956.378 698.743C955.372 699.455 950.952 700.386 946.49 700.825C940.936 701.372 939.824 701.744 933.926 705.031C927.987 708.342 926.568 708.858 924.751 708.372C924.123 708.203 922.21 708.414 920.5 708.838C917.232 709.649 912.306 710.579 908.438 711.115C907.174 711.29 904.639 712.139 902.806 713.002C900.155 714.25 898.811 714.533 896.244 714.384C894.469 714.28 891.052 714.601 888.652 715.098C883.863 716.088 882.234 715.86 878.35 713.654C876.134 712.396 875.261 712.171 871.041 711.776C860.635 710.802 848.103 706.545 836.137 699.92C831.362 697.276 830.574 696.1 834.563 697.57C848.015 702.526 853.778 704.309 859.017 705.135C867.045 706.401 878.284 707.179 883.813 706.851C888.86 706.552 901.112 704.43 903.996 703.355C904.917 703.011 907.248 702.323 909.176 701.826C917.036 699.798 932.51 692.42 940.16 687.053L942.891 685.137L941.607 683.356L940.323 681.574L936.022 684.432C930.563 688.059 925.333 690.393 916.071 693.334C896.561 699.531 880.046 700.628 860.848 697C857.394 696.347 852.494 695.654 849.96 695.46C844.66 695.055 841.921 694.054 839.968 691.808C839.169 690.89 836.569 689.235 833.512 687.7C812.193 676.991 794.788 659.116 784.793 637.667C781.774 631.189 777.633 619.257 776.505 613.786C775.749 610.125 774.388 597.786 774.445 595.127C774.48 593.52 774.036 593.502 770.852 594.98L769.193 595.751L768.82 601.172C768.069 612.109 768.033 616.067 768.644 620.134C769.461 625.572 771.919 632.914 774.882 638.766C782.926 654.653 785.089 658.622 787.883 662.624C791.665 668.041 794.414 671.448 798.346 675.59C801.136 678.529 801.825 679.655 800.637 679.337C799.882 679.135 791.728 671.794 789.16 669.006C787.923 667.663 785.377 664.634 783.503 662.275C781.569 659.843 778.972 657.23 777.501 656.239C774.164 653.989 773.572 653.01 773.886 650.25C774.201 647.47 772.995 645.62 767.585 640.582C765.502 638.641 763.088 635.826 762.221 634.325C760.261 630.932 759.168 625.234 759.156 618.352C759.142 610.372 758.588 604.419 757.383 599.279C756.784 596.727 756.359 594.397 756.438 594.102C756.517 593.807 756.389 591.956 756.154 589.989L755.727 586.412L757.788 582.723C760.077 578.627 760.141 577.999 758.685 573.896C757.33 570.077 757.361 569 759.018 562.66C759.857 559.45 760.614 555.334 760.7 553.513C760.787 551.692 760.959 548.33 761.081 546.04L761.305 541.879L764.374 538.586C766.298 536.523 767.618 534.647 767.909 533.561C768.206 532.45 768.999 531.345 770.117 530.482C771.829 529.161 771.87 529.063 772.304 525.276C772.547 523.154 772.97 520.583 773.243 519.564C773.964 516.874 777.22 514.094 781.089 512.867C785.232 511.553 786.324 510.633 792.364 503.371C797.177 497.585 797.602 497.21 800.994 495.79C804.394 494.366 804.695 494.101 807.373 490.167C811.346 484.328 811.946 483.934 817.286 483.651C822.062 483.399 823.282 482.881 828.143 479.045C830.955 476.825 832.469 476.292 834.494 476.807C835.26 477.002 837.027 476.758 838.419 476.264C840.483 475.532 841.111 475.016 841.821 473.463C842.841 471.238 844.93 469.637 847.66 468.992C849.502 468.556 849.704 468.605 851.43 469.896C854.058 471.862 854.496 471.849 856.185 469.753L857.704 467.868L862.24 468.774C865.516 469.428 867.738 469.549 870.241 469.208C874.976 468.563 878.931 468.352 883.251 468.513C885.253 468.588 887.929 468.277 889.198 467.823C891.358 467.049 891.818 467.085 896.458 468.38C899.182 469.14 902.963 470.364 904.86 471.101C907.713 472.208 908.563 472.355 909.782 471.954C910.592 471.687 912.475 471.567 913.965 471.686C915.456 471.806 918.22 471.694 920.107 471.437L923.539 470.97L927.805 474.229C930.153 476.022 933.566 478.182 935.391 479.03C938.516 480.482 938.985 480.565 943.455 480.456C950.252 480.292 950.996 480.582 953.429 484.351C956.1 488.489 956.961 489.378 959.309 490.43C961.517 491.419 961.944 492.1 962.982 496.294C963.75 499.398 963.811 499.455 968.433 501.379C969.739 501.923 971.378 502.9 972.075 503.549C972.989 504.401 975.27 505.323 980.261 506.861C987.131 508.978 987.186 509.006 988.338 510.886C989.653 513.033 990.289 515.674 991.195 522.734C991.951 528.623 993.241 534.156 994.584 537.264C995.179 538.641 997.27 541.256 999.878 543.887C1005.51 549.565 1006.12 550.869 1005.03 554.913L1004.2 558.014L1006.78 561.541C1010.57 566.736 1010.77 567.485 1009.53 571.85C1008.69 574.797 1008.58 576.145 1008.98 578.693C1009.73 583.499 1009.21 591.149 1007.72 597.217L1006.41 602.539L1007.69 608.82C1008.97 615.102 1008.97 616.265 1007.7 617.955ZM991.971 607.567C993.966 595.493 994.075 582.265 992.252 573.68C991.664 570.91 991.09 567.332 990.976 565.729C990.471 558.586 985.084 543.968 978.806 532.701C975.05 525.961 974.646 525.424 973.821 526.088C971.417 528.022 971.522 528.56 975.804 536.195C983.708 550.29 984.91 553.281 987.14 564.393C989.44 575.855 990.201 582.751 990.089 591.104C990.011 596.888 989.121 606.394 988.402 609.129C988.197 609.908 988.093 612.068 988.172 613.929C988.357 618.323 987.792 620.282 984.633 626.208C983.198 628.899 980.622 634.05 978.908 637.654C972.013 652.154 961.328 665.529 948.699 675.472C946.223 677.421 944.026 679.251 943.816 679.537C943.607 679.825 944.048 680.618 944.797 681.301C946.084 682.473 946.223 682.505 947.293 681.873C947.917 681.505 950.799 679.109 953.699 676.548C960.185 670.82 968.237 661.683 973.074 654.562C975.076 651.615 977.368 648.404 978.169 647.426C979.454 645.854 981.382 641.48 986.15 629.304C988.03 624.504 991.013 613.365 991.971 607.567ZM984.375 613.354C984.251 612.398 984.425 609.553 984.763 607.031C986.398 594.8 986.101 583.551 983.836 571.953C983.058 567.971 982.191 563.82 981.909 562.728C981.626 561.637 981.175 559.616 980.905 558.238C980.636 556.859 979.396 553.677 978.15 551.167C975.03 544.877 969.213 534.523 968.727 534.393C967.677 534.112 968.173 535.862 970.028 538.981C973.958 545.591 979.659 557.596 980.046 560.076C980.261 561.453 981.049 565.004 981.797 567.966C984.604 579.078 985.365 593.547 983.775 605.576C983.357 608.742 983.096 612.39 983.196 613.68C983.44 616.821 982.415 620.416 980.172 624.282C979.155 626.036 977.854 628.651 977.28 630.094C970.811 646.37 958.981 661.783 944.018 673.43C941.981 675.015 941.777 675.337 942.055 676.528C942.359 677.825 942.463 677.778 946.483 674.545C959.949 663.71 971.26 648.322 978.202 631.396C979.113 629.173 980.732 625.807 981.798 623.916C983.877 620.23 984.784 616.511 984.375 613.354ZM981.846 612.866C981.744 611.812 982.011 608.194 982.437 604.825C983.368 597.488 983.519 590.47 982.904 583.098C982.5 578.251 981.801 574.418 978.823 560.743C978.046 557.174 973.285 547.22 968.654 539.48L966.84 536.448L964.725 538.14L962.61 539.831L963.941 542.323C964.672 543.692 966.304 546.752 967.567 549.123C970.185 554.035 974.097 566.429 975.474 574.172C976.799 581.63 977.233 590.808 976.6 597.984C976.3 601.386 975.988 606.221 975.907 608.728C975.744 613.76 974.956 616.127 969.729 627.279C966.111 634.998 965.233 636.626 961.773 642.034C956.359 650.497 948.8 658.679 939.615 666.019L937.785 667.482L939.775 670.645L941.765 673.807L942.932 672.968C943.573 672.506 946.394 670.131 949.198 667.69C960.124 658.181 969.475 645.178 975.332 631.35C976.532 628.517 978.16 625.065 978.949 623.68C979.74 622.296 980.605 620.746 980.872 620.238C981.561 618.929 982.064 615.125 981.846 612.866ZM972.097 606.012C972.253 603.587 972.566 599.159 972.793 596.172C973.958 580.842 970.205 562.136 963.265 548.673C961.384 545.025 959.77 542.02 959.677 541.995C959.585 541.97 957.595 543.1 955.256 544.505C952.917 545.911 950.932 546.937 950.845 546.787C950.758 546.636 952.257 545.181 954.174 543.552C956.093 541.923 957.726 540.353 957.804 540.064C957.981 539.402 951.666 531.336 947.577 527.002C945.882 525.204 942.822 522.325 940.779 520.605C936.529 517.026 926.989 510.563 925.252 510.086C924.61 509.91 922.501 508.47 920.567 506.885C917.426 504.314 916.6 503.882 912.869 502.858C906.587 501.134 890.684 498.499 884.849 498.216C874.714 497.724 865.762 498.893 855.816 502.008C852.964 502.901 848.836 504.121 846.643 504.718C839.557 506.649 833.078 510.401 828.033 515.495C826.925 516.613 823.884 519.331 821.276 521.534C812.802 528.692 805.624 537.709 800.282 547.908C798.734 550.862 797.379 553.611 797.27 554.017C797.125 554.559 797.872 555.07 800.055 555.928C801.696 556.573 804.13 557.846 805.463 558.758C806.796 559.67 807.936 560.372 807.995 560.319C808.054 560.266 809.052 558.103 810.213 555.511C812.768 549.806 816.723 543.649 821.27 538.299C824.569 534.417 831.045 528.273 834.09 526.138C834.924 525.554 836.809 523.773 838.28 522.18C844.046 515.939 850.183 512.712 858.545 511.527C860.959 511.185 865.505 510.49 868.647 509.983C879.072 508.301 886.294 508.367 896.191 510.235C899.327 510.827 903.216 511.362 904.833 511.424C907.364 511.521 908.35 511.819 911.915 513.562C914.193 514.675 917.125 516.476 918.431 517.563C919.737 518.65 923.085 521.087 925.872 522.978C938.348 531.444 945.889 540.004 953.927 554.824C958.62 563.478 960.08 566.921 960.181 569.572C960.209 570.305 960.645 573.153 961.15 575.901C962.482 583.139 962.856 589.606 962.372 596.999C962.138 600.576 962.209 604.841 962.53 606.478C963.03 609.029 962.961 609.844 962.052 612.182C961.469 613.683 960.155 616.23 959.132 617.842C958.108 619.455 956.191 622.978 954.87 625.672C949.814 635.985 942.997 644.885 934.298 652.528C931.808 654.714 929.723 656.682 929.665 656.899C929.55 657.33 934.638 664.58 935.153 664.718C935.699 664.865 941.496 660.022 945.605 655.985C954.534 647.214 960.39 638.381 967.037 623.655C971.434 613.915 971.635 613.216 972.097 606.012ZM960.702 605.928C960.255 604.885 960.194 602.745 960.519 599.607C961.455 590.592 961.226 584.231 959.612 574.433C958.127 565.419 957.867 564.665 953.26 556.037C945.507 541.517 937.852 532.925 925.291 524.645C922.801 523.004 919.657 520.765 918.303 519.67C915.653 517.525 909.741 514.366 907.004 513.633C906.076 513.384 904.432 513.3 903.351 513.445C902.26 513.592 899.899 513.312 898.046 512.815C894.008 511.734 884.374 510.79 879.348 510.984C877.333 511.063 872.555 511.604 868.731 512.188C864.908 512.772 860.068 513.484 857.977 513.769C855.886 514.056 853.344 514.54 852.326 514.845C849.333 515.743 843.061 519.926 840.105 522.996C838.596 524.563 836.55 526.399 835.558 527.076C830.463 530.557 823.265 537.649 818.82 543.568C816.033 547.278 811.086 555.497 809.358 559.286C808.614 560.918 808.647 561.009 810.347 562.058C811.314 562.655 812.578 563.269 813.157 563.424C813.735 563.579 814.143 563.949 814.063 564.246C813.969 564.597 812.877 564.442 810.936 563.803L807.954 562.822L806.863 564.377C805.29 566.62 804.462 570.028 803.853 576.763C802.965 586.595 802.796 590.592 803.092 594.658C803.247 596.791 803.187 599.965 802.958 601.712C802.395 605.992 803.122 609.306 805.683 614.145C806.863 616.376 809.072 620.818 810.592 624.017C816.678 636.831 826.588 648.225 838.398 655.99C841.074 657.749 845.11 660.497 847.366 662.096C852.489 665.727 855.991 667.118 859.892 667.073C861.494 667.055 864.728 667.399 867.079 667.837C876.566 669.607 883.701 669.633 897.933 667.947C906.404 666.943 910.645 665.788 914.292 663.493C915.785 662.553 919.184 660.529 921.845 658.994C924.507 657.458 926.742 655.986 926.813 655.722C926.884 655.458 926.615 655.005 926.215 654.715C925.816 654.426 925.646 654.098 925.837 653.987C926.029 653.877 926.563 654.14 927.024 654.573C927.781 655.281 928.342 654.929 932.717 650.995C941.784 642.843 948.342 634.431 952.956 625.035C954.249 622.402 956.3 618.733 957.513 616.881C960.381 612.507 961.652 608.142 960.702 605.928ZM932.166 681.266C924.228 685.949 914.473 689.402 901.484 692.128C886.711 695.228 873.808 695.296 861.834 692.338C857.716 691.321 853.517 690.59 851.493 690.539C846.642 690.415 845.087 689.873 842.387 687.365C840.99 686.066 838.075 684.19 835.345 682.831C814.181 672.298 797.614 655.318 787.594 633.887C784.825 627.967 780.775 616.35 779.78 611.476C779.107 608.179 778.01 597.856 777.935 594.11C777.897 592.234 777.75 591.922 777.115 592.372C776.5 592.807 776.465 594.794 776.948 602.032C777.604 611.883 778.058 614.558 780.4 622.339C785.329 638.717 793.748 653.672 804.479 665.11C812.599 673.767 823.699 682.071 834.173 687.328C836.972 688.732 839.683 690.425 840.197 691.088C841.934 693.334 844.166 694.24 848.877 694.613C851.262 694.801 856.042 695.48 859.5 696.121C879.235 699.776 895.749 698.525 915.823 691.853C925.347 688.688 929.843 686.558 935.506 682.531C938.785 680.199 939.213 679.722 939.027 678.609C938.824 677.399 938.521 677.516 932.166 681.266ZM937.272 671.437L935.885 668.891L931.476 671.658C920.778 678.374 920.769 678.377 911.677 680.674C900.334 683.539 897.304 684.132 891.066 684.708C883.759 685.382 875.707 685.025 865.946 683.592C861.294 682.909 856.77 682.504 855.893 682.692C851.815 683.564 847.872 682.066 844.444 678.342C843.297 677.095 840.457 675.094 837.321 673.324C818.135 662.489 803.887 646.119 795.477 625.245C794.215 622.115 792.535 618.237 791.742 616.63C790.075 613.252 789.162 609.053 789.28 605.314C789.326 603.875 789.259 599.882 789.131 596.441C788.961 591.84 788.689 590.126 788.104 589.965C786.787 589.601 781.532 590.399 780.064 591.186L778.69 591.922L779.066 597.384C779.91 609.671 781.627 617.106 786.306 628.741C795.498 651.597 813.228 670.924 835.244 682.087C838.567 683.773 841.621 685.722 843.239 687.193L845.857 689.574L851.658 689.913C855.707 690.15 858.149 690.544 859.745 691.215C864.767 693.329 879.32 694.352 889.494 693.307C899.072 692.322 912.211 689.049 922.78 685.015C924.957 684.184 929.417 681.84 932.692 679.806C939.408 675.635 939.484 675.498 937.272 671.437ZM946.732 614.91C945.962 615.644 944.292 618.329 943.021 620.876C938.999 628.935 933.652 636.008 927.116 641.918C925.476 643.401 923.107 645.58 921.854 646.759C919.337 649.127 913.218 652.561 910.437 653.166C909.456 653.38 906.602 654.393 904.096 655.418C897.799 657.994 896.412 658.321 890.045 658.728C882.203 659.231 877.276 659.114 871.82 658.295C869.224 657.905 865.398 657.6 863.318 657.618C856.711 657.674 853.352 656.273 849.919 652.033C849.041 650.948 846.912 649.141 845.188 648.016C840.922 645.233 835.397 640.326 831.562 635.914C827.83 631.621 822.809 623.54 820.737 618.492C819.933 616.536 818.4 613.232 817.331 611.152C816.261 609.072 815.115 605.986 814.783 604.295C814.134 600.987 814.154 600.121 815.142 588.76C815.499 584.647 815.834 579.385 815.886 577.068C815.996 572.127 816.916 568.256 818.244 567.142C818.764 566.706 820.308 564.1 821.676 561.35C826.762 551.126 834.036 542.019 841.274 536.814C842.508 535.926 844.651 534.046 846.034 532.638C849.153 529.463 856.794 524.463 860.345 523.275C861.809 522.784 864.318 522.382 865.921 522.38C867.524 522.378 872.313 522.257 876.562 522.112C885.699 521.798 888.793 521.972 895.244 523.158C897.895 523.646 901.829 524.11 903.985 524.19C910.226 524.422 914.65 526.72 917.402 531.161C918.101 532.29 921.005 535.197 923.855 537.622C926.705 540.046 930.046 543.135 931.279 544.488C934.493 548.009 942.606 559.652 943.966 562.693C948.26 572.294 950.555 586.774 949.407 597.03C949.155 599.285 948.956 603.22 948.965 605.775C948.986 611.417 948.557 613.172 946.732 614.91ZM931.057 661.852L928.58 657.602L922.978 660.97C910.063 668.738 909.49 668.959 898.691 670.352C884.796 672.145 878.23 672.178 868.212 670.505C865.155 669.994 861.026 669.529 859.038 669.471C854.829 669.349 851.511 668.008 846.465 664.389C844.832 663.218 841.26 660.752 838.526 658.909C824.412 649.393 815.896 639.047 807.666 621.42C806.301 618.495 804.516 614.692 803.7 612.969C801.826 609.013 801.139 605.149 801.664 601.538C801.89 599.985 802.066 596.22 802.056 593.169C802.016 581.257 804.296 566.277 806.661 562.903C807.261 562.049 807.133 561.806 805.613 560.906C804.661 560.343 802.119 559.259 799.965 558.497L796.047 557.111L794.639 560.148C793.864 561.818 792.906 564.395 792.51 565.873C791.042 571.351 789.108 589.172 789.957 589.4C790.183 589.46 790.184 589.761 789.961 590.068C789.738 590.375 789.697 592.798 789.871 595.453C790.044 598.107 790.1 601.83 789.997 603.725C789.766 607.925 790.504 611.659 792.4 615.874C793.188 617.625 794.715 621.179 795.793 623.77C804.851 645.547 818.756 661.069 838.988 671.989C841.625 673.413 844.283 675.182 844.894 675.922C847.662 679.272 852.388 681.249 855.781 680.475C857.642 680.05 861.709 680.346 868.46 681.398C877.156 682.752 890.1 682.47 898.523 680.741C907.885 678.82 920.708 674.911 922.832 673.331C923.957 672.493 926.791 670.64 929.128 669.213C931.466 667.785 933.414 666.502 933.456 666.36C933.499 666.219 932.42 664.191 931.057 661.852ZM968.341 516.967C963.986 511.483 958.725 506.05 951.597 499.671C945.631 494.332 944.061 493.21 937.419 489.541C933.311 487.272 927.623 484.346 924.779 483.039C891.687 467.835 851.166 471.236 821.125 491.739C805.352 502.504 792.63 517.084 783.36 535.018C781.602 538.418 779.629 542.607 778.974 544.327C777.827 547.337 777.823 547.48 778.867 548.082C781.137 549.391 782.612 549.497 783.147 548.391C787.371 539.649 789.286 536.146 792.554 531.187C799.355 520.865 807.035 512.55 816.731 505.012C819.508 502.854 822.466 500.44 823.305 499.649C825.302 497.765 829.035 495.759 835.005 493.363C837.67 492.292 840.044 491.234 840.281 491.012C840.976 490.357 851.199 486.778 856.947 485.176C862.492 483.631 872.664 482.273 880.544 482.024C886.844 481.825 894.023 482.381 903.011 483.763C915.338 485.658 917.665 486.205 920.759 487.934C922.307 488.798 926.599 491.071 930.296 492.985C944.685 500.431 954.935 508.471 964.617 519.902L968.295 524.245L969.011 522.862C969.405 522.102 969.966 521.408 970.257 521.321C971.295 521.009 970.977 520.286 968.341 516.967ZM946.602 605.513C946.613 603.34 946.794 600.895 947.002 600.08C947.641 597.588 947.895 589.499 947.494 584.379C946.779 575.234 944.091 565.252 940.966 560.142C938.233 555.671 931.405 546.757 928.726 544.16C927.228 542.708 924.066 540.031 921.699 538.212C919.146 536.249 916.729 533.902 915.754 532.438C912.994 528.293 909.168 526.609 902.531 526.622C900.503 526.626 897.031 526.303 894.815 525.904C889.473 524.941 883.364 524.705 875.269 525.149C871.613 525.349 868.253 525.414 867.802 525.293C867.351 525.172 865.8 525.152 864.357 525.248C861.009 525.471 851.91 530.389 848.193 533.985C846.766 535.366 844.68 537.103 843.556 537.846C836.052 542.807 828.149 551.935 823.355 561.177C822.041 563.709 820.466 566.31 819.854 566.957C817.524 569.42 817.02 570.824 816.887 575.219C816.817 577.535 816.59 581.522 816.383 584.079C816.176 586.636 816.017 589.918 816.028 591.372C816.039 592.826 815.896 595.504 815.711 597.323C815.525 599.141 815.635 601.963 815.954 603.593C816.964 608.753 826 625.565 830.972 631.535C834.792 636.124 840.936 641.573 846.25 645.088C848.593 646.637 851.447 649 852.59 650.339C855.415 653.644 857.624 654.447 863.877 654.44C866.597 654.437 871.39 654.755 874.529 655.146C882.535 656.144 894.384 655.466 899.368 653.726C901.45 652.999 904.856 651.815 906.936 651.094C914.93 648.326 916.552 647.423 921.677 642.887C931.02 634.616 936.348 628.04 940.843 619.232C942.202 616.572 943.866 613.977 944.544 613.467C946.104 612.29 946.575 610.47 946.602 605.513ZM962.775 525.879C953.473 514.386 943.026 505.976 928.592 498.36C925.03 496.481 920.827 494.252 919.251 493.407C915.925 491.623 912.556 490.64 908.147 490.168C906.421 489.983 902.285 489.358 898.956 488.778C887.806 486.838 873.555 486.941 862.458 489.041C857.433 489.992 842.804 494.417 842.638 495.036C842.601 495.175 845.502 494.321 849.086 493.138C857.947 490.212 864.201 489.017 873.717 488.43C883.184 487.846 889.768 488.215 900.495 489.93C913.737 492.047 913.969 492.102 917.257 493.883C918.967 494.808 923.283 497.09 926.849 498.953C941.499 506.608 953.663 516.486 962.159 527.631C963.682 529.629 965.036 531.293 965.167 531.328C965.299 531.364 965.503 531.002 965.621 530.526C965.745 530.026 964.541 528.061 962.775 525.879ZM961.232 528.746C951.362 516.487 941.113 508.247 925.724 500.196C922.286 498.398 917.949 496.128 916.085 495.153C913.22 493.654 912.014 493.29 908.27 492.795C905.835 492.473 901.328 491.773 898.254 491.238C885.634 489.045 871.449 489.147 859.948 491.512C849.157 493.732 829.106 501.605 825.306 505.115C824.296 506.048 822.002 507.844 820.209 509.107C808.591 517.29 796.939 531.043 789.896 544.887C788.425 547.78 787.201 550.22 787.177 550.311C787.143 550.437 792.856 553.034 795.812 554.235C796.033 554.325 797.433 551.964 798.921 548.989C805.096 536.644 812.996 526.772 823.915 517.756C825.64 516.331 828.022 514.12 829.207 512.841C832.038 509.789 839.649 505.412 845.062 503.724C847.438 502.983 852.239 501.467 855.731 500.356C863.308 497.945 867.139 497.096 873.529 496.412C882.294 495.474 887.57 495.852 905.685 498.714C914.964 500.18 917.885 501.201 921.661 504.302C923.155 505.528 925.424 506.985 926.704 507.539C929.874 508.911 938.548 514.695 943.015 518.416C947.79 522.393 952.497 527.228 956.676 532.451C958.525 534.762 960.265 536.876 960.542 537.15C961.084 537.684 963.824 535.084 964.257 533.626C964.399 533.147 963.138 531.112 961.232 528.746ZM935.589 609.951C935.012 611.162 931.688 616.647 928.436 621.755C924.667 627.675 918.689 633.655 911.168 639.029C906.235 642.554 903.238 643.723 894.135 645.673C886.242 647.364 880.547 647.471 872.38 646.083C870.575 645.776 867.367 645.408 865.252 645.264C861.034 644.978 859.282 644.302 857.089 642.113C856.292 641.318 854.195 639.592 852.43 638.279C847.697 634.756 843.849 631.185 840.655 627.35C837.713 623.818 829.001 608.393 827.545 604.14C826.524 601.158 826.373 597.122 827.169 594.129C827.498 592.892 827.949 588.484 828.171 584.335C828.624 575.857 829.513 571.697 831.422 569.11C832.137 568.141 833.682 565.62 834.854 563.509C837.987 557.866 840.59 554.436 845.965 548.875C854.581 539.956 859.828 536.887 869.676 535.005C876.628 533.675 882.825 533.682 891.224 535.029C895.169 535.663 899.236 536.149 900.263 536.111C901.289 536.073 903.588 536.412 905.37 536.864C909.332 537.869 911.491 539.642 913.406 543.464C914.212 545.072 916.125 547.412 918.252 549.39C923.207 553.999 931.328 564.527 932.783 568.229C936.376 577.369 938.661 597.438 936.974 605.045C936.519 607.1 935.895 609.307 935.589 609.951ZM934.436 594.866C934.329 585.545 934.108 582.925 932.892 576.587C932.195 572.952 931.062 569.09 930.223 567.491C927.747 562.769 921.533 555.274 916.06 550.405C914.109 548.67 912.06 546.335 911.508 545.218C909.382 540.917 906.3 539.569 898.568 539.559C895.944 539.556 891.529 539.209 888.757 538.788C877.627 537.099 863.333 539.557 856.48 544.338C853.521 546.402 844.218 554.624 841.868 557.252C840.2 559.118 834.137 567.866 831.76 571.839C830.228 574.401 829.807 577.014 829.317 587.017C829.163 590.168 828.782 594.121 828.47 595.799C827.606 600.441 828.398 602.961 833.32 611.24C840.094 622.633 844.051 626.991 853.949 633.958C856.742 635.925 859.555 638.015 860.201 638.603C861.548 639.83 864.195 640.654 866.149 640.456C866.886 640.381 869.736 640.663 872.482 641.085C880.966 642.386 886.761 642.218 895.04 640.431C903.396 638.628 906.414 637.214 912.901 632.061C917.903 628.087 923.052 622.454 926.172 617.541C927.485 615.473 928.915 613.403 929.35 612.94C930.9 611.287 933.157 606.341 933.82 603.144C934.19 601.357 934.468 597.631 934.436 594.866ZM923.339 605.596C922.867 606.476 921.451 608.353 920.192 609.766C918.933 611.18 916.777 613.883 915.401 615.773C910.972 621.855 903.253 627.777 896.427 630.329C891.498 632.172 884.033 632.906 877.545 632.186C874.66 631.866 871.571 631.665 870.68 631.74C867.838 631.979 863.464 630.888 861.165 629.367C859.987 628.589 857.929 626.532 856.591 624.797C855.253 623.062 853.091 620.49 851.788 619.08C848.331 615.342 846.145 611.832 843.843 606.325C840.803 599.049 840.694 598.529 840.701 591.386C840.712 579.99 841.011 577.476 842.713 574.453C844.54 571.207 850.918 563.027 853.619 560.466C854.728 559.414 856.419 557.56 857.377 556.347C859.95 553.086 863.802 551.313 872.11 549.561C880.59 547.773 882.043 547.722 889.607 548.939C902.094 550.948 907.75 553.342 909.006 557.148C909.639 559.068 913.231 563.405 916.174 565.802C918.875 568.002 921.245 572.736 922.086 577.61C922.503 580.022 922.971 582.488 923.126 583.09C923.281 583.692 923.523 585.775 923.663 587.72C923.804 589.664 924.14 592.621 924.41 594.29C924.872 597.144 924.871 602.137 924.408 603.419C924.293 603.737 923.812 604.716 923.339 605.596ZM922.881 592.387C920.843 574.046 919.725 570.145 915.466 566.512C912.366 563.867 908.93 559.734 908.196 557.769C907.725 556.506 906.815 555.567 904.988 554.46C902.138 552.734 895.964 550.96 893.098 551.045C892.075 551.075 890.214 550.825 888.963 550.489C887.711 550.154 885.434 549.78 883.903 549.658C880.778 549.409 866.018 552.101 863.007 553.469C861.932 553.957 859.555 555.974 857.726 557.951C852.586 563.506 845.193 572.048 843.867 573.963C842.296 576.232 841.431 579.594 841.499 583.173C841.528 584.768 841.496 588.325 841.427 591.076C841.27 597.264 841.69 599.284 844.397 605.386C846.912 611.055 849.429 614.959 852.744 618.336C854.062 619.678 856.03 621.91 857.118 623.295C858.206 624.68 859.967 626.529 861.032 627.404C863.301 629.267 867.486 630.564 869.696 630.09C870.528 629.911 872.691 629.996 874.503 630.278C880.713 631.245 887.347 631.011 893.397 629.611C900.358 628 909.518 621.394 914.72 614.233C916.169 612.238 918.16 609.753 919.144 608.711C923.245 604.37 923.896 601.523 922.881 592.387ZM918.592 607.507C917.26 609.037 915.427 611.38 914.518 612.714C910.668 618.361 903.109 624.728 897.253 627.254C891.523 629.726 884.061 630.59 876.841 629.617C874.432 629.292 871.651 629.142 870.66 629.283C866.43 629.885 861.11 627.06 858.052 622.588C857.335 621.54 856.002 619.922 855.09 618.992C851.932 615.772 848.506 610.727 846.756 606.721C843.812 599.98 843.278 597.622 843.481 592.254C843.585 589.507 843.561 586.453 843.428 585.467C842.98 582.146 844.2 577.097 846.111 574.365C849.275 569.844 853.587 564.513 855.626 562.6C856.739 561.555 858.158 559.927 858.778 558.981C860.648 556.132 865.125 554.055 872.446 552.642C881.255 550.943 882.362 550.9 889.118 551.995C900.47 553.837 905.988 556.114 907.073 559.403C907.669 561.213 910.916 565.295 913.561 567.56C916.596 570.157 918.673 574.575 919.744 580.708C920.257 583.65 920.747 587.05 920.831 588.263C920.915 589.477 921.243 592.271 921.56 594.472C921.904 596.868 921.91 599.731 921.574 601.601C921.075 604.383 920.748 605.031 918.592 607.507ZM920.35 595.996C920.151 593.971 919.857 590.735 919.698 588.806C918.797 577.882 916.687 571.428 912.999 568.311C910.312 566.041 906.922 561.905 906.182 559.995C905.653 558.631 904.9 557.943 902.72 556.834C899.941 555.419 898.066 554.975 888.058 553.364C881.805 552.358 880.788 552.413 872.058 554.239C864.818 555.753 861.268 557.389 859.905 559.838C859.58 560.423 857.88 562.254 856.128 563.907C854.377 565.56 852.894 567.097 852.833 567.323C852.773 567.549 851.094 569.701 849.103 572.105C844.915 577.16 844.008 579.644 844.217 585.468C844.285 587.373 844.283 590.524 844.211 592.47C844.041 597.104 844.536 599.229 847.168 605.162C849.44 610.282 851.937 614.04 855.226 617.287C856.284 618.332 858.046 620.333 859.141 621.734C862.544 626.085 866.703 628.234 870.686 627.697C871.71 627.559 873.876 627.646 875.501 627.89C882.371 628.921 891.644 628.05 896.525 625.916C902.229 623.422 909.915 616.901 913.238 611.737C913.838 610.803 915.475 608.791 916.877 607.264C920.048 603.808 920.859 601.174 920.35 595.996ZM911.62 603.792C911.107 604.526 909.877 605.74 908.888 606.491C907.899 607.241 905.917 609.204 904.485 610.852C900.859 615.027 893.241 619.466 888.099 620.401C883.283 621.277 878.438 620.989 872.316 619.463C865.647 617.8 864.158 616.8 860.647 611.622C855.145 603.51 852.803 597.662 852.78 591.984C852.774 590.386 852.588 588.014 852.367 586.714C851.616 582.286 853.467 578.221 859.207 571.69C864.838 565.286 869.672 562.176 875.925 560.936C879.258 560.275 880.677 560.306 885.636 561.144C894.173 562.586 898.988 564.361 902.352 567.306C907.559 571.865 910.68 579.3 912.426 591.305C913.411 598.073 913.186 601.555 911.62 603.792ZM910.462 590.845C908.896 576.683 904.783 568.798 897.348 565.706C893.638 564.163 882.841 562.319 879.152 562.599C872.074 563.136 866.677 566.342 859.387 574.338C855.32 578.8 853.584 581.805 853.554 584.438C853.439 594.556 853.879 597.477 856.268 602.458C857.736 605.52 863.516 613.289 865.423 614.765C867.308 616.224 876.918 618.386 881.779 618.445C889.909 618.544 897.097 615.379 902.737 609.218C904.489 607.305 906.194 605.657 906.525 605.558C906.858 605.458 907.74 604.794 908.487 604.083C910.831 601.848 911.318 598.59 910.462 590.845ZM900.718 599.552C898.956 602.366 894.848 606.297 891.909 607.981C888.313 610.041 884.475 610.679 879.054 610.116C875.212 609.717 873.23 608.741 869.508 605.417C864.215 600.688 861.342 590.736 863.233 583.678C864.597 578.585 871.474 572.998 878.158 571.554C882.08 570.706 888.864 572.038 892.818 574.433C897.038 576.989 901.68 583.963 902.687 589.261C903.234 592.138 902.298 597.028 900.718 599.552ZM900.486 588.311C899.701 584.596 895.541 577.911 892.924 576.158C885.928 571.474 878.56 571.653 871.492 576.68C868.371 578.9 865.682 582.417 864.914 585.284C864.239 587.802 864.18 593.015 864.793 595.891C866.027 601.677 871.447 606.902 877.257 607.908C881.464 608.636 887.819 607.642 890.945 605.767C893.707 604.109 897.929 599.71 899.3 597.061C900.568 594.611 901.056 591.01 900.486 588.311ZM894.963 599.95C893.087 602.677 889.161 605.076 885.763 605.569C883.162 605.948 882.358 605.824 878.085 604.396C872.594 602.561 870.45 600.829 868.724 596.837C865.796 590.068 867.831 583.366 874.014 579.418C878.236 576.721 882.017 576.07 886.491 577.269C889.416 578.053 890.336 578.568 892.935 580.872C894.668 582.409 896.392 584.493 896.958 585.735C898.593 589.322 897.65 596.043 894.963 599.95ZM895.231 587.667C894.494 584.3 889.282 579.634 884.931 578.447C881.825 577.599 877.406 578.402 874.75 580.296C868.417 584.811 867.971 596.002 873.908 601.388C875.959 603.248 882.137 604.992 884.75 604.448C888.168 603.737 891.031 601.721 893.099 598.569C894.26 596.798 895.662 589.634 895.231 587.667ZM891.061 598.01C887.823 601.858 884.893 602.7 879.635 601.291C875.433 600.165 873.681 598.9 872.214 595.931C870.045 591.542 870.438 586.867 873.26 583.487C876.271 579.879 881.89 578.317 885.983 579.949C888.903 581.114 892.337 584.341 893.394 586.913C894.548 589.721 893.387 595.244 891.061 598.01ZM892.331 588.292C891.462 584.323 886.024 580.644 881.427 580.915C874.697 581.311 870.216 587.983 872.438 594.298C873.763 598.06 874.98 599.208 879.034 600.517C882.088 601.503 882.962 601.586 884.954 601.077C887.431 600.444 889.731 598.626 891.062 596.248C892.107 594.38 892.763 590.266 892.331 588.292ZM841.287 495.496C841.199 495.472 840.426 495.919 839.57 496.487L838.013 497.521L839.687 496.691C841.252 495.914 841.674 495.6 841.287 495.496ZM836.091 497.798C835.123 498.159 834.302 498.564 834.266 498.7C834.229 498.835 834.991 498.651 835.959 498.29C836.927 497.929 837.748 497.524 837.785 497.388C837.821 497.253 837.059 497.437 836.091 497.798ZM831.814 499.29C831.72 499.265 831.088 499.63 830.408 500.101L829.173 500.958L830.533 500.317C831.81 499.714 832.208 499.396 831.814 499.29ZM789.262 584.916C789.891 574.841 791.852 564.708 794.152 559.651C794.74 558.358 795.196 557.266 795.166 557.226C795.136 557.185 793.01 556.446 790.444 555.583L785.777 554.013L784.566 557.233C783.901 559.004 782.814 561.561 782.151 562.917C781.221 564.818 780.885 566.294 780.677 569.382C780.53 571.583 780.043 576.136 779.595 579.499C778.442 588.156 778.584 590.864 780.116 589.422C780.517 589.045 784.492 588.824 787.497 589.013C788.282 589.063 788.947 589.02 788.974 588.919C789.002 588.817 789.131 587.016 789.262 584.916ZM778.015 585.408C778.076 582.583 778.975 573.131 779.899 565.595L780.244 562.785L779.512 566.019C778.628 569.926 777.171 580.633 776.765 586.214C776.603 588.446 776.455 590.327 776.437 590.395C776.419 590.462 776.625 590.577 776.896 590.65C777.573 590.831 777.935 589.136 778.015 585.408ZM775.319 576.506C776.163 568.602 777.457 562.938 779.748 557.111L781.157 553.531L778.605 553.029C776.116 552.539 776.034 552.568 775.245 554.213C772.26 560.436 767.904 589.354 769.483 592.467C769.604 592.704 770.752 592.563 772.036 592.153L774.37 591.407L774.448 587.676C774.49 585.624 774.882 580.597 775.319 576.506ZM782.771 557.519C782.522 557.957 782.28 558.842 782.234 559.486C782.187 560.13 782.391 559.772 782.687 558.69C782.983 557.608 783.021 557.081 782.771 557.519Z" fill="#2E5233"/>
</svg>
