<svg width="30" height="30" viewBox="0 0 30 30" fill="none" xmlns="http://www.w3.org/2000/svg">
<path d="M11.1914 24.7017C11.1914 25.9696 12.2165 27.0011 13.4765 27.0011C14.7365 27.0011 15.7617 25.9696 15.7617 24.7017C15.7617 23.4339 14.7365 22.4023 13.4765 22.4023C12.2165 22.4023 11.1914 23.4339 11.1914 24.7017ZM13.4765 23.9353C13.8965 23.9353 14.2382 24.2791 14.2382 24.7017C14.2382 25.1244 13.8965 25.4682 13.4765 25.4682C13.0565 25.4682 12.7148 25.1244 12.7148 24.7017C12.7148 24.2791 13.0565 23.9353 13.4765 23.9353Z" fill="#325837"/>
<path d="M18.8594 24.7017C18.8594 25.9696 19.8845 27.0011 21.1445 27.0011C22.4045 27.0011 23.4296 25.9696 23.4296 24.7017C23.4296 23.4339 22.4045 22.4023 21.1445 22.4023C19.8845 22.4023 18.8594 23.4339 18.8594 24.7017ZM21.1445 23.9353C21.5645 23.9353 21.9062 24.2791 21.9062 24.7017C21.9062 25.1244 21.5645 25.4682 21.1445 25.4682C20.7245 25.4682 20.3828 25.1244 20.3828 24.7017C20.3828 24.2791 20.7245 23.9353 21.1445 23.9353Z" fill="#325837"/>
<path d="M27.2379 6.06586H7.95741C7.6966 5.14717 7.45357 4.29119 7.24481 3.55594C7.15142 3.22687 6.85248 3 6.5124 3H2.76171C2.34104 3 2 3.34317 2 3.76646C2 4.18976 2.34104 4.53293 2.76171 4.53293H5.93782C6.78961 7.53318 8.78092 14.5465 9.61575 17.4867L9.32716 18.0674C8.56672 19.5979 9.6742 21.3951 11.3711 21.3951H24.1911C24.6117 21.3951 24.9528 21.052 24.9528 20.6287C24.9528 20.2054 24.6117 19.8622 24.1911 19.8622H11.3711C10.8046 19.8622 10.4367 19.2624 10.6898 18.753L10.9003 18.3293H24.1911C24.5311 18.3293 24.83 18.1025 24.9235 17.7734L27.9703 7.0429C28.1091 6.55415 27.7442 6.06586 27.2379 6.06586ZM23.6165 16.7964H11.0041C10.5891 15.3346 9.42755 11.2438 8.39265 7.59879H26.2281L23.6165 16.7964Z" fill="#325837"/>
</svg>
