<svg width="250" height="250" viewBox="0 0 250 250" fill="none" xmlns="http://www.w3.org/2000/svg">
<path fill-rule="evenodd" clip-rule="evenodd" d="M250 0H0V9V13V237V241V250H250V241V237V13V9V0ZM4.00031 132.569V13H4V237H125.883C125.685 237 125.487 236.999 125.289 236.997H126.479C126.281 236.999 126.083 237 125.885 237H246V236.997H126.479C146.541 236.762 163.989 224.714 180.884 213.048L180.884 213.048C183.161 211.476 185.427 209.911 187.689 208.382C189.444 207.196 191.213 206.013 192.986 204.827C211.845 192.213 231.156 179.297 239.782 158.579C249.588 135.004 246.491 108.485 239.461 83.9619C232.208 58.6512 222.801 30.5034 199.472 17.9704C183.833 9.5665 166.14 13.5131 148.231 17.5081C140.084 19.3255 131.891 21.153 123.827 21.832C116.92 22.4125 109.906 22.3296 102.936 22.2472C86.7672 22.0561 70.8289 21.8678 56.9756 29.9682C36.1381 42.1418 22.6375 63.4151 14.2044 85.8966C8.62255 100.777 4.04356 116.894 4.00031 132.569ZM4.00031 133.016C4.02425 141.666 5.44111 150.176 8.84552 158.266C15.8239 174.838 31.6821 184.121 47.5924 193.435C53.0592 196.635 58.5321 199.839 63.6531 203.343C68.5192 206.674 73.2439 210.385 77.9632 214.091L77.9635 214.092C92.0848 225.183 106.158 236.236 123.827 236.958C124.316 236.978 124.803 236.991 125.289 236.997H4.00031V133.016ZM4.00031 132.569V133.016C3.9999 132.867 3.9999 132.718 4.00031 132.569Z" fill="white"/>
</svg>
