<svg width="11" height="9" viewBox="0 0 11 9" fill="none" xmlns="http://www.w3.org/2000/svg">
<path fill-rule="evenodd" clip-rule="evenodd" d="M9.48703 0.0244677C9.11648 0.103106 8.92263 0.245106 8.57387 0.693333C8.43092 0.87704 7.45458 2.13843 6.40419 3.49644C5.3538 4.85443 4.46886 5.98368 4.43766 6.00589C4.39969 6.03291 4.36341 6.04206 4.32796 6.03357C4.2936 6.02537 3.91119 5.63607 3.24105 4.92714C2.67241 4.32557 2.1486 3.78173 2.07704 3.71859C1.93642 3.59452 1.74414 3.49375 1.55773 3.44647C1.40536 3.40783 1.08459 3.40798 0.928367 3.44675C0.524054 3.54713 0.182845 3.85477 0.0513441 4.23746C0.00809866 4.3633 -0.000937713 4.42997 7.34991e-05 4.61579C0.00145047 4.87405 0.0515808 5.04336 0.185254 5.24145C0.276651 5.37688 3.16728 8.4377 3.37382 8.61774C3.54431 8.76636 3.78478 8.89142 4.02341 8.95554C4.15788 8.99167 4.24704 9.00113 4.44173 8.9999C4.74417 8.99799 4.95194 8.95007 5.20095 8.8248C5.54731 8.65055 5.49698 8.7112 8.24268 5.15918C9.62445 3.37162 10.7862 1.85982 10.8243 1.79962C11.1151 1.34038 11.039 0.745519 10.6403 0.361023C10.5622 0.285686 10.4521 0.198476 10.3956 0.167226C10.1272 0.0187673 9.77482 -0.0366178 9.48703 0.0244677Z" fill="#A4C756"/>
</svg>
