<svg width="31" height="31" viewBox="0 0 31 31" fill="none" xmlns="http://www.w3.org/2000/svg">
<path d="M22.2836 10.397C22.2115 10.1311 22.0651 9.84772 21.9568 9.59963C20.6606 6.53415 17.8286 5.43555 15.542 5.43555C12.4808 5.43555 9.1093 7.45562 8.65918 11.6195V12.4702C8.65918 12.5057 8.67161 12.8246 8.68927 12.9841C8.9416 14.9685 10.5327 17.0775 11.7209 19.0618C12.9994 21.1879 14.3259 23.2794 15.6401 25.3699C16.4505 24.0057 17.258 22.6235 18.0499 21.2945C18.2658 20.9045 18.5163 20.5147 18.7324 20.1425C18.8764 19.8946 19.1515 19.6467 19.2772 19.4161C20.5556 17.1127 22.6132 14.7915 22.6132 12.5056V11.5665C22.6133 11.3187 22.3012 10.4505 22.2836 10.397ZM15.598 14.6675C14.6982 14.6675 13.7133 14.2247 13.2271 13.0019C13.1547 12.8072 13.1605 12.4171 13.1605 12.3814V11.8321C13.1605 10.2731 14.5055 9.56422 15.6756 9.56422C17.1161 9.56422 18.2302 10.6984 18.2302 12.1161C18.2302 13.5337 17.0385 14.6675 15.598 14.6675Z" fill="#F94F4F"/>
</svg>
