<svg width="18" height="18" viewBox="0 0 18 18" fill="none" xmlns="http://www.w3.org/2000/svg">
<path d="M15.4005 16.0689C15.3122 16.0689 15.2249 16.0515 15.1434 16.0177C15.0619 15.9839 14.9879 15.9343 14.9257 15.8718L2.77111 3.71884C2.64504 3.59278 2.57422 3.42179 2.57422 3.24351C2.57422 3.06523 2.64504 2.89424 2.77111 2.76818C2.89717 2.64211 3.06816 2.57129 3.24644 2.57129C3.42472 2.57129 3.59571 2.64211 3.72177 2.76818L15.8763 14.9227C15.97 15.0167 16.0337 15.1363 16.0595 15.2665C16.0852 15.3967 16.0719 15.5315 16.0211 15.6541C15.9703 15.7767 15.8844 15.8815 15.7741 15.9553C15.6639 16.0292 15.5342 16.0687 15.4015 16.0689H15.4005Z" fill="#6B6969"/>
<path d="M3.24994 16.0689C3.11716 16.0689 2.98736 16.0295 2.87693 15.9558C2.76651 15.8821 2.6804 15.7773 2.62948 15.6546C2.57857 15.532 2.56513 15.397 2.59086 15.2668C2.6166 15.1365 2.68035 15.0168 2.77407 14.9227L14.9286 2.76818C14.991 2.70576 15.0651 2.65624 15.1467 2.62246C15.2283 2.58868 15.3157 2.57129 15.4039 2.57129C15.4922 2.57129 15.5796 2.58868 15.6612 2.62246C15.7428 2.65624 15.8169 2.70576 15.8793 2.76818C15.9417 2.8306 15.9912 2.9047 16.025 2.98626C16.0588 3.06782 16.0762 3.15523 16.0762 3.24351C16.0762 3.33179 16.0588 3.4192 16.025 3.50076C15.9912 3.58232 15.9417 3.65642 15.8793 3.71884L3.72474 15.8734C3.66234 15.9356 3.58829 15.9849 3.50682 16.0184C3.42534 16.052 3.33805 16.0691 3.24994 16.0689V16.0689Z" fill="#6B6969"/>
</svg>
