<svg width="28" height="28" viewBox="0 0 28 28" fill="none" xmlns="http://www.w3.org/2000/svg">
<path d="M23.9519 24.9963C23.8147 24.9963 23.6788 24.9693 23.552 24.9166C23.4253 24.864 23.3102 24.7869 23.2134 24.6897L4.30627 5.78508C4.11017 5.58898 4 5.32301 4 5.04568C4 4.76835 4.11017 4.50237 4.30627 4.30627C4.50238 4.11017 4.76835 4 5.04568 4C5.32301 4 5.58898 4.11017 5.78509 4.30627L24.6922 23.2133C24.8379 23.3596 24.937 23.5456 24.9771 23.7481C25.0172 23.9506 24.9964 24.1604 24.9174 24.3511C24.8384 24.5418 24.7047 24.7048 24.5332 24.8196C24.3617 24.9345 24.16 24.9959 23.9536 24.9963H23.9519Z" fill="#325837"/>
<path d="M5.04895 24.9963C4.8424 24.9962 4.6405 24.935 4.46872 24.8203C4.29694 24.7056 4.163 24.5426 4.0838 24.3519C4.0046 24.1611 3.98369 23.9511 4.02372 23.7485C4.06375 23.5459 4.16292 23.3597 4.30871 23.2133L23.2158 4.30627C23.3129 4.20917 23.4282 4.13215 23.555 4.0796C23.6819 4.02705 23.8179 4 23.9552 4C24.0925 4 24.2285 4.02705 24.3554 4.0796C24.4822 4.13215 24.5975 4.20917 24.6946 4.30627C24.7917 4.40337 24.8687 4.51865 24.9213 4.64551C24.9738 4.77238 25.0009 4.90836 25.0009 5.04568C25.0009 5.183 24.9738 5.31897 24.9213 5.44584C24.8687 5.57271 24.7917 5.68798 24.6946 5.78508L5.78752 24.6922C5.69047 24.7889 5.57528 24.8656 5.44854 24.9178C5.3218 24.97 5.18601 24.9967 5.04895 24.9963Z" fill="#325837"/>
</svg>
