<svg width="508" height="487" viewBox="0 0 508 487" fill="none" xmlns="http://www.w3.org/2000/svg">
<path fill-rule="evenodd" clip-rule="evenodd" d="M210.017 53.0665C162.244 65.6038 134.715 110.956 107.719 152.315C78.4143 197.209 42.1047 243.513 51.2195 296.345C60.8671 352.265 89.6312 399.252 140.128 425.14C188.385 449.88 258.024 441.623 310.872 429.462C366.375 416.689 427.722 402.827 456.811 353.862C486.1 304.561 476.019 241.381 454.083 188.398C434.787 141.792 391.446 113.893 347.331 89.4315C304.283 65.5619 257.627 40.5716 210.017 53.0665Z" fill="#EDF4DD"/>
<path d="M172.71 248.32C172.715 260.471 176.147 272.375 182.611 282.665C189.074 292.955 198.309 301.213 209.254 306.492C220.198 311.771 232.41 313.857 244.487 312.511C256.563 311.164 268.016 306.439 277.529 298.879C287.042 291.318 294.23 281.228 298.268 269.767C302.307 258.306 303.031 245.939 300.359 234.085C297.687 222.231 291.727 211.371 283.162 202.751C274.597 194.131 263.775 188.101 251.938 185.352C251.054 185.148 250.125 185.304 249.356 185.784C248.586 186.265 248.039 187.032 247.835 187.916C247.631 188.8 247.786 189.729 248.267 190.498C248.748 191.268 249.514 191.815 250.398 192.019C263.983 195.182 275.963 203.156 284.124 214.467C292.286 225.778 296.077 239.661 294.797 253.55C293.517 267.439 287.252 280.395 277.161 290.024C267.07 299.653 253.834 305.303 239.9 305.93C225.967 306.557 212.277 302.12 201.361 293.437C190.445 284.754 183.042 272.413 180.519 258.695C177.996 244.977 180.524 230.81 187.636 218.812C194.748 206.813 205.963 197.795 219.208 193.423C219.636 193.283 220.031 193.061 220.373 192.768C220.714 192.475 220.994 192.117 221.197 191.716C221.4 191.315 221.522 190.877 221.556 190.429C221.59 189.98 221.535 189.53 221.395 189.102C221.254 188.675 221.031 188.28 220.737 187.939C220.444 187.598 220.086 187.318 219.684 187.116C219.282 186.914 218.845 186.792 218.396 186.759C217.948 186.726 217.497 186.782 217.07 186.923C204.155 191.186 192.914 199.415 184.949 210.439C176.984 221.463 172.701 234.719 172.71 248.32V248.32Z" fill="#325837"/>
<path d="M237.322 159.75C219.804 159.75 202.68 164.944 188.114 174.677C173.548 184.409 162.196 198.242 155.492 214.427C148.788 230.611 147.034 248.42 150.451 265.602C153.869 282.783 162.305 298.565 174.692 310.952C188.939 325.192 207.613 334.153 227.635 336.359C247.657 338.565 267.833 333.884 284.838 323.088L285.346 322.765L329.487 366.905C331.222 368.64 333.281 370.016 335.547 370.955C337.814 371.893 340.243 372.377 342.696 372.377C345.149 372.377 347.578 371.893 349.845 370.955C352.111 370.016 354.17 368.64 355.905 366.905C357.64 365.171 359.016 363.111 359.954 360.845C360.893 358.579 361.376 356.149 361.376 353.696C361.376 351.243 360.893 348.814 359.954 346.548C359.016 344.281 357.64 342.222 355.905 340.487L311.764 296.347L312.088 295.839C320.597 282.445 325.352 267.012 325.857 251.152C326.361 235.293 322.597 219.588 314.956 205.681C307.316 191.774 296.08 180.174 282.423 172.094C268.767 164.014 253.19 159.751 237.322 159.75V159.75ZM304.545 294.828C304.088 295.487 303.877 296.285 303.949 297.084C304.02 297.882 304.371 298.63 304.938 299.196L351.067 345.326C353.278 347.548 354.517 350.556 354.513 353.691C354.509 356.825 353.263 359.83 351.046 362.047C348.83 364.263 345.825 365.51 342.69 365.514C339.556 365.518 336.548 364.278 334.326 362.067L288.196 315.938C287.623 315.383 286.877 315.04 286.081 314.969C285.286 314.897 284.491 315.1 283.828 315.545C267.047 327.152 246.532 332.063 226.315 329.313C206.098 326.563 187.64 316.351 174.569 300.683C161.498 285.016 154.76 265.027 155.678 244.644C156.596 224.262 165.104 204.959 179.53 190.53C193.959 176.104 213.261 167.596 233.644 166.678C254.027 165.76 274.016 172.499 289.683 185.569C305.35 198.64 315.562 217.098 318.312 237.315C321.062 257.533 316.151 278.048 304.545 294.828V294.828Z" fill="#325837"/>
<path d="M261.974 268.137L242.159 248.323L261.974 228.508C262.292 228.191 262.545 227.814 262.717 227.398C262.89 226.983 262.979 226.538 262.979 226.089C262.979 225.639 262.891 225.194 262.719 224.778C262.547 224.363 262.295 223.986 261.977 223.668C261.659 223.35 261.282 223.098 260.866 222.926C260.451 222.754 260.006 222.665 259.556 222.666C259.107 222.666 258.661 222.755 258.246 222.927C257.831 223.099 257.454 223.352 257.136 223.67L237.322 243.483L217.508 223.67C216.856 223.048 215.99 222.701 215.089 222.701C214.188 222.701 213.321 223.048 212.669 223.67C212.028 224.312 211.667 225.182 211.667 226.089C211.667 226.997 212.028 227.867 212.669 228.508L232.482 248.323L212.669 268.137C212.028 268.778 211.667 269.648 211.667 270.556C211.667 271.463 212.028 272.333 212.669 272.975C213.322 273.596 214.188 273.943 215.089 273.943C215.989 273.943 216.856 273.596 217.508 272.975L237.321 253.161L257.133 272.975C257.786 273.596 258.653 273.943 259.554 273.943C260.455 273.943 261.322 273.596 261.974 272.975C262.614 272.332 262.974 271.463 262.974 270.556C262.974 269.649 262.614 268.779 261.974 268.137V268.137Z" fill="#325837"/>
<path d="M234.385 190.998C235.176 190.998 235.949 190.763 236.607 190.324C237.265 189.884 237.777 189.259 238.08 188.528C238.383 187.798 238.462 186.993 238.307 186.218C238.153 185.442 237.772 184.729 237.213 184.17C236.653 183.61 235.941 183.229 235.165 183.075C234.389 182.921 233.585 183 232.854 183.302C232.123 183.605 231.498 184.118 231.059 184.775C230.619 185.433 230.384 186.206 230.384 186.997C230.386 188.058 230.808 189.074 231.558 189.824C232.308 190.574 233.324 190.996 234.385 190.998Z" fill="#325837"/>
</svg>
