<svg width="36" height="36" viewBox="0 0 36 36" fill="none" xmlns="http://www.w3.org/2000/svg">
<path d="M28.3125 10.9324H7.6875C7.50516 10.9324 7.3303 10.8306 7.20136 10.6494C7.07243 10.4682 7 10.2225 7 9.96621C7 9.70995 7.07243 9.4642 7.20136 9.283C7.3303 9.1018 7.50516 9 7.6875 9H28.3125C28.4948 9 28.6697 9.1018 28.7986 9.283C28.9276 9.4642 29 9.70995 29 9.96621C29 10.2225 28.9276 10.4682 28.7986 10.6494C28.6697 10.8306 28.4948 10.9324 28.3125 10.9324Z" fill="#325837"/>
<path d="M28.3125 18.8641H7.6875C7.50516 18.8641 7.3303 18.7623 7.20136 18.5811C7.07243 18.3999 7 18.1541 7 17.8978C7 17.6416 7.07243 17.3958 7.20136 17.2146C7.3303 17.0334 7.50516 16.9316 7.6875 16.9316H28.3125C28.4948 16.9316 28.6697 17.0334 28.7986 17.2146C28.9276 17.3958 29 17.6416 29 17.8978C29 18.1541 28.9276 18.3999 28.7986 18.5811C28.6697 18.7623 28.4948 18.8641 28.3125 18.8641Z" fill="#325837"/>
<path d="M28.3125 26.7977H7.6875C7.50516 26.7977 7.3303 26.6959 7.20136 26.5147C7.07243 26.3335 7 26.0877 7 25.8314C7 25.5752 7.07243 25.3294 7.20136 25.1482C7.3303 24.967 7.50516 24.8652 7.6875 24.8652H28.3125C28.4948 24.8652 28.6697 24.967 28.7986 25.1482C28.9276 25.3294 29 25.5752 29 25.8314C29 26.0877 28.9276 26.3335 28.7986 26.5147C28.6697 26.6959 28.4948 26.7977 28.3125 26.7977Z" fill="#325837"/>
</svg>
