<svg width="16" height="58" viewBox="0 0 16 58" fill="none" xmlns="http://www.w3.org/2000/svg">
<g opacity="0.3">
<path d="M8 0C3.58871 0 0 3.51276 0 7.83071V18.1693C0 22.4872 3.58871 26 8 26C12.4113 26 16 22.4872 16 18.1693V7.83071C16 3.51276 12.4113 0 8 0ZM15.0588 18.1693C15.0588 21.9792 11.8922 25.0787 8 25.0787C4.10776 25.0787 0.941177 21.9792 0.941177 18.1693V7.83071C0.941177 4.02084 4.10776 0.92126 8 0.92126C11.8922 0.92126 15.0588 4.02084 15.0588 7.83071V18.1693Z" fill="#2C312C"/>
<path d="M8.52757 5.29297H7.46875V9.52826H8.52757V5.29297Z" fill="#2C312C"/>
<path opacity="0.9" d="M7.64645 57.3536C7.84171 57.5488 8.15829 57.5488 8.35355 57.3536L11.5355 54.1716C11.7308 53.9763 11.7308 53.6597 11.5355 53.4645C11.3403 53.2692 11.0237 53.2692 10.8284 53.4645L8 56.2929L5.17157 53.4645C4.97631 53.2692 4.65973 53.2692 4.46447 53.4645C4.2692 53.6597 4.2692 53.9763 4.46447 54.1716L7.64645 57.3536ZM7.5 38L7.5 57L8.5 57L8.5 38L7.5 38Z" fill="#2C312C"/>
</g>
</svg>
