<svg width="48" height="50" viewBox="0 0 48 50" fill="none" xmlns="http://www.w3.org/2000/svg">
<g clip-path="url(#clip0_675_8)">
<path d="M31.0406 24.0405L24.8183 24.0593V17.9594C24.8183 17.4279 24.3904 17 23.8589 17C23.3276 17 22.8996 17.4279 22.8996 17.9594L22.9184 24.0406H16.9594C16.4279 24.0406 16 24.4685 16 25C16 25.5313 16.4279 25.9592 16.9594 25.9592H22.909V32.0406C22.909 32.5718 23.3368 33 23.8683 33C24.3998 33 24.8277 32.5718 24.8277 32.0406V25.9594H31.0406C31.5721 25.9594 32 25.5312 32 25C32 24.4683 31.5673 24.0405 31.0406 24.0405Z" fill="#2C312C"/>
</g>
<defs>
<clipPath id="clip0_675_8">
<rect width="48" height="50" fill="white"/>
</clipPath>
</defs>
</svg>
