<svg width="75" height="68" viewBox="0 0 75 68" fill="none" xmlns="http://www.w3.org/2000/svg">
<path fill-rule="evenodd" clip-rule="evenodd" d="M37.9597 3.87716C44.9849 4.06043 52.0517 -1.22773 58.4231 1.78533C65.0814 4.93401 68.365 12.5319 70.9956 19.4998C73.7497 26.795 76.8061 35.0639 73.682 42.2035C70.6159 49.2107 61.6439 50.4898 55.4919 54.9309C49.4365 59.3023 45.3816 67.6929 37.9597 67.9909C30.516 68.2898 25.1905 61.1323 19.3913 56.3804C13.9236 51.9001 8.38857 47.5973 5.2677 41.2029C1.74887 33.9931 -1.47397 25.8444 0.712703 18.1093C2.92487 10.2841 9.2194 3.56274 16.7185 0.697326C23.5855 -1.92656 30.6258 3.68583 37.9597 3.87716Z" fill="#EDF4DD"/>
<g clip-path="url(#clip0_853_1123)">
<path d="M30.0681 46.5568L30.0679 46.5567L19.8905 36.3792L19.8903 36.3791C18.3699 34.8594 18.3699 32.3918 19.8903 30.8721L19.8906 30.8718C21.4103 29.3515 23.8779 29.3513 25.3986 30.872L25.3986 30.872L31.4624 36.9349L31.4629 36.9354C32.2137 37.6848 33.4305 37.684 34.1815 36.9359L34.1825 36.9349L50.6014 20.516L50.6015 20.5158C52.1212 18.9954 54.5888 18.9953 56.1095 20.516C56.8397 21.2461 57.25 22.237 57.25 23.2696C57.25 24.3022 56.8397 25.293 56.1095 26.0232L35.5761 46.5567C34.0554 48.0774 31.5877 48.0772 30.0681 46.5568Z" fill="#A4C756" stroke="#EDF4DD" stroke-width="1.5"/>
</g>
<defs>
<clipPath id="clip0_853_1123">
<rect width="40" height="40" fill="white" transform="translate(18 13.5361)"/>
</clipPath>
</defs>
</svg>
