<svg width="76" height="71" viewBox="0 0 76 71" fill="none" xmlns="http://www.w3.org/2000/svg">
<path fill-rule="evenodd" clip-rule="evenodd" d="M38.5211 0.392142C45.346 1.43136 50.2098 6.68703 56.0362 10.347C62.3756 14.3293 70.832 16.0541 74.0931 22.7376C77.4748 29.6683 75.8721 38.0556 73.0562 45.2286C70.3457 52.133 64.7805 57.2395 58.7963 61.7028C52.7028 66.2477 46.1516 71.2903 38.5211 70.987C30.9909 70.6876 24.8528 65.2713 19.3983 60.1368C14.5471 55.5704 12.3088 49.4432 9.3343 43.5129C5.73104 36.3288 -1.26232 29.741 0.19749 21.8549C1.68117 13.8398 9.40778 8.3598 16.5857 4.33989C23.2126 0.628561 30.9914 -0.754401 38.5211 0.392142Z" fill="#F9E1DE"/>
<mask id="path-2-inside-1_853_1208" fill="white">
<path fill-rule="evenodd" clip-rule="evenodd" d="M47.9513 48.9879C48.4805 49.5128 49.195 49.8087 49.9404 49.8119C50.7238 49.8936 51.5058 49.6466 52.1 49.1299C52.1456 49.0872 52.1897 49.0432 52.2323 48.9976C53.3049 47.8519 53.2457 46.0537 52.1 44.9811L42.0113 34.9514L52.1004 24.8624C52.9942 23.76 52.9377 22.1673 51.9681 21.131C50.8958 19.9851 49.0976 19.9254 47.9517 20.9977L37.9929 30.9565L27.8326 20.8557C26.7688 19.9446 25.1998 19.9446 24.1359 20.8557C22.9439 21.8765 22.8051 23.6704 23.8259 24.8624L33.9565 34.993L23.8263 45.1232C22.7246 46.2315 22.7246 48.0215 23.8263 49.1299C24.385 49.6101 25.1083 49.8546 25.8439 49.8118C26.5697 49.8472 27.2815 49.6032 27.8329 49.1299L37.9631 38.9997L47.9513 48.9879Z"/>
</mask>
<path fill-rule="evenodd" clip-rule="evenodd" d="M47.9513 48.9879C48.4805 49.5128 49.195 49.8087 49.9404 49.8119C50.7238 49.8936 51.5058 49.6466 52.1 49.1299C52.1456 49.0872 52.1897 49.0432 52.2323 48.9976C53.3049 47.8519 53.2457 46.0537 52.1 44.9811L42.0113 34.9514L52.1004 24.8624C52.9942 23.76 52.9377 22.1673 51.9681 21.131C50.8958 19.9851 49.0976 19.9254 47.9517 20.9977L37.9929 30.9565L27.8326 20.8557C26.7688 19.9446 25.1998 19.9446 24.1359 20.8557C22.9439 21.8765 22.8051 23.6704 23.8259 24.8624L33.9565 34.993L23.8263 45.1232C22.7246 46.2315 22.7246 48.0215 23.8263 49.1299C24.385 49.6101 25.1083 49.8546 25.8439 49.8118C26.5697 49.8472 27.2815 49.6032 27.8329 49.1299L37.9631 38.9997L47.9513 48.9879Z" fill="white"/>
<path d="M49.9404 49.8119L50.0442 48.8173L49.9946 48.8121L49.9447 48.8119L49.9404 49.8119ZM47.9513 48.9879L47.2442 49.695L47.2471 49.6978L47.9513 48.9879ZM52.1 49.1299L52.7562 49.8845L52.7701 49.8724L52.7835 49.8599L52.1 49.1299ZM52.2323 48.9976L52.9623 49.6811L52.9623 49.681L52.2323 48.9976ZM52.1 44.9811L51.395 45.6903L51.4056 45.7008L51.4166 45.7111L52.1 44.9811ZM42.0113 34.9514L41.3042 34.2443L40.595 34.9535L41.3063 35.6606L42.0113 34.9514ZM52.1004 24.8624L52.8075 25.5695L52.8443 25.5327L52.8771 25.4922L52.1004 24.8624ZM51.9681 21.131L52.6983 20.4478L52.6983 20.4477L51.9681 21.131ZM47.9517 20.9977L47.2684 20.2676L47.2563 20.2789L47.2445 20.2906L47.9517 20.9977ZM37.9929 30.9565L37.2879 31.6657L37.995 32.3687L38.7 31.6636L37.9929 30.9565ZM27.8326 20.8557L28.5376 20.1465L28.5112 20.1203L28.483 20.0961L27.8326 20.8557ZM24.1359 20.8557L23.4854 20.0961L23.4854 20.0961L24.1359 20.8557ZM23.8259 24.8624L23.0663 25.5128L23.0914 25.5421L23.1188 25.5695L23.8259 24.8624ZM33.9565 34.993L34.6636 35.7001L35.3707 34.993L34.6636 34.2859L33.9565 34.993ZM23.8263 45.1232L23.1192 44.416L23.1171 44.4181L23.8263 45.1232ZM23.8263 49.1299L23.1171 49.8349L23.1448 49.8626L23.1745 49.8882L23.8263 49.1299ZM25.8439 49.8118L25.8925 48.813L25.8392 48.8104L25.7858 48.8135L25.8439 49.8118ZM27.8329 49.1299L28.4842 49.8887L28.5131 49.8639L28.54 49.837L27.8329 49.1299ZM37.9631 38.9997L38.6702 38.2926L37.9631 37.5855L37.256 38.2926L37.9631 38.9997ZM49.9447 48.8119C49.4615 48.8098 48.9984 48.618 48.6555 48.2779L47.2471 49.6978C47.9627 50.4076 48.9285 50.8076 49.9362 50.8119L49.9447 48.8119ZM51.4438 48.3753C51.0588 48.7102 50.5519 48.8702 50.0442 48.8173L49.8367 50.8065C50.8956 50.9169 51.9528 50.5831 52.7562 49.8845L51.4438 48.3753ZM51.5024 48.3141C51.4747 48.3437 51.4461 48.3723 51.4165 48.3999L52.7835 49.8599C52.8451 49.8022 52.9047 49.7426 52.9623 49.6811L51.5024 48.3141ZM51.4166 45.7111C52.1591 46.4062 52.1975 47.5717 51.5023 48.3141L52.9623 49.681C54.4124 48.1322 54.3323 45.7011 52.7835 44.2511L51.4166 45.7111ZM41.3063 35.6606L51.395 45.6903L52.805 44.2719L42.7164 34.2423L41.3063 35.6606ZM51.3933 24.1553L41.3042 34.2443L42.7184 35.6586L52.8075 25.5695L51.3933 24.1553ZM51.2379 21.8142C51.8663 22.4859 51.9029 23.5182 51.3237 24.2326L52.8771 25.4922C54.0855 24.0019 54.0091 21.8487 52.6983 20.4478L51.2379 21.8142ZM48.6349 21.7279C49.3776 21.0329 50.543 21.0716 51.2379 21.8143L52.6983 20.4477C51.2486 18.8985 48.8176 18.818 47.2684 20.2676L48.6349 21.7279ZM38.7 31.6636L48.6588 21.7048L47.2445 20.2906L37.2858 30.2494L38.7 31.6636ZM27.1275 21.5648L37.2879 31.6657L38.6979 30.2474L28.5376 20.1465L27.1275 21.5648ZM24.7863 21.6152C25.4759 21.0247 26.4927 21.0248 27.1821 21.6152L28.483 20.0961C27.0448 18.8644 24.9237 18.8645 23.4854 20.0961L24.7863 21.6152ZM24.5854 24.2119C23.9239 23.4394 24.0138 22.2768 24.7864 21.6152L23.4854 20.0961C21.874 21.4762 21.6863 23.9013 23.0663 25.5128L24.5854 24.2119ZM34.6636 34.2859L24.533 24.1553L23.1188 25.5695L33.2494 35.7001L34.6636 34.2859ZM24.5334 45.8303L34.6636 35.7001L33.2494 34.2859L23.1192 44.4161L24.5334 45.8303ZM24.5355 48.4248C23.8215 47.7066 23.8215 46.5465 24.5355 45.8282L23.1171 44.4181C21.6276 45.9165 21.6276 48.3365 23.1171 49.8349L24.5355 48.4248ZM25.7858 48.8135C25.3091 48.8412 24.8403 48.6828 24.4782 48.3715L23.1745 49.8882C23.9297 50.5374 24.9076 50.868 25.9019 50.8102L25.7858 48.8135ZM27.1816 48.371C26.8242 48.6778 26.363 48.836 25.8925 48.813L25.7952 50.8107C26.7765 50.8585 27.7387 50.5285 28.4842 49.8887L27.1816 48.371ZM37.256 38.2926L27.1258 48.4227L28.54 49.837L38.6702 39.7068L37.256 38.2926ZM48.6584 48.2808L38.6702 38.2926L37.256 39.7068L47.2442 49.695L48.6584 48.2808Z" fill="#F9E1DE" mask="url(#path-2-inside-1_853_1208)"/>
</svg>
