<svg width="499" height="471" viewBox="0 0 499 471" fill="none" xmlns="http://www.w3.org/2000/svg">
<path fill-rule="evenodd" clip-rule="evenodd" d="M275.854 35.1612C326.616 43.4398 359.686 87.432 391.804 127.368C426.668 170.718 468.933 214.84 464.778 270.069C460.381 328.527 435.279 379.643 385.542 411.157C338.012 441.272 265.018 439.511 209.034 432.109C150.238 424.336 85.2753 416.007 50.2269 368.449C14.9376 320.565 19.0574 254.597 36.4835 197.972C51.8122 148.163 93.9316 115.273 137.198 85.8453C179.418 57.1289 225.264 26.9108 275.854 35.1612Z" fill="#EDF4DD"/>
<path fill-rule="evenodd" clip-rule="evenodd" d="M208.495 148.189C210.147 148.189 211.494 146.842 211.494 145.189C211.494 143.537 210.147 142.189 208.495 142.189C206.842 142.189 205.494 143.537 205.494 145.189C205.494 146.842 206.842 148.189 208.495 148.189Z" fill="#325837"/>
<path d="M181.625 319.162C183.102 319.162 184.298 317.966 184.298 316.489C184.298 315.013 183.102 313.816 181.625 313.816C180.149 313.816 178.952 315.013 178.952 316.489C178.952 317.966 180.149 319.162 181.625 319.162Z" fill="#325837"/>
<path fill-rule="evenodd" clip-rule="evenodd" d="M151.529 349.123L171.377 356.566C209.517 370.869 229.024 378.183 229.356 378.304C229.902 378.497 230.497 378.503 231.047 378.323L231.156 378.29L318.549 349.157C319.082 348.98 319.545 348.64 319.873 348.184C320.202 347.729 320.378 347.182 320.378 346.621V268.268L350.582 258.776C351.02 258.638 351.415 258.39 351.73 258.055C352.044 257.72 352.267 257.309 352.376 256.863C352.486 256.417 352.478 255.95 352.355 255.507C352.231 255.065 351.996 254.661 351.671 254.336L321.486 224.151L351.671 193.966C351.997 193.64 352.233 193.235 352.356 192.791C352.48 192.348 352.486 191.879 352.375 191.432C352.264 190.985 352.04 190.574 351.723 190.24C351.407 189.905 351.009 189.657 350.569 189.521L279.729 167.657L279.386 166.558C276.528 157.422 270.915 149.393 263.316 143.571C255.718 137.75 246.505 134.419 236.94 134.037C230.616 133.784 224.343 134.828 218.494 137.066C218.494 137.066 215.967 138.121 216.994 140.689C217.944 143.064 220.994 141.796 220.994 141.796C227.625 139.374 234.812 138.686 241.86 139.865C251.451 141.468 260.162 146.424 266.442 153.849C272.722 161.274 276.163 170.687 276.152 180.412C276.153 185.805 275.091 191.146 273.028 196.128C270.964 201.111 267.939 205.638 264.126 209.452C260.312 213.265 255.785 216.29 250.802 218.354C245.82 220.417 240.479 221.479 235.086 221.478C228.547 221.474 222.103 219.908 216.291 216.913C210.478 213.917 205.464 209.578 201.665 204.256C197.867 198.933 195.393 192.781 194.45 186.31C193.506 179.839 194.121 173.237 196.242 167.051C197.515 163.336 199.305 159.851 201.536 156.689C201.536 156.689 203.209 154.327 201.536 152.689C199.494 150.689 197.492 153.189 197.492 153.189C195.29 156.23 193.452 159.543 192.033 163.065L191.645 164.027L191.315 164.13L109.877 189.524C109.438 189.661 109.041 189.909 108.726 190.244C108.411 190.579 108.188 190.99 108.078 191.437C107.968 191.883 107.975 192.351 108.098 192.794C108.222 193.237 108.458 193.641 108.783 193.966L139.382 224.565L119.966 256.927C119.76 257.27 119.634 257.655 119.597 258.054C119.559 258.452 119.612 258.854 119.751 259.23C119.89 259.605 120.111 259.945 120.399 260.223C120.687 260.501 121.033 260.712 121.413 260.838L149.795 270.298V346.621C149.797 347.164 149.963 347.695 150.273 348.142C150.583 348.588 151.021 348.931 151.529 349.123ZM155.141 344.769L227.553 371.924L227.553 262.961L212.029 288.836C211.789 289.232 211.451 289.56 211.048 289.788C210.644 290.015 210.189 290.135 209.726 290.135L209.554 290.137C209.234 290.133 207.688 289.627 200.397 287.179L199.093 286.74L198.924 286.684C191.525 284.2 179.199 280.062 158.016 273.039L155.141 272.086V344.769ZM229.996 250.416L230.226 250.493L309.252 224.151L269.966 211.058L269.009 212.085C264.484 216.932 258.974 220.754 252.848 223.291C246.722 225.829 240.124 227.025 233.497 226.797C226.871 226.569 220.37 224.924 214.433 221.972C208.495 219.021 203.26 214.83 199.079 209.684L198.125 208.511L151.201 224.152L229.996 250.416ZM314.201 344.971L315.032 344.695L315.032 269.948L256.912 288.213C256.398 288.372 255.847 288.373 255.332 288.216C254.817 288.059 254.361 287.751 254.023 287.332L232.899 260.93V372.072L314.201 344.971ZM257.054 282.564L344.772 254.999L316.983 227.209L234.708 254.634L257.054 282.564ZM281.36 176.881C281.452 178.107 281.498 179.294 281.498 180.412C281.493 188.813 279.21 197.055 274.893 204.262L273.494 206.599L316.983 221.093L344.754 193.322L281.119 173.681L281.36 176.881ZM189.668 170.244L115.688 193.312L143.47 221.093L194.99 203.921L193.817 201.65C190.415 195.089 188.65 187.802 188.674 180.412C188.677 178.159 188.843 175.908 189.169 173.679L189.668 170.244ZM143.937 227.365L126.265 256.82L207.993 284.062L208.548 284.247L226.219 254.793L144.861 227.673L143.937 227.365Z" fill="#325837"/>
<path d="M197.546 324.02C197.69 324.34 197.897 324.628 198.153 324.868C198.41 325.108 198.711 325.294 199.041 325.417L209.849 329.47C210.513 329.718 211.248 329.693 211.892 329.399C212.537 329.106 213.039 328.569 213.288 327.905C213.537 327.242 213.512 326.507 213.22 325.862C212.927 325.217 212.39 324.714 211.727 324.465L200.918 320.412C200.619 320.299 200.303 320.241 199.984 320.241C199.44 320.242 198.908 320.409 198.461 320.719C198.013 321.028 197.67 321.466 197.476 321.975C197.352 322.304 197.295 322.654 197.306 323.005C197.318 323.356 197.4 323.701 197.546 324.02V324.02Z" fill="#325837"/>
<path d="M213.219 346.624C213.074 346.304 212.868 346.016 212.611 345.777C212.355 345.537 212.053 345.351 211.724 345.228L182.564 334.293C182.266 334.181 181.949 334.123 181.63 334.123C181.086 334.124 180.555 334.291 180.107 334.601C179.659 334.91 179.316 335.349 179.122 335.858C178.874 336.521 178.899 337.257 179.192 337.902C179.485 338.548 180.023 339.05 180.687 339.299L209.846 350.234C210.341 350.419 210.88 350.454 211.395 350.333C211.91 350.213 212.377 349.942 212.738 349.556C213.099 349.169 213.337 348.685 213.423 348.163C213.509 347.641 213.437 347.106 213.219 346.625V346.624Z" fill="#325837"/>
<path d="M261.275 163.942C260.773 163.442 260.093 163.161 259.385 163.161C258.676 163.161 257.996 163.442 257.494 163.943L230.225 191.212L222.395 183.383C221.894 182.882 221.214 182.601 220.505 182.601C219.797 182.601 219.117 182.883 218.616 183.384C218.115 183.885 217.833 184.565 217.833 185.274C217.833 185.982 218.114 186.662 218.615 187.164H218.615L228.335 196.882C228.837 197.383 229.517 197.664 230.225 197.664C230.934 197.664 231.614 197.383 232.116 196.882L261.275 167.723C261.776 167.221 262.057 166.542 262.057 165.833C262.057 165.124 261.776 164.444 261.275 163.942V163.942Z" fill="#325837"/>
</svg>
