<svg width="616" height="584" viewBox="0 0 616 584" fill="none" xmlns="http://www.w3.org/2000/svg">
<path fill-rule="evenodd" clip-rule="evenodd" d="M274.971 43.3273C212.419 53.5259 171.731 108.107 132.21 157.653C89.3098 211.433 37.2898 266.161 42.5004 334.758C48.0156 407.366 79.0381 470.89 140.391 510.109C199.022 547.587 288.986 545.519 357.975 536.418C430.43 526.86 510.484 516.622 553.604 457.616C597.021 398.204 591.836 316.27 570.265 245.918C551.291 184.033 499.325 143.118 445.95 106.499C393.866 70.7669 337.31 33.1633 274.971 43.3273Z" fill="#EDF4DD"/>
<path fill-rule="evenodd" clip-rule="evenodd" d="M326.506 427.251C336.432 427.251 344.512 419.171 344.512 409.246C344.512 399.32 336.432 391.24 326.506 391.24C316.581 391.24 308.501 399.32 308.501 409.246C308.501 419.171 316.581 427.251 326.506 427.251ZM316.504 409.246C316.504 403.728 320.989 399.244 326.506 399.244C332.024 399.244 336.508 403.728 336.508 409.246C336.508 414.763 332.024 419.248 326.506 419.248C320.989 419.248 316.504 414.763 316.504 409.246Z" fill="#325837"/>
<path fill-rule="evenodd" clip-rule="evenodd" d="M256.02 427.251C265.946 427.251 274.026 419.171 274.026 409.246C274.026 399.32 265.946 391.24 256.02 391.24C246.094 391.24 238.015 399.32 238.015 409.246C238.015 419.171 246.094 427.251 256.02 427.251ZM246.018 409.246C246.018 403.728 250.502 399.244 256.02 399.244C261.538 399.244 266.022 403.728 266.022 409.246C266.022 414.763 261.538 419.248 256.02 419.248C250.502 419.248 246.018 414.763 246.018 409.246Z" fill="#325837"/>
<path fill-rule="evenodd" clip-rule="evenodd" d="M380.124 239.831L379.503 242.007H200.007C197.35 242.007 195.43 244.557 196.159 247.109L224.167 345.135C224.658 346.853 226.228 348.037 228.015 348.037H352.042L354.807 353.566C358.129 360.213 353.3 368.041 345.86 368.041H228.015C225.805 368.041 224.013 369.833 224.013 372.043C224.013 374.253 225.805 376.045 228.015 376.045H345.86C359.232 376.045 367.956 361.97 361.965 349.986L358.791 343.638L359.111 342.516C366.785 315.656 385.09 251.588 392.92 224.18L393.541 222.004H425C427.21 222.004 429.002 220.212 429.002 218.002C429.002 215.792 427.21 214 425 214H390.523C388.736 214 387.165 215.185 386.675 216.903C384.756 223.619 382.522 231.439 380.124 239.831ZM351.496 340.033H231.033L205.312 250.011H377.216L376.123 253.835C369.956 275.421 363.3 298.719 358.341 316.075L358.203 316.558L352.118 337.858L351.496 340.033Z" fill="#325837"/>
<circle cx="442.502" cy="218.223" r="4.5" fill="#325837"/>
<path d="M309.209 296.843C309.209 301.337 308.854 305.361 308.143 308.916C307.457 312.445 306.365 315.441 304.867 317.904C303.369 320.367 301.414 322.246 299.002 323.541C296.59 324.836 293.67 325.483 290.242 325.483C285.951 325.483 282.409 324.354 279.616 322.094C276.823 319.809 274.754 316.533 273.408 312.268C272.063 307.977 271.39 302.835 271.39 296.843C271.39 290.851 271.999 285.722 273.218 281.456C274.462 277.165 276.468 273.877 279.236 271.592C282.003 269.307 285.672 268.164 290.242 268.164C294.559 268.164 298.114 269.307 300.906 271.592C303.725 273.852 305.807 277.127 307.153 281.418C308.524 285.684 309.209 290.825 309.209 296.843ZM280.416 296.843C280.416 301.54 280.721 305.463 281.33 308.611C281.965 311.76 283.006 314.121 284.453 315.695C285.901 317.244 287.83 318.019 290.242 318.019C292.655 318.019 294.584 317.244 296.031 315.695C297.479 314.146 298.52 311.798 299.155 308.649C299.815 305.501 300.145 301.565 300.145 296.843C300.145 292.171 299.827 288.261 299.193 285.112C298.558 281.964 297.517 279.603 296.07 278.028C294.622 276.429 292.68 275.629 290.242 275.629C287.805 275.629 285.863 276.429 284.415 278.028C282.993 279.603 281.965 281.964 281.33 285.112C280.721 288.261 280.416 292.171 280.416 296.843Z" fill="#325837"/>
</svg>
