<svg width="18" height="18" viewBox="0 0 18 18" fill="none" xmlns="http://www.w3.org/2000/svg">
<path fill-rule="evenodd" clip-rule="evenodd" d="M12.4562 6.22811C12.4562 9.11551 10.1155 11.4562 7.22811 11.4562C4.3407 11.4562 2 9.11551 2 6.22811C2 3.3407 4.3407 1 7.22811 1C10.1155 1 12.4562 3.3407 12.4562 6.22811ZM10.1386 11.7357C9.26995 12.1957 8.27945 12.4562 7.22811 12.4562C3.78842 12.4562 1 9.66779 1 6.22811C1 2.78842 3.78842 0 7.22811 0C10.6678 0 13.4562 2.78842 13.4562 6.22811C13.4562 8.25604 12.487 10.0576 10.9865 11.1948L15.1698 16.4239C15.3423 16.6395 15.3073 16.9542 15.0917 17.1267C14.876 17.2992 14.5614 17.2642 14.3889 17.0486L10.1386 11.7357Z" fill="#B9B9B9"/>
</svg>
