<svg width="30" height="30" viewBox="0 0 30 30" fill="none" xmlns="http://www.w3.org/2000/svg">
<path d="M29.5 15C29.5 23.0081 23.0081 29.5 15 29.5C6.99187 29.5 0.5 23.0081 0.5 15C0.5 6.99187 6.99187 0.5 15 0.5C23.0081 0.5 29.5 6.99187 29.5 15Z" stroke="#B7B7B7"/>
<path d="M17.4572 15.1897C17.4724 13.9244 16.459 12.8864 15.1937 12.8712C13.9284 12.856 12.8903 13.8694 12.8751 15.1347C12.86 16.4 13.8734 17.4381 15.1387 17.4533C16.404 17.4685 17.4421 16.455 17.4572 15.1897Z" fill="#B7B7B7"/>
<path d="M17.9857 9.42969H12.3466C10.7405 9.42969 9.42969 10.7346 9.42969 12.3466V17.9857C9.42969 19.5918 10.7346 20.9026 12.3466 20.9026H17.9857C19.5918 20.9026 20.9026 19.5977 20.9026 17.9857V12.3466C20.8967 10.7346 19.5918 9.42969 17.9857 9.42969ZM15.1632 18.9364C13.0847 18.9364 11.3901 17.2417 11.3901 15.1632C11.3901 13.0847 13.0847 11.3901 15.1632 11.3901C17.2417 11.3901 18.9364 13.0847 18.9364 15.1632C18.9364 17.2417 17.2417 18.9364 15.1632 18.9364ZM19.1253 11.8093C18.771 11.8093 18.4876 11.5259 18.4876 11.1716C18.4876 10.8173 18.771 10.5339 19.1253 10.5339C19.4796 10.5339 19.763 10.8173 19.763 11.1716C19.763 11.5259 19.4796 11.8093 19.1253 11.8093Z" fill="#B7B7B7"/>
</svg>
