<svg width="40" height="40" viewBox="0 0 40 40" fill="none" xmlns="http://www.w3.org/2000/svg">
<circle cx="20" cy="20" r="20" fill="#F5F5F4"/>
<path d="M25.5279 14.4752L25.4884 14.4357C24.1804 13.1346 22.4518 12.3417 20.6123 12.199C18.7728 12.0564 16.9426 12.5733 15.4496 13.6572C13.9566 14.7412 12.8982 16.3212 12.4641 18.1144C12.03 19.9077 12.2485 21.7968 13.0806 23.4436L13.4227 24.1173L12.7832 27.2173V27.2567L15.8542 26.5278L16.5542 26.8752C18.0111 27.5983 19.6582 27.8461 21.2634 27.5836C22.8686 27.3211 24.3509 26.5616 25.5016 25.412C26.9463 23.9603 27.7595 21.997 27.7644 19.949C27.7694 17.901 26.9656 15.9338 25.5279 14.4752V14.4752ZM25.2174 23.1594C24.8411 23.7515 24.2437 24.4752 23.499 24.6567C22.1832 24.9752 20.1806 24.6567 17.6727 22.3383L17.6411 22.3094C15.4595 20.2725 14.8806 18.5752 15.0095 17.2304C15.0858 16.4673 15.7227 15.7778 16.2595 15.3252C16.3446 15.2527 16.4456 15.2012 16.5543 15.1749C16.663 15.1486 16.7764 15.1483 16.8853 15.1739C16.9941 15.1995 17.0954 15.2504 17.181 15.3223C17.2666 15.3943 17.3341 15.4855 17.3779 15.5883L18.1858 17.4304C18.2386 17.548 18.2583 17.6777 18.243 17.8056C18.2277 17.9336 18.1779 18.0549 18.099 18.1567L17.6884 18.6831C17.6031 18.7923 17.5523 18.9245 17.5424 19.0628C17.5326 19.2011 17.5642 19.3391 17.6332 19.4594C18.0233 20.0332 18.4899 20.5511 19.02 20.9988C19.5892 21.5496 20.2365 22.0134 20.9411 22.3752C21.0694 22.4273 21.2104 22.4398 21.3459 22.4112C21.4814 22.3826 21.6053 22.3142 21.7016 22.2146L22.1727 21.7383C22.2606 21.6375 22.375 21.5634 22.5029 21.5243C22.6308 21.4853 22.7671 21.4828 22.8963 21.5173L24.8174 22.0699C24.9242 22.1012 25.0223 22.1568 25.1039 22.2324C25.1855 22.308 25.2484 22.4016 25.2877 22.5057C25.327 22.6098 25.3416 22.7216 25.3303 22.8323C25.319 22.943 25.2822 23.0496 25.2227 23.1436L25.2174 23.1594Z" fill="#A4C756"/>
<path d="M20 0C16.0444 0 12.1776 1.17298 8.8886 3.37061C5.59962 5.56823 3.03617 8.69181 1.52242 12.3463C0.00866564 16.0008 -0.387401 20.0222 0.384303 23.9018C1.15601 27.7814 3.06082 31.3451 5.85787 34.1421C8.65492 36.9392 12.2186 38.844 16.0982 39.6157C19.9778 40.3874 23.9991 39.9913 27.6537 38.4776C31.3082 36.9638 34.4318 34.4004 36.6294 31.1114C38.827 27.8224 40 23.9556 40 20C40 14.6957 37.8929 9.60859 34.1421 5.85786C30.3914 2.10714 25.3043 0 20 0V0ZM29.9132 20.2342C29.8591 21.8952 29.3888 23.516 28.5454 24.948C27.702 26.38 26.5124 27.5772 25.0859 28.4298C23.6594 29.2824 22.0416 29.7631 20.381 29.8278C18.7204 29.8924 17.0701 29.539 15.5816 28.8L10.5816 29.9895C10.506 30.0068 10.4269 30.001 10.3547 29.9729C10.2824 29.9447 10.2203 29.8955 10.1763 29.8316C10.1463 29.7888 10.1254 29.7404 10.115 29.6892C10.1046 29.638 10.1049 29.5853 10.1158 29.5342L11.1684 24.4237C10.4804 23.0755 10.1099 21.5877 10.0854 20.0742C10.0609 18.5608 10.3831 17.0618 11.0272 15.6921C11.6713 14.3223 12.6203 13.1181 13.8015 12.1716C14.9827 11.2251 16.3648 10.5615 17.8421 10.2314C19.3193 9.90141 20.8524 9.91377 22.3242 10.2676C23.7959 10.6214 25.1671 11.3072 26.3329 12.2727C27.4987 13.2381 28.4282 14.4574 29.0501 15.8374C29.672 17.2174 29.9699 18.7214 29.9211 20.2342H29.9132Z" fill="#A4C756"/>
</svg>
