<svg width="40" height="40" viewBox="0 0 40 40" fill="none" xmlns="http://www.w3.org/2000/svg">
<path d="M39.5 20C39.5 30.7696 30.7696 39.5 20 39.5C9.23045 39.5 0.5 30.7696 0.5 20C0.5 9.23045 9.23045 0.5 20 0.5C30.7696 0.5 39.5 9.23045 39.5 20Z" stroke="#A4C756"/>
<path d="M23.277 20.253C23.2972 18.5659 21.946 17.1818 20.2589 17.1616C18.5718 17.1413 17.1878 18.4926 17.1675 20.1796C17.1473 21.8667 18.4985 23.2508 20.1856 23.271C21.8727 23.2913 23.2567 21.94 23.277 20.253Z" fill="#A4C756"/>
<path d="M23.9822 12.5723H16.4635C14.322 12.5723 12.5742 14.3122 12.5742 16.4615V23.9803C12.5742 26.1217 14.3142 27.8695 16.4635 27.8695H23.9822C26.1237 27.8695 27.8715 26.1296 27.8715 23.9803V16.4615C27.8636 14.3122 26.1237 12.5723 23.9822 12.5723ZM20.2189 25.2478C17.4476 25.2478 15.1881 22.9883 15.1881 20.217C15.1881 17.4457 17.4476 15.1861 20.2189 15.1861C22.9902 15.1861 25.2498 17.4457 25.2498 20.217C25.2498 22.9883 22.9902 25.2478 20.2189 25.2478ZM25.5017 15.7451C25.0293 15.7451 24.6514 15.3672 24.6514 14.8948C24.6514 14.4224 25.0293 14.0445 25.5017 14.0445C25.9741 14.0445 26.352 14.4224 26.352 14.8948C26.352 15.3672 25.9741 15.7451 25.5017 15.7451Z" fill="#A4C756"/>
</svg>
