<svg width="30" height="30" viewBox="0 0 30 30" fill="none" xmlns="http://www.w3.org/2000/svg">
<path fill-rule="evenodd" clip-rule="evenodd" d="M19.145 10.8554L19.1154 10.8258C18.1343 9.84995 16.8378 9.25528 15.4582 9.1483C14.0786 9.04132 12.706 9.42902 11.5862 10.242C10.4664 11.0549 9.67267 12.24 9.3471 13.5849C9.02154 14.9298 9.18543 16.3466 9.80944 17.5817L10.066 18.087L9.58641 20.412V20.4416L11.8897 19.8949L12.4147 20.1554C13.5074 20.6978 14.7427 20.8836 15.9466 20.6867C17.1505 20.4899 18.2622 19.9202 19.1252 19.058C20.2087 17.9693 20.8187 16.4968 20.8224 14.9608C20.8261 13.4247 20.2232 11.9494 19.145 10.8554ZM17.6233 18.4916C18.1818 18.3554 18.6298 17.8126 18.9121 17.3686L18.916 17.3567C18.9606 17.2862 18.9883 17.2063 18.9968 17.1233C19.0052 17.0402 18.9943 16.9564 18.9648 16.8783C18.9354 16.8002 18.8881 16.7301 18.8269 16.6733C18.7657 16.6166 18.6922 16.5749 18.6121 16.5514L17.1713 16.137C17.0744 16.1111 16.9721 16.113 16.8762 16.1423C16.7803 16.1716 16.6945 16.2272 16.6285 16.3028L16.2752 16.66C16.203 16.7346 16.1101 16.786 16.0084 16.8074C15.9068 16.8289 15.8011 16.8195 15.7048 16.7804C15.1764 16.5091 14.6909 16.1612 14.264 15.7482C13.8665 15.4124 13.5165 15.0239 13.2239 14.5936C13.1722 14.5034 13.1485 14.3998 13.1559 14.2961C13.1632 14.1924 13.2014 14.0933 13.2654 14.0113L13.5733 13.6166C13.6325 13.5402 13.6698 13.4492 13.6813 13.3532C13.6928 13.2573 13.6779 13.16 13.6384 13.0718L13.0325 11.6903C12.9996 11.6131 12.949 11.5448 12.8848 11.4908C12.8206 11.4368 12.7446 11.3986 12.663 11.3794C12.5813 11.3602 12.4963 11.3605 12.4148 11.3802C12.3333 11.3999 12.2575 11.4385 12.1937 11.4929C11.791 11.8324 11.3134 12.3495 11.2562 12.9218C11.1594 13.9304 11.5937 15.2034 13.2298 16.7311L13.2535 16.7528C15.1344 18.4916 16.6364 18.7304 17.6233 18.4916Z" fill="#B7B7B7"/>
<path d="M6.94424 2.94369C9.32875 1.35041 12.1322 0.5 15 0.5C18.8456 0.5 22.5338 2.02767 25.253 4.74695C27.9723 7.46623 29.5 11.1544 29.5 15C29.5 17.8678 28.6496 20.6712 27.0563 23.0558C25.463 25.4403 23.1984 27.2988 20.5489 28.3962C17.8994 29.4937 14.9839 29.7809 12.1712 29.2214C9.35847 28.6619 6.77482 27.2809 4.74696 25.253C2.7191 23.2252 1.33811 20.6415 0.77862 17.8288C0.219135 15.0161 0.506283 12.1006 1.60375 9.45109C2.70122 6.80156 4.55972 4.53697 6.94424 2.94369Z" stroke="#B7B7B7"/>
</svg>
