<svg width="40" height="40" viewBox="0 0 40 40" fill="none" xmlns="http://www.w3.org/2000/svg">
<circle cx="20" cy="20" r="20" fill="#F5F5F4"/>
<path d="M23.275 20.253C23.2953 18.5659 21.944 17.1818 20.2569 17.1616C18.5699 17.1413 17.1858 18.4926 17.1656 20.1796C17.1453 21.8667 18.4966 23.2508 20.1836 23.271C21.8707 23.2913 23.2548 21.94 23.275 20.253Z" fill="#A4C756"/>
<path d="M23.9822 12.5723H16.4635C14.322 12.5723 12.5742 14.3122 12.5742 16.4615V23.9803C12.5742 26.1217 14.3142 27.8695 16.4635 27.8695H23.9822C26.1237 27.8695 27.8715 26.1296 27.8715 23.9803V16.4615C27.8636 14.3122 26.1237 12.5723 23.9822 12.5723ZM20.2189 25.2478C17.4476 25.2478 15.1881 22.9883 15.1881 20.217C15.1881 17.4457 17.4476 15.1861 20.2189 15.1861C22.9902 15.1861 25.2498 17.4457 25.2498 20.217C25.2498 22.9883 22.9902 25.2478 20.2189 25.2478V25.2478ZM25.5017 15.7451C25.0293 15.7451 24.6514 15.3672 24.6514 14.8948C24.6514 14.4224 25.0293 14.0445 25.5017 14.0445C25.9741 14.0445 26.352 14.4224 26.352 14.8948C26.352 15.3672 25.9741 15.7451 25.5017 15.7451Z" fill="#A4C756"/>
<path fill-rule="evenodd" clip-rule="evenodd" d="M20 40C31.0457 40 40 31.0457 40 20C40 8.9543 31.0457 0 20 0C8.9543 0 0 8.9543 0 20C0 31.0457 8.9543 40 20 40ZM23.8819 29.9598C27.2358 29.9598 29.9598 27.2358 29.9598 23.8819V16.3631C29.9598 13.0092 27.2358 10.2852 23.8819 10.2852H16.3631C13.0092 10.2852 10.2852 13.0092 10.2852 16.3631V23.8819C10.2852 27.2358 13.0092 29.9598 16.3631 29.9598H23.8819Z" fill="#A4C756"/>
</svg>
