<svg width="40" height="40" viewBox="0 0 40 40" fill="none" xmlns="http://www.w3.org/2000/svg">
<path fill-rule="evenodd" clip-rule="evenodd" d="M25.526 14.4737L25.4865 14.4342C24.1784 13.1331 22.4498 12.3402 20.6103 12.1976C18.7708 12.0549 16.9407 12.5719 15.4476 13.6558C13.9546 14.7397 12.8962 16.3198 12.4622 18.113C12.0281 19.9062 12.2466 21.7954 13.0786 23.4421L13.4207 24.1158L12.7812 27.2158V27.2553L15.8523 26.5263L16.5523 26.8737C18.0092 27.5968 19.6563 27.8446 21.2615 27.5821C22.8666 27.3196 24.349 26.5601 25.4997 25.4105C26.9443 23.9589 27.7576 21.9956 27.7625 19.9475C27.7674 17.8995 26.9637 15.9323 25.526 14.4737ZM23.497 24.6553C24.2418 24.4737 24.8391 23.75 25.2154 23.1579L25.2207 23.1421C25.2802 23.0481 25.3171 22.9415 25.3284 22.8308C25.3396 22.7201 25.3251 22.6083 25.2858 22.5042C25.2465 22.4001 25.1835 22.3066 25.1019 22.231C25.0203 22.1553 24.9222 22.0997 24.8154 22.0684L22.8944 21.5158C22.7652 21.4814 22.6289 21.4838 22.501 21.5229C22.373 21.562 22.2586 21.6361 22.1707 21.7369L21.6997 22.2132C21.6033 22.3127 21.4795 22.3811 21.3439 22.4097C21.2084 22.4383 21.0675 22.4258 20.9391 22.3737C20.2346 22.0119 19.5872 21.5482 19.0181 20.9974C18.488 20.5497 18.0214 20.0317 17.6312 19.4579C17.5622 19.3377 17.5307 19.1996 17.5405 19.0613C17.5503 18.9231 17.6012 18.7908 17.6865 18.6816L18.097 18.1553C18.176 18.0535 18.2258 17.9321 18.2411 17.8042C18.2564 17.6762 18.2366 17.5465 18.1839 17.429L17.376 15.5869C17.3321 15.484 17.2647 15.3929 17.1791 15.3209C17.0935 15.2489 16.9922 15.198 16.8833 15.1724C16.7745 15.1468 16.6611 15.1471 16.5524 15.1734C16.4437 15.1997 16.3427 15.2512 16.2575 15.3237C15.7207 15.7763 15.0839 16.4658 15.0075 17.229C14.8786 18.5737 15.4575 20.2711 17.6391 22.3079L17.6707 22.3369C20.1786 24.6553 22.1812 24.9737 23.497 24.6553Z" fill="#A4C756"/>
<path fill-rule="evenodd" clip-rule="evenodd" d="M29.4259 19.8345C29.4149 18.528 29.1322 17.2366 28.5942 16.0428C28.0037 14.7324 27.1211 13.5745 26.014 12.6578C24.907 11.741 23.6048 11.0897 22.2073 10.7537C20.8097 10.4177 19.3539 10.406 17.9511 10.7194C16.5483 11.0328 15.2358 11.663 14.1142 12.5618C12.9925 13.4606 12.0913 14.6041 11.4797 15.9048C10.868 17.2056 10.5621 18.629 10.5854 20.0662C10.6086 21.5033 10.9604 22.9161 11.6138 24.1964L11.6935 24.3527L10.6413 29.4613L15.6419 28.2717L15.8039 28.3522C17.2175 29.054 18.7846 29.3896 20.3615 29.3281C21.9385 29.2667 23.4748 28.8102 24.8294 28.0006C26.184 27.1909 27.3136 26.054 28.1146 24.6942C28.9155 23.3344 29.3621 21.7953 29.4134 20.2179L29.4259 19.8345ZM10.6934 30.4768C10.5201 30.5166 10.3388 30.5033 10.1731 30.4387C10.0083 30.3745 9.86647 30.2625 9.76583 30.117C9.69695 30.0185 9.64903 29.9068 9.62504 29.7889C9.60104 29.671 9.60151 29.5494 9.62641 29.4317L9.6269 29.4294L10.6438 24.4923C9.97188 23.1185 9.61025 21.6129 9.58549 20.0823C9.55978 18.4926 9.89816 16.9181 10.5747 15.4793C11.2513 14.0405 12.2481 12.7756 13.4888 11.7814C14.7296 10.7872 16.1814 10.0901 17.7331 9.74346C19.2847 9.3968 20.8951 9.40979 22.441 9.78142C23.9869 10.1531 25.4273 10.8735 26.6518 11.8876C27.8764 12.9016 28.8527 14.1824 29.5059 15.632C30.1592 17.0815 30.4721 18.6613 30.4208 20.2504L30.4052 20.7342H30.3859C30.2612 22.3089 29.7801 23.837 28.9762 25.2018C28.0903 26.7059 26.8408 27.9634 25.3424 28.8589C23.8441 29.7545 22.1448 30.2594 20.4005 30.3274C18.7171 30.3929 17.0439 30.0495 15.5237 29.3277L10.6934 30.4768ZM20 1C16.2422 1 12.5687 2.11433 9.44417 4.20208C6.31964 6.28982 3.88436 9.25721 2.4463 12.729C1.00823 16.2008 0.63197 20.0211 1.36509 23.7067C2.09821 27.3923 3.90778 30.7778 6.56498 33.435C9.22218 36.0922 12.6077 37.9018 16.2933 38.6349C19.9789 39.368 23.7992 38.9918 27.271 37.5537C30.7428 36.1156 33.7102 33.6804 35.7979 30.5558C37.8857 27.4313 39 23.7578 39 20C39 14.9609 36.9982 10.1282 33.435 6.56497C29.8718 3.00178 25.0391 1 20 1ZM20 0C16.0444 0 12.1776 1.17298 8.8886 3.37061C5.59962 5.56823 3.03617 8.6918 1.52242 12.3463C0.00866568 16.0008 -0.387401 20.0222 0.384303 23.9018C1.15601 27.7814 3.06082 31.3451 5.85787 34.1421C8.65492 36.9392 12.2186 38.844 16.0982 39.6157C19.9778 40.3874 23.9992 39.9913 27.6537 38.4776C31.3082 36.9638 34.4318 34.4004 36.6294 31.1114C38.827 27.8224 40 23.9556 40 20C40 14.6957 37.8929 9.60859 34.1421 5.85786C30.3914 2.10714 25.3043 0 20 0Z" fill="#A4C756"/>
</svg>
