<svg width="1920" height="63" viewBox="0 0 1920 63" fill="none" xmlns="http://www.w3.org/2000/svg">
<path d="M0 39.1272L106.667 31.8295C213.333 24.8046 426.667 9.80006 640 17.3023C853.333 24.8046 1066.67 53.4497 1280 60.952C1493.33 68.4543 1706.67 53.4497 1813.33 46.4248L1920 39.1272V-4.59656e-08L1813.33 -4.59656e-08C1706.67 -4.59657e-08 1493.33 -4.59657e-08 1280 -4.59657e-08C1066.67 -4.59657e-08 853.333 -4.59658e-08 640 -4.59658e-08C426.667 -4.59658e-08 213.333 -4.5964e-08 106.667 -4.5964e-08L0 -4.5964e-08L0 39.1272Z" fill="white"/>
</svg>
